<svg width="595" height="420" viewBox="0 0 595 420" fill="none" xmlns="http://www.w3.org/2000/svg">
<path d="M87.1219 372.516C203.291 435.821 391.565 435.835 507.734 372.516C623.904 309.197 623.904 206.541 507.734 143.222C391.565 79.903 203.291 79.903 87.1219 143.222C-29.0473 206.541 -29.0339 309.17 87.1219 372.516Z" fill="#F5F5F5" fill-opacity="0.3"/>
<path d="M149.039 349.536L229.97 396.27C243.136 403.868 264.487 403.868 277.653 396.27L476.022 281.744C489.188 274.146 489.188 261.821 476.022 254.21L395.091 207.475C381.911 199.878 360.56 199.878 347.394 207.475L149.039 322.002C135.86 329.6 135.86 341.925 149.039 349.536Z" fill="#EBEBEB"/>
<path d="M268.422 65.8025C263.308 60.9955 254.055 59.1261 242.438 66.2432C230.821 73.3602 221.634 96.1267 218.75 112.23C215.866 128.334 214.05 149.364 219.818 158.284C225.587 167.204 246.524 176.657 246.524 176.657L249.061 167.884L268.422 65.8025Z" fill="#7D97F4"/>
<path opacity="0.4" d="M268.422 65.8025C263.308 60.9955 254.055 59.1261 242.438 66.2432C230.821 73.3602 221.634 96.1267 218.75 112.23C215.866 128.334 214.05 149.364 219.818 158.284C225.587 167.204 246.524 176.657 246.524 176.657L249.061 167.884L268.422 65.8025Z" fill="white"/>
<path d="M225.56 155.613C234.626 166.469 249.114 167.938 249.114 167.938L304.995 135.584L282.616 122.672L225.56 155.613Z" fill="#7D97F4"/>
<path opacity="0.2" d="M225.56 155.613C234.626 166.469 249.114 167.938 249.114 167.938L304.995 135.584L282.616 122.672L225.56 155.613Z" fill="black"/>
<path d="M225.56 155.613C221.888 151.26 221.14 140.057 223.129 122.739C225.293 103.724 232.33 74.3082 249.101 64.6141C268.769 53.2642 288.745 81.4653 282.656 122.739L225.56 155.613Z" fill="#7D97F4"/>
<path d="M356.471 247.641C366.792 259.338 374.35 261.661 377.114 264.158C379.878 266.655 378.783 272.05 372.614 273.772C366.445 275.495 359.515 274.48 355.175 270.754C350.836 267.029 347.618 261.941 343.265 259.298C338.912 256.654 336.748 256.026 335.867 252.621C334.986 249.216 337.336 238.601 337.336 238.601L356.471 247.641Z" fill="#263238"/>
<path d="M350.555 229.054C350.008 233.62 349.34 237.639 352.812 242.834C353.933 244.504 355.155 246.105 356.47 247.627C362.506 254.584 367.406 260.005 368.274 260.98C369.142 261.955 364.722 265.493 359.248 263.651C353.773 261.808 348.632 254.304 344.814 249.857C343.118 247.868 341.462 246.065 340.153 244.676C338.393 242.825 337.372 240.393 337.283 237.84L337.029 230.629L350.555 229.054Z" fill="#FFA8A7"/>
<path d="M325.132 266.775C335.453 278.486 342.998 280.796 345.775 283.293C348.552 285.789 347.444 291.197 341.275 292.92C335.106 294.642 328.176 293.628 323.823 289.889C319.47 286.15 316.279 281.089 311.926 278.445C307.573 275.802 305.396 275.174 304.528 271.769C303.66 268.364 305.997 257.749 305.997 257.749L325.132 266.775Z" fill="#263238"/>
<path d="M319.203 248.201C318.669 252.781 317.988 256.787 321.473 261.982C322.591 263.654 323.813 265.255 325.132 266.775C331.167 273.745 336.054 279.167 336.922 280.128C337.79 281.089 333.384 284.641 327.896 282.799C322.408 280.956 317.28 273.452 313.475 269.018C311.779 267.016 310.123 265.226 308.814 263.838C307.056 261.985 306.036 259.553 305.944 257.001L305.677 249.777L319.203 248.201Z" fill="#FFA8A7"/>
<path d="M277.462 1.51278e-05H285.394C288.491 -0.00349367 291.56 0.603413 294.423 1.78606C297.286 2.96871 299.888 4.70394 302.08 6.89257C304.273 9.08121 306.012 11.6804 307.2 14.5415C308.388 17.4027 309 20.4698 309.001 23.5677V82.8006H253.881V23.5677C253.885 17.3159 256.371 11.3214 260.793 6.90201C265.214 2.48261 271.21 1.41255e-05 277.462 1.51278e-05Z" fill="#263238"/>
<path d="M312.313 68.8202C303.086 59.1261 298.372 58.138 292.764 58.138L303.446 89.517C303.446 89.517 321.019 101.134 331.3 107.543L337.83 93.149C337.83 93.149 321.539 78.4743 312.313 68.8202Z" fill="#FFA8A7"/>
<path d="M249.955 139.59C246.524 146.987 242.104 154.852 246.577 162.463C251.05 170.074 287.383 162.463 287.383 162.463V139.59H249.955Z" fill="#263238"/>
<path d="M289.266 58.138C293.272 57.8042 297.812 57.9244 302.619 66.0162C307.426 74.108 310.123 78.6479 308.601 90.4251C307.079 102.202 301.39 111.282 300.976 115.689C300.562 120.095 301.617 141.272 301.617 141.272C301.617 141.272 294.594 151.3 277.128 151.768C271.979 151.881 266.87 150.846 262.17 148.74C257.47 146.634 253.298 143.508 249.955 139.59L263.308 115.635L259.89 66.9509L272.935 59.1395L289.266 58.138Z" fill="#7D97F4"/>
<path d="M289.266 58.138C293.272 57.8042 297.812 57.9244 302.619 66.0162C307.426 74.108 310.123 78.6479 308.601 90.4251C307.079 102.202 301.39 111.282 300.976 115.689C300.562 120.095 301.617 141.272 301.617 141.272C301.617 141.272 294.594 151.3 277.128 151.768C271.979 151.881 266.87 150.846 262.17 148.74C257.47 146.634 253.298 143.508 249.955 139.59L263.308 115.635L259.89 66.9509L272.935 59.1395L289.266 58.138Z" fill="#E0E0E0"/>
<path d="M272.949 75.3631C271.683 75.3631 270.431 75.1137 269.262 74.629C268.093 74.1444 267.031 73.434 266.137 72.5386C265.242 71.6432 264.534 70.5803 264.051 69.4107C263.568 68.2412 263.32 66.9878 263.322 65.7224V37.6816H272.949V75.3631Z" fill="#263238"/>
<path d="M299.921 11.1362C302.819 12.8587 306.424 20.1761 306.063 35.5051C305.77 48.5107 301.55 51.7153 299.387 52.65C297.224 53.5847 293.191 53.0105 289.212 52.3429V60.1543C289.212 60.1543 294.7 66.5236 294.353 70.0887C294.006 73.6539 286.435 74.5219 281.307 71.0234C277.982 68.628 275.126 65.6406 272.882 62.2106V43.3431C272.882 43.3431 270.211 46.9217 265.832 44.0108C261.452 41.0999 261.278 33.9027 263.829 31.3256C266.379 28.7485 271.84 29.5497 272.882 33.1283C272.882 33.1283 279.211 33.3553 287.57 28.7352C290.87 26.9822 293.708 24.4743 295.855 21.4159C298.001 18.3575 299.394 14.8353 299.921 11.1362Z" fill="#FFA8A7"/>
<path d="M291.549 32.247C291.569 32.679 291.416 33.1011 291.124 33.4204C290.832 33.7397 290.425 33.93 289.993 33.9495C289.561 33.9689 289.139 33.816 288.82 33.5243C288.501 33.2325 288.31 32.8259 288.291 32.3939C288.281 32.1799 288.314 31.9662 288.387 31.7649C288.46 31.5635 288.572 31.3785 288.716 31.2204C288.861 31.0624 289.035 30.9343 289.229 30.8435C289.423 30.7527 289.633 30.701 289.847 30.6914C290.06 30.6817 290.274 30.7143 290.476 30.7873C290.677 30.8602 290.862 30.9721 291.02 31.1166C291.178 31.261 291.306 31.4352 291.397 31.6292C291.488 31.8231 291.539 32.0331 291.549 32.247Z" fill="#263238"/>
<path d="M288.598 27.2397L285.207 29.3361C284.931 28.8715 284.846 28.3181 284.971 27.7924C285.095 27.2667 285.419 26.81 285.874 26.5186C286.099 26.3831 286.35 26.2942 286.61 26.2571C286.87 26.22 287.135 26.2356 287.389 26.3028C287.643 26.3701 287.881 26.4877 288.089 26.6486C288.296 26.8095 288.47 27.0105 288.598 27.2397Z" fill="#263238"/>
<path d="M291.99 43.263L295.782 44.4781C295.71 44.7297 295.589 44.9643 295.425 45.1683C295.261 45.3722 295.058 45.5414 294.828 45.6658C294.598 45.7902 294.345 45.8673 294.085 45.8927C293.824 45.918 293.561 45.8911 293.312 45.8134C292.808 45.6365 292.391 45.2741 292.145 44.8002C291.899 44.3263 291.844 43.7765 291.99 43.263Z" fill="#F28F8F"/>
<path d="M304.996 27.2263L301.684 24.9296C301.822 24.7055 302.005 24.512 302.22 24.3612C302.436 24.2103 302.68 24.1054 302.938 24.0528C303.196 24.0003 303.462 24.0012 303.719 24.0555C303.977 24.1099 304.22 24.2165 304.435 24.3688C304.875 24.6839 305.178 25.1551 305.283 25.6863C305.387 26.2174 305.284 26.7683 304.996 27.2263Z" fill="#263238"/>
<path d="M304.194 31.0586C304.199 31.381 304.109 31.6977 303.935 31.9692C303.761 32.2408 303.511 32.4551 303.216 32.5855C302.921 32.7158 302.594 32.7565 302.276 32.7024C301.958 32.6483 301.663 32.5018 301.428 32.2812C301.193 32.0606 301.028 31.7756 300.954 31.4618C300.879 31.148 300.899 30.8193 301.01 30.5167C301.122 30.214 301.319 29.9508 301.579 29.7598C301.839 29.5689 302.149 29.4586 302.472 29.4429C302.691 29.4357 302.909 29.4719 303.114 29.5492C303.32 29.6266 303.508 29.7437 303.668 29.8937C303.828 30.0438 303.956 30.2239 304.047 30.4237C304.137 30.6236 304.187 30.8393 304.194 31.0586Z" fill="#263238"/>
<path d="M296.476 30.1239L296.743 39.9649L301.924 38.3625L296.476 30.1239Z" fill="#F28F8F"/>
<path d="M289.266 52.3429C285.968 51.969 279.345 49.9661 277.876 47.7362C278.159 49.1606 278.952 50.4329 280.106 51.3147C282.269 53.3844 289.266 54.8799 289.266 54.8799V52.3429Z" fill="#F28F8F"/>
<path d="M254.696 274.426L148.448 213.084L372.133 83.9356L478.381 145.278L254.696 274.426Z" fill="#7D97F4"/>
<path opacity="0.4" d="M254.696 274.426L148.448 213.084L372.133 83.9356L478.381 145.278L254.696 274.426Z" fill="white"/>
<path d="M148.448 213.084V335.769L154.042 339V255.051L249.114 309.931V393.88L254.696 397.112V274.426L148.448 213.084Z" fill="#7D97F4"/>
<path opacity="0.3" d="M148.448 213.084V335.769L154.042 339V255.051L249.114 309.931V393.88L254.696 397.112V274.426L148.448 213.084Z" fill="black"/>
<path d="M154.042 339L159.637 335.769V258.283L154.042 255.051V339Z" fill="#7D97F4"/>
<path opacity="0.5" d="M154.042 339L159.637 335.769V258.283L154.042 255.051V339Z" fill="black"/>
<path d="M254.696 397.112L260.291 393.88V309.931L472.787 187.246V271.195L478.382 267.964V145.278L254.696 274.426V397.112Z" fill="#7D97F4"/>
<path opacity="0.1" d="M254.696 397.112L260.291 393.88V309.931L472.787 187.246V271.195L478.382 267.964V145.278L254.696 274.426V397.112Z" fill="black"/>
<path d="M260.29 303.482V277.658L327.401 238.908V264.732L260.29 303.482Z" fill="#7D97F4"/>
<path opacity="0.3" d="M260.29 303.482V277.658L327.401 238.908V264.732L260.29 303.482Z" fill="black"/>
<path d="M332.983 261.514V235.677L400.094 196.94V222.764L332.983 261.514Z" fill="#7D97F4"/>
<path opacity="0.3" d="M332.983 261.514V235.677L400.094 196.94V222.764L332.983 261.514Z" fill="black"/>
<path d="M405.689 219.533V193.709L472.786 154.959V180.797L405.689 219.533Z" fill="#7D97F4"/>
<path opacity="0.3" d="M405.689 219.533V193.709L472.786 154.959V180.797L405.689 219.533Z" fill="black"/>
<path d="M304.995 251.82V253.89C304.995 255.025 302.325 257.495 299.027 259.391L288.585 265.427C285.287 267.323 282.616 267.95 282.616 266.762V264.706L304.995 251.82Z" fill="#263238"/>
<path d="M377.728 209.852V211.922C377.728 213.057 375.057 215.527 371.759 217.423L361.317 223.459C358.032 225.355 355.362 225.969 355.362 224.794V222.724L377.728 209.852Z" fill="#263238"/>
<path d="M450.421 167.885V169.941C450.421 171.089 447.75 173.546 444.465 175.456L434.01 181.478C430.725 183.387 428.055 184.001 428.055 182.813V180.743L450.421 167.885Z" fill="#263238"/>
<path d="M472.786 271.195L467.205 267.964V190.477L472.786 187.246V271.195Z" fill="#7D97F4"/>
<path opacity="0.3" d="M472.786 271.195L467.205 267.964V190.477L472.786 187.246V271.195Z" fill="black"/>
<path d="M316.212 153.584V153.116C316.236 152.703 316.356 152.301 316.562 151.941C316.768 151.582 317.055 151.276 317.4 151.047L387.783 110.454C388.154 110.269 388.563 110.172 388.978 110.172C389.393 110.172 389.802 110.269 390.173 110.454L404.567 118.76C404.912 118.989 405.199 119.295 405.405 119.654C405.612 120.014 405.731 120.416 405.755 120.829V121.31C405.728 121.722 405.605 122.123 405.396 122.48C405.188 122.836 404.899 123.14 404.554 123.366L334.251 163.959C333.88 164.144 333.471 164.241 333.056 164.241C332.641 164.241 332.232 164.144 331.861 163.959L317.4 155.613C317.06 155.388 316.776 155.088 316.57 154.736C316.364 154.385 316.242 153.99 316.212 153.584Z" fill="#7D97F4"/>
<path opacity="0.7" d="M316.212 153.584V153.116C316.236 152.703 316.356 152.301 316.562 151.941C316.768 151.582 317.055 151.276 317.4 151.047L387.783 110.454C388.154 110.269 388.563 110.172 388.978 110.172C389.393 110.172 389.802 110.269 390.173 110.454L404.567 118.76C404.912 118.989 405.199 119.295 405.405 119.654C405.612 120.014 405.731 120.416 405.755 120.829V121.31C405.728 121.722 405.605 122.123 405.396 122.48C405.188 122.836 404.899 123.14 404.554 123.366L334.251 163.959C333.88 164.144 333.471 164.241 333.056 164.241C332.641 164.241 332.232 164.144 331.861 163.959L317.4 155.613C317.06 155.388 316.776 155.088 316.57 154.736C316.364 154.385 316.242 153.99 316.212 153.584Z" fill="white"/>
<path d="M317.4 152.422L331.794 160.741C332.165 160.926 332.575 161.023 332.989 161.023C333.404 161.023 333.814 160.926 334.185 160.741L404.487 120.148C404.615 120.09 404.723 119.996 404.799 119.877C404.875 119.759 404.915 119.621 404.915 119.481C404.915 119.34 404.875 119.202 404.799 119.084C404.723 118.966 404.615 118.872 404.487 118.813L390.093 110.508C389.722 110.322 389.312 110.225 388.898 110.225C388.483 110.225 388.074 110.322 387.702 110.508L317.387 151.1C316.746 151.434 316.746 152.048 317.4 152.422Z" fill="#7D97F4"/>
<path opacity="0.9" d="M317.4 152.422L331.794 160.741C332.165 160.926 332.575 161.023 332.989 161.023C333.404 161.023 333.814 160.926 334.185 160.741L404.487 120.148C404.615 120.09 404.723 119.996 404.799 119.877C404.875 119.759 404.915 119.621 404.915 119.481C404.915 119.34 404.875 119.202 404.799 119.084C404.723 118.966 404.615 118.872 404.487 118.813L390.093 110.508C389.722 110.322 389.312 110.225 388.898 110.225C388.483 110.225 388.074 110.322 387.702 110.508L317.387 151.1C316.746 151.434 316.746 152.048 317.4 152.422Z" fill="white"/>
<path d="M227.937 192.24L270.278 216.702C270.649 216.888 271.058 216.985 271.473 216.985C271.888 216.985 272.297 216.888 272.668 216.702L303.834 198.703C303.966 198.649 304.08 198.556 304.16 198.437C304.24 198.318 304.282 198.178 304.282 198.035C304.282 197.892 304.24 197.752 304.16 197.633C304.08 197.514 303.966 197.422 303.834 197.367L261.479 172.919C261.112 172.728 260.704 172.628 260.29 172.628C259.877 172.628 259.469 172.728 259.102 172.919L227.937 190.865C227.269 191.252 227.269 191.866 227.937 192.24Z" fill="#7D97F4"/>
<path opacity="0.8" d="M227.937 192.24L270.278 216.702C270.649 216.888 271.058 216.985 271.473 216.985C271.888 216.985 272.297 216.888 272.668 216.702L303.834 198.703C303.966 198.649 304.08 198.556 304.16 198.437C304.24 198.318 304.282 198.178 304.282 198.035C304.282 197.892 304.24 197.752 304.16 197.633C304.08 197.514 303.966 197.422 303.834 197.367L261.479 172.919C261.112 172.728 260.704 172.628 260.29 172.628C259.877 172.628 259.469 172.728 259.102 172.919L227.937 190.865C227.269 191.252 227.269 191.866 227.937 192.24Z" fill="white"/>
<path d="M259.102 172.878L229.499 189.957L270.278 213.511C270.649 213.697 271.058 213.793 271.473 213.793C271.888 213.793 272.297 213.697 272.668 213.511L302.325 196.419L261.532 172.878C261.158 172.679 260.741 172.574 260.317 172.574C259.893 172.574 259.476 172.679 259.102 172.878Z" fill="#7D97F4"/>
<path opacity="0.7" d="M259.102 172.878L229.499 189.957L270.278 213.511C270.649 213.697 271.058 213.793 271.473 213.793C271.888 213.793 272.297 213.697 272.668 213.511L302.325 196.419L261.532 172.878C261.158 172.679 260.741 172.574 260.317 172.574C259.893 172.574 259.476 172.679 259.102 172.878Z" fill="white"/>
<path d="M227.936 187.94L270.278 212.389C270.649 212.575 271.058 212.672 271.473 212.672C271.888 212.672 272.297 212.575 272.668 212.389L303.834 194.403C303.961 194.345 304.07 194.25 304.146 194.132C304.222 194.014 304.262 193.876 304.262 193.735C304.262 193.595 304.222 193.457 304.146 193.339C304.07 193.22 303.961 193.126 303.834 193.068L261.479 168.565C261.109 168.382 260.702 168.286 260.29 168.286C259.878 168.286 259.471 168.382 259.102 168.565L227.936 186.565C227.79 186.611 227.662 186.703 227.572 186.826C227.481 186.95 227.432 187.099 227.432 187.253C227.432 187.406 227.481 187.555 227.572 187.679C227.662 187.803 227.79 187.894 227.936 187.94Z" fill="#7D97F4"/>
<path opacity="0.9" d="M227.936 187.94L270.278 212.389C270.649 212.575 271.058 212.672 271.473 212.672C271.888 212.672 272.297 212.575 272.668 212.389L303.834 194.403C303.961 194.345 304.07 194.25 304.146 194.132C304.222 194.014 304.262 193.876 304.262 193.735C304.262 193.595 304.222 193.457 304.146 193.339C304.07 193.22 303.961 193.126 303.834 193.068L261.479 168.565C261.109 168.382 260.702 168.286 260.29 168.286C259.878 168.286 259.471 168.382 259.102 168.565L227.936 186.565C227.79 186.611 227.662 186.703 227.572 186.826C227.481 186.95 227.432 187.099 227.432 187.253C227.432 187.406 227.481 187.555 227.572 187.679C227.662 187.803 227.79 187.894 227.936 187.94Z" fill="white"/>
<path d="M251.411 162.463C250.009 166.282 252.158 169.367 256.231 169.34C258.371 169.228 260.436 168.517 262.191 167.286C263.945 166.056 265.318 164.357 266.152 162.383C267.568 158.564 265.404 155.48 261.332 155.507C259.192 155.618 257.127 156.33 255.372 157.56C253.618 158.79 252.245 160.49 251.411 162.463Z" fill="#7D97F4"/>
<path opacity="0.1" d="M251.411 162.463C250.009 166.282 252.158 169.367 256.231 169.34C258.371 169.228 260.436 168.517 262.191 167.286C263.945 166.056 265.318 164.357 266.152 162.383C267.568 158.564 265.404 155.48 261.332 155.507C259.192 155.618 257.127 156.33 255.372 157.56C253.618 158.79 252.245 160.49 251.411 162.463Z" fill="black"/>
<path d="M254.789 180.583C251.598 189.222 256.485 196.206 265.712 196.152C274.938 196.099 284.966 188.995 288.171 180.396C291.376 171.797 286.462 164.787 277.248 164.827C268.035 164.867 257.967 171.93 254.789 180.583Z" fill="#455A64"/>
<path d="M262.267 155.613L256.739 159.472L251.211 163.331C249.381 170.582 248.834 181.905 255.63 191.652L287.437 169.433C280.573 159.619 269.651 156.334 262.267 155.613Z" fill="#455A64"/>
<path d="M265.458 156.134C265.458 156.134 266.446 164.88 259.89 168.846C259.89 168.846 266.059 167.15 267.902 162.81C269.744 158.471 265.458 156.134 265.458 156.134Z" fill="#263238"/>
<path d="M266.272 157.122C263.81 153.699 260.496 150.979 256.658 149.231L252.225 152.382L251.731 152.729L247.285 155.88C247.671 160.063 249.133 164.075 251.531 167.524C252.083 168.227 252.799 168.784 253.616 169.147C254.433 169.51 255.326 169.668 256.218 169.607C258.471 169.484 260.645 168.728 262.489 167.427C264.334 166.126 265.774 164.332 266.646 162.25C267.006 161.423 267.157 160.521 267.087 159.623C267.017 158.724 266.728 157.856 266.246 157.095L266.272 157.122Z" fill="#37474F"/>
<path d="M247.432 153.504C247.165 154.041 247.048 154.641 247.094 155.239C247.14 155.837 247.347 156.412 247.694 156.902C248.04 157.392 248.513 157.779 249.061 158.023C249.61 158.266 250.214 158.356 250.81 158.284C252.3 158.205 253.737 157.707 254.956 156.847C256.175 155.987 257.126 154.8 257.7 153.423C257.966 152.887 258.083 152.289 258.037 151.692C257.991 151.095 257.785 150.521 257.44 150.032C257.096 149.542 256.625 149.155 256.079 148.91C255.532 148.666 254.93 148.574 254.335 148.643C252.846 148.73 251.411 149.232 250.191 150.09C248.972 150.949 248.016 152.131 247.432 153.504Z" fill="#455A64"/>
<path d="M256.538 164.359C255.983 163.56 255.248 162.902 254.392 162.438C253.536 161.974 252.584 161.718 251.611 161.689C251.241 161.656 250.87 161.733 250.542 161.908C250.215 162.084 249.946 162.351 249.768 162.677L236.656 194.336C236.559 194.643 236.535 194.968 236.586 195.286C236.637 195.603 236.762 195.905 236.949 196.166C237.505 196.968 238.242 197.628 239.101 198.091C239.959 198.555 240.915 198.811 241.89 198.836C242.26 198.87 242.632 198.795 242.96 198.619C243.287 198.443 243.556 198.175 243.733 197.848L256.818 166.296C256.942 165.976 256.982 165.63 256.933 165.291C256.884 164.951 256.748 164.631 256.538 164.359Z" fill="#455A64"/>
<path d="M272.147 241.899C272.147 241.45 272.098 241.002 272.001 240.564C270.876 235.442 267.857 230.934 263.548 227.945H245.856C241.543 230.933 238.519 235.44 237.39 240.564C237.296 241.002 237.252 241.45 237.257 241.899C237.252 241.979 237.252 242.059 237.257 242.139C237.417 244.583 239.099 247 242.331 248.816C249.154 252.822 260.197 252.822 267.02 248.816C270.251 246.946 271.934 244.529 272.094 242.139C272.117 242.06 272.134 241.98 272.147 241.899Z" fill="#455A64"/>
<path d="M254.695 239.308C261.244 239.308 266.553 236.242 266.553 232.458C266.553 228.675 261.244 225.609 254.695 225.609C248.147 225.609 242.838 228.675 242.838 232.458C242.838 236.242 248.147 239.308 254.695 239.308Z" fill="#37474F"/>
<path d="M251.891 230.83C251.55 230.943 251.254 231.16 251.043 231.451C250.833 231.743 250.72 232.093 250.72 232.452C250.72 232.811 250.833 233.161 251.043 233.452C251.254 233.744 251.55 233.961 251.891 234.074C252.763 234.515 253.726 234.745 254.702 234.745C255.679 234.745 256.642 234.515 257.513 234.074C257.854 233.961 258.151 233.744 258.361 233.452C258.571 233.161 258.684 232.811 258.684 232.452C258.684 232.093 258.571 231.743 258.361 231.451C258.151 231.16 257.854 230.943 257.513 230.83C256.642 230.388 255.679 230.159 254.702 230.159C253.726 230.159 252.763 230.388 251.891 230.83Z" fill="#455A64"/>
<path d="M235.654 199.878C235.313 199.991 235.017 200.208 234.806 200.5C234.596 200.791 234.483 201.141 234.483 201.5C234.483 201.859 234.596 202.209 234.806 202.501C235.017 202.792 235.313 203.009 235.654 203.122C236.526 203.564 237.489 203.793 238.465 203.793C239.442 203.793 240.405 203.564 241.276 203.122C241.617 203.009 241.914 202.792 242.124 202.501C242.334 202.209 242.447 201.859 242.447 201.5C242.447 201.141 242.334 200.791 242.124 200.5C241.914 200.208 241.617 199.991 241.276 199.878C240.405 199.437 239.442 199.207 238.465 199.207C237.489 199.207 236.526 199.437 235.654 199.878Z" fill="#7D97F4"/>
<path opacity="0.3" d="M235.654 199.878C235.313 199.991 235.017 200.208 234.806 200.5C234.596 200.791 234.483 201.141 234.483 201.5C234.483 201.859 234.596 202.209 234.806 202.501C235.017 202.792 235.313 203.009 235.654 203.122C236.526 203.564 237.489 203.793 238.465 203.793C239.442 203.793 240.405 203.564 241.276 203.122C241.617 203.009 241.914 202.792 242.124 202.501C242.334 202.209 242.447 201.859 242.447 201.5C242.447 201.141 242.334 200.791 242.124 200.5C241.914 200.208 241.617 199.991 241.276 199.878C240.405 199.437 239.442 199.207 238.465 199.207C237.489 199.207 236.526 199.437 235.654 199.878Z" fill="black"/>
<path d="M242.291 200.853L258.514 231.804L250.89 233.113L234.64 202.121L242.291 200.853Z" fill="#455A64"/>
<path d="M236.563 191.839C236.06 191.716 235.533 191.741 235.044 191.912C234.556 192.083 234.128 192.391 233.812 192.801C232.896 193.832 232.236 195.065 231.886 196.399C231.535 197.733 231.504 199.13 231.796 200.479C231.876 200.922 232.06 201.34 232.331 201.699C232.602 202.058 232.954 202.349 233.358 202.548L239.42 204.818L242.438 194.003L236.563 191.839Z" fill="#37474F"/>
<path d="M239.794 195.044C238.874 196.076 238.211 197.31 237.859 198.647C237.506 199.983 237.474 201.384 237.764 202.735C238.432 205.179 240.435 205.7 242.197 203.897C243.116 202.868 243.779 201.636 244.132 200.301C244.485 198.967 244.517 197.568 244.227 196.219C243.573 193.776 241.57 193.255 239.794 195.044Z" fill="#263238"/>
<path d="M209.309 221.87C214.944 216.128 218.242 201.774 212.754 197.221H184.82C179.332 201.774 182.631 216.115 188.265 221.87L188.412 222.03L188.613 222.217C188.772 222.378 188.942 222.53 189.12 222.671L189.254 222.778L189.681 223.098C189.912 223.268 190.153 223.424 190.402 223.566C193.004 224.882 195.878 225.568 198.794 225.568C201.71 225.568 204.585 224.882 207.186 223.566C207.427 223.432 207.667 223.272 207.921 223.098L208.308 222.791L208.482 222.671L208.962 222.23L209.189 222.003L209.309 221.87Z" fill="#7D97F4"/>
<path opacity="0.7" d="M209.309 221.87C214.944 216.128 218.242 201.774 212.754 197.221H184.82C179.332 201.774 182.631 216.115 188.265 221.87L188.412 222.03L188.613 222.217C188.772 222.378 188.942 222.53 189.12 222.671L189.254 222.778L189.681 223.098C189.912 223.268 190.153 223.424 190.402 223.566C193.004 224.882 195.878 225.568 198.794 225.568C201.71 225.568 204.585 224.882 207.186 223.566C207.427 223.432 207.667 223.272 207.921 223.098L208.308 222.791L208.482 222.671L208.962 222.23L209.189 222.003L209.309 221.87Z" fill="white"/>
<path d="M198.774 211.481C207.793 211.481 215.104 207.261 215.104 202.054C215.104 196.848 207.793 192.627 198.774 192.627C189.755 192.627 182.444 196.848 182.444 202.054C182.444 207.261 189.755 211.481 198.774 211.481Z" fill="#7D97F4"/>
<path opacity="0.9" d="M198.774 211.481C207.793 211.481 215.104 207.261 215.104 202.054C215.104 196.848 207.793 192.627 198.774 192.627C189.755 192.627 182.444 196.848 182.444 202.054C182.444 207.261 189.755 211.481 198.774 211.481Z" fill="white"/>
<path d="M191.751 197.995C187.878 200.238 187.878 203.87 191.751 206.114C193.931 207.213 196.339 207.786 198.781 207.786C201.223 207.786 203.631 207.213 205.811 206.114C209.683 203.87 209.683 200.238 205.811 197.995C203.633 196.889 201.224 196.313 198.781 196.313C196.338 196.313 193.929 196.889 191.751 197.995Z" fill="#7D97F4"/>
<path opacity="0.7" d="M191.751 197.995C187.878 200.238 187.878 203.87 191.751 206.114C193.931 207.213 196.339 207.786 198.781 207.786C201.223 207.786 203.631 207.213 205.811 206.114C209.683 203.87 209.683 200.238 205.811 197.995C203.633 196.889 201.224 196.313 198.781 196.313C196.338 196.313 193.929 196.889 191.751 197.995Z" fill="white"/>
<path d="M205.811 201.841C203.631 200.741 201.223 200.168 198.781 200.168C196.339 200.168 193.931 200.741 191.75 201.841C190.816 202.357 190.02 203.089 189.427 203.977C190.02 204.865 190.816 205.597 191.75 206.114C193.931 207.213 196.339 207.786 198.781 207.786C201.223 207.786 203.631 207.213 205.811 206.114C206.745 205.597 207.542 204.865 208.134 203.977C207.542 203.089 206.745 202.357 205.811 201.841Z" fill="#7D97F4"/>
<path opacity="0.3" d="M205.811 201.841C203.631 200.741 201.223 200.168 198.781 200.168C196.339 200.168 193.931 200.741 191.75 201.841C190.816 202.357 190.02 203.089 189.427 203.977C190.02 204.865 190.816 205.597 191.75 206.114C193.931 207.213 196.339 207.786 198.781 207.786C201.223 207.786 203.631 207.213 205.811 206.114C206.745 205.597 207.542 204.865 208.134 203.977C207.542 203.089 206.745 202.357 205.811 201.841Z" fill="black"/>
<path d="M201.311 204.858C205.358 202.33 208.413 198.488 209.964 193.976C212.541 186.445 211.019 177.338 208.709 173.573C205.584 168.472 198.026 169.046 200.256 177.579C202.486 186.111 203.875 195.338 200.336 201.507L201.311 204.858Z" fill="#37474F"/>
<path d="M201.578 203.309C201.495 203.309 201.415 203.281 201.351 203.229C201.318 203.197 201.292 203.159 201.275 203.116C201.257 203.074 201.248 203.028 201.248 202.982C201.248 202.936 201.257 202.891 201.275 202.848C201.292 202.806 201.318 202.768 201.351 202.735C203.609 200.239 205.336 197.311 206.429 194.127C207.521 190.944 207.956 187.571 207.707 184.215C207.32 178.033 205.036 173.533 204.168 172.852C204.106 172.785 204.071 172.697 204.071 172.605C204.071 172.513 204.106 172.425 204.168 172.358C204.233 172.296 204.319 172.261 204.409 172.261C204.498 172.261 204.585 172.296 204.649 172.358C205.798 173.346 208.041 178.153 208.415 184.188C208.673 187.639 208.227 191.106 207.105 194.379C205.982 197.652 204.206 200.663 201.885 203.229C201.845 203.268 201.796 203.296 201.742 203.31C201.688 203.324 201.632 203.324 201.578 203.309Z" fill="white"/>
<path d="M194.795 204.858C194.579 204.114 194.106 203.47 193.46 203.042C192.662 202.597 191.821 202.235 190.95 201.961C189.441 201.413 187.518 200.626 187.318 198.81C187.27 198.159 187.352 197.506 187.558 196.887C187.93 196.048 188.019 195.11 187.812 194.216C187.478 193.415 186.623 192.988 185.889 192.507C185.079 192.028 184.389 191.371 183.873 190.584C183.437 189.886 183.227 189.07 183.272 188.248C183.419 186.565 185.034 185.457 185.088 183.788C185.154 181.344 179.439 178.033 182.484 175.776C186.383 172.825 192.485 176.243 194.234 178.754C195.984 181.264 195.984 182.386 199.175 184.509C201.845 186.271 204.943 186.632 204.943 190.104C204.943 193.575 200.497 193.736 203.995 197.675C206.105 200.038 202.66 202.081 201.325 204.885C199.148 204.858 196.945 204.752 194.795 204.858Z" fill="#455A64"/>
<path d="M198.32 205.166C198.275 205.164 198.23 205.153 198.188 205.134C198.147 205.115 198.11 205.088 198.079 205.054C198.048 205.021 198.023 204.982 198.008 204.939C197.992 204.896 197.985 204.851 197.986 204.805C198.761 184.629 188.493 177.552 186.436 176.991C186.352 176.963 186.282 176.903 186.241 176.824C186.199 176.746 186.19 176.654 186.214 176.569C186.237 176.483 186.293 176.41 186.369 176.365C186.446 176.319 186.536 176.304 186.623 176.324C190.095 177.272 199.402 185.791 198.641 204.832C198.638 204.917 198.603 204.998 198.544 205.06C198.485 205.121 198.405 205.159 198.32 205.166Z" fill="white"/>
<path d="M196.691 190.825C196.609 190.825 196.528 190.796 196.464 190.744C193.486 188.074 187.665 188.181 187.598 188.181C187.508 188.181 187.422 188.146 187.357 188.084C187.292 188.022 187.254 187.937 187.251 187.847C187.25 187.756 187.285 187.668 187.347 187.601C187.409 187.534 187.494 187.493 187.585 187.486C187.838 187.486 193.74 187.42 196.931 190.157C196.982 190.204 197.017 190.265 197.033 190.332C197.048 190.399 197.044 190.469 197.019 190.533C196.995 190.598 196.952 190.654 196.896 190.694C196.84 190.733 196.773 190.756 196.704 190.758L196.691 190.825Z" fill="white"/>
<path d="M433.93 135.397L438.951 74.4551C439.003 73.4688 438.799 72.4857 438.359 71.6013C437.919 70.7169 437.258 69.9613 436.44 69.4078C435.536 68.9702 434.541 68.7519 433.537 68.7704C432.532 68.789 431.546 69.0439 430.658 69.5146L363.895 108.051C363.012 108.622 362.263 109.377 361.698 110.264C361.134 111.152 360.767 112.15 360.623 113.192L355.602 174.134C355.55 175.12 355.754 176.103 356.194 176.987C356.634 177.872 357.295 178.627 358.113 179.181C359.017 179.618 360.012 179.837 361.016 179.818C362.021 179.8 363.007 179.545 363.895 179.074L430.658 140.538C431.54 139.965 432.288 139.21 432.853 138.323C433.417 137.436 433.784 136.438 433.93 135.397Z" fill="#7D97F4"/>
<path opacity="0.8" d="M433.93 135.397L438.951 74.4551C439.003 73.4688 438.799 72.4857 438.359 71.6013C437.919 70.7169 437.258 69.9613 436.44 69.4078C435.536 68.9702 434.541 68.7519 433.537 68.7704C432.532 68.789 431.546 69.0439 430.658 69.5146L363.895 108.051C363.012 108.622 362.263 109.377 361.698 110.264C361.134 111.152 360.767 112.15 360.623 113.192L355.602 174.134C355.55 175.12 355.754 176.103 356.194 176.987C356.634 177.872 357.295 178.627 358.113 179.181C359.017 179.618 360.012 179.837 361.016 179.818C362.021 179.8 363.007 179.545 363.895 179.074L430.658 140.538C431.54 139.965 432.288 139.21 432.853 138.323C433.417 137.436 433.784 136.438 433.93 135.397Z" fill="white"/>
<path d="M433.93 135.397L438.95 74.4551C439.003 73.4688 438.799 72.4857 438.359 71.6013C437.919 70.7169 437.258 69.9613 436.44 69.4078C435.536 68.9702 434.541 68.7519 433.537 68.7704C432.532 68.789 431.546 69.0439 430.658 69.5146L363.894 108.051C363.008 108.601 362.262 109.351 361.718 110.241L372.093 116.223V174.307L430.618 140.511C431.505 139.947 432.26 139.198 432.832 138.315C433.403 137.433 433.778 136.437 433.93 135.397Z" fill="#7D97F4"/>
<path opacity="0.9" d="M433.93 135.397L438.95 74.4551C439.003 73.4688 438.799 72.4857 438.359 71.6013C437.919 70.7169 437.258 69.9613 436.44 69.4078C435.536 68.9702 434.541 68.7519 433.537 68.7704C432.532 68.789 431.546 69.0439 430.658 69.5146L363.894 108.051C363.008 108.601 362.262 109.351 361.718 110.241L372.093 116.223V174.307L430.618 140.511C431.505 139.947 432.26 139.198 432.832 138.315C433.403 137.433 433.778 136.437 433.93 135.397Z" fill="white"/>
<path d="M361.237 177.365L366.258 116.423C366.403 115.382 366.769 114.383 367.331 113.494C367.893 112.606 368.638 111.847 369.516 111.269L436.28 72.7459C437.936 71.7979 439.137 72.559 438.95 74.4551L433.93 135.397C433.786 136.437 433.42 137.434 432.858 138.321C432.296 139.208 431.551 139.964 430.672 140.538L363.908 179.074C362.279 180.022 361.077 179.261 361.237 177.365Z" fill="#7D97F4"/>
<path opacity="0.7" d="M361.237 177.365L366.258 116.423C366.403 115.382 366.769 114.383 367.331 113.494C367.893 112.606 368.638 111.847 369.516 111.269L436.28 72.7459C437.936 71.7979 439.137 72.559 438.95 74.4551L433.93 135.397C433.786 136.437 433.42 137.434 432.858 138.321C432.296 139.208 431.551 139.964 430.672 140.538L363.908 179.074C362.279 180.022 361.077 179.261 361.237 177.365Z" fill="white"/>
<path d="M395.674 128.467C395.856 126.829 396.386 125.248 397.229 123.832C398.071 122.416 399.208 121.196 400.561 120.255C403.005 118.84 404.767 120.255 404.567 123.353C404.384 124.991 403.853 126.571 403.01 127.987C402.168 129.403 401.032 130.623 399.68 131.565C397.13 132.914 395.42 131.578 395.674 128.467Z" fill="#7D97F4"/>
<path opacity="0.4" d="M395.674 128.467C395.856 126.829 396.386 125.248 397.229 123.832C398.071 122.416 399.208 121.196 400.561 120.255C403.005 118.84 404.767 120.255 404.567 123.353C404.384 124.991 403.853 126.571 403.01 127.987C402.168 129.403 401.032 130.623 399.68 131.565C397.13 132.914 395.42 131.578 395.674 128.467Z" fill="white"/>
<path d="M394.499 148.51L416.865 135.597L414.074 133.982L391.708 146.894L394.499 148.51Z" fill="#7D97F4"/>
<path opacity="0.9" d="M394.499 148.51L416.865 135.597L414.074 133.982L391.708 146.894L394.499 148.51Z" fill="white"/>
<path d="M421.258 165.334L401.229 176.871C400.82 177.091 400.357 177.193 399.894 177.165C399.517 177.149 399.149 177.053 398.812 176.884L390.013 171.81C389.678 171.579 389.401 171.275 389.202 170.921C389.003 170.567 388.888 170.173 388.864 169.767V169.3C388.864 168.539 389.398 168.218 390.053 168.606L395.394 171.663L396.582 172.358L396.315 171.022L391.695 146.987L394.486 148.603L416.865 135.584L422.206 163.278C422.268 163.676 422.212 164.083 422.043 164.449C421.874 164.815 421.601 165.123 421.258 165.334Z" fill="#7D97F4"/>
<path opacity="0.7" d="M421.258 165.334L401.229 176.871C400.82 177.091 400.357 177.193 399.894 177.165C399.517 177.149 399.149 177.053 398.812 176.884L390.013 171.81C389.678 171.579 389.401 171.275 389.202 170.921C389.003 170.567 388.888 170.173 388.864 169.767V169.3C388.864 168.539 389.398 168.218 390.053 168.606L395.394 171.663L396.582 172.358L396.315 171.022L391.695 146.987L394.486 148.603L416.865 135.584L422.206 163.278C422.268 163.676 422.212 164.083 422.043 164.449C421.874 164.815 421.601 165.123 421.258 165.334Z" fill="white"/>
<path d="M389.278 168.472L396.088 164.533L397.477 173.706L389.278 168.472Z" fill="#7D97F4"/>
<path opacity="0.7" d="M389.278 168.472L396.088 164.533L397.477 173.706L389.278 168.472Z" fill="white"/>
<path d="M394.459 148.51L391.668 146.894L396.288 170.929C396.449 171.663 396.021 171.97 395.367 171.583L390.026 168.525C389.372 168.138 388.838 168.525 388.838 169.22V169.687C388.861 170.093 388.977 170.487 389.176 170.841C389.375 171.195 389.652 171.499 389.986 171.73L398.785 176.804C399.122 176.973 399.491 177.068 399.867 177.085L394.459 148.51Z" fill="#7D97F4"/>
<path opacity="0.8" d="M394.459 148.51L391.668 146.894L396.288 170.929C396.449 171.663 396.021 171.97 395.367 171.583L390.026 168.525C389.372 168.138 388.838 168.525 388.838 169.22V169.687C388.861 170.093 388.977 170.487 389.176 170.841C389.375 171.195 389.652 171.499 389.986 171.73L398.785 176.804C399.122 176.973 399.491 177.068 399.867 177.085L394.459 148.51Z" fill="white"/>
<path d="M322.354 180.797C326.453 180.49 327.775 178.981 328.443 177.165C329.11 175.349 329.351 173.359 327.762 169.153C326.173 164.947 317.08 159.432 307.639 161.448C298.199 163.465 296.89 170.675 297.398 172.611C297.905 174.548 303.58 179.461 310.937 180.303C314.721 180.797 318.541 180.962 322.354 180.797Z" fill="#7D97F4"/>
<path opacity="0.7" d="M322.354 180.797C326.453 180.49 327.775 178.981 328.443 177.165C329.11 175.349 329.351 173.359 327.762 169.153C326.173 164.947 317.08 159.432 307.639 161.448C298.199 163.465 296.89 170.675 297.398 172.611C297.905 174.548 303.58 179.461 310.937 180.303C314.721 180.797 318.541 180.962 322.354 180.797Z" fill="white"/>
<path d="M317.561 167.631C318.103 167.203 318.773 166.97 319.463 166.97C320.154 166.97 320.824 167.203 321.366 167.631C322.615 168.338 323.614 169.416 324.224 170.715C324.638 171.797 324.437 172.758 323.97 172.758C323.503 172.758 323.155 171.77 321.366 170.275C319.577 168.779 317.16 168.192 317.561 167.631Z" fill="#7D97F4"/>
<path opacity="0.9" d="M317.561 167.631C318.103 167.203 318.773 166.97 319.463 166.97C320.154 166.97 320.824 167.203 321.366 167.631C322.615 168.338 323.614 169.416 324.224 170.715C324.638 171.797 324.437 172.758 323.97 172.758C323.503 172.758 323.155 171.77 321.366 170.275C319.577 168.779 317.16 168.192 317.561 167.631Z" fill="white"/>
<path d="M259.89 66.9775C255.483 69.9419 250.262 73.4537 250.983 85.0172C251.705 96.5807 260.33 128.48 260.918 132.366C261.505 136.252 284.953 155.066 289.266 158.778C294.22 163.091 296.089 163.999 298.332 166.469C300.576 168.939 302.685 175.242 305.009 177.979C308.654 182.212 316.506 182.306 320.124 181.811C323.743 181.317 321.459 176.924 320.124 173.8C318.789 170.675 315.21 166.416 316.225 165.681C316.92 165.187 320.698 165.855 323.623 168.352C325.879 170.275 326.146 172.157 327.415 173.039C329.538 174.534 330.246 171.89 328.056 167.698C325.866 163.505 322.528 160.5 319.23 159.459C320.685 159.574 322.141 159.248 323.409 158.524C325.225 157.403 325.866 154.866 323.623 155.533C322.287 155.92 320.952 155.533 318.281 155.533C309.896 155.533 307.372 158.578 297.665 149.204C287.957 139.83 274.965 127.078 274.965 127.078C274.965 127.078 270.599 100.506 268.636 88.7426C266.967 78.6078 266.272 71.9715 259.89 66.9775Z" fill="#FFA8A7"/>
<path d="M337.83 93.1089L354.401 58.0178L363.748 61.8768C363.748 61.8768 350.008 103.457 348.032 107.971C346.87 110.641 343.144 113.886 337.75 111.255C336.575 110.681 334.238 109.306 331.341 107.503" fill="#FFA8A7"/>
<path d="M360.236 72.332C361.384 68.9004 365.029 65.2417 365.577 63.7862C366.063 62.6367 366.225 61.3759 366.044 60.1409L361.785 60.5682L360.236 72.332Z" fill="#FFA8A7"/>
<path d="M351.45 64.1468C352.144 62.5578 352.264 56.9897 351.45 53.785C350.635 50.5804 352.598 46.5745 352.104 44.3179C351.61 42.0613 353.052 41.3803 354.361 42.1948C355.162 42.7034 355.826 43.4023 356.292 44.2294C356.757 45.0565 357.012 45.986 357.031 46.935C357.098 49.2718 357.245 55.2138 356.297 58.1113C355.349 61.0089 351.45 64.1468 351.45 64.1468Z" fill="#FFA8A7"/>
<path d="M353.653 58.6855C353.906 59.4065 354.868 60.408 357.979 59.8739L363.707 61.8768L366.044 61.7433C364.795 62.627 363.267 63.025 361.745 62.8628C360.224 62.7005 358.813 61.9892 357.779 60.862C357.779 60.862 353.573 61.3827 353.653 58.6855Z" fill="#F28F8F"/>
<path d="M369.677 56.3354C366.085 59.1395 366.592 62.7848 370.825 64.494C373.171 65.3001 375.675 65.5413 378.132 65.1979C380.589 64.8545 382.93 63.9363 384.966 62.5178C388.557 59.7137 388.037 56.055 383.817 54.3459C381.469 53.5448 378.966 53.3075 376.509 53.6532C374.053 53.9988 371.712 54.9176 369.677 56.3354Z" fill="#7D97F4"/>
<path opacity="0.7" d="M369.677 56.3354C366.085 59.1395 366.592 62.7848 370.825 64.494C373.171 65.3001 375.675 65.5413 378.132 65.1979C380.589 64.8545 382.93 63.9363 384.966 62.5178C388.557 59.7137 388.037 56.055 383.817 54.3459C381.469 53.5448 378.966 53.3075 376.509 53.6532C374.053 53.9988 371.712 54.9176 369.677 56.3354Z" fill="white"/>
<path d="M387.462 35.8656L374.283 37.7083L361.077 39.551C361.371 48.0967 364.268 57.6707 368.047 62.5445L387.061 59.8739C389.371 54.1322 389.518 44.1577 387.462 35.8656Z" fill="#7D97F4"/>
<path opacity="0.7" d="M387.462 35.8656L374.283 37.7083L361.077 39.551C361.371 48.0967 364.268 57.6707 368.047 62.5445L387.061 59.8739C389.371 54.1322 389.518 44.1577 387.462 35.8656Z" fill="white"/>
<path d="M364.469 35.5584C359.635 38.5094 360.142 42.1414 365.604 43.6502C371.953 45.0404 378.591 44.0922 384.298 40.9797C389.131 38.0154 388.624 34.3968 383.163 32.8745C376.811 31.4896 370.174 32.4426 364.469 35.5584Z" fill="#7D97F4"/>
<path opacity="0.9" d="M364.469 35.5584C359.635 38.5094 360.142 42.1414 365.604 43.6502C371.953 45.0404 378.591 44.0922 384.298 40.9797C389.131 38.0154 388.624 34.3968 383.163 32.8745C376.811 31.4896 370.174 32.4426 364.469 35.5584Z" fill="white"/>
<path d="M366.418 36.7736C362.412 38.8166 362.8 41.18 367.153 42.1147C372.267 42.889 377.497 42.1558 382.201 40.005C386.14 37.962 385.82 35.5985 381.453 34.6638C376.343 33.8906 371.118 34.6238 366.418 36.7736Z" fill="#7D97F4"/>
<path opacity="0.4" d="M366.418 36.7736C362.412 38.8166 362.8 41.18 367.153 42.1147C372.267 42.889 377.497 42.1558 382.201 40.005C386.14 37.962 385.82 35.5985 381.453 34.6638C376.343 33.8906 371.118 34.6238 366.418 36.7736Z" fill="white"/>
<path d="M366.912 39.8981C366.204 40.2455 365.552 40.6954 364.976 41.2334C365.678 41.5928 366.429 41.8448 367.206 41.9811C372.32 42.7554 377.55 42.0223 382.254 39.8714C382.965 39.5295 383.618 39.079 384.19 38.5361C383.489 38.1767 382.737 37.9246 381.961 37.7883C376.846 37.0141 371.616 37.7472 366.912 39.8981Z" fill="#7D97F4"/>
<path opacity="0.3" d="M366.912 39.8981C366.204 40.2455 365.552 40.6954 364.976 41.2334C365.678 41.5928 366.429 41.8448 367.206 41.9811C372.32 42.7554 377.55 42.0223 382.254 39.8714C382.965 39.5295 383.618 39.079 384.19 38.5361C383.489 38.1767 382.737 37.9246 381.961 37.7883C376.846 37.0141 371.616 37.7472 366.912 39.8981Z" fill="black"/>
<path d="M364.108 62.1439C363 62.3082 361.871 62.2538 360.783 61.9836C359.288 61.583 357.872 60.1409 356.47 57.5639C355.295 55.4007 353.279 50.5937 354.134 47.9365C355.229 44.5582 359.141 44.0775 361.745 43.7571L362.639 43.6369L363.214 47.7362L362.252 47.8564C360.783 48.03 358.34 48.3371 358.059 49.1917C357.686 50.8474 360.49 57.2968 361.918 58.0045C363.207 58.1833 364.519 57.9693 365.684 57.3903L367.553 61.0756C366.468 61.6099 365.305 61.9704 364.108 62.1439Z" fill="#7D97F4"/>
<path opacity="0.7" d="M364.108 62.1439C363 62.3082 361.871 62.2538 360.783 61.9836C359.288 61.583 357.872 60.1409 356.47 57.5639C355.295 55.4007 353.279 50.5937 354.134 47.9365C355.229 44.5582 359.141 44.0775 361.745 43.7571L362.639 43.6369L363.214 47.7362L362.252 47.8564C360.783 48.03 358.34 48.3371 358.059 49.1917C357.686 50.8474 360.49 57.2968 361.918 58.0045C363.207 58.1833 364.519 57.9693 365.684 57.3903L367.553 61.0756C366.468 61.6099 365.305 61.9704 364.108 62.1439Z" fill="white"/>
<path d="M359.208 49.205C356.657 49.205 349.166 52.1827 349.006 54.8799C348.846 57.5772 353.933 57.3769 353.933 57.3769C353.693 57.7776 353.602 58.2501 353.675 58.7115C353.748 59.1729 353.981 59.5939 354.334 59.9006C355.602 60.9955 365.216 57.6573 365.216 57.6573C364.881 56.5555 364.371 55.5143 363.708 54.5728C363.228 53.964 362.527 53.5702 361.758 53.4779C361.758 53.4779 363 49.205 359.208 49.205Z" fill="#FFA8A7"/>
<path d="M167.519 180.703L156.329 174.254L167.519 171.022V180.703Z" fill="#E0E0E0"/>
<g style="mix-blend-mode:multiply" opacity="0.5">
<path d="M167.519 171.022V180.703L156.329 174.254" fill="#E0E0E0"/>
</g>
<path d="M100.408 209.772V220.054L38.905 184.549V174.254L100.408 209.772Z" fill="#E0E0E0"/>
<g style="mix-blend-mode:multiply" opacity="0.5">
<path d="M100.408 209.772V220.054L38.905 184.549V174.254L100.408 209.772Z" fill="#E0E0E0"/>
</g>
<path d="M33.3101 93.5363L94.8263 129.055V212.99L33.3101 177.485V93.5363Z" fill="#E0E0E0"/>
<path d="M94.8264 129.055L178.695 80.6241V164.56L94.8264 212.99V129.055Z" fill="#EBEBEB"/>
<path d="M178.695 80.6241L117.192 45.1057L33.3101 93.5362L94.8263 129.055L178.695 80.6241Z" fill="#F5F5F5"/>
<path d="M100.408 132.286L173.114 90.3049V109.68L100.408 151.648V132.286Z" fill="#E0E0E0"/>
<g style="mix-blend-mode:multiply" opacity="0.5">
<path d="M128.369 117.745C128.369 118.639 131.039 117.825 134.337 115.929L144.779 109.893C148.077 107.997 150.734 105.727 150.734 104.833V103.217L128.355 116.143L128.369 117.745Z" fill="#E0E0E0"/>
</g>
<path d="M100.408 158.11L173.114 116.143V135.504L100.408 177.485V158.11Z" fill="#E0E0E0"/>
<g style="mix-blend-mode:multiply" opacity="0.5">
<path d="M128.369 143.596C128.369 144.49 131.039 143.596 134.337 141.766L144.779 135.731C148.077 133.835 150.734 131.565 150.734 130.684V129.068L128.355 141.98L128.369 143.596Z" fill="#E0E0E0"/>
</g>
<path d="M100.408 183.935L173.114 141.967V161.342L100.408 203.309V183.935Z" fill="#E0E0E0"/>
<g style="mix-blend-mode:multiply" opacity="0.5">
<path d="M128.369 169.407C128.369 170.301 131.039 169.487 134.337 167.577L144.779 161.555C148.077 159.646 150.734 157.389 150.734 156.495V154.879L128.355 167.791L128.369 169.407Z" fill="#E0E0E0"/>
</g>
<path d="M100.408 220.054L106.003 216.836V206.541L100.408 209.772V220.054Z" fill="#E0E0E0"/>
<path d="M167.519 180.703L173.114 177.485V167.791L167.519 171.022V180.703Z" fill="#E0E0E0"/>
<path d="M69.2696 97.0347C74.9044 91.2796 78.2159 77.0055 72.7146 72.3721H44.7672C39.2792 76.9388 42.5774 91.2796 48.2122 97.0213L48.3591 97.1816L48.5594 97.3685C48.7191 97.53 48.8886 97.6817 49.0668 97.8225L49.2003 97.9293L49.6276 98.2498C49.8586 98.4195 50.0994 98.5756 50.3487 98.7171C52.9503 100.034 55.8252 100.72 58.7409 100.72C61.6566 100.72 64.5315 100.034 67.1331 98.7171C67.3868 98.5757 67.632 98.4197 67.8675 98.2498L68.2548 97.956L68.4283 97.8225L68.9224 97.3819L69.136 97.1682L69.2696 97.0347Z" fill="#EBEBEB"/>
<path d="M47.1971 70.5428C40.8145 74.2281 40.8145 80.1968 47.1971 83.8955C53.5798 87.5943 63.9148 87.5809 70.2841 83.8955C76.6534 80.2102 76.6667 74.2548 70.2841 70.5428C63.9015 66.8307 53.5664 66.8574 47.1971 70.5428Z" fill="#F5F5F5"/>
<path d="M51.737 73.1466C47.8647 75.3899 47.8647 79.0218 51.737 81.2651C53.9154 82.3711 56.3241 82.9475 58.7672 82.9475C61.2104 82.9475 63.619 82.3711 65.7975 81.2651C69.6698 79.0218 69.6698 75.3899 65.7975 73.1466C63.6172 72.0468 61.2092 71.4738 58.7672 71.4738C56.3252 71.4738 53.9173 72.0468 51.737 73.1466Z" fill="#E0E0E0"/>
<path d="M65.7708 77.0055C63.5924 75.8995 61.1837 75.3231 58.7406 75.3231C56.2975 75.3231 53.8888 75.8995 51.7104 77.0055C50.7731 77.5114 49.9751 78.2406 49.387 79.1286C49.9742 80.0208 50.7722 80.7545 51.7104 81.2651C53.8888 82.3711 56.2975 82.9475 58.7406 82.9475C61.1837 82.9475 63.5924 82.3711 65.7708 81.2651C66.709 80.7545 67.507 80.0208 68.0942 79.1286C67.5061 78.2406 66.7081 77.5114 65.7708 77.0055Z" fill="#E0E0E0"/>
<g style="mix-blend-mode:multiply" opacity="0.5">
<path d="M65.7708 77.0055C63.5924 75.8995 61.1837 75.3231 58.7406 75.3231C56.2975 75.3231 53.8888 75.8995 51.7104 77.0055C50.7731 77.5114 49.9751 78.2406 49.387 79.1286C49.9742 80.0208 50.7722 80.7545 51.7104 81.2651C53.8888 82.3711 56.2975 82.9475 58.7406 82.9475C61.1837 82.9475 63.5924 82.3711 65.7708 81.2651C66.709 80.7545 67.507 80.0208 68.0942 79.1286C67.5061 78.2406 66.7081 77.5114 65.7708 77.0055Z" fill="#E0E0E0"/>
</g>
<path d="M52.5784 79.1286C50.5896 77.1128 48.8787 74.8406 47.491 72.3721C45.1409 68.2328 44.7136 62.6647 45.9287 61.9837C47.1438 61.3027 52.071 66.8441 52.071 66.8441C51.622 64.509 51.4472 62.1294 51.5503 59.7538C51.7639 56.055 52.6585 52.7035 53.7268 52.0225C54.795 51.3415 57.1451 56.0283 58.1599 59.3932C59.1747 62.7581 59.7489 65.5489 59.7489 65.5489C60.1577 62.912 60.7647 60.3098 61.5648 57.7642C62.7933 54.2658 63.9149 53.4646 64.7829 53.7584C65.6508 54.0521 66.225 55.7479 66.4787 60.4347C66.5672 62.6624 66.4958 64.8936 66.265 67.1111C66.265 67.1111 68.0142 65.1883 69.937 63.3323C72.0601 61.2893 72.9681 61.0089 73.5823 61.3961C74.1966 61.7834 74.3568 64.9613 71.072 70.9033C69.4345 73.9301 67.3402 76.6864 64.863 79.0752C64.863 79.0752 60.3497 82.0662 52.5784 79.1286Z" fill="#EBEBEB"/>
<path d="M125.631 103.951L159.013 84.5899C159.667 84.216 159.667 83.6018 159.013 83.2546L113.16 57.1366C112.789 56.9509 112.38 56.8543 111.965 56.8543C111.55 56.8543 111.141 56.9509 110.77 57.1366L77.6814 76.2711C77.0271 76.6584 77.0271 77.2726 77.6814 77.6064L123.241 103.911C123.609 104.103 124.017 104.207 124.431 104.214C124.846 104.221 125.257 104.131 125.631 103.951Z" fill="#E0E0E0"/>
<g style="mix-blend-mode:multiply" opacity="0.5">
<path d="M125.631 103.951L159.013 84.5899C159.667 84.216 159.667 83.6018 159.013 83.2546L113.16 57.1366C112.789 56.9509 112.38 56.8543 111.965 56.8543C111.55 56.8543 111.141 56.9509 110.77 57.1366L77.6814 76.2711C77.0271 76.6584 77.0271 77.2726 77.6814 77.6064L123.241 103.911C123.609 104.103 124.017 104.207 124.431 104.214C124.846 104.221 125.257 104.131 125.631 103.951Z" fill="#E0E0E0"/>
</g>
<path d="M77.6547 76.2311L115.283 52.3029C115.648 52.1122 116.053 52.0126 116.465 52.0126C116.876 52.0126 117.282 52.1122 117.646 52.3029L131.199 60.1276C131.516 60.3199 131.75 60.624 131.854 60.9799C131.958 61.3359 131.924 61.7178 131.76 62.0504L131.213 63.1186C131.049 63.4512 131.015 63.8331 131.119 64.1891C131.223 64.545 131.456 64.8492 131.774 65.0414L159.08 80.8378C159.225 80.8946 159.349 80.9938 159.437 81.1224C159.525 81.251 159.572 81.4031 159.572 81.5588C159.572 81.7145 159.525 81.8666 159.437 81.9952C159.349 82.1238 159.225 82.223 159.08 82.2799L125.564 103.858C125.204 104.055 124.8 104.159 124.389 104.159C123.979 104.159 123.575 104.055 123.214 103.858L77.6547 77.553C77.5382 77.4864 77.4413 77.3902 77.3739 77.2742C77.3065 77.1581 77.271 77.0262 77.271 76.892C77.271 76.7578 77.3065 76.626 77.3739 76.5099C77.4413 76.3938 77.5382 76.2976 77.6547 76.2311Z" fill="#EBEBEB"/>
<path d="M550.677 133.02C560.371 123.126 566.073 82.854 556.606 75.0026H508.536C499.068 82.8407 504.77 123.073 514.464 133.007L514.718 133.274L515.052 133.608C515.332 133.875 515.626 134.129 515.933 134.382L516.16 134.569C516.4 134.756 516.641 134.943 516.894 135.117C517.295 135.41 517.715 135.678 518.15 135.918C526.161 140.525 539.06 140.525 547.045 135.918C547.48 135.678 547.899 135.41 548.3 135.117L548.981 134.596L549.275 134.369C549.569 134.129 549.849 133.875 550.116 133.621L550.503 133.247L550.677 133.02Z" fill="#37474F"/>
<path d="M512.662 71.838C501.672 78.1805 501.672 88.4622 512.662 94.8047C523.651 101.147 541.45 101.134 552.426 94.8047C563.402 88.4755 563.402 78.1805 552.426 71.838C541.45 65.4954 523.638 65.4954 512.662 71.838Z" fill="#455A64"/>
<path d="M517.936 74.8824C509.925 79.5425 509.925 87.0868 517.936 91.747C525.948 96.4071 539.087 96.4071 547.139 91.747C555.19 87.0868 555.15 79.5425 547.139 74.8824C539.127 70.2223 526.001 70.2356 517.936 74.8824Z" fill="#37474F"/>
<path d="M547.125 82.8941C539.114 78.234 525.988 78.234 517.923 82.8941C515.974 83.9495 514.314 85.4672 513.089 87.3139C514.314 89.1647 515.973 90.6869 517.923 91.747C525.934 96.4071 539.06 96.4071 547.125 91.747C549.08 90.6941 550.741 89.1705 551.959 87.3139C550.74 85.4622 549.079 83.9432 547.125 82.8941Z" fill="#E0E0E0"/>
<g style="mix-blend-mode:multiply">
<path d="M547.125 82.8941C539.114 78.234 525.988 78.234 517.923 82.8941C515.974 83.9495 514.314 85.4672 513.089 87.3139C514.314 89.1647 515.973 90.6869 517.923 91.747C525.934 96.4071 539.06 96.4071 547.125 91.747C549.08 90.6941 550.741 89.1705 551.959 87.3139C550.74 85.4622 549.079 83.9432 547.125 82.8941Z" fill="#263238"/>
</g>
<path d="M541.544 87.3405C543.881 80.2635 547.139 67.3114 559.25 57.6039C571.668 47.616 583.912 39.7112 579.693 33.1549C575.847 27.1996 564.284 26.3183 551.064 36.5198C538.232 46.4009 532.437 69.0739 533.572 84.1091L541.544 87.3405Z" fill="#7D97F4"/>
<g opacity="0.1">
<path d="M541.544 87.3405C543.881 80.2635 547.139 67.3114 559.25 57.6039C571.668 47.616 583.912 39.7112 579.693 33.1549C575.847 27.1996 564.284 26.3183 551.064 36.5198C538.232 46.4009 532.437 69.0739 533.572 84.1091L541.544 87.3405Z" fill="black"/>
</g>
<path d="M535.642 85.6447H535.548C535.459 85.6349 535.373 85.6072 535.294 85.5633C535.216 85.5194 535.148 85.4601 535.093 85.389C535.038 85.318 534.998 85.2366 534.975 85.1498C534.953 85.0629 534.948 84.9724 534.961 84.8836C539.554 49.3519 561.666 33.6223 572.469 33.1015C572.559 33.0923 572.65 33.1019 572.736 33.1297C572.823 33.1576 572.902 33.2031 572.97 33.2634C573.038 33.3237 573.093 33.3974 573.13 33.4798C573.168 33.5623 573.188 33.6518 573.19 33.7425C573.197 33.9258 573.133 34.1049 573.011 34.2419C572.889 34.3789 572.718 34.4632 572.535 34.4769C564.524 34.8507 541.183 47.5626 536.323 85.0572C536.3 85.2212 536.218 85.3712 536.093 85.4794C535.968 85.5875 535.807 85.6463 535.642 85.6447Z" fill="white"/>
<path d="M523.878 88.9963C523.563 87.0034 522.776 85.1149 521.582 83.4887C520.388 81.8625 518.822 80.546 517.015 79.6493C513.075 77.5129 508.282 79.6493 503.662 73.1999C499.042 66.7505 503.088 61.5163 502.326 58.3917C501.565 55.2672 500.764 53.2242 495.503 50.9809C490.242 48.7377 488.827 45.4395 490.643 38.0421C492.459 30.6446 492.365 28.4014 487.865 25.1567C483.366 21.9119 483.152 17.7993 487.865 15.0887C492.579 12.378 500.964 12.4181 507.601 18.3067C514.237 24.1952 515.078 26.7323 522.382 27.44C529.686 28.1477 533.866 28.4414 535.521 32.7811C537.177 37.1207 536.323 40.4856 535.521 44.5449C535.145 46.3978 535.398 48.3234 536.239 50.0166C537.081 51.7097 538.464 53.0735 540.168 53.8918C543.36 55.4007 548.674 56.5624 550.65 62.3842C552.626 68.206 548.247 80.0766 542.639 87.3672C542.572 87.3405 541.236 91.6001 523.878 88.9963Z" fill="#7D97F4"/>
<path d="M536.096 89.6773C536.005 89.6773 535.916 89.6593 535.832 89.6242C535.748 89.5891 535.673 89.5378 535.609 89.4731C535.546 89.4085 535.496 89.3318 535.463 89.2477C535.429 89.1635 535.413 89.0735 535.415 88.9829C535.198 77.5913 532.658 66.3639 527.951 55.9882C520.433 39.7646 496.411 20.6034 494.942 19.7221C494.86 19.6955 494.783 19.652 494.718 19.5943C494.653 19.5366 494.6 19.4659 494.564 19.3867C494.527 19.3076 494.508 19.2218 494.506 19.1347C494.505 19.0476 494.521 18.9611 494.555 18.8808C494.627 18.7071 494.762 18.5673 494.933 18.4903C495.105 18.4133 495.299 18.405 495.477 18.4669C496.304 18.734 521.288 38.3225 529.192 55.4007C533.981 65.9716 536.566 77.407 536.79 89.0096C536.79 89.0996 536.772 89.1887 536.737 89.2715C536.702 89.3542 536.65 89.4291 536.585 89.4914C536.52 89.5538 536.444 89.6024 536.359 89.6344C536.275 89.6663 536.186 89.6809 536.096 89.6773Z" fill="white"/>
<path d="M520.206 43.6503C520.094 43.6508 519.984 43.6233 519.886 43.5701C514.852 40.8061 502.821 42.769 502.701 42.7957C502.521 42.8192 502.339 42.7727 502.192 42.6659C502.045 42.559 501.945 42.4 501.913 42.2215C501.897 42.1329 501.9 42.0422 501.92 41.9545C501.94 41.8669 501.977 41.784 502.029 41.7108C502.081 41.6375 502.147 41.5754 502.224 41.5278C502.3 41.4802 502.385 41.4483 502.474 41.4337C502.981 41.3536 515.105 39.3774 520.54 42.3684C520.619 42.4116 520.69 42.4702 520.746 42.5409C520.803 42.6115 520.845 42.6927 520.87 42.7797C520.894 42.8667 520.902 42.9578 520.891 43.0477C520.88 43.1376 520.852 43.2244 520.807 43.3031C520.748 43.4105 520.661 43.4996 520.555 43.5609C520.449 43.6221 520.328 43.653 520.206 43.6503Z" fill="white"/>
<path d="M534.854 76.8319C534.687 76.8507 534.519 76.8081 534.381 76.7122C534.242 76.6162 534.144 76.4735 534.103 76.3103C534.062 76.1472 534.082 75.9747 534.159 75.8251C534.235 75.6755 534.364 75.5587 534.52 75.4966C540.182 72.4255 544.508 63.7462 544.548 63.6661C544.58 63.5736 544.632 63.4891 544.699 63.418C544.766 63.3468 544.848 63.2907 544.938 63.2533C545.029 63.2158 545.126 63.198 545.224 63.2009C545.322 63.2037 545.418 63.2272 545.506 63.2699C545.594 63.3125 545.672 63.3733 545.735 63.4483C545.798 63.5232 545.845 63.6107 545.872 63.7048C545.898 63.799 545.905 63.8977 545.891 63.9946C545.877 64.0915 545.842 64.1843 545.79 64.2669C545.603 64.6408 541.21 73.427 535.174 76.7117C535.08 76.779 534.969 76.8204 534.854 76.8319Z" fill="white"/>
</svg>
