<svg width="810" height="568" viewBox="0 0 810 568" fill="none" xmlns="http://www.w3.org/2000/svg">
<path d="M177.918 137.144C154.916 330.176 378.272 517.44 551.088 378.784C629.11 316.19 685.082 116.032 553.062 86.7158C477.35 69.9158 395.968 137.116 323.798 110.67C289.106 97.9718 271.34 48.0058 231.02 53.2698C193.164 58.2958 181.754 104.972 177.918 137.144Z" fill="#7D97F4" fill-opacity="0.3"/>
<path opacity="0.9" d="M177.918 137.144C154.916 330.176 378.272 517.44 551.088 378.784C629.11 316.19 685.082 116.032 553.062 86.7158C477.35 69.9158 395.968 137.116 323.798 110.67C289.106 97.9718 271.34 48.0058 231.02 53.2698C193.164 58.2958 181.754 104.972 177.918 137.144Z" fill="white" fill-opacity="0.3"/>
<path d="M410.597 567.197C560.595 567.197 682.193 552.47 682.193 534.303C682.193 516.136 560.595 501.409 410.597 501.409C260.598 501.409 139 516.136 139 534.303C139 552.47 260.598 567.197 410.597 567.197Z" fill="url(#paint0_linear_304_466)" fill-opacity="0.4"/>
<path d="M648.486 138.978H511.146C503.901 138.978 498.028 144.851 498.028 152.096V189.448C498.028 196.693 503.901 202.566 511.146 202.566H648.486C655.731 202.566 661.604 196.693 661.604 189.448V152.096C661.604 144.851 655.731 138.978 648.486 138.978Z" fill="#7D97F4"/>
<path d="M621.242 149.702H513.96C512.692 149.702 511.664 150.73 511.664 151.998V154.518C511.664 155.786 512.692 156.814 513.96 156.814H621.242C622.51 156.814 623.538 155.786 623.538 154.518V151.998C623.538 150.73 622.51 149.702 621.242 149.702Z" fill="#7D97F4"/>
<path d="M587.264 166.838H513.96C512.692 166.838 511.664 167.866 511.664 169.134V171.654C511.664 172.922 512.692 173.95 513.96 173.95H587.264C588.532 173.95 589.56 172.922 589.56 171.654V169.134C589.56 167.866 588.532 166.838 587.264 166.838Z" fill="#7D97F4"/>
<path d="M567.608 183.974H513.96C512.692 183.974 511.664 185.002 511.664 186.27V188.79C511.664 190.058 512.692 191.086 513.96 191.086H567.608C568.876 191.086 569.904 190.058 569.904 188.79V186.27C569.904 185.002 568.876 183.974 567.608 183.974Z" fill="#7D97F4"/>
<path d="M634.094 183.974H580.446C579.178 183.974 578.15 185.002 578.15 186.27V188.79C578.15 190.058 579.178 191.086 580.446 191.086H634.094C635.362 191.086 636.39 190.058 636.39 188.79V186.27C636.39 185.002 635.362 183.974 634.094 183.974Z" fill="#7D97F4"/>
<g opacity="0.5">
<path d="M621.242 149.702H513.96C512.692 149.702 511.664 150.73 511.664 151.998V154.518C511.664 155.786 512.692 156.814 513.96 156.814H621.242C622.51 156.814 623.538 155.786 623.538 154.518V151.998C623.538 150.73 622.51 149.702 621.242 149.702Z" fill="white"/>
<path d="M587.264 166.838H513.96C512.692 166.838 511.664 167.866 511.664 169.134V171.654C511.664 172.922 512.692 173.95 513.96 173.95H587.264C588.532 173.95 589.56 172.922 589.56 171.654V169.134C589.56 167.866 588.532 166.838 587.264 166.838Z" fill="white"/>
<path d="M567.608 183.974H513.96C512.692 183.974 511.664 185.002 511.664 186.27V188.79C511.664 190.058 512.692 191.086 513.96 191.086H567.608C568.876 191.086 569.904 190.058 569.904 188.79V186.27C569.904 185.002 568.876 183.974 567.608 183.974Z" fill="white"/>
<path d="M634.094 183.974H580.446C579.178 183.974 578.15 185.002 578.15 186.27V188.79C578.15 190.058 579.178 191.086 580.446 191.086H634.094C635.362 191.086 636.39 190.058 636.39 188.79V186.27C636.39 185.002 635.362 183.974 634.094 183.974Z" fill="white"/>
</g>
<path d="M538.474 124.152H382.584C371.96 124.152 363.348 132.765 363.348 143.388V198.156C363.348 208.78 371.96 217.392 382.584 217.392H538.474C549.098 217.392 557.71 208.78 557.71 198.156V143.388C557.71 132.765 549.098 124.152 538.474 124.152Z" fill="#7D97F4"/>
<path d="M543.99 139.874H386.714C384.851 139.874 383.34 141.385 383.34 143.248V146.93C383.34 148.793 384.851 150.304 386.714 150.304H543.99C545.853 150.304 547.364 148.793 547.364 146.93V143.248C547.364 141.385 545.853 139.874 543.99 139.874Z" fill="#7D97F4"/>
<path d="M494.164 165.004H386.714C384.851 165.004 383.34 166.515 383.34 168.378V172.06C383.34 173.924 384.851 175.434 386.714 175.434H494.164C496.027 175.434 497.538 173.924 497.538 172.06V168.378C497.538 166.515 496.027 165.004 494.164 165.004Z" fill="#7D97F4"/>
<path d="M465.352 190.134H386.714C384.851 190.134 383.34 191.644 383.34 193.508V197.19C383.34 199.053 384.851 200.564 386.714 200.564H465.352C467.215 200.564 468.726 199.053 468.726 197.19V193.508C468.726 191.644 467.215 190.134 465.352 190.134Z" fill="#7D97F4"/>
<path d="M549.716 190.134H484.196C482.332 190.134 480.822 191.644 480.822 193.508V197.19C480.822 199.053 482.332 200.564 484.196 200.564H549.716C551.579 200.564 553.09 199.053 553.09 197.19V193.508C553.09 191.644 551.579 190.134 549.716 190.134Z" fill="#7D97F4"/>
<g opacity="0.5">
<path d="M543.99 139.874H386.714C384.851 139.874 383.34 141.385 383.34 143.248V146.93C383.34 148.793 384.851 150.304 386.714 150.304H543.99C545.853 150.304 547.364 148.793 547.364 146.93V143.248C547.364 141.385 545.853 139.874 543.99 139.874Z" fill="white"/>
<path d="M494.164 165.004H386.714C384.851 165.004 383.34 166.515 383.34 168.378V172.06C383.34 173.924 384.851 175.434 386.714 175.434H494.164C496.027 175.434 497.538 173.924 497.538 172.06V168.378C497.538 166.515 496.027 165.004 494.164 165.004Z" fill="white"/>
<path d="M465.352 190.134H386.714C384.851 190.134 383.34 191.644 383.34 193.508V197.19C383.34 199.053 384.851 200.564 386.714 200.564H465.352C467.215 200.564 468.726 199.053 468.726 197.19V193.508C468.726 191.644 467.215 190.134 465.352 190.134Z" fill="white"/>
<path d="M549.716 190.134H484.196C482.333 190.134 480.822 191.644 480.822 193.508V197.19C480.822 199.053 482.333 200.564 484.196 200.564H549.716C551.58 200.564 553.09 199.053 553.09 197.19V193.508C553.09 191.644 551.58 190.134 549.716 190.134Z" fill="white"/>
</g>
<path d="M441.552 234.29H366.47C361.506 234.29 357.482 238.314 357.482 243.278V355.754C357.482 360.718 361.506 364.742 366.47 364.742H441.552C446.516 364.742 450.54 360.718 450.54 355.754V243.278C450.54 238.314 446.516 234.29 441.552 234.29Z" fill="#7D97F4"/>
<path opacity="0.4" d="M441.552 234.29H366.47C361.506 234.29 357.482 238.314 357.482 243.278V355.754C357.482 360.718 361.506 364.742 366.47 364.742H441.552C446.516 364.742 450.54 360.718 450.54 355.754V243.278C450.54 238.314 446.516 234.29 441.552 234.29Z" fill="black"/>
<path d="M438.108 247.898H369.9C368.988 247.898 368.248 248.638 368.248 249.55V252.028C368.248 252.94 368.988 253.68 369.9 253.68H438.108C439.02 253.68 439.76 252.94 439.76 252.028V249.55C439.76 248.638 439.02 247.898 438.108 247.898Z" fill="#FAFAFA"/>
<path d="M416.394 261.813H369.9C368.988 261.813 368.248 262.553 368.248 263.465V265.943C368.248 266.856 368.988 267.595 369.9 267.595H416.394C417.306 267.595 418.046 266.856 418.046 265.943V263.465C418.046 262.553 417.306 261.813 416.394 261.813Z" fill="#FAFAFA"/>
<path d="M438.108 275.744H369.9C368.988 275.744 368.248 276.484 368.248 277.396V279.874C368.248 280.787 368.988 281.526 369.9 281.526H438.108C439.02 281.526 439.76 280.787 439.76 279.874V277.396C439.76 276.484 439.02 275.744 438.108 275.744Z" fill="#FAFAFA"/>
<path d="M395.254 289.66H369.9C368.988 289.66 368.248 290.4 368.248 291.312V293.79C368.248 294.703 368.988 295.442 369.9 295.442H395.254C396.166 295.442 396.906 294.703 396.906 293.79V291.312C396.906 290.4 396.166 289.66 395.254 289.66Z" fill="#FAFAFA"/>
<path d="M430.73 289.66H405.376C404.464 289.66 403.724 290.4 403.724 291.312V293.79C403.724 294.703 404.464 295.442 405.376 295.442H430.73C431.642 295.442 432.382 294.703 432.382 293.79V291.312C432.382 290.4 431.642 289.66 430.73 289.66Z" fill="#FAFAFA"/>
<path d="M438.108 303.59H369.9C368.988 303.59 368.248 304.33 368.248 305.242V307.72C368.248 308.632 368.988 309.372 369.9 309.372H438.108C439.02 309.372 439.76 308.632 439.76 307.72V305.242C439.76 304.33 439.02 303.59 438.108 303.59Z" fill="#FAFAFA"/>
<path d="M438.108 317.506H369.9C368.988 317.506 368.248 318.246 368.248 319.158V321.636C368.248 322.548 368.988 323.288 369.9 323.288H438.108C439.02 323.288 439.76 322.548 439.76 321.636V319.158C439.76 318.246 439.02 317.506 438.108 317.506Z" fill="#FAFAFA"/>
<path d="M426.012 331.436H369.9C368.988 331.436 368.248 332.176 368.248 333.088V335.566C368.248 336.478 368.988 337.218 369.9 337.218H426.012C426.924 337.218 427.664 336.478 427.664 335.566V333.088C427.664 332.176 426.924 331.436 426.012 331.436Z" fill="#FAFAFA"/>
<path d="M396.08 345.352H369.9C368.988 345.352 368.248 346.091 368.248 347.004V349.482C368.248 350.394 368.988 351.134 369.9 351.134H396.08C396.992 351.134 397.732 350.394 397.732 349.482V347.004C397.732 346.091 396.992 345.352 396.08 345.352Z" fill="#FAFAFA"/>
<path d="M461.866 233.492H357.72L403.766 270.13L474.368 296.73V245.966C474.361 242.655 473.04 239.483 470.696 237.144C468.353 234.806 465.177 233.492 461.866 233.492Z" fill="#7D97F4"/>
<path opacity="0.4" d="M461.866 233.492H357.72L403.766 270.13L474.368 296.73V245.966C474.361 242.655 473.04 239.483 470.696 237.144C468.353 234.806 465.177 233.492 461.866 233.492Z" fill="black"/>
<path d="M457.316 252.364H381.114C379.97 252.364 379.042 253.292 379.042 254.436V258.3C379.042 259.444 379.97 260.372 381.114 260.372H457.316C458.46 260.372 459.388 259.444 459.388 258.3V254.436C459.388 253.292 458.46 252.364 457.316 252.364Z" fill="#FAFAFA"/>
<path d="M641.976 332.668V259.42C641.976 253.806 637.426 249.256 631.812 249.256H504.622C499.009 249.256 494.458 253.806 494.458 259.42V332.668C494.458 338.281 499.009 342.832 504.622 342.832H631.812C637.426 342.832 641.976 338.281 641.976 332.668Z" fill="#7D97F4"/>
<path d="M665.202 309.456V236.208C665.202 230.594 660.651 226.044 655.038 226.044H527.848C522.234 226.044 517.684 230.594 517.684 236.208V309.456C517.684 315.069 522.234 319.62 527.848 319.62H655.038C660.651 319.62 665.202 315.069 665.202 309.456Z" fill="#7D97F4"/>
<path opacity="0.5" d="M665.202 309.456V236.208C665.202 230.594 660.651 226.044 655.038 226.044H527.848C522.234 226.044 517.684 230.594 517.684 236.208V309.456C517.684 315.069 522.234 319.62 527.848 319.62H655.038C660.651 319.62 665.202 315.069 665.202 309.456Z" fill="white"/>
<path d="M652.294 284.354V239.26C652.294 236.763 650.269 234.738 647.772 234.738H606.206C603.709 234.738 601.684 236.763 601.684 239.26V284.354C601.684 286.851 603.709 288.876 606.206 288.876H647.772C650.269 288.876 652.294 286.851 652.294 284.354Z" fill="#7D97F4"/>
<path opacity="0.7" d="M652.294 284.354V239.26C652.294 236.763 650.269 234.738 647.772 234.738H606.206C603.709 234.738 601.684 236.763 601.684 239.26V284.354C601.684 286.851 603.709 288.876 606.206 288.876H647.772C650.269 288.876 652.294 286.851 652.294 284.354Z" fill="white"/>
<path d="M593.76 306.166V271.614C593.76 269.697 592.206 268.142 590.288 268.142H558.438C556.52 268.142 554.966 269.697 554.966 271.614V306.166C554.966 308.084 556.52 309.638 558.438 309.638H590.288C592.206 309.638 593.76 308.084 593.76 306.166Z" fill="#7D97F4"/>
<path opacity="0.3" d="M593.76 306.166V271.614C593.76 269.697 592.206 268.142 590.288 268.142H558.438C556.52 268.142 554.966 269.697 554.966 271.614V306.166C554.966 308.084 556.52 309.638 558.438 309.638H590.288C592.206 309.638 593.76 308.084 593.76 306.166Z" fill="white"/>
<path d="M574.356 87.0944V68.4323C574.356 62.7261 569.73 58.1003 564.024 58.1003L222.242 58.1003C216.536 58.1003 211.91 62.7261 211.91 68.4323V87.0944C211.91 92.8006 216.536 97.4263 222.242 97.4263L564.024 97.4263C569.73 97.4263 574.356 92.8006 574.356 87.0944Z" fill="#7D97F4"/>
<path opacity="0.5" d="M574.356 87.0944V68.4323C574.356 62.7261 569.73 58.1003 564.024 58.1003L222.242 58.1003C216.536 58.1003 211.91 62.7261 211.91 68.4323V87.0944C211.91 92.8006 216.536 97.4263 222.242 97.4263L564.024 97.4263C569.73 97.4263 574.356 92.8006 574.356 87.0944Z" fill="white"/>
<path d="M509.69 104.006V90.4683H411.34V104.006H509.69Z" fill="#7D97F4"/>
<path opacity="0.5" d="M509.69 104.006V90.4683H411.34V104.006H509.69Z" fill="white"/>
<path d="M609.622 28.994V10.332C609.622 4.6258 604.996 0 599.29 0L257.508 0C251.802 0 247.176 4.6258 247.176 10.332V28.994C247.176 34.7002 251.802 39.326 257.508 39.326L599.29 39.326C604.996 39.326 609.622 34.7002 609.622 28.994Z" fill="#7D97F4"/>
<path d="M243.27 206.794C242.038 209.594 240.68 212.618 239.49 215.572C238.3 218.526 237.068 221.564 235.99 224.588C233.778 230.483 232.004 236.534 230.684 242.69L230.278 244.93L230.138 245.77C230.138 246.008 230.138 246.316 230.054 246.596C230.001 247.959 230.029 249.324 230.138 250.684C230.404 253.638 230.88 256.802 231.538 259.966C232.714 266.308 234.212 272.846 235.738 279.286L228.556 282.086C225.208 275.983 222.357 269.621 220.03 263.06C218.804 259.646 217.812 256.152 217.062 252.602C216.641 250.638 216.379 248.644 216.278 246.638C216.278 246.078 216.278 245.546 216.278 244.944C216.278 244.342 216.278 243.67 216.376 243.278L216.656 240.478C217.074 236.872 217.715 233.295 218.574 229.768C219.358 226.268 220.366 222.866 221.374 219.506C222.382 216.146 223.642 212.842 224.972 209.594C225.63 207.97 226.372 206.36 227.016 204.75C227.66 203.14 228.416 201.6 229.312 199.878L243.27 206.794Z" fill="#E4897B"/>
<path d="M235.36 277.396L240.82 282.73L228.906 288.33C228.906 288.33 226.022 283.276 228.024 278.712L235.36 277.396Z" fill="#E4897B"/>
<path d="M245.23 290.668L235.164 294.784L228.92 288.274L240.82 282.73L245.23 290.668Z" fill="#E4897B"/>
<path opacity="0.4" d="M449.14 284.928C429.331 282.704 410.627 274.657 395.391 261.804C380.155 248.951 369.072 231.869 363.543 212.718C358.013 193.568 358.286 173.207 364.327 154.211C370.367 135.215 381.904 118.437 397.479 105.997C413.054 93.5571 431.968 86.0141 451.829 84.3218C471.69 82.6294 491.607 86.8637 509.062 96.4892C526.517 106.115 540.727 120.699 549.894 138.399C559.062 156.099 562.775 176.12 560.566 195.93C559.098 209.092 555.051 221.836 548.656 233.433C542.26 245.03 533.643 255.254 523.295 263.519C512.947 271.784 501.072 277.929 488.348 281.602C475.624 285.276 462.301 286.406 449.14 284.928Z" fill="#FAFAFA"/>
<path opacity="0.4" d="M522.472 105.336L369.172 227.822C368.528 226.422 367.898 225.022 367.31 223.622C363.467 214.48 361.008 204.817 360.016 194.95L492.428 89.1519C503.299 92.7781 513.463 98.2531 522.472 105.336Z" fill="#FAFAFA"/>
<path opacity="0.4" d="M557.85 158.998L413.72 274.148C400.027 267.01 388.162 256.816 379.042 244.356L536.416 118.608C546.56 130.252 553.893 144.07 557.85 158.998Z" fill="#FAFAFA"/>
<path d="M346.912 146.23L345.582 145.782C347.885 138.985 350.78 132.403 354.234 126.112L355.452 126.784C352.044 133.005 349.186 139.512 346.912 146.23ZM363.908 113.554L362.774 112.728C374.279 97.1712 389.337 84.5902 406.692 76.0342L407.322 77.2942C390.164 85.7619 375.279 98.2084 363.908 113.596V113.554ZM517.334 79.2122C512.759 76.7584 508.026 74.6116 503.166 72.7862L503.67 71.4702C508.577 73.3384 513.357 75.5272 517.978 78.0222L517.334 79.2122Z" fill="#7D97F4"/>
<path opacity="0.3" d="M346.912 146.23L345.582 145.782C347.885 138.985 350.78 132.403 354.234 126.112L355.452 126.784C352.044 133.005 349.186 139.512 346.912 146.23ZM363.908 113.554L362.774 112.728C374.279 97.1712 389.337 84.5902 406.692 76.0342L407.322 77.2942C390.164 85.7619 375.279 98.2084 363.908 113.596V113.554ZM517.334 79.2122C512.759 76.7584 508.026 74.6116 503.166 72.7862L503.67 71.4702C508.577 73.3384 513.357 75.5272 517.978 78.0222L517.334 79.2122Z" fill="black"/>
<path d="M564.584 133.266C551.62 106.38 528.808 85.5127 500.875 74.9913C472.942 64.4699 442.032 65.1009 414.551 76.7537C387.071 88.4064 365.129 110.187 353.274 137.58C341.419 164.974 340.559 195.878 350.874 223.888C341.522 227.164 332.282 230.678 323.098 234.304C309.854 239.559 296.731 245.047 283.73 250.768C270.738 256.522 257.802 262.388 244.992 268.52C238.566 271.53 232.224 274.708 225.826 277.788C222.498 279.218 219.482 281.287 216.95 283.878C215.58 285.313 214.373 286.895 213.352 288.596C212.106 290.608 211.163 292.792 210.552 295.078C209.498 299.198 209.954 303.559 211.836 307.372C213.718 311.185 216.903 314.199 220.814 315.868C222.986 316.779 225.277 317.373 227.618 317.632C229.595 317.856 231.591 317.856 233.568 317.632C237.161 317.196 240.633 316.059 243.788 314.286C250.13 311.08 256.514 307.986 262.814 304.696C275.414 298.27 288.014 291.564 300.46 284.76C312.906 277.956 325.366 270.83 337.518 263.522C345.918 258.44 354.402 253.246 362.718 247.814C378.687 273.023 403.742 291.123 432.692 298.362C461.642 305.601 492.267 301.425 518.222 286.699C544.177 271.973 563.472 247.826 572.108 219.262C580.744 190.698 578.06 159.905 564.612 133.266H564.584ZM500.94 267.008C484.67 275.039 466.384 278.065 448.395 275.704C430.405 273.343 413.519 265.7 399.873 253.743C386.227 241.786 376.432 226.05 371.728 208.527C367.024 191.003 367.622 172.478 373.446 155.295C379.27 138.111 390.058 123.04 404.447 111.987C418.836 100.934 436.179 94.3963 454.284 93.1998C472.388 92.0033 490.441 96.202 506.159 105.265C521.877 114.328 534.555 127.848 542.59 144.116C547.926 154.92 551.081 166.669 551.876 178.692C552.67 190.716 551.089 202.778 547.221 214.19C543.353 225.602 537.275 236.14 529.334 245.203C521.393 254.265 511.745 261.675 500.94 267.008Z" fill="#7D97F4"/>
<path opacity="0.3" d="M564.584 133.266C551.62 106.38 528.808 85.5127 500.875 74.9913C472.942 64.4699 442.032 65.1009 414.551 76.7537C387.071 88.4064 365.129 110.187 353.274 137.58C341.419 164.974 340.559 195.878 350.874 223.888C341.522 227.164 332.282 230.678 323.098 234.304C309.854 239.559 296.731 245.047 283.73 250.768C270.738 256.522 257.802 262.388 244.992 268.52C238.566 271.53 232.224 274.708 225.826 277.788C222.498 279.218 219.482 281.287 216.95 283.878C215.58 285.313 214.373 286.895 213.352 288.596C212.106 290.608 211.163 292.792 210.552 295.078C209.498 299.198 209.954 303.559 211.836 307.372C213.718 311.185 216.903 314.199 220.814 315.868C222.986 316.779 225.277 317.373 227.618 317.632C229.595 317.856 231.591 317.856 233.568 317.632C237.161 317.196 240.633 316.059 243.788 314.286C250.13 311.08 256.514 307.986 262.814 304.696C275.414 298.27 288.014 291.564 300.46 284.76C312.906 277.956 325.366 270.83 337.518 263.522C345.918 258.44 354.402 253.246 362.718 247.814C378.687 273.023 403.742 291.123 432.692 298.362C461.642 305.601 492.267 301.425 518.222 286.699C544.177 271.973 563.472 247.826 572.108 219.262C580.744 190.698 578.06 159.905 564.612 133.266H564.584ZM500.94 267.008C484.67 275.039 466.384 278.065 448.395 275.704C430.405 273.343 413.519 265.7 399.873 253.743C386.227 241.786 376.432 226.05 371.728 208.527C367.024 191.003 367.622 172.478 373.446 155.295C379.27 138.111 390.058 123.04 404.447 111.987C418.836 100.934 436.179 94.3963 454.284 93.1998C472.388 92.0033 490.441 96.202 506.159 105.265C521.877 114.328 534.555 127.848 542.59 144.116C547.926 154.92 551.081 166.669 551.876 178.692C552.67 190.716 551.089 202.778 547.221 214.19C543.353 225.602 537.275 236.14 529.334 245.203C521.393 254.265 511.745 261.675 500.94 267.008Z" fill="black"/>
<path d="M281.966 156.801C281.966 157.627 282.4 158.298 282.946 158.298C283.492 158.298 283.926 157.627 283.926 156.801C283.926 155.975 283.492 155.302 282.946 155.302C282.4 155.302 281.966 156.031 281.966 156.801Z" fill="#263238"/>
<path d="M282.358 158.298C283.349 160.834 284.682 163.222 286.32 165.396C285.754 165.801 285.105 166.078 284.421 166.206C283.737 166.334 283.032 166.311 282.358 166.138V158.298Z" fill="#DE5753"/>
<path d="M279.068 152.194C278.99 152.194 278.913 152.176 278.842 152.142C278.772 152.108 278.71 152.059 278.662 151.998C278.589 151.891 278.56 151.76 278.581 151.632C278.602 151.505 278.671 151.39 278.774 151.312C279.39 150.844 280.111 150.533 280.874 150.403C281.637 150.274 282.42 150.331 283.156 150.57C283.222 150.588 283.284 150.619 283.337 150.663C283.39 150.706 283.433 150.76 283.464 150.821C283.495 150.882 283.513 150.949 283.516 151.018C283.52 151.086 283.509 151.155 283.484 151.218C283.46 151.282 283.422 151.341 283.374 151.389C283.325 151.437 283.267 151.475 283.203 151.5C283.139 151.524 283.071 151.535 283.002 151.532C282.934 151.528 282.867 151.511 282.806 151.48C282.221 151.3 281.602 151.264 281 151.374C280.398 151.483 279.832 151.736 279.348 152.11C279.265 152.165 279.167 152.194 279.068 152.194Z" fill="#263238"/>
<path d="M253.686 163.03C255.086 170.548 256.626 184.338 251.362 189.364C251.362 189.364 253.42 196.994 267.406 196.994C282.806 196.994 274.742 189.364 274.742 189.364C266.342 187.348 266.58 181.132 268.036 175.28L253.686 163.03Z" fill="#E4897B"/>
<path d="M245.076 193.326C246.742 190.736 243.942 184.45 243.942 184.45C243.942 184.45 268.694 178.22 278.816 187.782C280.916 189.756 278.592 192.668 278.592 192.668L245.076 193.326Z" fill="#7D97F4"/>
<path opacity="0.1" d="M245.076 193.326C246.742 190.736 243.942 184.45 243.942 184.45C243.942 184.45 268.694 178.22 278.816 187.782C280.916 189.756 278.592 192.668 278.592 192.668L245.076 193.326Z" fill="black"/>
<path d="M204.126 478.968C202.824 478.968 200.738 476.798 200.122 475.986C200.095 475.947 200.081 475.9 200.081 475.853C200.081 475.806 200.095 475.759 200.122 475.72C200.144 475.681 200.177 475.649 200.217 475.626C200.256 475.604 200.301 475.593 200.346 475.594C200.5 475.594 203.93 475.902 204.868 477.12C204.97 477.249 205.043 477.398 205.081 477.557C205.12 477.717 205.124 477.883 205.092 478.044C205.08 478.252 205.003 478.452 204.873 478.615C204.742 478.778 204.564 478.896 204.364 478.954L204.126 478.968ZM200.878 476.168C201.9 477.344 203.538 478.674 204.238 478.506C204.238 478.506 204.518 478.436 204.602 477.988C204.62 477.895 204.617 477.798 204.593 477.706C204.569 477.614 204.524 477.528 204.462 477.456C203.425 476.671 202.177 476.212 200.878 476.14V476.168Z" fill="#7D97F4"/>
<path d="M201.032 476.14C200.781 476.166 200.527 476.166 200.276 476.14C200.232 476.137 200.189 476.121 200.155 476.093C200.12 476.066 200.094 476.029 200.08 475.986C200.06 475.947 200.05 475.904 200.05 475.86C200.05 475.817 200.06 475.773 200.08 475.734C200.178 475.65 202.236 473.508 203.79 473.508C203.976 473.504 204.161 473.539 204.332 473.612C204.503 473.684 204.657 473.792 204.784 473.928C204.923 474.045 205.019 474.206 205.054 474.384C205.09 474.562 205.064 474.747 204.98 474.908C204.574 475.692 202.432 476.14 201.032 476.14ZM200.85 475.65C202.25 475.65 204.28 475.216 204.616 474.6C204.616 474.6 204.714 474.418 204.49 474.194C204.409 474.106 204.309 474.036 204.197 473.99C204.086 473.944 203.966 473.923 203.846 473.928C202.698 474.192 201.655 474.791 200.85 475.65Z" fill="#7D97F4"/>
<path d="M296.512 510.748C295.451 510.741 294.392 510.642 293.348 510.454C293.296 510.444 293.249 510.416 293.216 510.375C293.183 510.334 293.165 510.283 293.166 510.23C293.158 510.182 293.164 510.132 293.184 510.087C293.204 510.043 293.237 510.005 293.278 509.978C293.432 509.894 297.016 507.836 298.738 508.312C298.898 508.348 299.048 508.416 299.181 508.513C299.313 508.609 299.424 508.731 299.508 508.872C299.618 509.028 299.676 509.214 299.676 509.404C299.676 509.595 299.618 509.78 299.508 509.936C299.102 510.566 297.828 510.748 296.512 510.748ZM294.146 510.09C296.05 510.37 298.654 510.356 299.13 509.684C299.2 509.6 299.256 509.446 299.13 509.152C299.023 508.978 298.852 508.852 298.654 508.802C297.562 508.522 295.392 509.446 294.146 510.09Z" fill="#7D97F4"/>
<path d="M293.404 510.468C293.358 510.482 293.31 510.482 293.264 510.468C293.225 510.444 293.195 510.408 293.177 510.365C293.16 510.322 293.156 510.275 293.166 510.23C293.261 508.773 293.82 507.385 294.762 506.268C294.952 506.104 295.176 505.983 295.418 505.913C295.659 505.843 295.913 505.826 296.162 505.862C296.834 505.862 297.03 506.268 297.072 506.534C297.254 507.696 294.804 509.922 293.558 510.482L293.404 510.468ZM295.91 506.268C295.602 506.266 295.304 506.376 295.07 506.576C294.278 507.461 293.788 508.574 293.67 509.754C294.93 508.984 296.61 507.248 296.47 506.548C296.47 506.548 296.47 506.31 295.994 506.268H295.91Z" fill="#7D97F4"/>
<path d="M282.092 510.216H292.382L293.404 486.402H283.114L282.092 510.216Z" fill="#E4897B"/>
<path d="M190.462 469.336L199.058 474.964L218.042 458.934L209.432 453.292L190.462 469.336Z" fill="#E4897B"/>
<path d="M200.472 474.432L191.54 467.11C191.382 466.98 191.184 466.909 190.98 466.909C190.776 466.909 190.578 466.98 190.42 467.11L183.056 472.892C182.878 473.034 182.734 473.214 182.636 473.418C182.537 473.623 182.486 473.848 182.486 474.075C182.486 474.302 182.537 474.527 182.636 474.732C182.734 474.936 182.878 475.116 183.056 475.258C186.22 477.764 187.886 478.828 191.82 482.048C194.242 484.022 200.22 490.07 203.594 492.8C206.968 495.53 210.062 492.59 208.942 491.176C203.916 484.806 201.942 479.36 201.368 475.986C201.269 475.376 200.95 474.823 200.472 474.432Z" fill="#263238"/>
<path d="M292.312 509.026H281.112C280.908 509.027 280.71 509.096 280.55 509.223C280.39 509.35 280.277 509.527 280.23 509.726L278.2 518.868C278.149 519.09 278.149 519.32 278.2 519.541C278.251 519.763 278.352 519.97 278.495 520.147C278.638 520.323 278.819 520.465 279.025 520.561C279.231 520.658 279.457 520.706 279.684 520.702C283.73 520.632 289.582 520.394 294.678 520.394C300.628 520.394 305.78 520.716 312.752 520.716C316.952 520.716 318.156 516.446 316.378 516.068C308.342 514.304 301.762 514.122 294.818 509.824C294.073 509.331 293.205 509.054 292.312 509.026Z" fill="#263238"/>
<path d="M231.09 192.43C222.172 196.63 217.09 224.77 217.09 224.77L238.888 233.464C242.079 225.673 244.658 217.646 246.602 209.454C249.598 196.49 240.218 188.09 231.09 192.43Z" fill="#263238"/>
<path d="M242.654 208.292C237.264 213.752 234.8 224.448 233.722 231.406L238.944 233.492C242.044 225.922 244.571 218.13 246.504 210.182C246.042 207.214 244.894 206.024 242.654 208.292Z" fill="#203048"/>
<path d="M290.562 192.234C290.562 192.234 301.51 204.61 291.178 281.134H236.172C235.794 272.734 241.1 231.504 232.952 191.716C239.031 190.537 245.181 189.761 251.362 189.392C259.149 188.93 266.956 188.93 274.742 189.392C280.081 189.929 285.37 190.88 290.562 192.234Z" fill="#263238"/>
<path d="M295.588 221.942L286.32 205.968C284.531 213.421 283.8 221.089 284.15 228.746C284.402 234.234 289.428 254.562 293.95 257.53C295.15 245.707 295.697 233.826 295.588 221.942Z" fill="#203048"/>
<path d="M296.876 203.168C298.276 209.972 299.676 216.944 301.174 223.776C302.672 230.608 304.226 237.468 306.032 244.09C306.494 245.728 306.928 247.408 307.432 248.976L307.81 250.18L307.992 250.782V250.712C307.894 250.586 307.782 250.572 307.866 250.712C308.441 251.341 309.177 251.801 309.994 252.042C311.317 252.535 312.68 252.914 314.068 253.176C320.687 254.226 327.389 254.661 334.088 254.478L335.418 262.094C333.542 262.696 331.792 263.13 329.944 263.564C328.096 263.998 326.276 264.362 324.414 264.642C320.561 265.284 316.655 265.546 312.752 265.426C310.582 265.368 308.424 265.087 306.312 264.586C303.626 263.999 301.102 262.828 298.92 261.156C297.494 260.005 296.318 258.576 295.462 256.956C295.238 256.536 295.042 256.06 294.86 255.654L294.608 254.996L294.09 253.596C293.376 251.818 292.788 250.068 292.144 248.318C289.778 241.318 287.804 234.248 286.068 227.192C284.332 220.136 282.834 213.094 281.588 205.856L296.876 203.168Z" fill="#E4897B"/>
<path d="M276.828 199.738C273.93 209.132 285.676 237.146 285.676 237.146L309.07 231.266C309.07 231.266 308.174 216.706 302.84 205.156C294.804 187.74 280.3 188.468 276.828 199.738Z" fill="#263238"/>
<path d="M333.892 254.478L345.54 254.184L339.94 266.308C339.94 266.308 335.194 266.938 331.302 260.54L327.2 255.64L331.918 254.702C332.567 254.565 333.228 254.49 333.892 254.478Z" fill="#E4897B"/>
<path d="M352.89 256.438L346.226 266.49L339.94 266.308L345.54 254.184L352.89 256.438Z" fill="#E4897B"/>
<path d="M293.404 486.402L292.872 498.68H282.582L283.114 486.402H293.404Z" fill="#CE6F64"/>
<path d="M209.432 453.292L218.042 458.934L208.242 467.194L199.646 461.566L209.432 453.292Z" fill="#CE6F64"/>
<path d="M254.33 155.022C254.946 165.2 254.792 171.206 259.93 176.428C267.658 184.31 280.244 179.648 282.68 169.428C284.878 160.272 283.506 145.152 273.538 141.092C271.338 140.204 268.949 139.89 266.595 140.178C264.241 140.467 261.999 141.348 260.079 142.741C258.158 144.133 256.624 145.991 255.618 148.139C254.613 150.287 254.169 152.655 254.33 155.022Z" fill="#E4897B"/>
<path d="M242.346 153.23C244.88 162.512 250.844 173.208 258.558 173.894C268.134 174.734 272.46 164.836 273.72 154.616C279.46 150.682 276.45 146.356 282.204 145.81C289.596 145.11 287.23 131.586 277.5 129.416C277.5 129.416 280.762 135.506 273.916 132.426C267.405 129.332 260.172 128.078 253 128.8C253 128.8 261.736 133.168 253.196 135.114C244.656 137.06 242.108 142.324 246.042 145.502C246.042 145.516 240.68 147.126 242.346 153.23Z" fill="#263238"/>
<path d="M267.882 156.716C268.07 159.246 269.089 161.643 270.78 163.534C273.02 166.012 275.358 164.472 275.75 161.462C276.114 158.76 275.372 154.21 272.628 152.838C269.884 151.466 267.7 153.664 267.882 156.716Z" fill="#E4897B"/>
<path d="M271.662 281.134C271.662 281.134 281.686 353.724 273.79 382.816C261.274 428.876 213.422 467.754 213.422 467.754L197.196 457.114C197.196 457.114 237.95 424.284 242.934 385.714C247.414 351.092 236.172 309.218 236.172 281.12L271.662 281.134Z" fill="#7D97F4"/>
<path opacity="0.1" d="M271.662 281.134C271.662 281.134 281.686 353.724 273.79 382.816C261.274 428.876 213.422 467.754 213.422 467.754L197.196 457.114C197.196 457.114 237.95 424.284 242.934 385.714C247.414 351.092 236.172 309.218 236.172 281.12L271.662 281.134Z" fill="black"/>
<path d="M275.806 322.63C273.137 319.573 270.199 316.762 267.028 314.23C268.736 337.792 270.136 372.694 268.582 397.488C270.671 392.735 272.412 387.836 273.79 382.83C277.64 368.62 277.234 344.078 275.806 322.63Z" fill="#7D97F4"/>
<path opacity="0.3" d="M275.806 322.63C273.137 319.573 270.199 316.762 267.028 314.23C268.736 337.792 270.136 372.694 268.582 397.488C270.671 392.735 272.412 387.836 273.79 382.83C277.64 368.62 277.234 344.078 275.806 322.63Z" fill="black"/>
<path d="M219.96 464.128C220.03 464.128 213.674 468.328 213.674 468.328L195.95 456.708L201.55 452.074L219.96 464.128Z" fill="#7D97F4"/>
<path opacity="0.3" d="M219.96 464.128C220.03 464.128 213.674 468.328 213.674 468.328L195.95 456.708L201.55 452.074L219.96 464.128Z" fill="black"/>
<path d="M291.178 281.134C291.178 281.134 306.662 346.794 307.754 378.168C308.986 413.336 296.708 496.3 296.708 496.3H279.278C279.278 496.3 277.136 412.692 276.366 380.66C275.512 345.73 255.016 281.134 255.016 281.134H291.178Z" fill="#7D97F4"/>
<path opacity="0.1" d="M291.178 281.134C291.178 281.134 306.662 346.794 307.754 378.168C308.986 413.336 296.708 496.3 296.708 496.3H279.278C279.278 496.3 277.136 412.692 276.366 380.66C275.512 345.73 255.016 281.134 255.016 281.134H291.178Z" fill="black"/>
<path d="M300.054 489.37C300.138 489.37 299.074 496.594 299.074 496.594H277.878L277.304 490.14L300.054 489.37Z" fill="#7D97F4"/>
<path opacity="0.3" d="M300.054 489.37C300.138 489.37 299.074 496.594 299.074 496.594H277.878L277.304 490.14L300.054 489.37Z" fill="black"/>
<path d="M559.166 218.036C560.356 219.156 561.294 220.108 562.274 221.172C563.254 222.236 564.178 223.272 565.074 224.35C566.894 226.492 568.602 228.746 570.254 231.014C573.553 235.564 576.488 240.367 579.032 245.378L579.55 246.4C579.803 246.895 580.014 247.41 580.18 247.94C580.518 248.965 580.725 250.028 580.796 251.104C580.887 253.002 580.626 254.901 580.026 256.704C579.003 259.699 577.484 262.501 575.532 264.992C572.014 269.51 567.865 273.499 563.212 276.836L559.726 272.832C561.364 270.914 563.072 268.856 564.598 266.798C566.151 264.804 567.554 262.698 568.798 260.498C569.959 258.578 570.819 256.491 571.346 254.31C571.527 253.53 571.56 252.723 571.444 251.93C571.394 251.664 571.309 251.405 571.192 251.16C571.14 251.053 571.079 250.95 571.01 250.852L570.562 250.096C567.862 245.694 564.932 241.436 561.784 237.342C560.23 235.284 558.564 233.31 556.884 231.364C556.058 230.384 555.204 229.432 554.35 228.48C553.496 227.528 552.572 226.576 551.83 225.834L559.166 218.036Z" fill="#E4897B"/>
<path d="M561.07 271.656L550.612 269.948L556.086 279.104C556.086 279.104 562.82 278.866 564.738 274.904L561.07 271.656Z" fill="#E4897B"/>
<path d="M542.884 274.176L547.868 281.61L556.086 279.104L550.612 269.948L542.884 274.176Z" fill="#E4897B"/>
<path d="M560.566 510.622C559.855 510.683 559.145 510.489 558.564 510.076C558.389 509.91 558.259 509.702 558.188 509.471C558.117 509.241 558.106 508.996 558.158 508.76C558.168 508.61 558.219 508.465 558.305 508.342C558.392 508.218 558.51 508.121 558.648 508.06C559.866 507.514 563.058 509.558 563.422 509.796C563.464 509.821 563.496 509.86 563.513 509.905C563.531 509.951 563.533 510.001 563.52 510.048C563.515 510.096 563.494 510.141 563.461 510.176C563.429 510.211 563.385 510.235 563.338 510.244C562.431 510.474 561.501 510.601 560.566 510.622ZM559.166 508.452C559.064 508.436 558.96 508.436 558.858 508.452C558.796 508.481 558.744 508.526 558.707 508.583C558.67 508.64 558.649 508.706 558.648 508.774C558.611 508.93 558.615 509.093 558.659 509.248C558.703 509.402 558.786 509.543 558.9 509.656C559.432 510.132 560.804 510.202 562.638 509.838C561.587 509.144 560.406 508.672 559.166 508.452Z" fill="#7D97F4"/>
<path d="M563.366 510.23H563.24C562.246 509.656 560.328 507.43 560.566 506.212C560.611 506.02 560.717 505.848 560.869 505.722C561.02 505.595 561.209 505.522 561.406 505.512C561.595 505.485 561.788 505.501 561.97 505.559C562.151 505.617 562.318 505.716 562.456 505.848C563.604 506.856 563.618 509.88 563.618 510.048C563.615 510.09 563.602 510.132 563.58 510.168C563.558 510.205 563.528 510.236 563.492 510.258L563.366 510.23ZM561.574 506.03H561.462C561.154 506.03 561.084 506.198 561.056 506.324C560.916 507.038 562.106 508.746 563.1 509.544C563.124 508.37 562.787 507.216 562.134 506.24C562.05 506.162 561.95 506.102 561.842 506.066C561.733 506.03 561.618 506.018 561.504 506.03H561.574Z" fill="#7D97F4"/>
<path d="M512.854 510.622C511.96 510.707 511.065 510.48 510.32 509.978C510.152 509.829 510.022 509.642 509.942 509.433C509.862 509.223 509.833 508.997 509.858 508.774C509.867 508.638 509.91 508.506 509.984 508.391C510.057 508.276 510.158 508.182 510.278 508.116C511.58 507.388 515.752 509.516 516.228 509.782C516.272 509.811 516.306 509.85 516.329 509.897C516.351 509.944 516.36 509.997 516.354 510.048C516.346 510.097 516.323 510.143 516.287 510.178C516.252 510.213 516.207 510.236 516.158 510.244C515.071 510.475 513.965 510.602 512.854 510.622ZM510.992 508.452C510.832 508.442 510.672 508.476 510.53 508.55C510.48 508.574 510.437 508.612 510.407 508.659C510.378 508.706 510.362 508.761 510.362 508.816C510.341 508.962 510.355 509.111 510.404 509.25C510.452 509.389 510.534 509.514 510.642 509.614C511.286 510.188 513.008 510.286 515.332 509.894C513.977 509.172 512.51 508.685 510.992 508.452Z" fill="#7D97F4"/>
<path d="M516.116 510.23H516.004C514.758 509.67 512.28 507.43 512.476 506.212C512.476 505.932 512.728 505.582 513.414 505.512C513.664 505.485 513.918 505.51 514.159 505.584C514.399 505.659 514.622 505.782 514.814 505.946C516.13 507.038 516.382 509.866 516.382 509.992C516.387 510.035 516.381 510.078 516.364 510.118C516.347 510.157 516.319 510.191 516.284 510.216C516.231 510.239 516.172 510.244 516.116 510.23ZM513.61 506.03H513.456C513.008 506.03 512.98 506.254 512.966 506.31C512.854 507.024 514.534 508.802 515.766 509.572C515.644 508.375 515.155 507.246 514.366 506.338C514.153 506.157 513.888 506.049 513.61 506.03Z" fill="#7D97F4"/>
<path d="M532.664 185.85C532.258 192.178 531.166 205.03 536.024 208.586C536.024 208.586 535.142 215.068 523.676 216.58C511.076 218.218 516.83 211.106 516.83 211.106C523.508 208.558 522.654 203.476 520.834 198.828L532.664 185.85Z" fill="#E4897B"/>
<path d="M506.582 174.664C506.512 174.664 506.444 174.649 506.381 174.62C506.318 174.591 506.263 174.549 506.218 174.496C505.817 174.021 505.311 173.647 504.74 173.404C504.168 173.161 503.547 173.055 502.928 173.096C502.862 173.108 502.795 173.107 502.73 173.092C502.665 173.077 502.604 173.049 502.55 173.009C502.497 172.97 502.452 172.92 502.418 172.863C502.384 172.806 502.362 172.742 502.354 172.676C502.338 172.544 502.374 172.412 502.456 172.307C502.537 172.202 502.656 172.134 502.788 172.116C503.578 172.049 504.373 172.175 505.104 172.482C505.836 172.789 506.482 173.269 506.988 173.88C507.048 173.953 507.087 174.042 507.1 174.136C507.112 174.23 507.098 174.326 507.058 174.412C507.019 174.498 506.956 174.572 506.876 174.624C506.797 174.676 506.705 174.704 506.61 174.706L506.582 174.664Z" fill="#263238"/>
<path d="M504.398 180.866C503.901 182.874 503.133 184.805 502.116 186.606C502.583 186.858 503.1 187.003 503.63 187.032C504.16 187.061 504.69 186.973 505.182 186.774L504.398 180.866Z" fill="#DE5753"/>
<path d="M504.958 179.326C505.07 180.166 504.72 180.894 504.174 180.978C503.628 181.062 503.082 180.418 502.984 179.578C502.886 178.738 503.222 178.01 503.768 177.94C504.314 177.87 504.86 178.43 504.958 179.326Z" fill="#263238"/>
<path d="M504.02 177.954L501.934 177.632C501.934 177.632 503.166 179.074 504.02 177.954Z" fill="#263238"/>
<path d="M527.652 510.006H517.152L516.452 485.716H526.952L527.652 510.006Z" fill="#E4897B"/>
<path d="M575.322 510.006H564.822L561.448 485.716H571.948L575.322 510.006Z" fill="#E4897B"/>
<path d="M564.178 508.83H575.966C576.167 508.828 576.362 508.899 576.514 509.031C576.666 509.162 576.765 509.345 576.792 509.544L578.192 518.882C578.217 519.117 578.193 519.355 578.12 519.581C578.047 519.806 577.928 520.013 577.769 520.189C577.61 520.365 577.416 520.505 577.2 520.601C576.983 520.696 576.749 520.745 576.512 520.744C572.41 520.674 570.422 520.436 565.242 520.436C562.05 520.436 557.388 520.758 552.992 520.758C548.596 520.758 548.358 516.404 550.192 516.012C558.41 514.248 559.712 511.812 562.47 509.474C562.951 509.074 563.553 508.847 564.178 508.83Z" fill="#263238"/>
<path d="M516.802 508.83H528.576C528.778 508.827 528.975 508.898 529.129 509.03C529.284 509.161 529.385 509.343 529.416 509.544L530.816 518.882C530.841 519.117 530.817 519.355 530.744 519.581C530.671 519.806 530.552 520.013 530.393 520.189C530.234 520.365 530.04 520.505 529.824 520.601C529.607 520.696 529.373 520.745 529.136 520.744C525.034 520.674 523.046 520.436 517.866 520.436C514.674 520.436 508.066 520.758 503.67 520.758C499.274 520.758 499.036 516.404 500.87 516.012C509.088 514.248 512.322 511.812 515.094 509.474C515.575 509.074 516.177 508.847 516.802 508.83Z" fill="#263238"/>
<path d="M516.452 485.716L516.816 498.246H527.316L526.952 485.716H516.452Z" fill="#CE6F64"/>
<path d="M571.948 485.716H561.448L563.198 498.246H573.684L571.948 485.716Z" fill="#CE6F64"/>
<path d="M532.804 172.746C533.518 183.134 534.036 187.516 529.528 193.494C522.738 202.468 509.83 201.082 506.022 191.114C502.592 182.14 502.004 166.67 511.552 161.238C513.652 160.034 516.025 159.387 518.446 159.358C520.867 159.329 523.255 159.918 525.384 161.071C527.513 162.224 529.312 163.901 530.61 165.945C531.909 167.988 532.664 170.329 532.804 172.746Z" fill="#E4897B"/>
<path d="M538.852 182.392C544.676 185.64 549.002 177.632 549.002 177.632C549.002 177.632 538.558 178.766 539.496 172.55C540.728 164.304 534.82 154.28 520.008 155.568C519.182 155.638 518.398 155.736 517.628 155.862C516.077 155.127 514.324 154.937 512.652 155.323C510.98 155.71 509.487 156.649 508.416 157.99C504.216 158.34 498.546 163.352 502.396 169.974C502.666 169.213 503.085 168.513 503.628 167.916C503.95 171.794 507.338 177.954 511.566 178.36C512.476 183.666 508.948 189.812 510.166 195.356C511.972 203.35 525.454 205.156 525.454 205.156C524.989 204.158 524.816 203.048 524.954 201.956C525.093 200.863 525.538 199.832 526.238 198.982C535.394 203.182 541.428 199.08 541.428 199.08C535.184 196.756 537.074 192.612 537.074 192.612C539.23 193.569 541.673 193.653 543.889 192.846C546.106 192.04 547.923 190.405 548.96 188.286C546.886 188.384 544.828 187.88 543.034 186.834C541.24 185.788 539.788 184.245 538.852 182.392Z" fill="#263238"/>
<path d="M515.22 179.956C515.244 180.953 515.072 181.945 514.711 182.875C514.351 183.805 513.81 184.654 513.12 185.374C511.272 187.292 509.004 185.948 508.388 183.498C507.842 181.286 508.15 177.632 510.558 176.624C511.088 176.416 511.661 176.343 512.227 176.413C512.792 176.483 513.33 176.693 513.794 177.024C514.257 177.355 514.63 177.797 514.879 178.309C515.128 178.821 515.245 179.387 515.22 179.956Z" fill="#E4897B"/>
<path d="M523.942 276.738C523.942 276.738 526.602 345.842 532.93 386.414C538.026 419.202 560.664 495.81 560.664 495.81H574.972C574.972 495.81 563.17 421.82 560.58 389.41C554.028 307.384 571.038 289.772 554.98 272.692L523.942 276.738Z" fill="#263238"/>
<path d="M535.898 298.592C535.898 298.592 529.43 297.472 525.65 309.792C527.05 333.13 529.444 364.098 532.93 386.414C533.7 391.384 534.876 397.376 536.318 403.942C533.588 364.518 535.898 298.592 535.898 298.592Z" fill="#161F33"/>
<path d="M512.784 278.194C512.784 278.194 500.996 354.648 501.682 386.638C502.396 419.916 514.59 495.838 514.59 495.838H528.772C528.772 495.838 526.532 421.89 527.778 389.214C529.178 353.584 543.724 274.176 543.724 274.176L512.784 278.194Z" fill="#263238"/>
<path d="M577.044 496.482H558.018L556.534 490.098L576.904 490.238L577.044 496.482Z" fill="#7D97F4"/>
<path opacity="0.2" d="M577.044 496.482H558.018L556.534 490.098L576.904 490.238L577.044 496.482Z" fill="black"/>
<path d="M554.266 208.6C559.74 209.132 568.056 224.686 568.056 224.686L554.238 235.284C554.238 235.284 542.8 225.246 544.158 219.604C545.572 213.738 549.016 208.11 554.266 208.6Z" fill="#7D97F4"/>
<path opacity="0.1" d="M554.266 208.6C559.74 209.132 568.056 224.686 568.056 224.686L554.238 235.284C554.238 235.284 542.8 225.246 544.158 219.604C545.572 213.738 549.016 208.11 554.266 208.6Z" fill="black"/>
<path d="M550.136 215.292C548.74 214.916 547.296 214.756 545.852 214.816C545.117 216.347 544.549 217.952 544.158 219.604C542.758 225.204 554.238 235.284 554.238 235.284L555.26 234.5L550.136 215.292Z" fill="#7D97F4"/>
<path opacity="0.3" d="M550.136 215.292C548.74 214.916 547.296 214.756 545.852 214.816C545.117 216.347 544.549 217.952 544.158 219.604C542.758 225.204 554.238 235.284 554.238 235.284L555.26 234.5L550.136 215.292Z" fill="black"/>
<path d="M508.094 230.23C504.104 240.324 499.904 250.586 496.558 260.708C496.334 261.352 496.152 261.968 495.956 262.598L495.48 264.152C495.35 264.61 495.35 265.094 495.48 265.552C496.27 267.302 497.524 268.803 499.106 269.892C503.292 272.895 507.852 275.338 512.672 277.158L511.412 282.31C505.483 281.528 499.749 279.658 494.5 276.794C491.269 275.068 488.638 272.403 486.954 269.15C485.987 267.071 485.651 264.754 485.988 262.486C486.02 262.208 486.066 261.933 486.128 261.66L486.268 261.072L486.506 260.008C486.674 259.294 486.842 258.608 487.024 257.908C488.424 252.308 490.216 246.988 492.106 241.71C493.996 236.432 495.97 231.224 498.196 226.03L508.094 230.23Z" fill="#E4897B"/>
<path d="M499.596 216.062C499.596 216.062 494.864 218.456 512.784 278.194L555.036 272.678C552.068 255.57 550.668 244.972 554.266 208.6C548.207 208.166 542.125 208.166 536.066 208.6C529.615 208.975 523.201 209.817 516.872 211.12C508.766 212.926 499.596 216.062 499.596 216.062Z" fill="#7D97F4"/>
<path opacity="0.1" d="M499.596 216.062C499.596 216.062 494.864 218.456 512.784 278.194L555.036 272.678C552.068 255.57 550.668 244.972 554.266 208.6C548.207 208.166 542.125 208.166 536.066 208.6C529.615 208.975 523.201 209.817 516.872 211.12C508.766 212.926 499.596 216.062 499.596 216.062Z" fill="black"/>
<path d="M555.344 270.116L557.766 273.63C557.948 273.91 557.64 274.246 557.164 274.316L512.854 280.112C512.476 280.112 512.126 280.014 512.07 279.776L511.202 276.038C511.132 275.786 511.44 275.52 511.86 275.464L554.644 269.864C554.772 269.843 554.904 269.856 555.026 269.9C555.149 269.944 555.258 270.018 555.344 270.116Z" fill="#7D97F4"/>
<path opacity="0.2" d="M555.344 270.116L557.766 273.63C557.948 273.91 557.64 274.246 557.164 274.316L512.854 280.112C512.476 280.112 512.126 280.014 512.07 279.776L511.202 276.038C511.132 275.786 511.44 275.52 511.86 275.464L554.644 269.864C554.772 269.843 554.904 269.856 555.026 269.9C555.149 269.944 555.258 270.018 555.344 270.116Z" fill="black"/>
<path d="M550.22 275.646L551.368 275.492C551.592 275.492 551.746 275.324 551.718 275.184L550.542 270.34C550.497 270.257 550.426 270.193 550.339 270.157C550.252 270.121 550.155 270.117 550.066 270.144L548.918 270.284C548.68 270.284 548.526 270.452 548.568 270.606L549.744 275.436C549.772 275.59 549.996 275.674 550.22 275.646Z" fill="#263238"/>
<path d="M522.444 279.23L523.592 279.076C523.816 279.076 523.984 278.908 523.942 278.768L522.766 273.924C522.72 273.842 522.649 273.778 522.563 273.74C522.477 273.702 522.381 273.693 522.29 273.714L521.142 273.868C520.918 273.868 520.75 274.036 520.792 274.176L521.968 279.02C521.996 279.23 522.22 279.314 522.444 279.23Z" fill="#263238"/>
<path d="M501.57 236.334C502.732 241.738 504.37 248.584 506.764 257.25L507.282 235.284L501.57 236.334Z" fill="#7D97F4"/>
<path opacity="0.3" d="M501.57 236.334C502.732 241.738 504.37 248.584 506.764 257.25L507.282 235.284L501.57 236.334Z" fill="black"/>
<path d="M499.596 216.062C494.346 218.176 489.796 236.138 489.796 236.138L507.856 244.93C507.856 244.93 516.578 222.964 512.672 218.68C508.766 214.396 505.644 213.64 499.596 216.062Z" fill="#7D97F4"/>
<path opacity="0.1" d="M499.596 216.062C494.346 218.176 489.796 236.138 489.796 236.138L507.856 244.93C507.856 244.93 516.578 222.964 512.672 218.68C508.766 214.396 505.644 213.64 499.596 216.062Z" fill="black"/>
<path d="M531.194 496.482H512.168L510.684 490.098L531.866 490.238L531.194 496.482Z" fill="#7D97F4"/>
<path opacity="0.2" d="M531.194 496.482H512.168L510.684 490.098L531.866 490.238L531.194 496.482Z" fill="black"/>
<path d="M512.966 275.422L511.44 274.792C511.065 274.639 510.656 274.589 510.255 274.645C509.854 274.701 509.475 274.863 509.156 275.113C508.838 275.363 508.591 275.693 508.442 276.07C508.292 276.446 508.244 276.855 508.304 277.256L509.41 284.55C509.463 284.915 509.596 285.263 509.801 285.571C510.005 285.878 510.275 286.136 510.591 286.326C510.907 286.516 511.262 286.634 511.629 286.671C511.996 286.707 512.366 286.662 512.714 286.538C513.269 286.336 513.789 286.048 514.254 285.684C514.76 285.264 515.161 284.731 515.423 284.128C515.686 283.525 515.803 282.868 515.766 282.212L515.612 279.188C515.585 278.371 515.321 277.579 514.851 276.91C514.381 276.241 513.726 275.724 512.966 275.422Z" fill="#E4897B"/>
<defs>
<linearGradient id="paint0_linear_304_466" x1="410.597" y1="501.409" x2="410.597" y2="567.197" gradientUnits="userSpaceOnUse">
<stop stop-color="#F5F5F5"/>
<stop offset="1" stop-color="#F5F5F5" stop-opacity="0"/>
</linearGradient>
</defs>
</svg>
