<svg width="810" height="501" viewBox="0 0 810 501" fill="none" xmlns="http://www.w3.org/2000/svg">
<path d="M174.408 450.134C301.687 516.622 508.032 516.622 635.312 450.134C762.591 383.646 762.576 275.84 635.312 209.352C508.048 142.864 301.687 142.864 174.408 209.352C47.1284 275.84 47.1436 383.676 174.408 450.134Z" fill="url(#paint0_linear_304_468)" fill-opacity="0.3"/>
<path d="M637.667 398.715C630.551 401.632 622.574 401.632 615.458 398.715C609.382 395.783 609.382 391.12 615.458 388.082C622.571 385.15 630.554 385.15 637.667 388.082C643.803 391.044 643.803 395.829 637.667 398.715Z" fill="#E0E0E0"/>
<path d="M150.453 390.269C157.693 393.247 165.816 393.247 173.056 390.269C179.299 387.231 179.299 382.461 173.056 379.484C165.813 376.522 157.696 376.522 150.453 379.484C144.21 382.461 144.21 387.292 150.453 390.269Z" fill="#E0E0E0"/>
<path d="M188.899 309.943L256.77 270.752V103.309L188.899 142.5V309.943Z" fill="#37474F"/>
<path d="M188.899 142.5L114.847 99.7544V267.182L188.899 309.943V142.5Z" fill="#455A64"/>
<path d="M256.77 103.309L182.732 60.5637L114.847 99.7547L188.899 142.5L256.77 103.309Z" fill="#37474F"/>
<path d="M142.569 283.223V254.711L161.754 265.739V294.236L142.569 283.223Z" fill="#E0E0E0"/>
<path d="M150.939 259.526L152.807 260.605V289.102L150.939 288.023V259.526Z" fill="#263238"/>
<path d="M181.137 262.686V246.797L168.438 239.46V255.349L181.137 262.686Z" fill="#E0E0E0"/>
<path d="M168.438 255.349L171.613 253.526V241.298L168.438 239.46V255.349Z" fill="#263238"/>
<path d="M181.137 259.025L171.613 253.526L168.438 255.349L181.137 262.686V259.025Z" fill="#37474F"/>
<path d="M181.137 293.127V277.238L168.438 269.917V285.806L181.137 293.127Z" fill="#E0E0E0"/>
<path d="M168.438 285.806L171.613 283.968V271.739L168.438 269.917V285.806Z" fill="#263238"/>
<path d="M181.137 289.466L171.613 283.967L168.438 285.805L181.137 293.127V289.466Z" fill="#37474F"/>
<path d="M181.137 232.882V216.993L168.438 209.672V225.561L181.137 232.882Z" fill="#E0E0E0"/>
<path d="M168.438 225.561L171.613 223.723V211.494L168.438 209.672V225.561Z" fill="#263238"/>
<path d="M181.137 229.222L171.613 223.723L168.438 225.561L181.137 232.882V229.222Z" fill="#37474F"/>
<path d="M181.137 203.079V187.19L168.438 179.868V195.757L181.137 203.079Z" fill="#E0E0E0"/>
<path d="M168.438 195.757L171.613 193.919V181.691L168.438 179.868V195.757Z" fill="#263238"/>
<path d="M181.137 199.418L171.613 193.919L168.438 195.757L181.137 203.079V199.418Z" fill="#37474F"/>
<path d="M181.137 173.291V157.387L168.438 150.065V165.954L181.137 173.291Z" fill="#E0E0E0"/>
<path d="M168.438 165.954L171.613 164.116V151.903L168.438 150.065V165.954Z" fill="#263238"/>
<path d="M181.137 169.615L171.613 164.116L168.438 165.954L181.137 173.291V169.615Z" fill="#37474F"/>
<path d="M135.323 236.24V220.351L122.624 213.014V228.903L135.323 236.24Z" fill="#E0E0E0"/>
<path d="M122.624 228.903L125.799 227.08V214.852L122.624 213.014V228.903Z" fill="#263238"/>
<path d="M135.323 232.578L125.799 227.08L122.624 228.902L135.323 236.239V232.578Z" fill="#37474F"/>
<path d="M135.323 266.681V250.792L122.624 243.47V259.344L135.323 266.681Z" fill="#E0E0E0"/>
<path d="M122.624 259.344L125.799 257.521V245.293L122.624 243.47V259.344Z" fill="#263238"/>
<path d="M135.323 263.02L125.799 257.521L122.624 259.344L135.323 266.681V263.02Z" fill="#37474F"/>
<path d="M135.323 206.178V190.289L122.624 182.967V198.856L135.323 206.178Z" fill="#E0E0E0"/>
<path d="M122.624 198.856L125.799 197.018V184.79L122.624 182.967V198.856Z" fill="#263238"/>
<path d="M135.323 202.517L125.799 197.018L122.624 198.856L135.323 206.178V202.517Z" fill="#37474F"/>
<path d="M135.323 176.131V160.242L122.624 152.906V168.795L135.323 176.131Z" fill="#E0E0E0"/>
<path d="M122.624 168.795L125.799 166.972V154.744L122.624 152.906V168.795Z" fill="#263238"/>
<path d="M135.323 172.471L125.799 166.972L122.624 168.795L135.323 176.132V172.471Z" fill="#37474F"/>
<path d="M135.323 146.07V130.181L122.624 122.859V138.748L135.323 146.07Z" fill="#FAFAFA"/>
<path d="M122.624 138.748L125.799 136.91V124.682L122.624 122.859V138.748Z" fill="#263238"/>
<path d="M135.323 142.409L125.799 136.91L122.624 138.748L135.323 146.07V142.409Z" fill="#37474F"/>
<path d="M142.569 133.568L149.967 137.836V244.7L142.569 240.447V133.568Z" fill="#FAFAFA"/>
<path d="M142.569 133.568L145.698 135.375V238.685L142.569 240.447V133.568Z" fill="#263238"/>
<path d="M145.698 238.686L149.967 241.055V244.701L142.569 240.448L145.698 238.686Z" fill="#37474F"/>
<path d="M154.341 140.297L161.754 144.551V251.43L154.341 247.161V140.297Z" fill="#FAFAFA"/>
<path d="M154.341 140.297L157.471 142.105V245.399L154.341 247.161V140.297Z" fill="#263238"/>
<path d="M157.471 245.399L161.754 247.769V251.43L154.341 247.161L157.471 245.399Z" fill="#37474F"/>
<path d="M196.753 262.686V246.797L209.437 239.46V255.349L196.753 262.686Z" fill="#E0E0E0"/>
<path d="M209.437 255.349L206.262 253.526L206.277 241.298L209.437 239.46V255.349Z" fill="#455A64"/>
<path d="M196.753 259.025L206.262 253.526L209.437 255.349L196.753 262.686V259.025Z" fill="#263238"/>
<path d="M216.485 251.339V235.45L229.184 228.128V244.017L216.485 251.339Z" fill="#E0E0E0"/>
<path d="M229.184 244.017L226.009 242.179V229.951L229.184 228.128V244.017Z" fill="#455A64"/>
<path d="M216.485 247.678L226.009 242.179L229.184 244.017L216.485 251.339V247.678Z" fill="#263238"/>
<path d="M236.217 240.006V224.117L248.916 216.781V232.67L236.217 240.006Z" fill="#E0E0E0"/>
<path d="M248.916 232.67L245.742 230.847V218.619L248.916 216.781V232.67Z" fill="#455A64"/>
<path d="M236.217 236.33L245.741 230.847L248.916 232.67L236.217 240.006V236.33Z" fill="#263238"/>
<path d="M196.753 293.127V277.238L209.437 269.917V285.806L196.753 293.127Z" fill="#E0E0E0"/>
<path d="M209.437 285.806L206.262 283.968L206.277 271.739L209.437 269.917V285.806Z" fill="#455A64"/>
<path d="M196.753 289.466L206.262 283.967L209.437 285.805L196.753 293.127V289.466Z" fill="#263238"/>
<path d="M216.485 281.795V265.891L229.184 258.569V274.458L216.485 281.795Z" fill="#E0E0E0"/>
<path d="M229.184 274.458L226.009 272.62V260.407L229.184 258.569V274.458Z" fill="#455A64"/>
<path d="M216.485 278.119L226.009 272.62L229.184 274.458L216.485 281.795V278.119Z" fill="#263238"/>
<path d="M236.217 270.448V254.559L248.916 247.222V263.111L236.217 270.448Z" fill="#E0E0E0"/>
<path d="M248.916 263.111L245.742 261.288V249.06L248.916 247.222V263.111Z" fill="#455A64"/>
<path d="M236.217 266.787L245.741 261.288L248.916 263.111L236.217 270.448V266.787Z" fill="#263238"/>
<path d="M196.753 232.882V216.993L209.437 209.672V225.561L196.753 232.882Z" fill="#E0E0E0"/>
<path d="M209.437 225.561L206.262 223.723L206.277 211.494L209.437 209.672V225.561Z" fill="#455A64"/>
<path d="M196.753 229.222L206.262 223.723L209.437 225.561L196.753 232.882V229.222Z" fill="#263238"/>
<path d="M216.485 221.414V205.525L229.184 198.203V214.092L216.485 221.414Z" fill="#E0E0E0"/>
<path d="M229.184 214.092L226.009 212.254V200.026L229.184 198.203V214.092Z" fill="#455A64"/>
<path d="M216.485 217.753L226.009 212.254L229.184 214.092L216.485 221.414V217.753Z" fill="#263238"/>
<path d="M236.217 209.945V194.056L248.916 186.734V202.623L236.217 209.945Z" fill="#E0E0E0"/>
<path d="M248.916 202.623L245.742 200.785V188.557L248.916 186.734V202.623Z" fill="#455A64"/>
<path d="M236.217 206.285L245.741 200.786L248.916 202.624L236.217 209.945V206.285Z" fill="#263238"/>
<path d="M196.753 203.079V187.19L209.437 179.868V195.757L196.753 203.079Z" fill="#E0E0E0"/>
<path d="M209.437 195.757L206.262 193.919L206.277 181.691L209.437 179.868V195.757Z" fill="#455A64"/>
<path d="M196.753 199.418L206.262 193.919L209.437 195.757L196.753 203.079V199.418Z" fill="#263238"/>
<path d="M216.485 191.489V175.6L229.184 168.263V184.167L216.485 191.489Z" fill="#E0E0E0"/>
<path d="M229.184 184.167L226.009 182.329V170.101L229.184 168.263V184.167Z" fill="#455A64"/>
<path d="M216.485 187.828L226.009 182.329L229.184 184.167L216.485 191.489V187.828Z" fill="#263238"/>
<path d="M236.217 179.899V164.01L248.916 156.673V172.562L236.217 179.899Z" fill="#E0E0E0"/>
<path d="M248.916 172.562L245.742 170.739V158.511L248.916 156.673V172.562Z" fill="#455A64"/>
<path d="M236.217 176.237L245.741 170.739L248.916 172.561L236.217 179.898V176.237Z" fill="#263238"/>
<path d="M196.753 173.291V157.387L209.437 150.065V165.954L196.753 173.291Z" fill="#E0E0E0"/>
<path d="M209.437 165.954L206.262 164.116L206.277 151.903L209.437 150.065V165.954Z" fill="#455A64"/>
<path d="M196.753 169.615L206.262 164.116L209.437 165.954L196.753 173.291V169.615Z" fill="#263238"/>
<path d="M216.485 161.564V145.675L229.184 138.338V154.227L216.485 161.564Z" fill="#E0E0E0"/>
<path d="M229.184 154.227L226.009 152.404V140.176L229.184 138.338V154.227Z" fill="#455A64"/>
<path d="M216.485 157.903L226.009 152.404L229.184 154.227L216.485 161.564V157.903Z" fill="#263238"/>
<path d="M236.217 149.837V133.948L248.916 126.626V142.515L236.217 149.837Z" fill="#E0E0E0"/>
<path d="M248.916 142.515L245.742 140.677V128.449L248.916 126.626V142.515Z" fill="#455A64"/>
<path d="M236.217 146.176L245.741 140.677L248.916 142.516L236.217 149.837V146.176Z" fill="#263238"/>
<path d="M127.196 99.7547L182.732 67.688L244.42 103.309L188.899 135.376L127.196 99.7547Z" fill="#F0F0F0"/>
<path d="M182.732 67.688V74.8122L238.253 106.879L244.42 103.309L182.732 67.688Z" fill="#455A64"/>
<path d="M182.732 67.688L127.196 99.7547L133.364 103.309L182.732 74.8122V67.688Z" fill="#263238"/>
<path d="M617.159 309.943L549.289 270.752V103.309L617.175 142.5L617.159 309.943Z" fill="#455A64"/>
<path d="M617.175 142.5L691.212 99.7544V267.182L617.16 309.943L617.175 142.5Z" fill="#37474F"/>
<path d="M549.289 103.309L623.342 60.5637L691.212 99.7547L617.175 142.5L549.289 103.309Z" fill="#37474F"/>
<path d="M663.505 283.223V254.711L644.305 265.739L644.32 294.236L663.505 283.223Z" fill="#E0E0E0"/>
<path d="M655.12 259.526L653.267 260.605V289.102L655.12 288.023V259.526Z" fill="#263238"/>
<path d="M624.922 262.686V246.797L637.621 239.46V255.349L624.922 262.686Z" fill="#E0E0E0"/>
<path d="M637.621 255.349L634.446 253.526V241.298L637.621 239.46V255.349Z" fill="#263238"/>
<path d="M624.922 259.025L634.446 253.526L637.621 255.349L624.922 262.686V259.025Z" fill="#455A64"/>
<path d="M624.922 293.127V277.238L637.621 269.917V285.806L624.922 293.127Z" fill="#E0E0E0"/>
<path d="M637.621 285.806L634.446 283.968V271.739L637.621 269.917V285.806Z" fill="#263238"/>
<path d="M624.922 289.466L634.446 283.967L637.621 285.805L624.922 293.127V289.466Z" fill="#455A64"/>
<path d="M624.922 232.882V216.993L637.621 209.672V225.561L624.922 232.882Z" fill="#E0E0E0"/>
<path d="M637.621 225.561L634.446 223.723V211.494L637.621 209.672V225.561Z" fill="#263238"/>
<path d="M624.922 229.222L634.446 223.723L637.621 225.561L624.922 232.882V229.222Z" fill="#455A64"/>
<path d="M624.922 203.079V187.19L637.621 179.868V195.757L624.922 203.079Z" fill="#E0E0E0"/>
<path d="M637.621 195.757L634.446 193.919V181.691L637.621 179.868V195.757Z" fill="#263238"/>
<path d="M624.922 199.418L634.446 193.919L637.621 195.757L624.922 203.079V199.418Z" fill="#455A64"/>
<path d="M624.922 173.291V157.387L637.621 150.065V165.954L624.922 173.291Z" fill="#E0E0E0"/>
<path d="M637.621 165.954L634.446 164.116V151.903L637.621 150.065V165.954Z" fill="#263238"/>
<path d="M624.922 169.615L634.446 164.116L637.621 165.954L624.922 173.291V169.615Z" fill="#455A64"/>
<path d="M670.751 236.24V220.351L683.435 213.014V228.903L670.751 236.24Z" fill="#E0E0E0"/>
<path d="M683.435 228.903L680.275 227.08V214.852L683.435 213.014V228.903Z" fill="#263238"/>
<path d="M670.751 232.578L680.275 227.08L683.435 228.902L670.751 236.239V232.578Z" fill="#455A64"/>
<path d="M670.751 266.681V250.792L683.435 243.47V259.344L670.751 266.681Z" fill="#E0E0E0"/>
<path d="M683.435 259.344L680.275 257.521V245.293L683.435 243.47V259.344Z" fill="#263238"/>
<path d="M670.751 263.02L680.275 257.521L683.435 259.344L670.751 266.681V263.02Z" fill="#455A64"/>
<path d="M670.751 206.178V190.289L683.435 182.967V198.856L670.751 206.178Z" fill="#E0E0E0"/>
<path d="M683.435 198.856L680.275 197.018V184.79L683.435 182.967V198.856Z" fill="#263238"/>
<path d="M670.751 202.517L680.275 197.018L683.435 198.856L670.751 206.178V202.517Z" fill="#455A64"/>
<path d="M670.751 176.131V160.242L683.435 152.906V168.795L670.751 176.131Z" fill="#E0E0E0"/>
<path d="M683.435 168.795L680.275 166.972V154.744L683.435 152.906V168.795Z" fill="#263238"/>
<path d="M670.751 172.471L680.275 166.972L683.435 168.795L670.751 176.132V172.471Z" fill="#455A64"/>
<path d="M670.751 146.07V130.181L683.435 122.859V138.748L670.751 146.07Z" fill="#FAFAFA"/>
<path d="M683.435 138.748L680.275 136.91V124.682L683.435 122.859V138.748Z" fill="#263238"/>
<path d="M670.751 142.409L680.275 136.91L683.435 138.748L670.751 146.07V142.409Z" fill="#455A64"/>
<path d="M663.505 133.568L656.092 137.836V244.7L663.505 240.447V133.568Z" fill="#FAFAFA"/>
<path d="M663.505 133.568L660.361 135.375V238.685L663.505 240.447V133.568Z" fill="#263238"/>
<path d="M660.361 238.686L656.092 241.055V244.701L663.505 240.448L660.361 238.686Z" fill="#455A64"/>
<path d="M651.717 140.297L644.32 144.551V251.43L651.717 247.161V140.297Z" fill="#FAFAFA"/>
<path d="M651.717 140.297L648.588 142.105V245.399L651.717 247.161V140.297Z" fill="#263238"/>
<path d="M648.588 245.399L644.32 247.769V251.43L651.717 247.161L648.588 245.399Z" fill="#455A64"/>
<path d="M609.321 262.686V246.797L596.622 239.46V255.349L609.321 262.686Z" fill="#E0E0E0"/>
<path d="M596.622 255.349L599.797 253.526V241.298L596.622 239.46V255.349Z" fill="#37474F"/>
<path d="M609.321 259.025L599.797 253.526L596.622 255.349L609.321 262.686V259.025Z" fill="#263238"/>
<path d="M589.574 251.339V235.45L576.89 228.128V244.017L589.574 251.339Z" fill="#E0E0E0"/>
<path d="M576.89 244.017L580.05 242.179V229.951L576.89 228.128V244.017Z" fill="#37474F"/>
<path d="M589.574 247.678L580.05 242.179L576.89 244.017L589.574 251.339V247.678Z" fill="#263238"/>
<path d="M569.842 240.006V224.117L557.143 216.781V232.67L569.842 240.006Z" fill="#E0E0E0"/>
<path d="M557.143 232.67L560.317 230.847V218.619L557.143 216.781V232.67Z" fill="#37474F"/>
<path d="M569.842 236.33L560.317 230.847L557.143 232.67L569.842 240.006V236.33Z" fill="#263238"/>
<path d="M609.321 293.127V277.238L596.622 269.917V285.806L609.321 293.127Z" fill="#E0E0E0"/>
<path d="M596.622 285.806L599.797 283.968V271.739L596.622 269.917V285.806Z" fill="#37474F"/>
<path d="M609.321 289.466L599.797 283.967L596.622 285.805L609.321 293.127V289.466Z" fill="#263238"/>
<path d="M589.574 281.795V265.891L576.89 258.569V274.458L589.574 281.795Z" fill="#E0E0E0"/>
<path d="M576.89 274.458L580.05 272.62V260.407L576.89 258.569V274.458Z" fill="#37474F"/>
<path d="M589.574 278.119L580.05 272.62L576.89 274.458L589.574 281.795V278.119Z" fill="#263238"/>
<path d="M569.842 270.448V254.559L557.143 247.222V263.111L569.842 270.448Z" fill="#E0E0E0"/>
<path d="M557.143 263.111L560.317 261.288V249.06L557.143 247.222V263.111Z" fill="#37474F"/>
<path d="M569.842 266.787L560.317 261.288L557.143 263.111L569.842 270.448V266.787Z" fill="#263238"/>
<path d="M609.321 232.882V216.993L596.622 209.672V225.561L609.321 232.882Z" fill="#E0E0E0"/>
<path d="M596.622 225.561L599.797 223.723V211.494L596.622 209.672V225.561Z" fill="#37474F"/>
<path d="M609.321 229.222L599.797 223.723L596.622 225.561L609.321 232.882V229.222Z" fill="#263238"/>
<path d="M589.574 221.414V205.525L576.89 198.203V214.092L589.574 221.414Z" fill="#E0E0E0"/>
<path d="M576.89 214.092L580.05 212.254V200.026L576.89 198.203V214.092Z" fill="#37474F"/>
<path d="M589.574 217.753L580.05 212.254L576.89 214.092L589.574 221.414V217.753Z" fill="#263238"/>
<path d="M569.842 209.945V194.056L557.143 186.734V202.623L569.842 209.945Z" fill="#E0E0E0"/>
<path d="M557.143 202.623L560.317 200.785V188.557L557.143 186.734V202.623Z" fill="#37474F"/>
<path d="M569.842 206.285L560.317 200.786L557.143 202.624L569.842 209.945V206.285Z" fill="#263238"/>
<path d="M609.321 203.079V187.19L596.622 179.868V195.757L609.321 203.079Z" fill="#E0E0E0"/>
<path d="M596.622 195.757L599.797 193.919V181.691L596.622 179.868V195.757Z" fill="#37474F"/>
<path d="M609.321 199.418L599.797 193.919L596.622 195.757L609.321 203.079V199.418Z" fill="#263238"/>
<path d="M589.574 191.489V175.6L576.89 168.263V184.167L589.574 191.489Z" fill="#E0E0E0"/>
<path d="M576.89 184.167L580.05 182.329V170.101L576.89 168.263V184.167Z" fill="#37474F"/>
<path d="M589.574 187.828L580.05 182.329L576.89 184.167L589.574 191.489V187.828Z" fill="#263238"/>
<path d="M569.842 179.899V164.01L557.143 156.673V172.562L569.842 179.899Z" fill="#E0E0E0"/>
<path d="M557.143 172.562L560.317 170.739V158.511L557.143 156.673V172.562Z" fill="#37474F"/>
<path d="M569.842 176.237L560.317 170.739L557.143 172.561L569.842 179.898V176.237Z" fill="#263238"/>
<path d="M609.321 173.291V157.387L596.622 150.065V165.954L609.321 173.291Z" fill="#E0E0E0"/>
<path d="M596.622 165.954L599.797 164.116V151.903L596.622 150.065V165.954Z" fill="#37474F"/>
<path d="M609.321 169.615L599.797 164.116L596.622 165.954L609.321 173.291V169.615Z" fill="#263238"/>
<path d="M589.574 161.564V145.675L576.89 138.338V154.227L589.574 161.564Z" fill="#E0E0E0"/>
<path d="M576.89 154.227L580.05 152.404V140.176L576.89 138.338V154.227Z" fill="#37474F"/>
<path d="M589.574 157.903L580.05 152.404L576.89 154.227L589.574 161.564V157.903Z" fill="#263238"/>
<path d="M569.842 149.837V133.948L557.143 126.626V142.515L569.842 149.837Z" fill="#E0E0E0"/>
<path d="M557.143 142.515L560.317 140.677V128.449L557.143 126.626V142.515Z" fill="#37474F"/>
<path d="M569.842 146.176L560.317 140.677L557.143 142.516L569.842 149.837V146.176Z" fill="#263238"/>
<path d="M678.878 99.7547L623.342 67.688L561.639 103.309L617.175 135.376L678.878 99.7547Z" fill="#F0F0F0"/>
<path d="M623.342 67.688V74.8122L567.806 106.879L561.639 103.309L623.342 67.688Z" fill="#263238"/>
<path d="M623.342 67.688L678.878 99.7547L672.695 103.309L623.342 74.8122V67.688Z" fill="#455A64"/>
<path d="M516.493 466.418C508.771 469.592 500.108 469.592 492.386 466.418C485.733 463.243 485.733 458.109 492.386 454.934C500.108 451.76 508.771 451.76 516.493 454.934C523.162 458.109 523.162 463.243 516.493 466.418Z" fill="#E0E0E0"/>
<path d="M267.175 455.952C274.902 459.127 283.57 459.127 291.297 455.952C297.95 452.777 297.95 447.643 291.297 444.468C283.57 441.293 274.902 441.293 267.175 444.468C260.552 447.643 260.552 452.777 267.175 455.952Z" fill="#E0E0E0"/>
<path d="M408.156 454.099L555.836 368.836C556.828 368.309 557.657 367.523 558.236 366.561C558.814 365.599 559.12 364.497 559.12 363.375C559.12 362.252 558.814 361.151 558.236 360.189C557.657 359.226 556.828 358.44 555.836 357.914L408.141 272.651C407.122 272.134 405.995 271.865 404.852 271.865C403.709 271.865 402.583 272.134 401.563 272.651L253.883 357.853C252.892 358.379 252.062 359.166 251.484 360.128C250.905 361.09 250.599 362.191 250.599 363.314C250.599 364.437 250.905 365.538 251.484 366.5C252.062 367.462 252.892 368.249 253.883 368.775L401.579 454.038C402.593 454.564 403.717 454.843 404.86 454.854C406.003 454.865 407.132 454.606 408.156 454.099Z" fill="#7D97F4"/>
<path d="M408.156 454.099L555.836 368.836C556.828 368.309 557.657 367.523 558.236 366.561C558.814 365.599 559.12 364.497 559.12 363.375C559.12 362.252 558.814 361.151 558.236 360.189C557.657 359.226 556.828 358.44 555.836 357.914L408.141 272.651C407.122 272.134 405.995 271.865 404.852 271.865C403.709 271.865 402.583 272.134 401.563 272.651L253.883 357.853C252.892 358.379 252.062 359.166 251.484 360.128C250.905 361.09 250.599 362.191 250.599 363.314C250.599 364.437 250.905 365.538 251.484 366.5C252.062 367.462 252.892 368.249 253.883 368.775L401.579 454.038C402.593 454.564 403.717 454.843 404.86 454.854C406.003 454.865 407.132 454.606 408.156 454.099Z" fill="#7D97F4"/>
<path d="M408.156 454.099L555.836 368.836C556.828 368.309 557.657 367.523 558.236 366.561C558.814 365.599 559.12 364.497 559.12 363.375C559.12 362.252 558.814 361.151 558.236 360.189C557.657 359.226 556.828 358.44 555.836 357.914L408.141 272.651C407.122 272.134 405.995 271.865 404.852 271.865C403.709 271.865 402.583 272.134 401.563 272.651L253.883 357.853C252.892 358.379 252.062 359.166 251.484 360.128C250.905 361.09 250.599 362.191 250.599 363.314C250.599 364.437 250.905 365.538 251.484 366.5C252.062 367.462 252.892 368.249 253.883 368.775L401.579 454.038C402.593 454.564 403.717 454.843 404.86 454.854C406.003 454.865 407.132 454.606 408.156 454.099Z" fill="#7D97F4"/>
<path opacity="0.2" d="M408.156 454.099L555.836 368.836C556.828 368.309 557.657 367.523 558.236 366.561C558.814 365.599 559.12 364.497 559.12 363.375C559.12 362.252 558.814 361.151 558.236 360.189C557.657 359.226 556.828 358.44 555.836 357.914L408.141 272.651C407.122 272.134 405.995 271.865 404.852 271.865C403.709 271.865 402.583 272.134 401.563 272.651L253.883 357.853C252.892 358.379 252.062 359.166 251.484 360.128C250.905 361.09 250.599 362.191 250.599 363.314C250.599 364.437 250.905 365.538 251.484 366.5C252.062 367.462 252.892 368.249 253.883 368.775L401.579 454.038C402.593 454.564 403.717 454.843 404.86 454.854C406.003 454.865 407.132 454.606 408.156 454.099Z" fill="black"/>
<path d="M253.884 361.711L401.579 446.975C402.598 447.491 403.725 447.76 404.867 447.76C406.01 447.76 407.137 447.491 408.156 446.975L555.836 361.711C556.233 361.577 556.578 361.321 556.822 360.981C557.066 360.64 557.197 360.232 557.197 359.813C557.197 359.394 557.066 358.985 556.822 358.645C556.578 358.304 556.233 358.048 555.836 357.914L408.141 272.651C407.122 272.134 405.995 271.865 404.852 271.865C403.71 271.865 402.583 272.134 401.564 272.651L253.884 357.853C253.464 357.972 253.094 358.225 252.831 358.573C252.567 358.921 252.425 359.346 252.425 359.782C252.425 360.219 252.567 360.643 252.831 360.991C253.094 361.34 253.464 361.592 253.884 361.711Z" fill="#7D97F4"/>
<path d="M429.544 416.807L534.433 356.243V103.309L429.544 163.873V416.807Z" fill="#37474F"/>
<path d="M404.86 434.625V178.122L275.287 103.309V359.813L404.86 434.625Z" fill="#455A64"/>
<path d="M404.86 327.746L275.287 252.934V245.809L262.937 252.934L404.86 334.87V327.746Z" fill="#7D97F4"/>
<path opacity="0.5" d="M404.86 327.746L275.287 252.934V245.809L262.937 252.934L404.86 334.87V327.746Z" fill="white"/>
<path d="M262.937 252.934L404.86 334.87V341.994L262.937 260.058V252.934Z" fill="#7D97F4"/>
<path d="M404.86 327.746L429.544 313.497L435.711 317.067L404.86 334.87V327.746Z" fill="#7D97F4"/>
<path opacity="0.5" d="M404.86 327.746L429.544 313.497L435.711 317.067L404.86 334.87V327.746Z" fill="white"/>
<path d="M404.86 341.994L435.711 324.191V317.067L404.86 334.87V341.994Z" fill="#7D97F4"/>
<path opacity="0.2" d="M404.86 341.994L435.711 324.191V317.067L404.86 334.87V341.994Z" fill="black"/>
<path d="M404.86 178.122L429.544 163.873V313.497L404.86 327.746V178.122Z" fill="#263238"/>
<path d="M404.86 341.994L429.544 327.746V420.376L404.86 434.625V341.994Z" fill="#263238"/>
<path d="M392.525 306.373V270.752L367.841 256.503V292.124L392.525 306.373Z" fill="#7D97F4"/>
<path opacity="0.5" d="M392.525 306.373V270.752L367.841 256.503V292.124L392.525 306.373Z" fill="white"/>
<path d="M367.841 292.124L374.008 288.57V260.058L367.841 256.503V292.124Z" fill="#263238"/>
<path d="M392.525 299.249L374.008 288.57L367.841 292.124L392.525 306.373V299.249Z" fill="#263238"/>
<path d="M355.491 285.001V249.379L324.64 231.561V267.182L355.491 285.001Z" fill="#7D97F4"/>
<path opacity="0.5" d="M355.491 285.001V249.379L324.64 231.561V267.182L355.491 285.001Z" fill="white"/>
<path d="M330.807 263.628L330.822 235.131L324.64 231.561V267.182L330.807 263.628Z" fill="#263238"/>
<path d="M355.491 277.876V285L324.64 267.182L330.807 263.627L355.491 277.876Z" fill="#263238"/>
<path d="M444.962 382.963V347.341L475.814 329.538V365.16L444.962 382.963Z" fill="#7D97F4"/>
<path d="M469.646 361.59V333.093L475.814 329.538V365.16L469.646 361.59Z" fill="#263238"/>
<path d="M444.962 375.838V382.963L475.814 365.16L469.646 361.59L444.962 375.838Z" fill="#263238"/>
<path d="M444.962 323.599V287.978L475.814 270.159V305.781L444.962 323.599Z" fill="#7D97F4"/>
<path d="M469.646 302.226V273.714L475.814 270.159V305.781L469.646 302.226Z" fill="#263238"/>
<path d="M444.962 316.475V323.599L475.814 305.781L469.646 302.226L444.962 316.475Z" fill="#263238"/>
<path d="M444.962 264.22V228.599L475.814 210.781V246.402L444.962 264.22Z" fill="#7D97F4"/>
<path d="M469.646 242.847V214.35L475.814 210.781V246.402L469.646 242.847Z" fill="#263238"/>
<path d="M444.962 257.096V264.22L475.814 246.402L469.646 242.847L444.962 257.096Z" fill="#263238"/>
<path d="M444.962 204.841V169.22L475.814 151.402V187.038L444.962 204.841Z" fill="#7D97F4"/>
<path d="M469.646 183.468V154.971L475.814 151.402V187.038L469.646 183.468Z" fill="#263238"/>
<path d="M444.962 197.717V204.841L475.814 187.038L469.646 183.468L444.962 197.717Z" fill="#263238"/>
<path d="M488.832 357.64V322.019L519.698 304.216L519.683 339.837L488.832 357.64Z" fill="#7D97F4"/>
<path d="M513.516 336.267V307.77L519.699 304.216L519.683 339.837L513.516 336.267Z" fill="#263238"/>
<path d="M488.832 350.531V357.64L519.683 339.837L513.516 336.268L488.832 350.531Z" fill="#263238"/>
<path d="M488.832 298.277V262.64L519.698 244.837L519.683 280.459L488.832 298.277Z" fill="#7D97F4"/>
<path d="M513.516 276.904V248.392L519.699 244.837L519.683 280.459L513.516 276.904Z" fill="#263238"/>
<path d="M488.832 291.152V298.277L519.683 280.458L513.516 276.904L488.832 291.152Z" fill="#263238"/>
<path d="M488.832 238.898V203.276L519.698 185.458L519.683 221.095L488.832 238.898Z" fill="#7D97F4"/>
<path d="M513.516 217.525V189.028L519.699 185.458L519.683 221.095L513.516 217.525Z" fill="#263238"/>
<path d="M488.832 231.773V238.898L519.683 221.095L513.516 217.525L488.832 231.773Z" fill="#263238"/>
<path d="M488.832 179.519V143.897L519.698 126.094L519.683 161.715L488.832 179.519Z" fill="#7D97F4"/>
<path d="M513.516 158.146V129.649L519.699 126.094L519.683 161.716L513.516 158.146Z" fill="#263238"/>
<path d="M488.832 172.395V179.519L519.683 161.716L513.516 158.146L488.832 172.395Z" fill="#263238"/>
<path d="M312.306 260.058V224.437L287.621 210.188V245.809L312.306 260.058Z" fill="#7D97F4"/>
<path opacity="0.5" d="M312.306 260.058V224.437L287.621 210.188V245.809L312.306 260.058Z" fill="white"/>
<path d="M293.789 242.255L287.621 245.809V210.188L293.789 213.758V242.255Z" fill="#263238"/>
<path d="M312.306 252.934L293.789 242.255L287.621 245.809L312.306 260.058V252.934Z" fill="#263238"/>
<path d="M324.64 328.095C324.64 318.039 331.551 313.862 340.073 318.784C348.595 323.705 355.491 335.842 355.491 345.914V406.128L324.64 388.31V328.095Z" fill="#263238"/>
<path d="M355.492 345.913C355.492 335.842 348.595 323.69 340.073 318.783C337.904 317.409 335.381 316.696 332.812 316.733C331.403 319.086 330.711 321.8 330.822 324.541V384.755L355.492 399.003V345.913Z" fill="#455A64"/>
<path d="M355.492 345.913C355.492 335.842 348.595 323.69 340.073 318.783C337.904 317.409 335.381 316.696 332.812 316.733C331.403 319.086 330.711 321.8 330.822 324.541V384.755L355.492 399.003V345.913Z" fill="#7D97F4"/>
<path opacity="0.5" d="M355.492 345.913C355.492 335.842 348.595 323.69 340.073 318.783C337.904 317.409 335.381 316.696 332.812 316.733C331.403 319.086 330.711 321.8 330.822 324.541V384.755L355.492 399.003V345.913Z" fill="white"/>
<path d="M344.524 322.14C343.577 321.247 342.561 320.429 341.486 319.695V335.705L330.853 329.538V333.229L341.486 339.412V385.575L344.524 387.322V341.144L355.491 347.478V345.959C355.491 345.23 355.491 344.44 355.385 343.756L344.524 337.498V322.14Z" fill="#455A64"/>
<path d="M404.86 178.122V156.749L269.104 78.3821V99.7548L404.86 178.122Z" fill="#7D97F4"/>
<path opacity="0.5" d="M404.86 178.122V156.749L269.104 78.3821V99.7548L404.86 178.122Z" fill="white"/>
<path d="M404.86 178.122V156.749L540.615 78.3821V99.7548L404.86 178.122Z" fill="#7D97F4"/>
<path opacity="0.2" d="M404.86 178.122V156.749L540.615 78.3821V99.7548L404.86 178.122Z" fill="black"/>
<path d="M287.621 139.872C287.621 131.487 293.151 127.872 299.956 131.806C306.761 135.741 312.306 145.736 312.306 154.121V210.188L287.621 195.94V139.872Z" fill="#263238"/>
<path d="M299.956 131.791C298.488 130.911 296.833 130.391 295.125 130.272C294.186 132.156 293.726 134.244 293.788 136.348V192.415L312.305 203.049V154.106C312.305 145.721 306.776 135.725 299.956 131.791Z" fill="#7D97F4"/>
<path opacity="0.5" d="M299.956 131.791C298.488 130.911 296.833 130.391 295.125 130.272C294.186 132.156 293.726 134.244 293.788 136.348V192.415L312.305 203.049V154.106C312.305 145.721 306.776 135.725 299.956 131.791Z" fill="white"/>
<path d="M287.621 195.94L293.789 192.37L312.306 203.049V210.188L287.621 195.94Z" fill="#263238"/>
<path d="M324.64 164.283C324.64 154.212 331.551 150.05 340.073 154.972C348.595 159.893 355.491 172.03 355.491 182.101V235.131L324.64 217.313V164.283Z" fill="#263238"/>
<path d="M355.492 182.101C355.492 172.03 348.595 159.878 340.073 154.971C337.904 153.597 335.381 152.884 332.812 152.921C331.403 155.274 330.711 157.987 330.822 160.728V213.742L355.492 228.006V182.101Z" fill="#7D97F4"/>
<path opacity="0.5" d="M355.492 182.101C355.492 172.03 348.595 159.878 340.073 154.971C337.904 153.597 335.381 152.884 332.812 152.921C331.403 155.274 330.711 157.987 330.822 160.728V213.742L355.492 228.006V182.101Z" fill="white"/>
<path d="M330.822 213.743L324.64 217.312L355.491 235.131V228.006L330.822 213.743Z" fill="#263238"/>
<path d="M367.841 186.203C367.841 177.818 373.355 174.202 380.176 178.137C386.996 182.071 392.525 192.066 392.525 200.451V256.519L367.841 242.27V186.203Z" fill="#263238"/>
<path d="M380.176 178.121C378.707 177.244 377.052 176.723 375.345 176.602C374.403 178.486 373.944 180.574 374.008 182.678V238.746L392.525 249.379V200.436C392.525 192.051 386.996 182.056 380.176 178.121Z" fill="#7D97F4"/>
<path opacity="0.5" d="M380.176 178.121C378.707 177.244 377.052 176.723 375.345 176.602C374.403 178.486 373.944 180.574 374.008 182.678V238.746L392.525 249.379V200.436C392.525 192.051 386.996 182.056 380.176 178.121Z" fill="white"/>
<path d="M374.008 238.686L367.841 242.255L392.525 256.504V249.38L374.008 238.686Z" fill="#263238"/>
<path d="M367.841 350C367.841 341.615 373.355 337.999 380.176 341.934C386.996 345.868 392.525 355.863 392.525 364.248V427.501L367.841 413.252V350Z" fill="#263238"/>
<path d="M380.176 341.934C378.707 341.056 377.052 340.535 375.345 340.415C374.406 342.299 373.946 344.386 374.008 346.491V409.728L392.525 420.361V364.157C392.525 355.863 386.996 345.868 380.176 341.934Z" fill="#7D97F4"/>
<path opacity="0.5" d="M380.176 341.934C378.707 341.056 377.052 340.535 375.345 340.415C374.406 342.299 373.946 344.386 374.008 346.491V409.728L392.525 420.361V364.157C392.525 355.863 386.996 345.868 380.176 341.934Z" fill="white"/>
<path d="M367.841 413.252V391.879L392.525 406.128V427.5L367.841 413.252Z" fill="#37474F"/>
<path d="M367.841 391.879L374.008 388.31L392.51 399.004L392.525 406.128L367.841 391.879Z" fill="#263238"/>
<path d="M287.621 303.684C287.621 295.299 293.151 291.684 299.956 295.618C306.761 299.553 312.306 309.548 312.306 317.933V381.185L287.621 366.967V303.684Z" fill="#263238"/>
<path d="M299.956 295.573C298.485 294.7 296.831 294.18 295.125 294.054C294.186 295.938 293.726 298.025 293.788 300.13V363.382L312.305 374.015V317.811C312.305 309.533 306.776 299.537 299.956 295.573Z" fill="#7D97F4"/>
<path opacity="0.5" d="M299.956 295.573C298.485 294.7 296.831 294.18 295.125 294.054C294.186 295.938 293.726 298.025 293.788 300.13V363.382L312.305 374.015V317.811C312.305 309.533 306.776 299.537 299.956 295.573Z" fill="white"/>
<path d="M312.306 381.185V359.812L287.621 345.564V366.937L312.306 381.185Z" fill="#37474F"/>
<path d="M287.621 345.564L293.789 341.994L312.306 352.688V359.813L287.621 345.564Z" fill="#263238"/>
<path d="M324.64 388.31V381.185L355.491 399.004V406.128L324.64 388.31Z" fill="#37474F"/>
<path d="M324.64 381.185L330.822 377.631L355.491 391.879V399.004L324.64 381.185Z" fill="#263238"/>
<path d="M404.86 156.749L540.616 78.3819L404.86 0L269.104 78.3819L404.86 156.749Z" fill="#7D97F4"/>
<path opacity="0.7" d="M404.86 156.749L540.616 78.3819L404.86 0L269.104 78.3819L404.86 156.749Z" fill="white"/>
<path d="M404.86 142.5L515.931 78.382L404.86 14.2485L293.788 78.382L404.86 142.5Z" fill="#7D97F4"/>
<path d="M404.86 14.2485V35.6365L312.305 89.0607L293.788 78.382L404.86 14.2485Z" fill="#7D97F4"/>
<path opacity="0.2" d="M404.86 14.2485V35.6365L312.305 89.0607L293.788 78.382L404.86 14.2485Z" fill="black"/>
<path d="M404.86 14.2485L515.931 78.382L497.414 89.0607L404.86 35.6365V14.2485Z" fill="#7D97F4"/>
<path opacity="0.5" d="M404.86 14.2485L515.931 78.382L497.414 89.0607L404.86 35.6365V14.2485Z" fill="white"/>
<path d="M386.343 32.0664L355.491 49.8846L398.693 74.8119L429.544 57.0089L386.343 32.0664Z" fill="#455A64"/>
<path d="M355.491 49.885V71.2578L398.693 96.185V74.8123L355.491 49.885Z" fill="#37474F"/>
<path d="M429.544 57.0088V78.3815L398.693 96.1846V74.8118L429.544 57.0088Z" fill="#263238"/>
<path d="M376.211 44.0214C370.606 47.2569 370.606 52.4976 376.211 55.7331C379.353 57.3289 382.827 58.1606 386.35 58.1606C389.874 58.1606 393.348 57.3289 396.49 55.7331C402.08 52.4976 402.08 47.2569 396.49 44.0214C393.348 42.4257 389.874 41.594 386.35 41.594C382.827 41.594 379.353 42.4257 376.211 44.0214Z" fill="#37474F"/>
<path d="M381.604 47.3633C378.976 48.7456 378.976 51.009 381.604 52.3913C383.091 53.0819 384.711 53.4397 386.351 53.4397C387.99 53.4397 389.61 53.0819 391.098 52.3913C393.71 51.009 393.71 48.7456 391.098 47.3633C389.61 46.6727 387.99 46.3149 386.351 46.3149C384.711 46.3149 383.091 46.6727 381.604 47.3633Z" fill="#263238"/>
<path d="M408.232 76.4224L414.399 79.9769V94.2406" stroke="#455A64" stroke-width="2" stroke-linecap="round" stroke-linejoin="round"/>
<path d="M417.194 71.2573L423.362 74.8118V89.0604" stroke="#455A64" stroke-width="2" stroke-linecap="round" stroke-linejoin="round"/>
<path d="M226.404 285.973V335.068C226.434 335.417 226.556 335.752 226.759 336.038C226.962 336.324 227.239 336.55 227.559 336.693C228.435 337.135 229.403 337.365 230.384 337.365C231.366 337.365 232.333 337.135 233.21 336.693C233.53 336.55 233.806 336.324 234.009 336.038C234.212 335.752 234.335 335.417 234.364 335.068V286.003L226.404 285.973Z" fill="#37474F"/>
<path d="M249.554 300.252C249.554 305.336 247.535 310.212 243.94 313.807C240.344 317.402 235.468 319.422 230.384 319.422C225.3 319.422 220.424 317.402 216.829 313.807C213.234 310.212 211.214 305.336 211.214 300.252C211.214 280.656 219.797 259.238 230.384 259.238C240.972 259.238 249.554 280.383 249.554 300.252Z" fill="#7D97F4"/>
<path d="M249.554 300.251C249.554 299.75 249.554 299.249 249.554 298.732V298.231C249.406 300.32 248.591 302.306 247.23 303.897C243.6 308.454 235.595 313.406 227.331 309.973C213.447 304.155 213.067 287.735 216.151 274.139C212.913 282.47 211.249 291.329 211.245 300.267C211.245 305.351 213.264 310.227 216.859 313.822C220.454 317.417 225.33 319.437 230.415 319.437C235.499 319.437 240.375 317.417 243.97 313.822C247.565 310.227 249.585 305.351 249.585 300.267L249.554 300.251Z" fill="#7D97F4"/>
<path opacity="0.1" d="M249.554 300.251C249.554 299.75 249.554 299.249 249.554 298.732V298.231C249.406 300.32 248.591 302.306 247.23 303.897C243.6 308.454 235.595 313.406 227.331 309.973C213.447 304.155 213.067 287.735 216.151 274.139C212.913 282.47 211.249 291.329 211.245 300.267C211.245 305.351 213.264 310.227 216.859 313.822C220.454 317.417 225.33 319.437 230.415 319.437C235.499 319.437 240.375 317.417 243.97 313.822C247.565 310.227 249.585 305.351 249.585 300.267L249.554 300.251Z" fill="black"/>
<path d="M86.1826 199.874V248.954C86.2141 249.313 86.3424 249.656 86.5537 249.948C86.765 250.239 87.0516 250.468 87.3827 250.61C88.2563 251.051 89.2215 251.282 90.2005 251.282C91.1795 251.282 92.1447 251.051 93.0183 250.61C93.3395 250.466 93.617 250.24 93.8225 249.955C94.0279 249.669 94.154 249.334 94.1879 248.984V199.874H86.1826Z" fill="#37474F"/>
<path d="M109.333 214.199C109.405 216.76 108.963 219.311 108.032 221.699C107.101 224.087 105.701 226.264 103.915 228.101C102.128 229.939 99.9915 231.4 97.6307 232.397C95.2699 233.394 92.733 233.908 90.1702 233.908C87.6073 233.908 85.0704 233.394 82.7096 232.397C80.3488 231.4 78.2119 229.939 76.4254 228.101C74.6388 226.264 73.2389 224.087 72.3083 221.699C71.3778 219.311 70.9355 216.76 71.0076 214.199C71.0076 194.603 79.5901 173.185 90.1626 173.185C100.735 173.185 109.333 194.284 109.333 214.199Z" fill="#7D97F4"/>
<path d="M723.537 199.874V248.954C723.503 249.304 723.377 249.639 723.172 249.924C722.966 250.21 722.689 250.436 722.367 250.579C721.494 251.021 720.529 251.251 719.55 251.251C718.571 251.251 717.605 251.021 716.732 250.579C716.411 250.436 716.133 250.21 715.928 249.924C715.722 249.639 715.596 249.304 715.562 248.954V199.874H723.537Z" fill="#37474F"/>
<path d="M700.387 214.199C700.315 216.76 700.757 219.311 701.688 221.699C702.618 224.087 704.018 226.264 705.805 228.101C707.591 229.939 709.728 231.4 712.089 232.397C714.45 233.394 716.987 233.908 719.55 233.908C722.113 233.908 724.649 233.394 727.01 232.397C729.371 231.4 731.508 229.939 733.294 228.101C735.081 226.264 736.481 224.087 737.412 221.699C738.342 219.311 738.784 216.76 738.712 214.199C738.712 194.603 730.13 173.185 719.557 173.185C708.985 173.185 700.387 194.284 700.387 214.199Z" fill="#7D97F4"/>
<path d="M617.524 338.865H630.846V324.176C630.846 323.301 630.674 322.435 630.338 321.627C630.003 320.818 629.512 320.084 628.892 319.466C628.273 318.848 627.537 318.359 626.728 318.025C625.919 317.692 625.053 317.521 624.178 317.523C622.413 317.523 620.721 318.224 619.473 319.472C618.225 320.719 617.524 322.412 617.524 324.176V338.865Z" fill="#7D97F4"/>
<g opacity="0.5">
<path d="M617.524 338.865H630.846V324.176C630.846 323.301 630.674 322.435 630.338 321.627C630.003 320.818 629.512 320.084 628.892 319.466C628.273 318.848 627.537 318.359 626.728 318.025C625.919 317.692 625.053 317.521 624.178 317.523C622.413 317.523 620.721 318.224 619.473 319.472C618.225 320.719 617.524 322.412 617.524 324.176V338.865Z" fill="black"/>
</g>
<path d="M619.301 343.757C620.198 339.291 621.884 334.369 621.793 332.151L620.486 332.227C619.711 332.279 618.976 332.593 618.402 333.118C617.828 333.642 617.449 334.346 617.327 335.113C616.856 338.015 616.142 342.45 615.808 344.227C615.509 346.498 615.001 348.735 614.289 350.911C614.166 351.225 613.934 351.484 613.635 351.64C612.988 352.023 612.403 352.505 611.904 353.068C611.418 353.494 611.038 353.585 611.084 353.737C611.157 353.905 611.292 354.04 611.462 354.113C611.631 354.186 611.821 354.193 611.995 354.131C612.384 354.011 612.756 353.843 613.104 353.63C612.794 354.299 612.372 354.91 611.858 355.438C610.704 356.653 610.597 357.443 612.739 357.625C614.076 357.732 615.2 356.987 616.43 354.131C616.9 353.082 617.296 352.001 617.615 350.896C618.436 348.055 618.952 345.519 619.301 343.757Z" fill="#FFA8A7"/>
<path d="M639.018 382.158C639.52 381.884 639.854 382.537 640.31 383.054C640.704 383.436 641.015 383.897 641.221 384.406C641.205 384.816 641.102 385.217 640.919 385.584C640.735 385.95 640.476 386.274 640.158 386.533C639.397 386.999 638.851 387.747 638.639 388.614C638.581 389.148 638.374 389.656 638.04 390.077C637.707 390.499 637.262 390.819 636.755 390.998C636.166 391.245 635.533 391.371 634.894 391.371C634.255 391.371 633.623 391.245 633.033 390.998C632.319 390.543 633.033 390.026 633.975 388.598C635.282 386.73 636.299 385.393 636.299 383.646L639.018 382.158Z" fill="#263238"/>
<path d="M637.97 380.547L639.034 382.066C639.261 382.392 639.352 382.794 639.287 383.186C639.221 383.578 639.005 383.928 638.684 384.163C638.36 384.36 637.976 384.436 637.601 384.378C637.226 384.319 636.883 384.13 636.634 383.844L634.963 382.006L637.97 380.547Z" fill="#FFA8A7"/>
<path d="M617.524 352.02C617.679 356.045 618.437 360.023 619.772 363.823C620.575 366.004 621.593 368.101 622.811 370.081C623.251 370.841 635.813 383.069 635.813 383.069C636.414 383.019 636.981 382.774 637.429 382.371C637.876 381.967 638.178 381.428 638.289 380.836C638.289 380.836 633.14 372.086 632.016 370.294C630.547 368.55 628.845 367.016 626.957 365.737L627.322 350.03L617.524 352.02Z" fill="#37474F"/>
<path d="M621.909 388.689L619.258 388.086L618.379 391.952L621.03 392.555L621.909 388.689Z" fill="#FFA8A7"/>
<path d="M619.772 349.833L631.074 350.273C631.843 351.945 632.173 353.785 632.031 355.62C631.651 361.134 626.426 370.993 626.426 370.993C626.67 373.224 626.557 375.48 626.091 377.676C624.903 381.697 623.504 385.652 621.899 389.525C621.386 389.603 620.862 389.568 620.364 389.424C619.866 389.28 619.405 389.029 619.013 388.689C619.013 388.689 620.714 373.575 621.17 369.701C621.671 365.509 622.947 357.853 622.947 357.853C622.101 357.017 621.338 356.102 620.669 355.119C619.483 353.618 618.875 351.743 618.952 349.833" fill="#37474F"/>
<path d="M635.388 346.855C635.005 342.961 634.375 339.095 633.504 335.28C633.401 334.652 633.094 334.075 632.63 333.638C632.166 333.202 631.571 332.93 630.937 332.865C627.246 334.855 627.276 337.498 630.421 340.688C630.421 340.688 631.727 345.822 632.137 348.283C632.567 350.531 632.77 352.816 632.745 355.104C632.726 355.439 632.58 355.755 632.335 355.985C631.831 356.543 631.411 357.173 631.089 357.853C630.755 358.4 630.406 358.597 630.497 358.734C630.615 358.876 630.783 358.967 630.966 358.989C631.15 359.012 631.335 358.964 631.484 358.856C631.821 358.627 632.127 358.357 632.395 358.051C632.291 358.775 632.07 359.478 631.742 360.132C630.983 361.651 631.104 362.425 633.261 361.985C634.568 361.711 635.433 360.663 635.783 357.564C635.937 356.422 636.008 355.269 635.996 354.116C635.752 351.215 635.57 348.648 635.388 346.855Z" fill="#FFA8A7"/>
<path d="M618.663 390.649L618.739 390.269C618.466 390.269 617.22 392.305 616.081 393.171C614.942 394.036 613.666 394.69 613.043 395.085C612.42 395.48 613.392 396.816 615.291 396.923C616.409 396.987 617.521 396.729 618.496 396.178C619.028 395.677 619.408 394.842 619.833 394.477C620.258 394.112 621.109 393.809 621.352 393.338C621.509 392.879 621.561 392.391 621.504 391.91C621.504 391.409 621.504 390.862 621.306 390.877V391.166C620.803 391.416 620.244 391.537 619.681 391.515C619.271 391.5 618.435 391.393 618.663 390.649Z" fill="#263238"/>
<path d="M621.504 367.134C621.504 367.134 622.643 359.099 622.947 357.853C622.04 357.356 621.193 356.754 620.426 356.061C620.952 356.81 621.525 357.525 622.142 358.202L621.504 367.134Z" fill="#263238"/>
<path d="M628.324 366.861C627.779 368.277 627.144 369.657 626.426 370.993C626.426 370.993 626.562 373.575 626.547 374.031L627.261 374.654C627.279 373.486 627.172 372.32 626.942 371.175C627.559 369.792 628.023 368.345 628.324 366.861Z" fill="#263238"/>
<path d="M626.957 332.212C628.294 332.363 629.622 332.581 630.937 332.865C627.261 335.448 630.421 340.688 630.421 340.688L628.461 346.111C629.778 347.838 630.846 349.74 631.636 351.762C630.603 352.947 624.466 356.532 617.464 352.02C617.464 352.02 617.874 348.071 618.451 345.094C617.448 340.263 617.16 338.562 617.464 337.422C618.284 334.232 620.167 332.197 622.324 332.075L626.957 332.212Z" fill="#F5F5F5"/>
<path d="M619.772 320.211C619.074 320.622 618.253 322.399 618.253 326.105C618.329 329.25 619.347 330.024 619.863 330.252C620.673 330.421 621.511 330.395 622.309 330.176V332.029C622.309 332.029 620.988 333.548 621.079 334.445C621.17 335.341 622.993 335.508 624.223 334.673C625.124 333.973 625.9 333.126 626.517 332.166V327.837C626.517 327.837 627.094 328.384 628.036 327.548C628.421 327.273 628.682 326.858 628.765 326.393C628.847 325.927 628.743 325.447 628.476 325.057C628.316 324.907 628.122 324.798 627.911 324.738C627.7 324.678 627.477 324.669 627.262 324.712C627.047 324.755 626.845 324.849 626.673 324.986C626.501 325.122 626.364 325.298 626.274 325.498C625.018 325.448 623.796 325.082 622.719 324.434C621.931 324.011 621.253 323.409 620.741 322.675C620.229 321.941 619.897 321.097 619.772 320.211Z" fill="#FFA8A7"/>
<path d="M621.793 325.315C621.793 325.42 621.834 325.521 621.908 325.595C621.982 325.669 622.083 325.71 622.188 325.71C622.292 325.71 622.393 325.669 622.467 325.595C622.541 325.521 622.582 325.42 622.582 325.315C622.587 325.262 622.58 325.207 622.563 325.156C622.546 325.105 622.519 325.057 622.484 325.016C622.449 324.975 622.406 324.942 622.358 324.918C622.309 324.893 622.257 324.879 622.203 324.875C622.146 324.875 622.09 324.886 622.038 324.909C621.987 324.931 621.94 324.964 621.901 325.006C621.863 325.047 621.833 325.096 621.815 325.149C621.796 325.203 621.788 325.259 621.793 325.315Z" fill="#263238"/>
<path d="M621.686 327.989L620.775 328.278C620.791 328.339 620.819 328.397 620.857 328.448C620.896 328.498 620.944 328.54 621 328.571C621.055 328.603 621.116 328.622 621.179 328.629C621.243 328.636 621.306 328.63 621.367 328.612C621.491 328.57 621.594 328.482 621.653 328.366C621.713 328.249 621.725 328.114 621.686 327.989Z" fill="#F28F8F"/>
<path d="M618.557 324.1L619.347 323.553C619.315 323.5 619.272 323.453 619.22 323.417C619.169 323.381 619.111 323.356 619.05 323.343C618.989 323.33 618.926 323.33 618.864 323.342C618.803 323.355 618.745 323.38 618.694 323.417C618.639 323.452 618.592 323.498 618.556 323.551C618.519 323.605 618.494 323.666 618.481 323.729C618.468 323.793 618.468 323.859 618.481 323.922C618.495 323.986 618.52 324.047 618.557 324.1Z" fill="#263238"/>
<path d="M618.739 325.027C618.735 325.081 618.742 325.135 618.759 325.186C618.776 325.238 618.802 325.285 618.838 325.326C618.873 325.367 618.916 325.401 618.964 325.425C619.013 325.449 619.065 325.464 619.119 325.467C619.225 325.467 619.327 325.426 619.404 325.353C619.48 325.279 619.525 325.179 619.529 325.072C619.529 325.021 619.519 324.969 619.499 324.921C619.479 324.873 619.45 324.83 619.414 324.793C619.377 324.756 619.333 324.727 619.285 324.708C619.238 324.688 619.186 324.677 619.134 324.677C619.082 324.677 619.031 324.688 618.983 324.708C618.935 324.727 618.892 324.756 618.855 324.793C618.818 324.83 618.789 324.873 618.769 324.921C618.75 324.969 618.739 325.021 618.739 325.072V325.027Z" fill="#263238"/>
<path d="M620.608 324.799L620.547 327.184L619.286 326.804L620.608 324.799Z" fill="#F28F8F"/>
<path d="M622.34 330.177C623.357 330.055 625.378 329.447 625.757 328.657C625.628 329.074 625.374 329.44 625.028 329.706C624.186 330.202 623.282 330.585 622.34 330.845V330.177Z" fill="#F28F8F"/>
<path d="M629.509 343.225L626.745 346.977L628.446 346.111L629.509 343.225Z" fill="#E0E0E0"/>
<path d="M496.867 408.361C497.548 404.583 497.742 400.734 497.445 396.907C497.437 396.817 497.402 396.732 497.343 396.664C497.284 396.595 497.204 396.548 497.116 396.527C497.028 396.507 496.936 396.515 496.853 396.551C496.77 396.586 496.701 396.647 496.655 396.725L493.723 402.163C493.723 402.163 493.374 406.143 493.009 408.862C492.742 411.341 492.233 413.788 491.49 416.169C491.359 416.507 491.111 416.787 490.791 416.958C490.087 417.368 489.447 417.88 488.893 418.477C488.376 418.948 487.951 419.04 488.011 419.207C488.089 419.392 488.235 419.54 488.418 419.622C488.601 419.704 488.809 419.713 488.999 419.647C489.421 419.518 489.824 419.334 490.199 419.1C489.865 419.823 489.413 420.485 488.862 421.06C487.601 422.381 487.495 423.232 489.804 423.43C491.247 423.551 492.477 422.746 493.814 419.632C494.327 418.494 494.758 417.322 495.105 416.123C496.002 413.024 496.488 410.26 496.867 408.361Z" fill="#B16668"/>
<path d="M510.584 451.501C510.584 451.501 510.767 451.501 511.329 451.851C511.967 452.249 512.524 452.764 512.969 453.37C513.03 453.81 512.996 454.259 512.87 454.686C512.745 455.113 512.53 455.508 512.24 455.846C511.669 456.705 511.367 457.715 511.374 458.747C511.325 459.412 511.138 460.06 510.824 460.649C510.51 461.237 510.077 461.754 509.551 462.165C508.61 462.818 507.455 463.486 506.924 463.319C506.392 463.152 506.362 462.499 507.03 459.613C507.588 457.71 507.984 455.764 508.215 453.795L510.584 451.501Z" fill="#263238"/>
<path d="M510.174 450.954L510.797 451.79C510.895 451.918 510.964 452.066 510.998 452.223C511.032 452.381 511.031 452.544 510.995 452.701C510.901 453.264 510.611 453.776 510.174 454.144C509.926 454.331 509.619 454.422 509.308 454.403C509.095 454.387 508.887 454.326 508.698 454.223C508.51 454.121 508.345 453.98 508.215 453.81L507.729 453.157L510.174 450.954Z" fill="#B16668"/>
<path d="M495.06 414.938L502.078 421.956H501.88L500.27 434.655C501.543 435.517 502.628 436.628 503.46 437.921C504.797 439.987 510.114 450.954 510.114 450.954C510.114 450.954 509.491 453.4 507.668 453.157C507.668 453.157 504.842 449.633 501.804 445.774C498.478 441.536 494.802 436.949 494.604 436.113C493.586 431.556 495.06 414.938 495.06 414.938Z" fill="#455A64"/>
<path d="M503.597 437.921C504.934 439.987 510.25 450.954 510.25 450.954C510.25 450.954 509.627 453.4 507.805 453.157C507.805 453.157 504.979 449.633 501.941 445.775L503.597 437.921Z" fill="#37474F"/>
<path d="M503.035 458.777C502.249 458.007 501.365 457.343 500.407 456.802C499.941 456.771 499.475 456.771 499.009 456.802C498.59 456.803 498.173 456.757 497.764 456.666C496.925 456.361 496.112 455.991 495.333 455.557C495.002 455.355 494.644 455.202 494.27 455.101C493.617 454.98 493.1 454.964 492.872 455.693C492.802 455.914 492.776 456.146 492.796 456.377C492.788 457.053 492.941 457.721 493.242 458.326C493.543 458.931 493.984 459.455 494.528 459.856C495.029 460.19 495.698 460.448 496.229 460.752C497.039 461.087 497.817 461.494 498.554 461.967C499.647 462.909 500.665 463.835 502.199 463.228C502.504 463.141 502.783 462.979 503.009 462.756C503.234 462.533 503.4 462.256 503.49 461.952C503.703 461.147 502.944 459.628 503.035 458.777Z" fill="#263238"/>
<path d="M495.136 413.844L510.174 415.363C510.584 419.704 510.208 424.083 509.065 428.29C507.85 433.744 506.498 439.47 506.498 439.47C507.147 441.577 507.194 443.824 506.635 445.957C505.465 449.769 503.293 459.901 503.293 459.901C502.601 458.444 501.387 457.299 499.89 456.696C499.89 456.696 500.437 451.364 500.771 447.506C501.106 443.648 501.303 440.427 501.425 438.042C501.622 434.245 502.169 421.895 502.169 421.895H501.971C501.971 421.895 496.062 419.1 495.09 414.877L495.136 413.844Z" fill="#455A64"/>
<path d="M502.078 421.956C500.379 421.168 498.799 420.145 497.384 418.918L501.045 422.336L500.376 433.774L502.078 421.956Z" fill="#37474F"/>
<path d="M500.65 395.236C498.417 395.236 495.743 395.95 494.68 398.001C493.732 400.605 493.094 403.313 492.781 406.067C492.781 406.067 493.617 407.875 496.746 407.662L500.65 395.236Z" fill="#263238"/>
<path d="M515.157 411.718C514.534 405.292 512.21 400.598 511.936 398.988L510.053 406.933C510.677 409.03 511.184 411.16 511.572 413.313C512.034 415.761 512.257 418.249 512.24 420.741C512.212 421.102 512.056 421.442 511.8 421.698C511.242 422.296 510.781 422.978 510.432 423.718C510.068 424.326 509.688 424.523 509.794 424.675C509.922 424.827 510.102 424.926 510.299 424.951C510.496 424.977 510.696 424.927 510.858 424.812C511.226 424.565 511.562 424.274 511.86 423.946C511.757 424.731 511.531 425.494 511.192 426.209C510.372 427.835 510.508 428.701 512.711 428.214C514.139 427.911 515.081 426.787 515.46 423.414C515.62 422.175 515.697 420.927 515.688 419.678C515.597 416.442 515.339 413.647 515.157 411.718Z" fill="#B16668"/>
<path d="M505.222 395.373C507.865 396.011 511.481 396.892 512.529 399.717C513.399 402.452 514.124 405.231 514.701 408.042C514.124 408.6 513.421 409.011 512.652 409.241C511.882 409.471 511.069 409.513 510.28 409.363L509.673 407.221L510.174 415.409C508.108 417.672 499.541 418.25 495.06 414.938C495.06 414.938 495.835 402.786 495.835 400.523C495.791 399.857 495.883 399.189 496.104 398.559C496.324 397.929 496.67 397.35 497.119 396.857C497.569 396.363 498.113 395.965 498.72 395.687C499.326 395.409 499.983 395.255 500.65 395.236L505.222 395.373Z" fill="#37474F"/>
<path d="M509.673 407.221L508.336 403.029L509.794 409.302L509.673 407.221Z" fill="#263238"/>
<path d="M506.21 383.585C506.447 383.559 506.688 383.587 506.914 383.666C507.14 383.745 507.346 383.873 507.516 384.041C508.078 384.618 507.956 385.682 507.516 388.112L505.784 388.31L506.21 383.585Z" fill="#263238"/>
<path d="M496.123 382.886C495.747 382.887 495.374 382.81 495.03 382.659C494.498 382.355 494.361 382.962 494.65 383.479C494.843 383.857 495.13 384.179 495.484 384.413C495.838 384.647 496.247 384.786 496.67 384.816L497.156 383.464L496.123 382.886Z" fill="#263238"/>
<path d="M505.404 388.309C505.663 388.461 506.027 387.975 506.346 387.641C506.47 387.497 506.629 387.387 506.807 387.322C506.986 387.256 507.178 387.238 507.366 387.269C507.553 387.299 507.73 387.377 507.879 387.496C508.027 387.614 508.143 387.769 508.215 387.945C508.731 389.054 507.531 390.527 506.832 390.983C506.638 391.152 506.395 391.255 506.138 391.277C505.882 391.298 505.625 391.238 505.404 391.105L505.222 395.343C504.908 396.02 504.432 396.61 503.836 397.06C503.24 397.511 502.542 397.808 501.804 397.925C499.313 398.274 499.83 396.224 500.65 395.206V393.687C500.031 393.821 499.395 393.852 498.766 393.778C498.045 393.255 497.487 392.539 497.156 391.712C496.093 389.611 495.86 387.187 496.503 384.922C497.384 381.124 501.47 381.003 503.901 382.537C506.331 384.071 505.404 388.309 505.404 388.309Z" fill="#B16668"/>
<path d="M505.405 388.75C505.526 388.75 506.012 387.93 506.346 387.641C506.68 387.352 506.21 383.585 506.21 383.585C506.334 383.195 506.36 382.78 506.286 382.378C506.212 381.975 506.039 381.597 505.784 381.276C504.903 380.365 503.217 380.517 501.971 380.471C500.448 380.482 498.939 380.182 497.536 379.59C495.774 378.816 495.637 378.724 495.424 379.499C495.252 380.137 495.229 380.807 495.358 381.455C495.487 382.103 495.765 382.713 496.169 383.236L496.746 384.178C497.405 384.57 498.152 384.789 498.918 384.816C500.545 384.804 502.162 384.559 503.718 384.087C504.189 384.087 504.296 384.482 504.554 385.758C504.812 387.034 504.964 388.735 505.405 388.75Z" fill="#263238"/>
<path d="M506.209 383.874L507.728 383.038C507.68 382.934 507.611 382.84 507.525 382.763C507.439 382.685 507.338 382.627 507.229 382.59C507.119 382.553 507.003 382.538 506.888 382.548C506.773 382.557 506.661 382.59 506.559 382.644C506.354 382.764 506.203 382.96 506.138 383.189C506.073 383.418 506.098 383.663 506.209 383.874Z" fill="#263238"/>
<path d="M500.65 393.702C501.713 393.497 502.755 393.197 503.764 392.806C504.235 392.562 504.622 392.18 504.873 391.712C504.752 392.179 504.541 392.618 504.25 393.003C503.657 393.763 500.65 394.31 500.65 394.31V393.702Z" fill="#9A4A4D"/>
<path d="M500.559 388.234C500.559 388.359 500.608 388.478 500.697 388.567C500.785 388.655 500.905 388.705 501.03 388.705C501.142 388.684 501.244 388.626 501.317 388.538C501.39 388.451 501.43 388.34 501.43 388.226C501.43 388.112 501.39 388.002 501.317 387.914C501.244 387.827 501.142 387.768 501.03 387.748C500.967 387.748 500.904 387.76 500.846 387.785C500.788 387.809 500.735 387.845 500.691 387.891C500.647 387.936 500.613 387.99 500.59 388.049C500.567 388.108 500.557 388.171 500.559 388.234Z" fill="#263238"/>
<path d="M501.075 386.487L502.063 387.034C502.129 386.896 502.141 386.737 502.096 386.591C502.051 386.445 501.952 386.32 501.82 386.244C501.755 386.208 501.685 386.185 501.611 386.178C501.538 386.171 501.464 386.179 501.394 386.202C501.324 386.225 501.26 386.262 501.205 386.311C501.15 386.36 501.106 386.42 501.075 386.487Z" fill="#263238"/>
<path d="M500.863 391.271L499.799 391.666C499.851 391.809 499.956 391.925 500.092 391.99C500.229 392.055 500.385 392.065 500.528 392.016C500.669 391.958 500.782 391.849 500.844 391.71C500.906 391.572 500.913 391.415 500.863 391.271Z" fill="#9A4A4D"/>
<path d="M496.457 386.867L497.369 386.183C497.327 386.121 497.272 386.068 497.209 386.029C497.145 385.989 497.074 385.962 497 385.951C496.926 385.939 496.851 385.943 496.778 385.962C496.706 385.981 496.638 386.015 496.579 386.061C496.46 386.155 496.38 386.29 496.358 386.44C496.335 386.59 496.371 386.742 496.457 386.867Z" fill="#263238"/>
<path d="M496.746 388.097C496.746 388.218 496.794 388.334 496.879 388.419C496.965 388.505 497.081 388.553 497.202 388.553C497.323 388.553 497.438 388.505 497.524 388.419C497.609 388.334 497.657 388.218 497.657 388.097C497.659 388.035 497.649 387.973 497.627 387.916C497.606 387.858 497.573 387.805 497.53 387.759C497.488 387.714 497.437 387.678 497.381 387.652C497.324 387.627 497.264 387.613 497.202 387.611C497.14 387.613 497.079 387.627 497.023 387.652C496.966 387.678 496.915 387.714 496.873 387.759C496.831 387.805 496.798 387.858 496.776 387.916C496.754 387.973 496.744 388.035 496.746 388.097Z" fill="#263238"/>
<path d="M498.918 388.036L499.343 390.785L497.824 390.603L498.918 388.036Z" fill="#9A4A4D"/>
<path d="M281.5 383.054C279.582 383.054 277.743 382.292 276.387 380.936C275.031 379.58 274.269 377.741 274.269 375.823V375.519C274.269 373.908 274.909 372.362 276.049 371.223C277.188 370.083 278.734 369.443 280.345 369.443H282.548C284.159 369.443 285.705 370.083 286.844 371.223C287.984 372.362 288.624 373.908 288.624 375.519V375.823C288.624 377.722 287.877 379.546 286.544 380.899C285.211 382.252 283.399 383.026 281.5 383.054Z" fill="#263238"/>
<path d="M286.862 397.879C285.905 393.034 284.067 387.686 284.158 385.271L285.571 385.362C286.415 385.417 287.215 385.756 287.842 386.324C288.468 386.893 288.883 387.657 289.019 388.492C289.52 391.651 290.295 396.467 290.538 398.441C290.854 400.907 291.398 403.337 292.163 405.702C292.294 406.042 292.549 406.319 292.877 406.477C293.57 406.896 294.204 407.407 294.761 407.996C295.277 408.467 295.702 408.558 295.642 408.725C295.564 408.91 295.419 409.059 295.235 409.141C295.052 409.223 294.844 409.231 294.654 409.166C294.235 409.029 293.832 408.846 293.454 408.619C293.788 409.342 294.24 410.004 294.791 410.578C296.052 411.9 296.158 412.75 293.849 412.948C292.33 413.069 291.176 412.264 289.839 409.15C289.326 408.013 288.895 406.84 288.548 405.641C287.803 402.543 287.241 399.793 286.862 397.879Z" fill="#B16668"/>
<path d="M283.565 385.195C284.903 385.067 286.252 385.281 287.485 385.818C287.983 386.107 288.401 386.518 288.699 387.012C288.996 387.506 289.164 388.067 289.186 388.644C289.474 390.072 289.945 393.824 289.945 393.824C289.945 393.824 289.155 395.555 285.647 394.841L283.565 385.195Z" fill="#263238"/>
<path d="M273.555 441.035C273.555 441.035 273.373 441.035 272.811 441.384C272.173 441.782 271.616 442.298 271.17 442.903C271.111 443.344 271.145 443.793 271.27 444.219C271.396 444.646 271.61 445.041 271.899 445.379C272.47 446.239 272.772 447.249 272.765 448.281C272.814 448.946 273.001 449.594 273.315 450.182C273.629 450.771 274.063 451.287 274.588 451.698C275.53 452.352 276.699 453.02 277.216 452.853C277.732 452.686 277.778 452.033 277.11 449.147C276.552 447.244 276.155 445.298 275.925 443.329L273.555 441.035Z" fill="#263238"/>
<path d="M273.965 440.488L273.342 441.324C273.244 441.452 273.176 441.6 273.142 441.757C273.108 441.915 273.109 442.078 273.145 442.235C273.238 442.798 273.529 443.31 273.965 443.678C274.214 443.864 274.521 443.956 274.831 443.936C275.045 443.92 275.253 443.859 275.441 443.757C275.63 443.655 275.795 443.514 275.925 443.344L276.411 442.691L273.965 440.488Z" fill="#B16668"/>
<path d="M288.73 404.715L285.1 406.082L282.062 411.49H282.259L283.869 424.189C282.596 425.051 281.511 426.162 280.679 427.455C279.342 429.521 274.026 440.488 274.026 440.488C274.026 440.488 274.649 442.934 276.472 442.691C276.472 442.691 279.297 439.166 282.335 435.308C284.926 432.235 287.33 429.008 289.535 425.647C290.933 420.725 288.73 404.715 288.73 404.715Z" fill="#7D97F4"/>
<path d="M280.619 427.455C279.282 429.521 273.965 440.488 273.965 440.488C273.965 440.488 274.588 442.934 276.411 442.691C276.411 442.691 279.236 439.167 282.274 435.308L280.619 427.455Z" fill="#7D97F4"/>
<path opacity="0.2" d="M280.619 427.455C279.282 429.521 273.965 440.488 273.965 440.488C273.965 440.488 274.588 442.934 276.411 442.691C276.411 442.691 279.236 439.167 282.274 435.308L280.619 427.455Z" fill="black"/>
<path d="M281.059 448.357C281.933 447.696 282.894 447.159 283.915 446.762C284.383 446.773 284.85 446.813 285.312 446.883C285.726 446.929 286.144 446.929 286.558 446.883C287.433 446.694 288.292 446.435 289.125 446.109C289.481 445.947 289.861 445.845 290.249 445.805C290.902 445.805 291.419 445.805 291.556 446.564C291.594 446.796 291.594 447.032 291.556 447.263C291.483 447.936 291.251 448.582 290.878 449.148C290.506 449.713 290.004 450.181 289.414 450.514C288.882 450.772 288.183 450.954 287.621 451.167C286.771 451.392 285.943 451.692 285.145 452.063C283.945 452.838 282.806 453.582 281.378 452.823C281.086 452.7 280.83 452.505 280.636 452.254C280.442 452.004 280.315 451.708 280.269 451.395C280.072 450.514 281.044 449.162 281.059 448.357Z" fill="#263238"/>
<path d="M288.29 404.046L274.223 404.943C273.221 408.148 273.236 411.019 274.345 417.247C275.145 421.257 276.242 425.202 277.626 429.05C276.985 431.165 276.953 433.418 277.535 435.551C278.689 439.364 280.892 449.01 280.892 449.01C281.915 448.057 283.104 447.3 284.401 446.777C284.401 446.777 283.717 440.959 283.383 437.1C283.049 433.242 282.851 430.022 282.73 427.637C282.532 423.839 281.986 411.49 281.986 411.49H282.183C282.183 411.49 287.333 409.606 288.259 405.414L288.29 404.046Z" fill="#7D97F4"/>
<path opacity="0.2" d="M282.001 411.49C283.698 410.698 285.278 409.676 286.695 408.452L283.049 411.87L283.702 423.308L282.001 411.49Z" fill="black"/>
<path d="M269.393 401.236C269.916 396.955 270.697 392.709 271.732 388.522C271.844 387.903 272.145 387.333 272.594 386.892C273.043 386.452 273.617 386.161 274.239 386.061C278.234 388.218 278.203 391.089 274.801 394.537C274.801 394.537 273.373 400.127 272.932 402.846C272.469 405.295 272.245 407.783 272.264 410.274C272.292 410.636 272.448 410.975 272.704 411.231C273.262 411.83 273.723 412.511 274.071 413.252C274.436 413.859 274.816 414.057 274.709 414.209C274.582 414.361 274.402 414.46 274.205 414.485C274.007 414.51 273.808 414.46 273.646 414.345C273.278 414.098 272.942 413.807 272.644 413.48C272.763 414.261 273.004 415.02 273.358 415.728C274.178 417.353 274.041 418.204 271.838 417.733C270.411 417.429 269.469 416.305 269.089 412.933C268.929 411.694 268.853 410.445 268.861 409.196C268.952 405.975 269.211 403.18 269.393 401.236Z" fill="#B16668"/>
<path d="M278.553 385.347L274.239 386.061C278.234 388.871 274.801 394.537 274.801 394.537L276.927 400.446C275.872 401.866 274.971 403.393 274.239 405.003C275.545 406.143 283.353 408.831 288.73 404.775C288.73 404.775 288.426 402.634 287.788 399.398C288.882 394.142 289.186 392.289 288.867 391.059C287.971 387.595 285.92 385.393 283.581 385.256L278.553 385.347Z" fill="#455A64"/>
<path d="M286.376 372.314C287.135 372.77 288.077 374.684 287.986 378.709C287.91 382.127 286.801 382.978 286.239 383.266C285.359 383.443 284.449 383.417 283.581 383.19V385.195C283.581 385.195 285.008 386.866 284.917 387.808C284.826 388.75 282.851 388.978 281.5 388.051C280.521 387.299 279.678 386.384 279.008 385.347V380.638C279.008 380.638 278.401 381.231 277.353 380.334C276.936 380.035 276.653 379.584 276.565 379.079C276.477 378.573 276.59 378.053 276.882 377.631C277.057 377.476 277.266 377.364 277.491 377.303C277.717 377.242 277.954 377.234 278.183 377.279C278.412 377.325 278.628 377.423 278.813 377.565C278.999 377.708 279.149 377.891 279.251 378.101C280.619 378.046 281.95 377.649 283.125 376.947C283.994 376.486 284.742 375.826 285.307 375.021C285.872 374.216 286.238 373.288 286.376 372.314Z" fill="#B16668"/>
<path d="M284.158 377.858C284.158 377.941 284.133 378.022 284.088 378.091C284.042 378.16 283.978 378.215 283.902 378.248C283.826 378.281 283.742 378.291 283.66 378.276C283.579 378.262 283.503 378.225 283.442 378.168C283.382 378.112 283.339 378.039 283.32 377.958C283.3 377.878 283.304 377.794 283.332 377.716C283.359 377.638 283.409 377.569 283.475 377.519C283.541 377.469 283.62 377.439 283.702 377.433C283.76 377.431 283.818 377.44 283.872 377.461C283.926 377.481 283.976 377.512 284.018 377.551C284.061 377.591 284.095 377.638 284.119 377.691C284.143 377.744 284.156 377.801 284.158 377.858Z" fill="#263238"/>
<path d="M284.279 380.76L285.267 381.064C285.249 381.132 285.218 381.195 285.176 381.25C285.133 381.306 285.079 381.352 285.018 381.386C284.957 381.42 284.89 381.442 284.82 381.449C284.751 381.456 284.68 381.449 284.613 381.428C284.481 381.383 284.372 381.288 284.309 381.163C284.247 381.038 284.236 380.893 284.279 380.76Z" fill="#9A4A4D"/>
<path d="M287.682 376.537L286.816 375.945C286.85 375.885 286.896 375.832 286.952 375.791C287.007 375.75 287.071 375.722 287.139 375.707C287.206 375.693 287.276 375.693 287.344 375.708C287.411 375.723 287.475 375.752 287.53 375.793C287.647 375.873 287.728 375.995 287.756 376.134C287.785 376.273 287.758 376.418 287.682 376.537Z" fill="#263238"/>
<path d="M287.485 377.6C287.496 377.664 287.494 377.729 287.478 377.792C287.462 377.855 287.432 377.913 287.391 377.963C287.349 378.013 287.298 378.053 287.239 378.08C287.18 378.108 287.116 378.122 287.052 378.122C286.987 378.122 286.923 378.108 286.864 378.08C286.806 378.053 286.754 378.013 286.713 377.963C286.671 377.913 286.641 377.855 286.625 377.792C286.609 377.729 286.607 377.664 286.619 377.6C286.615 377.543 286.622 377.486 286.641 377.432C286.659 377.377 286.688 377.328 286.727 377.285C286.765 377.243 286.812 377.208 286.863 377.184C286.915 377.16 286.972 377.146 287.029 377.145C287.089 377.142 287.149 377.153 287.206 377.175C287.262 377.197 287.313 377.231 287.356 377.273C287.399 377.316 287.432 377.367 287.454 377.423C287.476 377.48 287.487 377.54 287.485 377.6Z" fill="#263238"/>
<path d="M285.449 377.297L285.525 379.879L286.877 379.469L285.449 377.297Z" fill="#9A4A4D"/>
<path d="M283.565 383.145C282.457 382.993 280.208 382.34 279.859 381.459C279.994 381.913 280.271 382.313 280.649 382.598C281.562 383.137 282.543 383.551 283.565 383.829V383.145Z" fill="#9A4A4D"/>
<path d="M275.788 397.302L278.796 401.373L276.927 400.446L275.788 397.302Z" fill="#263238"/>
<path d="M276.76 368.699C277.33 369.022 277.788 369.512 278.071 370.103C278.354 370.694 278.449 371.358 278.343 372.005C278.237 372.652 277.935 373.251 277.478 373.721C277.022 374.191 276.432 374.51 275.788 374.634C275.145 374.758 274.478 374.682 273.879 374.417C273.28 374.151 272.777 373.707 272.438 373.147C272.098 372.586 271.939 371.935 271.981 371.28C272.024 370.626 272.265 370.001 272.674 369.489C273.127 368.862 273.801 368.431 274.561 368.284C275.32 368.137 276.107 368.286 276.76 368.699Z" fill="#263238"/>
<path d="M274.223 386.061C273.601 386.213 272.006 386.061 271.185 389.221C270.365 392.38 269.849 395.418 269.849 395.418C270.402 396.051 271.127 396.51 271.936 396.739C272.745 396.969 273.603 396.958 274.406 396.709C274.406 396.709 275.439 393.55 276.107 391.469C276.775 389.388 276.411 386.821 274.223 386.061Z" fill="#263238"/>
<path d="M169.258 334.339C168.623 330.801 168.439 327.198 168.712 323.614C168.715 323.528 168.747 323.444 168.803 323.378C168.859 323.311 168.935 323.264 169.02 323.245C169.105 323.226 169.193 323.236 169.272 323.272C169.351 323.309 169.416 323.37 169.456 323.447L172.205 328.536C172.205 328.536 172.524 332.273 172.874 334.825C173.114 337.145 173.588 339.435 174.286 341.66C174.408 341.979 174.64 342.242 174.94 342.405C175.602 342.793 176.201 343.28 176.717 343.848C177.203 344.288 177.598 344.38 177.552 344.531C177.475 344.702 177.338 344.838 177.167 344.914C176.997 344.989 176.804 344.999 176.626 344.942C176.228 344.819 175.846 344.651 175.487 344.44C175.808 345.111 176.233 345.726 176.747 346.263C177.932 347.509 178.038 348.314 175.866 348.496C174.499 348.618 173.36 347.858 172.099 344.942C171.623 343.87 171.217 342.769 170.884 341.645C170.14 338.713 169.623 336.131 169.258 334.339Z" fill="#FFA8A7"/>
<path d="M165.719 322.05C167.8 322.05 170.276 322.718 171.309 324.632C172.197 327.086 172.793 329.635 173.086 332.227C173.086 332.227 172.297 333.929 169.38 333.746L165.719 322.05Z" fill="#7D97F4"/>
<path opacity="0.2" d="M165.719 322.05C167.8 322.05 170.276 322.718 171.309 324.632C172.197 327.086 172.793 329.635 173.086 332.227C173.086 332.227 172.297 333.929 169.38 333.746L165.719 322.05Z" fill="black"/>
<path d="M149.086 373.332C148.569 373.074 148.235 373.727 147.764 374.259C147.355 374.641 147.043 375.115 146.853 375.641C146.864 376.056 146.964 376.464 147.148 376.836C147.331 377.209 147.593 377.537 147.916 377.798C148.296 378.033 148.626 378.34 148.886 378.702C149.147 379.065 149.334 379.475 149.435 379.91C149.49 380.457 149.701 380.977 150.043 381.408C150.385 381.839 150.844 382.162 151.364 382.34C151.961 382.59 152.601 382.719 153.248 382.719C153.895 382.719 154.535 382.59 155.132 382.34C155.861 381.869 155.132 381.353 154.175 379.894C152.853 377.996 151.82 376.628 151.82 374.851L149.086 373.332Z" fill="#263238"/>
<path d="M150.149 371.783L149.055 373.378C148.939 373.541 148.856 373.726 148.811 373.921C148.766 374.117 148.761 374.319 148.795 374.517C148.828 374.715 148.901 374.904 149.009 375.073C149.116 375.243 149.256 375.389 149.42 375.504C149.751 375.702 150.141 375.777 150.521 375.716C150.902 375.655 151.249 375.461 151.501 375.17L153.218 373.317L150.149 371.783Z" fill="#FFA8A7"/>
<path d="M170.231 340.506C170.231 342.557 169.714 350.805 168.302 354.451C166.889 358.096 166.084 360.375 165.643 361.134C165.203 361.894 152.412 374.35 152.412 374.35C151.803 374.298 151.227 374.049 150.772 373.641C150.317 373.232 150.008 372.687 149.891 372.086C149.891 372.086 155.132 363.17 156.271 361.347C157.767 359.574 159.5 358.015 161.42 356.714L161.056 340.749L170.231 340.506Z" fill="#37474F"/>
<path d="M167.421 384.002L170.117 383.391L169.224 379.45L166.528 380.061L167.421 384.002Z" fill="#FFA8A7"/>
<path d="M170.231 340.506H157.258C156.98 342.403 156.817 344.316 156.772 346.233C156.666 351.853 161.906 362.061 161.906 362.061C161.646 364.332 161.759 366.631 162.241 368.866C163.448 372.959 164.873 376.985 166.509 380.927C167.03 381.005 167.562 380.969 168.068 380.822C168.574 380.675 169.042 380.421 169.441 380.077C169.441 380.077 167.709 364.689 167.238 360.739C166.737 356.471 165.446 348.678 165.446 348.678C166.302 347.823 167.079 346.892 167.77 345.898C168.97 344.3 169.81 342.46 170.231 340.506Z" fill="#37474F"/>
<path d="M152.109 337.483C152.701 331.483 154.873 327.078 155.147 325.559L156.924 333.002C156.305 334.972 155.798 336.975 155.405 339.002C154.967 341.295 154.753 343.625 154.767 345.959C154.797 346.295 154.948 346.608 155.192 346.84C155.724 347.401 156.165 348.042 156.499 348.739C156.848 349.301 157.197 349.499 157.106 349.62C156.987 349.765 156.818 349.86 156.632 349.885C156.446 349.911 156.257 349.865 156.104 349.757C155.76 349.52 155.444 349.245 155.162 348.937C155.269 349.672 155.495 350.385 155.83 351.048C156.605 352.567 156.483 353.387 154.311 352.932C152.974 352.643 152.093 351.595 151.744 348.375C151.59 347.212 151.518 346.039 151.531 344.866C151.698 341.934 151.942 339.306 152.109 337.483Z" fill="#FFA8A7"/>
<path d="M161.435 322.171C158.944 322.779 155.557 323.554 154.569 326.242C153.761 328.809 153.081 331.415 152.534 334.05C153.078 334.57 153.737 334.954 154.458 335.171C155.179 335.387 155.94 335.43 156.681 335.296L157.258 333.275V340.506C159.202 342.633 165.977 343.62 170.231 340.506V327.002C170.272 326.374 170.185 325.744 169.976 325.151C169.766 324.557 169.439 324.013 169.013 323.55C168.587 323.087 168.071 322.715 167.497 322.457C166.923 322.199 166.303 322.061 165.674 322.05L161.435 322.171Z" fill="#7D97F4"/>
<path opacity="0.2" d="M157.258 333.275L158.504 329.356L157.258 335.037V333.275Z" fill="black"/>
<path d="M170.686 313.088C170.695 313.859 170.475 314.615 170.053 315.26C169.632 315.906 169.027 316.411 168.318 316.713C167.608 317.014 166.825 317.097 166.067 316.953C165.31 316.808 164.613 316.441 164.065 315.899C163.516 315.357 163.141 314.664 162.987 313.909C162.834 313.153 162.908 312.369 163.201 311.656C163.494 310.942 163.992 310.332 164.633 309.903C165.273 309.474 166.027 309.244 166.798 309.244C167.821 309.244 168.803 309.648 169.531 310.367C170.259 311.087 170.674 312.064 170.686 313.088Z" fill="#263238"/>
<path d="M160.494 311.128C160.272 311.105 160.049 311.132 159.839 311.205C159.629 311.279 159.438 311.397 159.279 311.553C158.747 312.1 158.868 313.072 159.279 315.366L160.904 315.563L160.494 311.128Z" fill="#263238"/>
<path d="M161.253 315.563C161.025 315.7 160.676 315.244 160.372 314.925C160.255 314.793 160.106 314.693 159.939 314.635C159.772 314.576 159.594 314.56 159.419 314.589C159.245 314.618 159.081 314.69 158.942 314.799C158.803 314.909 158.694 315.051 158.625 315.214C158.139 316.247 159.248 317.629 159.917 318.085C160.097 318.246 160.324 318.345 160.565 318.367C160.806 318.389 161.047 318.332 161.253 318.206L161.436 322.171C161.726 322.807 162.17 323.362 162.726 323.786C163.283 324.21 163.935 324.49 164.625 324.601C166.965 324.92 166.479 322.991 165.719 322.049V320.606C166.303 320.732 166.903 320.762 167.496 320.697C168.172 320.201 168.698 319.529 169.015 318.753C170.009 316.783 170.231 314.513 169.638 312.388C168.803 308.834 164.975 308.727 162.696 310.155C160.418 311.583 161.253 315.563 161.253 315.563Z" fill="#FFA8A7"/>
<path d="M161.253 315.958C161.147 315.958 160.676 315.199 160.372 314.925C160.068 314.652 160.494 311.128 160.494 311.128C160.382 310.762 160.36 310.374 160.432 309.998C160.503 309.623 160.665 309.27 160.904 308.971C161.724 308.105 163.319 308.257 164.474 308.211C166.216 308.123 167.963 308.163 169.699 308.333C169.992 308.325 170.276 308.435 170.489 308.636C170.56 308.754 170.605 308.885 170.62 309.021C170.636 309.158 170.622 309.296 170.58 309.426C170.419 310.189 170.015 310.88 169.429 311.394C168.843 311.909 168.107 312.22 167.329 312.282C165.785 312.277 164.25 312.047 162.772 311.599C162.332 311.599 162.241 311.963 161.998 313.118C161.754 314.272 161.663 315.958 161.253 315.958Z" fill="#263238"/>
<path d="M160.509 311.386L158.99 310.611C159.037 310.515 159.102 310.428 159.183 310.357C159.264 310.287 159.358 310.232 159.46 310.199C159.562 310.165 159.669 310.151 159.777 310.16C159.884 310.168 159.988 310.198 160.084 310.247C160.29 310.343 160.45 310.516 160.53 310.729C160.61 310.942 160.602 311.178 160.509 311.386Z" fill="#263238"/>
<path d="M165.704 320.607C164.714 320.416 163.743 320.136 162.803 319.771C162.355 319.543 161.989 319.183 161.755 318.738C161.866 319.18 162.068 319.593 162.347 319.953C162.894 320.667 165.704 321.184 165.704 321.184V320.607Z" fill="#F28F8F"/>
<path d="M165.78 315.472C165.792 315.536 165.79 315.601 165.773 315.664C165.757 315.726 165.727 315.785 165.686 315.835C165.645 315.884 165.593 315.925 165.534 315.952C165.476 315.98 165.412 315.994 165.347 315.994C165.282 315.994 165.218 315.98 165.16 315.952C165.101 315.925 165.049 315.884 165.008 315.835C164.967 315.785 164.937 315.726 164.921 315.664C164.904 315.601 164.902 315.536 164.914 315.472C164.902 315.408 164.904 315.343 164.921 315.28C164.937 315.217 164.967 315.159 165.008 315.109C165.049 315.059 165.101 315.019 165.16 314.992C165.218 314.964 165.282 314.95 165.347 314.95C165.412 314.95 165.476 314.964 165.534 314.992C165.593 315.019 165.645 315.059 165.686 315.109C165.727 315.159 165.757 315.217 165.773 315.28C165.79 315.343 165.792 315.408 165.78 315.472Z" fill="#263238"/>
<path d="M165.324 313.801L164.398 314.318C164.331 314.19 164.316 314.042 164.355 313.903C164.395 313.765 164.486 313.647 164.61 313.573C164.672 313.54 164.739 313.519 164.809 313.512C164.879 313.505 164.949 313.513 165.016 313.534C165.083 313.555 165.145 313.59 165.198 313.636C165.251 313.682 165.294 313.738 165.324 313.801Z" fill="#263238"/>
<path d="M165.522 318.358L166.509 318.723C166.487 318.79 166.451 318.852 166.405 318.906C166.358 318.959 166.301 319.003 166.238 319.034C166.174 319.065 166.105 319.083 166.034 319.087C165.963 319.091 165.892 319.081 165.826 319.057C165.759 319.032 165.698 318.994 165.647 318.945C165.596 318.896 165.554 318.837 165.526 318.772C165.498 318.707 165.483 318.637 165.482 318.566C165.481 318.495 165.495 318.424 165.522 318.358Z" fill="#F28F8F"/>
<path d="M169.638 314.211L168.788 313.558C168.827 313.5 168.878 313.45 168.937 313.411C168.997 313.373 169.064 313.347 169.133 313.336C169.203 313.325 169.275 313.328 169.343 313.345C169.412 313.362 169.476 313.394 169.532 313.437C169.641 313.531 169.712 313.662 169.731 313.804C169.751 313.947 169.718 314.091 169.638 314.211Z" fill="#263238"/>
<path d="M169.41 315.32C169.422 315.384 169.42 315.449 169.404 315.512C169.388 315.575 169.358 315.633 169.317 315.683C169.275 315.733 169.223 315.773 169.165 315.8C169.106 315.828 169.042 315.842 168.978 315.842C168.913 315.842 168.849 315.828 168.79 315.8C168.732 315.773 168.68 315.733 168.638 315.683C168.597 315.633 168.567 315.575 168.551 315.512C168.535 315.449 168.533 315.384 168.545 315.32C168.533 315.257 168.535 315.191 168.551 315.128C168.567 315.066 168.597 315.007 168.638 314.958C168.68 314.908 168.732 314.868 168.79 314.84C168.849 314.813 168.913 314.798 168.978 314.798C169.042 314.798 169.106 314.813 169.165 314.84C169.223 314.868 169.275 314.908 169.317 314.958C169.358 315.007 169.388 315.066 169.404 315.128C169.42 315.191 169.422 315.257 169.41 315.32Z" fill="#263238"/>
<path d="M167.345 315.305L166.934 317.872L168.362 317.705L167.345 315.305Z" fill="#F28F8F"/>
<path d="M169.805 382.067L169.714 381.672C170.003 381.672 171.233 383.738 172.418 384.619C173.603 385.5 174.879 386.138 175.456 386.578C176.033 387.019 175.107 388.34 173.162 388.447C172.028 388.514 170.899 388.25 169.912 387.687C169.365 387.186 168.97 386.335 168.545 385.955C168.119 385.576 167.253 385.272 167.026 384.801C166.841 384.317 166.784 383.794 166.858 383.282C166.858 382.781 166.858 382.218 167.056 382.234V382.522C167.564 382.779 168.128 382.904 168.696 382.887C169.183 382.932 170.033 382.826 169.805 382.067Z" fill="#263238"/>
<path d="M166.904 358.127C166.904 358.127 165.75 349.954 165.385 348.678C166.309 348.181 167.167 347.569 167.937 346.855C167.402 347.622 166.819 348.352 166.19 349.043L166.904 358.127Z" fill="#263238"/>
<path d="M159.962 357.853C160.521 359.296 161.17 360.701 161.906 362.061C161.906 362.061 161.754 364.689 161.785 365.221L161.056 365.843C161.038 364.656 161.145 363.469 161.375 362.304C160.745 360.876 160.271 359.383 159.962 357.853Z" fill="#263238"/>
<defs>
<linearGradient id="paint0_linear_304_468" x1="399.241" y1="218.055" x2="377.019" y2="516.204" gradientUnits="userSpaceOnUse">
<stop stop-color="#F5F5F5"/>
<stop offset="1" stop-color="#F5F5F5" stop-opacity="0"/>
</linearGradient>
</defs>
</svg>
