<svg width="622" height="464" viewBox="0 0 622 464" fill="none" xmlns="http://www.w3.org/2000/svg">
<path d="M622 407.286H0V407.597H622V407.286Z" fill="#EBEBEB"/>
<path d="M559.676 427.302H518.475V427.613H559.676V427.302Z" fill="#EBEBEB"/>
<path d="M412.037 430.685H401.227V430.996H412.037V430.685Z" fill="#EBEBEB"/>
<path d="M517.23 415.757H493.357V416.068H517.23V415.757Z" fill="#EBEBEB"/>
<path d="M118.988 417.847H65.2598V418.158H118.988V417.847Z" fill="#EBEBEB"/>
<path d="M137.949 417.847H130.074V418.158H137.949V417.847Z" fill="#EBEBEB"/>
<path d="M280.087 423.097H163.549V423.408H280.087V423.097Z" fill="#EBEBEB"/>
<path d="M294.828 351.803H54.624C52.7423 351.8 50.9387 351.05 49.6093 349.718C48.2799 348.387 47.5332 346.582 47.5332 344.7V7.04104C47.5496 5.17009 48.3035 3.38117 49.6311 2.06282C50.9588 0.744482 52.753 0.00320503 54.624 0H294.828C296.712 0 298.519 0.748375 299.851 2.08049C301.183 3.41261 301.931 5.21934 301.931 7.10324V344.7C301.931 346.584 301.183 348.391 299.851 349.723C298.519 351.055 296.712 351.803 294.828 351.803ZM54.624 0.248801C52.8247 0.252096 51.1003 0.969157 49.8292 2.24259C48.5581 3.51603 47.8442 5.24178 47.8442 7.04104V344.7C47.8442 346.499 48.5581 348.225 49.8292 349.498C51.1003 350.772 52.8247 351.489 54.624 351.492H294.828C296.628 351.489 298.354 350.772 299.627 349.499C300.9 348.226 301.617 346.5 301.62 344.7V7.04104C301.617 5.24064 300.9 3.51491 299.627 2.24183C298.354 0.968753 296.628 0.252089 294.828 0.248801H54.624Z" fill="#EBEBEB"/>
<path d="M563.917 351.803H323.701C321.818 351.8 320.013 351.05 318.682 349.719C317.35 348.388 316.601 346.583 316.598 344.7V7.04104C316.617 5.16896 317.374 3.38004 318.704 2.06205C320.033 0.744047 321.829 0.00317007 323.701 0H563.917C565.786 0.00647439 567.577 0.749198 568.902 2.06719C570.227 3.38518 570.979 5.17224 570.996 7.04104V344.7C570.996 346.58 570.251 348.383 568.924 349.714C567.597 351.045 565.797 351.797 563.917 351.803ZM323.701 0.248801C321.9 0.252089 320.175 0.968753 318.902 2.24183C317.629 3.51491 316.912 5.24064 316.909 7.04104V344.7C316.912 346.5 317.629 348.226 318.902 349.499C320.175 350.772 321.9 351.489 323.701 351.492H563.917C565.718 351.489 567.443 350.772 568.716 349.499C569.99 348.226 570.706 346.5 570.71 344.7V7.04104C570.706 5.24064 569.99 3.51491 568.716 2.24183C567.443 0.968753 565.718 0.252089 563.917 0.248801H323.701Z" fill="#EBEBEB"/>
<path d="M517.789 13.4601H436.543V29.2589H517.789V13.4601Z" fill="#F0F0F0"/>
<path d="M511.895 29.2589H442.43V37.3573H511.895V29.2589Z" fill="#E0E0E0"/>
<path d="M504.669 37.3573H449.646V399.088H504.669V37.3573Z" fill="#F0F0F0"/>
<path d="M497.947 37.3573H456.385V399.088H497.947V37.3573Z" fill="#E0E0E0"/>
<path d="M485.643 37.3573H468.688V399.088H485.643V37.3573Z" fill="#F0F0F0"/>
<path d="M436.532 422.997H517.777V407.198H436.532V422.997Z" fill="#F0F0F0"/>
<path d="M442.428 407.198H511.893V399.088H442.428V407.198Z" fill="#E0E0E0"/>
<path d="M185.47 13.4601H104.225V29.2589H185.47V13.4601Z" fill="#F0F0F0"/>
<path d="M179.572 29.2589H110.107V37.3573H179.572V29.2589Z" fill="#E0E0E0"/>
<path d="M172.344 37.3573H117.322V399.088H172.344V37.3573Z" fill="#F0F0F0"/>
<path d="M165.628 37.3573H124.066V399.088H165.628V37.3573Z" fill="#E0E0E0"/>
<path d="M153.321 37.3573H136.365V399.088H153.321V37.3573Z" fill="#F0F0F0"/>
<path d="M104.211 422.997H185.457V407.198H104.211V422.997Z" fill="#F0F0F0"/>
<path d="M110.107 407.198H179.572V399.088H110.107V407.198Z" fill="#E0E0E0"/>
<path d="M310.996 463.465C444.207 463.465 552.195 457.16 552.195 449.383C552.195 441.605 444.207 435.301 310.996 435.301C177.785 435.301 69.7969 441.605 69.7969 449.383C69.7969 457.16 177.785 463.465 310.996 463.465Z" fill="#F5F5F5"/>
<path d="M360.758 87.7269C360.758 87.7269 353.642 85.724 334.547 88.4857C334.547 88.4857 335.082 119.412 338.279 134.937C345.512 135.605 352.805 135.211 359.924 133.767C359.924 133.767 356.267 98.9104 360.758 87.7269Z" fill="white"/>
<path opacity="0.1" d="M360.758 87.7269C360.758 87.7269 353.642 85.724 334.547 88.4857C334.547 88.4857 335.082 119.412 338.279 134.937C345.512 135.605 352.805 135.211 359.924 133.767C359.924 133.767 356.267 98.9104 360.758 87.7269Z" fill="black"/>
<path d="M339.475 158.175L334.748 139.204C334.748 139.204 329.548 136.081 329.112 132.61C328.677 129.14 334.2 119.474 335.27 119.486C336.34 119.499 343.319 124.711 343.306 126.254C343.294 127.796 341.913 136.031 341.913 136.031L351.405 154.43L339.475 158.175Z" fill="#E2877B"/>
<path d="M336.527 151.109L333.803 144.727L347.226 136.927L351.405 144.018L336.527 151.109Z" fill="#7D97F4"/>
<path opacity="0.8" d="M336.527 151.109L333.803 144.727L347.226 136.927L351.405 144.018L336.527 151.109Z" fill="white"/>
<path d="M397.767 128.754C389.706 134.103 371.805 160.152 367.376 159.767C361.654 159.282 352.162 140.087 352.162 140.087L334.547 150.698C334.547 150.698 355.172 192.347 366.679 189.722C378.186 187.098 399.994 155.152 401.511 150.449C403.029 145.747 407.769 122.111 397.767 128.754Z" fill="#263238"/>
<path opacity="0.3" d="M397.767 128.754C389.706 134.103 371.805 160.152 367.376 159.767C361.654 159.282 352.162 140.087 352.162 140.087L334.547 150.698C334.547 150.698 355.172 192.347 366.679 189.722C378.186 187.098 399.994 155.152 401.511 150.449C403.029 145.747 407.769 122.111 397.767 128.754Z" fill="black"/>
<path d="M395.009 438.647L384.92 439.717L383.029 417.947L393.118 416.877L395.009 438.647Z" fill="#E2877B"/>
<path d="M445.364 437.913H435.586L434.777 415.26H444.568L445.364 437.913Z" fill="#E2877B"/>
<path d="M434.231 436.781H446.111C446.306 436.779 446.496 436.846 446.648 436.968C446.799 437.09 446.904 437.262 446.945 437.452L448.873 446.16C448.913 446.372 448.906 446.589 448.853 446.797C448.8 447.006 448.701 447.2 448.565 447.366C448.428 447.532 448.257 447.666 448.063 447.759C447.869 447.851 447.657 447.9 447.442 447.902C443.598 447.84 440.799 447.603 435.972 447.603C432.999 447.603 424.03 447.914 419.925 447.914C415.82 447.914 415.285 443.859 416.964 443.486C424.503 441.844 430.175 439.567 432.589 437.403C433.035 436.991 433.624 436.768 434.231 436.781Z" fill="#263238"/>
<path d="M430.996 438.497C430.332 438.548 429.67 438.372 429.118 438C428.939 437.85 428.801 437.657 428.716 437.44C428.632 437.222 428.603 436.987 428.632 436.756C428.631 436.621 428.667 436.489 428.738 436.375C428.808 436.26 428.91 436.168 429.031 436.109C430.113 435.549 433.273 437.49 433.621 437.714C433.662 437.733 433.696 437.765 433.717 437.806C433.737 437.847 433.743 437.893 433.733 437.938C433.727 437.984 433.707 438.028 433.676 438.064C433.645 438.099 433.604 438.125 433.559 438.137C432.72 438.351 431.861 438.472 430.996 438.497ZM429.541 436.47C429.437 436.459 429.333 436.48 429.242 436.532C429.18 436.532 429.105 436.619 429.093 436.806C429.073 436.959 429.091 437.116 429.146 437.261C429.2 437.406 429.288 437.536 429.404 437.639C430.501 438.137 431.746 438.199 432.887 437.813C431.869 437.152 430.733 436.696 429.541 436.47Z" fill="#7D97F4"/>
<path d="M433.497 438.149H433.385C432.378 437.602 430.424 435.45 430.624 434.417C430.658 434.245 430.751 434.09 430.888 433.979C431.024 433.868 431.194 433.807 431.37 433.808C431.546 433.785 431.724 433.799 431.894 433.851C432.063 433.902 432.22 433.989 432.353 434.106C433.485 435.027 433.721 437.838 433.734 437.975C433.734 438.017 433.724 438.058 433.705 438.095C433.685 438.132 433.656 438.164 433.622 438.187C433.577 438.186 433.534 438.173 433.497 438.149ZM431.532 434.156H431.42C431.121 434.156 431.096 434.33 431.084 434.392C430.959 435.027 432.203 436.657 433.211 437.415C433.148 436.301 432.744 435.233 432.054 434.355C431.909 434.229 431.724 434.158 431.532 434.156Z" fill="#7D97F4"/>
<path d="M383.85 436.47H395.73C395.925 436.468 396.115 436.535 396.267 436.657C396.419 436.779 396.523 436.951 396.564 437.142L398.492 445.85C398.532 446.061 398.525 446.278 398.472 446.486C398.419 446.695 398.32 446.889 398.184 447.055C398.048 447.221 397.876 447.355 397.682 447.448C397.488 447.541 397.276 447.589 397.061 447.591C393.217 447.529 390.418 447.293 385.592 447.293C382.618 447.293 373.649 447.604 369.544 447.604C365.439 447.604 364.904 443.548 366.583 443.175C374.122 441.533 379.795 439.256 382.208 437.092C382.654 436.68 383.243 436.457 383.85 436.47Z" fill="#263238"/>
<path d="M380.664 438.186C380 438.237 379.338 438.061 378.786 437.689C378.607 437.539 378.469 437.346 378.384 437.129C378.299 436.911 378.271 436.676 378.3 436.445C378.299 436.31 378.335 436.178 378.406 436.064C378.476 435.949 378.578 435.857 378.699 435.798C379.781 435.238 382.941 437.179 383.289 437.403C383.33 437.422 383.364 437.454 383.384 437.495C383.405 437.536 383.411 437.582 383.401 437.627C383.395 437.673 383.375 437.717 383.344 437.753C383.313 437.788 383.272 437.814 383.227 437.826C382.388 438.04 381.529 438.161 380.664 438.186ZM379.209 436.159C379.105 436.148 379.001 436.17 378.91 436.221C378.848 436.221 378.773 436.308 378.761 436.495C378.741 436.648 378.759 436.805 378.814 436.95C378.868 437.095 378.956 437.225 379.072 437.328C380.169 437.826 381.414 437.888 382.555 437.502C381.522 436.835 380.368 436.379 379.159 436.159H379.209Z" fill="#7D97F4"/>
<path d="M383.153 437.888H383.041C382.034 437.341 380.081 435.188 380.28 434.156C380.314 433.984 380.408 433.829 380.544 433.717C380.68 433.606 380.85 433.546 381.026 433.546C381.202 433.523 381.38 433.538 381.55 433.589C381.719 433.641 381.876 433.728 382.009 433.845C383.141 434.765 383.377 437.577 383.39 437.714C383.39 437.756 383.38 437.797 383.361 437.834C383.341 437.871 383.313 437.902 383.278 437.925C383.234 437.925 383.191 437.912 383.153 437.888ZM381.188 433.92H381.076C380.777 433.92 380.752 434.094 380.74 434.156C380.616 434.79 381.86 436.42 382.867 437.179C382.804 436.064 382.4 434.996 381.71 434.119C381.564 433.965 381.363 433.876 381.151 433.87L381.188 433.92Z" fill="#7D97F4"/>
<path opacity="0.2" d="M444.568 415.272H434.777L435.2 426.953H444.991L444.568 415.272Z" fill="black"/>
<path d="M440.538 216.556H388.626C383.65 243.501 368.921 347.076 380.005 432.041L397.582 429.864C397.582 429.864 395.269 308.86 410.781 267.161C412.573 289.479 414.687 313.189 416.529 325.853C421.044 356.953 431.133 430.623 431.133 430.623H449.084C449.084 430.623 445.004 359.864 443.312 329.299C441.396 296.072 440.6 223.373 440.538 216.556Z" fill="#263238"/>
<g opacity="0.3">
<path d="M440.536 216.556H388.624C383.648 243.501 368.919 347.076 380.003 432.041L397.581 429.864C397.581 429.864 395.267 308.86 410.779 267.162C412.571 289.479 414.685 313.19 416.527 325.853C421.042 356.953 431.131 430.623 431.131 430.623H449.082C449.082 430.623 445.002 359.864 443.31 329.299C441.394 296.072 440.598 223.373 440.536 216.556Z" fill="black"/>
</g>
<path opacity="0.4" d="M386.539 229.095C386.539 229.095 401.84 232.628 412.501 229.095L411.543 220.798H386.726L386.539 229.095Z" fill="black"/>
<path opacity="0.1" d="M394.234 230.302C397.506 230.656 400.801 230.747 404.087 230.575V220.81H394.234V230.302Z" fill="white"/>
<path opacity="0.2" d="M410.781 267.161C408.227 274.472 406.288 281.983 404.984 289.616C403.529 269.712 409.338 248.688 409.338 248.688L410.781 267.161Z" fill="black"/>
<path d="M433.695 98.276C433.695 98.276 433.31 107.805 425.883 105.566C418.456 103.327 427.139 94.9048 433.695 98.276Z" fill="#263238"/>
<path d="M411.538 122.111C413.075 120.897 414.218 119.257 414.827 117.396C415.435 115.535 415.482 113.536 414.959 111.649L428.395 100.814C428.395 100.814 426.653 114.112 429.9 121.153C429.9 121.153 421.789 129.376 415.606 127.498C409.424 125.619 411.538 122.111 411.538 122.111Z" fill="#E2877B"/>
<path opacity="0.2" d="M425.373 107.307L420.061 107.531L414.961 111.649C415.421 113.46 415.4 115.36 414.898 117.16C423.034 115.854 425.373 107.307 425.373 107.307Z" fill="black"/>
<path d="M425.027 131.715L413.906 127.498L404.564 128.194C404.564 128.194 394.686 150.711 391.029 173.961C388.709 190.141 387.462 206.456 387.297 222.8C387.633 222.726 400.981 225.649 413.359 221.444C413.359 221.444 405.111 186.612 409.627 170.652C414.142 154.691 424.978 131.715 424.978 131.715" fill="#7D97F4"/>
<path opacity="0.8" d="M425.027 131.715L413.906 127.498L404.564 128.194C404.564 128.194 394.686 150.711 391.029 173.961C388.709 190.141 387.462 206.456 387.297 222.8C387.633 222.726 400.981 225.649 413.359 221.444C413.359 221.444 405.111 186.612 409.627 170.652C414.142 154.691 424.978 131.715 424.978 131.715" fill="white"/>
<path opacity="0.4" d="M409.547 127.821L410.218 133.941C410.218 133.941 401.946 150.026 399.022 160.787C396.099 171.548 393.686 204.178 393.686 204.178L398.861 213.072L403.613 204.178C403.613 204.178 402.369 178.054 406.175 160.439C409.982 142.824 412.084 134.912 412.084 134.912L417.807 130.769L413.925 127.498L409.547 127.821Z" fill="black"/>
<path d="M411.541 122.111L415.372 125.918L429.89 121.153L419.067 137.176L413.706 128.567L404.973 131.043L411.541 122.111Z" fill="white"/>
<path d="M411.542 122.111C411.542 122.111 391.551 126.477 387.284 144.503C383.017 162.529 380.504 241.249 379.882 247.593C379.26 253.938 391.787 254.721 391.787 254.721C391.787 254.721 391.115 214.005 392.135 203.195C392.508 199.289 393.081 186.102 394.847 175.827C397.97 157.64 403.393 134.252 411.542 122.111Z" fill="#263238"/>
<path d="M407.393 123.567C404.681 125.955 398.2 131.03 394.953 136.392L400.004 139.067L393.1 143.458C393.1 143.458 393.672 162.852 395.364 173.015C398.548 155.326 403.823 133.643 411.536 122.111C411.536 122.111 409.894 122.571 407.393 123.567Z" fill="#263238"/>
<path opacity="0.1" d="M407.393 123.567C404.681 125.955 398.2 131.03 394.953 136.392L400.004 139.067L393.1 143.458C393.1 143.458 393.672 162.852 395.364 173.015C398.548 155.326 403.823 133.643 411.536 122.111C411.536 122.111 409.894 122.571 407.393 123.567Z" fill="white"/>
<path d="M396.224 80.3624C396.224 80.3624 395.528 87.6771 401.2 89.3067C401.2 89.3067 404.447 81.1337 400.504 80.3624C396.56 79.5911 396.224 80.3624 396.224 80.3624Z" fill="#263238"/>
<path d="M401.138 100.963C402.046 106.138 405.927 116.986 416.912 113.677C427.896 110.368 428.356 101.697 428.543 99.1966C428.73 96.6961 426.391 77.2897 419.375 75.4362C412.358 73.5826 403.825 75.8716 401.138 79.8897C398.451 83.9078 401.138 100.963 401.138 100.963Z" fill="#E2877B"/>
<path d="M427.935 92.9392C428.109 93.1631 420.67 97.6167 420.906 82.2284C420.906 82.2284 415.52 84.5173 414.276 78.4093C414.276 78.4093 391.759 86.1719 393.998 77.4141C396.996 65.7205 415.209 64.8373 423.058 70.9577C423.058 70.9577 426.952 66.5913 430.622 71.2936C435.013 76.9165 434.938 92.1555 434.938 92.1555L427.935 92.9392Z" fill="#263238"/>
<path d="M433.532 90.9613C430.895 86.8188 419.114 91.1603 416.825 92.056L416.751 91.4713C416.719 91.259 416.646 91.055 416.535 90.8714C416.424 90.6877 416.277 90.528 416.104 90.4015C415.924 90.2777 415.721 90.1928 415.507 90.1521C415.293 90.1114 415.072 90.1158 414.86 90.1651L410.021 91.2101C409.625 91.2859 409.274 91.5125 409.042 91.842C408.81 92.1715 408.715 92.5783 408.777 92.9766C408.777 93.1258 408.839 93.3124 408.864 93.4742C408.475 93.3297 408.056 93.2848 407.646 93.3435C407.235 93.4021 406.845 93.5625 406.513 93.81V93.412C406.45 92.9991 406.226 92.6279 405.891 92.3794C405.727 92.2561 405.54 92.1672 405.341 92.1181C405.143 92.0689 404.936 92.0605 404.734 92.0933L400.666 92.7029C400.276 92.7615 399.922 92.9664 399.677 93.2759C399.432 93.5854 399.314 93.9765 399.347 94.3698C399.422 95.2531 399.509 96.0368 399.596 96.6712C399.627 96.8739 399.698 97.0683 399.805 97.2434C399.912 97.4185 400.052 97.5707 400.218 97.6913C400.484 97.8895 400.807 97.9944 401.139 97.9899H401.362L405.505 97.3803C405.708 97.3514 405.903 97.2827 406.079 97.1781C406.255 97.0736 406.409 96.9353 406.531 96.7711C406.654 96.607 406.743 96.4202 406.793 96.2216C406.843 96.023 406.854 95.8165 406.824 95.6138L406.674 94.544C406.977 94.2347 407.375 94.0368 407.804 93.9826C408.233 93.9284 408.668 94.021 409.038 94.2454C409.1 94.5813 409.162 94.9297 409.225 95.2531C409.304 95.6588 409.541 96.0165 409.884 96.2483C410.138 96.4185 410.437 96.5094 410.742 96.5095C410.85 96.5224 410.958 96.5224 411.066 96.5095L415.818 95.5392C416.207 95.4606 416.552 95.2371 416.783 94.9138C417.014 94.5905 417.114 94.1915 417.062 93.7976L416.912 92.7402C418.679 92.056 430.596 87.5652 433.01 91.3469C433.032 91.3815 433.062 91.4113 433.096 91.4345C433.13 91.4576 433.169 91.4737 433.209 91.4819C433.25 91.49 433.292 91.4899 433.332 91.4817C433.373 91.4735 433.411 91.4573 433.445 91.434C433.487 91.4135 433.524 91.3835 433.552 91.3462C433.581 91.309 433.6 91.2656 433.608 91.2196C433.617 91.1736 433.614 91.1263 433.601 91.0814C433.588 91.0365 433.564 90.9954 433.532 90.9613ZM405.43 96.7583L401.288 97.3554C401.043 97.3922 400.794 97.3344 400.591 97.1937C400.494 97.121 400.412 97.0296 400.35 96.925C400.288 96.8204 400.247 96.7046 400.23 96.5842C400.143 95.9622 400.056 95.1909 399.982 94.3076C399.963 94.0717 400.035 93.8377 400.183 93.6529C400.331 93.4681 400.544 93.3464 400.778 93.3124L404.846 92.7029H404.982C405.182 92.7049 405.377 92.7655 405.542 92.877C405.74 93.0288 405.869 93.2523 405.903 93.499L406.226 95.7009C406.259 95.9463 406.193 96.1945 406.044 96.3922C405.895 96.5899 405.675 96.7213 405.43 96.7583ZM415.706 94.8799L410.954 95.8502C410.709 95.9002 410.454 95.851 410.245 95.7134C410.143 95.647 410.056 95.5611 409.987 95.4608C409.919 95.3604 409.871 95.2476 409.847 95.1287C409.71 94.3698 409.56 93.5364 409.461 92.877C409.42 92.6416 409.473 92.3997 409.608 92.2024C409.742 92.0051 409.948 91.8678 410.182 91.8196L415.009 90.7747C415.075 90.7633 415.142 90.7633 415.208 90.7747C415.399 90.771 415.586 90.8276 415.743 90.9364C415.851 91.0109 415.941 91.1068 416.01 91.2181C416.078 91.3294 416.123 91.4538 416.141 91.5833L416.44 93.8598C416.466 94.0907 416.406 94.3233 416.27 94.5119C416.134 94.7006 415.933 94.8318 415.706 94.8799Z" fill="black"/>
<path d="M413.817 93.0263C414.003 93.7852 413.655 94.4943 413.133 94.5813C412.61 94.6684 412.113 94.1086 411.976 93.3373C411.839 92.5661 412.15 91.857 412.66 91.7699C413.17 91.6828 413.68 92.2426 413.817 93.0263Z" fill="#263238"/>
<path d="M404.164 94.544C404.351 95.3152 403.99 96.0243 403.48 96.1114C402.97 96.1985 402.46 95.6262 402.323 94.8674C402.186 94.1086 402.497 93.3995 403.008 93.3124C403.518 93.2253 404.04 93.7851 404.164 94.544Z" fill="#263238"/>
<path d="M407.884 94.4321C407.371 96.9706 406.504 99.4245 405.309 101.722C405.912 102.005 406.57 102.152 407.237 102.152C407.903 102.152 408.562 102.005 409.165 101.722L407.884 94.4321Z" fill="#DC5753"/>
<path d="M415.495 88.3986C415.445 88.4672 415.376 88.52 415.297 88.5509C415.217 88.5817 415.131 88.5893 415.048 88.5728C414.478 88.4612 413.89 88.4841 413.331 88.6396C412.771 88.7951 412.256 89.0789 411.826 89.4685C411.788 89.5256 411.738 89.5738 411.679 89.6097C411.621 89.6456 411.556 89.6684 411.488 89.6765C411.42 89.6846 411.351 89.6779 411.285 89.6567C411.22 89.6355 411.161 89.6004 411.11 89.5538C411.06 89.5072 411.021 89.4502 410.994 89.3868C410.968 89.3234 410.956 89.2552 410.959 89.1867C410.962 89.1182 410.98 89.0513 411.012 88.9904C411.043 88.9295 411.087 88.8761 411.141 88.8341C411.676 88.3315 412.323 87.9634 413.028 87.7601C413.733 87.5568 414.477 87.5241 415.197 87.6647C415.317 87.686 415.424 87.7515 415.498 87.8483C415.571 87.9451 415.606 88.066 415.595 88.1872C415.577 88.2638 415.543 88.3357 415.495 88.3986Z" fill="#263238"/>
<path d="M411.114 105.591C412.255 105.566 413.373 105.269 414.375 104.724C415.378 104.178 416.234 103.401 416.874 102.456C416.906 102.4 416.915 102.333 416.899 102.27C416.883 102.207 416.842 102.154 416.787 102.12C416.743 102.079 416.685 102.056 416.625 102.056C416.565 102.056 416.507 102.079 416.464 102.12C415.856 102.985 415.055 103.696 414.124 104.197C413.194 104.699 412.159 104.975 411.102 105.006C411.07 105.004 411.039 105.009 411.009 105.02C410.98 105.032 410.953 105.049 410.931 105.071C410.909 105.094 410.891 105.12 410.88 105.15C410.869 105.179 410.864 105.211 410.866 105.242C410.866 105.305 410.891 105.365 410.935 105.41C410.979 105.454 411.039 105.479 411.102 105.479L411.114 105.591Z" fill="#263238"/>
<path d="M400.838 89.7919C400.753 89.77 400.677 89.7202 400.623 89.6504C400.568 89.5805 400.539 89.4947 400.539 89.4063C400.539 89.3179 400.568 89.232 400.623 89.1622C400.677 89.0924 400.753 89.0426 400.838 89.0206C401.516 88.7335 402.253 88.613 402.986 88.6693C403.72 88.7255 404.43 88.957 405.056 89.3441C405.106 89.3788 405.149 89.4233 405.182 89.4748C405.214 89.5263 405.237 89.5838 405.247 89.644C405.258 89.7043 405.256 89.7659 405.242 89.8255C405.229 89.8851 405.203 89.9413 405.168 89.9909C405.093 90.0873 404.986 90.1522 404.866 90.173C404.746 90.1937 404.623 90.1687 404.521 90.1029C404.018 89.8091 403.454 89.6369 402.873 89.6002C402.291 89.5635 401.71 89.6632 401.174 89.8914C401.054 89.9038 400.933 89.8681 400.838 89.7919Z" fill="#263238"/>
<path d="M429.903 121.153C429.903 121.153 443.201 128.916 450.068 131.827C456.935 134.738 446.523 182.122 446.261 190.295C446 198.468 453.427 254.609 453.427 254.609C453.427 254.609 432.279 260.12 414.95 256.003C414.95 256.003 402.709 209.303 404.214 184.833C405.67 161.272 412.736 138.084 429.903 121.153Z" fill="#263238"/>
<path d="M435.399 124.288C432.252 122.509 429.963 121.153 429.963 121.153C413.356 137.524 406.227 159.717 404.461 182.495C411.651 164.942 428.408 148.907 428.408 148.907L423.233 141.331L432.725 140.584C432.909 135.06 433.808 129.582 435.399 124.288Z" fill="#263238"/>
<path opacity="0.1" d="M435.399 124.288C432.252 122.509 429.963 121.153 429.963 121.153C413.356 137.524 406.227 159.717 404.461 182.495C411.651 164.942 428.408 148.907 428.408 148.907L423.233 141.331L432.725 140.584C432.909 135.06 433.808 129.582 435.399 124.288Z" fill="white"/>
<path d="M429.656 152.154C429.644 152.046 429.59 151.947 429.507 151.878C429.424 151.808 429.317 151.773 429.208 151.78L399.352 154.268V156.358H396.205L400.211 204.663C400.211 204.887 400.372 204.887 400.385 205.048H400.708L400.97 204.675L401.965 204.588L402.288 204.912L433.45 202.287C433.504 202.284 433.557 202.27 433.606 202.246C433.654 202.223 433.698 202.19 433.734 202.149C433.77 202.109 433.797 202.062 433.815 202.01C433.832 201.959 433.839 201.905 433.836 201.851L429.656 152.154Z" fill="#7D97F4"/>
<path d="M397.36 201.404C397.396 202.261 397.703 203.084 398.237 203.755C398.772 204.426 399.506 204.909 400.333 205.136C400.122 202.585 399.823 200.16 399.823 200.16C399.823 200.16 397.099 163.101 396.39 154.604C395.649 154.756 394.98 155.15 394.489 155.725C393.998 156.299 393.712 157.021 393.678 157.777C393.777 158.933 393.976 161.285 393.976 161.285C393.976 161.285 396.576 192.173 397.36 201.404Z" fill="#7D97F4"/>
<path opacity="0.2" d="M397.36 201.404C397.396 202.261 397.703 203.084 398.237 203.755C398.772 204.426 399.506 204.909 400.333 205.136C400.122 202.585 399.823 200.16 399.823 200.16C399.823 200.16 397.099 163.101 396.39 154.604C395.649 154.756 394.98 155.15 394.489 155.725C393.998 156.299 393.712 157.021 393.678 157.777C393.777 158.933 393.976 161.285 393.976 161.285C393.976 161.285 396.576 192.173 397.36 201.404Z" fill="black"/>
<path d="M400.346 204.016L432.54 201.404L430.674 195.88L399.885 198.48C399.372 198.747 398.962 199.176 398.719 199.7C398.476 200.225 398.413 200.815 398.542 201.379C398.577 201.94 398.763 202.481 399.081 202.946C399.398 203.41 399.835 203.78 400.346 204.016Z" fill="#7D97F4"/>
<path opacity="0.6" d="M400.346 204.016L432.54 201.404L430.674 195.88L399.885 198.48C399.372 198.747 398.962 199.176 398.719 199.7C398.476 200.225 398.413 200.815 398.542 201.379C398.577 201.94 398.763 202.481 399.081 202.946C399.398 203.41 399.835 203.78 400.346 204.016Z" fill="white"/>
<path d="M431.966 195.955L401.563 198.518L401.326 198.356L400.381 198.443L400.182 198.629H399.784C399.763 198.63 399.742 198.622 399.726 198.609C399.71 198.595 399.7 198.576 399.697 198.555L395.965 154.629C395.965 154.629 395.965 154.542 396.039 154.542H396.5L396.686 154.878L397.632 154.803L397.856 154.43L428.234 151.868C428.254 151.871 428.273 151.88 428.288 151.893C428.303 151.906 428.315 151.923 428.321 151.942L432.053 195.868C432.053 195.891 432.044 195.913 432.028 195.929C432.011 195.946 431.989 195.955 431.966 195.955Z" fill="#7D97F4"/>
<path opacity="0.3" d="M425 176.81L403.641 178.601L402.123 160.613L423.483 158.809L425 176.81ZM404.648 177.258L423.781 175.653L422.475 160.153L403.342 161.72L404.648 177.258Z" fill="black"/>
<path opacity="0.3" d="M394.234 164.345C394.377 163.726 394.663 163.149 395.069 162.661C395.475 162.172 395.99 161.786 396.573 161.533C396.573 161.869 396.573 162.006 396.685 162.927C395.546 163.685 394.727 164.837 394.384 166.161L394.234 164.345Z" fill="black"/>
<path opacity="0.3" d="M396.537 191.75C396.68 191.13 396.965 190.551 397.371 190.061C397.778 189.57 398.293 189.182 398.876 188.926C398.876 189.262 398.938 189.411 399 190.332C397.856 191.085 397.035 192.239 396.699 193.566L396.537 191.75Z" fill="black"/>
<path opacity="0.3" d="M397.647 154.841L396.705 154.92L400.371 198.48L401.313 198.401L397.647 154.841Z" fill="black"/>
<path d="M422.301 182.228L407.314 183.489L407.489 185.559L422.476 184.298L422.301 182.228Z" fill="#7D97F4"/>
<path d="M419.366 187.023L410.986 187.728L411.161 189.799L419.54 189.093L419.366 187.023Z" fill="#7D97F4"/>
<path opacity="0.3" d="M400.295 200.894L429.081 198.406C429.081 198.406 420.311 198.978 409.463 199.898C404.86 200.346 400.295 200.894 400.295 200.894Z" fill="black"/>
<path opacity="0.3" d="M400.381 202.013L429.242 199.326L409.549 200.981C404.946 201.366 400.381 202.013 400.381 202.013Z" fill="black"/>
<path opacity="0.3" d="M400.471 203.021L429.468 200.284L409.639 201.963C405.036 202.374 400.471 203.021 400.471 203.021Z" fill="black"/>
<path d="M406.188 199.314L406.661 204.974L404.633 203.07L402.941 205.26C402.941 205.26 402.83 203.867 402.469 199.538C403.588 199.438 405.28 199.388 406.188 199.314Z" fill="#7D97F4"/>
<path opacity="0.3" d="M406.188 199.314L406.661 204.974L404.633 203.07L402.941 205.26C402.941 205.26 402.83 203.867 402.469 199.538C403.588 199.438 405.28 199.388 406.188 199.314Z" fill="black"/>
<path opacity="0.3" d="M400.205 199.824L429.327 197.535C429.327 197.535 420.221 197.958 409.423 198.878C404.771 199.264 400.205 199.824 400.205 199.824Z" fill="black"/>
<path d="M432.052 195.942L430.348 196.092C429.963 196.948 429.928 197.921 430.249 198.804C430.355 199.387 430.622 199.929 431.02 200.368C431.418 200.808 431.931 201.128 432.5 201.292L432.052 195.942Z" fill="#7D97F4"/>
<path d="M423.53 198.791L405.766 190.581C405.766 190.581 400.068 192.683 397.058 190.855C394.047 189.026 389.992 178.663 390.676 177.83C391.36 176.996 399.795 174.832 400.976 175.802C402.158 176.772 407.731 183.017 407.731 183.017L428.021 187.147L423.53 198.791Z" fill="#E2877B"/>
<path d="M418.567 181.512L411.451 181.089L412.21 197.099L419.774 198.368L418.567 181.512Z" fill="white"/>
<path d="M418.567 181.512L411.451 181.089L412.21 197.099L419.774 198.368L418.567 181.512Z" fill="#7D97F4"/>
<path opacity="0.8" d="M418.567 181.512L411.451 181.089L412.21 197.099L419.774 198.368L418.567 181.512Z" fill="white"/>
<path d="M445.207 130.222C457.087 131.466 461.864 149.392 463.518 158.349C465.136 167.057 469.539 194.288 459.525 201.64C449.511 208.992 417.764 200.931 417.764 200.931L416.072 179.136C416.072 179.136 433.128 182.98 440.492 180.119C446.712 177.718 443.813 155.537 443.167 151.507C442.246 145.847 439.621 129.625 445.207 130.222Z" fill="#263238"/>
<path opacity="0.3" d="M445.207 130.222C457.087 131.466 461.864 149.392 463.518 158.349C465.136 167.057 469.539 194.288 459.525 201.64C449.511 208.992 417.764 200.931 417.764 200.931L416.072 179.136C416.072 179.136 433.128 182.98 440.492 180.119C446.712 177.718 443.813 155.537 443.167 151.507C442.246 145.847 439.621 129.625 445.207 130.222Z" fill="black"/>
<path d="M425.571 94.1335C425.571 94.1335 427.536 88.6972 432.562 88.6723C436.593 88.6723 437.177 93.7105 435.336 97.1937C433.931 99.8683 429.315 103.215 426.38 99.6817C423.444 96.1487 425.571 94.1335 425.571 94.1335Z" fill="#E2877B"/>
<path d="M180.85 340.931L180.402 360.3L178.362 447.915H171.632L169.604 360.3L169.156 340.931H180.85Z" fill="#457BFB"/>
<path opacity="0.4" d="M180.85 340.931L180.402 360.3L178.362 447.915H171.632L169.604 360.3L169.156 340.931H180.85Z" fill="white"/>
<path opacity="0.2" d="M180.85 340.931L180.402 360.835H169.604L169.156 340.931H180.85Z" fill="black"/>
<path d="M217.403 447.604L211.183 342.299H201.02L209.728 447.604H217.403Z" fill="#457BFB"/>
<path opacity="0.5" d="M209.703 447.604H217.391L211.743 351.753L211.183 342.175H201.02L201.803 351.753L209.703 447.604Z" fill="white"/>
<path opacity="0.2" d="M201.02 342.175L201.803 352.127H211.743L211.183 342.175H201.02Z" fill="black"/>
<path d="M140.285 447.604L148.98 342.299H138.817L132.609 447.604H140.285Z" fill="#457BFB"/>
<path opacity="0.5" d="M140.297 447.604L148.197 351.753L148.98 342.175H138.817L138.257 351.753L132.609 447.604H140.297Z" fill="white"/>
<path opacity="0.2" d="M148.983 342.175L148.199 352.127H138.26L138.82 342.175H148.983Z" fill="black"/>
<path d="M139.601 331.389H210.409C212.059 331.389 213.641 332.045 214.808 333.211C215.974 334.377 216.629 335.96 216.629 337.609V345.932H133.381V337.609C133.381 335.96 134.036 334.377 135.203 333.211C136.369 332.045 137.951 331.389 139.601 331.389Z" fill="black"/>
<path d="M218.111 338.667H131.889C130.508 338.667 129.389 339.786 129.389 341.167V343.431C129.389 344.812 130.508 345.931 131.889 345.931H218.111C219.492 345.931 220.611 344.812 220.611 343.431V341.167C220.611 339.786 219.492 338.667 218.111 338.667Z" fill="#457BFB"/>
<path opacity="0.6" d="M218.111 338.667H131.889C130.508 338.667 129.389 339.786 129.389 341.167V343.431C129.389 344.812 130.508 345.931 131.889 345.931H218.111C219.492 345.931 220.611 344.812 220.611 343.431V341.167C220.611 339.786 219.492 338.667 218.111 338.667Z" fill="white"/>
<path d="M220.039 237.181C220.039 237.181 245.093 263.181 246.611 264.549C248.128 265.917 257.471 268.928 258.852 270.122C260.233 271.316 257.906 280.074 256.986 281.753C256.065 283.433 242.854 276.218 242.058 275.036C241.294 273.572 240.669 272.039 240.192 270.458L211.754 246.573L220.039 237.181Z" fill="#E9B076"/>
<path d="M198.928 212.015C198.928 212.015 199.002 213.023 199.201 214.689C199.4 216.356 199.699 218.869 200.147 221.656C201.229 228.436 203.12 237.156 206.155 242.431C206.897 243.829 207.917 245.061 209.153 246.051C213.134 249.011 230.712 268.356 230.712 268.356L240.054 256.475L227.652 240.776C227.652 240.776 219.466 194.537 206.989 190.929C201.59 189.362 198.928 212.015 198.928 212.015Z" fill="#7D97F4"/>
<path opacity="0.6" d="M198.928 212.015C198.928 212.015 199.002 213.023 199.201 214.689C199.4 216.356 199.699 218.869 200.147 221.656C201.229 228.436 203.12 237.156 206.155 242.431C206.897 243.829 207.917 245.061 209.153 246.051C213.134 249.011 230.712 268.356 230.712 268.356L240.054 256.475L227.652 240.776C227.652 240.776 219.466 194.537 206.989 190.929C201.59 189.362 198.928 212.015 198.928 212.015Z" fill="black"/>
<path d="M210.264 438.933L220.178 437.564L221.547 414.016L211.657 415.384L210.264 438.933Z" fill="#E9B076"/>
<path opacity="0.2" d="M211.657 415.384L221.547 414.028L220.763 427.488L210.873 428.359L211.657 415.384Z" fill="black"/>
<path d="M210.66 300.451L208.247 285.299L152.69 281.977C152.69 281.977 146.793 313.488 151.321 321.897C159.42 336.888 203.097 329.361 215.873 330.792C208.234 362.004 208.993 423.072 208.993 423.072L227.243 424.465C227.243 424.465 241.288 358.695 244.124 327.433C246.027 306.347 228.549 306.87 210.66 300.451Z" fill="#7D97F4"/>
<path d="M206.841 423.93L228.773 425.373L230.651 415.981L206.555 414.861L206.841 423.93Z" fill="#457BFB"/>
<path d="M233.127 430.138L243.104 430.872L249.349 408.107L239.384 407.397L233.127 430.138Z" fill="#E9B076"/>
<path d="M244.484 431.307C244.484 431.307 244.484 431.369 244.484 431.394C244.498 431.4 244.513 431.403 244.528 431.403C244.543 431.403 244.558 431.4 244.571 431.394C245.36 431.836 246.194 432.191 247.059 432.452C247.683 432.695 248.376 432.695 249 432.452C249.206 432.337 249.374 432.166 249.487 431.959C249.599 431.752 249.65 431.517 249.634 431.282C249.648 431.134 249.624 430.985 249.566 430.848C249.507 430.711 249.415 430.591 249.299 430.499C248.404 430.14 247.412 430.114 246.5 430.424C247.214 429.943 247.734 429.225 247.968 428.396C247.983 428.2 247.933 428.004 247.825 427.839C247.717 427.675 247.557 427.551 247.37 427.488C247.214 427.411 247.041 427.371 246.867 427.371C246.692 427.371 246.52 427.411 246.363 427.488C245.119 428.147 244.683 430.934 244.646 431.083H244.472C244.472 431.083 244.459 431.282 244.484 431.307ZM245.231 430.76L245.007 430.822C245.243 429.901 245.741 428.396 246.475 428.011C246.554 427.961 246.642 427.929 246.734 427.916C246.826 427.903 246.92 427.91 247.01 427.936H247.109C247.42 428.073 247.457 428.247 247.445 428.384C247.358 429.093 246.213 430.212 245.231 430.76ZM245.231 431.27C246.549 430.872 248.378 430.511 248.963 430.934C249.019 430.98 249.063 431.04 249.091 431.107C249.12 431.174 249.131 431.247 249.124 431.32C249.129 431.468 249.096 431.616 249.029 431.749C248.962 431.881 248.862 431.995 248.739 432.078C248.179 432.389 246.898 432.091 245.268 431.27H245.231Z" fill="#7D97F4"/>
<path opacity="0.2" d="M239.382 407.397L249.347 408.119L245.776 421.131L235.924 419.925L239.382 407.397Z" fill="black"/>
<path d="M252.732 419.526L235.117 414.364C235.117 414.364 245.604 355.174 256.265 334.648C255.469 334.387 254.412 334.051 253.106 333.666C250.754 332.957 247.632 332.073 243.962 331.053C218.46 323.975 166.697 310.701 166.697 310.701L190.333 288.608C190.333 288.608 284.479 302.964 286.432 327.769C287.365 339.736 252.732 419.526 252.732 419.526Z" fill="#7D97F4"/>
<path d="M232.902 414.75L254.05 420.733L257.845 411.938L234.507 405.818L232.902 414.75Z" fill="#457BFB"/>
<path opacity="0.2" d="M253.128 333.666C250.776 332.957 247.654 332.073 243.984 331.053C244.718 325.032 244.731 318.128 241.832 314.608C236.072 307.591 221.256 303.474 212.822 301.981C205.769 300.737 182.07 298.249 182.07 298.249C182.07 298.249 212.822 295.301 244.27 304.469C259.795 309.022 256.773 324.211 253.128 333.666Z" fill="black"/>
<path d="M149.604 297.814C145.872 294.965 149.455 268.468 147.551 242.393C144.653 202.722 150.885 189.797 153.771 188.553C158.052 187.68 162.403 187.201 166.771 187.122C174.781 186.826 182.802 186.996 190.793 187.632C196.26 188.313 201.667 189.415 206.965 190.929C206.965 190.929 220.064 232.603 211.692 292.626L149.604 297.814Z" fill="#7D97F4"/>
<g opacity="0.5">
<path d="M149.6 297.813C145.868 294.965 149.451 268.468 147.547 242.393C144.649 202.722 150.881 189.797 153.767 188.553C158.048 187.68 162.399 187.201 166.767 187.122C174.777 186.826 182.798 186.996 190.789 187.632C196.256 188.313 201.663 189.415 206.961 190.929C206.961 190.929 220.06 232.603 211.688 292.626L149.6 297.813Z" fill="black"/>
</g>
<path d="M169.767 160.19C171.111 167.94 172.318 182.134 166.807 187.185C169.042 189.589 171.732 191.526 174.722 192.882C177.712 194.238 180.941 194.987 184.223 195.084C194.175 195.519 190.816 187.695 190.816 187.695C182.245 185.455 182.605 179.061 184.235 173.09L169.767 160.19Z" fill="#E2877B"/>
<path opacity="0.2" d="M175.665 165.452L184.236 173.102C183.833 174.489 183.554 175.909 183.402 177.345C180.118 176.797 175.677 173.09 175.404 169.632C175.229 168.234 175.317 166.817 175.665 165.452Z" fill="black"/>
<path d="M197.56 149.852C197.56 149.852 205.434 151.519 206.516 146.605C207.599 141.692 205.646 140.846 207.984 138.482C210.323 136.118 208.818 128.045 202.784 129.637C196.751 131.23 193.591 122.932 188.59 124.064C183.589 125.196 182.818 128.679 179.671 129.5C176.523 130.321 170.279 126.254 166.273 128.667C162.267 131.08 165.352 136.255 163.996 138.233C162.64 140.211 159.331 145.249 163.996 152.639C168.276 159.406 162.951 162.802 160.19 162.168C160.094 162.142 159.993 162.139 159.895 162.16C159.798 162.181 159.707 162.225 159.63 162.288C159.554 162.352 159.493 162.433 159.454 162.524C159.415 162.616 159.399 162.715 159.406 162.815C159.481 163.598 159.941 164.706 161.819 165.402C164.954 166.572 165.551 164.867 166.273 165.763C166.994 166.659 168.562 169.607 173.737 166.584C178.912 163.561 181.437 144.441 197.56 149.852Z" fill="#263238"/>
<path d="M197.671 161.023C196.775 166.198 192.894 177.046 181.91 173.737C170.925 170.428 170.428 161.72 170.278 159.232C170.129 156.744 172.418 137.313 179.447 135.472C186.475 133.63 194.997 135.907 197.671 139.913C200.346 143.918 197.671 161.023 197.671 161.023Z" fill="#E2877B"/>
<path d="M184.999 153.087C184.813 153.845 185.173 154.567 185.683 154.654C186.193 154.741 186.716 154.169 186.853 153.41C186.989 152.651 186.666 151.93 186.168 151.855C185.671 151.78 185.136 152.303 184.999 153.087Z" fill="#263238"/>
<path d="M193.677 154.592C193.49 155.351 193.851 156.072 194.361 156.147C194.871 156.222 195.381 155.674 195.518 154.903C195.655 154.132 195.344 153.423 194.834 153.335C194.324 153.248 193.801 153.858 193.677 154.592Z" fill="#263238"/>
<path d="M190.932 154.492C191.456 157.028 192.323 159.48 193.507 161.782C192.902 162.062 192.245 162.207 191.579 162.207C190.913 162.207 190.255 162.062 189.65 161.782L190.932 154.492Z" fill="#DC5753"/>
<path d="M188.354 148.223C188.279 148.182 188.196 148.161 188.111 148.161C188.027 148.161 187.943 148.182 187.869 148.223C187.394 148.557 186.848 148.777 186.273 148.863C185.699 148.949 185.112 148.9 184.56 148.72C184.504 148.695 184.444 148.682 184.384 148.68C184.323 148.679 184.262 148.689 184.206 148.711C184.149 148.733 184.097 148.766 184.053 148.808C184.01 148.85 183.974 148.901 183.95 148.957C183.926 149.013 183.913 149.073 183.912 149.135C183.911 149.196 183.923 149.257 183.946 149.314C183.969 149.37 184.004 149.422 184.047 149.465C184.091 149.509 184.142 149.543 184.199 149.566C184.891 149.812 185.631 149.888 186.358 149.789C187.086 149.689 187.779 149.416 188.379 148.994C188.48 148.927 188.552 148.825 188.58 148.706C188.608 148.588 188.589 148.464 188.528 148.359C188.475 148.307 188.417 148.262 188.354 148.223Z" fill="#263238"/>
<path d="M183.989 165.178C185.068 164.81 186.22 164.706 187.348 164.874C188.475 165.043 189.546 165.48 190.47 166.149C190.494 166.171 190.514 166.198 190.527 166.228C190.54 166.258 190.547 166.29 190.547 166.323C190.547 166.355 190.54 166.388 190.527 166.418C190.514 166.448 190.494 166.475 190.47 166.497C190.424 166.539 190.364 166.562 190.302 166.562C190.24 166.562 190.18 166.539 190.134 166.497C189.269 165.89 188.273 165.495 187.228 165.344C186.182 165.193 185.115 165.289 184.113 165.626C184.052 165.643 183.987 165.638 183.93 165.61C183.872 165.583 183.827 165.535 183.802 165.477C183.79 165.448 183.785 165.418 183.785 165.387C183.786 165.356 183.793 165.326 183.806 165.298C183.818 165.27 183.837 165.245 183.86 165.224C183.883 165.203 183.91 165.188 183.939 165.178H183.989Z" fill="#263238"/>
<path d="M194.836 148.77C194.747 148.745 194.652 148.745 194.563 148.77C194.506 148.792 194.455 148.825 194.411 148.867C194.367 148.909 194.332 148.959 194.308 149.014C194.284 149.07 194.271 149.129 194.27 149.19C194.268 149.251 194.279 149.311 194.301 149.367C194.56 150.055 194.98 150.672 195.525 151.165C196.07 151.659 196.726 152.015 197.436 152.203C197.556 152.226 197.681 152.201 197.783 152.133C197.885 152.066 197.957 151.962 197.984 151.843C198.006 151.722 197.981 151.598 197.914 151.496C197.846 151.394 197.742 151.322 197.623 151.295C197.057 151.136 196.537 150.846 196.105 150.449C195.672 150.051 195.34 149.557 195.135 149.006C195.07 148.892 194.963 148.807 194.836 148.77Z" fill="#263238"/>
<path d="M202.897 139.514C205.186 142.214 197.747 146.021 194.849 143.956C192.361 142.164 189.649 140.099 186.365 142.065C183.081 144.03 182.77 142.313 180.505 142.313C178.241 142.313 181.401 147.165 178.279 149.305C176.487 150.549 173.912 151.158 174.721 153.335C175.529 155.512 174.323 158.548 171.213 157.988C171.213 157.988 174.124 157.167 172.308 154.194C170.491 151.221 168.924 152.95 168.924 152.95C168.924 152.95 169.795 136.566 177.632 133.556C185.469 130.545 199.116 135.061 202.897 139.514Z" fill="#263238"/>
<path d="M173.24 154.256C173.24 154.256 171.274 148.82 166.261 148.807C162.218 148.807 161.646 153.783 163.474 157.329C164.893 160.003 169.259 163.126 172.431 159.817C174.31 157.839 173.24 154.256 173.24 154.256Z" fill="#E2877B"/>
<path d="M187.483 250.405C187.483 250.405 221.916 261.265 223.894 261.725C225.872 262.185 235.526 260.369 237.305 260.767C239.084 261.165 241.248 269.96 241.236 271.876C241.223 273.792 226.171 273.755 224.915 273.12C223.537 272.199 222.25 271.15 221.071 269.985L184.684 262.596L187.483 250.405Z" fill="#E9B076"/>
<path d="M153.809 188.553C134.427 190.332 148.758 246.635 156.62 254.746C164.482 262.857 191.452 265.768 191.452 265.768L194.873 250.629C194.873 250.629 174.584 245.217 170.988 242.879C167.393 240.54 164.868 217.19 162.728 205.832C161.605 199.292 158.49 193.257 153.809 188.553Z" fill="#7D97F4"/>
<path opacity="0.6" d="M153.809 188.553C134.427 190.332 148.758 246.635 156.62 254.746C164.482 262.857 191.452 265.768 191.452 265.768L194.873 250.629C194.873 250.629 174.584 245.217 170.988 242.879C167.393 240.54 164.868 217.19 162.728 205.832C161.605 199.292 158.49 193.257 153.809 188.553Z" fill="black"/>
<path opacity="0.2" d="M206.841 423.93L228.773 425.373L230.651 415.981L206.555 414.861L206.841 423.93Z" fill="white"/>
<path opacity="0.2" d="M232.902 414.75L254.05 420.733L257.845 411.938L234.507 405.818L232.902 414.75Z" fill="white"/>
<path d="M244.085 429.852L233.275 426.841C233.097 426.782 232.902 426.796 232.734 426.88C232.567 426.964 232.439 427.111 232.379 427.289L229.468 435.698C229.406 435.923 229.389 436.158 229.418 436.389C229.447 436.62 229.521 436.844 229.637 437.046C229.753 437.248 229.907 437.426 230.092 437.568C230.276 437.711 230.487 437.815 230.712 437.875C234.444 438.858 236.348 439.119 241.112 440.438C244.036 441.247 249.733 443.113 253.9 443.585C258.068 444.058 258.416 439.928 256.699 439.368C252.619 438 247.743 433.745 245.615 430.859C245.234 430.36 244.695 430.005 244.085 429.852Z" fill="#263238"/>
<path d="M221.157 437.602C221.228 437.596 221.298 437.596 221.369 437.602C221.369 437.602 221.593 437.602 221.618 437.689C221.643 437.776 221.618 437.751 221.618 437.763H221.692C222.544 438.023 223.419 438.198 224.305 438.286C224.963 438.396 225.64 438.263 226.208 437.913C226.377 437.759 226.499 437.561 226.563 437.341C226.627 437.122 226.629 436.889 226.569 436.669C226.549 436.519 226.492 436.377 226.403 436.255C226.314 436.133 226.196 436.036 226.059 435.972C225.107 435.807 224.127 435.988 223.297 436.482C223.885 435.859 224.233 435.048 224.28 434.193C224.238 433.994 224.133 433.814 223.98 433.68C223.828 433.546 223.636 433.464 223.434 433.447C223.24 433.412 223.041 433.416 222.849 433.458C222.657 433.501 222.475 433.582 222.314 433.696C221.282 434.604 221.07 437.428 221.07 437.602H221.157ZM222.227 437.017L222.028 437.129C221.968 436.044 222.266 434.969 222.874 434.069C222.943 434.007 223.024 433.96 223.112 433.93C223.199 433.9 223.292 433.888 223.384 433.895H223.496C223.82 433.957 223.907 434.131 223.907 434.255C223.697 435.348 223.101 436.328 222.227 437.017ZM222.376 437.515C223.62 436.843 225.287 436.121 225.934 436.408C225.999 436.442 226.055 436.491 226.096 436.552C226.137 436.613 226.163 436.683 226.171 436.756C226.206 436.9 226.203 437.052 226.164 437.195C226.125 437.339 226.05 437.47 225.947 437.577C225.449 438 224.143 437.975 222.376 437.515Z" fill="#7D97F4"/>
<path d="M220.921 436.37L209.725 435.674C209.538 435.659 209.353 435.717 209.207 435.835C209.061 435.953 208.966 436.122 208.942 436.308L207.847 445.14C207.819 445.603 207.975 446.058 208.28 446.407C208.585 446.756 209.014 446.971 209.476 447.006C213.383 447.193 215.261 447.081 220.187 447.355C223.21 447.529 229.169 448.176 233.349 447.765C237.529 447.355 237.006 443.25 235.202 443.051C230.935 442.565 225.25 439.431 222.601 437.042C222.131 436.638 221.54 436.402 220.921 436.37Z" fill="#263238"/>
<path opacity="0.3" d="M192.896 207.412L208.359 205.969L209.143 209.987L193.842 212.127L192.896 207.412Z" fill="white"/>
<path d="M103.398 252.532H266.474V259.386C266.474 260.099 266.191 260.783 265.687 261.286C265.183 261.79 264.5 262.073 263.787 262.073H106.098C105.385 262.073 104.702 261.79 104.198 261.286C103.694 260.783 103.411 260.099 103.411 259.386V252.532H103.398Z" fill="#263238"/>
<path opacity="0.3" d="M103.398 252.532H266.474V259.386C266.474 260.099 266.191 260.783 265.687 261.286C265.183 261.79 264.5 262.073 263.787 262.073H106.098C105.385 262.073 104.702 261.79 104.198 261.286C103.694 260.783 103.411 260.099 103.411 259.386V252.532H103.398Z" fill="white"/>
<path opacity="0.2" d="M266.462 252.495H103.398V257.272H266.462V252.495Z" fill="black"/>
<path d="M271.189 253.776H98.6839C98.3299 253.778 97.9792 253.709 97.6517 253.575C97.3243 253.441 97.0266 253.243 96.7758 252.993C96.5249 252.744 96.3259 252.447 96.1901 252.12C96.0543 251.793 95.9844 251.443 95.9844 251.089C95.9877 250.375 96.2735 249.692 96.7794 249.188C97.2853 248.685 97.9701 248.402 98.6839 248.402H271.189C271.902 248.402 272.585 248.685 273.089 249.189C273.593 249.693 273.876 250.376 273.876 251.089C273.878 251.442 273.81 251.792 273.675 252.119C273.541 252.446 273.343 252.743 273.093 252.993C272.843 253.243 272.546 253.44 272.22 253.575C271.893 253.709 271.543 253.778 271.189 253.776Z" fill="#263238"/>
<path opacity="0.3" d="M271.189 253.776H98.6839C98.3299 253.778 97.9792 253.709 97.6517 253.575C97.3243 253.441 97.0266 253.243 96.7758 252.993C96.5249 252.744 96.3259 252.447 96.1901 252.12C96.0543 251.793 95.9844 251.443 95.9844 251.089C95.9877 250.375 96.2735 249.692 96.7794 249.188C97.2853 248.685 97.9701 248.402 98.6839 248.402H271.189C271.902 248.402 272.585 248.685 273.089 249.189C273.593 249.693 273.876 250.376 273.876 251.089C273.878 251.442 273.81 251.792 273.675 252.119C273.541 252.446 273.343 252.743 273.093 252.993C272.843 253.243 272.546 253.44 272.22 253.575C271.893 253.709 271.543 253.778 271.189 253.776Z" fill="white"/>
<path d="M107.417 447.915H177.939L177.939 262.049H107.417L107.417 447.915Z" fill="#263238"/>
<path opacity="0.2" d="M107.417 447.915H177.939L177.939 262.049H107.417L107.417 447.915Z" fill="white"/>
<path d="M322.915 262.049H177.939V447.915H322.915V262.049Z" fill="#263238"/>
<path opacity="0.39" d="M322.915 262.049H177.939V447.915H322.915V262.049Z" fill="white"/>
<path d="M174.979 252.532H325.602V259.386C325.602 260.099 325.319 260.783 324.815 261.286C324.311 261.79 323.628 262.073 322.915 262.073H177.666C176.953 262.073 176.269 261.79 175.766 261.286C175.262 260.783 174.979 260.099 174.979 259.386V252.532Z" fill="#263238"/>
<path opacity="0.6" d="M174.979 252.532H325.602V259.386C325.602 260.099 325.319 260.783 324.815 261.286C324.311 261.79 323.628 262.073 322.915 262.073H177.666C176.953 262.073 176.269 261.79 175.766 261.286C175.262 260.783 174.979 260.099 174.979 259.386V252.532Z" fill="white"/>
<path opacity="0.2" d="M325.602 252.495H174.979V257.272H325.602V252.495Z" fill="black"/>
<path d="M330.333 253.776H170.255C169.903 253.776 169.553 253.706 169.227 253.571C168.901 253.436 168.605 253.238 168.355 252.989C168.106 252.739 167.908 252.443 167.773 252.117C167.638 251.791 167.568 251.442 167.568 251.089C167.568 250.376 167.851 249.693 168.355 249.189C168.859 248.685 169.543 248.402 170.255 248.402H330.333C330.686 248.402 331.036 248.471 331.362 248.606C331.688 248.742 331.984 248.939 332.233 249.189C332.483 249.438 332.681 249.735 332.816 250.061C332.951 250.387 333.02 250.736 333.02 251.089C333.02 251.442 332.951 251.791 332.816 252.117C332.681 252.443 332.483 252.739 332.233 252.989C331.984 253.238 331.688 253.436 331.362 253.571C331.036 253.706 330.686 253.776 330.333 253.776Z" fill="#263238"/>
<path opacity="0.6" d="M330.333 253.776H170.255C169.903 253.776 169.553 253.706 169.227 253.571C168.901 253.436 168.605 253.238 168.355 252.989C168.106 252.739 167.908 252.443 167.773 252.117C167.638 251.791 167.568 251.442 167.568 251.089C167.568 250.376 167.851 249.693 168.355 249.189C168.859 248.685 169.543 248.402 170.255 248.402H330.333C330.686 248.402 331.036 248.471 331.362 248.606C331.688 248.742 331.984 248.939 332.233 249.189C332.483 249.438 332.681 249.735 332.816 250.061C332.951 250.387 333.02 250.736 333.02 251.089C333.02 251.442 332.951 251.791 332.816 252.117C332.681 252.443 332.483 252.739 332.233 252.989C331.984 253.238 331.688 253.436 331.362 253.571C331.036 253.706 330.686 253.776 330.333 253.776Z" fill="white"/>
<g opacity="0.3">
<path d="M295.744 427.165H204.832V277.089H295.744V427.165ZM212.856 419.141H287.72V285.112H212.856V419.141Z" fill="white"/>
<path d="M273.688 302.193H226.889V402.061H273.688V302.193Z" fill="white"/>
</g>
<path d="M312.666 185.256H258.427C255.789 185.256 253.65 187.395 253.65 190.033V228.075C253.65 230.713 255.789 232.852 258.427 232.852H312.666C315.304 232.852 317.443 230.713 317.443 228.075V190.033C317.443 187.395 315.304 185.256 312.666 185.256Z" fill="#7D97F4"/>
<path fill-rule="evenodd" clip-rule="evenodd" d="M309.085 204.24C309.085 204.24 326.849 217.016 348.781 199.811C348.781 199.811 328.877 228.212 302.43 214.59L309.085 204.24Z" fill="#7D97F4"/>
<path opacity="0.39" d="M312.479 227.863V190.22H258.638V227.863H312.479Z" fill="white"/>
<path fill-rule="evenodd" clip-rule="evenodd" d="M284.677 224.617C283.331 223.43 281.791 222.484 280.124 221.818C277.954 221.066 276.051 219.699 274.646 217.883C273.241 216.067 272.395 213.881 272.212 211.592C272.036 209.791 272.367 207.977 273.17 206.355C273.556 205.583 274.066 204.912 274.501 204.178C274.905 203.494 275.118 202.714 275.118 201.92C275.118 201.126 274.905 200.346 274.501 199.662C274.352 199.426 274.165 199.189 274.028 198.94C273.861 198.669 273.772 198.357 273.772 198.039C273.772 197.72 273.861 197.408 274.028 197.137C274.131 196.982 274.252 196.84 274.389 196.714L275.845 195.296C275.995 195.136 276.167 194.998 276.355 194.885C276.583 194.754 276.836 194.673 277.099 194.65C277.361 194.626 277.625 194.66 277.872 194.748C278.047 194.748 278.208 194.91 278.395 194.972C279.519 195.347 280.726 195.399 281.879 195.122C283.031 194.845 284.083 194.25 284.913 193.405C284.994 193.32 285.09 193.253 285.197 193.207C285.304 193.162 285.419 193.138 285.535 193.138C285.652 193.138 285.767 193.162 285.874 193.207C285.981 193.253 286.077 193.32 286.157 193.405C286.98 194.27 288.035 194.881 289.195 195.163C290.355 195.445 291.572 195.388 292.701 194.997C292.887 194.922 293.049 194.835 293.223 194.773C293.471 194.685 293.735 194.651 293.997 194.675C294.259 194.698 294.513 194.779 294.741 194.91C294.929 195.023 295.101 195.161 295.251 195.32L296.707 196.739C296.843 196.865 296.964 197.007 297.067 197.162C297.235 197.433 297.323 197.745 297.323 198.063C297.323 198.382 297.235 198.694 297.067 198.965C296.93 199.214 296.744 199.451 296.595 199.687C296.191 200.371 295.978 201.151 295.978 201.945C295.978 202.739 296.191 203.519 296.595 204.203C297.018 204.937 297.54 205.608 297.913 206.38C298.716 208.001 299.048 209.816 298.871 211.617C298.688 213.906 297.843 216.092 296.438 217.908C295.033 219.724 293.129 221.091 290.959 221.843C289.311 222.507 287.785 223.44 286.444 224.604C286.328 224.723 286.189 224.817 286.037 224.881C285.884 224.945 285.72 224.979 285.554 224.979C285.388 224.979 285.224 224.945 285.072 224.881C284.919 224.817 284.781 224.723 284.665 224.604L284.677 224.617Z" fill="#7D97F4"/>
<path opacity="0.3" fill-rule="evenodd" clip-rule="evenodd" d="M284.677 224.617C283.331 223.43 281.791 222.484 280.124 221.818C277.954 221.066 276.051 219.699 274.646 217.883C273.241 216.067 272.395 213.881 272.212 211.592C272.036 209.791 272.367 207.977 273.17 206.355C273.556 205.583 274.066 204.912 274.501 204.178C274.905 203.494 275.118 202.714 275.118 201.92C275.118 201.126 274.905 200.346 274.501 199.662C274.352 199.426 274.165 199.189 274.028 198.94C273.861 198.669 273.772 198.357 273.772 198.039C273.772 197.72 273.861 197.408 274.028 197.137C274.131 196.982 274.252 196.84 274.389 196.714L275.845 195.296C275.995 195.136 276.167 194.998 276.355 194.885C276.583 194.754 276.836 194.673 277.099 194.65C277.361 194.626 277.625 194.66 277.872 194.748C278.047 194.748 278.208 194.91 278.395 194.972C279.519 195.347 280.726 195.399 281.879 195.122C283.031 194.845 284.083 194.25 284.913 193.405C284.994 193.32 285.09 193.253 285.197 193.207C285.304 193.162 285.419 193.138 285.535 193.138C285.652 193.138 285.767 193.162 285.874 193.207C285.981 193.253 286.077 193.32 286.157 193.405C286.98 194.27 288.035 194.881 289.195 195.163C290.355 195.445 291.572 195.388 292.701 194.997C292.887 194.922 293.049 194.835 293.223 194.773C293.471 194.685 293.735 194.651 293.997 194.675C294.259 194.698 294.513 194.779 294.741 194.91C294.929 195.023 295.101 195.161 295.251 195.32L296.707 196.739C296.843 196.865 296.964 197.007 297.067 197.162C297.235 197.433 297.323 197.745 297.323 198.063C297.323 198.382 297.235 198.694 297.067 198.965C296.93 199.214 296.744 199.451 296.595 199.687C296.191 200.371 295.978 201.151 295.978 201.945C295.978 202.739 296.191 203.519 296.595 204.203C297.018 204.937 297.54 205.608 297.913 206.38C298.716 208.001 299.048 209.816 298.871 211.617C298.688 213.906 297.843 216.092 296.438 217.908C295.033 219.724 293.129 221.091 290.959 221.843C289.311 222.507 287.785 223.44 286.444 224.604C286.328 224.723 286.189 224.817 286.037 224.881C285.884 224.945 285.72 224.979 285.554 224.979C285.388 224.979 285.224 224.945 285.072 224.881C284.919 224.817 284.781 224.723 284.665 224.604L284.677 224.617Z" fill="black"/>
<path opacity="0.3" fill-rule="evenodd" clip-rule="evenodd" d="M285.545 220.188C286.132 219.808 286.738 219.459 287.362 219.143C288.369 218.621 289.439 218.222 290.447 217.7C291.654 217.104 292.7 216.225 293.494 215.137C293.946 214.508 294.294 213.811 294.527 213.072C294.907 211.931 295.005 210.715 294.813 209.527C294.565 208.567 294.144 207.66 293.569 206.852C292.807 205.727 292.286 204.457 292.039 203.12C291.835 201.738 291.981 200.327 292.462 199.015C292.051 199.09 291.635 199.14 291.218 199.164C289.225 199.259 287.246 198.789 285.508 197.808C284.92 198.134 284.304 198.404 283.667 198.617C282.053 199.156 280.334 199.301 278.654 199.04C279.214 200.57 279.313 202.231 278.94 203.817C278.644 204.86 278.186 205.851 277.584 206.753C276.889 207.741 276.438 208.879 276.265 210.074C276.131 211.561 276.438 213.053 277.148 214.366C277.676 215.335 278.4 216.183 279.276 216.854C279.973 217.344 280.719 217.761 281.502 218.098C282.249 218.434 283.008 218.795 283.791 219.193C284.575 219.591 285.035 219.852 285.583 220.225L285.545 220.188Z" fill="black"/>
<path opacity="0.5" fill-rule="evenodd" clip-rule="evenodd" d="M288.047 220.449C287.748 220.599 287.462 220.76 287.176 220.934C286.683 221.228 286.12 221.383 285.546 221.383C284.972 221.383 284.409 221.228 283.916 220.934C283.63 220.773 283.357 220.611 283.058 220.462C282.361 220.101 281.59 219.74 280.831 219.392C279.954 219.023 279.12 218.56 278.343 218.011C277.314 217.211 276.466 216.202 275.855 215.05C275.729 214.825 275.616 214.593 275.519 214.354C274.926 212.975 274.683 211.47 274.81 209.975C275.008 208.569 275.527 207.228 276.328 206.056C276.863 205.293 277.283 204.454 277.572 203.568C277.855 202.376 277.812 201.13 277.448 199.961C277.308 199.528 277.124 199.112 276.9 198.717L276.639 198.244L277.522 197.385L277.945 197.522C279.708 198.049 281.59 198.014 283.332 197.423C283.684 197.302 284.029 197.161 284.364 197C284.781 196.804 285.235 196.702 285.695 196.702C286.156 196.702 286.61 196.804 287.026 197C288.353 197.631 289.814 197.926 291.281 197.858C292.129 197.798 292.966 197.627 293.769 197.348L294.64 198.207C294.318 198.761 294.047 199.344 293.831 199.948C293.523 200.946 293.442 202 293.595 203.033C293.81 204.186 294.268 205.28 294.938 206.243C295.596 207.2 296.069 208.271 296.332 209.403C296.567 210.814 296.456 212.261 296.008 213.62C295.722 214.507 295.302 215.346 294.764 216.108C293.825 217.384 292.597 218.419 291.181 219.131C290.174 219.641 289.104 220.039 288.096 220.561L288.047 220.449Z" fill="black"/>
<path fill-rule="evenodd" clip-rule="evenodd" d="M285.548 204.675C286.611 204.675 287.65 204.991 288.534 205.581C289.417 206.172 290.106 207.011 290.513 207.993C290.92 208.975 291.026 210.055 290.819 211.098C290.611 212.14 290.1 213.098 289.348 213.849C288.596 214.601 287.639 215.113 286.596 215.32C285.554 215.528 284.473 215.421 283.491 215.014C282.509 214.608 281.67 213.919 281.08 213.035C280.489 212.151 280.174 211.112 280.174 210.049C280.174 208.624 280.74 207.257 281.748 206.249C282.756 205.242 284.123 204.675 285.548 204.675Z" fill="#7D97F4"/>
<path opacity="0.5" fill-rule="evenodd" clip-rule="evenodd" d="M285.548 204.675C286.611 204.675 287.65 204.991 288.534 205.581C289.417 206.172 290.106 207.011 290.513 207.993C290.92 208.975 291.026 210.055 290.819 211.098C290.611 212.14 290.1 213.098 289.348 213.849C288.596 214.601 287.639 215.113 286.596 215.32C285.554 215.528 284.473 215.421 283.491 215.014C282.509 214.608 281.67 213.919 281.08 213.035C280.489 212.151 280.174 211.112 280.174 210.049C280.174 208.624 280.74 207.257 281.748 206.249C282.756 205.242 284.123 204.675 285.548 204.675Z" fill="black"/>
<path d="M565.246 162.591H503.382C500.373 162.591 497.934 165.03 497.934 168.039V211.43C497.934 214.439 500.373 216.879 503.382 216.879H565.246C568.256 216.879 570.695 214.439 570.695 211.43V168.039C570.695 165.03 568.256 162.591 565.246 162.591Z" fill="#7D97F4"/>
<path fill-rule="evenodd" clip-rule="evenodd" d="M507.812 182.358C507.812 182.358 495.608 200.52 469.049 192.024C469.049 192.024 497.599 211.716 517.652 189.747L507.812 182.358Z" fill="#7D97F4"/>
<path opacity="0.39" d="M565.734 211.418V168.027C565.734 167.766 565.523 167.554 565.262 167.554H503.385C503.124 167.554 502.912 167.766 502.912 168.027V211.418C502.912 211.679 503.124 211.89 503.385 211.89H565.262C565.523 211.89 565.734 211.679 565.734 211.418Z" fill="white"/>
<path d="M514.073 205.857C513.345 205.681 512.676 205.315 512.134 204.798C511.593 204.28 511.197 203.628 510.988 202.909V202.722L529.847 183.863L532.982 186.998L514.073 205.857Z" fill="#7D97F4"/>
<path opacity="0.5" d="M514.073 205.857C513.345 205.681 512.676 205.315 512.134 204.798C511.593 204.28 511.197 203.628 510.988 202.909V202.722L529.847 183.863L532.982 186.998L514.073 205.857Z" fill="black"/>
<path d="M535.175 185.57L531.217 181.612L527.408 185.421L531.366 189.379L535.175 185.57Z" fill="#7D97F4"/>
<path opacity="0.7" d="M535.175 185.57L531.217 181.612L527.408 185.421L531.366 189.379L535.175 185.57Z" fill="black"/>
<path d="M543.848 184.848L531.938 172.937L525.648 179.227L537.558 191.137L543.848 184.848Z" fill="#7D97F4"/>
<path opacity="0.3" d="M543.848 184.848L531.938 172.937L525.648 179.227L537.558 191.137L543.848 184.848Z" fill="black"/>
<path d="M533.571 173.077L531.706 171.212C531.22 170.726 530.432 170.726 529.947 171.212L523.93 177.229C523.444 177.714 523.444 178.502 523.93 178.988L525.795 180.853C526.28 181.339 527.068 181.339 527.554 180.853L533.571 174.836C534.056 174.35 534.056 173.563 533.571 173.077Z" fill="#7D97F4"/>
<path d="M545.565 185.087L543.7 183.222C543.214 182.736 542.426 182.736 541.941 183.222L535.924 189.238C535.438 189.724 535.438 190.512 535.924 190.998L537.789 192.863C538.275 193.348 539.062 193.348 539.548 192.863L545.565 186.846C546.051 186.36 546.051 185.572 545.565 185.087Z" fill="#7D97F4"/>
<g opacity="0.5">
<path d="M533.575 173.077L531.71 171.212C531.224 170.726 530.436 170.726 529.95 171.212L523.934 177.229C523.448 177.714 523.448 178.502 523.934 178.988L525.799 180.853C526.284 181.339 527.072 181.339 527.558 180.853L533.575 174.836C534.06 174.35 534.06 173.563 533.575 173.077Z" fill="black"/>
<path d="M545.575 185.087L543.71 183.222C543.224 182.736 542.436 182.736 541.95 183.222L535.934 189.238C535.448 189.724 535.448 190.512 535.934 190.998L537.799 192.863C538.284 193.348 539.072 193.348 539.558 192.863L545.575 186.846C546.06 186.36 546.06 185.572 545.575 185.087Z" fill="black"/>
</g>
<path d="M535.142 196.701H551.09C551.293 196.701 551.493 196.741 551.681 196.819C551.868 196.896 552.038 197.01 552.181 197.153C552.324 197.296 552.438 197.466 552.515 197.653C552.593 197.841 552.633 198.041 552.633 198.244V202.772H533.6V198.219C533.606 197.814 533.772 197.428 534.06 197.144C534.349 196.86 534.737 196.701 535.142 196.701Z" fill="#7D97F4"/>
<path opacity="0.3" d="M535.142 196.701H551.09C551.293 196.701 551.493 196.741 551.681 196.819C551.868 196.896 552.038 197.01 552.181 197.153C552.324 197.296 552.438 197.466 552.515 197.653C552.593 197.841 552.633 198.041 552.633 198.244V202.772H533.6V198.219C533.606 197.814 533.772 197.428 534.06 197.144C534.349 196.86 534.737 196.701 535.142 196.701Z" fill="black"/>
<path d="M553.009 202.523H533.205C532.771 202.523 532.355 202.694 532.048 203C531.74 203.305 531.566 203.719 531.562 204.153C531.562 204.588 531.736 205.006 532.043 205.314C532.351 205.622 532.769 205.795 533.205 205.795H553.009C553.445 205.795 553.862 205.622 554.17 205.314C554.478 205.006 554.651 204.588 554.651 204.153C554.648 203.719 554.473 203.305 554.166 203C553.858 202.694 553.442 202.523 553.009 202.523Z" fill="#7D97F4"/>
<path opacity="0.5" d="M553.009 202.523H533.205C532.771 202.523 532.355 202.694 532.048 203C531.74 203.305 531.566 203.719 531.562 204.153C531.562 204.588 531.736 205.006 532.043 205.314C532.351 205.622 532.769 205.795 533.205 205.795H553.009C553.445 205.795 553.862 205.622 554.17 205.314C554.478 205.006 554.651 204.588 554.651 204.153C554.648 203.719 554.473 203.305 554.166 203C553.858 202.694 553.442 202.523 553.009 202.523Z" fill="black"/>
<path d="M294.577 41.8606H210.968C206.901 41.8606 203.604 45.1578 203.604 49.2251V107.855C203.604 111.922 206.901 115.219 210.968 115.219H294.577C298.645 115.219 301.942 111.922 301.942 107.855V49.2251C301.942 45.1578 298.645 41.8606 294.577 41.8606Z" fill="#7D97F4"/>
<path fill-rule="evenodd" clip-rule="evenodd" d="M287.1 101.411C287.1 101.411 285.06 123.156 310.997 133.419C310.997 133.419 276.427 130.608 274.797 100.913L287.1 101.411Z" fill="#7D97F4"/>
<path opacity="0.39" d="M296.967 107.855V49.2251C296.967 47.9059 295.897 46.8366 294.578 46.8366L210.969 46.8366C209.65 46.8366 208.581 47.9059 208.581 49.2251V107.855C208.581 109.174 209.65 110.243 210.969 110.243H294.578C295.897 110.243 296.967 109.174 296.967 107.855Z" fill="white"/>
<path d="M242.205 79.9643C241.657 81.3914 240.688 82.6187 239.428 83.4844C238.168 84.3501 236.675 84.8135 235.146 84.8135C233.617 84.8135 232.124 84.3501 230.863 83.4844C229.603 82.6187 228.635 81.3914 228.086 79.9643H242.205Z" fill="#7D97F4"/>
<path opacity="0.5" d="M242.205 79.9643C241.657 81.3914 240.688 82.6187 239.428 83.4844C238.168 84.3501 236.675 84.8135 235.146 84.8135C233.617 84.8135 232.124 84.3501 230.863 83.4844C229.603 82.6187 228.635 81.3914 228.086 79.9643H242.205Z" fill="black"/>
<path d="M242.208 78.9691C242.162 78.9681 242.117 78.9549 242.078 78.9309C242.038 78.9068 242.006 78.8728 241.984 78.8323L235.117 65.7827L228.275 78.8323C228.243 78.8928 228.189 78.9385 228.124 78.9594C228.059 78.9804 227.988 78.9749 227.927 78.9442C227.866 78.9124 227.821 78.8581 227.8 78.793C227.779 78.7278 227.784 78.6571 227.815 78.5959L234.881 65.1234C234.906 65.0849 234.94 65.0532 234.98 65.0313C235.02 65.0093 235.065 64.9978 235.111 64.9978C235.157 64.9978 235.202 65.0093 235.242 65.0313C235.282 65.0532 235.316 65.0849 235.341 65.1234L242.407 78.5959C242.438 78.6571 242.443 78.7278 242.422 78.793C242.401 78.8581 242.356 78.9124 242.295 78.9442L242.208 78.9691Z" fill="#7D97F4"/>
<g opacity="0.7">
<path d="M242.206 78.9691C242.16 78.9681 242.115 78.9549 242.076 78.9308C242.036 78.9068 242.004 78.8728 241.982 78.8323L235.115 65.7827L228.273 78.8323C228.241 78.8928 228.187 78.9384 228.122 78.9594C228.057 78.9803 227.986 78.9749 227.925 78.9442C227.864 78.9124 227.819 78.8581 227.798 78.7929C227.777 78.7278 227.782 78.657 227.813 78.5959L234.879 65.1234C234.904 65.0849 234.938 65.0532 234.978 65.0312C235.018 65.0093 235.063 64.9978 235.109 64.9978C235.155 64.9978 235.2 65.0093 235.24 65.0312C235.28 65.0532 235.314 65.0849 235.339 65.1234L242.405 78.5959C242.436 78.657 242.441 78.7278 242.42 78.7929C242.399 78.8581 242.354 78.9124 242.293 78.9442L242.206 78.9691Z" fill="black"/>
</g>
<path d="M235.115 79.616C235.081 79.6177 235.047 79.6125 235.016 79.6008C234.984 79.589 234.955 79.571 234.931 79.5477C234.906 79.5244 234.887 79.4964 234.874 79.4654C234.86 79.4344 234.853 79.401 234.854 79.3672V65.2354C234.853 65.2016 234.86 65.1682 234.874 65.1372C234.887 65.1062 234.906 65.0782 234.931 65.0549C234.955 65.0316 234.984 65.0136 235.016 65.0018C235.047 64.9901 235.081 64.9849 235.115 64.9866C235.181 64.9866 235.244 65.0128 235.291 65.0594C235.337 65.1061 235.364 65.1694 235.364 65.2354V79.3423C235.367 79.377 235.363 79.4121 235.352 79.4452C235.341 79.4783 235.324 79.5088 235.3 79.5346C235.277 79.5604 235.248 79.581 235.216 79.595C235.184 79.609 235.15 79.6162 235.115 79.616Z" fill="#7D97F4"/>
<g opacity="0.7">
<path d="M235.117 79.616C235.083 79.6177 235.049 79.6125 235.018 79.6007C234.986 79.589 234.957 79.5709 234.933 79.5477C234.908 79.5244 234.889 79.4964 234.876 79.4654C234.862 79.4343 234.855 79.4009 234.855 79.3672V65.2354C234.855 65.2016 234.862 65.1682 234.876 65.1372C234.889 65.1062 234.908 65.0781 234.933 65.0549C234.957 65.0316 234.986 65.0135 235.018 65.0018C235.049 64.9901 235.083 64.9849 235.117 64.9865C235.183 64.9865 235.246 65.0128 235.293 65.0594C235.339 65.1061 235.366 65.1694 235.366 65.2354V79.3423C235.369 79.377 235.365 79.4121 235.354 79.4452C235.343 79.4783 235.326 79.5088 235.302 79.5346C235.279 79.5604 235.25 79.5809 235.218 79.595C235.186 79.609 235.152 79.6162 235.117 79.616Z" fill="black"/>
</g>
<path d="M243.225 78.7079H227.078V79.9644H243.225V78.7079Z" fill="#7D97F4"/>
<path opacity="0.3" d="M243.225 78.7079H227.078V79.9644H243.225V78.7079Z" fill="black"/>
<path d="M277.161 79.9643C276.61 81.3903 275.64 82.6161 274.378 83.4805C273.117 84.3449 271.624 84.8075 270.095 84.8075C268.566 84.8075 267.073 84.3449 265.812 83.4805C264.551 82.6161 263.581 81.3903 263.029 79.9643H277.161Z" fill="#7D97F4"/>
<path opacity="0.5" d="M277.161 79.9643C276.61 81.3903 275.64 82.6161 274.378 83.4805C273.117 84.3449 271.624 84.8075 270.095 84.8075C268.566 84.8075 267.073 84.3449 265.812 83.4805C264.551 82.6161 263.581 81.3903 263.029 79.9643H277.161Z" fill="black"/>
<path d="M277.16 78.9691C277.114 78.971 277.068 78.959 277.028 78.9346C276.988 78.9103 276.956 78.8747 276.936 78.8323L270.094 65.7827L263.252 78.8323C263.237 78.8617 263.216 78.8878 263.19 78.909C263.165 78.9302 263.135 78.9462 263.103 78.956C263.072 78.9658 263.038 78.9693 263.005 78.9662C262.972 78.9631 262.94 78.9536 262.91 78.938C262.881 78.9225 262.855 78.9014 262.834 78.8758C262.812 78.8502 262.796 78.8206 262.787 78.7889C262.777 78.7571 262.773 78.7237 262.776 78.6906C262.78 78.6575 262.789 78.6253 262.805 78.5959L269.871 65.1234C269.894 65.0848 269.927 65.0528 269.966 65.0306C270.005 65.0084 270.049 64.9967 270.094 64.9967C270.14 64.9967 270.184 65.0084 270.223 65.0306C270.262 65.0528 270.295 65.0848 270.318 65.1234L277.409 78.5959C277.44 78.6571 277.445 78.7278 277.424 78.793C277.403 78.8581 277.358 78.9124 277.297 78.9442L277.16 78.9691Z" fill="#7D97F4"/>
<g opacity="0.7">
<path d="M277.16 78.9692C277.114 78.971 277.068 78.959 277.028 78.9347C276.988 78.9103 276.956 78.8747 276.936 78.8323L270.094 65.7828L263.252 78.8323C263.237 78.8617 263.216 78.8878 263.19 78.909C263.165 78.9302 263.135 78.9462 263.103 78.956C263.072 78.9659 263.038 78.9693 263.005 78.9662C262.972 78.9632 262.94 78.9536 262.91 78.9381C262.881 78.9225 262.855 78.9014 262.834 78.8758C262.812 78.8502 262.796 78.8207 262.787 78.7889C262.777 78.7571 262.773 78.7238 262.776 78.6906C262.78 78.6575 262.789 78.6254 262.805 78.596L269.871 65.1234C269.894 65.0848 269.927 65.0528 269.966 65.0306C270.005 65.0084 270.049 64.9968 270.094 64.9968C270.14 64.9968 270.184 65.0084 270.223 65.0306C270.262 65.0528 270.295 65.0848 270.318 65.1234L277.409 78.596C277.44 78.6571 277.445 78.7279 277.424 78.793C277.403 78.8581 277.358 78.9124 277.297 78.9443L277.16 78.9692Z" fill="black"/>
</g>
<path d="M270.093 79.616C270.026 79.6161 269.961 79.5903 269.913 79.544C269.864 79.4976 269.835 79.4343 269.832 79.3672V65.2354C269.835 65.1683 269.864 65.105 269.913 65.0586C269.961 65.0123 270.026 64.9865 270.093 64.9866C270.159 64.9866 270.223 65.0128 270.269 65.0594C270.316 65.1061 270.342 65.1694 270.342 65.2354V79.3423C270.346 79.377 270.342 79.4121 270.331 79.4452C270.32 79.4783 270.302 79.5088 270.279 79.5346C270.255 79.5604 270.227 79.581 270.195 79.595C270.163 79.609 270.128 79.6162 270.093 79.616Z" fill="#7D97F4"/>
<g opacity="0.7">
<path d="M270.091 79.616C270.024 79.6161 269.959 79.5903 269.911 79.5439C269.862 79.4976 269.833 79.4343 269.83 79.3672V65.2353C269.833 65.1682 269.862 65.1049 269.911 65.0586C269.959 65.0123 270.024 64.9865 270.091 64.9865C270.157 64.9865 270.221 65.0128 270.267 65.0594C270.314 65.1061 270.34 65.1694 270.34 65.2353V79.3423C270.344 79.377 270.34 79.4121 270.329 79.4452C270.318 79.4783 270.3 79.5087 270.277 79.5346C270.253 79.5604 270.225 79.5809 270.193 79.595C270.161 79.609 270.126 79.6162 270.091 79.616Z" fill="black"/>
</g>
<path d="M278.169 78.7079H262.021V79.9644H278.169V78.7079Z" fill="#7D97F4"/>
<path opacity="0.3" d="M278.169 78.7079H262.021V79.9644H278.169V78.7079Z" fill="black"/>
<path d="M252.53 60.956V63.556C249.893 63.556 246.907 65.0488 244.531 66.3674C242.979 67.2132 241.219 67.6014 239.456 67.487C237.341 67.1585 235.332 66.3453 233.584 65.111V63.6555C235.273 64.8608 237.271 65.5599 239.344 65.6708C241.227 65.5726 243.036 64.9045 244.531 63.755C246.924 62.173 249.673 61.2111 252.53 60.956Z" fill="#7D97F4"/>
<path opacity="0.3" d="M252.53 60.956V63.556C249.893 63.556 246.907 65.0488 244.531 66.3674C242.979 67.2132 241.219 67.6014 239.456 67.487C237.341 67.1585 235.332 66.3453 233.584 65.111V63.6555C235.273 64.8608 237.271 65.5599 239.344 65.6708C241.227 65.5726 243.036 64.9045 244.531 63.755C246.924 62.173 249.673 61.2111 252.53 60.956Z" fill="black"/>
<path d="M235.115 64.2277C235.115 64.523 235.027 64.8116 234.863 65.0571C234.699 65.3026 234.466 65.4939 234.193 65.6069C233.92 65.7199 233.62 65.7495 233.33 65.6919C233.041 65.6343 232.775 65.4921 232.566 65.2833C232.357 65.0745 232.215 64.8085 232.158 64.519C232.1 64.2294 232.13 63.9292 232.243 63.6565C232.356 63.3837 232.547 63.1506 232.792 62.9865C233.038 62.8225 233.326 62.7349 233.622 62.7349C233.818 62.7333 234.013 62.7708 234.195 62.8452C234.377 62.9196 234.542 63.0295 234.681 63.1685C234.82 63.3074 234.93 63.4727 235.004 63.6545C235.079 63.8364 235.116 64.0312 235.115 64.2277Z" fill="#7D97F4"/>
<path opacity="0.5" d="M235.115 64.2277C235.115 64.523 235.027 64.8116 234.863 65.0571C234.699 65.3026 234.466 65.4939 234.193 65.6069C233.92 65.7199 233.62 65.7495 233.33 65.6919C233.041 65.6343 232.775 65.4921 232.566 65.2833C232.357 65.0745 232.215 64.8085 232.158 64.519C232.1 64.2294 232.13 63.9292 232.243 63.6565C232.356 63.3837 232.547 63.1506 232.792 62.9865C233.038 62.8225 233.326 62.7349 233.622 62.7349C233.818 62.7333 234.013 62.7708 234.195 62.8452C234.377 62.9196 234.542 63.0295 234.681 63.1685C234.82 63.3074 234.93 63.4727 235.004 63.6545C235.079 63.8364 235.116 64.0312 235.115 64.2277Z" fill="black"/>
<path d="M252.529 60.956V63.556C255.167 63.556 258.152 65.0488 260.541 66.3674C262.092 67.2145 263.852 67.6028 265.616 67.487C267.729 67.1542 269.738 66.3413 271.488 65.111V63.6555C269.793 64.8594 267.792 65.5581 265.716 65.6708C263.836 65.5725 262.031 64.9043 260.541 63.755C258.142 62.1757 255.39 61.2142 252.529 60.956Z" fill="#7D97F4"/>
<path opacity="0.3" d="M252.529 60.956V63.556C255.167 63.556 258.152 65.0488 260.541 66.3674C262.092 67.2145 263.852 67.6028 265.616 67.487C267.729 67.1542 269.738 66.3413 271.488 65.111V63.6555C269.793 64.8594 267.792 65.5581 265.716 65.6708C263.836 65.5725 262.031 64.9043 260.541 63.755C258.142 62.1757 255.39 61.2142 252.529 60.956Z" fill="black"/>
<path d="M270.096 64.2277C270.098 64.5199 270.187 64.8049 270.351 65.0467C270.515 65.2885 270.747 65.4763 271.018 65.5865C271.289 65.6966 271.586 65.7242 271.872 65.6656C272.159 65.6071 272.421 65.4652 272.627 65.2576C272.833 65.0501 272.973 64.7863 273.029 64.4995C273.085 64.2127 273.055 63.9157 272.943 63.6459C272.83 63.3761 272.64 63.1457 272.397 62.9835C272.154 62.8214 271.868 62.7349 271.576 62.7349C271.381 62.7349 271.187 62.7736 271.007 62.8488C270.826 62.9239 270.663 63.0341 270.525 63.1729C270.387 63.3117 270.279 63.4763 270.205 63.6574C270.131 63.8384 270.094 64.0322 270.096 64.2277Z" fill="#7D97F4"/>
<path opacity="0.5" d="M270.096 64.2277C270.098 64.5199 270.187 64.8049 270.351 65.0467C270.515 65.2885 270.747 65.4763 271.018 65.5865C271.289 65.6966 271.586 65.7242 271.872 65.6656C272.159 65.6071 272.421 65.4652 272.627 65.2576C272.833 65.0501 272.973 64.7863 273.029 64.4995C273.085 64.2127 273.055 63.9157 272.943 63.6459C272.83 63.3761 272.64 63.1457 272.397 62.9835C272.154 62.8214 271.868 62.7349 271.576 62.7349C271.381 62.7349 271.187 62.7736 271.007 62.8488C270.826 62.9239 270.663 63.0341 270.525 63.1729C270.387 63.3117 270.279 63.4763 270.205 63.6574C270.131 63.8384 270.094 64.0322 270.096 64.2277Z" fill="black"/>
<path d="M254.435 56.4278H250.666V94.9918H254.435V56.4278Z" fill="#7D97F4"/>
<path opacity="0.7" d="M254.435 56.4278H250.666V94.9918H254.435V56.4278Z" fill="black"/>
<path d="M255.738 62.7225C255.738 63.3548 255.55 63.9729 255.199 64.4987C254.848 65.0244 254.348 65.4342 253.764 65.6762C253.18 65.9182 252.537 65.9815 251.917 65.8581C251.297 65.7348 250.727 65.4303 250.28 64.9831C249.833 64.536 249.529 63.9664 249.405 63.3462C249.282 62.726 249.345 62.0832 249.587 61.499C249.829 60.9148 250.239 60.4155 250.765 60.0642C251.29 59.7129 251.909 59.5254 252.541 59.5254C252.961 59.5237 253.378 59.6053 253.766 59.7654C254.155 59.9255 254.508 60.1609 254.805 60.4581C255.102 60.7553 255.338 61.1084 255.498 61.4971C255.658 61.8857 255.74 62.3022 255.738 62.7225Z" fill="#7D97F4"/>
<path opacity="0.5" d="M255.738 62.7225C255.738 63.3548 255.55 63.9729 255.199 64.4987C254.848 65.0244 254.348 65.4342 253.764 65.6762C253.18 65.9182 252.537 65.9815 251.917 65.8581C251.297 65.7348 250.727 65.4303 250.28 64.9831C249.833 64.536 249.529 63.9664 249.405 63.3462C249.282 62.726 249.345 62.0832 249.587 61.499C249.829 60.9148 250.239 60.4155 250.765 60.0642C251.29 59.7129 251.909 59.5254 252.541 59.5254C252.961 59.5237 253.378 59.6053 253.766 59.7654C254.155 59.9255 254.508 60.1609 254.805 60.4581C255.102 60.7553 255.338 61.1084 255.498 61.4971C255.658 61.8857 255.74 62.3022 255.738 62.7225Z" fill="black"/>
<path d="M255.015 54.1762C255.015 54.6683 254.869 55.1493 254.596 55.5584C254.322 55.9676 253.934 56.2865 253.479 56.4748C253.025 56.6631 252.524 56.7124 252.042 56.6164C251.559 56.5204 251.116 56.2834 250.768 55.9354C250.42 55.5875 250.183 55.1442 250.087 54.6615C249.991 54.1789 250.04 53.6787 250.228 53.224C250.417 52.7694 250.736 52.3809 251.145 52.1075C251.554 51.8341 252.035 51.6882 252.527 51.6882C253.187 51.6882 253.82 51.9503 254.286 52.4169C254.753 52.8835 255.015 53.5163 255.015 54.1762Z" fill="#7D97F4"/>
<path opacity="0.5" d="M255.015 54.1762C255.015 54.6683 254.869 55.1493 254.596 55.5584C254.322 55.9676 253.934 56.2865 253.479 56.4748C253.025 56.6631 252.524 56.7124 252.042 56.6164C251.559 56.5204 251.116 56.2834 250.768 55.9354C250.42 55.5875 250.183 55.1442 250.087 54.6615C249.991 54.1789 250.04 53.6787 250.228 53.224C250.417 52.7694 250.736 52.3809 251.145 52.1075C251.554 51.8341 252.035 51.6882 252.527 51.6882C253.187 51.6882 253.82 51.9503 254.286 52.4169C254.753 52.8835 255.015 53.5163 255.015 54.1762Z" fill="black"/>
<path d="M262.878 100.764H242.203V96.2482C242.203 95.9183 242.334 95.6019 242.567 95.3686C242.801 95.1353 243.117 95.0042 243.447 95.0042H261.634C261.964 95.0042 262.281 95.1353 262.514 95.3686C262.747 95.6019 262.878 95.9183 262.878 96.2482V100.764Z" fill="#7D97F4"/>
<path opacity="0.3" d="M262.878 100.764H242.203V96.2482C242.203 95.9183 242.334 95.6019 242.567 95.3686C242.801 95.1353 243.117 95.0042 243.447 95.0042H261.634C261.964 95.0042 262.281 95.1353 262.514 95.3686C262.747 95.6019 262.878 95.9183 262.878 96.2482V100.764Z" fill="black"/>
<path d="M269.164 105.031H235.937C235.369 105.031 234.825 104.806 234.424 104.404C234.022 104.003 233.797 103.459 233.797 102.891C233.797 102.324 234.022 101.78 234.424 101.378C234.825 100.977 235.369 100.752 235.937 100.752H269.164C269.731 100.752 270.276 100.977 270.677 101.378C271.078 101.78 271.303 102.324 271.303 102.891C271.303 103.459 271.078 104.003 270.677 104.404C270.276 104.806 269.731 105.031 269.164 105.031Z" fill="#7D97F4"/>
<path opacity="0.5" d="M269.164 105.031H235.937C235.369 105.031 234.825 104.806 234.424 104.404C234.022 104.003 233.797 103.459 233.797 102.891C233.797 102.324 234.022 101.78 234.424 101.378C234.825 100.977 235.369 100.752 235.937 100.752H269.164C269.731 100.752 270.276 100.977 270.677 101.378C271.078 101.78 271.303 102.324 271.303 102.891C271.303 103.459 271.078 104.003 270.677 104.404C270.276 104.806 269.731 105.031 269.164 105.031Z" fill="black"/>
<path d="M262.878 96.4721H242.203V97.8778H262.878V96.4721Z" fill="#7D97F4"/>
<path opacity="0.5" d="M262.878 96.4721H242.203V97.8778H262.878V96.4721Z" fill="black"/>
<path d="M255.382 56.6144C255.382 56.8894 255.273 57.1533 255.08 57.3489C254.887 57.5445 254.624 57.6561 254.349 57.6594H250.754C250.478 57.6561 250.214 57.545 250.019 57.3497C249.823 57.1545 249.712 56.8905 249.709 56.6144C249.712 56.3394 249.824 56.0768 250.019 55.8835C250.215 55.6902 250.479 55.5819 250.754 55.5819H254.349C254.623 55.5819 254.886 55.6907 255.079 55.8843C255.273 56.0779 255.382 56.3406 255.382 56.6144Z" fill="#7D97F4"/>
<path opacity="0.3" d="M255.382 56.6144C255.382 56.8894 255.273 57.1533 255.08 57.3489C254.887 57.5445 254.624 57.6561 254.349 57.6594H250.754C250.478 57.6561 250.214 57.545 250.019 57.3497C249.823 57.1545 249.712 56.8905 249.709 56.6144C249.712 56.3394 249.824 56.0768 250.019 55.8835C250.215 55.6902 250.479 55.5819 250.754 55.5819H254.349C254.623 55.5819 254.886 55.6907 255.079 55.8843C255.273 56.0779 255.382 56.3406 255.382 56.6144Z" fill="black"/>
<path d="M547.074 41.8606H475.034C471.53 41.8606 468.689 44.7011 468.689 48.205V98.7239C468.689 102.228 471.53 105.068 475.034 105.068H547.074C550.578 105.068 553.418 102.228 553.418 98.7239V48.205C553.418 44.7011 550.578 41.8606 547.074 41.8606Z" fill="#7D97F4"/>
<path fill-rule="evenodd" clip-rule="evenodd" d="M485.634 95.788C485.634 95.788 487.686 117.583 461.736 127.796C461.736 127.796 496.307 124.985 497.937 95.2904L485.634 95.788Z" fill="#7D97F4"/>
<path opacity="0.39" d="M548.445 98.7363V48.2175C548.445 47.4617 547.833 46.8491 547.077 46.8491L475.037 46.8491C474.281 46.8491 473.668 47.4617 473.668 48.2175V98.7363C473.668 99.492 474.281 100.105 475.037 100.105H547.077C547.833 100.105 548.445 99.492 548.445 98.7363Z" fill="white"/>
<path d="M525.466 52.248C525.874 52.248 526.278 52.3286 526.654 52.485C527.031 52.6415 527.373 52.8707 527.661 53.1597C527.948 53.4486 528.176 53.7916 528.331 54.1688C528.486 54.5461 528.565 54.9502 528.563 55.358V56.8508H520.092L525.466 52.248Z" fill="#7D97F4"/>
<path opacity="0.7" d="M525.466 52.248C525.874 52.248 526.278 52.3286 526.654 52.485C527.031 52.6415 527.373 52.8707 527.661 53.1597C527.948 53.4486 528.176 53.7916 528.331 54.1688C528.486 54.5461 528.565 54.9502 528.563 55.358V56.8508H520.092L525.466 52.248Z" fill="black"/>
<path d="M526.822 93.3C532.93 81.1835 520.702 63.357 525.466 52.248H499.504C498.314 52.2501 497.168 52.6986 496.293 53.5048C495.418 54.311 494.877 55.4162 494.777 56.602C493.769 67.8851 503.012 83.4102 496.742 94.0713H525.441C525.72 94.0807 525.996 94.0139 526.239 93.8779C526.483 93.742 526.684 93.5422 526.822 93.3Z" fill="#7D97F4"/>
<path opacity="0.3" d="M526.822 93.3C532.93 81.1835 520.702 63.357 525.466 52.248H499.504C498.314 52.2501 497.168 52.6986 496.293 53.5048C495.418 54.311 494.877 55.4162 494.777 56.602C493.769 67.8851 503.012 83.4102 496.742 94.0713H525.441C525.72 94.0807 525.996 94.0139 526.239 93.8779C526.483 93.742 526.684 93.5422 526.822 93.3Z" fill="black"/>
<path d="M496.744 94.0837C496.021 94.0837 495.328 93.7967 494.817 93.2858C494.307 92.7749 494.02 92.0819 494.02 91.3594V90.3393H522.868V91.3594C522.868 92.0819 523.155 92.7749 523.666 93.2858C524.177 93.7967 524.87 94.0837 525.592 94.0837H496.744Z" fill="#7D97F4"/>
<path opacity="0.5" d="M496.744 94.0837C496.021 94.0837 495.328 93.7967 494.817 93.2858C494.307 92.7749 494.02 92.0819 494.02 91.3594V90.3393H522.868V91.3594C522.868 92.0819 523.155 92.7749 523.666 93.2858C524.177 93.7967 524.87 94.0837 525.592 94.0837H496.744Z" fill="black"/>
<path opacity="0.3" d="M519.208 58.0326H498.77V59.7368H519.208V58.0326Z" fill="black"/>
<path opacity="0.3" d="M520.167 64.0536H499.729V65.7578H520.167V64.0536Z" fill="black"/>
<path opacity="0.3" d="M521.275 68.6067H500.836V70.3109H521.275V68.6067Z" fill="black"/>
<path opacity="0.3" d="M522.369 73.172H501.93V74.8763H522.369V73.172Z" fill="black"/>
<path opacity="0.3" d="M520.089 86.769C521.827 86.769 523.236 85.3599 523.236 83.6217C523.236 81.8835 521.827 80.4744 520.089 80.4744C518.351 80.4744 516.941 81.8835 516.941 83.6217C516.941 85.3599 518.351 86.769 520.089 86.769Z" fill="black"/>
</svg>
