<svg width="226" height="270" viewBox="0 0 226 270" fill="none" xmlns="http://www.w3.org/2000/svg">
<path d="M101.593 239.944V240.28C101.608 240.565 101.69 240.842 101.833 241.09C101.975 241.337 102.173 241.548 102.411 241.705L151.083 269.799C151.335 269.931 151.616 270 151.902 270C152.187 270 152.468 269.931 152.72 269.799L224.606 228.3C224.845 228.143 225.044 227.931 225.186 227.682C225.328 227.433 225.41 227.154 225.424 226.867V226.54C225.409 226.254 225.327 225.975 225.185 225.727C225.042 225.478 224.844 225.266 224.606 225.107L175.942 197.013C175.689 196.885 175.408 196.818 175.124 196.818C174.839 196.818 174.559 196.885 174.305 197.013L102.411 238.519C102.173 238.676 101.975 238.887 101.833 239.134C101.69 239.382 101.608 239.659 101.593 239.944Z" fill="#E0E0E0"/>
<path d="M101.593 239.945V240.28C101.608 240.565 101.69 240.843 101.833 241.09C101.975 241.337 102.173 241.548 102.411 241.705L151.083 269.799C151.334 269.935 151.616 270.003 151.902 269.996V263.576L105.457 236.759L102.411 238.52C102.173 238.677 101.975 238.887 101.833 239.135C101.69 239.382 101.608 239.66 101.593 239.945Z" fill="#E6E6E6"/>
<path d="M102.411 239.469L151.083 267.563C151.336 267.695 151.616 267.764 151.902 267.764C152.187 267.764 152.468 267.695 152.72 267.563L224.606 226.065C225.064 225.803 225.064 225.377 224.606 225.107L175.943 197.013C175.689 196.885 175.408 196.818 175.124 196.818C174.839 196.818 174.559 196.885 174.305 197.013L102.411 238.519C102.311 238.552 102.224 238.616 102.162 238.701C102.1 238.786 102.067 238.889 102.067 238.994C102.067 239.1 102.1 239.202 102.162 239.288C102.224 239.373 102.311 239.437 102.411 239.469Z" fill="white"/>
<path d="M164.422 250.679L131.669 231.756C131.096 231.428 131.071 230.937 131.603 230.601C131.917 230.452 132.26 230.379 132.607 230.386C132.954 230.393 133.294 230.481 133.601 230.642L166.355 249.557C166.928 249.893 166.952 250.376 166.42 250.711C166.108 250.864 165.764 250.94 165.417 250.935C165.07 250.929 164.729 250.841 164.422 250.679Z" fill="#EBEBEB"/>
<path d="M141.199 252.889L125.036 243.563C124.462 243.235 124.438 242.744 124.97 242.408C125.28 242.251 125.622 242.168 125.969 242.168C126.316 242.168 126.659 242.251 126.968 242.408L143.132 251.743C143.705 252.07 143.73 252.562 143.197 252.897C142.888 253.055 142.545 253.137 142.197 253.136C141.85 253.134 141.508 253.05 141.199 252.889Z" fill="#E0E0E0"/>
<path d="M145.793 250.409L134.427 243.858C134.026 243.621 134.01 243.26 134.378 243.039C134.596 242.927 134.837 242.868 135.083 242.868C135.328 242.868 135.569 242.927 135.787 243.039L147.16 249.59C147.562 249.827 147.578 250.188 147.201 250.409C146.983 250.519 146.742 250.577 146.497 250.577C146.252 250.577 146.011 250.519 145.793 250.409Z" fill="#EBEBEB"/>
<path d="M170.235 247.296L137.482 228.381C136.909 228.045 136.884 227.562 137.417 227.226C137.726 227.069 138.068 226.987 138.416 226.987C138.763 226.987 139.105 227.069 139.415 227.226L172.168 246.15C172.741 246.477 172.766 246.968 172.233 247.304C171.923 247.458 171.58 247.537 171.233 247.536C170.887 247.534 170.545 247.452 170.235 247.296Z" fill="#EBEBEB"/>
<path d="M176.049 243.957L143.296 225.034C142.722 224.706 142.698 224.215 143.23 223.879C143.54 223.722 143.882 223.64 144.229 223.64C144.576 223.64 144.919 223.722 145.228 223.879L177.981 242.802C178.546 243.13 178.579 243.621 178.039 243.957C177.73 244.113 177.389 244.194 177.044 244.194C176.698 244.194 176.357 244.113 176.049 243.957Z" fill="#EBEBEB"/>
<path d="M181.863 240.607L164.561 230.585C163.988 230.257 163.963 229.766 164.496 229.43C164.809 229.281 165.153 229.208 165.499 229.215C165.846 229.222 166.186 229.31 166.493 229.471L183.779 239.485C184.344 239.821 184.377 240.304 183.844 240.64C183.534 240.788 183.194 240.863 182.85 240.857C182.506 240.851 182.168 240.766 181.863 240.607Z" fill="#EBEBEB"/>
<path d="M198.28 231.091L165.527 212.176C164.962 211.849 164.929 211.358 165.461 211.022C165.772 210.864 166.116 210.782 166.465 210.782C166.813 210.782 167.157 210.864 167.468 211.022L200.221 229.945C200.786 230.273 200.819 230.764 200.278 231.1C199.969 231.258 199.626 231.34 199.278 231.338C198.931 231.337 198.588 231.252 198.28 231.091Z" fill="#EBEBEB"/>
<path d="M204.102 227.752L171.349 208.828C170.784 208.501 170.751 208.009 171.292 207.674C171.6 207.514 171.943 207.431 172.291 207.431C172.638 207.431 172.981 207.514 173.29 207.674L206.043 226.589C206.608 226.916 206.641 227.408 206.108 227.743C205.798 227.903 205.455 227.988 205.106 227.989C204.757 227.991 204.413 227.909 204.102 227.752Z" fill="#EBEBEB"/>
<path d="M192.467 234.44L159.713 215.517C159.14 215.19 159.116 214.698 159.648 214.363C159.961 214.214 160.305 214.14 160.652 214.147C160.998 214.155 161.339 214.242 161.646 214.404L194.399 233.327C194.972 233.654 195.005 234.146 194.465 234.473C194.153 234.626 193.809 234.702 193.462 234.696C193.114 234.691 192.773 234.603 192.467 234.44Z" fill="#EBEBEB"/>
<path d="M209.916 224.402L177.163 205.479C176.589 205.151 176.565 204.66 177.097 204.332C177.407 204.175 177.749 204.093 178.096 204.093C178.443 204.093 178.786 204.175 179.095 204.332L211.848 223.256C212.421 223.583 212.446 224.074 211.914 224.41C211.603 224.564 211.261 224.643 210.914 224.642C210.567 224.64 210.225 224.558 209.916 224.402Z" fill="#EBEBEB"/>
<path d="M153.859 253.488C152.658 252.882 151.331 252.567 149.986 252.567C148.641 252.567 147.314 252.882 146.113 253.488C143.976 254.724 143.976 256.763 146.113 257.959C147.313 258.568 148.64 258.886 149.986 258.886C151.332 258.886 152.659 258.568 153.859 257.959C155.996 256.73 155.996 254.724 153.859 253.488Z" fill="#E0E0E0"/>
<path d="M102.436 148.554L71.7298 166.282C70.4871 167.102 69.6075 168.369 69.2733 169.82L61.6417 213.881C61.5537 214.565 61.6608 215.26 61.9505 215.886C62.2402 216.512 62.7009 217.043 63.2794 217.418L83.0788 228.882C83.7144 229.2 84.4152 229.365 85.1258 229.365C85.8365 229.365 86.5373 229.2 87.1729 228.882L129.49 204.448C130.112 204.117 130.632 203.624 130.995 203.02C131.357 202.416 131.549 201.725 131.549 201.021C131.549 200.317 131.357 199.626 130.995 199.022C130.632 198.419 130.112 197.925 129.49 197.594L114.26 188.808C113.649 188.408 113.129 187.884 112.732 187.271C112.336 186.657 112.073 185.968 111.959 185.246L108.569 151.994C108.47 151.293 108.225 150.621 107.85 150.022C107.475 149.422 106.978 148.908 106.391 148.514C105.774 148.21 105.095 148.056 104.409 148.063C103.722 148.07 103.046 148.239 102.436 148.554Z" fill="#263238"/>
<path d="M85.1501 221.105V229.342C85.8684 229.355 86.5784 229.186 87.2136 228.851L129.531 204.417C130.119 204.048 130.612 203.546 130.97 202.951C131.329 202.357 131.543 201.687 131.594 200.994C131.549 200.184 131.264 199.406 130.775 198.759H123.84L85.1501 221.105Z" fill="#37474F"/>
<path d="M106.309 150.782L75.5947 168.518C74.3471 169.333 73.4661 170.602 73.1382 172.056L66.2108 212.047C66.1212 212.733 66.2274 213.429 66.5173 214.057C66.8071 214.684 67.2686 215.217 67.8485 215.593L83.0624 224.379C83.698 224.697 84.3989 224.862 85.1095 224.862C85.8201 224.862 86.521 224.697 87.1566 224.379L129.531 199.912C130.669 199.257 130.669 198.193 129.531 197.529L114.301 188.743C113.69 188.343 113.17 187.819 112.773 187.206C112.377 186.593 112.114 185.903 112 185.181L108.61 151.929C108.614 151.66 108.542 151.395 108.403 151.166C108.263 150.936 108.061 150.75 107.821 150.63C107.58 150.511 107.31 150.461 107.043 150.488C106.775 150.515 106.521 150.617 106.309 150.782Z" fill="#263238"/>
<path d="M129.531 197.562L114.301 188.776C113.69 188.392 113.175 187.874 112.794 187.261L66.4893 213.996C66.7727 214.654 67.2496 215.211 67.8567 215.592L83.0624 224.378C83.698 224.696 84.3989 224.862 85.1095 224.862C85.8201 224.862 86.521 224.696 87.1566 224.378L129.531 199.912C130.669 199.289 130.669 198.225 129.531 197.562Z" fill="#455A64"/>
<path d="M4.85567 236.187L2.88229 235.048C2.04272 234.499 1.34427 233.76 0.843515 232.891C0.342761 232.022 0.0537845 231.047 0 230.045V98.2134C0.0540177 97.2119 0.344023 96.2374 0.846351 95.3694C1.34868 94.5013 2.0491 93.7643 2.89048 93.2185L163.996 0.690502C164.892 0.236553 165.882 0 166.886 0C167.89 0 168.881 0.236553 169.777 0.690502L171.275 1.50933C172.116 2.05742 172.816 2.79605 173.318 3.66531C173.821 4.53458 174.111 5.50998 174.166 6.5124V138.426C174.112 139.429 173.822 140.404 173.319 141.274C172.817 142.143 172.117 142.882 171.275 143.429L10.6284 236.187C9.73341 236.639 8.74474 236.874 7.74206 236.874C6.73938 236.874 5.75071 236.639 4.85567 236.187Z" fill="#455A64"/>
<path d="M11.6111 101.539L0.84349 95.3242C0.332268 96.1888 0.0504114 97.1697 0.0246582 98.1738V230.047C0.0784427 231.048 0.367419 232.023 0.868173 232.892C1.36893 233.762 2.06738 234.501 2.90695 235.05L4.88033 236.188C5.77537 236.64 6.76404 236.875 7.76672 236.875C8.7694 236.875 9.75807 236.64 10.6531 236.188L11.6357 235.615L11.6111 101.539Z" fill="#263238"/>
<path d="M7.72974 234.517V102.685C7.78379 101.683 8.07374 100.707 8.57601 99.8375C9.07827 98.9681 9.77867 98.2296 10.6202 97.682L171.275 4.8838C172.872 3.9667 174.166 4.71184 174.166 6.52146V138.427C174.111 139.43 173.822 140.405 173.319 141.275C172.817 142.144 172.117 142.883 171.275 143.43L10.6284 236.187C9.03168 237.105 7.72974 236.359 7.72974 234.517Z" fill="#37474F"/>
<path d="M83.177 185.362L98.3991 176.568C99.5454 175.913 100.463 176.379 100.463 177.616C100.414 178.309 100.202 178.981 99.843 179.576C99.4843 180.171 98.9894 180.672 98.3991 181.039L83.177 189.833C82.0388 190.488 81.1135 190.021 81.1135 188.785C81.1652 188.092 81.3789 187.422 81.7373 186.827C82.0958 186.233 82.5889 185.731 83.177 185.362Z" fill="#263238"/>
<path d="M15.1401 101.651L166.436 14.0363C167.353 13.5122 168.073 13.938 168.073 14.9861V129.958C168.045 130.53 167.881 131.087 167.597 131.583C167.312 132.08 166.914 132.502 166.436 132.816L15.1401 220.169C14.2312 220.693 13.5024 220.267 13.5024 219.211V104.575C13.5236 103.992 13.6832 103.423 13.968 102.915C14.2528 102.407 14.6546 101.973 15.1401 101.651Z" fill="white"/>
<path d="M25.0318 136.1L23.4842 135.224C22.8836 134.833 22.3837 134.306 22.0251 133.686C21.6666 133.065 21.4595 132.369 21.4208 131.654V109.586C21.4595 108.871 21.6666 108.174 22.0251 107.554C22.3837 106.934 22.8836 106.407 23.4842 106.016L81.2856 72.6405C81.9212 72.3227 82.6221 72.1572 83.3327 72.1572C84.0433 72.1572 84.7442 72.3227 85.3798 72.6405L86.9192 73.533C87.5193 73.9242 88.0189 74.4513 88.3774 75.0716C88.7359 75.6918 88.9432 76.3878 88.9826 77.1031V99.1952C88.9432 99.9116 88.7359 100.609 88.3775 101.23C88.019 101.852 87.5195 102.381 86.9192 102.773L29.1178 136.141C28.4815 136.456 27.7799 136.617 27.0699 136.61C26.3599 136.602 25.6616 136.428 25.0318 136.1Z" fill="#7D97F4"/>
<path opacity="0.4" d="M25.0318 136.1L23.4842 135.224C22.8836 134.833 22.3837 134.306 22.0251 133.686C21.6666 133.065 21.4595 132.369 21.4208 131.654V109.586C21.4595 108.871 21.6666 108.174 22.0251 107.554C22.3837 106.934 22.8836 106.407 23.4842 106.016L81.2856 72.6405C81.9212 72.3227 82.6221 72.1572 83.3327 72.1572C84.0433 72.1572 84.7442 72.3227 85.3798 72.6405L86.9192 73.533C87.5193 73.9242 88.0189 74.4513 88.3774 75.0716C88.7359 75.6918 88.9432 76.3878 88.9826 77.1031V99.1952C88.9432 99.9116 88.7359 100.609 88.3775 101.23C88.019 101.852 87.5195 102.381 86.9192 102.773L29.1178 136.141C28.4815 136.456 27.7799 136.617 27.0699 136.61C26.3599 136.602 25.6616 136.428 25.0318 136.1Z" fill="#7D97F4"/>
<path opacity="0.3" d="M25.0318 136.1L23.4842 135.224C22.8836 134.833 22.3837 134.306 22.0251 133.686C21.6666 133.065 21.4595 132.369 21.4208 131.654V109.586C21.4595 108.871 21.6666 108.174 22.0251 107.554C22.3837 106.934 22.8836 106.407 23.4842 106.016L81.2856 72.6405C81.9212 72.3227 82.6221 72.1572 83.3327 72.1572C84.0433 72.1572 84.7442 72.3227 85.3798 72.6405L86.9192 73.533C87.5193 73.9242 88.0189 74.4513 88.3774 75.0716C88.7359 75.6918 88.9432 76.3878 88.9826 77.1031V99.1952C88.9432 99.9116 88.7359 100.609 88.3775 101.23C88.019 101.852 87.5195 102.381 86.9192 102.773L29.1178 136.141C28.4815 136.456 27.7799 136.617 27.0699 136.61C26.3599 136.602 25.6616 136.428 25.0318 136.1Z" fill="white"/>
<path d="M30.9602 112.715L22.0267 107.557C21.6575 108.172 21.4491 108.87 21.4208 109.587V131.638C21.4595 132.354 21.6666 133.05 22.0251 133.671C22.3837 134.291 22.8836 134.818 23.4842 135.209L25.0318 136.101C25.6659 136.424 26.3674 136.592 27.0789 136.592C27.7905 136.592 28.4919 136.424 29.126 136.101L30.9356 135.061L30.9602 112.715Z" fill="#7D97F4"/>
<path opacity="0.2" d="M30.9602 112.715L22.0267 107.557C21.6575 108.172 21.4491 108.87 21.4208 109.587V131.638C21.4595 132.354 21.6666 133.05 22.0251 133.671C22.3837 134.291 22.8836 134.818 23.4842 135.209L25.0318 136.101C25.6659 136.424 26.3674 136.592 27.0789 136.592C27.7905 136.592 28.4919 136.424 29.126 136.101L30.9356 135.061L30.9602 112.715Z" fill="black"/>
<path d="M27.0865 112.863V134.914C27.0865 136.224 28.0118 136.764 29.15 136.101L86.9513 102.734C87.5517 102.341 88.0512 101.812 88.4097 101.19C88.7681 100.569 88.9754 99.8717 89.0148 99.1553V77.0878C89.0148 75.7776 88.0895 75.2454 86.9513 75.9005L29.15 109.268C28.5475 109.662 28.0466 110.194 27.6881 110.818C27.3295 111.443 27.1234 112.143 27.0865 112.863Z" fill="#7D97F4"/>
<path d="M51.783 100.695L71.7707 89.1498C72.5895 88.6831 73.2364 88.896 73.2364 89.6247C73.177 90.0753 73.0137 90.5059 72.7593 90.8825C72.5049 91.259 72.1665 91.5713 71.7707 91.7947L51.783 103.34C50.9642 103.807 50.3091 103.594 50.3091 102.865C50.3694 102.414 50.5339 101.983 50.7898 101.606C51.0456 101.23 51.3857 100.918 51.783 100.695Z" fill="white"/>
<path d="M51.5539 107.533L83.8813 88.8473C84.5692 88.4542 85.126 88.6344 85.126 89.2485C85.0768 89.6304 84.9385 89.9954 84.7223 90.314C84.5061 90.6326 84.218 90.8959 83.8813 91.0827L51.5293 109.768C50.8415 110.161 50.2847 109.981 50.2847 109.367C50.3365 108.983 50.4785 108.617 50.6991 108.298C50.9197 107.979 51.2126 107.717 51.5539 107.533Z" fill="white"/>
<path d="M51.5539 112.003L83.8813 93.3175C84.5692 92.9245 85.126 93.1046 85.126 93.7187C85.0768 94.1006 84.9385 94.4656 84.7223 94.7842C84.5061 95.1028 84.218 95.3661 83.8813 95.5529L51.5293 114.23C50.8415 114.632 50.2847 114.452 50.2847 113.829C50.3377 113.447 50.4803 113.082 50.7008 112.764C50.9213 112.447 51.2136 112.186 51.5539 112.003Z" fill="white"/>
<path d="M51.5539 116.465L83.8813 97.7872C84.5692 97.3942 85.126 97.5743 85.126 98.1885C85.0756 98.5689 84.9367 98.9322 84.7206 99.2493C84.5044 99.5664 84.217 99.8285 83.8813 100.014L51.5293 118.692C50.8415 119.085 50.2847 118.905 50.2847 118.291C50.3377 117.908 50.4803 117.543 50.7008 117.226C50.9213 116.909 51.2136 116.648 51.5539 116.465Z" fill="white"/>
<path d="M32.6141 111.758L44.7901 104.733C45.7072 104.201 46.4278 104.626 46.4278 105.683V119.75C46.399 120.322 46.2357 120.879 45.9512 121.375C45.6666 121.872 45.2688 122.294 44.7901 122.608L32.6141 129.642C31.697 130.166 30.9764 129.74 30.9764 128.684V114.624C31.0052 114.052 31.1685 113.494 31.453 112.996C31.7375 112.498 32.1353 112.074 32.6141 111.758Z" fill="#7D97F4"/>
<path opacity="0.3" d="M32.6141 111.758L44.7901 104.733C45.7072 104.201 46.4278 104.626 46.4278 105.683V119.75C46.399 120.322 46.2357 120.879 45.9512 121.375C45.6666 121.872 45.2688 122.294 44.7901 122.608L32.6141 129.642C31.697 130.166 30.9764 129.74 30.9764 128.684V114.624C31.0052 114.052 31.1685 113.494 31.453 112.996C31.7375 112.498 32.1353 112.074 32.6141 111.758Z" fill="white"/>
<path d="M33.6541 117.922C33.3964 117.923 33.1427 117.858 32.9171 117.734C32.6473 117.558 32.4292 117.314 32.2853 117.026C32.1414 116.738 32.0768 116.417 32.0983 116.096C32.1343 115.34 32.3508 114.604 32.7297 113.948C33.1086 113.293 33.639 112.738 34.2764 112.33C34.534 112.122 34.8484 111.997 35.1783 111.972C35.5081 111.947 35.8379 112.022 36.1242 112.188C36.4105 112.353 36.6398 112.602 36.7821 112.901C36.9244 113.199 36.9729 113.534 36.9212 113.861C36.8868 114.616 36.6718 115.353 36.2943 116.008C35.9167 116.663 35.3876 117.219 34.7513 117.627C34.4178 117.82 34.0393 117.922 33.6541 117.922ZM34.7513 113.116C34.262 113.443 33.8546 113.878 33.5607 114.388C33.2668 114.897 33.0942 115.468 33.0563 116.055C33.0059 116.212 33.0108 116.381 33.0701 116.535C33.1294 116.689 33.2395 116.817 33.3821 116.9C33.5248 116.982 33.6913 117.013 33.854 116.987C34.0167 116.962 34.1658 116.881 34.2764 116.759C34.7665 116.433 35.1746 115.998 35.4686 115.488C35.7627 114.978 35.9347 114.407 35.9714 113.82C36.0217 113.663 36.0169 113.494 35.9576 113.34C35.8983 113.186 35.7882 113.058 35.6455 112.975C35.5029 112.893 35.3363 112.862 35.1736 112.888C35.0109 112.913 34.8619 112.994 34.7513 113.116Z" fill="white"/>
<path d="M46.4441 114.753L44.1186 112.297C44.0039 112.181 43.8631 112.095 43.708 112.045C43.5529 111.995 43.3881 111.984 43.2275 112.011C43.0669 112.038 42.9152 112.104 42.7853 112.202C42.6554 112.3 42.551 112.428 42.4809 112.575L39.1401 119.945L37.5024 118.471C37.3918 118.373 37.2616 118.3 37.1204 118.256C36.9792 118.212 36.8303 118.199 36.6836 118.217C36.5376 118.237 36.3976 118.289 36.2732 118.368C36.1488 118.447 36.043 118.552 35.963 118.676L30.96 126.446V128.215L36.8556 119.208L42.2353 124.08L43.0951 123.58L39.8607 120.649L43.3243 112.993H43.4308L46.4441 116.195V114.753Z" fill="white"/>
<path d="M25.0318 172.947L23.4842 172.071C22.8836 171.68 22.3837 171.153 22.0251 170.533C21.6666 169.913 21.4595 169.216 21.4208 168.501V146.433C21.4595 145.718 21.6666 145.022 22.0251 144.401C22.3837 143.781 22.8836 143.254 23.4842 142.863L81.2856 109.488C81.9212 109.17 82.6221 109.004 83.3327 109.004C84.0433 109.004 84.7442 109.17 85.3798 109.488L86.9192 110.38C87.5193 110.771 88.0189 111.298 88.3774 111.919C88.7359 112.539 88.9432 113.235 88.9826 113.95V136.042C88.9432 136.759 88.7359 137.456 88.3775 138.078C88.019 138.699 87.5195 139.228 86.9192 139.621L29.1178 172.988C28.4815 173.303 27.7799 173.464 27.0699 173.457C26.3599 173.45 25.6616 173.275 25.0318 172.947Z" fill="#7D97F4"/>
<path opacity="0.4" d="M25.0318 172.947L23.4842 172.071C22.8836 171.68 22.3837 171.153 22.0251 170.533C21.6666 169.913 21.4595 169.216 21.4208 168.501V146.433C21.4595 145.718 21.6666 145.022 22.0251 144.401C22.3837 143.781 22.8836 143.254 23.4842 142.863L81.2856 109.488C81.9212 109.17 82.6221 109.004 83.3327 109.004C84.0433 109.004 84.7442 109.17 85.3798 109.488L86.9192 110.38C87.5193 110.771 88.0189 111.298 88.3774 111.919C88.7359 112.539 88.9432 113.235 88.9826 113.95V136.042C88.9432 136.759 88.7359 137.456 88.3775 138.078C88.019 138.699 87.5195 139.228 86.9192 139.621L29.1178 172.988C28.4815 173.303 27.7799 173.464 27.0699 173.457C26.3599 173.45 25.6616 173.275 25.0318 172.947Z" fill="#7D97F4"/>
<path opacity="0.3" d="M25.0318 172.947L23.4842 172.071C22.8836 171.68 22.3837 171.153 22.0251 170.533C21.6666 169.913 21.4595 169.216 21.4208 168.501V146.433C21.4595 145.718 21.6666 145.022 22.0251 144.401C22.3837 143.781 22.8836 143.254 23.4842 142.863L81.2856 109.488C81.9212 109.17 82.6221 109.004 83.3327 109.004C84.0433 109.004 84.7442 109.17 85.3798 109.488L86.9192 110.38C87.5193 110.771 88.0189 111.298 88.3774 111.919C88.7359 112.539 88.9432 113.235 88.9826 113.95V136.042C88.9432 136.759 88.7359 137.456 88.3775 138.078C88.019 138.699 87.5195 139.228 86.9192 139.621L29.1178 172.988C28.4815 173.303 27.7799 173.464 27.0699 173.457C26.3599 173.45 25.6616 173.275 25.0318 172.947Z" fill="white"/>
<path d="M30.9602 149.562L22.0267 144.404C21.6575 145.019 21.4491 145.717 21.4208 146.435V168.486C21.4595 169.201 21.6666 169.897 22.0251 170.518C22.3837 171.138 22.8836 171.665 23.4842 172.056L25.0318 172.948C25.6659 173.271 26.3674 173.439 27.0789 173.439C27.7905 173.439 28.4919 173.271 29.126 172.948L30.9356 171.908L30.9602 149.562Z" fill="#7D97F4"/>
<path opacity="0.2" d="M30.9602 149.562L22.0267 144.404C21.6575 145.019 21.4491 145.717 21.4208 146.435V168.486C21.4595 169.201 21.6666 169.897 22.0251 170.518C22.3837 171.138 22.8836 171.665 23.4842 172.056L25.0318 172.948C25.6659 173.271 26.3674 173.439 27.0789 173.439C27.7905 173.439 28.4919 173.271 29.126 172.948L30.9356 171.908L30.9602 149.562Z" fill="black"/>
<path d="M27.0865 149.709V171.76C27.0865 173.07 28.0118 173.611 29.15 172.948L86.9513 139.58C87.5517 139.187 88.0512 138.659 88.4097 138.037C88.7681 137.416 88.9754 136.718 89.0148 136.002V113.934C89.0148 112.624 88.0895 112.092 86.9513 112.747L29.15 146.115C28.5475 146.509 28.0466 147.04 27.6881 147.665C27.3295 148.29 27.1234 148.99 27.0865 149.709Z" fill="#7D97F4"/>
<path d="M51.783 137.541L71.7707 125.996C72.5895 125.529 73.2364 125.742 73.2364 126.47C73.177 126.921 73.0137 127.352 72.7593 127.728C72.5049 128.105 72.1665 128.417 71.7707 128.64L51.783 140.186C50.9642 140.653 50.3091 140.44 50.3091 139.711C50.3694 139.26 50.5339 138.829 50.7898 138.452C51.0456 138.075 51.3857 137.763 51.783 137.541Z" fill="white"/>
<path d="M51.5539 144.379L83.8813 125.693C84.5692 125.3 85.126 125.481 85.126 126.095C85.0768 126.477 84.9385 126.842 84.7223 127.16C84.5061 127.479 84.218 127.742 83.8813 127.929L51.5293 146.615C50.8415 147.008 50.2847 146.828 50.2847 146.213C50.3365 145.829 50.4785 145.463 50.6991 145.144C50.9197 144.825 51.2126 144.563 51.5539 144.379Z" fill="white"/>
<path d="M51.5539 148.851L83.8813 130.165C84.5692 129.772 85.126 129.952 85.126 130.566C85.0768 130.948 84.9385 131.313 84.7223 131.632C84.5061 131.95 84.218 132.214 83.8813 132.401L51.5293 151.078C50.8415 151.479 50.2847 151.299 50.2847 150.677C50.3377 150.294 50.4803 149.929 50.7008 149.612C50.9213 149.295 51.2136 149.034 51.5539 148.851Z" fill="white"/>
<path d="M51.5539 153.312L83.8813 134.635C84.5692 134.242 85.126 134.422 85.126 135.036C85.0756 135.417 84.9367 135.78 84.7206 136.097C84.5044 136.414 84.217 136.676 83.8813 136.862L51.5293 155.54C50.8415 155.933 50.2847 155.753 50.2847 155.138C50.3377 154.756 50.4803 154.391 50.7008 154.074C50.9213 153.756 51.2136 153.496 51.5539 153.312Z" fill="white"/>
<path d="M32.6141 148.605L44.7901 141.579C45.7072 141.047 46.4278 141.473 46.4278 142.529V156.597C46.399 157.168 46.2357 157.725 45.9512 158.222C45.6666 158.718 45.2688 159.141 44.7901 159.455L32.6141 166.488C31.697 167.012 30.9764 166.587 30.9764 165.53V151.471C31.0052 150.898 31.1685 150.34 31.453 149.842C31.7375 149.344 32.1353 148.921 32.6141 148.605Z" fill="#7D97F4"/>
<path opacity="0.3" d="M32.6141 148.605L44.7901 141.579C45.7072 141.047 46.4278 141.473 46.4278 142.529V156.597C46.399 157.168 46.2357 157.725 45.9512 158.222C45.6666 158.718 45.2688 159.141 44.7901 159.455L32.6141 166.488C31.697 167.012 30.9764 166.587 30.9764 165.53V151.471C31.0052 150.898 31.1685 150.34 31.453 149.842C31.7375 149.344 32.1353 148.921 32.6141 148.605Z" fill="white"/>
<path d="M33.6541 154.77C33.3964 154.771 33.1427 154.706 32.9171 154.582C32.6473 154.406 32.4292 154.162 32.2853 153.874C32.1414 153.586 32.0768 153.265 32.0983 152.944C32.1343 152.188 32.3508 151.452 32.7297 150.796C33.1086 150.141 33.639 149.586 34.2764 149.178C34.534 148.97 34.8484 148.846 35.1783 148.82C35.5081 148.795 35.8379 148.87 36.1242 149.036C36.4105 149.202 36.6398 149.45 36.7821 149.749C36.9244 150.047 36.9729 150.382 36.9212 150.709C36.8868 151.464 36.6718 152.201 36.2943 152.856C35.9167 153.511 35.3876 154.067 34.7513 154.476C34.4178 154.668 34.0393 154.77 33.6541 154.77ZM34.7513 149.964C34.262 150.291 33.8546 150.726 33.5607 151.236C33.2668 151.746 33.0942 152.316 33.0563 152.903C33.0059 153.06 33.0108 153.23 33.0701 153.383C33.1294 153.537 33.2395 153.666 33.3821 153.748C33.5248 153.83 33.6913 153.861 33.854 153.836C34.0167 153.81 34.1658 153.73 34.2764 153.608C34.7665 153.282 35.1746 152.847 35.4686 152.337C35.7627 151.827 35.9347 151.255 35.9714 150.668C36.0217 150.511 36.0169 150.342 35.9576 150.188C35.8983 150.034 35.7882 149.906 35.6455 149.823C35.5029 149.741 35.3363 149.71 35.1736 149.736C35.0109 149.761 34.8619 149.842 34.7513 149.964Z" fill="white"/>
<path d="M46.4441 151.602L44.1186 149.145C44.0039 149.029 43.8631 148.943 43.708 148.893C43.5529 148.844 43.3881 148.832 43.2275 148.859C43.0669 148.886 42.9152 148.952 42.7853 149.05C42.6554 149.148 42.551 149.276 42.4809 149.424L39.1401 156.793L37.5024 155.319C37.3918 155.221 37.2616 155.148 37.1204 155.104C36.9792 155.06 36.8303 155.047 36.6836 155.065C36.5376 155.085 36.3976 155.137 36.2732 155.216C36.1488 155.295 36.043 155.4 35.963 155.524L30.96 163.295V165.071L36.8556 156.023L42.2353 160.895L43.0951 160.396L39.8607 157.464L43.3243 149.808H43.4308L46.4441 153.01V151.602Z" fill="white"/>
<path d="M25.0318 208.977L23.4842 208.101C22.8836 207.711 22.3837 207.184 22.0251 206.563C21.6666 205.943 21.4595 205.247 21.4208 204.531V182.464C21.4595 181.748 21.6666 181.052 22.0251 180.432C22.3837 179.811 22.8836 179.284 23.4842 178.894L81.2856 145.518C81.9212 145.2 82.6221 145.035 83.3327 145.035C84.0433 145.035 84.7442 145.2 85.3798 145.518L86.9192 146.41C87.5193 146.802 88.0189 147.329 88.3774 147.949C88.7359 148.569 88.9432 149.265 88.9826 149.981V172.073C88.9432 172.789 88.7359 173.486 88.3775 174.108C88.019 174.729 87.5195 175.258 86.9192 175.651L29.1178 209.018C28.4815 209.334 27.7799 209.494 27.0699 209.487C26.3599 209.48 25.6616 209.305 25.0318 208.977Z" fill="#7D97F4"/>
<path opacity="0.4" d="M25.0318 208.977L23.4842 208.101C22.8836 207.711 22.3837 207.184 22.0251 206.563C21.6666 205.943 21.4595 205.247 21.4208 204.531V182.464C21.4595 181.748 21.6666 181.052 22.0251 180.432C22.3837 179.811 22.8836 179.284 23.4842 178.894L81.2856 145.518C81.9212 145.2 82.6221 145.035 83.3327 145.035C84.0433 145.035 84.7442 145.2 85.3798 145.518L86.9192 146.41C87.5193 146.802 88.0189 147.329 88.3774 147.949C88.7359 148.569 88.9432 149.265 88.9826 149.981V172.073C88.9432 172.789 88.7359 173.486 88.3775 174.108C88.019 174.729 87.5195 175.258 86.9192 175.651L29.1178 209.018C28.4815 209.334 27.7799 209.494 27.0699 209.487C26.3599 209.48 25.6616 209.305 25.0318 208.977Z" fill="#7D97F4"/>
<path opacity="0.3" d="M25.0318 208.977L23.4842 208.101C22.8836 207.711 22.3837 207.184 22.0251 206.563C21.6666 205.943 21.4595 205.247 21.4208 204.531V182.464C21.4595 181.748 21.6666 181.052 22.0251 180.432C22.3837 179.811 22.8836 179.284 23.4842 178.894L81.2856 145.518C81.9212 145.2 82.6221 145.035 83.3327 145.035C84.0433 145.035 84.7442 145.2 85.3798 145.518L86.9192 146.41C87.5193 146.802 88.0189 147.329 88.3774 147.949C88.7359 148.569 88.9432 149.265 88.9826 149.981V172.073C88.9432 172.789 88.7359 173.486 88.3775 174.108C88.019 174.729 87.5195 175.258 86.9192 175.651L29.1178 209.018C28.4815 209.334 27.7799 209.494 27.0699 209.487C26.3599 209.48 25.6616 209.305 25.0318 208.977Z" fill="white"/>
<path d="M30.9602 185.59L22.0267 180.432C21.6575 181.047 21.4491 181.745 21.4208 182.462V204.513C21.4595 205.229 21.6666 205.925 22.0251 206.546C22.3837 207.166 22.8836 207.693 23.4842 208.084L25.0318 208.976C25.6659 209.299 26.3674 209.467 27.0789 209.467C27.7905 209.467 28.4919 209.299 29.126 208.976L30.9356 207.936L30.9602 185.59Z" fill="#7D97F4"/>
<path opacity="0.2" d="M30.9602 185.59L22.0267 180.432C21.6575 181.047 21.4491 181.745 21.4208 182.462V204.513C21.4595 205.229 21.6666 205.925 22.0251 206.546C22.3837 207.166 22.8836 207.693 23.4842 208.084L25.0318 208.976C25.6659 209.299 26.3674 209.467 27.0789 209.467C27.7905 209.467 28.4919 209.299 29.126 208.976L30.9356 207.936L30.9602 185.59Z" fill="black"/>
<path d="M27.0865 185.738V207.79C27.0865 209.1 28.0118 209.64 29.15 208.977L86.9513 175.61C87.5517 175.217 88.0512 174.688 88.4097 174.066C88.7681 173.445 88.9754 172.748 89.0148 172.031V149.964C89.0148 148.654 88.0895 148.121 86.9513 148.776L29.15 182.144C28.5475 182.538 28.0466 183.07 27.6881 183.694C27.3295 184.319 27.1234 185.019 27.0865 185.738Z" fill="#7D97F4"/>
<path d="M51.783 173.572L71.7707 162.026C72.5895 161.56 73.2364 161.772 73.2364 162.501C73.177 162.952 73.0137 163.382 72.7593 163.759C72.5049 164.135 72.1665 164.448 71.7707 164.671L51.783 176.217C50.9642 176.683 50.3091 176.47 50.3091 175.742C50.3694 175.29 50.5339 174.859 50.7898 174.483C51.0456 174.106 51.3857 173.794 51.783 173.572Z" fill="white"/>
<path d="M51.5539 180.408L83.8813 161.722C84.5692 161.329 85.126 161.509 85.126 162.124C85.0768 162.505 84.9385 162.87 84.7223 163.189C84.5061 163.508 84.218 163.771 83.8813 163.958L51.5293 182.643C50.8415 183.036 50.2847 182.856 50.2847 182.242C50.3365 181.858 50.4785 181.492 50.6991 181.173C50.9197 180.854 51.2126 180.592 51.5539 180.408Z" fill="white"/>
<path d="M51.5539 184.879L83.8813 166.193C84.5692 165.8 85.126 165.98 85.126 166.594C85.0768 166.976 84.9385 167.341 84.7223 167.66C84.5061 167.978 84.218 168.242 83.8813 168.428L51.5293 187.106C50.8415 187.507 50.2847 187.327 50.2847 186.705C50.3377 186.322 50.4803 185.957 50.7008 185.64C50.9213 185.323 51.2136 185.062 51.5539 184.879Z" fill="white"/>
<path d="M51.5539 189.341L83.8813 170.663C84.5692 170.27 85.126 170.45 85.126 171.064C85.0756 171.445 84.9367 171.808 84.7206 172.125C84.5044 172.442 84.217 172.704 83.8813 172.89L51.5293 191.568C50.8415 191.961 50.2847 191.781 50.2847 191.167C50.3377 190.784 50.4803 190.419 50.7008 190.102C50.9213 189.785 51.2136 189.524 51.5539 189.341Z" fill="white"/>
<path d="M32.6141 184.632L44.7901 177.606C45.7072 177.074 46.4278 177.5 46.4278 178.556V192.624C46.399 193.195 46.2357 193.752 45.9512 194.249C45.6666 194.745 45.2688 195.168 44.7901 195.481L32.6141 202.515C31.697 203.039 30.9764 202.613 30.9764 201.557V187.498C31.0052 186.925 31.1685 186.367 31.453 185.869C31.7375 185.371 32.1353 184.947 32.6141 184.632Z" fill="#7D97F4"/>
<path opacity="0.3" d="M32.6141 184.632L44.7901 177.606C45.7072 177.074 46.4278 177.5 46.4278 178.556V192.624C46.399 193.195 46.2357 193.752 45.9512 194.249C45.6666 194.745 45.2688 195.168 44.7901 195.481L32.6141 202.515C31.697 203.039 30.9764 202.613 30.9764 201.557V187.498C31.0052 186.925 31.1685 186.367 31.453 185.869C31.7375 185.371 32.1353 184.947 32.6141 184.632Z" fill="white"/>
<path d="M33.6541 190.798C33.3964 190.799 33.1427 190.734 32.9171 190.609C32.6473 190.434 32.4292 190.19 32.2853 189.902C32.1414 189.614 32.0768 189.293 32.0983 188.972C32.1343 188.216 32.3508 187.479 32.7297 186.824C33.1086 186.168 33.639 185.613 34.2764 185.205C34.534 184.998 34.8484 184.873 35.1783 184.848C35.5081 184.822 35.8379 184.897 36.1242 185.063C36.4105 185.229 36.6398 185.477 36.7821 185.776C36.9244 186.075 36.9729 186.41 36.9212 186.736C36.8868 187.492 36.6718 188.228 36.2943 188.883C35.9167 189.539 35.3876 190.094 34.7513 190.503C34.4178 190.696 34.0393 190.797 33.6541 190.798ZM34.7513 185.991C34.262 186.318 33.8546 186.753 33.5607 187.263C33.2668 187.773 33.0942 188.343 33.0563 188.931C33.0059 189.088 33.0108 189.257 33.0701 189.411C33.1294 189.564 33.2395 189.693 33.3821 189.775C33.5248 189.858 33.6913 189.889 33.854 189.863C34.0167 189.837 34.1658 189.757 34.2764 189.635C34.7665 189.309 35.1746 188.874 35.4686 188.364C35.7627 187.854 35.9347 187.283 35.9714 186.695C36.0217 186.538 36.0169 186.369 35.9576 186.216C35.8983 186.062 35.7882 185.933 35.6455 185.851C35.5029 185.768 35.3363 185.737 35.1736 185.763C35.0109 185.789 34.8619 185.869 34.7513 185.991Z" fill="white"/>
<path d="M46.4441 187.63L44.1186 185.173C44.0039 185.058 43.8631 184.971 43.708 184.922C43.5529 184.872 43.3881 184.86 43.2275 184.887C43.0669 184.915 42.9152 184.98 42.7853 185.078C42.6554 185.177 42.551 185.305 42.4809 185.452L39.1401 192.821L37.5024 191.347C37.3918 191.249 37.2616 191.176 37.1204 191.132C36.9792 191.088 36.8303 191.075 36.6836 191.094C36.5376 191.114 36.3976 191.165 36.2732 191.244C36.1488 191.323 36.043 191.428 35.963 191.552L30.96 199.323V201.1L36.8556 192.052L42.2353 196.924L43.0951 196.424L39.8607 193.493L43.3243 185.837H43.4308L46.4441 189.038V187.63Z" fill="white"/>
<path d="M98.5629 165.143L97.0235 164.251C96.4229 163.86 95.923 163.333 95.5644 162.713C95.2059 162.092 94.9988 161.396 94.9601 160.681V67.1293C94.9995 66.4139 95.2068 65.718 95.5653 65.0977C95.9238 64.4774 96.4234 63.9504 97.0235 63.5592L185.785 12.3085C186.419 11.9869 187.121 11.8193 187.832 11.8193C188.543 11.8193 189.245 11.9869 189.879 12.3085L191.451 13.2174C192.052 13.6104 192.551 14.139 192.91 14.7605C193.268 15.3821 193.475 16.0792 193.515 16.7957V110.323C193.475 111.038 193.268 111.734 192.91 112.354C192.551 112.974 192.051 113.502 191.451 113.893L102.714 165.143C102.073 165.474 101.361 165.647 100.639 165.647C99.9165 165.647 99.2048 165.474 98.5629 165.143Z" fill="#7D97F4"/>
<path d="M104.499 70.2578L95.566 65.0991C95.1931 65.7128 94.9845 66.4121 94.9601 67.1298V160.681C94.9988 161.397 95.2059 162.093 95.5644 162.713C95.923 163.334 96.4229 163.861 97.0235 164.251L98.5629 165.144C99.1974 165.466 99.8987 165.633 100.61 165.633C101.321 165.633 102.023 165.466 102.657 165.144L104.467 164.104L104.499 70.2578Z" fill="#E6E6E6"/>
<path d="M104.499 70.2578L95.566 65.0991C95.1931 65.7128 94.9845 66.4121 94.9601 67.1298V71.4533L100.626 74.7286L104.499 70.2578Z" fill="#7D97F4"/>
<g opacity="0.2">
<path d="M104.499 70.2578L95.566 65.0991C95.1931 65.7128 94.9845 66.4121 94.9601 67.1298V71.4533L100.626 74.7286L104.499 70.2578Z" fill="black"/>
</g>
<path d="M100.626 70.4055V163.957C100.626 165.267 101.552 165.808 102.69 165.144L191.451 113.935C192.051 113.543 192.551 113.016 192.91 112.396C193.268 111.776 193.475 111.08 193.515 110.365V16.772C193.515 15.4537 192.589 14.9215 191.451 15.5765L102.714 66.8354C102.109 67.2234 101.605 67.7491 101.242 68.3697C100.879 68.9902 100.668 69.6878 100.626 70.4055Z" fill="#F5F5F5"/>
<path d="M110.305 73.9365C113.507 72.086 116.111 73.5845 116.111 77.2856C116.001 79.3 115.419 81.2603 114.41 83.0074C113.402 84.7545 111.995 86.2392 110.305 87.3408C107.095 89.1996 104.5 87.6929 104.5 83.9918C104.608 81.9772 105.19 80.0166 106.199 78.2694C107.208 76.5222 108.615 75.0377 110.305 73.9365Z" fill="#7D97F4"/>
<path d="M122.047 69.2602L141.142 58.255C142.28 57.6 143.205 58.0667 143.205 59.295C143.154 59.9885 142.941 60.6604 142.583 61.2563C142.224 61.8523 141.731 62.3557 141.142 62.7259L122.047 73.731C120.9 74.386 119.983 73.9193 119.983 72.6911C120.033 71.9972 120.246 71.3248 120.605 70.7287C120.963 70.1325 121.457 69.6294 122.047 69.2602Z" fill="#7D97F4"/>
<path d="M121.015 77.1944L134.428 69.4483C135.001 69.1207 135.459 69.35 135.459 69.9723C135.434 70.3187 135.328 70.6543 135.149 70.9517C134.969 71.2492 134.722 71.5 134.428 71.6837L121.015 79.4298C120.442 79.7574 119.983 79.5281 119.983 78.9058C120.008 78.5594 120.115 78.2238 120.294 77.9264C120.473 77.629 120.72 77.3782 121.015 77.1944Z" fill="#7D97F4"/>
<path d="M106.563 93.9706L187.586 47.1908C188.725 46.5357 189.65 47.068 189.65 48.3863V106.188C189.611 106.903 189.404 107.599 189.045 108.22C188.687 108.84 188.187 109.367 187.586 109.758L106.522 156.562C105.384 157.217 104.5 156.685 104.5 155.375V97.5571C104.536 96.839 104.743 96.1397 105.101 95.5164C105.46 94.8931 105.961 94.3635 106.563 93.9706Z" fill="#7D97F4"/>
<path d="M125.953 132.17C125.68 132.173 125.411 132.102 125.175 131.965C124.895 131.773 124.671 131.509 124.527 131.201C124.383 130.892 124.324 130.551 124.356 130.213V99.1956C124.395 98.3958 124.624 97.6169 125.024 96.9234C125.425 96.2299 125.984 95.6418 126.657 95.2079L167.026 71.9039C167.305 71.707 167.632 71.5899 167.972 71.5654C168.313 71.5409 168.654 71.6098 168.958 71.7647C169.238 71.956 169.461 72.2186 169.605 72.5252C169.749 72.8319 169.808 73.1715 169.777 73.5088V104.502C169.74 105.301 169.512 106.079 169.111 106.772C168.711 107.464 168.15 108.051 167.476 108.481L127.108 131.785C126.765 132.015 126.366 132.148 125.953 132.17ZM168.156 72.5426C167.914 72.5551 167.679 72.6314 167.476 72.7637L127.108 96.0676C126.581 96.4182 126.143 96.8861 125.827 97.4345C125.512 97.9828 125.328 98.5969 125.29 99.2283V130.213C125.243 130.384 125.254 130.566 125.319 130.731C125.385 130.895 125.502 131.034 125.654 131.127C125.805 131.219 125.982 131.26 126.159 131.243C126.336 131.225 126.502 131.151 126.633 131.032L167.001 107.72C167.528 107.371 167.967 106.905 168.284 106.358C168.601 105.811 168.787 105.198 168.827 104.567V73.5416C168.847 73.3689 168.824 73.1939 168.76 73.0324C168.695 72.8708 168.592 72.7279 168.459 72.6163C168.366 72.5661 168.261 72.5407 168.156 72.5426Z" fill="white"/>
<path d="M131.504 106.148C131.067 106.151 130.638 106.038 130.259 105.82C129.79 105.502 129.415 105.064 129.173 104.551C128.931 104.038 128.831 103.47 128.884 102.905C128.948 101.479 129.354 100.088 130.066 98.85C130.778 97.612 131.777 96.5626 132.978 95.7898C133.422 95.423 133.967 95.2006 134.541 95.1525C135.115 95.1043 135.69 95.2327 136.189 95.5205C136.688 95.8082 137.087 96.2415 137.332 96.7623C137.578 97.2832 137.659 97.8667 137.563 98.4346C137.494 99.8602 137.086 101.249 136.374 102.486C135.662 103.723 134.667 104.773 133.469 105.55C132.877 105.917 132.2 106.123 131.504 106.148ZM133.469 96.6086C132.412 97.2993 131.531 98.2292 130.9 99.3231C130.268 100.417 129.903 101.644 129.834 102.905C129.737 103.305 129.773 103.724 129.935 104.102C130.097 104.479 130.377 104.793 130.733 104.998C131.089 105.203 131.502 105.287 131.909 105.237C132.317 105.188 132.698 105.007 132.994 104.723C134.049 104.032 134.927 103.103 135.557 102.011C136.187 100.919 136.552 99.6937 136.622 98.4346C136.718 98.0363 136.683 97.6176 136.522 97.2409C136.361 96.8642 136.082 96.5497 135.727 96.3443C135.373 96.1389 134.961 96.0537 134.554 96.1013C134.147 96.149 133.767 96.3269 133.469 96.6086Z" fill="white"/>
<path d="M125.207 127.216L124.389 126.692L138.415 105.517C138.617 105.216 138.929 105.006 139.285 104.932C139.64 104.859 140.01 104.927 140.315 105.124L155.054 114.876L154.522 115.695L139.783 105.951C139.737 105.92 139.686 105.899 139.632 105.888C139.578 105.877 139.522 105.877 139.468 105.887C139.414 105.898 139.363 105.919 139.317 105.95C139.271 105.981 139.232 106.02 139.201 106.066L125.207 127.216Z" fill="white"/>
<path d="M147.128 110.136L146.309 109.694L157.298 89.0835C157.403 88.8858 157.555 88.7168 157.741 88.5913C157.926 88.4657 158.139 88.3873 158.362 88.363C158.585 88.3432 158.81 88.3766 159.018 88.4606C159.226 88.5446 159.411 88.6767 159.558 88.8461L169.678 100.989L168.95 101.595L158.804 89.4602C158.762 89.4076 158.707 89.3665 158.644 89.3403C158.582 89.3142 158.514 89.3039 158.447 89.3104C158.38 89.3169 158.315 89.3399 158.259 89.3775C158.203 89.4151 158.156 89.466 158.125 89.5257L147.128 110.136Z" fill="white"/>
<path d="M193.514 16.772C193.514 15.4537 192.589 14.9215 191.451 15.5765L102.714 66.8354C102.113 67.2261 101.614 67.7531 101.255 68.3734C100.896 68.9938 100.689 69.69 100.651 70.4055V74.7208L193.514 21.0955V16.772Z" fill="#7D97F4"/>
<path opacity="0.1" d="M193.514 16.772C193.514 15.4537 192.589 14.9215 191.451 15.5765L102.714 66.8354C102.113 67.2261 101.614 67.7531 101.255 68.3734C100.896 68.9938 100.689 69.69 100.651 70.4055V74.7208L193.514 21.0955V16.772Z" fill="black"/>
</svg>
