<svg width="212" height="31" viewBox="0 0 212 31" fill="none" xmlns="http://www.w3.org/2000/svg">
<path d="M0.764 19.9635H7.442C7.484 23.6595 9.038 25.4655 13.826 25.4655C18.32 25.4655 19.832 24.2475 19.832 21.8535C19.832 19.7115 18.572 18.7875 14.33 18.1575L11.012 17.6535C3.62 16.5195 1.1 14.1255 1.1 9.00146C1.1 3.58346 5.006 0.139464 13.49 0.139464C22.31 0.139464 26.006 3.03746 26.006 9.88346H19.412C19.328 6.52346 17.774 5.09546 13.49 5.09546C9.374 5.09546 7.778 6.18746 7.778 8.53946C7.778 10.8915 9.206 11.4375 13.322 12.0255L16.556 12.5295C23.78 13.6635 26.552 15.9315 26.552 21.0975C26.552 27.0195 22.394 30.4635 13.826 30.4635C4.796 30.4635 0.764 27.2295 0.764 19.9635ZM32.1482 30.0015V0.601463H38.8682V30.0015H32.1482ZM44.6976 15.3015C44.6976 5.43146 49.8636 0.139464 59.6076 0.139464C67.9656 0.139464 72.7536 3.96146 73.2156 11.1015H66.4536C66.1596 7.32146 64.1436 5.51546 59.6076 5.51546C54.2316 5.51546 51.6276 8.70746 51.6276 15.3015C51.6276 21.9375 54.1056 25.0875 59.6496 25.0875C64.0176 25.0875 66.7896 23.5335 66.7896 20.0475V19.3335H58.2216V14.2095H73.2996V18.9135C73.2996 25.7175 68.7216 30.4635 59.6496 30.4635C49.9056 30.4635 44.6976 25.2135 44.6976 15.3015ZM79.2751 30.0015V0.601463H87.4231L99.0151 22.5255V0.601463H105.231V30.0015H97.1251L85.4911 7.99346V30.0015H79.2751Z" fill="black"/>
<path d="M118.453 23.4495V30.0015H111.901V23.4495H118.453ZM125.131 30.0015V0.601463H142.057C147.559 0.601463 150.877 4.00346 150.877 9.67346C150.877 13.0755 149.533 15.5955 147.139 16.9815L150.961 30.0015H143.989L140.881 19.0395H131.851V30.0015H125.131ZM140.755 5.76746H131.851V13.6215H140.839C142.855 13.6215 143.989 12.2775 143.989 9.67346C143.989 7.06946 142.855 5.76746 140.755 5.76746ZM156.959 30.0015V0.601463H178.925V6.01946H163.679V12.3615H178.547V17.6535H163.679V24.5835H179.387V30.0015H156.959ZM183.248 15.3015C183.248 5.43146 188.414 0.139464 198.158 0.139464C206.516 0.139464 211.304 3.96146 211.766 11.1015H205.004C204.71 7.32146 202.694 5.51546 198.158 5.51546C192.782 5.51546 190.178 8.70746 190.178 15.3015C190.178 21.9375 192.656 25.0875 198.2 25.0875C202.568 25.0875 205.34 23.5335 205.34 20.0475V19.3335H196.772V14.2095H211.85V18.9135C211.85 25.7175 207.272 30.4635 198.2 30.4635C188.456 30.4635 183.248 25.2135 183.248 15.3015Z" fill="#2626FF"/>
</svg>
