<svg width="509" height="360" viewBox="0 0 509 360" fill="none" xmlns="http://www.w3.org/2000/svg">
<path d="M71.9287 322.472C167.839 372.509 323.329 372.509 419.228 322.472C515.128 272.436 515.139 191.305 419.228 141.268C323.318 91.231 167.828 91.231 71.9287 141.268C-23.9705 191.305 -23.9819 272.436 71.9287 322.472Z" fill="#FAFAFA" fill-opacity="0.7"/>
<path d="M302.132 254.728C279.571 267.726 279.571 288.817 302.132 301.827C324.693 314.836 361.253 314.836 383.814 301.827C406.376 288.817 406.364 267.726 383.814 254.728C361.265 241.73 324.681 241.719 302.132 254.728Z" fill="#EBEBEB"/>
<path d="M64.5938 68.2762L125.032 49.5052L78.5356 81.6742L64.5938 68.2762Z" fill="#7D97F4"/>
<path d="M125.033 49.5053L59.936 60.2283L45.9941 46.8188L125.033 49.5053Z" fill="#7D97F4"/>
<path d="M59.9355 60.2282V76.3127L64.5943 68.2762L125.032 49.5052L59.9355 60.2282Z" fill="#455A64"/>
<path d="M59.9355 76.3128L69.2416 72.7461L64.5943 68.2762L59.9355 76.3128Z" fill="#7D97F4"/>
<path d="M64.5938 68.2762L69.2411 72.7461L67.753 73.3062L64.5938 68.2762Z" fill="#455A64"/>
<path d="M49.9175 73.8892C49.725 73.8928 49.537 73.8317 49.3835 73.7157C49.23 73.5997 49.1199 73.4356 49.0711 73.2496C49.0222 73.0637 49.0374 72.8667 49.1141 72.6904C49.1907 72.5141 49.3246 72.3686 49.494 72.2774C50.5242 71.7058 51.5658 71.1342 52.596 70.6884C52.6982 70.6332 52.8105 70.5992 52.9261 70.5887C53.0418 70.5781 53.1584 70.591 53.2689 70.6268C53.3794 70.6625 53.4815 70.7202 53.569 70.7965C53.6565 70.8728 53.7276 70.966 53.778 71.0705C53.8284 71.175 53.857 71.2887 53.8621 71.4045C53.8673 71.5204 53.8488 71.6361 53.8078 71.7447C53.7669 71.8532 53.7043 71.9524 53.6239 72.0361C53.5435 72.1198 53.4469 72.1863 53.34 72.2316C52.3442 72.7118 51.3254 73.2262 50.3296 73.7864C50.2022 73.8524 50.061 73.8877 49.9175 73.8892Z" fill="#E0E0E0"/>
<path d="M39.3546 166.212C39.1792 166.214 39.0075 166.162 38.8625 166.063C37.0008 164.753 35.2372 163.309 33.5856 161.742C33.4809 161.674 33.3923 161.584 33.326 161.479C33.2596 161.373 33.2171 161.255 33.2013 161.131C33.1856 161.007 33.1971 160.882 33.2349 160.763C33.2727 160.644 33.336 160.535 33.4204 160.443C33.5048 160.352 33.6081 160.279 33.7234 160.231C33.8386 160.183 33.9629 160.161 34.0876 160.166C34.2123 160.171 34.3343 160.203 34.4453 160.26C34.5563 160.317 34.6536 160.398 34.7302 160.496C36.3233 162.006 38.0259 163.397 39.824 164.657C39.9721 164.763 40.0828 164.913 40.1398 165.086C40.1969 165.259 40.1974 165.445 40.1413 165.619C40.0852 165.792 39.9754 165.942 39.8279 166.049C39.6803 166.156 39.5025 166.213 39.3203 166.212H39.3546ZM30.3806 157.89C30.2538 157.891 30.1284 157.864 30.0135 157.811C29.8986 157.757 29.7971 157.679 29.7167 157.581C28.2743 155.823 26.9621 153.962 25.7905 152.014C25.6721 151.818 25.6363 151.584 25.6911 151.362C25.7458 151.14 25.8866 150.949 26.0824 150.831C26.2782 150.712 26.513 150.677 26.7352 150.731C26.9574 150.786 27.1487 150.927 27.2671 151.122C28.3957 153.001 29.6581 154.797 31.0445 156.495C31.1874 156.67 31.2556 156.894 31.2342 157.119C31.2128 157.343 31.1035 157.551 30.93 157.695C30.7767 157.825 30.5813 157.894 30.3806 157.89ZM23.9362 147.487C23.7699 147.488 23.6067 147.442 23.4665 147.352C23.3263 147.263 23.2151 147.135 23.1463 146.984C22.211 144.914 21.4081 142.787 20.7426 140.616C20.6937 140.405 20.7268 140.183 20.8352 139.995C20.9435 139.808 21.1191 139.668 21.3266 139.604C21.534 139.54 21.758 139.557 21.9533 139.652C22.1487 139.746 22.3009 139.911 22.3794 140.113C23.0122 142.213 23.7768 144.271 24.6687 146.275C24.7167 146.378 24.7438 146.489 24.7484 146.602C24.7531 146.716 24.7352 146.829 24.6958 146.935C24.6564 147.041 24.5963 147.139 24.519 147.222C24.4416 147.305 24.3486 147.371 24.2452 147.418C24.1478 147.461 24.0427 147.485 23.9362 147.487ZM20.216 135.815C20.0175 135.813 19.8257 135.743 19.6734 135.616C19.521 135.488 19.4175 135.312 19.3804 135.118C18.9435 132.896 18.6339 130.652 18.4533 128.396C18.435 128.168 18.508 127.943 18.6561 127.769C18.8043 127.596 19.0154 127.488 19.2431 127.47C19.4708 127.452 19.6964 127.525 19.8702 127.672C20.0441 127.82 20.152 128.031 20.1702 128.259C20.3386 130.45 20.6368 132.63 21.0631 134.786C21.0863 134.897 21.0872 135.011 21.0657 135.121C21.0442 135.232 21.0006 135.338 20.9377 135.431C20.8748 135.525 20.7937 135.605 20.6992 135.667C20.6048 135.729 20.4989 135.772 20.3877 135.792L20.216 135.815ZM19.1286 123.606C19.0154 123.606 18.9034 123.583 18.7991 123.539C18.6948 123.495 18.6004 123.431 18.5214 123.35C18.4424 123.269 18.3805 123.173 18.3393 123.068C18.2981 122.963 18.2785 122.85 18.2816 122.737C18.3083 120.474 18.4612 118.215 18.7394 115.969C18.7407 115.849 18.7675 115.73 18.8179 115.621C18.8684 115.511 18.9413 115.413 19.0321 115.334C19.1229 115.254 19.2295 115.195 19.3448 115.16C19.4601 115.124 19.5817 115.113 19.7015 115.128C19.8213 115.142 19.9367 115.182 20.0402 115.244C20.1436 115.306 20.2328 115.389 20.3019 115.488C20.3709 115.587 20.4184 115.699 20.4411 115.818C20.4637 115.936 20.4612 116.058 20.4335 116.175C20.1689 118.361 20.0237 120.559 19.9985 122.76C19.997 122.873 19.9734 122.984 19.9288 123.087C19.8843 123.191 19.8198 123.284 19.739 123.363C19.6582 123.441 19.5628 123.503 19.458 123.545C19.3533 123.587 19.2413 123.607 19.1286 123.606ZM20.5251 111.431C20.4607 111.442 20.3949 111.442 20.3305 111.431C20.1093 111.382 19.9166 111.247 19.7943 111.057C19.6721 110.866 19.6303 110.635 19.678 110.414C20.1796 108.199 20.8219 106.019 21.6011 103.886C21.639 103.775 21.6994 103.673 21.7786 103.586C21.8578 103.499 21.9541 103.429 22.0615 103.381C22.1688 103.332 22.285 103.307 22.4027 103.305C22.5204 103.304 22.6371 103.326 22.7457 103.372C22.8562 103.411 22.9575 103.472 23.0437 103.552C23.1299 103.631 23.1991 103.727 23.2472 103.834C23.2953 103.94 23.3213 104.056 23.3237 104.173C23.326 104.29 23.3046 104.406 23.2608 104.515C22.5097 106.577 21.8904 108.685 21.4065 110.825C21.3499 111.011 21.232 111.172 21.0719 111.282C20.9117 111.392 20.719 111.445 20.5251 111.431ZM24.6001 99.885C24.4681 99.8902 24.3373 99.8586 24.2223 99.7936C24.1199 99.7459 24.0281 99.6782 23.9522 99.5945C23.8764 99.5108 23.8181 99.4128 23.7807 99.3063C23.7434 99.1998 23.7278 99.0869 23.7348 98.9742C23.7419 98.8616 23.7714 98.7515 23.8217 98.6504C24.8208 96.6131 25.9447 94.6393 27.187 92.7402C27.3121 92.5631 27.4997 92.4399 27.712 92.3953C27.9244 92.3508 28.1458 92.3882 28.3316 92.5001C28.5131 92.6215 28.6406 92.8082 28.6875 93.0212C28.7344 93.2342 28.6971 93.4571 28.5834 93.6433C27.3759 95.4777 26.2863 97.3868 25.3212 99.3592C25.2619 99.5052 25.163 99.6318 25.0356 99.7247C24.9082 99.8176 24.7574 99.8731 24.6001 99.885ZM31.1818 89.5964C30.9904 89.5984 30.8042 89.5337 30.6553 89.4135C30.566 89.3434 30.4916 89.2562 30.4363 89.1571C30.3811 89.0581 30.346 88.949 30.3333 88.8363C30.3205 88.7236 30.3302 88.6095 30.3619 88.5006C30.3936 88.3916 30.4466 88.2901 30.5179 88.2018C31.9483 86.437 33.477 84.7538 35.0965 83.1604C35.2575 82.9998 35.4757 82.9096 35.7032 82.9096C35.9307 82.9096 36.1489 82.9998 36.3099 83.1604C36.4706 83.3211 36.5609 83.5391 36.5609 83.7663C36.5609 83.9935 36.4706 84.2114 36.3099 84.3721C34.7499 85.9264 33.275 87.5635 31.8915 89.2764C31.8028 89.3742 31.6925 89.45 31.5692 89.4976C31.446 89.5453 31.3133 89.5634 31.1818 89.5507V89.5964ZM39.7896 80.8169C39.6648 80.8166 39.5416 80.7888 39.4288 80.7354C39.316 80.6821 39.2164 80.6045 39.1372 80.5082C38.9922 80.3329 38.9217 80.1079 38.941 79.8813C38.9603 79.6548 39.0677 79.4448 39.2402 79.2964C40.9827 77.8493 42.7974 76.491 44.6773 75.2267C44.8618 75.1137 45.0823 75.0745 45.2945 75.1169C45.5068 75.1593 45.6952 75.2802 45.822 75.4554C45.9497 75.6453 45.9973 75.8778 45.9545 76.1025C45.9116 76.3273 45.7817 76.526 45.593 76.6557C43.759 77.8856 41.99 79.2097 40.2933 80.6225C40.1495 80.7377 39.9736 80.8056 39.7896 80.8169Z" fill="#E0E0E0"/>
<path d="M47.2253 170.682C47.1025 170.682 46.9811 170.655 46.8705 170.602C45.806 170.121 44.7529 169.607 43.7456 169.058C43.6471 169.007 43.5598 168.936 43.4886 168.85C43.4175 168.765 43.3639 168.666 43.3309 168.56C43.298 168.454 43.2863 168.342 43.2966 168.232C43.3068 168.121 43.3388 168.013 43.3907 167.915C43.4976 167.719 43.6771 167.572 43.8909 167.505C44.1047 167.439 44.336 167.459 44.5354 167.561C45.5198 168.087 46.5385 168.59 47.5687 169.058C47.7454 169.14 47.8889 169.28 47.9755 169.454C48.0622 169.629 48.0869 169.827 48.0456 170.017C48.0044 170.208 47.8995 170.378 47.7484 170.501C47.5972 170.624 47.4087 170.691 47.2139 170.693L47.2253 170.682Z" fill="#E0E0E0"/>
<path d="M438.762 129.196L487.181 98.2386L508.506 105.075L438.762 129.196Z" fill="#7D97F4"/>
<path d="M438.762 129.196L480.61 94.3519L471.304 83.6289L438.762 129.196Z" fill="#7D97F4"/>
<path d="M480.61 94.3521V102.434L438.762 129.196L480.61 94.3521Z" fill="#455A64"/>
<path d="M490.053 90.9797C489.845 90.9804 489.645 90.9028 489.492 90.7624C489.323 90.6109 489.22 90.3993 489.205 90.1729C489.19 89.9464 489.264 89.7231 489.412 89.5507C490.902 87.8901 492.225 86.0866 493.361 84.1663C493.476 83.9693 493.665 83.826 493.886 83.7681C494.108 83.7103 494.343 83.7425 494.54 83.8577C494.737 83.9729 494.881 84.1617 494.939 84.3825C494.997 84.6033 494.964 84.8381 494.849 85.0351C493.65 87.0481 492.263 88.9428 490.705 90.6939C490.623 90.7854 490.523 90.8582 490.41 90.9075C490.298 90.9568 490.176 90.9814 490.053 90.9797ZM496.6 80.3253C496.498 80.3415 496.394 80.3415 496.291 80.3253C496.183 80.2839 496.084 80.221 496.001 80.1404C495.917 80.0598 495.851 79.9632 495.806 79.8563C495.761 79.7495 495.738 79.6347 495.739 79.5188C495.74 79.4029 495.764 79.2884 495.81 79.1821C496.619 77.0999 497.225 74.9445 497.619 72.746C497.66 72.5217 497.789 72.3228 497.976 72.193C498.164 72.0633 498.396 72.0135 498.621 72.0544C498.845 72.0953 499.044 72.2237 499.174 72.4113C499.304 72.5989 499.354 72.8303 499.313 73.0547C498.891 75.3584 498.251 77.6167 497.402 79.7994C497.337 79.9576 497.226 80.0926 497.083 80.1865C496.94 80.2803 496.771 80.3287 496.6 80.3253ZM499.05 68.059C498.938 68.0575 498.827 68.0338 498.724 67.9892C498.621 67.9446 498.528 67.88 498.45 67.7991C498.372 67.7183 498.311 67.6228 498.271 67.5183C498.23 67.4138 498.211 67.3022 498.214 67.1902C498.214 66.893 498.214 66.5957 498.214 66.2985C498.209 64.3577 498.056 62.4202 497.756 60.5026C497.723 60.277 497.781 60.0475 497.915 59.8636C498.05 59.6797 498.252 59.5561 498.478 59.5195C498.703 59.4895 498.931 59.5477 499.115 59.6819C499.298 59.8162 499.423 60.016 499.462 60.2397C499.771 62.2446 499.928 64.27 499.931 66.2985C499.931 66.6072 499.931 66.9158 499.931 67.2245C499.922 67.4509 499.825 67.6649 499.66 67.8208C499.496 67.9767 499.277 68.0622 499.05 68.059ZM497.321 55.667C497.137 55.6664 496.958 55.6058 496.811 55.4944C496.665 55.383 496.559 55.2269 496.509 55.0497C495.852 52.9047 495.029 50.814 494.048 48.7965C493.997 48.6954 493.968 48.5853 493.961 48.4727C493.954 48.36 493.969 48.2471 494.007 48.1406C494.044 48.0341 494.102 47.9361 494.178 47.8524C494.254 47.7687 494.346 47.701 494.448 47.6534C494.653 47.5551 494.889 47.542 495.104 47.617C495.318 47.692 495.494 47.849 495.593 48.0534C496.617 50.1499 497.47 52.3252 498.146 54.5581C498.179 54.6654 498.191 54.7783 498.18 54.8902C498.169 55.002 498.136 55.1106 498.083 55.2096C498.029 55.3085 497.957 55.3959 497.869 55.4666C497.782 55.5373 497.681 55.5899 497.573 55.6213C497.493 55.653 497.408 55.6685 497.321 55.667ZM492.01 44.3153C491.866 44.3166 491.723 44.2804 491.597 44.2103C491.47 44.1402 491.364 44.0385 491.289 43.9152C490.062 42.0339 488.712 40.2352 487.248 38.5308C487.175 38.4454 487.118 38.3462 487.083 38.2389C487.048 38.1317 487.034 38.0185 487.042 37.9059C487.051 37.7933 487.081 37.6835 487.132 37.5828C487.184 37.4821 487.254 37.3925 487.34 37.319C487.425 37.2456 487.523 37.1896 487.629 37.1544C487.736 37.1192 487.848 37.1055 487.96 37.114C488.072 37.1225 488.181 37.1531 488.281 37.204C488.381 37.2549 488.469 37.3251 488.542 37.4105C490.061 39.1747 491.461 41.0384 492.731 42.9892C492.837 43.1774 492.87 43.3979 492.823 43.6086C492.777 43.8194 492.655 44.0058 492.48 44.1324C492.343 44.233 492.18 44.2925 492.01 44.3038V44.3153ZM483.998 34.7012C483.779 34.7005 483.57 34.6143 483.414 34.4611C481.765 32.9204 480.034 31.4703 478.229 30.1171C478.138 30.0495 478.062 29.9649 478.005 29.868C477.948 29.7711 477.91 29.6639 477.894 29.5524C477.878 29.4409 477.884 29.3274 477.912 29.2184C477.94 29.1093 477.989 29.0068 478.057 28.9167C478.125 28.8266 478.209 28.7508 478.306 28.6934C478.403 28.636 478.511 28.5983 478.622 28.5824C478.734 28.5665 478.848 28.5726 478.957 28.6006C479.066 28.6285 479.169 28.6777 479.259 28.7452C481.119 30.1341 482.9 31.6264 484.593 33.2151C484.72 33.3329 484.809 33.4865 484.847 33.6556C484.885 33.8247 484.871 34.0014 484.806 34.1623C484.742 34.3232 484.63 34.4609 484.486 34.5571C484.341 34.6533 484.171 34.7035 483.998 34.7012ZM473.959 27.0876C473.796 27.0861 473.638 27.0385 473.501 26.9505C472.723 26.4703 471.91 25.9902 471.086 25.5215C469.941 24.8813 468.797 24.2411 467.583 23.6353C467.473 23.5909 467.372 23.524 467.289 23.4387C467.205 23.3535 467.141 23.2518 467.099 23.1402C467.057 23.0286 467.039 22.9095 467.046 22.7905C467.052 22.6715 467.084 22.5553 467.138 22.4492C467.193 22.343 467.269 22.2494 467.361 22.1742C467.454 22.099 467.561 22.0439 467.676 22.0125C467.791 21.981 467.912 21.9739 468.03 21.9915C468.148 22.0091 468.261 22.0511 468.362 22.1148C469.564 22.7321 470.765 23.3723 471.933 24.0354C472.78 24.5041 473.604 24.9956 474.405 25.4986C474.59 25.6166 474.723 25.8007 474.776 26.0133C474.83 26.2259 474.799 26.4508 474.692 26.6418C474.618 26.7723 474.511 26.8817 474.383 26.9597C474.255 27.0378 474.109 27.0818 473.959 27.0876ZM371.341 26.5046C371.19 26.503 371.042 26.4621 370.911 26.3859C370.781 26.3097 370.672 26.2009 370.597 26.0702C370.488 25.8772 370.46 25.6493 370.518 25.4356C370.575 25.2219 370.715 25.0393 370.906 24.927C372.897 23.7839 374.946 22.6407 377.018 21.6804C377.222 21.5813 377.456 21.5666 377.671 21.6394C377.885 21.7122 378.062 21.8666 378.163 22.0691C378.258 22.2742 378.27 22.5084 378.195 22.7219C378.12 22.9354 377.965 23.1113 377.762 23.2123C375.725 24.2068 373.71 25.27 371.753 26.4017C371.625 26.464 371.483 26.4916 371.341 26.4818V26.5046ZM462.799 21.2803C462.679 21.2811 462.562 21.2536 462.455 21.2003C460.395 20.2972 458.266 19.4512 456.137 18.6967C455.921 18.6194 455.745 18.4598 455.648 18.2529C455.55 18.046 455.539 17.8088 455.616 17.5936C455.693 17.3783 455.853 17.2026 456.06 17.105C456.267 17.0075 456.505 16.9961 456.721 17.0734C458.884 17.8508 461.047 18.7082 463.153 19.6341C463.337 19.7121 463.488 19.8516 463.58 20.0285C463.671 20.2054 463.699 20.4088 463.657 20.6036C463.615 20.7984 463.506 20.9725 463.35 21.096C463.193 21.2195 462.998 21.2847 462.799 21.2803ZM382.616 20.9259C382.446 20.9271 382.281 20.8776 382.14 20.7839C381.999 20.6901 381.89 20.5565 381.826 20.4001C381.779 20.2952 381.753 20.182 381.751 20.0672C381.749 19.9524 381.77 19.8383 381.812 19.7317C381.855 19.6251 381.919 19.5281 382 19.4465C382.081 19.365 382.177 19.3005 382.284 19.2569C384.401 18.3652 386.576 17.5421 388.751 16.7991C388.86 16.7538 388.978 16.7317 389.096 16.7339C389.214 16.7362 389.331 16.7629 389.438 16.8122C389.546 16.8616 389.642 16.9326 389.721 17.0209C389.799 17.1091 389.859 17.2126 389.896 17.3249C389.937 17.4351 389.956 17.5526 389.952 17.6703C389.947 17.788 389.919 17.9035 389.869 18.0101C389.818 18.1167 389.747 18.2122 389.66 18.2909C389.572 18.3695 389.469 18.4298 389.358 18.4681C387.217 19.1997 385.065 20.0114 382.993 20.8802C382.87 20.9143 382.742 20.9221 382.616 20.9031V20.9259ZM450.986 16.9705C450.906 16.9817 450.825 16.9817 450.745 16.9705C448.582 16.3418 446.361 15.8274 444.152 15.2901C444.042 15.2661 443.937 15.2205 443.844 15.1561C443.751 15.0917 443.672 15.0096 443.611 14.9146C443.55 14.8196 443.508 14.7135 443.488 14.6024C443.468 14.4913 443.47 14.3773 443.494 14.2669C443.518 14.1566 443.564 14.0521 443.628 13.9593C443.693 13.8666 443.775 13.7874 443.87 13.7264C443.965 13.6653 444.071 13.6236 444.183 13.6036C444.294 13.5835 444.408 13.5856 444.519 13.6096C446.808 14.1012 449.028 14.6842 451.226 15.3244C451.425 15.3822 451.595 15.5095 451.707 15.6829C451.819 15.8564 451.865 16.0644 451.836 16.2687C451.806 16.473 451.704 16.6599 451.548 16.7952C451.392 16.9304 451.192 17.0048 450.986 17.0048V16.9705ZM394.497 16.7991C394.31 16.7984 394.128 16.7365 393.979 16.623C393.83 16.5095 393.723 16.3505 393.673 16.1703C393.642 16.063 393.632 15.9505 393.644 15.8394C393.656 15.7282 393.691 15.6206 393.745 15.5228C393.799 15.425 393.873 15.3389 393.96 15.2696C394.048 15.2002 394.149 15.1489 394.257 15.1186C396.466 14.5013 398.732 13.9754 400.987 13.4724C401.102 13.436 401.222 13.4239 401.341 13.4369C401.461 13.4499 401.576 13.4877 401.68 13.5479C401.783 13.6081 401.873 13.6893 401.944 13.7863C402.014 13.8833 402.063 13.994 402.088 14.1111C402.113 14.2283 402.113 14.3494 402.088 14.4666C402.063 14.5838 402.014 14.6945 401.944 14.7916C401.874 14.8887 401.784 14.97 401.68 15.0302C401.576 15.0905 401.461 15.1284 401.342 15.1415C399.121 15.6102 396.901 16.1589 394.726 16.7648L394.497 16.7991ZM438.715 14.2155H438.543C436.311 13.8611 434.033 13.5753 431.79 13.3695C431.672 13.3683 431.555 13.3426 431.447 13.2941C431.339 13.2457 431.243 13.1755 431.163 13.0881C431.084 13.0006 431.023 12.8977 430.986 12.7857C430.948 12.6738 430.934 12.5553 430.944 12.4377C430.954 12.3201 430.989 12.2058 431.045 12.1021C431.102 11.9984 431.179 11.9075 431.273 11.8351C431.366 11.7626 431.474 11.7102 431.588 11.6812C431.703 11.6521 431.822 11.647 431.939 11.6662C434.228 11.872 436.517 12.1578 438.807 12.5236C439.03 12.5628 439.229 12.6875 439.362 12.8712C439.494 13.0548 439.55 13.2828 439.516 13.5067C439.476 13.6917 439.376 13.8582 439.231 13.9802C439.086 14.1022 438.904 14.1729 438.715 14.1812V14.2155ZM406.791 14.1355C406.587 14.1354 406.39 14.0629 406.235 13.9309C406.079 13.799 405.976 13.6162 405.944 13.4153C405.911 13.1897 405.968 12.9602 406.103 12.7762C406.238 12.5923 406.439 12.4687 406.665 12.4321C408.954 12.0892 411.243 11.8034 413.533 11.6091C413.645 11.5993 413.759 11.6118 413.867 11.6459C413.975 11.68 414.075 11.7349 414.162 11.8076C414.248 11.8803 414.32 11.9694 414.372 12.0697C414.424 12.17 414.456 12.2795 414.466 12.3921C414.475 12.5047 414.463 12.6181 414.429 12.7259C414.395 12.8336 414.34 12.9336 414.267 13.0202C414.194 13.1067 414.105 13.178 414.004 13.2301C413.904 13.2822 413.794 13.3141 413.681 13.3238C411.392 13.5182 409.16 13.7811 406.928 14.1355H406.791ZM426.193 12.9923C423.903 12.9123 421.614 12.9008 419.382 12.9923C419.269 12.9985 419.157 12.9818 419.051 12.9434C418.945 12.9049 418.848 12.8455 418.765 12.7686C418.683 12.6917 418.617 12.5989 418.572 12.4959C418.526 12.3929 418.502 12.2818 418.5 12.1692C418.496 12.0562 418.514 11.9435 418.554 11.8376C418.594 11.7317 418.654 11.6349 418.732 11.5528C418.81 11.4708 418.904 11.4051 419.007 11.3598C419.111 11.3145 419.223 11.2904 419.336 11.289C421.625 11.2089 423.915 11.2204 426.204 11.289C426.317 11.2919 426.428 11.3171 426.531 11.3629C426.634 11.4087 426.727 11.4744 426.804 11.5562C426.882 11.6379 426.943 11.7341 426.983 11.8393C427.023 11.9445 427.043 12.0566 427.04 12.1692C427.023 12.3837 426.927 12.5842 426.77 12.732C426.614 12.8798 426.408 12.9644 426.193 12.9694V12.9923Z" fill="#E0E0E0"/>
<path d="M421.879 145.909V144.08H421.432C420.753 142.841 419.721 141.83 418.468 141.176C415.91 139.88 413.083 139.204 410.215 139.204C407.347 139.204 404.519 139.88 401.962 141.176C400.708 141.83 399.677 142.841 398.997 144.08H398.551V145.852C398.551 147.601 399.695 149.361 401.985 150.699C404.544 151.989 407.371 152.661 410.238 152.661C413.105 152.661 415.931 151.989 418.491 150.699C420.757 149.407 421.89 147.646 421.879 145.909Z" fill="#37474F"/>
<path d="M410.215 150.813C416.657 150.813 421.879 147.798 421.879 144.079C421.879 140.361 416.657 137.346 410.215 137.346C403.773 137.346 398.551 140.361 398.551 144.079C398.551 147.798 403.773 150.813 410.215 150.813Z" fill="#455A64"/>
<path d="M407.215 88.0186V143.291C407.239 143.553 407.333 143.805 407.485 144.019C407.638 144.234 407.845 144.405 408.085 144.514C408.743 144.847 409.47 145.02 410.208 145.02C410.946 145.02 411.673 144.847 412.331 144.514C412.574 144.407 412.784 144.238 412.939 144.022C413.094 143.807 413.188 143.555 413.213 143.291V88.0186H407.215Z" fill="#37474F"/>
<path d="M423.663 46.647C420.744 44.9665 418.089 44.8293 416.097 45.9382L379.021 67.3384L397.622 104.594L434.823 83.1028V66.8011C434.823 59.2219 429.821 50.2023 423.663 46.647Z" fill="#455A64"/>
<path d="M397.62 88.2813V104.594L375.311 91.7223V75.4206C375.311 67.8414 380.301 64.5833 386.459 68.1386C390.409 70.425 393.877 74.9291 395.857 79.8676C396.965 82.5378 397.563 85.3915 397.62 88.2813Z" fill="#37474F"/>
<path d="M397.62 88.2814V104.595L375.311 91.7224L395.857 79.8677C396.965 82.5379 397.563 85.3916 397.62 88.2814Z" fill="#263238"/>
<path d="M393.901 93.8715C391.852 87.9498 385.19 80.2677 379.02 76.7239C372.85 73.18 369.531 75.0891 371.58 81.0108L375.3 91.7337L397.621 104.606C397.621 104.606 395.961 99.7931 393.901 93.8715Z" fill="#455A64"/>
<path d="M409.251 88.8987L408.003 88.1785C407.735 88.0556 407.439 88.0056 407.146 88.0337C406.852 88.0619 406.571 88.167 406.332 88.3386C405.642 88.7892 405.068 89.3954 404.657 90.1083C404.245 90.8212 404.007 91.6208 403.962 92.4426C403.931 92.7369 403.979 93.0342 404.102 93.3036C404.225 93.573 404.418 93.8046 404.661 93.9744L405.805 94.6375L406.023 94.2831C406.26 94.2318 406.488 94.1431 406.698 94.0201C407.387 93.572 407.961 92.9679 408.373 92.2568C408.784 91.5458 409.022 90.7477 409.067 89.9276C409.066 89.7231 409.039 89.5195 408.987 89.3217L409.251 88.8987Z" fill="#263238"/>
<path d="M407.522 89.036C406.833 89.4841 406.259 90.0882 405.847 90.7993C405.435 91.5104 405.197 92.3084 405.152 93.1286C405.152 94.6376 406.217 95.2435 407.522 94.489C408.212 94.0415 408.786 93.4376 409.198 92.7263C409.61 92.0151 409.847 91.2168 409.891 90.3964C409.926 88.8874 408.781 88.2815 407.522 89.036Z" fill="#37474F"/>
<path d="M407.521 92.4083C407.431 92.4083 407.341 92.3905 407.258 92.3561C407.175 92.3216 407.099 92.2711 407.035 92.2074C406.971 92.1437 406.921 92.0681 406.886 91.9848C406.852 91.9016 406.834 91.8124 406.834 91.7223V68.1387C406.834 67.9568 406.906 67.7823 407.035 67.6537C407.164 67.525 407.339 67.4528 407.521 67.4528C407.703 67.4528 407.878 67.525 408.006 67.6537C408.135 67.7823 408.208 67.9568 408.208 68.1387V91.7223C408.208 91.9043 408.135 92.0787 408.006 92.2074C407.878 92.336 407.703 92.4083 407.521 92.4083Z" fill="#263238"/>
<path d="M408.139 68.756V74.9063L414.743 68.1387L408.139 68.756Z" fill="#37474F"/>
<path d="M360.129 176.18C364.639 176.798 372.32 174.191 372.869 166.692C373.418 159.193 376.52 157.158 382.209 155.935C387.898 154.712 389.57 152.734 390.222 149.167C390.874 145.6 386.548 141.336 387.761 135.963C388.974 130.591 393.026 130.602 397.01 124.532C399.562 120.622 394.331 114.655 385.62 117.215C376.91 119.776 377.608 125.389 368.897 126.109C360.186 126.829 354.726 132.111 354.555 138.684C354.383 145.257 360.129 176.18 360.129 176.18Z" fill="#7D97F4"/>
<path opacity="0.2" d="M360.129 176.18C364.639 176.798 372.32 174.191 372.869 166.692C373.418 159.193 376.52 157.158 382.209 155.935C387.898 154.712 389.57 152.734 390.222 149.167C390.874 145.6 386.548 141.336 387.761 135.963C388.974 130.591 393.026 130.602 397.01 124.532C399.562 120.622 394.331 114.655 385.62 117.215C376.91 119.776 377.608 125.389 368.897 126.109C360.186 126.829 354.726 132.111 354.555 138.684C354.383 145.257 360.129 176.18 360.129 176.18Z" fill="black"/>
<path d="M358.48 161.799H358.411C358.337 161.784 358.267 161.755 358.205 161.713C358.143 161.671 358.089 161.617 358.048 161.554C358.007 161.492 357.978 161.421 357.964 161.348C357.949 161.274 357.95 161.198 357.965 161.125C362.177 140.33 385.15 121.296 390.748 119.353C390.899 119.303 391.065 119.315 391.208 119.387C391.35 119.459 391.459 119.584 391.509 119.736C391.559 119.888 391.547 120.053 391.475 120.195C391.403 120.338 391.277 120.446 391.125 120.496C385.654 122.394 363.207 141.073 359.075 161.41C359.033 161.532 358.951 161.635 358.844 161.706C358.736 161.776 358.608 161.809 358.48 161.799Z" fill="white"/>
<path d="M56.0898 154.426C56.1458 153.395 56.4444 152.392 56.9615 151.498C57.4787 150.604 58.1997 149.845 59.066 149.282L211.202 61.5543C212.124 61.0918 213.141 60.851 214.172 60.851C215.204 60.851 216.221 61.0918 217.143 61.5543L220.497 63.4977C221.365 64.0589 222.087 64.8178 222.605 65.7121C223.122 66.6064 223.42 67.6105 223.473 68.642V185.109C223.414 186.139 223.114 187.141 222.597 188.034C222.081 188.928 221.361 189.688 220.497 190.253L68.3605 277.969C67.4384 278.437 66.4187 278.68 65.3844 278.68C64.3501 278.68 63.3305 278.437 62.4083 277.969L59.066 276.037C58.2009 275.472 57.4809 274.712 56.9639 273.819C56.447 272.925 56.1476 271.923 56.0898 270.892V154.426Z" fill="#7D97F4"/>
<path opacity="0.3" d="M56.0898 154.426C56.1458 153.395 56.4444 152.392 56.9615 151.498C57.4787 150.604 58.1997 149.845 59.066 149.282L211.202 61.5543C212.124 61.0918 213.141 60.851 214.172 60.851C215.204 60.851 216.221 61.0918 217.143 61.5543L220.497 63.4977C221.365 64.0589 222.087 64.8178 222.605 65.7121C223.122 66.6064 223.42 67.6105 223.473 68.642V185.109C223.414 186.139 223.114 187.141 222.597 188.034C222.081 188.928 221.361 189.688 220.497 190.253L68.3605 277.969C67.4384 278.437 66.4187 278.68 65.3844 278.68C64.3501 278.68 63.3305 278.437 62.4083 277.969L59.066 276.037C58.2009 275.472 57.4809 274.712 56.9639 273.819C56.447 272.925 56.1476 271.923 56.0898 270.892V154.426Z" fill="black"/>
<path d="M70.0317 159.044L56.9598 151.499C56.4254 152.385 56.126 153.392 56.0898 154.426V270.893C56.1476 271.923 56.447 272.925 56.9639 273.819C57.4809 274.713 58.2009 275.472 59.066 276.037L62.4083 277.969C63.3305 278.437 64.3501 278.681 65.3844 278.681C66.4187 278.681 67.4384 278.437 68.3605 277.969L70.0317 277.009V159.044Z" fill="#7D97F4"/>
<path opacity="0.5" d="M70.0317 159.044L56.9598 151.499C56.4254 152.385 56.126 153.392 56.0898 154.426V270.893C56.1476 271.923 56.447 272.925 56.9639 273.819C57.4809 274.713 58.2009 275.472 59.066 276.037L62.4083 277.969C63.3305 278.437 64.3501 278.681 65.3844 278.681C66.4187 278.681 67.4384 278.437 68.3605 277.969L70.0317 277.009V159.044Z" fill="black"/>
<path d="M223.472 68.6421V185.109C223.433 186.175 223.114 187.212 222.545 188.115C222.105 188.876 221.513 189.538 220.805 190.059L220.69 190.127L220.496 190.253L68.3598 277.969C68.0687 278.174 67.7303 278.303 67.3762 278.343C67.022 278.383 66.6635 278.333 66.3338 278.197C66.0169 277.998 65.7608 277.716 65.5933 277.381C65.4258 277.047 65.3533 276.673 65.3837 276.3V159.787C65.3578 159.37 65.4336 158.953 65.6045 158.572C65.7754 158.191 66.0364 157.856 66.365 157.598C66.6936 157.339 67.0801 157.164 67.4913 157.088C67.9026 157.011 68.3263 157.035 68.7261 157.158L132.701 172.351L141.08 174.34C142.069 174.525 143.09 174.436 144.032 174.084C144.974 173.731 145.802 173.128 146.425 172.339L156.132 158.839L221.469 67.9904C222.568 66.4586 223.472 66.7444 223.472 68.6421Z" fill="#7D97F4"/>
<path opacity="0.2" d="M223.472 68.6421V185.109C223.433 186.175 223.114 187.212 222.545 188.115C222.105 188.876 221.513 189.538 220.805 190.059L220.69 190.127L220.496 190.253L68.3598 277.969C68.0687 278.174 67.7303 278.303 67.3762 278.343C67.022 278.383 66.6635 278.333 66.3338 278.197C66.0169 277.998 65.7608 277.716 65.5933 277.381C65.4258 277.047 65.3533 276.673 65.3837 276.3V159.787C65.3578 159.37 65.4336 158.953 65.6045 158.572C65.7754 158.191 66.0364 157.856 66.365 157.598C66.6936 157.339 67.0801 157.164 67.4913 157.088C67.9026 157.011 68.3263 157.035 68.7261 157.158L132.701 172.351L141.08 174.34C142.069 174.525 143.09 174.436 144.032 174.084C144.974 173.731 145.802 173.128 146.425 172.339L156.132 158.839L221.469 67.9904C222.568 66.4586 223.472 66.7444 223.472 68.6421Z" fill="black"/>
<path d="M220.497 190.253L220.691 190.127L220.806 190.058C221.514 189.537 222.106 188.876 222.546 188.115C223.108 187.226 223.428 186.205 223.473 185.154L156.133 158.861L201.232 201.387L220.497 190.253Z" fill="#7D97F4"/>
<path opacity="0.6" d="M220.497 190.253L220.691 190.127L220.806 190.058C221.514 189.537 222.106 188.876 222.546 188.115C223.108 187.226 223.428 186.205 223.473 185.154L156.133 158.861L201.232 201.387L220.497 190.253Z" fill="black"/>
<path d="M65.3845 276.3C65.3408 276.679 65.4045 277.064 65.5683 277.409C65.7322 277.755 65.9897 278.048 66.3117 278.254C66.6414 278.39 66.9999 278.44 67.3541 278.4C67.7082 278.36 68.0466 278.231 68.3377 278.026L120.74 247.72L132.702 172.271L65.3845 274.322V276.3Z" fill="#7D97F4"/>
<path opacity="0.6" d="M65.3845 276.3C65.3408 276.679 65.4045 277.064 65.5683 277.409C65.7322 277.755 65.9897 278.048 66.3117 278.254C66.6414 278.39 66.9999 278.44 67.3541 278.4C67.7082 278.36 68.0466 278.231 68.3377 278.026L120.74 247.72L132.702 172.271L65.3845 274.322V276.3Z" fill="black"/>
<path d="M222.545 188.115C222.105 188.876 221.513 189.538 220.805 190.059L220.691 190.127L68.36 277.969C68.0689 278.174 67.7305 278.303 67.3764 278.343C67.0222 278.383 66.6637 278.333 66.334 278.197L139.191 162.039C140.656 159.713 142.91 157.991 145.542 157.189C148.174 156.387 151.007 156.559 153.522 157.672L222.545 188.115Z" fill="#7D97F4"/>
<path opacity="0.2" d="M222.545 188.115C222.105 188.876 221.513 189.538 220.805 190.059L220.691 190.127L68.36 277.969C68.0689 278.174 67.7305 278.303 67.3764 278.343C67.0222 278.383 66.6637 278.333 66.334 278.197L139.191 162.039C140.656 159.713 142.91 157.991 145.542 157.189C148.174 156.387 151.007 156.559 153.522 157.672L222.545 188.115Z" fill="black"/>
<path d="M65.3848 156.358L135.357 187.224C137.877 188.334 140.713 188.501 143.345 187.692C145.977 186.884 148.229 185.155 149.689 182.822L223.164 65.384L65.3848 156.358Z" fill="#7D97F4"/>
<path opacity="0.6" d="M65.3848 156.358L135.357 187.224C137.877 188.334 140.713 188.501 143.345 187.692C145.977 186.884 148.229 185.155 149.689 182.822L223.164 65.384L65.3848 156.358Z" fill="black"/>
<path d="M65.3848 156.358L135.85 182.651C138.285 183.559 140.957 183.612 143.426 182.802C145.896 181.991 148.015 180.366 149.437 178.192L223.164 65.384L65.3848 156.358Z" fill="#7D97F4"/>
<path opacity="0.2" d="M65.3848 156.358L135.85 182.651C138.285 183.559 140.957 183.612 143.426 182.802C145.896 181.991 148.015 180.366 149.437 178.192L223.164 65.384L65.3848 156.358Z" fill="black"/>
<path d="M82.0723 168.772C82.1254 167.741 82.4229 166.737 82.9403 165.843C83.4577 164.948 84.1802 164.189 85.0484 163.628L237.184 75.901C238.107 75.4331 239.126 75.1892 240.161 75.1892C241.195 75.1892 242.214 75.4331 243.137 75.901L246.49 77.8329C247.355 78.3974 248.073 79.1574 248.588 80.0512C249.104 80.945 249.4 81.9474 249.455 82.9772V199.444C249.399 200.473 249.101 201.475 248.586 202.368C248.071 203.262 247.353 204.022 246.49 204.588L94.343 292.304C93.4213 292.766 92.4041 293.007 91.3726 293.007C90.3411 293.007 89.3239 292.766 88.4022 292.304L85.0484 290.372C84.184 289.807 83.4644 289.047 82.9475 288.153C82.4307 287.26 82.1309 286.258 82.0723 285.228V168.772Z" fill="#455A64"/>
<path d="M82.0723 168.772C82.1254 167.741 82.4229 166.737 82.9403 165.843C83.4577 164.948 84.1802 164.189 85.0484 163.628L237.184 75.901C238.107 75.4331 239.126 75.1892 240.161 75.1892C241.195 75.1892 242.214 75.4331 243.137 75.901L246.49 77.8329C247.355 78.3974 248.073 79.1574 248.588 80.0512C249.104 80.945 249.4 81.9474 249.455 82.9772V199.444C249.399 200.473 249.101 201.475 248.586 202.368C248.071 203.262 247.353 204.022 246.49 204.588L94.343 292.304C93.4213 292.766 92.4041 293.007 91.3726 293.007C90.3411 293.007 89.3239 292.766 88.4022 292.304L85.0484 290.372C84.184 289.807 83.4644 289.047 82.9475 288.153C82.4307 287.26 82.1309 286.258 82.0723 285.228V168.772Z" fill="#455A64"/>
<path d="M96.0256 173.414L82.9422 165.88C82.4064 166.766 82.1069 167.773 82.0723 168.807V285.239C82.1309 286.269 82.4307 287.271 82.9475 288.165C83.4644 289.058 84.184 289.818 85.0484 290.383L88.4022 292.315C89.3239 292.778 90.3411 293.019 91.3726 293.019C92.4041 293.019 93.4213 292.778 94.343 292.315L96.0256 291.344V173.414Z" fill="#263238"/>
<path d="M249.469 82.9775V199.444C249.431 200.51 249.111 201.547 248.542 202.451C248.103 203.211 247.51 203.873 246.802 204.394L246.688 204.463L246.493 204.588L94.3572 292.304C94.0661 292.509 93.7278 292.638 93.3736 292.678C93.0194 292.718 92.6609 292.668 92.3312 292.533C92.0092 292.326 91.7517 292.033 91.5879 291.688C91.424 291.342 91.3603 290.958 91.404 290.578V174.123C91.3782 173.706 91.4539 173.289 91.6248 172.907C91.7957 172.526 92.0567 172.192 92.3853 171.933C92.7139 171.675 93.1004 171.5 93.5116 171.423C93.9229 171.347 94.3466 171.371 94.7464 171.493L158.721 186.686L167.1 188.675C168.089 188.86 169.11 188.772 170.052 188.419C170.994 188.067 171.822 187.463 172.446 186.675L182.141 173.174L247.478 82.3259C248.531 80.8169 249.469 81.0798 249.469 82.9775Z" fill="#37474F"/>
<path d="M246.493 204.588L246.687 204.463L246.802 204.394C247.51 203.873 248.102 203.211 248.542 202.451C249.097 201.563 249.413 200.547 249.457 199.501L182.129 173.208L227.217 215.711L246.493 204.588Z" fill="#263238"/>
<path d="M91.3803 290.589C91.3366 290.969 91.4003 291.353 91.5641 291.699C91.728 292.044 91.9855 292.337 92.3075 292.544C92.6372 292.679 92.9957 292.729 93.3499 292.689C93.704 292.649 94.0424 292.521 94.3335 292.315L146.713 262.113L158.675 186.663L91.3574 288.634L91.3803 290.589Z" fill="#263238"/>
<path d="M248.53 202.451C248.09 203.211 247.498 203.873 246.79 204.394L246.675 204.463L94.3561 292.304C94.065 292.51 93.7266 292.638 93.3725 292.678C93.0183 292.718 92.6598 292.668 92.3301 292.533L165.176 176.386C166.637 174.056 168.89 172.329 171.522 171.523C174.154 170.717 176.989 170.885 179.507 171.997L248.53 202.451Z" fill="#37474F"/>
<path d="M91.3809 170.705L161.354 201.57C163.872 202.678 166.705 202.843 169.335 202.035C171.964 201.226 174.215 199.499 175.673 197.169L249.149 79.6737L91.3809 170.705Z" fill="#263238"/>
<path d="M91.3809 170.705L161.834 196.998C164.271 197.909 166.945 197.963 169.417 197.153C171.889 196.342 174.011 194.715 175.433 192.539L249.149 79.6737L91.3809 170.705Z" fill="#37474F"/>
<path d="M193.668 261.221V144.755C193.774 142.545 194.465 140.403 195.671 138.547L268.231 37.6391C269.555 35.7955 271.398 34.3871 273.526 33.5932C275.654 32.7992 277.971 32.6557 280.181 33.1807L348.414 49.3795C350.613 49.964 352.734 50.8082 354.732 51.8945L358.086 53.8264C358.948 54.3929 359.666 55.1533 360.181 56.0467C360.695 56.9401 360.993 57.9415 361.051 58.9707V175.437C360.992 176.466 360.693 177.467 360.178 178.36C359.664 179.253 358.947 180.014 358.086 180.582L205.939 268.297C205.018 268.763 204 269.005 202.968 269.005C201.936 269.005 200.919 268.763 199.998 268.297L196.644 266.365C195.779 265.801 195.059 265.041 194.542 264.148C194.025 263.254 193.726 262.252 193.668 261.221Z" fill="#7D97F4"/>
<path opacity="0.3" d="M193.668 261.221V144.755C193.774 142.545 194.465 140.403 195.671 138.547L268.231 37.6391C269.555 35.7955 271.398 34.3871 273.526 33.5932C275.654 32.7992 277.971 32.6557 280.181 33.1807L348.414 49.3795C350.613 49.964 352.734 50.8082 354.732 51.8945L358.086 53.8264C358.948 54.3929 359.666 55.1533 360.181 56.0467C360.695 56.9401 360.993 57.9415 361.051 58.9707V175.437C360.992 176.466 360.693 177.467 360.178 178.36C359.664 179.253 358.947 180.014 358.086 180.582L205.939 268.297C205.018 268.763 204 269.005 202.968 269.005C201.936 269.005 200.919 268.763 199.998 268.297L196.644 266.365C195.779 265.801 195.059 265.041 194.542 264.148C194.025 263.254 193.726 262.252 193.668 261.221Z" fill="white"/>
<path d="M207.607 88.4645V237.077C207.607 238.963 208.947 239.741 210.584 238.792L353.425 156.483C354.292 155.921 355.013 155.162 355.531 154.268C356.048 153.374 356.346 152.37 356.401 151.339V2.72645C356.401 0.828783 355.073 0.062856 353.425 1.01169L210.584 83.3202C209.717 83.8835 208.996 84.6429 208.479 85.5367C207.962 86.4306 207.663 87.4337 207.607 88.4645Z" fill="#FAFAFA"/>
<path d="M209.257 239.787C208.888 239.789 208.525 239.695 208.204 239.512C207.812 239.251 207.499 238.889 207.297 238.464C207.096 238.04 207.013 237.568 207.059 237.1V88.4875C207.114 87.3548 207.438 86.2514 208.005 85.2691C208.573 84.2869 209.367 83.4541 210.322 82.8402L353.163 0.531626C353.536 0.228316 353.992 0.0454932 354.472 0.00744101C354.951 -0.0306112 355.431 0.0779083 355.847 0.318589C356.263 0.559269 356.596 0.920712 356.801 1.3549C357.007 1.78908 357.075 2.27545 356.998 2.74939V151.362C356.944 152.493 356.62 153.596 356.053 154.576C355.485 155.557 354.69 156.387 353.735 156.998L210.894 239.306C210.401 239.609 209.836 239.774 209.257 239.787ZM354.754 1.11465C354.384 1.13577 354.026 1.2498 353.712 1.44617L210.871 83.8119C210.093 84.3273 209.446 85.0156 208.979 85.8229C208.512 86.6301 208.239 87.5343 208.181 88.4646V237.077C208.112 237.345 208.133 237.628 208.241 237.883C208.348 238.139 208.536 238.352 208.776 238.49C209.016 238.629 209.294 238.685 209.569 238.651C209.844 238.617 210.1 238.494 210.299 238.3L353.14 155.992C353.918 155.477 354.566 154.789 355.033 153.982C355.5 153.174 355.773 152.27 355.83 151.339V2.72653C355.862 2.45843 355.826 2.18653 355.723 1.9365C355.621 1.68648 355.457 1.46658 355.246 1.29756C355.102 1.1932 354.932 1.12998 354.754 1.11465Z" fill="#E0E0E0"/>
<path d="M204.523 147.59L194.221 141.645C193.888 142.649 193.703 143.697 193.672 144.755V261.221C193.73 262.252 194.029 263.254 194.546 264.148C195.063 265.041 195.783 265.801 196.648 266.365L199.99 268.297C200.91 268.765 201.928 269.009 202.961 269.009C203.993 269.009 205.011 268.765 205.931 268.297L207.362 267.486L204.523 147.59Z" fill="#7D97F4"/>
<g opacity="0.1">
<path d="M204.523 147.59L194.221 141.645C193.888 142.65 193.703 143.697 193.672 144.755V261.221C193.73 262.252 194.029 263.254 194.546 264.148C195.063 265.041 195.783 265.801 196.648 266.366L199.99 268.298C200.91 268.765 201.928 269.009 202.961 269.009C203.993 269.009 205.011 268.765 205.931 268.298L207.362 267.486L204.523 147.59Z" fill="black"/>
</g>
<path d="M361.061 58.9708V175.437C361.023 176.504 360.703 177.541 360.134 178.444C359.694 179.205 359.102 179.866 358.394 180.387L358.28 180.456L358.085 180.582L205.949 268.297C205.658 268.503 205.32 268.631 204.965 268.671C204.611 268.711 204.253 268.661 203.923 268.526C203.601 268.319 203.344 268.026 203.18 267.681C203.016 267.335 202.952 266.951 202.996 266.571V150.116C202.97 149.699 203.046 149.282 203.217 148.901C203.388 148.519 203.648 148.185 203.977 147.927C204.306 147.668 204.692 147.493 205.103 147.416C205.515 147.34 205.938 147.364 206.338 147.487L270.279 162.68L278.658 164.669C279.648 164.856 280.671 164.768 281.616 164.416C282.56 164.063 283.39 163.459 284.014 162.668L293.721 149.167L359.058 58.3192C360.157 56.8102 361.061 57.0731 361.061 58.9708Z" fill="#7D97F4"/>
<path opacity="0.3" d="M361.061 58.9708V175.437C361.023 176.504 360.703 177.541 360.134 178.444C359.694 179.205 359.102 179.866 358.394 180.387L358.28 180.456L358.085 180.582L205.949 268.297C205.658 268.503 205.32 268.631 204.965 268.671C204.611 268.711 204.253 268.661 203.923 268.526C203.601 268.319 203.344 268.026 203.18 267.681C203.016 267.335 202.952 266.951 202.996 266.571V150.116C202.97 149.699 203.046 149.282 203.217 148.901C203.388 148.519 203.648 148.185 203.977 147.927C204.306 147.668 204.692 147.493 205.103 147.416C205.515 147.34 205.938 147.364 206.338 147.487L270.279 162.68L278.658 164.669C279.648 164.856 280.671 164.768 281.616 164.416C282.56 164.063 283.39 163.459 284.014 162.668L293.721 149.167L359.058 58.3192C360.157 56.8102 361.061 57.0731 361.061 58.9708Z" fill="white"/>
<path d="M358.085 180.582L358.279 180.456L358.394 180.387C359.102 179.866 359.694 179.205 360.134 178.444C360.69 177.552 361.005 176.532 361.049 175.483L293.721 149.19L338.809 191.705L358.085 180.582Z" fill="#7D97F4"/>
<path d="M202.972 266.583C202.928 266.962 202.992 267.347 203.156 267.692C203.32 268.038 203.577 268.331 203.899 268.537C204.229 268.673 204.588 268.723 204.942 268.683C205.296 268.643 205.634 268.514 205.925 268.309L258.305 238.106L270.266 162.657L202.949 264.628L202.972 266.583Z" fill="#7D97F4"/>
<path d="M360.135 178.444C359.695 179.205 359.103 179.866 358.395 180.387L358.281 180.456L205.95 268.298C205.659 268.503 205.32 268.631 204.966 268.671C204.612 268.711 204.254 268.661 203.924 268.526L276.77 152.38C278.23 150.052 280.481 148.327 283.111 147.521C285.74 146.715 288.573 146.881 291.089 147.99L360.135 178.444Z" fill="#7D97F4"/>
<path opacity="0.3" d="M360.135 178.444C359.695 179.205 359.103 179.866 358.395 180.387L358.281 180.456L205.95 268.298C205.659 268.503 205.32 268.631 204.966 268.671C204.612 268.711 204.254 268.661 203.924 268.526L276.77 152.38C278.23 150.052 280.481 148.327 283.111 147.521C285.74 146.715 288.573 146.881 291.089 147.99L360.135 178.444Z" fill="white"/>
<path d="M270.508 122.691C269.172 122.898 267.806 122.777 266.528 122.338C265.25 121.9 264.098 121.158 263.17 120.176C261.431 118.244 260.561 115.261 260.561 111.248C260.563 106.721 261.535 102.246 263.411 98.1244C265.336 93.8831 267.994 90.0134 271.263 86.6927C274.778 83.0525 278.785 79.9204 283.167 77.3872C287.464 74.918 291.13 73.55 294.168 73.2833C297.224 73.0089 299.525 73.7977 301.104 75.6268C302.684 77.4558 303.462 80.2566 303.462 84.0062C303.529 87.7249 302.646 91.3994 300.898 94.6835C299.358 97.6576 297.009 100.138 294.122 101.84C293.125 102.547 291.903 102.864 290.688 102.731C290.255 102.646 289.857 102.438 289.54 102.131C289.223 101.825 289.002 101.434 288.902 101.005C287.949 102.806 286.738 104.458 285.308 105.909C283.861 107.401 282.212 108.682 280.409 109.716C277.295 111.477 274.811 112.003 272.98 111.397C271.149 110.791 270.279 108.939 270.279 105.852C270.305 101.973 271.502 98.1926 273.713 95.0036C276.12 91.4681 279.317 88.5405 283.053 86.4526C284.613 85.5247 286.308 84.8459 288.078 84.4406C289.394 84.0846 290.78 84.0846 292.096 84.4406V96.4783C292.096 97.45 292.267 98.0444 292.599 98.273C292.931 98.5017 293.481 98.3874 294.259 97.9415C295.709 96.9995 296.782 95.5796 297.293 93.929C298.066 91.6992 298.435 89.3492 298.38 86.9899C298.38 83.9872 297.724 81.8037 296.411 80.4395C295.71 79.7547 294.854 79.2478 293.916 78.9614C292.978 78.675 291.985 78.6173 291.02 78.7933C288.225 79.2197 285.549 80.2159 283.156 81.7199C278.095 84.5235 273.733 88.4311 270.393 93.1516C267.307 97.5816 265.668 102.856 265.7 108.253C265.7 111.538 266.375 113.935 267.726 115.444C268.426 116.199 269.303 116.769 270.277 117.105C271.252 117.44 272.295 117.529 273.312 117.364C276.161 116.961 278.892 115.96 281.325 114.426C283.004 113.456 284.594 112.339 286.075 111.088C287.454 109.951 288.709 108.671 289.818 107.27C289.933 107.122 290.068 106.992 290.219 106.881C290.322 106.824 290.425 106.881 290.516 107.018L291.775 109.305C291.821 109.395 291.856 109.491 291.878 109.59C291.838 109.845 291.713 110.079 291.523 110.254C290.14 111.914 288.608 113.445 286.945 114.826C285.194 116.293 283.322 117.609 281.347 118.759C278.059 120.833 274.362 122.174 270.508 122.691ZM285.388 101.2C286.478 99.9152 287.113 98.3082 287.197 96.6269V89.6535C285.563 89.7913 283.989 90.3335 282.618 91.2311C280.435 92.4577 278.575 94.1858 277.192 96.2725C275.896 98.1868 275.198 100.443 275.189 102.754C275.189 104.686 275.67 105.841 276.643 106.184C277.616 106.527 279.115 106.184 281.164 104.961C282.823 104.002 284.275 102.724 285.434 101.2H285.388Z" fill="#E0E0E0"/>
<path d="M124.72 134.146L113.559 127.687H113.479C109.667 125.538 104.413 125.858 98.5985 129.207C86.9116 135.941 77.4453 152.322 77.4453 165.789C77.4453 172.522 79.8033 177.221 83.615 179.507L93.997 185.44L95.8742 182.319C98.0033 181.843 100.048 181.049 101.941 179.964C113.616 173.22 123.094 156.838 123.094 143.383C123.088 141.564 122.865 139.753 122.43 137.987L124.72 134.146Z" fill="#F28F8F"/>
<path d="M124.72 134.146L113.559 127.687H113.479C109.667 125.538 104.413 125.858 98.5985 129.207C86.9116 135.941 77.4453 152.322 77.4453 165.789C77.4453 172.522 79.8033 177.221 83.615 179.507L93.997 185.44L95.8742 182.319C98.0033 181.843 100.048 181.049 101.941 179.964C113.616 173.22 123.094 156.838 123.094 143.383C123.088 141.564 122.865 139.753 122.43 137.987L124.72 134.146Z" fill="#7D97F4"/>
<path opacity="0.4" d="M124.72 134.146L113.559 127.687H113.479C109.667 125.538 104.413 125.858 98.5985 129.207C86.9116 135.941 77.4453 152.322 77.4453 165.789C77.4453 172.522 79.8033 177.221 83.615 179.507L93.997 185.44L95.8742 182.319C98.0033 181.843 100.048 181.049 101.941 179.964C113.616 173.22 123.094 156.838 123.094 143.383C123.088 141.564 122.865 139.753 122.43 137.987L124.72 134.146Z" fill="black"/>
<path d="M109.323 135.346C97.6362 142.091 88.1699 158.472 88.1699 171.928C88.1699 185.383 97.6362 190.859 109.323 184.125C121.01 177.392 130.476 161.01 130.476 147.544C130.476 134.077 121.01 128.613 109.323 135.346Z" fill="#7D97F4"/>
<path d="M101.06 175.152C100.843 175.152 100.729 175.026 100.729 174.831C100.751 174.616 100.813 174.407 100.912 174.214L101.976 171.825C102.047 171.591 102.186 171.384 102.377 171.23C102.535 171.159 102.707 171.12 102.88 171.116C103.833 171.059 104.773 170.871 105.673 170.556C106.871 170.153 108.022 169.624 109.107 168.978C110.796 168.065 112.277 166.811 113.457 165.297C114.342 164.152 114.835 162.754 114.865 161.308C114.865 158.781 113.32 158.415 110.229 160.165L107.219 161.982C106.727 162.257 106.383 162.359 106.177 162.268C105.971 162.176 105.868 161.902 105.868 161.445V160.496C105.852 160.092 105.96 159.693 106.177 159.353C106.453 158.981 106.809 158.676 107.219 158.461L110.206 156.735C111.403 156.084 112.419 155.145 113.159 154.003C113.78 153.044 114.121 151.932 114.144 150.79C114.144 148.344 112.419 148.115 108.97 150.105C106.849 151.312 104.939 152.856 103.315 154.677C103.163 154.849 102.994 155.006 102.812 155.146C102.744 155.178 102.668 155.186 102.596 155.17C102.523 155.153 102.458 155.112 102.411 155.055L101.392 153.911C101.336 153.859 101.29 153.795 101.259 153.724C101.227 153.654 101.21 153.577 101.209 153.5C101.232 153.237 101.346 152.991 101.53 152.802C102.544 151.536 103.695 150.386 104.964 149.373C106.441 148.171 108.014 147.093 109.668 146.149C111.162 145.221 112.809 144.567 114.533 144.217C115.076 144.085 115.64 144.073 116.188 144.182C116.736 144.29 117.253 144.517 117.704 144.846C118.11 145.237 118.424 145.715 118.622 146.243C118.82 146.771 118.897 147.336 118.848 147.898C118.823 149.157 118.542 150.397 118.024 151.545C117.471 152.87 116.697 154.091 115.735 155.157C116.229 154.992 116.757 154.955 117.269 155.049C117.782 155.142 118.262 155.365 118.665 155.695C119.018 156.105 119.286 156.581 119.453 157.095C119.62 157.609 119.683 158.151 119.638 158.69C119.551 161.224 118.661 163.666 117.097 165.663C115.177 168.235 112.726 170.364 109.909 171.905C105.879 174.26 102.93 175.342 101.06 175.152Z" fill="white"/>
<path d="M341.088 299.266L341.306 299.072C341.466 298.935 341.638 298.797 341.786 298.649L342.302 298.146L342.817 297.654C343.118 297.372 343.405 297.074 343.675 296.763L347.75 299.803L350.463 301.827C349.475 302.896 348.671 304.12 348.082 305.451C348.082 305.451 347.269 306.765 344.511 306.102C341.1 305.314 340.562 300.306 341.088 299.266Z" fill="#FFA8A7"/>
<path d="M301.178 297.872C298.064 294.259 300.834 288.257 303.856 280.472C307.176 271.91 312.304 257.357 312.304 257.357L348.715 249.847C348.715 249.847 387.507 249.104 391.067 256.512C393.952 262.445 368.403 271.373 364.74 271.693L342.317 272.87L339.959 274.014L324.208 293.916L301.178 297.872Z" fill="#7D97F4"/>
<path d="M368.267 262.582C365.439 265.454 362.805 268.509 360.38 271.727C353.821 280.873 343.439 297.483 343.439 297.483C343.439 297.483 345.053 302.742 350.01 302.513C350.01 302.513 384.12 270.698 386.913 267.76C391.137 263.302 394.525 255.951 387.222 255.346C379.92 254.74 371.106 259.518 368.267 262.582Z" fill="#7D97F4"/>
<path d="M360.197 271.91C360.197 271.91 366.287 263.016 372.594 259.335C372.594 259.335 366.321 260.57 356.82 272.116L360.197 271.91Z" fill="#7D97F4"/>
<path opacity="0.1" d="M360.197 271.91C360.197 271.91 366.287 263.016 372.594 259.335C372.594 259.335 366.321 260.57 356.82 272.116L360.197 271.91Z" fill="black"/>
<path d="M364.338 283.159L361.945 283.616L364.166 291.813C364.166 291.813 366.318 291.607 367.062 291.653C368.146 291.396 369.19 290.992 370.164 290.453L369.592 285.446L366.959 282.702L364.338 283.159Z" fill="#FFA8A7"/>
<path d="M383.225 285.091C384.367 285.551 385.401 286.241 386.264 287.118C387.126 287.995 387.799 289.041 388.238 290.189C388.748 291.391 389.165 292.629 389.486 293.893C389.864 295.219 389.681 297.472 387.998 297.837C387.451 297.901 386.897 297.802 386.407 297.552C383.03 296.248 379.733 294.739 376.277 293.642C373.314 292.546 370.212 291.873 367.062 291.641C367.778 290.541 368.136 289.246 368.087 287.934C368.038 286.622 367.584 285.358 366.787 284.314C366.11 283.688 365.254 283.288 364.338 283.17C365.208 282.782 366.021 282.279 366.856 281.81C368.412 280.723 370.318 280.254 372.202 280.495C373.644 280.804 374.743 281.947 375.968 282.782C378.303 284.302 380.558 284.199 383.225 285.091Z" fill="#263238"/>
<path d="M306.088 290.018C309.099 289.092 313.906 288.269 328.169 287.537C342.431 286.806 361.947 283.605 361.947 283.605C365.267 286.794 364.168 291.801 364.168 291.801C364.168 291.801 338.837 299.803 330.584 300.867C317.443 302.559 312.91 302.433 306.981 301.164C300.319 299.735 296.118 293.07 306.088 290.018Z" fill="#7D97F4"/>
<path d="M358.216 222.171L368.93 247.744L361.261 252.453L346.518 227.521L358.216 222.171Z" fill="#F28F8F"/>
<path d="M336.057 198.073C341.917 198.141 348.362 200.267 350.582 204.852L359.74 223.714C359.74 223.714 354.566 231.282 346.347 230.744L336.057 198.073Z" fill="#E0E0E0"/>
<path d="M297.091 237.821C297.159 236.826 298.59 231.968 300.124 226.732L311.25 230.573L308.262 239.981L298.888 248.864C296.857 245.562 296.211 241.594 297.091 237.821Z" fill="#FFA8A7"/>
<path d="M324.07 198.427C317.088 200.107 307.576 202.291 304.817 209.859C302.058 217.426 298.109 230.79 298.109 230.79C299.643 233.442 308.056 235.637 310.975 234.105L312.349 229.533V257.335C317.809 263.268 344.743 261.747 348.76 249.824V211.951C348.76 205.892 345.395 198.61 336.089 198.073L324.07 198.427Z" fill="#FAFAFA"/>
<path d="M312.316 229.555L315.819 218.547L312.316 234.482V229.555Z" fill="#E0E0E0"/>
<path d="M321.415 167.435C320.793 167.355 320.162 167.416 319.567 167.614C318.972 167.812 318.43 168.142 317.981 168.578C316.504 170.087 316.836 172.877 317.981 179.279L322.56 179.793L321.415 167.435Z" fill="#263238"/>
<path d="M347.984 165.584C348.964 165.588 349.934 165.389 350.834 165.001C352.23 164.2 352.596 165.789 351.83 167.161C351.323 168.15 350.57 168.993 349.645 169.61C348.719 170.226 347.65 170.595 346.541 170.682C346.541 170.488 345.236 167.127 345.236 167.127L347.984 165.584Z" fill="#263238"/>
<path d="M323.549 179.862C322.874 180.262 321.901 178.97 321.065 178.09C320.737 177.715 320.32 177.431 319.851 177.262C319.383 177.094 318.879 177.048 318.387 177.128C317.896 177.208 317.433 177.412 317.042 177.72C316.652 178.028 316.346 178.431 316.155 178.89C314.77 181.805 317.917 185.681 319.76 186.961C320.277 187.406 320.922 187.677 321.603 187.734C322.283 187.792 322.964 187.633 323.549 187.281L324.03 198.427C324.846 200.213 326.093 201.769 327.659 202.956C329.225 204.143 331.062 204.924 333.004 205.229C339.551 206.109 338.201 200.713 336.049 198.073V193.991C337.688 194.341 339.373 194.426 341.039 194.243C341.886 194.014 343.924 191.556 345.24 188.801C346.717 185.715 349.178 180.228 346.992 170.934C344.634 160.965 333.908 160.645 327.532 164.68C321.157 168.716 323.549 179.862 323.549 179.862Z" fill="#FFA8A7"/>
<path d="M323.557 180.993C323.214 180.993 321.92 178.856 321.073 178.09C319.929 177.027 321.417 167.435 321.417 167.435C321.417 167.435 320.272 163.789 322.561 161.377C324.851 158.964 329.338 159.365 332.612 159.25C336.623 159.272 340.596 158.475 344.287 156.907C348.934 154.895 349.278 154.62 349.85 156.69C350.422 158.759 350.651 163.389 347.881 166.509L346.37 168.967C346.37 168.967 344.962 170.11 340.647 170.682C336.332 171.254 328.937 168.887 328.056 168.761C326.797 168.59 326.533 169.802 325.858 173.117C325.217 176.032 324.702 180.971 323.557 180.993Z" fill="#263238"/>
<path d="M321.422 168.179L317.324 165.984C317.459 165.712 317.647 165.469 317.876 165.27C318.106 165.071 318.373 164.92 318.662 164.826C318.95 164.731 319.255 164.695 319.558 164.719C319.861 164.743 320.156 164.827 320.426 164.966C320.972 165.273 321.379 165.777 321.564 166.374C321.75 166.972 321.699 167.617 321.422 168.179Z" fill="#263238"/>
<path d="M336.044 193.991C336.044 193.991 329.978 192.768 327.86 191.705C326.614 191.053 325.593 190.041 324.93 188.801C325.252 190.045 325.82 191.211 326.601 192.231C328.146 194.209 336.044 195.66 336.044 195.66V193.991Z" fill="#F28F8F"/>
<path d="M336.238 179.633C336.229 179.87 336.151 180.1 336.012 180.293C335.873 180.486 335.681 180.635 335.458 180.719C335.236 180.804 334.994 180.822 334.761 180.77C334.529 180.718 334.317 180.599 334.152 180.428C333.987 180.257 333.876 180.041 333.833 179.807C333.789 179.574 333.816 179.332 333.909 179.114C334.002 178.895 334.157 178.708 334.356 178.577C334.554 178.446 334.787 178.376 335.025 178.375C335.187 178.378 335.348 178.413 335.496 178.478C335.645 178.543 335.78 178.636 335.892 178.753C336.005 178.87 336.094 179.008 336.153 179.159C336.212 179.31 336.241 179.471 336.238 179.633Z" fill="#263238"/>
<path d="M334.957 175.06L332.347 176.489C332.167 176.132 332.129 175.719 332.241 175.335C332.354 174.951 332.609 174.624 332.954 174.42C333.127 174.326 333.316 174.268 333.512 174.25C333.708 174.231 333.905 174.252 334.093 174.312C334.28 174.372 334.453 174.469 334.602 174.598C334.75 174.726 334.871 174.884 334.957 175.06Z" fill="#263238"/>
<path d="M335.518 187.75L338.299 188.801C338.238 188.987 338.139 189.158 338.01 189.305C337.881 189.452 337.724 189.571 337.548 189.657C337.372 189.742 337.181 189.791 336.985 189.801C336.79 189.811 336.595 189.782 336.411 189.716C336.036 189.568 335.733 189.28 335.567 188.913C335.4 188.546 335.383 188.129 335.518 187.75Z" fill="#F28F8F"/>
<path d="M347.08 176.066L344.711 174.237C344.823 174.078 344.967 173.944 345.132 173.842C345.298 173.74 345.483 173.672 345.675 173.644C345.868 173.615 346.064 173.625 346.252 173.674C346.441 173.723 346.617 173.81 346.771 173.929C347.088 174.177 347.296 174.538 347.354 174.936C347.411 175.334 347.313 175.739 347.08 176.066Z" fill="#263238"/>
<path d="M346.344 179.29C346.335 179.528 346.256 179.757 346.117 179.951C345.979 180.144 345.786 180.292 345.564 180.377C345.342 180.461 345.099 180.479 344.867 180.427C344.635 180.375 344.423 180.256 344.258 180.085C344.092 179.914 343.981 179.698 343.938 179.465C343.895 179.231 343.921 178.99 344.014 178.771C344.108 178.552 344.263 178.365 344.461 178.234C344.66 178.103 344.892 178.033 345.13 178.033C345.293 178.036 345.453 178.071 345.602 178.135C345.751 178.2 345.885 178.294 345.998 178.41C346.111 178.527 346.199 178.665 346.258 178.816C346.318 178.967 346.347 179.128 346.344 179.29Z" fill="#263238"/>
<path d="M340.623 179.142L339.479 186.366L343.485 185.898L340.623 179.142Z" fill="#F28F8F"/>
<path d="M382.378 261.187L357.711 246.966C357.495 246.843 357.25 246.778 357.001 246.778C356.752 246.778 356.508 246.843 356.292 246.966L313.035 271.91L338.401 286.589L382.378 261.187Z" fill="#37474F"/>
<path d="M338.17 284.451L324.869 276.792L363.764 254.363L377.134 261.988L338.17 284.451Z" fill="#263238"/>
<path d="M331.633 263.142L331.885 263.279L338.398 267.04L349.993 260.353L350.233 260.215L343.469 256.317L331.633 263.142Z" fill="#263238"/>
<path d="M331.887 263.279L338.4 267.04L349.995 260.353L343.471 256.592L331.887 263.279Z" fill="#263238"/>
<path d="M313.035 271.91V272.493C313.032 272.906 313.136 273.312 313.336 273.673C313.537 274.033 313.827 274.336 314.18 274.551L337.165 287.8C337.526 288.01 337.937 288.121 338.355 288.121C338.773 288.121 339.184 288.01 339.545 287.8L381.142 263.794C381.494 263.578 381.784 263.275 381.984 262.914C382.185 262.554 382.289 262.148 382.287 261.736V261.153L338.401 286.588L313.035 271.91Z" fill="#263238"/>
<path d="M338.402 286.589V288.166C338.805 288.162 339.2 288.051 339.547 287.846L381.144 263.839C381.495 263.623 381.785 263.321 381.986 262.96C382.186 262.6 382.291 262.194 382.288 261.782V261.199L338.402 286.589Z" fill="#263238"/>
<path d="M339.076 286.897C339.47 287.048 339.892 287.108 340.312 287.074C340.731 287.041 341.138 286.914 341.503 286.703L382.916 262.822C383.276 262.616 383.585 262.333 383.82 261.993C384.056 261.653 384.212 261.264 384.279 260.856L388.857 233.866C388.868 233.709 388.868 233.553 388.857 233.397C388.855 232.646 388.554 231.926 388.022 231.396L344.983 256.215C344.718 256.367 344.49 256.577 344.316 256.828C344.142 257.079 344.026 257.365 343.975 257.666L339.076 286.897Z" fill="#263238"/>
<path d="M338.402 286.588L338.689 286.749C338.815 286.82 338.945 286.885 339.078 286.943L343.977 257.712C344.027 257.411 344.143 257.124 344.318 256.873C344.492 256.622 344.719 256.413 344.984 256.26L388.023 231.442C387.847 231.278 387.656 231.133 387.451 231.007L344.332 255.826C344.066 255.978 343.837 256.188 343.661 256.438C343.485 256.689 343.366 256.976 343.313 257.277L338.402 286.588Z" fill="#455A64"/>
<path d="M362.394 261.965C363.046 259.708 364.542 257.788 366.572 256.603C368.575 255.46 369.949 255.974 369.651 257.746C368.999 260.003 367.503 261.923 365.473 263.108C363.47 264.308 362.096 263.725 362.394 261.965Z" fill="#37474F"/>
<path d="M308.261 239.959C308.261 239.959 315.69 268.538 318.827 270.584C321.963 272.63 327.801 274.128 330.594 275.157C333.387 276.186 334.657 277.592 334.176 277.981C333.696 278.369 329.666 278.792 328.27 279.284C326.874 279.775 328.682 282.027 331.773 284.417C334.863 286.806 337.496 286.589 337.153 288.178C336.809 289.767 329.918 291.356 324.103 287.949C318.289 284.542 316.526 279.947 313.058 276.049C309.589 272.15 301.668 255.952 298.887 248.864C298.887 248.864 299.15 235.694 303.465 236.529C307.781 237.364 308.261 239.959 308.261 239.959Z" fill="#FFA8A7"/>
<path d="M343.607 297.872C344.134 299.141 345.954 302.639 350.006 302.444L359.965 293.139L343.607 297.872Z" fill="#7D97F4"/>
<path opacity="0.1" d="M343.607 297.872C344.134 299.141 345.954 302.639 350.006 302.444L359.965 293.139L343.607 297.872Z" fill="black"/>
<path d="M346.62 314.242C346.524 311.249 347.018 308.266 348.073 305.463C347.594 305.797 347.041 306.011 346.461 306.086C345.881 306.162 345.292 306.097 344.742 305.897C341.412 304.902 340.576 300.261 341.102 299.255C340.622 299.678 340.118 300.078 339.626 300.49C338.047 301.548 336.924 303.159 336.478 305.005C336.249 306.457 336.924 307.886 337.256 309.327C337.897 312.07 337.256 314.928 337.153 317.74C337.177 318.968 337.452 320.177 337.962 321.294C338.472 322.411 339.205 323.411 340.118 324.233C341.056 325.148 342.067 325.985 343.14 326.737C343.53 327.175 344.047 327.482 344.62 327.615C345.192 327.747 345.791 327.699 346.335 327.477C346.879 327.255 347.34 326.87 347.656 326.375C347.971 325.88 348.125 325.3 348.096 324.714C347.661 321.147 346.826 317.957 346.62 314.242Z" fill="#263238"/>
<path d="M350.4 301.85C350.091 302.433 349.817 302.993 349.576 303.553C349.862 303.004 350.137 302.433 350.4 301.85Z" fill="#37474F"/>
</svg>
