<svg width="567" height="419" viewBox="0 0 567 419" fill="none" xmlns="http://www.w3.org/2000/svg">
<path d="M537 374.004H32.6802V374.257H537V374.004Z" fill="#EBEBEB"/>
<path d="M268 380.584H8.20038C6.1629 380.584 4.20888 379.775 2.76817 378.334C1.32745 376.892 0.518066 374.938 0.518066 372.9V7.61707C0.535806 5.59073 1.35301 3.65343 2.79181 2.22686C4.23061 0.80028 6.17451 -7.76859e-05 8.20038 5.65567e-09H268C269.009 5.65568e-09 270.008 0.19876 270.94 0.584935C271.872 0.97111 272.719 1.53714 273.432 2.2507C274.146 2.96425 274.711 3.81137 275.097 4.74368C275.484 5.67599 275.682 6.67523 275.682 7.68435V372.9C275.682 373.909 275.484 374.908 275.097 375.841C274.711 376.773 274.146 377.62 273.432 378.334C272.719 379.047 271.872 379.613 270.94 379.999C270.008 380.385 269.009 380.584 268 380.584ZM8.20038 0.269155C6.2532 0.272713 4.38679 1.04801 3.00993 2.42524C1.63306 3.80247 0.857977 5.66937 0.85442 7.61707V372.9C0.857977 374.848 1.63306 376.714 3.00993 378.092C4.38679 379.469 6.2532 380.244 8.20038 380.248H268C269.947 380.244 271.814 379.469 273.19 378.092C274.567 376.714 275.342 374.848 275.346 372.9V7.61707C275.342 5.66937 274.567 3.80247 273.19 2.42524C271.814 1.04801 269.947 0.272713 268 0.269155H8.20038Z" fill="#EBEBEB"/>
<path d="M559.245 380.584H299.446C297.408 380.584 295.454 379.775 294.014 378.334C292.573 376.892 291.763 374.938 291.763 372.9V7.61707C291.781 5.59073 292.598 3.65343 294.037 2.22686C295.476 0.80028 297.42 -7.76859e-05 299.446 5.65567e-09H559.245C561.283 5.65569e-09 563.237 0.8096 564.678 2.2507C566.118 3.69179 566.928 5.64634 566.928 7.68435V372.9C566.928 374.938 566.118 376.892 564.678 378.334C563.237 379.775 561.283 380.584 559.245 380.584ZM299.446 0.269155C297.499 0.272713 295.632 1.04801 294.255 2.42524C292.878 3.80247 292.103 5.66937 292.1 7.61707V372.9C292.103 374.848 292.878 376.714 294.255 378.092C295.632 379.469 297.499 380.244 299.446 380.248H559.245C561.192 380.244 563.059 379.469 564.436 378.092C565.813 376.714 566.588 374.848 566.591 372.9V7.61707C566.588 5.66937 565.813 3.80247 564.436 2.42524C563.059 1.04801 561.192 0.272713 559.245 0.269155H299.446Z" fill="#EBEBEB"/>
<path d="M537 374.004H32.6802V374.257H537V374.004Z" fill="#EBEBEB"/>
<path d="M486.467 390.234H453.061V390.486H486.467V390.234Z" fill="#EBEBEB"/>
<path d="M366.762 392.977H357.997V393.229H366.762V392.977Z" fill="#EBEBEB"/>
<path d="M452.052 380.874H432.697V381.126H452.052V380.874Z" fill="#EBEBEB"/>
<path d="M129.157 382.568H85.5935V382.82H129.157V382.568Z" fill="#EBEBEB"/>
<path d="M259.776 386.824H165.286V387.076H259.776V386.824Z" fill="#EBEBEB"/>
<path d="M244.338 88.3601C250.514 82.3653 250.66 72.4995 244.665 66.3241C238.67 60.1488 228.805 60.0024 222.629 65.9972C216.454 71.992 216.307 81.8578 222.302 88.0331C228.297 94.2085 238.163 94.3548 244.338 88.3601Z" fill="#E0E0E0"/>
<path d="M241.9 91.8869C249.679 88.2061 253.002 78.9155 249.321 71.1358C245.641 63.3561 236.35 60.0332 228.57 63.714C220.791 67.3948 217.468 76.6854 221.149 84.4651C224.829 92.2448 234.12 95.5676 241.9 91.8869Z" fill="#F0F0F0"/>
<path d="M246.226 81.7312C245.449 83.9045 244.045 85.7986 242.191 87.174C240.338 88.5494 238.118 89.3443 235.813 89.4581C233.507 89.5719 231.22 88.9996 229.24 87.8136C227.26 86.6275 225.676 84.8809 224.689 82.7947C223.702 80.7085 223.355 78.3764 223.693 76.0932C224.031 73.81 225.039 71.6783 226.588 69.9677C228.138 68.2571 230.16 67.0444 232.398 66.4829C234.637 65.9215 236.992 66.0365 239.165 66.8134C240.608 67.3293 241.936 68.1244 243.072 69.1533C244.208 70.1822 245.13 71.4247 245.785 72.81C246.441 74.1952 246.817 75.696 246.893 77.2268C246.968 78.7575 246.742 80.2881 246.226 81.7312Z" fill="#E6E6E6"/>
<path d="M238.495 82.5614C237.638 84.8334 235.402 85.3742 232.725 84.0837L231.629 85.7442L230.075 84.8328L231.172 83.1724C229.909 82.2721 228.874 81.0892 228.15 79.7179L229.985 78.2163C230.565 79.3813 231.412 80.392 232.459 81.1655L234.059 78.5978C232.807 77.2656 231.461 75.6999 232.222 73.6369C233.083 71.3727 235.345 70.8063 238.063 72.186L239.159 70.5255L240.713 71.4369L239.644 73.1436C240.646 73.8569 241.492 74.7663 242.132 75.8168L240.38 77.3732C239.892 76.4899 239.22 75.7213 238.411 75.1193L236.726 77.8078C237.938 79.0706 239.237 80.5912 238.495 82.5614ZM235.406 76.4119L236.782 74.2204C235.829 73.8869 235.142 74.1394 234.873 74.7576C234.603 75.3757 234.967 75.8642 235.406 76.4119ZM235.795 81.5514C235.86 81.2703 235.847 80.9768 235.757 80.7025C235.668 80.4283 235.505 80.1837 235.287 79.9951L233.985 82.0826C234.914 82.3577 235.577 82.1704 235.795 81.5514Z" fill="white"/>
<path d="M327.314 78.957V83.6169C330.229 83.8498 332.996 84.997 335.221 86.895L338.51 83.5968C335.405 80.8362 331.461 79.2018 327.314 78.957Z" fill="#E6E6E6"/>
<path d="M325.064 111.415C321.766 111.149 318.669 109.718 316.328 107.379C313.987 105.04 312.554 101.944 312.285 98.6458H307.615C307.888 103.181 309.813 107.459 313.027 110.67C316.24 113.882 320.519 115.805 325.054 116.075L325.064 111.415Z" fill="#F5F5F5"/>
<path d="M312.285 96.3964C312.552 93.0962 313.984 89.9985 316.325 87.6573C318.666 85.316 321.764 83.8839 325.064 83.6169V78.957C320.526 79.2275 316.245 81.1515 313.03 84.365C309.814 87.5784 307.888 91.8587 307.615 96.3964H312.285Z" fill="#E0E0E0"/>
<path d="M340.103 85.1906L336.805 88.4888C338.471 90.4418 339.565 92.8173 339.967 95.3529C340.368 97.8886 340.06 100.486 339.079 102.858C338.097 105.23 336.478 107.284 334.402 108.794C332.326 110.305 329.873 111.211 327.314 111.415V116.075C330.793 115.865 334.143 114.68 336.982 112.657C339.82 110.633 342.032 107.853 343.366 104.632C344.7 101.412 345.101 97.8809 344.524 94.4432C343.947 91.0055 342.415 87.7993 340.103 85.1906Z" fill="#EBEBEB"/>
<path d="M118.606 140.424L119.04 150.783L143.872 144.095L156.168 128.804L169.996 123.61L171.368 127.271L181.858 115.985L166.062 110.911L167.626 115.057L153.828 120.039L141.966 135.683L118.606 140.424Z" fill="#E6E6E6"/>
<path d="M428.127 150.974C429.717 153.804 430.432 157.041 430.183 160.277C429.933 163.512 428.729 166.601 426.724 169.153C424.719 171.705 422.002 173.605 418.917 174.613C415.832 175.621 412.518 175.691 409.393 174.816C406.267 173.94 403.472 172.157 401.36 169.693C399.248 167.229 397.914 164.194 397.527 160.971C397.14 157.749 397.717 154.484 399.185 151.59C400.654 148.696 402.947 146.302 405.776 144.711C407.654 143.654 409.723 142.978 411.863 142.72C414.003 142.463 416.173 142.63 418.249 143.212C420.325 143.794 422.265 144.779 423.96 146.11C425.655 147.442 427.071 149.095 428.127 150.974Z" fill="#E6E6E6"/>
<path d="M426.74 170.087C433.368 163.905 433.728 153.521 427.546 146.893C421.364 140.266 410.979 139.905 404.352 146.088C397.725 152.27 397.364 162.654 403.546 169.282C409.728 175.909 420.113 176.27 426.74 170.087Z" fill="#F0F0F0"/>
<path d="M426.663 163.186C429.512 157.028 426.83 149.726 420.672 146.877C414.514 144.028 407.213 146.71 404.364 152.868C401.515 159.026 404.197 166.327 410.354 169.176C416.512 172.025 423.814 169.343 426.663 163.186Z" fill="#E6E6E6"/>
<path d="M421.511 157.692C423.255 159.82 422.519 162.321 419.735 164.218L420.744 166.235L418.969 167.244L417.96 165.226C416.361 165.956 414.613 166.301 412.856 166.235L412.423 163.582C413.895 163.674 415.367 163.414 416.72 162.826L415.106 159.8C413.088 160.274 410.789 160.708 409.195 158.791C407.46 156.663 408.186 154.121 411.081 152.235L410.073 150.218L411.848 149.209L412.917 151.226C414.185 150.647 415.558 150.331 416.952 150.298L417.486 152.901C416.343 152.879 415.208 153.103 414.158 153.556L415.842 156.734C417.769 156.26 419.998 155.846 421.511 157.692ZM413.724 157.238L412.352 154.646C411.485 155.392 411.343 156.209 411.797 156.824C412.251 157.44 412.937 157.359 413.724 157.238ZM418.989 159.77C418.75 159.546 418.454 159.393 418.135 159.325C417.815 159.258 417.482 159.279 417.173 159.386L418.485 161.847C419.281 161.091 419.473 160.334 418.989 159.77Z" fill="white"/>
<path d="M144.528 382.568H138.143V382.82H144.528V382.568Z" fill="#EBEBEB"/>
<path d="M286.998 419C395.006 419 482.563 413.888 482.563 407.582C482.563 401.276 395.006 396.164 286.998 396.164C178.991 396.164 91.4331 401.276 91.4331 407.582C91.4331 413.888 178.991 419 286.998 419Z" fill="#F5F5F5"/>
<path d="M312.638 406.765H107.319C103.11 403.805 100.14 399.396 98.9773 394.383C97.8143 389.37 98.5399 384.104 101.015 379.593C101.946 377.768 103.337 376.217 105.05 375.094C102.754 370.765 102.068 365.761 103.113 360.973C104.182 356.465 107.914 353.408 111.767 350.947C108.915 334.444 112.14 317.466 120.845 303.158C129.499 289.098 143.772 279.959 159.466 275.511C158.749 269.492 159.305 263.389 161.099 257.598C162.892 251.808 165.884 246.459 169.878 241.899C173.873 237.34 178.782 233.671 184.286 231.131C189.791 228.591 195.767 227.237 201.829 227.157C202.28 222.884 203.654 218.76 205.858 215.071C208.061 211.383 211.04 208.217 214.588 205.794C218.08 203.419 222.06 201.857 226.236 201.223C230.411 200.589 234.675 200.9 238.715 202.133C239.34 199.107 240.646 196.263 242.533 193.816C244.421 191.37 246.84 189.385 249.608 188.012C252.378 186.705 255.415 186.062 258.478 186.134C261.54 186.206 264.543 186.99 267.249 188.425C275.5 186.085 284.578 190.493 288.32 198.34C292.062 206.187 289.56 216.597 282.651 221.771C290.448 233.39 290.105 251.586 281.824 262.853C286.383 264.083 288.36 270.619 289.036 275.38C290.988 289.218 288.635 303.321 282.298 315.776C290.71 315.373 298.85 321.646 303.863 328.545C306.35 332.048 307.97 336.09 308.589 340.341C309.208 344.592 308.808 348.929 307.423 352.995C312.305 352.692 316.451 356.555 318.851 360.882C320.652 364.475 321.806 368.357 322.26 372.351C322.453 372.749 322.598 373.169 322.694 373.601C325.306 385.08 321.282 398.727 312.638 406.765Z" fill="#7D97F4"/>
<g opacity="0.6">
<path d="M312.638 406.765H107.319C103.11 403.805 100.14 399.396 98.9773 394.383C97.8143 389.37 98.5399 384.104 101.015 379.593C101.946 377.768 103.337 376.217 105.05 375.094C102.754 370.765 102.068 365.761 103.113 360.973C104.182 356.465 107.914 353.408 111.767 350.947C108.915 334.444 112.14 317.466 120.845 303.158C129.499 289.098 143.772 279.959 159.466 275.511C158.749 269.492 159.305 263.389 161.099 257.598C162.892 251.808 165.884 246.459 169.878 241.899C173.873 237.34 178.782 233.671 184.286 231.131C189.791 228.591 195.767 227.237 201.829 227.157C202.28 222.884 203.654 218.76 205.858 215.071C208.061 211.383 211.04 208.217 214.588 205.794C218.08 203.419 222.06 201.857 226.236 201.223C230.411 200.589 234.675 200.9 238.715 202.133C239.34 199.107 240.646 196.263 242.533 193.816C244.421 191.37 246.84 189.385 249.608 188.012C252.378 186.705 255.415 186.062 258.478 186.134C261.54 186.206 264.543 186.99 267.249 188.425C275.5 186.085 284.578 190.493 288.32 198.34C292.062 206.187 289.56 216.597 282.651 221.771C290.448 233.39 290.105 251.586 281.824 262.853C286.383 264.083 288.36 270.619 289.036 275.38C290.988 289.218 288.635 303.321 282.298 315.776C290.71 315.373 298.85 321.646 303.863 328.545C306.35 332.048 307.97 336.09 308.589 340.341C309.208 344.592 308.808 348.929 307.423 352.995C312.305 352.692 316.451 356.555 318.851 360.882C320.652 364.475 321.806 368.357 322.26 372.351C322.453 372.749 322.598 373.169 322.694 373.601C325.306 385.08 321.282 398.727 312.638 406.765Z" fill="white"/>
</g>
<path d="M263.376 171.49L326.83 161.192C327.052 161.159 327.279 161.184 327.488 161.267C327.697 161.349 327.881 161.485 328.021 161.661C328.161 161.836 328.252 162.046 328.286 162.268C328.319 162.49 328.293 162.717 328.211 162.927L304.075 222.507C303.993 222.714 303.858 222.896 303.684 223.034C303.509 223.172 303.301 223.262 303.081 223.294C302.861 223.325 302.636 223.298 302.43 223.215C302.223 223.132 302.043 222.995 301.906 222.82L262.569 173.538C262.43 173.363 262.34 173.155 262.307 172.934C262.274 172.714 262.3 172.488 262.382 172.281C262.463 172.073 262.598 171.891 262.773 171.752C262.947 171.613 263.155 171.523 263.376 171.49Z" fill="#7D97F4"/>
<path opacity="0.2" d="M263.376 171.49L326.83 161.192C327.052 161.159 327.279 161.184 327.488 161.267C327.697 161.349 327.881 161.485 328.021 161.661C328.161 161.836 328.252 162.046 328.286 162.268C328.319 162.49 328.293 162.717 328.211 162.927L304.075 222.507C303.993 222.714 303.858 222.896 303.684 223.034C303.509 223.172 303.301 223.262 303.081 223.294C302.861 223.325 302.636 223.298 302.43 223.215C302.223 223.132 302.043 222.995 301.906 222.82L262.569 173.538C262.43 173.363 262.34 173.155 262.307 172.934C262.274 172.714 262.3 172.488 262.382 172.281C262.463 172.073 262.598 171.891 262.773 171.752C262.947 171.613 263.155 171.523 263.376 171.49Z" fill="white"/>
<path d="M267.905 195.526L271.859 190.412L268.419 186.095L262.549 188.819C262.956 190.234 263.638 191.556 264.557 192.707C265.477 193.858 266.614 194.816 267.905 195.526Z" fill="#263238"/>
<path opacity="0.2" d="M268.419 186.095L267.037 186.731C267.847 188.694 269.197 190.387 270.931 191.612L271.859 190.412L268.419 186.095Z" fill="white"/>
<path opacity="0.4" d="M265.565 187.417L264.465 187.931C265.408 190.337 267.058 192.401 269.196 193.852L269.932 192.893C268.136 191.367 266.653 189.507 265.565 187.417Z" fill="white"/>
<path d="M274.118 192.53C272.367 191.572 270.823 190.276 269.575 188.718C268.327 187.16 267.399 185.371 266.846 183.453L303.328 154.343C305.369 152.709 307.712 151.495 310.224 150.772C312.736 150.048 315.367 149.829 317.964 150.127C317.677 152.724 316.879 155.239 315.615 157.526C314.351 159.813 312.647 161.827 310.6 163.451L274.118 192.53Z" fill="#7D97F4"/>
<path d="M303.328 154.313L268.944 181.758C270.278 185.513 272.836 188.71 276.206 190.836L310.601 163.391C312.647 161.766 314.352 159.752 315.615 157.465C316.879 155.178 317.677 152.664 317.964 150.067C315.365 149.773 312.733 149.997 310.221 150.725C307.709 151.454 305.366 152.674 303.328 154.313Z" fill="#7D97F4"/>
<path opacity="0.5" d="M303.328 154.313L268.944 181.758C270.278 185.513 272.836 188.71 276.206 190.836L310.601 163.391C312.647 161.766 314.352 159.752 315.615 157.465C316.879 155.178 317.677 152.664 317.964 150.067C315.365 149.773 312.733 149.997 310.221 150.725C307.709 151.454 305.366 152.674 303.328 154.313Z" fill="white"/>
<path d="M303.328 154.313L301.755 155.574C303.282 159.218 305.797 162.362 309.017 164.652L310.601 163.391C312.647 161.766 314.352 159.752 315.615 157.465C316.879 155.178 317.677 152.664 317.964 150.067C315.365 149.773 312.733 149.997 310.221 150.725C307.709 151.454 305.366 152.674 303.328 154.313Z" fill="#7D97F4"/>
<path opacity="0.2" d="M303.328 154.313L301.755 155.574C303.282 159.218 305.797 162.362 309.017 164.652L310.601 163.391C312.647 161.766 314.352 159.752 315.615 157.465C316.879 155.178 317.677 152.664 317.964 150.067C315.365 149.773 312.733 149.997 310.221 150.725C307.709 151.454 305.366 152.674 303.328 154.313Z" fill="white"/>
<path d="M287.079 218.039L291.033 212.915L287.593 208.608L281.733 211.331C282.138 212.747 282.818 214.068 283.736 215.219C284.653 216.37 285.789 217.329 287.079 218.039Z" fill="#263238"/>
<path opacity="0.2" d="M287.593 208.608L286.221 209.243C287.027 211.206 288.378 212.897 290.115 214.115L291.032 212.915L287.593 208.608Z" fill="white"/>
<path opacity="0.4" d="M284.749 209.929L283.65 210.434C284.586 212.843 286.232 214.912 288.37 216.364L289.117 215.356C287.323 213.847 285.84 212.004 284.749 209.929Z" fill="white"/>
<path d="M293.303 215.043C289.771 213.101 287.155 209.836 286.03 205.965L322.513 176.856C324.554 175.222 326.897 174.008 329.409 173.283C331.92 172.558 334.551 172.336 337.148 172.63C336.857 175.227 336.056 177.741 334.793 180.029C333.529 182.317 331.828 184.334 329.785 185.964L293.303 215.043Z" fill="#7D97F4"/>
<path d="M322.513 176.826L288.118 204.261C289.457 208.016 292.018 211.213 295.391 213.339L329.785 185.904C331.828 184.273 333.53 182.257 334.793 179.969C336.056 177.681 336.857 175.167 337.148 172.569C334.549 172.28 331.918 172.506 329.406 173.237C326.894 173.967 324.552 175.187 322.513 176.826Z" fill="#7D97F4"/>
<path opacity="0.5" d="M322.513 176.826L288.118 204.261C289.457 208.016 292.018 211.213 295.391 213.339L329.785 185.904C331.828 184.273 333.53 182.257 334.793 179.969C336.056 177.681 336.857 175.167 337.148 172.569C334.549 172.28 331.918 172.506 329.406 173.237C326.894 173.967 324.552 175.187 322.513 176.826Z" fill="white"/>
<path d="M322.513 176.826L320.939 178.077C322.466 181.721 324.981 184.865 328.201 187.154L329.785 185.894C331.828 184.263 333.529 182.247 334.793 179.959C336.056 177.671 336.856 175.157 337.148 172.559C334.548 172.271 331.916 172.499 329.404 173.232C326.893 173.964 324.551 175.185 322.513 176.826Z" fill="#7D97F4"/>
<path opacity="0.2" d="M322.513 176.826L320.939 178.077C322.466 181.721 324.981 184.865 328.201 187.154L329.785 185.894C331.828 184.263 333.529 182.247 334.793 179.959C336.056 177.671 336.856 175.157 337.148 172.559C334.548 172.271 331.916 172.499 329.404 173.232C326.893 173.964 324.551 175.185 322.513 176.826Z" fill="white"/>
<path d="M276.862 210.645L283.257 202.395L277.699 195.425L268.228 199.823C268.881 202.107 269.98 204.24 271.462 206.098C272.944 207.955 274.779 209.501 276.862 210.645Z" fill="#263238"/>
<path opacity="0.2" d="M277.699 195.425L275.48 196.434C276.78 199.6 278.957 202.329 281.754 204.301L283.257 202.375L277.699 195.425Z" fill="white"/>
<path opacity="0.4" d="M273.1 197.563L271.314 198.39C272.835 202.276 275.497 205.609 278.95 207.952L280.15 206.399C277.248 203.94 274.853 200.939 273.1 197.563Z" fill="white"/>
<path d="M286.857 205.814C284.03 204.256 281.538 202.155 279.525 199.631C277.512 197.107 276.017 194.211 275.127 191.108L334.021 144.115C337.317 141.482 341.1 139.524 345.154 138.356C349.207 137.188 353.452 136.831 357.644 137.307C357.179 141.499 355.889 145.558 353.85 149.25C351.811 152.943 349.062 156.195 345.762 158.821L286.857 205.814Z" fill="#7D97F4"/>
<path d="M334.062 144.116L278.586 188.415C280.719 194.497 284.837 199.685 290.277 203.141L345.802 158.842C349.103 156.215 351.851 152.963 353.891 149.271C355.93 145.578 357.219 141.52 357.684 137.327C353.493 136.849 349.25 137.202 345.196 138.367C341.142 139.531 337.359 141.485 334.062 144.116Z" fill="#7D97F4"/>
<path opacity="0.6" d="M334.062 144.116L278.586 188.415C280.719 194.497 284.837 199.685 290.277 203.141L345.802 158.842C349.103 156.215 351.851 152.963 353.891 149.271C355.93 145.578 357.219 141.52 357.684 137.327C353.493 136.849 349.25 137.202 345.196 138.367C341.142 139.531 337.359 141.485 334.062 144.116Z" fill="white"/>
<path d="M334.061 144.115L331.52 146.133C333.978 152.035 338.042 157.13 343.25 160.839L345.802 158.821C349.102 156.195 351.851 152.943 353.89 149.25C355.929 145.558 357.219 141.499 357.684 137.307C353.492 136.831 349.247 137.188 345.194 138.356C341.14 139.524 337.357 141.482 334.061 144.115Z" fill="#7D97F4"/>
<path opacity="0.2" d="M334.061 144.115L331.52 146.133C333.978 152.035 338.042 157.13 343.25 160.839L345.802 158.821C349.102 156.195 351.851 152.943 353.89 149.25C355.929 145.558 357.219 141.499 357.684 137.307C353.492 136.831 349.247 137.188 345.194 138.356C341.14 139.524 337.357 141.482 334.061 144.115Z" fill="white"/>
<path d="M331.57 165.156C330.723 165.83 329.695 166.238 328.616 166.328C327.537 166.418 326.456 166.187 325.509 165.662C324.561 165.138 323.791 164.345 323.294 163.383C322.797 162.421 322.597 161.333 322.718 160.257C322.839 159.182 323.276 158.166 323.974 157.338C324.672 156.511 325.6 155.909 326.64 155.608C327.681 155.308 328.786 155.322 329.818 155.65C330.85 155.978 331.762 156.604 332.438 157.45C333.344 158.587 333.761 160.037 333.599 161.482C333.436 162.927 332.707 164.248 331.57 165.156Z" fill="#7D97F4"/>
<path d="M323.864 164.288C323.004 163.209 322.583 161.844 322.686 160.468C322.789 159.092 323.408 157.805 324.419 156.865C324.303 156.939 324.192 157.02 324.086 157.107C323.524 157.556 323.055 158.111 322.708 158.741C322.36 159.371 322.14 160.064 322.06 160.779C321.98 161.494 322.041 162.218 322.241 162.909C322.44 163.6 322.774 164.246 323.223 164.808C323.672 165.37 324.228 165.839 324.858 166.186C325.488 166.534 326.18 166.754 326.895 166.834C327.61 166.914 328.334 166.853 329.026 166.653C329.717 166.453 330.362 166.119 330.924 165.67L331.227 165.398C330.086 166.175 328.693 166.493 327.328 166.287C325.963 166.081 324.725 165.367 323.864 164.288Z" fill="#7D97F4"/>
<path opacity="0.3" d="M323.864 164.288C323.004 163.209 322.583 161.844 322.686 160.468C322.789 159.092 323.408 157.805 324.419 156.865C324.303 156.939 324.192 157.02 324.086 157.107C323.524 157.556 323.055 158.111 322.708 158.741C322.36 159.371 322.14 160.064 322.06 160.779C321.98 161.494 322.041 162.218 322.241 162.909C322.44 163.6 322.774 164.246 323.223 164.808C323.672 165.37 324.228 165.839 324.858 166.186C325.488 166.534 326.18 166.754 326.895 166.834C327.61 166.914 328.334 166.853 329.026 166.653C329.717 166.453 330.362 166.119 330.924 165.67L331.227 165.398C330.086 166.175 328.693 166.493 327.328 166.287C325.963 166.081 324.725 165.367 323.864 164.288Z" fill="black"/>
<path d="M330.562 163.895C329.963 164.373 329.236 164.663 328.472 164.728C327.708 164.792 326.942 164.629 326.272 164.258C325.601 163.888 325.055 163.326 324.703 162.645C324.352 161.964 324.21 161.194 324.296 160.433C324.382 159.671 324.693 158.952 325.188 158.367C325.683 157.782 326.34 157.357 327.077 157.145C327.813 156.934 328.596 156.946 329.326 157.18C330.056 157.413 330.7 157.858 331.177 158.458C331.496 158.855 331.732 159.311 331.874 159.799C332.016 160.288 332.059 160.799 332.002 161.305C331.945 161.81 331.788 162.299 331.541 162.744C331.294 163.189 330.961 163.58 330.562 163.895Z" fill="white"/>
<path d="M325.014 163.118L331.832 159.699C331.698 159.281 331.493 158.889 331.227 158.539L324.429 161.938C324.558 162.361 324.755 162.76 325.014 163.118Z" fill="#7D97F4"/>
<path d="M326.073 164.117L332.004 161.152C332.029 160.91 332.029 160.667 332.004 160.425L325.518 163.673C325.69 163.837 325.875 163.986 326.073 164.117Z" fill="#7D97F4"/>
<g opacity="0.7">
<path d="M325.014 163.118L331.832 159.699C331.698 159.281 331.493 158.889 331.227 158.539L324.429 161.938C324.558 162.361 324.755 162.76 325.014 163.118Z" fill="white"/>
<path d="M326.073 164.117L332.004 161.152C332.029 160.91 332.029 160.667 332.004 160.425L325.518 163.673C325.69 163.837 325.875 163.986 326.073 164.117Z" fill="white"/>
</g>
<path d="M398.07 224.665H343.865V406.624H398.07V224.665Z" fill="#7D97F4"/>
<path opacity="0.2" d="M359.046 224.645H343.735V406.523H359.046V224.645Z" fill="black"/>
<path d="M152.335 356.021H98.1309V406.634H152.335V356.021Z" fill="#7D97F4"/>
<path opacity="0.2" d="M112.938 355.97H97.6265V406.533H112.938V355.97Z" fill="black"/>
<path d="M231.029 312.235H176.825V406.624H231.029V312.235Z" fill="#7D97F4"/>
<path opacity="0.2" d="M191.763 312.195H176.451V406.533H191.763V312.195Z" fill="black"/>
<path d="M315.331 268.45H261.127V406.624H315.331V268.45Z" fill="#7D97F4"/>
<path opacity="0.2" d="M276.186 268.42H260.875V406.533H276.186V268.42Z" fill="black"/>
<path d="M476.764 180.88H422.56V406.624H476.764V180.88Z" fill="#7D97F4"/>
<path opacity="0.2" d="M437.871 180.88H422.56V406.533H437.871V180.88Z" fill="black"/>
<path d="M206.085 282.662L201.607 297.943L208.203 299.486L213.226 284.861L206.085 282.662Z" fill="#FF8B7B"/>
<path d="M209.686 297.721L202.131 296.259C201.987 296.237 201.839 296.265 201.713 296.339C201.586 296.412 201.489 296.526 201.435 296.662L198.722 303.017C198.599 303.275 198.582 303.572 198.674 303.843C198.766 304.115 198.961 304.339 199.216 304.469L199.428 304.54C202.172 305.014 204.643 305.316 208.052 305.972C212.087 306.749 210.947 307.071 215.667 308.05C218.502 308.635 219.702 305.266 218.562 304.862C213.176 303.057 212.964 301.161 211.26 298.629C210.875 298.131 210.31 297.805 209.686 297.721Z" fill="#263238"/>
<path d="M170.41 182.918L196.443 198.854L169.169 203.635L170.41 182.918Z" fill="#263238"/>
<path d="M212.137 292.264L202.736 290.58C202.736 290.58 206.236 277.548 210.028 259.736C210.613 256.992 218.168 236.113 218.168 236.113C218.168 236.113 180.849 218.624 180.253 218.432C179.779 218.281 176.723 218.049 171.952 214.317C163.076 207.377 165.901 193.801 165.901 193.801L189.099 194.356C211.743 206.459 231.402 224.141 234.054 231.383C237.786 241.58 212.137 292.264 212.137 292.264Z" fill="#263238"/>
<path d="M118.99 275.854L103.487 279.505L105.413 286.011L120.603 283.146L118.99 275.854Z" fill="#FF8B7B"/>
<path d="M107.672 286.414L105.191 279.092C105.136 278.956 105.039 278.842 104.913 278.767C104.787 278.692 104.64 278.661 104.495 278.678L97.6259 279.465C97.3404 279.486 97.0746 279.618 96.8858 279.833C96.6971 280.048 96.6006 280.329 96.6173 280.615C96.6077 280.685 96.6077 280.756 96.6173 280.826C97.5654 283.449 98.5135 285.749 99.6432 289.037C100.965 292.92 100.127 292.063 101.66 296.682C102.548 299.446 106.088 298.841 105.856 297.62C104.767 292.053 106.31 290.933 107.672 288.2C107.904 287.627 107.904 286.987 107.672 286.414Z" fill="#263238"/>
<path d="M113.634 285.849L110.457 276.852L159.769 249.367C159.769 249.367 156.551 208.305 156.4 207.67C156.249 207.034 154.988 204.412 155.876 198.41C157.52 187.315 170.692 182.988 170.692 182.988L181.959 206.762C181.959 206.762 176.724 254.955 171.741 260.835C164.731 269.116 113.634 285.849 113.634 285.849Z" fill="#263238"/>
<path opacity="0.2" d="M180.254 218.432L171.953 214.317L178.348 234.006L180.254 218.432Z" fill="black"/>
<path d="M200.114 153.798C195.838 154.716 191.541 155.533 187.244 156.33L184.016 156.915L181.142 157.409C179.897 157.675 178.751 158.282 177.834 159.164L173.305 163.804C171.792 165.378 170.279 166.951 168.736 168.494C165.71 171.601 162.583 174.697 159.436 177.744C158.94 178.223 158.282 178.5 157.592 178.521C156.902 178.542 156.23 178.305 155.705 177.856C155.181 177.407 154.843 176.779 154.756 176.094C154.67 175.41 154.843 174.717 155.24 174.153C157.741 170.572 160.283 167.092 162.906 163.542C164.187 161.767 165.498 160.032 166.809 158.297L170.844 152.981C172.828 150.583 175.467 148.813 178.439 147.888L181.929 146.94L185.076 146.113C189.282 145.043 193.478 143.974 197.704 143.006C199.076 142.829 200.465 143.171 201.598 143.965C202.731 144.759 203.526 145.947 203.828 147.297C204.13 148.648 203.916 150.062 203.229 151.263C202.542 152.463 201.431 153.364 200.114 153.788V153.798Z" fill="#7D97F4"/>
<path opacity="0.1" d="M200.114 153.798C195.838 154.716 191.541 155.533 187.244 156.33L184.016 156.915L181.142 157.409C179.897 157.675 178.751 158.282 177.834 159.164L173.305 163.804C171.792 165.378 170.279 166.951 168.736 168.494C165.71 171.601 162.583 174.697 159.436 177.744C158.94 178.223 158.282 178.5 157.592 178.521C156.902 178.542 156.23 178.305 155.705 177.856C155.181 177.407 154.843 176.779 154.756 176.094C154.67 175.41 154.843 174.717 155.24 174.153C157.741 170.572 160.283 167.092 162.906 163.542C164.187 161.767 165.498 160.032 166.809 158.297L170.844 152.981C172.828 150.583 175.467 148.813 178.439 147.888L181.929 146.94L185.076 146.113C189.282 145.043 193.478 143.974 197.704 143.006C199.076 142.829 200.465 143.171 201.598 143.965C202.731 144.759 203.526 145.947 203.828 147.297C204.13 148.648 203.916 150.062 203.229 151.263C202.542 152.463 201.431 153.364 200.114 153.788V153.798Z" fill="black"/>
<path d="M154.383 174.092L147.726 176.674L153.777 182.504L158.821 178.47C158.962 178.358 159.08 178.219 159.166 178.061C159.252 177.902 159.304 177.728 159.32 177.548C159.336 177.369 159.316 177.188 159.259 177.017C159.203 176.846 159.112 176.688 158.992 176.553C158.425 175.858 157.726 175.282 156.934 174.86C156.143 174.437 155.276 174.176 154.383 174.092Z" fill="#FF8B7B"/>
<path d="M147.725 176.674L146.717 178.611C146.465 179.077 146.386 179.616 146.493 180.135C146.6 180.653 146.886 181.117 147.302 181.445L149.44 183.12C149.759 183.372 150.141 183.532 150.544 183.584C150.947 183.635 151.357 183.576 151.73 183.412L153.747 182.504L147.725 176.674Z" fill="#FF8B7B"/>
<path d="M117.829 203.07L115.378 202.667L116.901 200.821L147.574 189.807C152.456 188.052 155.643 184.764 153.122 178.792C150.792 173.245 145.547 171.601 140.675 173.336L110.002 184.219L107.521 183.755L109.064 181.96L139.747 171.097C145.416 169.079 150.842 169.543 154.564 178.258C158.286 186.973 154.181 189.968 148.512 192.006L117.829 203.07Z" fill="#263238"/>
<path d="M126.917 169.785L126.241 168.262C125.563 166.734 124.351 165.506 122.832 164.808C121.313 164.11 119.592 163.99 117.991 164.47L95.3669 171.268L99.4015 181.264L126.917 169.785Z" fill="#263238"/>
<path opacity="0.2" d="M126.917 169.785L126.241 168.262C125.563 166.734 124.351 165.506 122.832 164.808C121.313 164.11 119.592 163.99 117.991 164.47L95.3669 171.268L99.4015 181.264L126.917 169.785Z" fill="white"/>
<path d="M119.141 206.661L118.203 204.412L147.947 191.3C152.678 189.222 155.724 185.621 153.222 179.68C150.893 174.122 145.769 172.741 141.038 174.798L111.293 187.769L110.345 185.53L140.09 172.589C145.597 170.199 150.933 170.35 154.604 179.085C158.276 187.82 154.372 191.118 148.875 193.539L119.141 206.661Z" fill="#263238"/>
<path d="M115.752 220.712L97.4146 176.392L119.605 166.921C120.269 166.625 120.986 166.464 121.714 166.448C122.441 166.432 123.165 166.561 123.842 166.827C124.519 167.094 125.136 167.493 125.657 168.001C126.178 168.509 126.593 169.115 126.877 169.785L140.342 202.001C141.061 203.779 141.06 205.767 140.339 207.544C139.618 209.322 138.234 210.748 136.479 211.523L115.752 220.712Z" fill="#263238"/>
<g opacity="0.3">
<path d="M119.141 206.661L116.75 206.379L118.202 204.361L147.947 191.249C152.678 189.171 155.724 185.571 153.222 179.63C150.892 174.072 145.769 172.69 141.038 174.748L111.293 187.769L108.873 187.436L110.345 185.53L140.09 172.589C145.597 170.199 150.933 170.35 154.604 179.085C158.276 187.82 154.372 191.118 148.875 193.539L119.141 206.661Z" fill="white"/>
</g>
<path d="M123.064 183.382L121.531 179.7L122.903 179.095L124.446 182.787L123.064 183.382Z" fill="#263238"/>
<path d="M114.128 187.285L112.584 183.584L113.966 182.978L115.51 186.68L114.128 187.285Z" fill="#263238"/>
<path d="M130.972 202.344L129.429 198.632L130.8 198.027L132.344 201.729L130.972 202.344Z" fill="#263238"/>
<path d="M122.025 206.288L120.482 202.576L121.864 201.961L123.407 205.673L122.025 206.288Z" fill="#263238"/>
<path d="M234.882 136.964C235.174 137.106 235.235 137.58 235.013 137.973C234.791 138.366 234.387 138.659 234.105 138.518C233.823 138.376 233.762 137.902 233.974 137.459C234.186 137.015 234.599 136.813 234.882 136.964Z" fill="#263238"/>
<path d="M234.68 137.307C235.056 137.379 235.446 137.315 235.779 137.126C235.59 137.144 235.399 137.125 235.218 137.07C235.036 137.015 234.867 136.924 234.72 136.803C234.754 136.884 234.768 136.972 234.761 137.06C234.754 137.148 234.726 137.232 234.68 137.307Z" fill="#263238"/>
<path d="M232.169 141.513C232.482 141.782 232.85 141.979 233.247 142.09C233.645 142.202 234.061 142.225 234.469 142.159C234.168 140.577 234.083 138.962 234.216 137.358L232.169 141.513Z" fill="#FF5652"/>
<path d="M233.288 134.705C233.64 134.623 234.007 134.626 234.358 134.714C234.708 134.801 235.033 134.971 235.305 135.209L235.366 135.28C235.397 135.303 235.432 135.321 235.47 135.33C235.508 135.34 235.547 135.342 235.585 135.336C235.624 135.331 235.661 135.318 235.694 135.297C235.728 135.277 235.757 135.251 235.78 135.219C235.803 135.189 235.82 135.155 235.829 135.118C235.839 135.081 235.841 135.042 235.835 135.005C235.83 134.967 235.817 134.931 235.796 134.898C235.776 134.866 235.75 134.838 235.719 134.816C235.388 134.504 234.987 134.277 234.55 134.154C234.113 134.031 233.652 134.016 233.207 134.11C233.14 134.121 233.078 134.157 233.036 134.211C232.984 134.267 232.954 134.341 232.954 134.417C232.954 134.494 232.984 134.568 233.036 134.624C233.07 134.655 233.11 134.678 233.153 134.692C233.197 134.706 233.243 134.71 233.288 134.705Z" fill="#263238"/>
<path d="M213.156 155.322C206.62 150.278 208.415 145.961 208.415 145.961C211.834 145.598 214.659 142.219 216.676 138.82C216.627 139.959 216.787 141.098 217.15 142.179C217.886 144.418 222.536 145.437 222.536 145.437C222.536 145.437 222.082 146.012 221.527 146.869C220.035 148.977 217.685 152.871 219.087 154.868C219.036 154.868 220.347 160.879 213.156 155.322Z" fill="#FF8B7B"/>
<path d="M222.224 146.042C221.921 146.284 221.619 146.526 221.326 146.809C221.293 146.82 221.258 146.82 221.225 146.809C220.269 146.369 219.415 145.733 218.72 144.942C218.025 144.152 217.504 143.224 217.191 142.219C216.823 141.136 216.662 139.993 216.717 138.85C217.241 137.993 217.725 137.116 218.108 136.309L222.143 145.729L222.224 146.042Z" fill="#FF8B7B"/>
<path d="M231.039 144.418C230.14 145.52 228.976 146.375 227.657 146.904C226.337 147.433 224.905 147.619 223.494 147.444C222.759 147.362 222.04 147.164 221.366 146.859C221.333 146.871 221.298 146.871 221.265 146.859C220.309 146.419 219.455 145.784 218.76 144.993C218.065 144.202 217.544 143.275 217.231 142.27C216.863 141.186 216.702 140.044 216.757 138.901C216.868 136.157 218.169 133.424 219.843 129.44C220.367 128.138 221.216 126.992 222.308 126.111C223.4 125.23 224.7 124.643 226.083 124.406C227.466 124.17 228.887 124.291 230.21 124.759C231.533 125.227 232.714 126.026 233.641 127.08C237.797 131.75 234.589 140.121 231.039 144.418Z" fill="#FF8B7B"/>
<path opacity="0.2" d="M223.041 147.263C222.499 147.232 221.969 147.099 221.477 146.869C222.082 146.012 222.546 145.447 222.486 145.437L223.727 144.065C223.727 144.065 222.698 146.99 223.041 147.263Z" fill="black"/>
<path d="M236.304 134.241C235.124 134.665 232.905 134.059 233.117 133.918C233.944 133.444 234.943 132.072 233.843 131.699C233.662 132.425 231.211 136.984 230.505 137.206C230.121 137.337 227.479 140.394 223.837 142.139C220.983 143.53 220.428 144.226 220.428 144.226L215.385 141.594C213.892 140.081 210.291 126.535 217.927 123.953C220.428 123.106 222.345 120.987 226.319 122.127C228.77 122.833 231.644 122.399 234.055 123.237C235.285 123.596 236.408 124.25 237.329 125.141C238.25 126.032 238.94 127.133 239.34 128.35C239.613 129.561 239.29 133.192 236.304 134.241Z" fill="#263238"/>
<path d="M231.705 135.33C232.714 136.803 231.876 139.365 230.928 140.696C229.98 142.028 228.235 142.3 227.751 140.384C227.404 138.927 227.543 137.397 228.144 136.026C228.901 134.392 230.656 133.858 231.705 135.33Z" fill="#FF8B7B"/>
<path d="M204.713 146.829C204.713 146.829 208.173 144.519 210.463 144.741C212.752 144.963 218.612 151.236 219.339 152.467C220.065 153.698 219.208 156.935 219.208 156.935L204.713 146.829Z" fill="#7D97F4"/>
<path opacity="0.3" d="M204.713 146.829C204.713 146.829 208.173 144.519 210.463 144.741C212.752 144.963 218.612 151.236 219.339 152.467C220.065 153.698 219.208 156.935 219.208 156.935L204.713 146.829Z" fill="white"/>
<path d="M220.973 157.52C220.293 156.68 219.565 155.878 218.794 155.12C215.354 152.127 211.743 149.336 207.982 146.758C206.61 145.858 205.166 145.072 203.665 144.408C202.196 143.729 200.534 143.594 198.975 144.026C197.416 144.458 196.061 145.43 195.152 146.768C189.937 154.474 188.707 160.455 185.237 165.499C180.71 171.967 175.42 177.866 169.482 183.069L173.799 187.689C180.52 192.894 188.221 196.692 196.443 198.854C196.443 198.854 204.3 186.307 208.809 183.109C221.124 174.365 220.388 170.865 222.304 167.082C223.081 165.542 223.369 163.802 223.132 162.093C222.894 160.385 222.141 158.79 220.973 157.52Z" fill="#7D97F4"/>
<path d="M222.304 167.092C221.618 168.434 221.295 169.765 220.539 171.308C219.163 174.035 217.228 176.441 214.86 178.369C212.936 180.068 210.915 181.654 208.808 183.12C206.909 184.682 205.215 186.479 203.765 188.465C202.947 189.511 202.47 190.783 202.398 192.109C202.326 193.435 202.662 194.751 203.362 195.879C206.559 201.094 211.431 208.537 211.431 208.537C207.961 207.63 206.549 207.256 201.032 209.001C192.398 211.725 174.293 209.324 169.189 202.032C170.556 198.622 172.705 195.582 175.463 193.156C172.3 195.251 169.398 197.716 166.819 200.498C164.539 200.973 162.229 199.722 160.585 198.098C158.941 196.474 157.711 194.437 156.127 192.752C154.544 191.068 152.809 189.474 150.499 189.676C153.525 185.641 158.639 183.987 163.45 182.615C167.041 181.607 171.62 180.094 175.049 177.824C178.814 174.037 182.233 169.923 185.267 165.529C188.726 160.486 189.947 154.505 195.182 146.788C196.09 145.449 197.445 144.476 199.004 144.043C200.564 143.611 202.226 143.747 203.695 144.428C205.196 145.096 206.64 145.885 208.012 146.788C211.766 149.364 215.373 152.149 218.814 155.13C219.583 155.894 220.31 156.699 220.993 157.541C222.151 158.813 222.897 160.408 223.131 162.113C223.365 163.818 223.077 165.554 222.304 167.092Z" fill="#7D97F4"/>
<path d="M270.023 153.93L275.217 151.68C275.432 151.587 275.635 151.468 275.822 151.327L278.162 149.502C278.325 149.377 278.445 149.207 278.508 149.012C278.572 148.817 278.574 148.608 278.515 148.412L276.145 144.64C276.076 144.361 275.905 144.118 275.667 143.958C275.428 143.798 275.138 143.732 274.854 143.773L271.344 145.084C271.08 145.178 270.844 145.338 270.658 145.548L267.138 149.381C266.997 149.561 266.906 149.776 266.876 150.003C266.846 150.23 266.877 150.461 266.966 150.672L268.52 153.133C268.622 153.432 268.834 153.681 269.113 153.829C269.392 153.977 269.718 154.013 270.023 153.93Z" fill="#FF8B7B"/>
<path opacity="0.2" d="M214.85 178.349L217.089 166.144L221.83 168.696C220.156 173.124 218.189 175.383 214.85 178.349Z" fill="black"/>
<path d="M249.114 169.917C255.589 165.418 263.719 159.064 269.649 153.95C270.204 151.993 268.358 149.421 266.482 150.208C261.812 152.165 247.863 159.901 245.402 159.971C243.707 160.022 226.238 157.5 220.529 156.673C219.394 156.497 218.234 156.744 217.271 157.369C214.114 159.507 213.307 161.847 213.488 163.905C213.671 165.47 214.399 166.92 215.544 168.001C216.69 169.082 218.18 169.724 219.752 169.816C227.73 170.411 239.693 171.076 244.353 171.278C246.046 171.362 247.72 170.883 249.114 169.917Z" fill="#7D97F4"/>
<path d="M227.216 139.224C225.38 144.499 222.919 154.565 218.875 158.388C214.83 162.21 209.151 162.422 203.745 163.693C202.444 164.016 200.78 165.66 200.8 165.398C199.458 166.895 198.609 168.768 198.369 170.764L192.489 166.174C191.898 165.784 191.413 165.254 191.077 164.631C190.9 164.061 190.867 163.455 190.981 162.869C191.096 162.283 191.354 161.734 191.732 161.272C192.476 160.039 193.072 158.722 193.507 157.349C191.468 158.875 189.941 160.986 189.13 163.401C186.265 162.392 182.917 159.981 182.856 156.935C182.835 155.729 183.067 154.532 183.538 153.422C184.009 152.312 184.708 151.313 185.59 150.49C183.586 151.552 181.964 153.213 180.95 155.241C180.335 153.435 178.832 151.64 176.915 151.7C178.382 148.446 180.263 145.394 182.513 142.623C184.873 139.97 188.091 137.882 191.591 137.64C194.294 137.448 196.947 138.326 199.529 139.143C202.111 139.96 204.794 140.757 207.477 140.414C210.16 140.071 212.924 135.956 213.428 133.293C217.261 131.094 222.647 136.5 227.216 139.224Z" fill="#263238"/>
<path opacity="0.2" d="M245.089 134.423C244.82 139.663 242.482 144.582 238.587 148.098C234.693 151.614 229.561 153.44 224.321 153.173H224.251C223.428 153.124 222.61 153.023 221.8 152.871C217.956 147.443 212.776 143.1 206.761 140.263C206.484 139.504 206.255 138.73 206.075 137.943C205.43 135.187 205.384 132.324 205.941 129.549C206.497 126.774 207.642 124.151 209.3 121.856C210.957 119.562 213.087 117.649 215.547 116.249C218.006 114.848 220.738 113.992 223.557 113.737C226.376 113.483 229.217 113.837 231.887 114.774C234.558 115.712 236.996 117.212 239.037 119.173C241.078 121.134 242.675 123.51 243.719 126.141C244.763 128.771 245.23 131.596 245.089 134.423Z" fill="black"/>
<path d="M232.037 152.043C229.569 152.927 226.949 153.311 224.331 153.173H224.26C223.434 153.125 222.612 153.024 221.799 152.87C217.958 147.441 212.777 143.097 206.761 140.262C206.479 139.506 206.25 138.731 206.075 137.943C205.474 135.396 205.385 132.756 205.812 130.174C206.24 127.593 207.175 125.122 208.565 122.905C209.954 120.688 211.77 118.769 213.907 117.259C216.044 115.749 218.459 114.678 221.013 114.108C222.172 114.689 223.186 115.523 223.978 116.549C225.623 118.921 226.618 121.682 226.863 124.558C227.448 128.891 227.346 133.289 226.56 137.59C225.953 140.542 226.241 143.608 227.387 146.395C229.364 150.873 232.037 152.043 232.037 152.043Z" fill="#7D97F4"/>
<path opacity="0.4" d="M232.037 152.043C229.569 152.927 226.949 153.311 224.331 153.173H224.26C223.434 153.125 222.612 153.024 221.799 152.87C217.958 147.441 212.777 143.097 206.761 140.262C206.479 139.506 206.25 138.731 206.075 137.943C205.474 135.396 205.385 132.756 205.812 130.174C206.24 127.593 207.175 125.122 208.565 122.905C209.954 120.688 211.77 118.769 213.907 117.259C216.044 115.749 218.459 114.678 221.013 114.108C222.172 114.689 223.186 115.523 223.978 116.549C225.623 118.921 226.618 121.682 226.863 124.558C227.448 128.891 227.346 133.289 226.56 137.59C225.953 140.542 226.241 143.608 227.387 146.395C229.364 150.873 232.037 152.043 232.037 152.043Z" fill="white"/>
<path d="M224.008 154.626C223.919 154.707 223.814 154.769 223.699 154.808C223.585 154.848 223.464 154.864 223.344 154.855C223.223 154.847 223.105 154.814 222.998 154.759C222.89 154.704 222.795 154.628 222.717 154.535C222.395 154.01 222.052 153.526 221.709 152.981C217.954 147.492 212.838 143.071 206.862 140.152C206.246 139.839 205.631 139.557 205.016 139.284C204.4 139.012 204.562 138.276 205.016 137.862C205.188 137.738 205.394 137.671 205.606 137.671C205.818 137.671 206.024 137.738 206.196 137.862C206.338 137.942 206.453 138.061 206.529 138.205C213.63 141.621 219.712 146.837 224.17 153.335C224.3 153.534 224.355 153.773 224.325 154.01C224.296 154.246 224.183 154.464 224.008 154.626Z" fill="#7D97F4"/>
<path d="M228.154 135.078C228.154 135.423 228.052 135.761 227.86 136.048C227.669 136.334 227.396 136.558 227.077 136.69C226.758 136.822 226.408 136.857 226.069 136.789C225.731 136.722 225.42 136.556 225.176 136.312C224.932 136.068 224.765 135.757 224.698 135.419C224.631 135.08 224.665 134.729 224.797 134.41C224.929 134.091 225.153 133.819 225.44 133.627C225.727 133.435 226.064 133.333 226.41 133.333C226.872 133.333 227.316 133.517 227.643 133.844C227.971 134.171 228.154 134.615 228.154 135.078Z" fill="#263238"/>
<path d="M228.74 135.562C228.742 135.91 228.64 136.251 228.448 136.541C228.256 136.831 227.982 137.058 227.661 137.192C227.34 137.326 226.986 137.361 226.645 137.294C226.303 137.227 225.99 137.059 225.744 136.813C225.497 136.567 225.33 136.254 225.263 135.912C225.195 135.571 225.231 135.217 225.365 134.896C225.499 134.575 225.726 134.301 226.016 134.109C226.306 133.917 226.647 133.815 226.995 133.817C227.457 133.82 227.899 134.005 228.226 134.331C228.552 134.658 228.737 135.1 228.74 135.562Z" fill="#7D97F4"/>
<path opacity="0.7" d="M228.74 135.562C228.742 135.91 228.64 136.251 228.448 136.541C228.256 136.831 227.982 137.058 227.661 137.192C227.34 137.326 226.986 137.361 226.645 137.294C226.303 137.227 225.99 137.059 225.744 136.813C225.497 136.567 225.33 136.254 225.263 135.912C225.195 135.571 225.231 135.217 225.365 134.896C225.499 134.575 225.726 134.301 226.016 134.109C226.306 133.917 226.647 133.815 226.995 133.817C227.457 133.82 227.899 134.005 228.226 134.331C228.552 134.658 228.737 135.1 228.74 135.562Z" fill="white"/>
<path d="M474.777 93.3306C474.777 99.8979 472.168 106.196 467.524 110.84C462.881 115.484 456.582 118.093 450.015 118.093C449.46 118.093 448.915 118.093 448.361 118.032C442.08 117.631 436.187 114.852 431.881 110.262C427.575 105.672 425.178 99.6144 425.178 93.3205C425.178 87.0266 427.575 80.9689 431.881 76.3787C436.187 71.7885 442.08 69.0103 448.361 68.6088C448.915 68.6088 449.46 68.6088 450.015 68.6088C456.575 68.6088 462.867 71.2121 467.51 75.8472C472.153 80.4823 474.766 86.7702 474.777 93.3306Z" fill="#7D97F4"/>
<path opacity="0.2" d="M471.438 93.3306C471.143 97.8465 469.534 102.178 466.808 105.79C464.082 109.403 460.359 112.139 456.098 113.663C451.836 115.186 447.222 115.43 442.824 114.363C438.426 113.297 434.435 110.968 431.344 107.663C428.253 104.357 426.197 100.22 425.428 95.7598C424.659 91.3 425.211 86.7127 427.016 82.5629C428.822 78.413 431.801 74.8818 435.589 72.4042C439.376 69.9266 443.805 68.6109 448.33 68.6189C454.599 69.0362 460.474 71.8216 464.765 76.4105C469.056 80.9993 471.442 87.0481 471.438 93.3306Z" fill="white"/>
<path opacity="0.4" d="M465.434 100.417C469.35 90.9629 464.861 80.1242 455.407 76.2081C445.953 72.2921 435.114 76.7816 431.198 86.2358C427.282 95.69 431.771 106.529 441.225 110.445C450.68 114.361 461.518 109.871 465.434 100.417Z" fill="white"/>
<path opacity="0.4" d="M451.512 106.53C458.869 104.793 463.425 97.4213 461.689 90.0642C459.952 82.7071 452.58 78.1507 445.223 79.8871C437.866 81.6235 433.31 88.9953 435.046 96.3524C436.783 103.71 444.154 108.266 451.512 106.53Z" fill="white"/>
<path d="M452.839 93.3306C452.839 94.3879 452.526 95.4214 451.938 96.3006C451.351 97.1797 450.516 97.8648 449.539 98.2695C448.562 98.6741 447.487 98.7799 446.45 98.5737C445.413 98.3674 444.461 97.8583 443.713 97.1106C442.966 96.363 442.456 95.4105 442.25 94.3735C442.044 93.3365 442.15 92.2617 442.554 91.2849C442.959 90.308 443.644 89.4731 444.523 88.8857C445.402 88.2983 446.436 87.9848 447.493 87.9848C448.196 87.9835 448.891 88.1208 449.541 88.389C450.19 88.6572 450.78 89.0509 451.276 89.5476C451.773 90.0443 452.167 90.6341 452.435 91.2833C452.703 91.9325 452.84 92.6282 452.839 93.3306Z" fill="#263238"/>
<path d="M410.355 111.698L415.308 112.505L422.57 108.218V108.208L418.868 106.574L410.355 111.698Z" fill="#7D97F4"/>
<path d="M444.616 94.7043L415.122 112.161L415.497 112.795L444.991 95.3379L444.616 94.7043Z" fill="#263238"/>
<path d="M414.672 116.933L421.833 112.686L422.57 108.218L415.307 112.505L414.672 116.933Z" fill="#7D97F4"/>
<path opacity="0.2" d="M414.672 116.933L421.833 112.686L422.57 108.218L415.307 112.505L414.672 116.933Z" fill="black"/>
<path d="M446.717 93.0582L441.795 94.319L446.283 96.7901L448.311 93.5726L446.717 93.0582Z" fill="white"/>
<path d="M449.248 61.7097C449.007 61.7164 448.766 61.6752 448.541 61.5883C448.316 61.5015 448.11 61.3708 447.935 61.2038C447.761 61.0368 447.621 60.8368 447.524 60.6155C447.428 60.3942 447.376 60.1558 447.372 59.9144V51.8452C447.372 51.3584 447.565 50.8915 447.91 50.5472C448.254 50.2029 448.721 50.0095 449.208 50.0095C449.695 50.0095 450.162 50.2029 450.506 50.5472C450.85 50.8915 451.044 51.3584 451.044 51.8452V59.9144C451.036 60.3881 450.844 60.8402 450.509 61.1753C450.174 61.5103 449.722 61.7019 449.248 61.7097Z" fill="#7D97F4"/>
<path d="M449.248 136.742C449.007 136.744 448.767 136.697 448.544 136.605C448.321 136.513 448.118 136.378 447.947 136.208C447.776 136.037 447.641 135.834 447.549 135.611C447.458 135.387 447.411 135.148 447.412 134.907V126.837C447.412 126.351 447.606 125.884 447.95 125.539C448.294 125.195 448.761 125.002 449.248 125.002C449.735 125.002 450.202 125.195 450.546 125.539C450.89 125.884 451.084 126.351 451.084 126.837V134.907C451.085 135.148 451.039 135.387 450.947 135.611C450.855 135.834 450.72 136.037 450.549 136.208C450.378 136.378 450.176 136.513 449.952 136.605C449.729 136.697 449.49 136.744 449.248 136.742Z" fill="#7D97F4"/>
<path d="M415.842 94.0165H407.723C407.469 94.0352 407.215 94.0015 406.976 93.9175C406.736 93.8335 406.516 93.701 406.33 93.5282C406.144 93.3555 405.996 93.1462 405.894 92.9135C405.793 92.6807 405.74 92.4296 405.74 92.1757C405.74 91.9218 405.793 91.6707 405.894 91.4379C405.996 91.2052 406.144 90.9959 406.33 90.8232C406.516 90.6504 406.736 90.5179 406.976 90.4339C407.215 90.3499 407.469 90.3162 407.723 90.3349H415.842C416.095 90.3162 416.35 90.3499 416.589 90.4339C416.829 90.5179 417.049 90.6504 417.235 90.8232C417.421 90.9959 417.569 91.2052 417.671 91.4379C417.772 91.6707 417.824 91.9218 417.824 92.1757C417.824 92.4296 417.772 92.6807 417.671 92.9135C417.569 93.1462 417.421 93.3555 417.235 93.5282C417.049 93.701 416.829 93.8335 416.589 93.9175C416.35 94.0015 416.095 94.0352 415.842 94.0165Z" fill="#7D97F4"/>
<path d="M491.752 94.0165H483.622C483.158 93.9821 482.723 93.7732 482.406 93.4318C482.089 93.0904 481.913 92.6417 481.913 92.1757C481.913 91.7098 482.089 91.2611 482.406 90.9197C482.723 90.5783 483.158 90.3694 483.622 90.335H491.752C492.217 90.3694 492.651 90.5783 492.968 90.9197C493.285 91.2611 493.461 91.7098 493.461 92.1757C493.461 92.6417 493.285 93.0904 492.968 93.4318C492.651 93.7732 492.217 93.9821 491.752 94.0165Z" fill="#7D97F4"/>
</svg>
