<svg width="306" height="270" viewBox="0 0 306 270" fill="none" xmlns="http://www.w3.org/2000/svg">
<path d="M306 242.44H6V242.59H306V242.44Z" fill="#EBEBEB"/>
<path d="M148.2 215.68H32.3458C31.4382 215.678 30.5683 215.317 29.9271 214.674C29.2859 214.032 28.9258 213.162 28.9258 212.254V49.396C28.9337 48.4936 29.2973 47.6308 29.9376 46.9949C30.578 46.3591 31.4434 46.0015 32.3458 46H148.2C149.108 46 149.98 46.361 150.622 47.0035C151.265 47.646 151.626 48.5174 151.626 49.426V212.254C151.626 213.163 151.265 214.034 150.622 214.677C149.98 215.319 149.108 215.68 148.2 215.68ZM32.3458 46.12C31.478 46.1216 30.6462 46.4674 30.0332 47.0816C29.4201 47.6958 29.0758 48.5282 29.0758 49.396V212.254C29.0758 213.122 29.4201 213.954 30.0332 214.568C30.6462 215.183 31.478 215.528 32.3458 215.53H148.2C149.068 215.528 149.9 215.183 150.515 214.569C151.129 213.955 151.474 213.122 151.476 212.254V49.396C151.474 48.5276 151.129 47.6953 150.515 47.0813C149.9 46.4672 149.068 46.1216 148.2 46.12H32.3458Z" fill="#EBEBEB"/>
<path d="M277.986 215.68H162.126C161.218 215.678 160.348 215.317 159.705 214.675C159.063 214.033 158.702 213.162 158.7 212.254V49.396C158.71 48.4931 159.075 47.6302 159.716 46.9946C160.357 46.3589 161.223 46.0015 162.126 46H277.986C278.888 46.0031 279.751 46.3613 280.39 46.997C281.03 47.6327 281.392 48.4947 281.4 49.396V212.254C281.4 213.161 281.041 214.03 280.401 214.672C279.761 215.314 278.893 215.677 277.986 215.68ZM162.126 46.12C161.258 46.1216 160.425 46.4672 159.811 47.0813C159.197 47.6953 158.852 48.5276 158.85 49.396V212.254C158.852 213.122 159.197 213.955 159.811 214.569C160.425 215.183 161.258 215.528 162.126 215.53H277.986C278.855 215.528 279.687 215.183 280.301 214.569C280.915 213.955 281.261 213.122 281.262 212.254V49.396C281.261 48.5276 280.915 47.6953 280.301 47.0813C279.687 46.4672 278.855 46.1216 277.986 46.12H162.126Z" fill="#EBEBEB"/>
<path d="M57.4026 252.094H37.4766V252.244H57.4026V252.094Z" fill="#EBEBEB"/>
<path d="M126.258 251.5H93.7979V251.65H126.258V251.5Z" fill="#EBEBEB"/>
<path d="M69.468 246.526H58.002V246.676H69.468V246.526Z" fill="#EBEBEB"/>
<path d="M275.94 247.534H267.072V247.684H275.94V247.534Z" fill="#EBEBEB"/>
<path d="M261.727 247.534H240.883V247.684H261.727V247.534Z" fill="#EBEBEB"/>
<path d="M193.668 250.066H166.398V250.216H193.668V250.066Z" fill="#EBEBEB"/>
<path d="M157.535 165.7H158.951C159.269 165.7 159.527 165.442 159.527 165.124V165.094C159.527 164.776 159.269 164.518 158.951 164.518H157.535C157.217 164.518 156.959 164.776 156.959 165.094V165.124C156.959 165.442 157.217 165.7 157.535 165.7Z" fill="#E0E0E0"/>
<path d="M178.2 136.6L166.2 145C165.086 143.409 164.65 141.44 164.987 139.527C165.325 137.614 166.409 135.914 168 134.8C169.591 133.686 171.56 133.25 173.473 133.588C175.386 133.925 177.086 135.009 178.2 136.6Z" fill="#E6E6E6"/>
<path d="M163.83 135.316L167.112 139.978L173.154 135.724L169.872 131.062C169.308 130.261 168.449 129.717 167.483 129.549C166.518 129.382 165.526 129.604 164.724 130.168C163.923 130.732 163.379 131.592 163.212 132.557C163.044 133.522 163.267 134.515 163.83 135.316Z" fill="#E6E6E6"/>
<path d="M154.78 165.869L156.062 166.232L166.197 130.439L164.915 130.076L154.78 165.869Z" fill="#E6E6E6"/>
<path d="M163.8 128.398C163.404 128.621 163.083 128.956 162.877 129.361C162.671 129.766 162.59 130.222 162.644 130.674C162.698 131.125 162.884 131.55 163.18 131.895C163.475 132.24 163.866 132.49 164.303 132.613C164.74 132.736 165.204 132.727 165.636 132.587C166.068 132.446 166.449 132.181 166.73 131.824C167.012 131.468 167.181 131.035 167.217 130.583C167.253 130.13 167.153 129.676 166.932 129.28C166.784 129.016 166.586 128.784 166.349 128.597C166.112 128.41 165.84 128.271 165.549 128.189C165.258 128.107 164.954 128.084 164.654 128.119C164.353 128.155 164.063 128.25 163.8 128.398Z" fill="#E6E6E6"/>
<path d="M149.646 165.1H160.482L161.328 169.402H148.794L149.646 165.1Z" fill="#E6E6E6"/>
<path d="M46.6859 180.154L173.382 180.154V169.396L46.6859 169.396V180.154Z" fill="#EBEBEB"/>
<path d="M48.2104 178.912H94.8184V170.644H48.2104V178.912Z" fill="#F5F5F5"/>
<path d="M96.474 178.912H143.082V170.644H96.474V178.912Z" fill="#F5F5F5"/>
<path d="M147.666 242.44H150.462L144.48 180.154H141.684L147.666 242.44Z" fill="#F5F5F5"/>
<path d="M172.308 242.44H175.11L169.128 180.154H166.326L172.308 242.44Z" fill="#F5F5F5"/>
<path d="M72.3966 242.44H69.6006L75.5766 180.154H78.3786L72.3966 242.44Z" fill="#F5F5F5"/>
<path d="M47.7541 242.44H44.9521L50.9341 180.154H53.7361L47.7541 242.44Z" fill="#F5F5F5"/>
<path d="M112.249 146.398H122.047L126.127 169.402H116.329L112.249 146.398Z" fill="#E0E0E0"/>
<path d="M92.5675 127.192H147.371L143.075 160.522H88.2715L92.5675 127.192Z" fill="#E6E6E6"/>
<path d="M93.7678 127.978H145.968L141.876 159.736H89.6758L93.7678 127.978Z" fill="#FAFAFA"/>
<path d="M245.004 160.3H250.902V129.388H245.004V160.3Z" fill="#F0F0F0"/>
<path d="M245.946 152.722H249.948V131.764H245.946V152.722Z" fill="#FAFAFA"/>
<path d="M244.998 129.388H232.398V160.3H244.998V129.388Z" fill="#E0E0E0"/>
<path d="M237.87 160.3H243.768V129.388H237.87V160.3Z" fill="#F0F0F0"/>
<path d="M238.812 152.722H242.814V131.764H238.812V152.722Z" fill="#FAFAFA"/>
<path d="M237.865 129.388H225.265V160.3H237.865V129.388Z" fill="#E0E0E0"/>
<path d="M229.596 242.44H231.732L231.732 117.358H229.596L229.596 242.44Z" fill="#EBEBEB"/>
<path d="M265.397 242.44H267.533V117.358H265.397V242.44Z" fill="#EBEBEB"/>
<path d="M220.398 242.44H222.534L222.534 117.358H220.398L220.398 242.44Z" fill="#EBEBEB"/>
<path d="M256.2 242.44H258.336V117.358H256.2V242.44Z" fill="#EBEBEB"/>
<path d="M254.868 206.308H260.766V175.396H254.868V206.308Z" fill="#F0F0F0"/>
<path d="M255.816 198.736H259.818V177.778H255.816V198.736Z" fill="#FAFAFA"/>
<path d="M254.868 175.396H242.268V206.308H254.868V175.396Z" fill="#E0E0E0"/>
<path d="M247.734 206.308H253.632V175.396H247.734V206.308Z" fill="#F0F0F0"/>
<path d="M248.682 198.736H252.684V177.778H248.682V198.736Z" fill="#FAFAFA"/>
<path d="M247.734 175.396H235.134V206.308H247.734V175.396Z" fill="#E0E0E0"/>
<path d="M220.404 117.358H268.668V114.292H220.404V117.358Z" fill="#F0F0F0"/>
<path d="M220.404 163.36H268.668V160.294H220.404V163.36Z" fill="#F0F0F0"/>
<path d="M220.404 209.374H268.668V206.308H220.404V209.374Z" fill="#F0F0F0"/>
<path d="M193.878 57.454H73.9863V117.352H193.878V57.454Z" fill="#EBEBEB"/>
<path d="M193.885 117.352H194.604V57.454H193.885V117.352Z" fill="#E0E0E0"/>
<path d="M190.879 114.352V60.454L76.9869 60.454V114.352H190.879Z" fill="white"/>
<path d="M77.5859 114.352V60.454H76.9919V114.352H77.5859Z" fill="#E0E0E0"/>
<path d="M181.397 66.2679H161.945V93.6039H181.397V66.2679Z" fill="#F5F5F5"/>
<path d="M122.933 66.2679H103.481V93.6039H122.933V66.2679Z" fill="#F5F5F5"/>
<path d="M167.94 78.1361H148.488V105.472H167.94V78.1361Z" fill="#EBEBEB"/>
<path d="M141.264 79.3361H133.668V86.9321H141.264V79.3361Z" fill="#F5F5F5"/>
<path d="M93.4739 98.998H85.8779V106.594H93.4739V98.998Z" fill="#F5F5F5"/>
<path d="M125.058 89.8H117.462V97.3961H125.058V89.8Z" fill="#F0F0F0"/>
<path d="M248.75 94.9798C257.389 91.4012 261.492 81.4965 257.913 72.857C254.335 64.2176 244.43 60.1149 235.791 63.6935C227.151 67.2721 223.048 77.1768 226.627 85.8162C230.206 94.4557 240.11 98.5583 248.75 94.9798Z" fill="#EBEBEB"/>
<path d="M242.267 79.93C242.171 79.9325 242.076 79.9097 241.991 79.864L234.827 76.186C234.757 76.1504 234.694 76.1012 234.642 76.0411C234.59 75.981 234.551 75.9113 234.527 75.836C234.502 75.7607 234.493 75.6813 234.499 75.6023C234.505 75.5234 234.527 75.4465 234.563 75.376C234.599 75.3058 234.649 75.2434 234.709 75.1924C234.77 75.1414 234.839 75.1028 234.915 75.0788C234.99 75.0549 235.069 75.046 235.148 75.0527C235.227 75.0594 235.303 75.0816 235.373 75.118L241.373 78.208L238.649 66.436C238.623 66.3568 238.614 66.273 238.622 66.1899C238.63 66.1069 238.655 66.0264 238.696 65.9536C238.736 65.8808 238.792 65.8174 238.859 65.7673C238.926 65.7172 239.002 65.6816 239.083 65.6627C239.165 65.6439 239.249 65.6422 239.331 65.6578C239.413 65.6733 239.491 65.7059 239.559 65.7532C239.628 65.8006 239.686 65.8618 239.73 65.9328C239.774 66.0039 239.802 66.0833 239.813 66.166L242.813 79.198C242.833 79.287 242.833 79.3795 242.812 79.4683C242.791 79.5571 242.75 79.64 242.692 79.7106C242.634 79.7811 242.561 79.8376 242.478 79.8756C242.395 79.9137 242.305 79.9323 242.213 79.93H242.267Z" fill="white"/>
<path d="M156.001 269.536C220.25 269.536 272.335 266.495 272.335 262.744C272.335 258.993 220.25 255.952 156.001 255.952C91.7515 255.952 39.667 258.993 39.667 262.744C39.667 266.495 91.7515 269.536 156.001 269.536Z" fill="#F5F5F5"/>
<path d="M151.012 258.658L146.536 257.452L149.206 246.808L153.682 248.014L151.012 258.658Z" fill="#FF8B7B"/>
<path d="M146.482 256.222L151.486 257.866C151.571 257.891 151.642 257.948 151.685 258.026C151.727 258.103 151.738 258.195 151.714 258.28L150.658 262.318C150.59 262.526 150.443 262.699 150.249 262.799C150.054 262.899 149.828 262.918 149.62 262.852C147.886 262.252 147.088 261.874 144.886 261.154C143.536 260.71 140.266 259.702 138.394 259.09C136.522 258.478 137.194 256.648 138.034 256.738C141.832 257.152 144.034 256.822 145.624 256.246C145.9 256.145 146.201 256.137 146.482 256.222Z" fill="#263238"/>
<path opacity="0.2" d="M153.682 248.02L149.206 246.814L147.826 252.298L152.308 253.504L153.682 248.02Z" fill="black"/>
<path d="M164.999 139.12C164.999 139.12 158.639 177.274 156.761 190.6C154.709 205.156 146.999 248.992 146.999 248.992L154.613 251.872C154.613 251.872 166.721 208.762 170.069 194.596C173.705 179.218 181.709 139.12 181.709 139.12H164.999Z" fill="#7D97F4"/>
<path opacity="0.3" d="M164.999 139.12C164.999 139.12 158.639 177.274 156.761 190.6C154.709 205.156 146.999 248.992 146.999 248.992L154.613 251.872C154.613 251.872 166.721 208.762 170.069 194.596C173.705 179.218 181.709 139.12 181.709 139.12H164.999Z" fill="black"/>
<path opacity="0.3" d="M175.132 154.768C171.892 162.856 171.532 176.602 172.84 182.23C174.826 172.984 177.106 161.92 178.84 153.316C178.228 151.108 177.094 149.848 175.132 154.768Z" fill="black"/>
<path d="M154.93 252.94L146.122 250.3L146.374 246.694L156.856 249.76L154.93 252.94Z" fill="#263238"/>
<path d="M144.653 256.48C145.055 256.604 145.469 256.682 145.889 256.714C145.911 256.714 145.932 256.709 145.951 256.699C145.97 256.688 145.986 256.673 145.997 256.654C146.007 256.636 146.012 256.617 146.012 256.597C146.012 256.577 146.007 256.557 145.997 256.54C145.889 256.39 144.911 255.118 144.299 255.154C144.228 255.156 144.16 255.176 144.1 255.213C144.04 255.25 143.99 255.302 143.957 255.364C143.896 255.45 143.859 255.551 143.849 255.656C143.84 255.762 143.858 255.868 143.903 255.964C144.08 256.223 144.348 256.407 144.653 256.48ZM145.655 256.48C144.803 256.378 144.227 256.162 144.089 255.88C144.059 255.816 144.048 255.745 144.056 255.675C144.065 255.605 144.093 255.539 144.137 255.484C144.152 255.453 144.175 255.427 144.203 255.408C144.232 255.389 144.265 255.378 144.299 255.376C144.629 255.352 145.247 256 145.655 256.468V256.48Z" fill="#7D97F4"/>
<path d="M145.864 256.708H145.918C145.935 256.704 145.952 256.696 145.965 256.685C145.979 256.673 145.989 256.658 145.996 256.642C145.996 256.588 146.542 255.34 146.236 254.758C146.196 254.683 146.14 254.617 146.072 254.567C146.003 254.518 145.924 254.484 145.84 254.47C145.75 254.444 145.654 254.448 145.567 254.483C145.48 254.518 145.407 254.581 145.36 254.662C145.102 255.112 145.456 256.258 145.816 256.672L145.864 256.708ZM145.864 254.704C145.906 254.715 145.946 254.736 145.98 254.764C146.014 254.791 146.042 254.826 146.062 254.866C146.164 255.376 146.103 255.905 145.888 256.378C145.579 255.905 145.465 255.331 145.57 254.776C145.57 254.716 145.66 254.656 145.816 254.692L145.864 254.704Z" fill="#7D97F4"/>
<path d="M173.123 103.81C172.817 104.344 172.571 104.74 172.289 105.196L171.455 106.492C170.891 107.352 170.309 108.194 169.709 109.018C168.496 110.685 167.196 112.287 165.815 113.818C164.4 115.403 162.861 116.874 161.213 118.216C159.456 119.672 157.511 120.883 155.429 121.816L155.345 121.852L155.069 121.954C154.539 122.119 153.984 122.184 153.431 122.146C153.075 122.121 152.723 122.059 152.381 121.96C151.949 121.83 151.532 121.653 151.139 121.432C150.618 121.133 150.124 120.789 149.663 120.406C148.935 119.797 148.247 119.142 147.605 118.444C147.005 117.784 146.435 117.124 145.895 116.452C145.355 115.78 144.851 115.12 144.335 114.376C143.935 113.8 143.758 113.099 143.838 112.403C143.918 111.706 144.25 111.063 144.77 110.594C145.29 110.124 145.964 109.861 146.665 109.852C147.365 109.844 148.045 110.091 148.577 110.548L148.661 110.626C149.213 111.1 149.813 111.64 150.395 112.126C150.977 112.612 151.595 113.11 152.147 113.56C152.677 113.983 153.232 114.373 153.809 114.73C153.996 114.846 154.198 114.939 154.409 115.006C154.445 115.006 154.451 115.006 154.289 114.928C154.143 114.88 153.992 114.849 153.839 114.838C153.488 114.817 153.136 114.86 152.801 114.964L152.441 115.108C153.847 114.379 155.15 113.467 156.317 112.396C157.603 111.234 158.806 109.983 159.917 108.652C161.057 107.302 162.125 105.85 163.145 104.362C163.661 103.618 164.157 102.864 164.633 102.1L165.335 100.948C165.551 100.576 165.803 100.15 165.965 99.8438C166.221 99.3686 166.568 98.9486 166.986 98.6076C167.405 98.2667 167.886 98.0115 168.403 97.8566C168.92 97.7017 169.463 97.6502 170 97.7049C170.537 97.7597 171.057 97.9197 171.533 98.1758C172.008 98.4318 172.428 98.779 172.769 99.1974C173.11 99.6158 173.365 100.097 173.52 100.614C173.675 101.131 173.726 101.674 173.671 102.211C173.617 102.748 173.457 103.269 173.201 103.744C173.172 103.763 173.146 103.785 173.123 103.81Z" fill="#263238"/>
<path opacity="0.3" d="M162.041 111.4C164.501 106.336 168.712 106.636 170.398 108.196C170.242 108.43 170.086 108.664 169.924 108.892C168.776 110.519 167.538 112.082 166.216 113.572C164.867 115.105 163.405 116.535 161.842 117.85C161.344 118.258 160.84 118.654 160.312 119.05C160.387 116.412 160.974 113.814 162.041 111.4Z" fill="black"/>
<path d="M142.541 105.754L140.657 102.754L138.029 106.354C138.029 106.354 139.379 109.048 142.199 109.354L142.703 107.92C142.84 107.57 142.896 107.193 142.868 106.818C142.84 106.444 142.729 106.08 142.541 105.754Z" fill="#FF8B7B"/>
<path d="M141.599 109L144.599 113.2C145.853 113.8 148.265 112.168 147.449 110.8C145.567 109.245 143.788 107.572 142.121 105.79L141.599 109Z" fill="#FF8B7B"/>
<path d="M144.688 108.076C144.568 108.484 143.938 108.334 143.278 107.746C142.618 107.158 142.186 106.348 142.306 105.946C142.426 105.544 143.056 105.682 143.716 106.276C144.376 106.87 144.808 107.668 144.688 108.076Z" fill="#263238"/>
<path d="M142.199 110.41L141.401 109.432C142.883 108.232 142.865 107.086 142.865 107.032L144.125 106.96C144.131 107.044 144.215 108.778 142.199 110.41Z" fill="#263238"/>
<path d="M137.441 101.914L135.965 105.034L138.035 106.366L140.657 102.742L137.441 101.914Z" fill="#FF8B7B"/>
<path d="M190.925 258.106H186.239L185.117 247.252H189.809L190.925 258.106Z" fill="#FF8B7B"/>
<path d="M185.83 257.566H191.098C191.186 257.563 191.272 257.594 191.337 257.654C191.403 257.713 191.442 257.796 191.446 257.884L191.698 262.054C191.699 262.163 191.678 262.27 191.638 262.371C191.597 262.472 191.536 262.564 191.46 262.641C191.384 262.718 191.293 262.78 191.193 262.822C191.093 262.865 190.985 262.887 190.876 262.888C189.046 262.852 188.17 262.744 185.854 262.744C184.426 262.744 180.502 262.894 178.534 262.894C176.566 262.894 176.626 260.95 177.46 260.77C181.198 259.984 183.7 258.892 185.02 257.854C185.251 257.671 185.536 257.57 185.83 257.566Z" fill="#263238"/>
<path opacity="0.2" d="M189.809 247.258H185.117L185.699 252.85H190.385L189.809 247.258Z" fill="black"/>
<path d="M174.124 139.12C174.124 139.12 174.526 179.842 175.288 193.264C176.122 207.958 183.772 251.5 183.772 251.5H192.358C192.358 251.5 188.62 209.146 189.136 194.596C189.694 178.804 190.036 139.12 190.036 139.12H174.124Z" fill="#7D97F4"/>
<path opacity="0.3" d="M174.124 139.12C174.124 139.12 174.526 179.842 175.288 193.264C176.122 207.958 183.772 251.5 183.772 251.5H192.358C192.358 251.5 188.62 209.146 189.136 194.596C189.694 178.804 190.036 139.12 190.036 139.12H174.124Z" fill="black"/>
<path d="M192.707 251.5H182.237L181.721 248.242L193.151 248.752L192.707 251.5Z" fill="#263238"/>
<path d="M184.199 258.4C184.62 258.389 185.038 258.332 185.447 258.232C185.468 258.228 185.487 258.217 185.502 258.202C185.516 258.187 185.527 258.168 185.531 258.148C185.533 258.127 185.53 258.106 185.523 258.086C185.516 258.066 185.504 258.048 185.489 258.034C185.339 257.932 184.007 257.026 183.437 257.248C183.372 257.274 183.314 257.316 183.27 257.371C183.226 257.425 183.197 257.49 183.185 257.56C183.151 257.662 183.145 257.772 183.168 257.878C183.192 257.984 183.243 258.081 183.317 258.16C183.572 258.343 183.886 258.428 184.199 258.4ZM185.147 258.076C184.313 258.238 183.695 258.214 183.473 257.998C183.427 257.945 183.395 257.882 183.381 257.813C183.368 257.745 183.372 257.674 183.395 257.608C183.4 257.574 183.414 257.542 183.435 257.514C183.456 257.487 183.483 257.466 183.515 257.452C183.797 257.314 184.577 257.71 185.117 258.058L185.147 258.076Z" fill="#7D97F4"/>
<path d="M185.398 258.214C185.416 258.219 185.435 258.219 185.452 258.214C185.468 258.206 185.482 258.194 185.491 258.179C185.501 258.165 185.506 258.147 185.506 258.13C185.506 258.07 185.62 256.726 185.146 256.27C185.087 256.21 185.014 256.165 184.934 256.137C184.854 256.11 184.768 256.102 184.684 256.114C184.591 256.117 184.502 256.151 184.43 256.211C184.358 256.271 184.308 256.353 184.288 256.444C184.18 256.96 184.888 257.938 185.344 258.214C185.362 258.219 185.381 258.219 185.398 258.214ZM184.756 256.318C184.801 256.317 184.845 256.325 184.886 256.341C184.927 256.358 184.965 256.383 184.996 256.414C185.254 256.865 185.362 257.386 185.302 257.902C184.894 257.56 184.426 256.816 184.498 256.48C184.498 256.414 184.546 256.342 184.708 256.318H184.756Z" fill="#7D97F4"/>
<path d="M166.943 101.038C167.184 100.253 167.632 99.5479 168.24 98.9966C168.849 98.4454 169.594 98.0685 170.399 97.9059C171.555 97.6319 172.728 97.4315 173.909 97.3059C177.458 97.1047 181.016 97.1047 184.565 97.3059C186.425 97.3959 188.321 97.6239 189.833 97.8459H189.887C190.281 97.9063 190.659 98.0446 190.999 98.2527C191.339 98.4608 191.634 98.7346 191.867 99.058C192.1 99.3814 192.266 99.748 192.356 100.136C192.445 100.525 192.457 100.927 192.389 101.32C191.211 107.597 190.441 113.945 190.085 120.322C189.719 129.598 190.217 136.882 190.037 139.12H164.999C163.445 116.482 165.413 106.192 166.943 101.038Z" fill="#F5F5F5"/>
<path d="M175.385 101.392L175.985 102.904C176.041 103.042 176.135 103.162 176.256 103.25C176.377 103.338 176.52 103.391 176.669 103.402L178.505 103.552C178.636 103.564 178.768 103.544 178.89 103.492C179.011 103.441 179.118 103.36 179.201 103.258L180.461 101.71L178.109 100.228L175.385 101.392Z" fill="#7D97F4"/>
<path d="M176.813 102.898C176.813 102.898 174.515 114.712 173.561 119.068C173.465 122.26 174.893 126.544 174.893 126.544C174.893 126.544 177.203 121.108 177.203 118.792C177.203 114.592 178.127 102.898 178.127 102.898H176.813Z" fill="#7D97F4"/>
<path d="M183.851 96.8557C181.883 104.86 180.071 125.146 180.089 141.004H190.691C190.877 138.64 190.349 130.96 190.733 121.204C191.027 113.752 192.359 105.718 193.169 101.17C193.243 100.755 193.232 100.329 193.138 99.9178C193.044 99.5069 192.868 99.1189 192.621 98.777C192.375 98.4352 192.062 98.1463 191.701 97.9276C191.341 97.7089 190.94 97.5647 190.523 97.5037H190.469C188.873 97.2697 186.869 97.0297 184.913 96.9337L183.851 96.8557Z" fill="#263238"/>
<path opacity="0.3" d="M187.42 109.264C187.594 103.948 191.518 101.914 192.622 103.342C192.673 103.399 192.717 103.462 192.754 103.528C192.064 107.626 191.224 113.266 190.858 118.822C188.998 117.748 187.252 114.316 187.42 109.264Z" fill="black"/>
<path d="M165.653 101.146C165.922 100.269 166.414 99.4758 167.081 98.8449C167.748 98.2141 168.566 97.7665 169.457 97.5459C171.127 97.284 172.809 97.1117 174.497 97.0299C172.487 103.978 168.551 125.17 169.697 140.986H163.037C161.459 117.274 164.165 105.49 165.653 101.146Z" fill="#263238"/>
<path d="M180.929 110.231L164.349 130.852L189.702 151.236L206.282 130.615L180.929 110.231Z" fill="#7D97F4"/>
<path opacity="0.2" d="M167.721 126.669L164.353 130.859L189.706 151.244L193.075 147.054L167.721 126.669Z" fill="black"/>
<path d="M174.89 133.363L172.428 136.426L185.053 146.577L187.516 143.514L174.89 133.363Z" fill="white"/>
<path d="M172.385 132.07C172.601 132.243 172.761 132.476 172.845 132.739C172.928 133.003 172.932 133.286 172.855 133.551C172.778 133.817 172.624 134.054 172.412 134.232C172.2 134.41 171.94 134.521 171.665 134.552C171.39 134.582 171.112 134.53 170.867 134.402C170.621 134.274 170.419 134.077 170.286 133.834C170.153 133.592 170.095 133.315 170.12 133.039C170.144 132.764 170.25 132.501 170.423 132.286C170.537 132.142 170.679 132.023 170.839 131.934C171 131.846 171.177 131.79 171.359 131.77C171.541 131.75 171.726 131.766 171.902 131.818C172.078 131.869 172.242 131.955 172.385 132.07Z" fill="#263238"/>
<path d="M171.509 134.8C171.086 134.81 170.676 134.656 170.365 134.368C170.054 134.081 169.868 133.684 169.845 133.261C169.822 132.839 169.965 132.424 170.244 132.105C170.522 131.786 170.913 131.589 171.335 131.554C171.548 131.528 171.764 131.546 171.97 131.606C172.177 131.666 172.369 131.766 172.535 131.902C172.796 132.114 172.985 132.402 173.076 132.727C173.168 133.051 173.156 133.395 173.044 133.712C172.931 134.03 172.724 134.305 172.449 134.499C172.174 134.694 171.846 134.799 171.509 134.8ZM171.509 132.01H171.383C171.231 132.025 171.084 132.07 170.95 132.143C170.816 132.216 170.698 132.316 170.603 132.436C170.459 132.615 170.371 132.834 170.35 133.063C170.33 133.293 170.378 133.523 170.489 133.725C170.6 133.927 170.768 134.092 170.972 134.199C171.177 134.305 171.408 134.348 171.637 134.323C171.866 134.298 172.083 134.205 172.259 134.057C172.435 133.908 172.564 133.711 172.628 133.489C172.692 133.268 172.689 133.033 172.619 132.813C172.549 132.593 172.415 132.399 172.235 132.256C172.032 132.09 171.778 131.999 171.515 131.998L171.509 132.01Z" fill="white"/>
<path d="M174.419 97.2638C177.515 96.5318 178.061 94.6118 177.851 92.5118C177.8 91.9833 177.718 91.4584 177.605 90.9398L181.487 87.7178L184.337 85.3538C183.545 88.7858 182.657 95.0378 184.973 97.3538C184.973 97.3538 183.053 100.516 177.773 100.228C173.273 99.9638 174.419 97.2638 174.419 97.2638Z" fill="#FF8B7B"/>
<path d="M180.407 103.03C179.942 101.89 179.148 100.915 178.127 100.228C180.499 99.4441 182.656 98.1191 184.427 96.3578L186.053 96.9578C186.053 96.9578 186.029 101.122 180.407 103.03Z" fill="white"/>
<path d="M174.952 102.652C174.952 102.652 175.402 101.308 178.126 100.252C176.566 99.8077 175.954 96.6517 175.954 96.6517L174.436 96.9697C174.436 96.9697 171.034 101.386 174.952 102.652Z" fill="white"/>
<path opacity="0.2" d="M177.599 90.9398C177.712 91.4584 177.794 91.9833 177.845 92.5118C179.291 92.2178 181.229 90.6758 181.445 89.1938C181.517 88.7053 181.535 88.2103 181.499 87.7178L177.599 90.9398Z" fill="black"/>
<path d="M174.707 74.2778L173.027 74.7218C172.407 75.475 172.002 76.382 171.857 77.3465C171.711 78.3111 171.829 79.2971 172.199 80.1998C172.721 81.8018 173.561 81.7838 173.147 84.2438C175.349 85.6238 175.991 83.3678 175.991 83.3678C175.991 83.3678 181.019 73.6958 174.707 74.2778Z" fill="#263238"/>
<path d="M184.949 78.4898C185.027 83.1518 185.303 85.8698 183.149 88.5098C182.461 89.3749 181.55 90.0354 180.513 90.4199C179.477 90.8045 178.356 90.8983 177.27 90.6913C176.184 90.4843 175.176 89.9844 174.354 89.2456C173.532 88.5068 172.928 87.5572 172.607 86.4998C171.293 82.4498 171.407 75.5018 175.763 73.1498C176.697 72.6152 177.755 72.3358 178.832 72.3395C179.908 72.3432 180.965 72.63 181.895 73.171C182.826 73.7119 183.598 74.4881 184.134 75.4217C184.67 76.3553 184.951 77.4133 184.949 78.4898Z" fill="#FF8B7B"/>
<path d="M184.114 76.4317C189.514 74.0317 185.8 69.4597 181.246 70.8217C175.3 72.6217 173.26 67.7737 170.746 70.8217C169.624 72.1837 171.916 74.3437 169.588 76.0177C170.44 76.4737 171.892 76.1137 172.126 74.3197C173.596 76.3357 176.236 76.0297 177.424 75.7477C180.496 75.0157 182.008 77.3497 184.114 76.4317Z" fill="#263238"/>
<path d="M184.882 74.3858C184.882 74.3858 187.984 73.6058 188.122 70.9358C188.998 72.1058 188.95 74.0558 184.882 74.3858Z" fill="#263238"/>
<path d="M182.261 70.6478C180.905 70.8638 178.337 71.1458 174.725 68.9498C176.267 70.2638 178.925 72.1838 182.261 70.6478Z" fill="#263238"/>
<path d="M185.098 73.3597L183.364 73.5097C182.623 74.1512 182.07 74.9813 181.762 75.912C181.455 76.8426 181.405 77.8391 181.618 78.7957C181.864 80.4637 182.692 80.5957 181.864 82.9417C183.802 84.6697 184.816 82.5577 184.816 82.5577C184.816 82.5577 193.018 74.3857 185.098 73.3597Z" fill="#263238"/>
<path d="M186.472 81.9098C186.137 82.8631 185.482 83.6708 184.618 84.1958C183.514 84.7958 182.848 83.8358 183.058 82.5578C183.25 81.4118 184.054 79.6958 185.212 79.5578C186.37 79.4198 186.898 80.7098 186.472 81.9098Z" fill="#FF8B7B"/>
<path d="M178.108 80.6559C178.108 81.0339 177.964 81.3639 177.718 81.3879C177.472 81.4119 177.25 81.1299 177.22 80.7879C177.19 80.4459 177.364 80.0799 177.61 80.0499C177.856 80.0199 178.078 80.2779 178.108 80.6559Z" fill="#263238"/>
<path d="M173.86 80.9317C173.89 81.3097 173.716 81.6397 173.47 81.6697C173.224 81.6997 173.002 81.4117 172.972 81.0337C172.942 80.6557 173.116 80.3317 173.362 80.3017C173.608 80.2717 173.83 80.5597 173.86 80.9317Z" fill="#263238"/>
<path d="M175.198 81.0818C174.839 82.2885 174.319 83.4409 173.65 84.5078C173.922 84.6604 174.224 84.7518 174.535 84.7757C174.846 84.7995 175.158 84.7552 175.45 84.6458L175.198 81.0818Z" fill="#FF5652"/>
<path d="M177.239 85.4798C176.827 85.3276 176.389 85.2608 175.95 85.2835C175.512 85.3062 175.083 85.4179 174.689 85.6118C174.663 85.6261 174.645 85.65 174.637 85.6781C174.629 85.7063 174.633 85.7364 174.647 85.7618C174.661 85.7873 174.685 85.806 174.713 85.8139C174.741 85.8218 174.771 85.8181 174.797 85.8038C175.228 85.601 175.7 85.4999 176.177 85.5082C176.653 85.5166 177.121 85.6341 177.545 85.8518C177.572 85.8627 177.603 85.8633 177.63 85.8533C177.658 85.8434 177.681 85.8236 177.695 85.7978C177.707 85.7707 177.709 85.7399 177.699 85.7118C177.688 85.6838 177.668 85.6608 177.641 85.6478C177.503 85.5998 177.371 85.5278 177.239 85.4798Z" fill="#263238"/>
<path d="M177.839 77.3317C177.801 77.3374 177.767 77.3566 177.743 77.3857C177.702 77.4272 177.679 77.4833 177.679 77.5417C177.679 77.6001 177.702 77.6561 177.743 77.6977C177.968 77.965 178.255 78.1731 178.58 78.3038C178.904 78.4345 179.255 78.4839 179.603 78.4477C179.661 78.4374 179.713 78.4047 179.748 78.3565C179.783 78.3083 179.797 78.2484 179.789 78.1897C179.784 78.1609 179.773 78.1334 179.757 78.1088C179.742 78.0841 179.721 78.0628 179.697 78.0461C179.673 78.0294 179.646 78.0175 179.618 78.0113C179.589 78.005 179.56 78.0045 179.531 78.0097C179.258 78.0356 178.983 77.9944 178.73 77.8899C178.477 77.7853 178.254 77.6204 178.079 77.4097C178.052 77.3732 178.014 77.346 177.971 77.332C177.928 77.318 177.882 77.3179 177.839 77.3317Z" fill="#263238"/>
<path d="M173.824 79.1977C173.792 79.1814 173.756 79.1729 173.719 79.1729C173.683 79.1729 173.647 79.1814 173.614 79.1977C173.374 79.3489 173.102 79.4437 172.819 79.4749C172.536 79.506 172.25 79.4728 171.982 79.3777C171.956 79.3647 171.927 79.3572 171.898 79.3557C171.869 79.3541 171.84 79.3585 171.812 79.3686C171.785 79.3787 171.76 79.3943 171.738 79.4144C171.717 79.4346 171.7 79.4588 171.688 79.4857C171.665 79.5393 171.664 79.5995 171.684 79.6542C171.704 79.7089 171.744 79.7538 171.796 79.7797C172.129 79.9068 172.486 79.9551 172.84 79.9208C173.194 79.8864 173.535 79.7703 173.836 79.5817C173.886 79.5507 173.922 79.5015 173.937 79.4444C173.951 79.3874 173.943 79.3269 173.914 79.2757C173.89 79.2435 173.86 79.2169 173.824 79.1977Z" fill="#263238"/>
<path d="M193.403 99.3997L193.715 99.8317L193.949 100.18C194.093 100.408 194.231 100.624 194.363 100.846C194.633 101.284 194.861 101.722 195.083 102.166C195.527 103.048 195.911 103.966 196.283 104.836C196.954 106.625 197.447 108.476 197.753 110.362C198.064 112.219 198.208 114.101 198.185 115.984C198.169 117.843 197.999 119.697 197.675 121.528C197.516 122.567 197.261 123.59 196.913 124.582C196.549 125.56 196.096 126.502 195.557 127.396C194.557 129.029 193.367 130.538 192.011 131.89C190.732 133.159 189.356 134.327 187.895 135.382C186.457 136.434 184.939 137.371 183.353 138.184C182.916 138.404 182.415 138.461 181.94 138.344C181.465 138.228 181.047 137.945 180.762 137.548C180.477 137.15 180.343 136.664 180.384 136.177C180.426 135.689 180.64 135.233 180.989 134.89L181.085 134.8C182.165 133.744 183.323 132.574 184.361 131.41C185.396 130.267 186.363 129.065 187.259 127.81C188.097 126.661 188.815 125.428 189.401 124.132C189.659 123.563 189.86 122.97 190.001 122.362C190.131 121.769 190.213 121.167 190.247 120.562C190.493 117.65 190.319 114.718 189.731 111.856C189.438 110.468 189.036 109.106 188.531 107.782C188.289 107.135 188.013 106.502 187.703 105.886C187.553 105.586 187.391 105.286 187.241 105.01L187.007 104.608L186.905 104.434L186.857 104.362C186.247 103.491 185.999 102.417 186.164 101.367C186.328 100.317 186.894 99.3715 187.741 98.7293C188.588 98.0871 189.651 97.7982 190.707 97.9232C191.763 98.0482 192.729 98.5774 193.403 99.3997Z" fill="#263238"/>
<path d="M178.99 136.3L176.554 137.236L181.354 140.65C181.354 140.65 185.002 138.448 183.712 136.66L182.926 136.342C181.666 135.833 180.26 135.818 178.99 136.3Z" fill="#FF8B7B"/>
<path d="M175.349 140.488L178.319 143.272C178.412 143.359 178.523 143.425 178.645 143.466C178.766 143.506 178.894 143.52 179.021 143.506C179.148 143.493 179.271 143.452 179.381 143.387C179.49 143.321 179.585 143.233 179.657 143.128L181.373 140.65L176.573 137.236L175.199 139.366C175.09 139.541 175.045 139.749 175.072 139.954C175.1 140.159 175.198 140.347 175.349 140.488Z" fill="#FF8B7B"/>
<path d="M233.999 173.848H69.4912C69.0934 173.848 68.7119 173.69 68.4305 173.409C68.1492 173.127 67.9912 172.746 67.9912 172.348C67.9912 171.95 68.1492 171.569 68.4305 171.287C68.7119 171.006 69.0934 170.848 69.4912 170.848H233.999C234.397 170.848 234.779 171.006 235.06 171.287C235.341 171.569 235.499 171.95 235.499 172.348C235.499 172.746 235.341 173.127 235.06 173.409C234.779 173.69 234.397 173.848 233.999 173.848Z" fill="#7D97F4"/>
<path opacity="0.2" d="M234 173.848H216.6C216.202 173.848 215.82 173.69 215.539 173.409C215.258 173.127 215.1 172.746 215.1 172.348C215.1 171.95 215.258 171.569 215.539 171.287C215.82 171.006 216.202 170.848 216.6 170.848H234C234.397 170.848 234.779 171.006 235.06 171.287C235.342 171.569 235.5 171.95 235.5 172.348C235.5 172.746 235.342 173.127 235.06 173.409C234.779 173.69 234.397 173.848 234 173.848Z" fill="black"/>
<path d="M210.857 262.738H212.117L225.305 173.848H224.045L210.857 262.738Z" fill="#263238"/>
<path d="M238.494 262.738H237.234L224.046 173.848H225.306L238.494 262.738Z" fill="#263238"/>
<path d="M63.7314 262.738H64.9914L78.1794 173.848H76.9194L63.7314 262.738Z" fill="#263238"/>
<path d="M91.3679 262.738H90.1079L76.9199 173.848H78.1799L91.3679 262.738Z" fill="#263238"/>
<g opacity="0.1">
<path d="M198.845 111.946L98.4053 170.908H181.517L209.765 122.866L198.845 111.946Z" fill="#7D97F4"/>
<path opacity="0.4" d="M198.845 111.946L98.4053 170.908H181.517L209.765 122.866L198.845 111.946Z" fill="white"/>
</g>
<path d="M161.838 164.782H111.792L108.216 132.832H158.256L161.838 164.782Z" fill="#7D97F4"/>
<path d="M161.076 164.782H111.036L107.46 132.832H157.5L161.076 164.782Z" fill="#263238"/>
<path d="M138.51 164.782H133.854L138.954 153.544L138.51 164.782Z" fill="black"/>
<path d="M123.582 170.848H133.062L138.954 153.544H129.48L123.582 170.848Z" fill="#7D97F4"/>
<path d="M142.469 169.57H119.723V170.848H144.575L142.469 169.57Z" fill="#263238"/>
<path d="M123.119 170.848H132.599L138.491 153.544H129.011L123.119 170.848Z" fill="#263238"/>
<path d="M108.252 160.654H75.4922V170.848H108.252V160.654Z" fill="#7D97F4"/>
<path opacity="0.6" d="M108.252 160.654H75.4922V170.848H108.252V160.654Z" fill="white"/>
<path opacity="0.6" d="M100.77 160.654H75.4922V170.848H100.77V160.654Z" fill="white"/>
<path opacity="0.2" d="M100.77 160.654H75.4922V161.698H100.2L100.77 160.654Z" fill="#7D97F4"/>
<path opacity="0.2" d="M108.252 164.236L75.4922 163.882V163.612H108.252V164.236Z" fill="#7D97F4"/>
<path opacity="0.2" d="M75.4922 165.286L108.252 167.128V166.852L75.4922 164.662V165.286Z" fill="#7D97F4"/>
<path opacity="0.2" d="M75.4922 169.33L108.252 168.58V168.31L75.4922 168.706V169.33Z" fill="#7D97F4"/>
<path d="M106.127 152.74H73.3672V160.654H106.127V152.74Z" fill="#7D97F4"/>
<path opacity="0.6" d="M106.127 152.74H73.3672V160.654H106.127V152.74Z" fill="white"/>
<path opacity="0.6" d="M99.4732 152.74H73.3672V160.654H99.4732V152.74Z" fill="white"/>
<path opacity="0.2" d="M98.4052 152.74H73.3672V153.574H97.8412L98.4052 152.74Z" fill="#7D97F4"/>
<path opacity="0.2" d="M106.133 158.344L73.3672 158.65V158.89H106.133V158.344Z" fill="#7D97F4"/>
<path opacity="0.2" d="M73.3672 157.432L106.133 155.836V156.076L73.3672 157.978V157.432Z" fill="#7D97F4"/>
<path opacity="0.2" d="M73.3672 153.922L106.133 154.576V154.81L73.3672 154.468V153.922Z" fill="#7D97F4"/>
<path d="M104.837 147.424H72.0771V152.74H104.837V147.424Z" fill="#7D97F4"/>
<path opacity="0.6" d="M104.837 147.424H72.0771V152.74H104.837V147.424Z" fill="white"/>
<path opacity="0.6" d="M97.3551 147.424H72.0771V152.74H97.3551V147.424Z" fill="white"/>
<path opacity="0.2" d="M104.837 149.296L72.0771 149.11V148.966H104.837V149.296Z" fill="#7D97F4"/>
<path opacity="0.2" d="M72.0771 149.842L104.837 150.802V150.658L72.0771 149.518V149.842Z" fill="#7D97F4"/>
<path opacity="0.2" d="M104.837 147.424H73.9375L74.6215 148.078H104.837V147.424Z" fill="#7D97F4"/>
<path opacity="0.2" d="M72.0771 151.954L104.837 151.558V151.42L72.0771 151.624V151.954Z" fill="#7D97F4"/>
<path d="M106.697 143.296H73.9375V147.424H106.697V143.296Z" fill="#7D97F4"/>
<path opacity="0.6" d="M106.697 143.296H73.9375V147.424H106.697V143.296Z" fill="white"/>
<path opacity="0.6" d="M100.043 143.296H73.9375V147.424H100.043V143.296Z" fill="white"/>
<path opacity="0.2" d="M106.697 146.218L73.9375 146.38V146.5H106.697V146.218Z" fill="#7D97F4"/>
<path opacity="0.2" d="M73.9375 145.744L106.697 144.91V145.036L73.9375 146.026V145.744Z" fill="#7D97F4"/>
<path opacity="0.2" d="M73.9375 143.914L106.697 144.25V144.376L73.9375 144.196V143.914Z" fill="#7D97F4"/>
<path d="M203.418 166.75H170.658V170.878H203.418V166.75Z" fill="#7D97F4"/>
<path opacity="0.6" d="M203.418 166.75H170.658V170.878H203.418V166.75Z" fill="white"/>
<path opacity="0.6" d="M196.764 166.75H170.658V170.878H196.764V166.75Z" fill="white"/>
<path opacity="0.2" d="M203.418 169.678L170.658 169.834V169.96H203.418V169.678Z" fill="#7D97F4"/>
<path opacity="0.2" d="M170.658 169.198L203.418 168.37V168.49L170.658 169.486V169.198Z" fill="#7D97F4"/>
<path opacity="0.2" d="M170.658 167.368L203.418 167.71V167.83L170.658 167.65V167.368Z" fill="#7D97F4"/>
<path d="M209.766 122.866L198.846 111.946L209.85 106.798C210.125 106.727 210.415 106.738 210.685 106.827C210.956 106.916 211.194 107.081 211.374 107.302L214.416 110.338C214.636 110.519 214.8 110.759 214.889 111.03C214.979 111.301 214.989 111.591 214.92 111.868L209.766 122.866Z" fill="#7D97F4"/>
<path d="M215.954 106.339L215.377 105.762C214.756 105.141 213.75 105.141 213.129 105.762L208.67 110.221C208.049 110.841 208.049 111.848 208.67 112.469L209.247 113.046C209.868 113.667 210.874 113.667 211.495 113.046L215.954 108.587C216.575 107.966 216.575 106.959 215.954 106.339Z" fill="#7D97F4"/>
<path d="M222.173 169.126H206.309L204.989 170.848H223.493L222.173 169.126Z" fill="#7D97F4"/>
<path d="M214.242 169.432C214.18 169.432 214.119 169.413 214.068 169.378C214.034 169.356 214.005 169.327 213.983 169.293C213.961 169.26 213.945 169.222 213.937 169.182C213.929 169.143 213.929 169.102 213.937 169.063C213.945 169.023 213.961 168.985 213.984 168.952L235.104 138.052L212.07 109.6C212.037 109.569 212.012 109.532 211.995 109.491C211.978 109.45 211.97 109.406 211.972 109.361C211.974 109.317 211.985 109.273 212.004 109.234C212.024 109.194 212.052 109.159 212.087 109.131C212.121 109.103 212.162 109.082 212.205 109.071C212.248 109.06 212.293 109.058 212.336 109.065C212.38 109.073 212.422 109.09 212.459 109.115C212.496 109.139 212.527 109.172 212.55 109.21L235.728 137.842C235.769 137.895 235.791 137.961 235.791 138.028C235.791 138.095 235.769 138.161 235.728 138.214L214.5 169.3C214.471 169.342 214.432 169.375 214.387 169.398C214.342 169.421 214.292 169.433 214.242 169.432Z" fill="#7D97F4"/>
<path d="M235.488 139.606C236.353 139.606 237.054 138.905 237.054 138.04C237.054 137.175 236.353 136.474 235.488 136.474C234.623 136.474 233.922 137.175 233.922 138.04C233.922 138.905 234.623 139.606 235.488 139.606Z" fill="#7D97F4"/>
<path d="M2.2875 38.56H12.2075C12.5488 39.6693 13.0608 40.6293 13.7435 41.44C15.3222 43.36 17.6902 44.32 20.8475 44.32C23.4928 44.32 25.5408 43.7227 26.9915 42.528C28.4422 41.3333 29.1675 39.7973 29.1675 37.92C29.1675 35.9573 28.5062 34.4 27.1835 33.248C25.9035 32.096 24.0048 31.52 21.4875 31.52H10.6075V24.48L22.4475 16.48V16.16H4.5275V7.2H36.2075V16.16L24.3675 23.52L23.7275 23.776V24.16H25.3275C29.1675 24.16 32.4102 25.504 35.0555 28.192C37.7435 30.8373 39.0875 34.08 39.0875 37.92C39.0875 42.2293 37.4022 45.8773 34.0315 48.864C30.7035 51.808 26.3088 53.28 20.8475 53.28C13.7648 53.28 8.58083 50.8267 5.2955 45.92C3.80217 43.7867 2.7995 41.3333 2.2875 38.56Z" fill="url(#paint0_linear_265_459)"/>
<defs>
<linearGradient id="paint0_linear_265_459" x1="20.5" y1="0" x2="20.5" y2="64" gradientUnits="userSpaceOnUse">
<stop stop-color="#4042E2"/>
<stop offset="1" stop-color="#7D97F4"/>
</linearGradient>
</defs>
</svg>
