<svg width="306" height="266" viewBox="0 0 306 266" fill="none" xmlns="http://www.w3.org/2000/svg">
<path d="M306 196.44H6V196.59H306V196.44Z" fill="#EBEBEB"/>
<path d="M275.939 206.094H256.067V206.244H275.939V206.094Z" fill="#EBEBEB"/>
<path d="M204.732 207.726H199.518V207.876H204.732V207.726Z" fill="#EBEBEB"/>
<path d="M255.468 200.526H243.954V200.676H255.468V200.526Z" fill="#EBEBEB"/>
<path d="M63.3896 201.534H37.4756V201.684H63.3896V201.534Z" fill="#EBEBEB"/>
<path d="M72.5343 201.534H68.7363V201.684H72.5343V201.534Z" fill="#EBEBEB"/>
<path d="M141.09 204.066H84.8818V204.216H141.09V204.066Z" fill="#EBEBEB"/>
<path d="M148.2 169.68H32.3458C31.4382 169.678 30.5683 169.317 29.9271 168.674C29.2859 168.032 28.9258 167.162 28.9258 166.254V3.396C28.9337 2.49362 29.2973 1.63079 29.9376 0.994931C30.578 0.359075 31.4434 0.00154583 32.3458 0H148.2C149.108 0 149.98 0.360953 150.622 1.00345C151.265 1.64595 151.626 2.51737 151.626 3.426V166.254C151.626 167.163 151.265 168.034 150.622 168.677C149.98 169.319 149.108 169.68 148.2 169.68ZM32.3458 0.12C31.478 0.12159 30.6463 0.467439 30.0332 1.08164C29.4201 1.69583 29.0758 2.52819 29.0758 3.396V166.254C29.0758 167.122 29.4201 167.954 30.0332 168.568C30.6463 169.183 31.478 169.528 32.3458 169.53H148.2C149.068 169.528 149.9 169.183 150.515 168.569C151.129 167.955 151.474 167.122 151.476 166.254V3.396C151.474 2.52764 151.129 1.6953 150.515 1.08127C149.9 0.467244 149.068 0.121587 148.2 0.12H32.3458Z" fill="#EBEBEB"/>
<path d="M277.985 169.68H162.125C161.217 169.678 160.347 169.317 159.704 168.675C159.062 168.033 158.701 167.162 158.699 166.254V3.396C158.709 2.49307 159.074 1.63025 159.715 0.994556C160.356 0.358865 161.222 0.00152897 162.125 0H277.985C278.887 0.0031227 279.75 0.361349 280.389 0.997037C281.029 1.63272 281.391 2.49465 281.399 3.396V166.254C281.399 167.161 281.04 168.03 280.4 168.672C279.76 169.314 278.892 169.677 277.985 169.68ZM162.125 0.12C161.257 0.121587 160.425 0.467244 159.81 1.08127C159.196 1.6953 158.851 2.52764 158.849 3.396V166.254C158.851 167.122 159.196 167.955 159.81 168.569C160.425 169.183 161.257 169.528 162.125 169.53H277.985C278.854 169.528 279.686 169.183 280.3 168.569C280.914 167.955 281.26 167.122 281.261 166.254V3.396C281.26 2.52764 280.914 1.6953 280.3 1.08127C279.686 0.467244 278.854 0.121587 277.985 0.12H162.125Z" fill="#EBEBEB"/>
<path d="M272.148 195.51V165.924H258.492V138.486H256.566V154.212H251.316V149.862H241.86V134.802H240.108V116.4H238.71V134.466H235.38V161.238H229.08V134.466H217.698V157.11H205.752V129.666H203.826V145.392H198.576V141.042H189.12V125.988H187.368V107.58H185.97V125.652H182.64V152.424H176.34V125.652H164.958V151.548H157.284V136.488H155.532V118.086H154.134V136.152H150.81V162.924H144.504V136.152H133.128V162.924H127.524V165.924H117.708V138.486H115.782V154.212H110.532V149.862H101.076V134.802H99.3239V116.4H97.9259V134.466H94.8719V132.96H83.4899V134.466H77.1899V132.96H73.8599V114.888H72.4619V133.296H70.7099V148.356H61.2539V152.706H56.0039V136.974H54.0779V164.418H40.4219V195.51H272.148Z" fill="#EBEBEB"/>
<path d="M96.1606 57.8343C104.668 54.3103 108.709 44.5565 105.185 36.0487C101.66 27.5409 91.9067 23.5007 83.3989 27.0248C74.8911 30.5488 70.851 40.3026 74.375 48.8104C77.8991 57.3182 87.6528 61.3584 96.1606 57.8343Z" fill="#FAFAFA"/>
<path d="M81.1259 42.2401C81.1259 41.4715 80.8206 40.7344 80.2771 40.1909C79.7336 39.6474 78.9965 39.3421 78.2279 39.3421C77.9453 39.3439 77.6645 39.3864 77.3939 39.4681C77.4372 39.172 77.4593 38.8733 77.4599 38.5741C77.4583 36.9472 76.8109 35.3875 75.66 34.2377C74.5091 33.0879 72.9488 32.4421 71.3219 32.4421C70.9436 32.4425 70.5661 32.4766 70.1939 32.5441C69.5894 31.5489 68.6776 30.7775 67.596 30.3463C66.5144 29.9151 65.3219 29.8475 64.1986 30.1537C63.0752 30.46 62.082 31.1234 61.369 32.0439C60.6559 32.9643 60.2617 34.0918 60.2459 35.2561H60.1559C58.8447 35.2561 57.5872 35.777 56.66 36.7041C55.7328 37.6313 55.2119 38.8889 55.2119 40.2001C55.2119 41.5113 55.7328 42.7688 56.66 43.696C57.5872 44.6232 58.8447 45.1441 60.1559 45.1441H78.3119C79.0669 45.1222 79.7835 44.8064 80.3091 44.264C80.8347 43.7216 81.1278 42.9954 81.1259 42.2401Z" fill="#F0F0F0"/>
<path d="M263.7 82.398C263.7 82.0175 263.625 81.6406 263.48 81.289C263.334 80.9374 263.12 80.6179 262.851 80.3488C262.582 80.0797 262.263 79.8663 261.911 79.7206C261.56 79.575 261.183 79.5 260.802 79.5C260.52 79.4999 260.239 79.5403 259.968 79.62C260.097 78.7484 260.036 77.8594 259.789 77.0135C259.543 76.1676 259.117 75.3848 258.541 74.7184C257.965 74.0521 257.251 73.5179 256.45 73.1523C255.648 72.7867 254.777 72.5984 253.896 72.6C253.518 72.5994 253.14 72.6356 252.768 72.708C252.164 71.7129 251.252 70.9414 250.17 70.5102C249.089 70.079 247.896 70.0114 246.773 70.3176C245.649 70.6239 244.656 71.2874 243.943 72.2078C243.23 73.1283 242.836 74.2558 242.82 75.42H242.73C241.419 75.42 240.161 75.9409 239.234 76.8681C238.307 77.7953 237.786 79.0528 237.786 80.364C237.786 81.6753 238.307 82.9328 239.234 83.86C240.161 84.7871 241.419 85.308 242.73 85.308H260.886C261.643 85.2876 262.361 84.9715 262.887 84.4274C263.413 83.8834 263.705 83.1548 263.7 82.398Z" fill="#F0F0F0"/>
<path d="M177.857 38.3999C177.859 37.1836 178.343 36.0177 179.204 35.1582C180.065 34.2987 181.231 33.8159 182.447 33.8159C182.893 33.8149 183.335 33.8796 183.761 34.0079C183.694 33.541 183.66 33.0698 183.659 32.5979C183.661 30.0237 184.684 27.5554 186.505 25.7351C188.325 23.9148 190.793 22.8915 193.367 22.8899C193.971 22.8905 194.574 22.9468 195.167 23.0579C196.123 21.4822 197.565 20.2604 199.277 19.5772C200.988 18.894 202.875 18.7866 204.653 19.2712C206.431 19.7558 208.003 20.8061 209.131 22.2633C210.259 23.7205 210.882 25.5053 210.905 27.3479H211.043C213.118 27.3479 215.107 28.1719 216.574 29.6387C218.04 31.1054 218.864 33.0947 218.864 35.1689C218.864 37.2432 218.04 39.2325 216.574 40.6992C215.107 42.1659 213.118 42.9899 211.043 42.9899H182.315C181.12 42.9586 179.984 42.4608 179.151 41.6031C178.318 40.7453 177.854 39.5957 177.857 38.3999Z" fill="#F0F0F0"/>
<path d="M93.1202 88.3139C93.1203 87.4561 93.3206 86.61 93.7052 85.8432C94.0897 85.0763 94.6479 84.4098 95.3353 83.8965C96.0228 83.3833 96.8205 83.0375 97.665 82.8867C98.5095 82.736 99.3776 82.7843 100.2 83.028C100.119 82.4676 100.076 81.9022 100.074 81.3359C100.072 79.6179 100.448 77.9204 101.178 76.3647C101.907 74.8091 102.97 73.4337 104.293 72.3366C105.615 71.2396 107.163 70.4481 108.827 70.0186C110.49 69.5891 112.228 69.5322 113.916 69.8519C115.062 67.9504 116.797 66.4746 118.858 65.6485C120.918 64.8225 123.192 64.6914 125.334 65.2751C127.476 65.8588 129.369 67.1254 130.726 68.8827C132.083 70.64 132.829 72.792 132.852 75.012H133.026C135.523 75.012 137.917 76.0038 139.683 77.7692C141.448 79.5347 142.44 81.9292 142.44 84.426C142.44 86.9227 141.448 89.3172 139.683 91.0826C137.917 92.8481 135.523 93.8399 133.026 93.8399H98.4782C97.0404 93.8008 95.675 93.2008 94.6737 92.1682C93.6725 91.1355 93.1149 89.7523 93.1202 88.3139Z" fill="#F0F0F0"/>
<path d="M117.492 50.922C117.491 50.6444 117.425 50.371 117.3 50.123C117.176 49.8749 116.995 49.6591 116.774 49.4924C116.552 49.3257 116.294 49.2125 116.021 49.1618C115.748 49.1111 115.467 49.1242 115.2 49.2C115.224 49.017 115.236 48.8326 115.236 48.648C115.237 48.1467 115.139 47.6501 114.947 47.1868C114.756 46.7235 114.475 46.3025 114.12 45.948C113.766 45.5935 113.345 45.3124 112.882 45.1209C112.418 44.9294 111.922 44.8312 111.42 44.832C111.185 44.8326 110.95 44.8547 110.718 44.898C110.344 44.2781 109.777 43.7972 109.105 43.5282C108.432 43.2592 107.69 43.2168 106.992 43.4074C106.293 43.5981 105.675 44.0113 105.233 44.5846C104.79 45.1578 104.546 45.8598 104.538 46.584H104.478C103.686 46.619 102.938 46.9583 102.39 47.5311C101.842 48.104 101.536 48.8662 101.536 49.659C101.536 50.4519 101.842 51.2141 102.39 51.7869C102.938 52.3598 103.686 52.699 104.478 52.734H115.74C116.211 52.7215 116.659 52.5247 116.986 52.1859C117.314 51.8471 117.496 51.3933 117.492 50.922Z" fill="#F0F0F0"/>
<path d="M51.8633 105.642C51.8634 105.361 51.9293 105.084 52.0557 104.833C52.1821 104.582 52.3654 104.364 52.5911 104.197C52.8168 104.03 53.0785 103.917 53.3554 103.869C53.6322 103.821 53.9164 103.839 54.1853 103.92C54.1589 103.735 54.1449 103.549 54.1433 103.362C54.1433 102.861 54.2421 102.365 54.4339 101.903C54.6258 101.44 54.9069 101.02 55.2614 100.666C55.6158 100.312 56.0365 100.031 56.4995 99.8403C56.9624 99.6492 57.4585 99.5512 57.9593 99.552C58.195 99.5496 58.4302 99.5717 58.6613 99.618C59.0374 98.9996 59.6044 98.5202 60.2768 98.2523C60.9492 97.9844 61.6905 97.9425 62.3889 98.1328C63.0872 98.3231 63.7047 98.7354 64.1482 99.3075C64.5917 99.8795 64.8371 100.58 64.8473 101.304H64.9013C65.3166 101.286 65.7312 101.352 66.1203 101.498C66.5094 101.644 66.8648 101.868 67.1651 102.155C67.4654 102.442 67.7044 102.788 67.8677 103.17C68.031 103.552 68.1152 103.963 68.1152 104.379C68.1152 104.795 68.031 105.206 67.8677 105.588C67.7044 105.97 67.4654 106.316 67.1651 106.603C66.8648 106.89 66.5094 107.114 66.1203 107.26C65.7312 107.406 65.3166 107.472 64.9013 107.454H53.6153C53.1442 107.441 52.6968 107.245 52.3692 106.906C52.0417 106.567 51.86 106.113 51.8633 105.642Z" fill="#F0F0F0"/>
<path d="M220.758 111.522C220.758 111.045 220.947 110.587 221.285 110.249C221.623 109.912 222.08 109.722 222.558 109.722C222.733 109.72 222.907 109.746 223.074 109.8C223.047 109.615 223.033 109.429 223.032 109.242C223.032 108.741 223.131 108.245 223.322 107.783C223.514 107.32 223.795 106.9 224.15 106.546C224.504 106.192 224.925 105.911 225.388 105.72C225.851 105.529 226.347 105.431 226.848 105.432C227.083 105.431 227.318 105.451 227.55 105.492C227.926 104.874 228.493 104.394 229.165 104.126C229.838 103.858 230.579 103.816 231.277 104.007C231.976 104.197 232.593 104.609 233.037 105.181C233.48 105.753 233.726 106.454 233.736 107.178H233.79C234.582 107.213 235.33 107.552 235.878 108.125C236.426 108.698 236.732 109.46 236.732 110.253C236.732 111.046 236.426 111.808 235.878 112.381C235.33 112.954 234.582 113.293 233.79 113.328H222.51C222.04 113.315 221.593 113.119 221.266 112.782C220.938 112.444 220.756 111.992 220.758 111.522Z" fill="#F0F0F0"/>
<path d="M240.318 39.4499L214.662 78.5099L213.534 80.2259L211.302 81.2639L131.91 118.158L139.758 145.026L141.552 151.17L135.33 156.306L81.7681 196.35H37.4521L117.582 141.81L112.728 115.38L111.408 108.186L117.612 105.33L202.23 66.3719L229.788 32.2859L222.39 30.8219L245.628 21.1799L244.44 46.3139L240.318 39.4499Z" fill="#E0E0E0"/>
<path d="M156 223.536C220.249 223.536 272.334 220.495 272.334 216.744C272.334 212.993 220.249 209.952 156 209.952C91.7505 209.952 39.666 212.993 39.666 216.744C39.666 220.495 91.7505 223.536 156 223.536Z" fill="#F5F5F5"/>
<path d="M181.038 136.242L176.454 136.986L178.182 147.606L152.802 162.912L123.882 156.438L122.154 145.818L117.564 146.562L119.88 160.776L154.632 174.864L154.65 175.002L154.752 174.912L154.878 174.966L154.854 174.828L183.348 150.456L181.038 136.242Z" fill="#263238"/>
<path opacity="0.2" d="M181.038 136.242L176.454 136.986L178.182 147.606L152.802 162.912L123.882 156.438L122.154 145.818L117.564 146.562L119.88 160.776L154.632 174.864L154.65 175.002L154.752 174.912L154.878 174.966L154.854 174.828L183.348 150.456L181.038 136.242Z" fill="white"/>
<path d="M185.694 139.356L172.02 139.374L164.106 135.036L193.596 134.994L185.694 139.356Z" fill="#263238"/>
<path d="M196.062 135.702L161.646 135.75C161.384 135.75 161.132 135.646 160.946 135.46C160.761 135.274 160.656 135.023 160.656 134.76C160.663 134.503 160.769 134.259 160.953 134.08C161.137 133.9 161.383 133.8 161.64 133.8L196.056 133.752C196.319 133.754 196.57 133.858 196.757 134.043C196.943 134.228 197.049 134.479 197.052 134.742C197.044 134.999 196.937 135.243 196.752 135.423C196.567 135.602 196.32 135.702 196.062 135.702Z" fill="#263238"/>
<path d="M112.902 148.992L126.582 148.968L134.478 144.606L104.988 144.654L112.902 148.992Z" fill="#263238"/>
<path d="M102.528 145.368L136.944 145.314C137.206 145.312 137.457 145.207 137.642 145.022C137.828 144.837 137.933 144.586 137.934 144.324C137.934 144.061 137.83 143.809 137.644 143.624C137.458 143.438 137.207 143.334 136.944 143.334L102.522 143.394C102.392 143.394 102.264 143.419 102.144 143.469C102.024 143.519 101.916 143.592 101.824 143.684C101.733 143.776 101.66 143.885 101.611 144.005C101.562 144.126 101.537 144.254 101.538 144.384C101.538 144.514 101.564 144.642 101.614 144.762C101.663 144.882 101.736 144.99 101.828 145.082C101.92 145.173 102.03 145.246 102.15 145.295C102.27 145.344 102.398 145.369 102.528 145.368Z" fill="#263238"/>
<path d="M161.275 206.178H145.765V167.316C145.766 165.259 146.584 163.288 148.039 161.834C149.494 160.38 151.466 159.564 153.523 159.564C155.579 159.564 157.55 160.381 159.004 161.834C160.458 163.288 161.275 165.26 161.275 167.316V206.178Z" fill="#263238"/>
<path opacity="0.3" d="M161.275 206.178H145.765V167.316C145.766 165.259 146.584 163.288 148.039 161.834C149.494 160.38 151.466 159.564 153.523 159.564C155.579 159.564 157.55 160.381 159.004 161.834C160.458 163.288 161.275 165.26 161.275 167.316V206.178Z" fill="white"/>
<path d="M169.5 213.672H137.538L143.046 203.328H163.992L169.5 213.672Z" fill="#263238"/>
<path opacity="0.2" d="M169.5 213.672H137.538L143.046 203.328H163.992L169.5 213.672Z" fill="white"/>
<path d="M133.944 212.466H173.1C173.864 212.466 174.597 212.769 175.137 213.309C175.677 213.85 175.98 214.582 175.98 215.346V218.214H131.064V215.346C131.064 214.582 131.368 213.85 131.908 213.309C132.448 212.769 133.181 212.466 133.944 212.466Z" fill="#263238"/>
<path d="M153.522 170.922C155.063 170.922 156.312 169.673 156.312 168.132C156.312 166.591 155.063 165.342 153.522 165.342C151.982 165.342 150.732 166.591 150.732 168.132C150.732 169.673 151.982 170.922 153.522 170.922Z" fill="#263238"/>
<path d="M201.054 20.8859H218.292C219.699 20.8859 221.048 21.4447 222.043 22.4394C223.037 23.4341 223.596 24.7832 223.596 26.1899V41.1899C223.597 41.8869 223.46 42.5773 223.194 43.2215C222.928 43.8657 222.537 44.4511 222.045 44.9442C221.552 45.4374 220.967 45.8286 220.323 46.0956C219.679 46.3625 218.989 46.4999 218.292 46.4999H211.47L209.67 51.2339L207.87 46.4999H201.054C199.646 46.4999 198.295 45.9404 197.299 44.9446C196.304 43.9488 195.744 42.5982 195.744 41.1899V26.1899C195.744 25.4928 195.882 24.8026 196.148 24.1587C196.415 23.5148 196.807 22.9299 197.3 22.4373C197.793 21.9447 198.378 21.5541 199.023 21.2879C199.667 21.0217 200.357 20.8851 201.054 20.8859Z" fill="#7D97F4"/>
<path opacity="0.7" d="M201.054 20.8859H218.292C219.699 20.8859 221.048 21.4447 222.043 22.4394C223.037 23.4341 223.596 24.7832 223.596 26.1899V41.1899C223.597 41.8869 223.46 42.5773 223.194 43.2215C222.928 43.8657 222.537 44.4511 222.045 44.9442C221.552 45.4374 220.967 45.8286 220.323 46.0956C219.679 46.3625 218.989 46.4999 218.292 46.4999H211.47L209.67 51.2339L207.87 46.4999H201.054C199.646 46.4999 198.295 45.9404 197.299 44.9446C196.304 43.9488 195.744 42.5982 195.744 41.1899V26.1899C195.744 25.4928 195.882 24.8026 196.148 24.1587C196.415 23.5148 196.807 22.9299 197.3 22.4373C197.793 21.9447 198.378 21.5541 199.023 21.2879C199.667 21.0217 200.357 20.8851 201.054 20.8859Z" fill="white"/>
<path d="M209.67 30.6539C206.208 27.0539 202.326 28.5359 202.326 32.0399C202.326 35.5439 209.67 40.3979 209.67 40.3979C209.67 40.3979 217.014 35.5499 217.014 32.0399C217.014 28.5299 213.132 27.0539 209.67 30.6539Z" fill="#7D97F4"/>
<path d="M95.0402 37.512H77.8022C77.1052 37.5112 76.4148 37.6478 75.7706 37.914C75.1264 38.1802 74.541 38.5707 74.0478 39.0634C73.5547 39.556 73.1634 40.1409 72.8965 40.7848C72.6296 41.4287 72.4922 42.1189 72.4922 42.816V57.816C72.4922 59.2243 73.0516 60.5749 74.0474 61.5707C75.0433 62.5665 76.3939 63.126 77.8022 63.126H84.6002L86.4002 67.86L88.2002 63.126H95.0402C95.7372 63.126 96.4274 62.9886 97.0713 62.7216C97.7152 62.4547 98.3002 62.0635 98.7928 61.5703C99.2854 61.0772 99.676 60.4918 99.9422 59.8476C100.208 59.2034 100.345 58.513 100.344 57.816V42.816C100.344 42.1194 100.207 41.4297 99.9404 40.7862C99.6739 40.1427 99.2832 39.558 98.7907 39.0655C98.2982 38.573 97.7135 38.1823 97.0699 37.9157C96.4264 37.6492 95.7367 37.512 95.0402 37.512Z" fill="#7D97F4"/>
<path opacity="0.7" d="M95.0402 37.512H77.8022C77.1052 37.5112 76.4148 37.6478 75.7706 37.914C75.1264 38.1802 74.541 38.5707 74.0478 39.0634C73.5547 39.556 73.1634 40.1409 72.8965 40.7848C72.6296 41.4287 72.4922 42.1189 72.4922 42.816V57.816C72.4922 59.2243 73.0516 60.5749 74.0474 61.5707C75.0433 62.5665 76.3939 63.126 77.8022 63.126H84.6002L86.4002 67.86L88.2002 63.126H95.0402C95.7372 63.126 96.4274 62.9886 97.0713 62.7216C97.7152 62.4547 98.3002 62.0635 98.7928 61.5703C99.2854 61.0772 99.676 60.4918 99.9422 59.8476C100.208 59.2034 100.345 58.513 100.344 57.816V42.816C100.344 42.1194 100.207 41.4297 99.9404 40.7862C99.6739 40.1427 99.2832 39.558 98.7907 39.0655C98.2982 38.573 97.7135 38.1823 97.0699 37.9157C96.4264 37.6492 95.7367 37.512 95.0402 37.512Z" fill="white"/>
<path d="M85.5244 54.072C85.4104 54.0723 85.2976 54.0478 85.194 54.0001C85.0904 53.9524 84.9984 53.8828 84.9244 53.796L81.5644 49.842C81.4292 49.6829 81.3627 49.4766 81.3795 49.2684C81.3964 49.0602 81.4953 48.8673 81.6544 48.732C81.8135 48.5968 82.0199 48.5303 82.2281 48.5471C82.4362 48.564 82.6292 48.6629 82.7644 48.822L85.5244 52.074L90.0784 46.71C90.1437 46.6271 90.225 46.5582 90.3174 46.5074C90.4099 46.4565 90.5117 46.4248 90.6167 46.4142C90.7216 46.4035 90.8277 46.4141 90.9285 46.4453C91.0293 46.4765 91.1228 46.5277 91.2034 46.5958C91.284 46.6639 91.35 46.7475 91.3976 46.8417C91.4452 46.9359 91.4733 47.0387 91.4803 47.144C91.4873 47.2493 91.4731 47.3549 91.4384 47.4545C91.4037 47.5542 91.3493 47.6459 91.2784 47.724L86.1304 53.796C86.0552 53.883 85.9622 53.9526 85.8576 54.0003C85.753 54.0479 85.6393 54.0724 85.5244 54.072Z" fill="white"/>
<path d="M92.4645 56.3045C95.8058 52.9632 95.8058 47.5458 92.4645 44.2045C89.1231 40.8632 83.7058 40.8632 80.3645 44.2045C77.0231 47.5458 77.0231 52.9632 80.3645 56.3045C83.7058 59.6458 89.1231 59.6458 92.4645 56.3045Z" fill="#7D97F4"/>
<path d="M188.172 100.572L188.4 97.7999L185.052 95.1839C184.807 94.9925 184.504 94.8889 184.194 94.8899H181.962C181.635 94.8913 181.319 95.0065 181.068 95.2157C180.818 95.4249 180.648 95.7149 180.588 96.0359L180.144 98.5139C180.081 98.8554 180.149 99.2078 180.333 99.5019C180.518 99.7961 180.805 100.011 181.14 100.104L183.234 100.704C183.295 100.721 183.355 100.743 183.414 100.77C183.93 100.968 187.122 102.294 188.172 100.572Z" fill="#E4897B"/>
<path d="M193.691 100.74L187.217 96.984L186.197 100.71L192.173 104.436L193.691 100.74Z" fill="#E4897B"/>
<path d="M206.94 87.6C207.888 90.174 206.61 109.464 202.488 111.972C199.71 113.67 188.388 102.75 188.388 102.75L188.796 97.776L198.354 103.452C198.954 92.904 198.354 85.788 201.672 84.162L206.94 87.6Z" fill="#263238"/>
<path opacity="0.3" d="M206.603 99.8999C205.955 104.79 204.803 109.656 203.069 111.474C202.892 111.661 202.69 111.822 202.469 111.954C202.222 112.068 201.954 112.13 201.682 112.137C201.409 112.144 201.139 112.096 200.885 111.996C196.799 110.85 188.399 102.732 188.399 102.732L188.807 97.7579L198.365 103.434C198.965 92.8859 198.365 85.7699 201.683 84.1439L206.939 87.5999C207.419 88.8779 207.329 94.4039 206.603 99.8999Z" fill="white"/>
<path opacity="0.2" d="M206.603 99.8999C205.955 104.79 204.803 109.656 203.069 111.474C201.684 105.157 201.599 98.6248 202.817 92.2739L206.603 99.8999Z" fill="black"/>
<path d="M238.884 132.846C238.884 132.846 223.884 126.246 207.084 132.498C207.084 132.498 202.722 96.924 202.83 92.01C202.938 87.096 228.978 87.348 228.978 87.348C228.978 87.348 230.292 101.604 232.356 110.148C234.42 118.692 239.67 131.148 238.884 132.846Z" fill="#263238"/>
<path d="M199.715 212.898L204.929 212.76C205.023 212.758 205.115 212.788 205.19 212.844C205.265 212.901 205.319 212.981 205.343 213.072L206.441 217.272C206.467 217.373 206.47 217.479 206.45 217.582C206.429 217.685 206.385 217.782 206.322 217.865C206.258 217.948 206.176 218.016 206.082 218.063C205.989 218.11 205.886 218.135 205.781 218.136C203.903 218.136 201.179 218.136 198.815 218.184C196.055 218.256 194.297 218.118 191.051 218.184C189.095 218.238 188.477 216.276 189.293 216.078C192.995 215.166 195.419 215.346 198.575 213.276C198.913 213.048 199.308 212.918 199.715 212.898Z" fill="#263238"/>
<path d="M226.241 212.898L231.455 212.76C231.549 212.758 231.641 212.788 231.716 212.844C231.791 212.901 231.845 212.981 231.869 213.072L232.967 217.272C232.995 217.373 232.999 217.479 232.979 217.582C232.959 217.684 232.916 217.781 232.853 217.865C232.789 217.948 232.708 218.016 232.614 218.063C232.521 218.11 232.418 218.135 232.313 218.136C230.429 218.136 227.705 218.136 225.341 218.184C222.581 218.256 220.823 218.118 217.583 218.184C215.621 218.238 215.003 216.276 215.819 216.078C219.527 215.166 221.945 215.346 225.101 213.276C225.44 213.049 225.834 212.919 226.241 212.898Z" fill="#263238"/>
<path d="M234.599 117.36C237.107 128.232 232.799 213.744 232.799 213.744H224.465L220.907 142.482L207.809 213.744L198.923 213.096C204.731 157.896 209.873 124.938 209.873 124.938V120.738L234.599 117.36Z" fill="#263238"/>
<path opacity="0.2" d="M198.923 213.096L207.815 213.744L218.117 157.644L220.907 142.482L224.465 213.744H232.799C232.799 213.744 237.107 128.232 234.599 117.366L209.879 120.768V124.968C209.879 124.968 204.737 157.89 198.923 213.096Z" fill="white"/>
<path d="M231.071 104.556C231.215 105.246 231.359 105.918 231.503 106.566L231.737 107.592C231.905 108.306 232.067 109.008 232.229 109.674C232.313 110.01 232.391 110.346 232.475 110.67C233.429 114.588 234.221 117.432 234.407 118.692L209.873 123.216C208.745 120.468 207.779 117.816 206.951 115.344C206.849 115.044 206.747 114.744 206.657 114.444C206.447 113.814 206.255 113.196 206.057 112.584C205.961 112.272 205.871 111.984 205.775 111.648C205.595 111.048 205.421 110.448 205.259 109.848C205.169 109.518 205.079 109.194 205.001 108.87C200.747 92.8559 202.445 83.6699 202.445 83.6699C204.257 82.8274 206.118 82.0961 208.019 81.4799C208.415 81.3419 208.829 81.2279 209.219 81.1019C212.657 80.2626 216.141 79.6216 219.653 79.1819C220.319 79.0919 220.991 79.0199 221.657 78.9599H221.753C222.549 78.8912 223.35 78.9834 224.109 79.2311C224.868 79.4788 225.57 79.8769 226.172 80.4016C226.773 80.9262 227.264 81.5668 227.613 82.285C227.962 83.0032 228.162 83.7844 228.203 84.5819C228.389 87.8999 228.737 91.1819 229.175 94.2599C229.637 97.5599 230.207 100.692 230.807 103.542C230.855 103.806 230.909 104.064 230.963 104.316L231.071 104.556Z" fill="#7D97F4"/>
<path d="M215.532 67.5598C215.58 71.1058 216.192 77.4538 218.88 79.0558C218.88 79.0558 213.3 83.8198 211.68 83.8558C210.54 83.8558 208.956 81.9178 208.956 81.9178C212.34 79.9978 211.686 77.2378 210.546 74.8018L215.532 67.5598Z" fill="#E4897B"/>
<path opacity="0.2" d="M213.498 70.5118L210.54 74.7958C210.818 75.3748 211.045 75.9771 211.218 76.5958C212.538 75.9958 214.092 73.8838 213.936 72.3358C213.9 71.7065 213.752 71.0887 213.498 70.5118Z" fill="black"/>
<path d="M211.649 83.862C211.649 83.862 213.083 85.062 214.721 86.196C216.557 84.846 220.805 81.354 220.157 78.882C219.761 78.198 217.757 78.054 217.757 78.054C217.757 78.054 216.143 81.102 211.649 83.862Z" fill="#7D97F4"/>
<path d="M211.65 83.862C210.79 84.8203 210.073 85.8973 209.52 87.06C207.882 86.346 207.858 81.558 208.32 80.952C209.024 80.3874 209.86 80.0116 210.75 79.86C210.562 80.5498 210.546 81.2752 210.702 81.9728C210.859 82.6705 211.185 83.319 211.65 83.862Z" fill="#7D97F4"/>
<g opacity="0.5">
<path d="M211.649 83.862C211.649 83.862 213.083 85.062 214.721 86.196C216.557 84.846 220.805 81.354 220.157 78.882C219.761 78.198 217.757 78.054 217.757 78.054C217.757 78.054 216.143 81.102 211.649 83.862Z" fill="white"/>
<path d="M211.65 83.862C210.79 84.8203 210.073 85.8973 209.52 87.06C207.882 86.346 207.858 81.558 208.32 80.952C209.024 80.3874 209.86 80.0116 210.75 79.86C210.562 80.5498 210.546 81.2752 210.702 81.9728C210.859 82.6705 211.185 83.319 211.65 83.862Z" fill="white"/>
</g>
<path d="M240.275 133.74C239.945 134.616 238.115 134.886 238.115 134.886C238.805 129.876 237.089 125.886 235.715 123.258C232.289 116.826 222.677 109.578 219.047 100.248C218.885 99.846 218.741 99.444 218.609 99.048C214.697 87.048 219.593 78.348 219.593 78.348C220.253 78.432 220.895 78.522 221.501 78.624C221.963 78.696 222.407 78.78 222.833 78.858C225.134 79.2597 227.394 79.862 229.589 80.658C229.589 80.658 231.263 101.232 232.967 110.514C234.671 119.796 240.599 132.87 240.275 133.74Z" fill="#263238"/>
<path opacity="0.3" d="M240.275 133.74C239.945 134.616 238.115 134.886 238.115 134.886C238.805 129.876 237.089 125.886 235.715 123.258C233.459 119.028 228.515 114.438 224.387 109.14C222.262 106.543 220.511 103.661 219.185 100.578C219.131 100.47 219.089 100.356 219.047 100.248C218.885 99.846 218.741 99.444 218.609 99.048C214.697 87.048 219.593 78.348 219.593 78.348C220.253 78.432 220.895 78.522 221.501 78.624C221.963 78.696 222.407 78.78 222.833 78.858C225.134 79.2597 227.394 79.862 229.589 80.658C229.589 80.658 229.991 85.554 230.591 91.65C230.819 93.912 231.071 96.342 231.347 98.748C231.845 103.134 232.403 107.442 232.967 110.514C234.659 119.778 240.599 132.87 240.275 133.74Z" fill="white"/>
<path opacity="0.2" d="M220.5 88.38C220.5 88.38 218.784 94.746 219.024 100.248C218.862 99.846 218.718 99.444 218.586 99.048C214.674 87.048 219.57 78.348 219.57 78.348C220.23 78.432 220.872 78.522 221.478 78.624L222.03 85.38L218.262 86.208L220.5 88.38Z" fill="black"/>
<path d="M207 133.764L207.912 134.364C206.596 123.796 205.859 113.164 205.704 102.516C205.704 101.634 205.704 100.788 205.704 99.978C205.668 84.54 207.93 81.624 208.104 81.45L205.8 82.314L201.81 83.892C201.234 97.098 207 133.764 207 133.764Z" fill="#263238"/>
<path opacity="0.3" d="M207 133.764L207.912 134.364C206.596 123.796 205.859 113.164 205.704 102.516C205.704 101.634 205.704 100.788 205.704 99.978C205.668 84.54 207.93 81.624 208.104 81.45L205.8 82.314L201.81 83.892C201.234 97.098 207 133.764 207 133.764Z" fill="white"/>
<path opacity="0.2" d="M205.865 86.9579L203.399 88.68C203.399 88.68 204.401 96.186 205.667 99.978C205.631 84.54 207.893 81.624 208.067 81.45L205.799 82.314C204.625 83.5095 203.658 84.8924 202.938 86.4059L205.865 86.9579Z" fill="black"/>
<path opacity="0.1" d="M229.074 89.6399C229.306 91.3992 229.888 93.0945 230.784 94.6259C230.598 92.8259 230.418 91.0619 230.25 89.3639C229.843 89.3717 229.442 89.4658 229.074 89.6399Z" fill="black"/>
<path opacity="0.2" d="M218.118 157.644L220.908 142.482L220.368 134.46C220.368 134.46 216.546 148.374 218.118 157.644Z" fill="black"/>
<path d="M203.808 61.1398C202.98 62.7178 203.514 64.7398 203.748 66.0478C203.982 67.3558 204.144 69.1078 205.41 66.9418C206.676 64.7758 206.754 57.0298 203.808 61.1398Z" fill="#263238"/>
<path d="M215.567 64.8359C215.975 69.3059 216.719 69.9119 214.823 72.5099C211.973 76.4159 206.573 77.9099 205.085 73.5719C203.747 69.6419 202.199 62.3939 206.285 60.0059C207.188 59.4778 208.209 59.187 209.254 59.161C210.299 59.1349 211.333 59.3743 212.261 59.8569C213.188 60.3394 213.978 61.0493 214.556 61.92C215.134 62.7908 215.482 63.7941 215.567 64.8359Z" fill="#FF8B7B"/>
<path d="M215.58 67.9019C213.276 68.3339 213.39 67.3499 213.48 67.1039C213.864 66.0359 212.88 64.8059 211.788 63.1799C210.696 61.5539 213.804 58.6859 216.588 58.8779C219.132 59.0579 219.432 67.1999 215.58 67.9019Z" fill="#263238"/>
<path d="M206.195 71.3639C206.195 71.3639 207.869 71.4599 210.797 69.7979C210.635 70.8659 210.077 71.8559 208.307 72.3299C206.537 72.8039 206.195 71.3639 206.195 71.3639Z" fill="white"/>
<path d="M218.045 67.4819C217.814 68.4933 217.204 69.3778 216.341 69.9539C215.237 70.6499 214.403 69.594 214.475 68.226C214.535 66.99 215.189 65.142 216.407 65.01C217.625 64.878 218.357 66.1859 218.045 67.4819Z" fill="#FF8B7B"/>
<path d="M206.399 66.828C206.209 67.7694 205.89 68.68 205.451 69.534C205.674 69.6418 205.917 69.7002 206.165 69.7054C206.412 69.7106 206.658 69.6624 206.885 69.564L206.399 66.828Z" fill="#FF5652"/>
<path d="M216.228 56.9999C214.992 55.7339 207.012 56.2319 204.186 57.9659C202.722 58.8599 202.842 60.2939 203.436 61.0139C205.536 63.5579 207.636 61.4519 207.636 61.4519C207.968 61.1135 208.363 60.844 208.799 60.6586C209.235 60.4733 209.703 60.3759 210.177 60.372C210.651 60.3681 211.121 60.4578 211.56 60.6359C211.999 60.814 212.399 61.077 212.736 61.4099L216.984 59.3219C217.064 58.9025 217.037 58.4696 216.905 58.0635C216.773 57.6574 216.54 57.2915 216.228 56.9999Z" fill="#263238"/>
<path d="M210.113 65.82C210.173 66.192 210.029 66.522 209.783 66.558C209.537 66.594 209.291 66.33 209.231 65.958C209.171 65.586 209.315 65.256 209.555 65.22C209.795 65.184 210.047 65.448 210.113 65.82Z" fill="#263238"/>
<path d="M205.908 66.48C205.974 66.852 205.824 67.182 205.584 67.224C205.344 67.266 205.092 66.99 205.032 66.624C204.972 66.258 205.116 65.922 205.356 65.88C205.596 65.838 205.848 66.114 205.908 66.48Z" fill="#263238"/>
<path d="M211.2 64.26C211.162 64.2721 211.121 64.274 211.082 64.2656C211.043 64.2572 211.007 64.2387 210.978 64.212C210.781 64.0156 210.542 63.8673 210.278 63.7789C210.015 63.6904 209.735 63.6641 209.46 63.702C209.43 63.7145 209.398 63.7204 209.366 63.7193C209.333 63.7182 209.302 63.7101 209.273 63.6955C209.244 63.681 209.219 63.6603 209.199 63.635C209.179 63.6098 209.165 63.5804 209.157 63.5491C209.15 63.5178 209.149 63.4852 209.156 63.4536C209.162 63.422 209.175 63.3922 209.194 63.3662C209.213 63.3402 209.238 63.3187 209.266 63.3031C209.294 63.2875 209.325 63.2783 209.358 63.276C209.703 63.2153 210.058 63.2381 210.393 63.3424C210.728 63.4468 211.034 63.6297 211.284 63.876C211.314 63.9008 211.336 63.9335 211.349 63.9704C211.361 64.0073 211.363 64.0469 211.355 64.0849C211.346 64.1229 211.327 64.1577 211.299 64.1854C211.272 64.2132 211.237 64.2328 211.2 64.242V64.26Z" fill="#263238"/>
<path d="M203.855 65.328C203.814 65.3402 203.771 65.3402 203.729 65.328C203.701 65.3198 203.675 65.3061 203.653 65.2877C203.63 65.2694 203.611 65.2467 203.597 65.2211C203.583 65.1955 203.575 65.1673 203.572 65.1383C203.568 65.1093 203.571 65.08 203.579 65.052C203.671 64.7154 203.843 64.406 204.08 64.15C204.317 63.8941 204.613 63.6992 204.941 63.582C204.969 63.5729 204.999 63.5695 205.028 63.5722C205.058 63.5748 205.086 63.5835 205.112 63.5975C205.138 63.6116 205.16 63.6307 205.179 63.6539C205.197 63.677 205.21 63.7036 205.217 63.732C205.226 63.7592 205.229 63.7877 205.226 63.816C205.223 63.8443 205.215 63.8718 205.202 63.8969C205.188 63.922 205.17 63.9442 205.148 63.9622C205.126 63.9803 205.101 63.9938 205.073 64.002C204.81 64.0983 204.575 64.2583 204.389 64.4677C204.202 64.6771 204.071 64.9294 204.005 65.202C203.993 65.2336 203.972 65.2616 203.946 65.2836C203.92 65.3055 203.889 65.3208 203.855 65.328Z" fill="#263238"/>
<path d="M192.222 104.364L165.282 101.148L159.354 122.046L164.154 129.858L193.506 132.312L198.354 109.626L192.222 104.364Z" fill="#263238"/>
<path opacity="0.5" d="M159.354 122.04L161.22 125.088L161.64 125.766L164.154 129.858L193.506 132.312L198.348 109.626L195.732 107.382L194.928 106.686L192.222 104.364L165.282 101.148L159.354 122.04Z" fill="white"/>
<path opacity="0.4" d="M198.347 109.626L171.701 106.776L165.281 101.148L192.221 104.364L198.347 109.626Z" fill="white"/>
<path opacity="0.2" d="M171.702 106.776L164.154 129.858L159.354 122.04L165.282 101.148L171.702 106.776Z" fill="white"/>
<path d="M161.22 125.088L161.64 125.766L168.618 104.142L195.732 107.382L194.928 106.686L168.126 103.698L161.22 125.088Z" fill="#263238"/>
<path d="M186.617 105.852L185.207 104.67L178.409 103.764L179.651 105.072L186.617 105.852Z" fill="#263238"/>
<path d="M189.24 106.23C189.24 106.23 189.24 99.15 188.994 98.688C188.748 98.226 179.238 97.134 178.524 97.032C177.81 96.93 175.008 103.944 175.008 103.944L175.608 104.748L177.408 104.904C177.408 104.904 179.394 98.862 179.622 98.712C179.85 98.562 187.2 99.456 187.422 99.606C187.644 99.756 187.104 105.174 187.104 105.174L187.764 106.032L189.24 106.23Z" fill="#263238"/>
<path d="M161.016 118.8L163.08 121.284L163.248 120.762L164.568 116.676L164.73 116.184L165.012 115.308C165.012 115.308 164.466 115.98 163.722 116.748C162.967 117.608 162.047 118.306 161.016 118.8Z" fill="#7D97F4"/>
<path opacity="0.2" d="M161.669 118.986L163.247 120.786L164.567 116.7L164.729 116.208C164.069 117.096 162.869 118.536 161.669 118.986Z" fill="white"/>
<path opacity="0.2" d="M163.722 116.772C164.01 116.736 164.322 116.712 164.568 116.7L165.012 115.332C165.012 115.332 164.466 116.004 163.722 116.772Z" fill="black"/>
<path d="M160.044 113.82L159.846 117.462C161.31 116.712 162.964 116.414 164.598 116.604L164.76 116.094L165.78 112.926L165.888 112.596C165.888 112.596 162.6 112.368 160.044 113.82Z" fill="#7D97F4"/>
<path d="M163.547 107.502C164.312 108.833 165.294 110.027 166.451 111.036L166.565 110.652L166.877 109.644L167.399 107.964L167.651 107.148L167.723 106.914C167.207 106.206 166.755 105.453 166.373 104.664L163.547 107.502Z" fill="#7D97F4"/>
<path d="M169.458 102.552C169.847 103.106 170.156 103.712 170.376 104.352L170.802 104.406L171.402 104.472L172.332 104.592L173.232 104.7L173.55 104.736C173.465 103.347 172.883 102.036 171.912 101.04L169.458 102.552Z" fill="#7D97F4"/>
<path opacity="0.2" d="M170.015 102.6C170.341 103.17 170.604 103.773 170.801 104.4L171.401 104.466C171.347 104.393 171.31 104.308 171.293 104.219C171.277 104.13 171.281 104.038 171.305 103.95C171.367 103.813 171.475 103.703 171.611 103.639C171.747 103.576 171.901 103.562 172.046 103.602C172.19 103.642 172.316 103.732 172.4 103.856C172.484 103.981 172.521 104.131 172.505 104.28C172.474 104.399 172.407 104.506 172.313 104.586L173.213 104.694C173.105 103.926 172.787 102.354 171.887 101.496L170.015 102.6Z" fill="white"/>
<path opacity="0.2" d="M160.296 113.952L160.206 116.904C160.206 116.904 162.72 115.896 164.76 116.094L165.78 112.926C163.894 112.782 162.003 113.136 160.296 113.952ZM163.494 113.556C163.649 113.575 163.796 113.637 163.918 113.736C164.039 113.835 164.131 113.965 164.181 114.113C164.232 114.262 164.24 114.421 164.205 114.573C164.169 114.726 164.091 114.865 163.98 114.975C163.869 115.086 163.729 115.163 163.577 115.197C163.424 115.232 163.265 115.223 163.117 115.171C162.969 115.119 162.839 115.027 162.741 114.905C162.644 114.783 162.582 114.635 162.564 114.48C162.51 114.036 162.93 113.622 163.494 113.556Z" fill="white"/>
<path opacity="0.2" d="M164.069 107.646C164.783 108.739 165.621 109.745 166.565 110.646L166.877 109.638C166.674 109.556 166.508 109.401 166.412 109.204C166.316 109.007 166.296 108.781 166.356 108.57C166.417 108.359 166.553 108.178 166.739 108.062C166.925 107.946 167.147 107.902 167.363 107.94C167.363 107.94 167.393 107.94 167.399 107.94L167.651 107.124C167.12 106.584 166.677 105.965 166.337 105.288L164.069 107.646Z" fill="white"/>
<path opacity="0.2" d="M231.323 98.7299C229.643 102.672 227.027 107.73 224.363 109.14C222.238 106.543 220.487 103.661 219.161 100.578C220.361 97.4519 222.923 91.2539 224.801 89.9579C226.217 88.9859 228.677 90.2879 230.567 91.6319C230.795 93.8939 231.047 96.3239 231.323 98.7299Z" fill="black"/>
<path d="M198.702 106.596L193.979 106.848L196.793 112.122C196.793 112.122 200.759 111.018 200.393 108.846L198.702 106.596Z" fill="#E4897B"/>
<path d="M191.058 109.386L193.584 113.646L196.8 112.122L193.98 106.848L191.058 109.386Z" fill="#E4897B"/>
<path d="M205.919 105.636L198.323 106.68L198.953 110.322L205.901 109.506L205.919 105.636Z" fill="#E4897B"/>
<path d="M229.565 80.6399C235.007 83.8559 227.807 107.682 223.613 109.026C219.419 110.37 204.905 109.926 204.905 109.926L204.137 105.312L220.499 103.092C221.862 98.9399 222.866 94.6781 223.499 90.3539C223.77 88.3993 224.451 86.5238 225.496 84.85C226.541 83.1761 227.927 81.7416 229.565 80.6399Z" fill="#263238"/>
<path opacity="0.3" d="M229.565 80.6399C235.007 83.8559 227.807 107.682 223.613 109.026C219.419 110.37 204.905 109.926 204.905 109.926L204.137 105.312L220.499 103.092C221.862 98.9399 222.866 94.6781 223.499 90.3539C223.77 88.3993 224.451 86.5238 225.496 84.85C226.541 83.1761 227.927 81.7416 229.565 80.6399Z" fill="white"/>
<path d="M97.0563 101.892C98.8563 105.09 100.458 108.654 102.882 111.414C104.538 113.04 106.362 114.552 108.204 116.154C109.854 117.576 111.516 119.016 113.13 120.51C113.425 120.767 113.616 121.124 113.664 121.512C113.713 121.9 113.616 122.293 113.393 122.615C113.17 122.936 112.837 123.164 112.456 123.255C112.075 123.346 111.675 123.294 111.33 123.108C107.291 121.14 103.428 118.828 99.7863 116.196C99.3303 115.836 98.7183 115.362 98.3103 114.96C95.2743 112.008 93.1503 108.45 91.3203 104.682C89.6823 100.89 95.0463 98.2739 97.0263 101.892H97.0563Z" fill="#DC897C"/>
<path d="M106.926 114.63L101.766 118.554C101.766 118.554 98.8143 116.1 96.6363 113.952C95.799 113.198 95.0647 112.336 94.4523 111.39C94.0143 110.502 94.5063 107.79 95.1303 105.228C95.7963 102.504 96.6063 99.954 96.6063 99.954C98.0163 101.61 101.538 109.254 101.538 109.254L106.926 114.63Z" fill="#7D97F4"/>
<path opacity="0.2" d="M96.6363 113.952C95.799 113.198 95.0647 112.336 94.4523 111.39C94.0143 110.502 94.5063 107.79 95.1303 105.228C96.0303 105.444 97.4163 109.254 96.6363 113.952Z" fill="black"/>
<path d="M94.6866 127.8C93.0666 132.93 88.4826 137.01 83.0346 132.852C77.5866 128.694 88.1646 108.132 92.0346 106.452C95.9046 104.772 94.6866 127.8 94.6866 127.8Z" fill="#7D97F4"/>
<path opacity="0.2" d="M94.6866 127.8C93.0666 132.93 88.4826 137.01 83.0346 132.852C77.5866 128.694 88.1646 108.132 92.0346 106.452C95.9046 104.772 94.6866 127.8 94.6866 127.8Z" fill="black"/>
<path d="M109.38 218.208C105.84 218.208 105.372 218.154 103.38 218.082C101.676 218.022 101.274 218.238 99.906 218.208C98.76 218.208 98.802 217.086 99.156 215.808C99.33 215.172 99.606 213.84 99.846 212.808L105.03 212.436C105.756 213.828 107.43 215.814 109.398 216.078C111.306 216.366 110.79 218.208 109.38 218.208Z" fill="#7D97F4"/>
<path d="M78.8704 123.738H92.0704C92.8624 128.628 96.5764 151.938 97.2544 164.634C98.0464 179.58 102.834 203.514 105.372 212.868C104.658 213.504 101.304 213.774 99.7204 212.982C99.7204 212.982 85.9204 185.382 87.7204 168.12C77.2384 138.678 78.5284 125.904 78.8704 123.738Z" fill="#7D97F4"/>
<g opacity="0.7">
<path d="M78.8704 123.738H92.0704C92.8624 128.628 96.5764 151.938 97.2544 164.634C98.0464 179.58 102.834 203.514 105.372 212.868C104.658 213.504 101.304 213.774 99.7204 212.982C99.7204 212.982 85.9204 185.382 87.7204 168.12C77.2384 138.678 78.5284 125.904 78.8704 123.738Z" fill="white"/>
</g>
<path d="M83.755 218.208C80.215 218.208 79.747 218.154 77.755 218.082C76.051 218.022 75.649 218.238 74.281 218.208C73.135 218.208 73.177 217.086 73.531 215.808C73.705 215.172 73.981 213.84 74.221 212.808L79.405 212.436C80.131 213.828 81.805 215.814 83.773 216.078C85.741 216.342 85.165 218.208 83.755 218.208Z" fill="#7D97F4"/>
<path opacity="0.2" d="M84.2695 157.764C82.6255 152.364 81.4435 147.648 80.6035 143.622C81.4375 140.472 82.6135 137.772 84.2035 136.152C84.2215 136.152 86.5255 144.93 84.2695 157.764Z" fill="black"/>
<path d="M73.4641 123.738H87.1981C86.2561 130.974 83.3521 153.054 81.5581 164.724C79.2841 179.514 78.9901 203.25 79.5601 212.922C78.7321 213.402 75.7141 213.984 74.0821 213.474C74.0821 213.474 66.3661 183.558 71.4901 166.182C67.2001 134.586 72.6001 125.016 73.4641 123.738Z" fill="#7D97F4"/>
<g opacity="0.7">
<path d="M73.4641 123.738H87.1981C86.2561 130.974 83.3521 153.054 81.5581 164.724C79.2841 179.514 78.9901 203.25 79.5601 212.922C78.7321 213.402 75.7141 213.984 74.0821 213.474C74.0821 213.474 66.3661 183.558 71.4901 166.182C67.2001 134.586 72.6001 125.016 73.4641 123.738Z" fill="white"/>
</g>
<path d="M95.2381 79.6139C95.2381 79.6139 96.5761 87.7979 93.9541 90.6779C91.3321 93.5579 82.2901 94.1519 79.2841 88.8359C76.2781 83.5199 78.1201 75.7499 85.0261 74.1479C91.9321 72.5459 95.2381 79.6139 95.2381 79.6139Z" fill="#263238"/>
<path d="M75.8219 95.8439C76.0751 98.9771 76.1592 102.122 76.0739 105.264C76.0319 107.016 75.9539 108.96 75.8039 111.054C75.5128 115.315 74.9678 119.554 74.1719 123.75L92.1719 126.75C92.1719 126.75 98.5019 106.188 94.9379 98.6279C94.9199 98.6099 86.3999 92.7359 75.8219 95.8439Z" fill="#263238"/>
<path d="M132.666 119.208L131.274 118.992C131.017 118.95 130.754 118.971 130.506 119.053C130.259 119.134 130.035 119.274 129.852 119.46L128.118 121.2C127.776 121.546 127.522 121.969 127.378 122.434C127.234 122.898 127.204 123.391 127.29 123.87L127.392 124.47C129.672 124.992 132.522 123.87 132.522 123.87L133.368 123.648C133.544 123.606 133.71 123.531 133.855 123.425C134.001 123.319 134.125 123.185 134.219 123.031C134.312 122.877 134.375 122.705 134.402 122.527C134.429 122.349 134.42 122.167 134.376 121.992L133.95 120.306C133.863 120.02 133.695 119.765 133.468 119.571C133.24 119.376 132.963 119.25 132.666 119.208Z" fill="#E4897B"/>
<path d="M88.0921 102.942L81.8701 95.4C83.9341 93.882 83.8621 88.752 83.5741 85.908L88.3741 91.254C87.6541 93.306 87.3721 95.568 90.3361 96.804C90.3181 96.816 88.0861 102.924 88.0921 102.942Z" fill="#E4897B"/>
<path opacity="0.2" d="M85.5245 88.104L88.3565 91.26C88.1801 91.7395 88.0456 92.2333 87.9545 92.736C86.8145 92.376 85.3385 90.828 85.3265 89.58C85.3012 89.08 85.3683 88.5797 85.5245 88.104Z" fill="black"/>
<path d="M81.7682 80.9999C82.0502 85.2779 82.0862 87.0899 84.2342 89.3999C87.4622 92.8199 92.5922 91.7999 93.6002 87.5999C94.4882 83.8079 93.8702 77.4479 89.7242 75.5459C88.8444 75.0993 87.8606 74.8977 86.876 74.9624C85.8915 75.027 84.9425 75.3556 84.1287 75.9134C83.3149 76.4713 82.6663 77.238 82.2509 78.133C81.8356 79.028 81.6688 80.0183 81.7682 80.9999Z" fill="#E4897B"/>
<path d="M85.7275 78.3899C83.0635 81.0959 87.3955 85.0919 82.6735 84.3239C77.9515 83.5559 80.6815 77.0879 83.6815 75.9239C86.6815 74.7599 85.7275 78.3899 85.7275 78.3899Z" fill="#263238"/>
<path d="M88.3136 82.4759C88.3136 82.8359 88.5176 83.1359 88.7456 83.1479C88.9736 83.1599 89.1536 82.8719 89.1416 82.5119C89.1296 82.1519 88.9436 81.8519 88.7156 81.8459C88.4876 81.8399 88.3076 82.1159 88.3136 82.4759Z" fill="#263238"/>
<path d="M92.6217 82.7338C92.6217 83.0938 92.8197 83.3998 93.0477 83.4058C93.2757 83.4118 93.4557 83.1358 93.4497 82.8058C93.4437 82.4758 93.2457 82.1458 93.0177 82.1338C92.7897 82.1218 92.6097 82.3738 92.6217 82.7338Z" fill="#263238"/>
<path d="M92.916 82.1159L93.756 81.9059C93.756 81.9059 93.336 82.5659 92.916 82.1159Z" fill="#263238"/>
<path d="M91.4336 83.2739C91.7655 84.1121 92.203 84.9045 92.7356 85.6319C92.5556 85.7537 92.3503 85.8332 92.1352 85.8643C91.9201 85.8955 91.7008 85.8776 91.4936 85.8119L91.4336 83.2739Z" fill="#DE5753"/>
<path d="M89.5137 87.0539C89.7111 87.0972 89.9119 87.1233 90.1137 87.1319C90.1269 87.1319 90.1399 87.1293 90.1519 87.1241C90.164 87.1189 90.1748 87.1113 90.1838 87.1017C90.1928 87.0921 90.1998 87.0808 90.2042 87.0685C90.2087 87.0561 90.2106 87.043 90.2097 87.0299C90.2106 87.016 90.2085 87.0021 90.2038 86.989C90.199 86.976 90.1916 86.964 90.1821 86.9539C90.1725 86.9438 90.161 86.9357 90.1482 86.9302C90.1354 86.9247 90.1216 86.9219 90.1077 86.9219C89.6614 86.9047 89.2245 86.788 88.829 86.5804C88.4336 86.3728 88.0894 86.0795 87.8217 85.7219C87.8163 85.7083 87.808 85.696 87.7973 85.6858C87.7867 85.6757 87.774 85.668 87.7601 85.6632C87.7462 85.6585 87.7314 85.6568 87.7168 85.6582C87.7022 85.6597 87.6881 85.6643 87.6754 85.6717C87.6627 85.6791 87.6518 85.6892 87.6434 85.7013C87.635 85.7133 87.6293 85.727 87.6266 85.7415C87.624 85.7559 87.6245 85.7708 87.6282 85.785C87.6318 85.7992 87.6385 85.8125 87.6477 85.8239C88.0981 86.4486 88.7621 86.8863 89.5137 87.0539Z" fill="#263238"/>
<path d="M80.8793 84.9719C81.0038 85.3665 81.2095 85.7305 81.4834 86.0406C81.7573 86.3506 82.0932 86.5998 82.4693 86.7719C83.4113 87.1439 83.9693 86.0759 83.7773 84.9239C83.6093 83.8859 82.9073 82.4399 81.9293 82.5659C80.9513 82.6919 80.5013 83.9339 80.8793 84.9719Z" fill="#E4897B"/>
<path d="M87.3483 80.4299C87.4038 80.4366 87.4597 80.4216 87.5043 80.3879C87.6916 80.2146 87.9192 80.0909 88.1665 80.028C88.4138 79.9651 88.673 79.9651 88.9203 80.0279C88.9454 80.0371 88.9723 80.0407 88.999 80.0386C89.0257 80.0364 89.0516 80.0285 89.0749 80.0154C89.0983 80.0023 89.1186 79.9843 89.1343 79.9626C89.1501 79.941 89.161 79.9162 89.1663 79.8899C89.1795 79.8351 89.1713 79.7773 89.1435 79.7283C89.1156 79.6792 89.0701 79.6427 89.0163 79.6259C88.7042 79.5398 88.3754 79.5343 88.0606 79.6099C87.7458 79.6854 87.4553 79.8396 87.2163 80.0579C87.1778 80.0972 87.1562 80.15 87.1562 80.2049C87.1562 80.2599 87.1778 80.3127 87.2163 80.3519C87.2485 80.3941 87.2958 80.4221 87.3483 80.4299Z" fill="#263238"/>
<path d="M93.8223 80.8199C93.8707 80.8378 93.9239 80.8378 93.9723 80.8199C93.9944 80.8034 94.013 80.7827 94.027 80.7589C94.0411 80.7352 94.0503 80.7089 94.0542 80.6816C94.0581 80.6543 94.0566 80.6265 94.0497 80.5998C94.0429 80.5731 94.0309 80.548 94.0143 80.5259C93.8303 80.2422 93.5838 80.0043 93.2936 79.8306C93.0034 79.6569 92.6773 79.552 92.3403 79.5239C92.3135 79.5238 92.287 79.5293 92.2624 79.5401C92.2379 79.5508 92.2158 79.5666 92.1978 79.5864C92.1797 79.6062 92.1659 79.6295 92.1574 79.6549C92.1489 79.6803 92.1458 79.7072 92.1483 79.7339C92.1512 79.7903 92.1749 79.8436 92.2148 79.8835C92.2547 79.9234 92.308 79.947 92.3643 79.9499C92.6312 79.9741 92.8889 80.0591 93.1178 80.1985C93.3466 80.3379 93.5404 80.5279 93.6843 80.7539C93.7207 80.792 93.7698 80.8155 93.8223 80.8199Z" fill="#263238"/>
<path d="M88.6143 81.8579L89.4483 81.6479C89.4483 81.6479 89.0343 82.3019 88.6143 81.8579Z" fill="#263238"/>
<path d="M89.8679 76.7339C89.8679 76.7339 90.1619 79.4699 85.8719 81.2639C87.007 80.5762 87.8276 79.4713 88.1579 78.1859C88.1579 78.1859 86.5259 81.6599 83.2799 81.4919C80.0339 81.3239 80.5619 89.3519 82.0259 91.9019C82.0259 91.9019 77.8859 89.3159 77.5139 86.2799C77.5139 86.2799 77.9159 89.2079 79.5959 90.7019C79.5959 90.7019 76.8359 89.4599 75.5159 84.1679C73.9019 77.7419 78.8879 72.8279 82.7939 71.9339C88.6619 70.5959 90.3659 72.7139 90.3659 72.7139C90.3659 72.7139 92.2139 71.6819 94.8119 75.2519C97.4099 78.8219 98.6339 86.4299 95.4899 90.2879C95.9187 87.3392 95.6516 84.331 94.7099 81.5039C94.7099 81.5039 92.0279 80.7539 90.5099 77.1119C90.4684 77.848 90.2261 78.5587 89.8094 79.1668C89.3926 79.775 88.8174 80.2575 88.1459 80.5619C88.1459 80.5619 89.7359 79.5959 89.8679 76.7339Z" fill="#263238"/>
<path d="M92.4604 127.824L92.5803 125.262L74.1903 122.214L73.1523 124.296L92.4604 127.824Z" fill="#7D97F4"/>
<path opacity="0.7" d="M92.4604 127.824L92.5803 125.262L74.1903 122.214L73.1523 124.296L92.4604 127.824Z" fill="white"/>
<path d="M79.5059 125.214L73.4219 124.2L74.0759 122.532L79.7939 123.48L79.5059 125.214Z" fill="#263238"/>
<path d="M90.8456 125.31L92.6636 125.616L92.5376 127.374L90.5576 127.05L90.8456 125.31Z" fill="#263238"/>
<path d="M80.3766 123.568L80.0889 125.302L89.9442 126.938L90.2319 125.203L80.3766 123.568Z" fill="#263238"/>
<path d="M84.4864 126.174L87.15 126.616C87.333 126.646 87.5061 126.522 87.5364 126.339L87.7574 125.008C87.7878 124.825 87.664 124.652 87.4809 124.621L84.8173 124.179C84.6343 124.149 84.4612 124.273 84.4309 124.456L84.2099 125.788C84.1795 125.971 84.3033 126.144 84.4864 126.174Z" fill="white"/>
<path d="M83.7062 104.088C83.7112 104.751 83.661 105.413 83.5562 106.068C83.1842 108.42 81.9842 111.66 80.4362 114.882C77.6822 120.636 73.8362 126.354 71.6582 126.948L74.4302 120.462L75.1202 108.276L75.4982 101.538L75.8222 95.8438C75.8222 95.8438 78.3722 94.9138 79.7942 94.9378C79.8002 94.9378 83.6522 98.6038 83.7062 104.088Z" fill="#7D97F4"/>
<path d="M92.0039 97.0559C92.8166 100.45 93.3008 103.914 93.4499 107.4C93.6839 113.082 94.6859 127.8 94.6859 127.8C94.6859 127.8 96.8399 104.898 96.6059 99.9299C96.5999 99.9539 94.1639 97.5239 92.0039 97.0559Z" fill="#7D97F4"/>
<path d="M109.668 141.9C108.156 143.796 104.328 143.256 101.124 140.7C97.9203 138.144 96.5403 134.532 98.0463 132.642C99.5523 130.752 103.386 131.28 106.596 133.842C109.806 136.404 111.18 140.004 109.668 141.9Z" fill="#263238"/>
<path d="M117.108 137.538C117.656 137.49 118.165 137.235 118.53 136.824C120.012 134.964 117.258 130.296 112.374 126.408C107.49 122.52 102.33 120.87 100.848 122.73C100.526 123.177 100.391 123.732 100.47 124.278C100.237 124.391 100.032 124.555 99.8703 124.758C99.5523 125.202 99.4229 125.755 99.5104 126.294C99.2604 126.402 99.0401 126.569 98.8683 126.78C98.7106 127.001 98.5994 127.251 98.5417 127.516C98.4839 127.782 98.4807 128.056 98.5323 128.322C98.2708 128.421 98.0393 128.587 97.8604 128.802C97.7053 129.025 97.5975 129.277 97.5439 129.544C97.4902 129.81 97.4917 130.084 97.5483 130.35C97.28 130.443 97.0417 130.607 96.8583 130.824C95.6583 132.372 97.9204 136.224 101.976 139.488C106.032 142.752 110.328 144.09 111.576 142.542C111.75 142.315 111.858 142.046 111.888 141.762C112.16 141.757 112.427 141.698 112.675 141.586C112.923 141.475 113.145 141.314 113.328 141.114C113.498 140.891 113.607 140.629 113.646 140.352C113.917 140.341 114.183 140.277 114.429 140.161C114.674 140.046 114.894 139.882 115.074 139.68C115.244 139.467 115.357 139.216 115.404 138.948C115.951 138.909 116.461 138.66 116.826 138.252C116.973 138.038 117.069 137.794 117.108 137.538Z" fill="#263238"/>
<path opacity="0.3" d="M117.108 137.538C117.656 137.49 118.165 137.235 118.53 136.824C120.012 134.964 117.258 130.296 112.374 126.408C107.49 122.52 102.33 120.87 100.848 122.73C100.526 123.177 100.391 123.732 100.47 124.278C100.237 124.391 100.032 124.555 99.8703 124.758C99.5523 125.202 99.4229 125.755 99.5104 126.294C99.2604 126.402 99.0401 126.569 98.8683 126.78C98.7106 127.001 98.5994 127.251 98.5417 127.516C98.4839 127.782 98.4807 128.056 98.5323 128.322C98.2708 128.421 98.0393 128.587 97.8604 128.802C97.7053 129.025 97.5975 129.277 97.5439 129.544C97.4902 129.81 97.4917 130.084 97.5483 130.35C97.28 130.443 97.0417 130.607 96.8583 130.824C95.6583 132.372 97.9204 136.224 101.976 139.488C106.032 142.752 110.328 144.09 111.576 142.542C111.75 142.315 111.858 142.046 111.888 141.762C112.16 141.757 112.427 141.698 112.675 141.586C112.923 141.475 113.145 141.314 113.328 141.114C113.498 140.891 113.607 140.629 113.646 140.352C113.917 140.341 114.183 140.277 114.429 140.161C114.674 140.046 114.894 139.882 115.074 139.68C115.244 139.467 115.357 139.216 115.404 138.948C115.951 138.909 116.461 138.66 116.826 138.252C116.973 138.038 117.069 137.794 117.108 137.538Z" fill="white"/>
<path d="M137.4 126.72C139.506 124.082 140.91 120.954 141.482 117.628C142.054 114.301 141.775 110.884 140.672 107.695C139.568 104.505 137.676 101.646 135.171 99.3841C132.665 97.1222 129.629 95.5308 126.343 94.758C123.058 93.9852 119.63 94.056 116.379 94.964C113.128 95.8719 110.16 97.5874 107.75 99.9509C105.34 102.314 103.568 105.249 102.597 108.482C101.626 111.714 101.489 115.14 102.198 118.44C102.32 118.969 102.308 119.52 102.165 120.044C102.022 120.567 101.75 121.047 101.376 121.44C101.335 121.475 101.299 121.516 101.268 121.56C99.762 123.45 102.558 128.16 107.52 132.138C112.482 136.116 117.72 137.76 119.226 135.87L119.316 135.744C119.619 135.291 120.029 134.921 120.509 134.664C120.989 134.408 121.526 134.274 122.07 134.274C125.025 134.227 127.933 133.526 130.584 132.219C133.235 130.913 135.563 129.035 137.4 126.72Z" fill="#7D97F4"/>
<path opacity="0.7" d="M137.4 126.72C139.506 124.082 140.91 120.954 141.482 117.628C142.054 114.301 141.775 110.884 140.672 107.695C139.568 104.505 137.676 101.646 135.171 99.3841C132.665 97.1222 129.629 95.5308 126.343 94.758C123.058 93.9852 119.63 94.056 116.379 94.964C113.128 95.8719 110.16 97.5874 107.75 99.9509C105.34 102.314 103.568 105.249 102.597 108.482C101.626 111.714 101.489 115.14 102.198 118.44C102.32 118.969 102.308 119.52 102.165 120.044C102.022 120.567 101.75 121.047 101.376 121.44C101.335 121.475 101.299 121.516 101.268 121.56C99.762 123.45 102.558 128.16 107.52 132.138C112.482 136.116 117.72 137.76 119.226 135.87L119.316 135.744C119.619 135.291 120.029 134.921 120.509 134.664C120.989 134.408 121.526 134.274 122.07 134.274C125.025 134.227 127.933 133.526 130.584 132.219C133.235 130.913 135.563 129.035 137.4 126.72Z" fill="white"/>
<path d="M112.512 131.73C112.483 131.731 112.453 131.723 112.428 131.707C112.403 131.691 112.383 131.668 112.372 131.64C112.361 131.612 112.358 131.582 112.365 131.553C112.372 131.524 112.388 131.498 112.41 131.478C112.698 131.208 119.34 124.986 125.052 125.418L122.49 123.378C122.469 123.36 122.454 123.336 122.445 123.31C122.437 123.283 122.436 123.255 122.442 123.228L123.18 120.6L118.29 123C118.266 123.012 118.238 123.017 118.211 123.014C118.184 123.011 118.158 123.001 118.137 122.984C118.116 122.967 118.099 122.944 118.091 122.918C118.082 122.892 118.08 122.864 118.086 122.838L119.316 117.504L114.78 119.4C114.757 119.412 114.731 119.418 114.705 119.418C114.679 119.418 114.654 119.412 114.63 119.4C114.61 119.384 114.595 119.362 114.587 119.338C114.578 119.313 114.577 119.287 114.582 119.262L115.434 114.426L112.992 115.746C112.969 115.761 112.942 115.769 112.914 115.769C112.887 115.769 112.86 115.761 112.836 115.746L110.16 113.616C110.31 115.212 110.682 121.98 106.68 127.002C106.655 127.026 106.622 127.04 106.587 127.042C106.552 127.043 106.517 127.032 106.49 127.01C106.463 126.988 106.444 126.957 106.439 126.922C106.433 126.887 106.44 126.852 106.458 126.822C110.916 121.224 109.848 113.382 109.836 113.304C109.833 113.275 109.838 113.247 109.85 113.221C109.863 113.195 109.883 113.174 109.908 113.16C109.933 113.145 109.961 113.137 109.989 113.137C110.018 113.137 110.046 113.145 110.07 113.16L112.938 115.446L115.56 114C115.584 113.986 115.611 113.978 115.638 113.978C115.666 113.978 115.693 113.986 115.716 114C115.738 114.015 115.754 114.037 115.763 114.061C115.773 114.085 115.775 114.112 115.77 114.138L114.912 119.004L119.46 117.078C119.483 117.065 119.509 117.058 119.535 117.058C119.562 117.058 119.588 117.065 119.61 117.078C119.631 117.095 119.646 117.118 119.655 117.143C119.663 117.168 119.665 117.196 119.658 117.222L118.458 122.538L123.366 120.138C123.39 120.124 123.417 120.116 123.444 120.116C123.472 120.116 123.499 120.124 123.522 120.138C123.544 120.156 123.559 120.18 123.567 120.206C123.574 120.233 123.573 120.262 123.564 120.288L122.766 123.162L125.64 125.448C125.664 125.468 125.681 125.495 125.688 125.525C125.696 125.555 125.694 125.587 125.682 125.616C125.671 125.645 125.65 125.67 125.623 125.686C125.595 125.703 125.564 125.709 125.532 125.706C119.868 124.872 112.704 131.568 112.632 131.634C112.627 131.661 112.612 131.686 112.59 131.704C112.568 131.721 112.54 131.73 112.512 131.73Z" fill="#263238"/>
<path opacity="0.2" d="M136.8 111.528C134.4 114.606 128.862 114.3 124.428 110.844C119.994 107.388 118.338 102.096 120.732 99.0179C123.126 95.9399 128.67 96.2459 133.104 99.7019C137.538 103.158 139.2 108.45 136.8 111.528Z" fill="white"/>
<path opacity="0.2" d="M120.846 127.542C119.1 129.786 115.056 129.564 111.846 127.044C108.636 124.524 107.406 120.66 109.152 118.416C110.898 116.172 114.942 116.388 118.152 118.908C121.362 121.428 122.592 125.292 120.846 127.542Z" fill="white"/>
<path opacity="0.2" d="M83.7061 104.088C83.7111 104.751 83.6609 105.413 83.5561 106.068C83.1841 108.42 81.9841 111.66 80.4361 114.882C78.4119 112.898 76.6277 110.682 75.1201 108.282L75.4981 101.544C77.6281 100.848 80.1841 100.344 81.4981 101.19C82.4504 101.97 83.2067 102.963 83.7061 104.088Z" fill="black"/>
<path d="M80.2022 99.3239C81.3482 102.456 82.2842 105.63 83.6282 108.582C84.4862 110.088 85.9682 111.198 87.3182 112.452C89.3642 114.252 91.5542 115.968 93.7622 117.678L100.446 122.82C100.76 123.058 100.973 123.405 101.044 123.793C101.115 124.18 101.038 124.58 100.829 124.914C100.62 125.248 100.294 125.491 99.9142 125.597C99.5347 125.702 99.1295 125.662 98.7782 125.484C96.2102 124.194 93.7202 122.82 91.2542 121.356C88.7882 119.892 86.3702 118.356 84.0002 116.616C82.1402 115.218 80.0402 113.652 78.6602 111.624C78.2051 110.935 77.7904 110.219 77.4182 109.482C76.0944 106.846 75.0042 104.1 74.1602 101.274C73.0562 97.2719 78.7682 95.4359 80.2022 99.3239Z" fill="#DC897C"/>
<path d="M75.822 95.8439C77.2946 95.8927 78.7022 96.4625 79.794 97.4519C82.056 99.6899 83.322 106.524 84.828 109.146C85.86 110.946 90.498 115.014 90.498 115.014L84.828 118.968C84.828 118.968 80.244 114.9 78.636 112.224C77.028 109.548 70.848 99.3779 75.822 95.8439Z" fill="#7D97F4"/>
<path d="M98.8026 122.256L103.105 121.008L102.295 125.91C102.295 125.91 98.3886 126.792 98.0166 124.764L98.8026 122.256Z" fill="#E4897B"/>
<path d="M107.388 122.166L105.258 126.15L102.294 125.91L103.104 121.008L107.388 122.166Z" fill="#E4897B"/>
<path d="M2.5525 254V245.04L17.5925 235.12C21.1765 232.731 23.6725 230.704 25.0805 229.04C26.4885 227.333 27.1925 225.413 27.1925 223.28C27.1925 221.317 26.5738 219.76 25.3365 218.608C24.0992 217.456 22.3712 216.88 20.1525 216.88C17.2085 216.88 15.0112 217.947 13.5605 220.08C12.9205 221.061 12.4725 222.128 12.2165 223.28H2.2325C2.65917 220.464 3.59783 217.904 5.0485 215.6C8.29117 210.48 13.3258 207.92 20.1525 207.92C25.3152 207.92 29.4752 209.371 32.6325 212.272C35.8325 215.131 37.4325 218.693 37.4325 222.96C37.4325 225.605 36.9418 227.931 35.9605 229.936C35.0218 231.899 33.7418 233.627 32.1205 235.12C30.5418 236.571 28.2165 238.341 25.1445 240.432L20.1525 243.76L16.9525 245.04V245.36L21.1125 245.04H37.4325V254H2.5525Z" fill="url(#paint0_linear_265_458)"/>
<defs>
<linearGradient id="paint0_linear_265_458" x1="20" y1="202" x2="20" y2="266" gradientUnits="userSpaceOnUse">
<stop stop-color="#4042E2"/>
<stop offset="1" stop-color="#7D97F4"/>
</linearGradient>
</defs>
</svg>
