<svg width="308" height="270" viewBox="0 0 308 270" fill="none" xmlns="http://www.w3.org/2000/svg">
<path d="M308 196.44H8V196.59H308V196.44Z" fill="#EBEBEB"/>
<path d="M277.94 206.094H258.068V206.244H277.94V206.094Z" fill="#EBEBEB"/>
<path d="M206.732 207.726H201.518V207.876H206.732V207.726Z" fill="#EBEBEB"/>
<path d="M257.468 200.526H245.954V200.676H257.468V200.526Z" fill="#EBEBEB"/>
<path d="M65.3896 201.534H39.4756V201.684H65.3896V201.534Z" fill="#EBEBEB"/>
<path d="M74.5343 201.534H70.7363V201.684H74.5343V201.534Z" fill="#EBEBEB"/>
<path d="M143.09 204.066H86.8818V204.216H143.09V204.066Z" fill="#EBEBEB"/>
<path d="M150.2 169.68H34.3458C33.4382 169.678 32.5683 169.317 31.9271 168.674C31.2859 168.032 30.9258 167.162 30.9258 166.254V3.396C30.9337 2.49362 31.2973 1.63079 31.9376 0.994931C32.578 0.359075 33.4434 0.00154583 34.3458 0H150.2C151.108 0 151.98 0.360953 152.622 1.00345C153.265 1.64595 153.626 2.51737 153.626 3.426V166.254C153.626 167.163 153.265 168.034 152.622 168.677C151.98 169.319 151.108 169.68 150.2 169.68ZM34.3458 0.12C33.478 0.12159 32.6462 0.467439 32.0332 1.08164C31.4201 1.69583 31.0758 2.52819 31.0758 3.396V166.254C31.0758 167.122 31.4201 167.954 32.0332 168.568C32.6462 169.183 33.478 169.528 34.3458 169.53H150.2C151.068 169.528 151.9 169.183 152.515 168.569C153.129 167.955 153.474 167.122 153.476 166.254V3.396C153.474 2.52764 153.129 1.6953 152.515 1.08127C151.9 0.467244 151.068 0.121587 150.2 0.12H34.3458Z" fill="#EBEBEB"/>
<path d="M279.986 169.68H164.126C163.218 169.678 162.348 169.317 161.705 168.675C161.063 168.033 160.702 167.162 160.7 166.254V3.396C160.71 2.49307 161.075 1.63025 161.716 0.994556C162.357 0.358865 163.223 0.00152897 164.126 0H279.986C280.888 0.0031227 281.751 0.36135 282.39 0.997037C283.03 1.63272 283.392 2.49465 283.4 3.396V166.254C283.4 167.161 283.041 168.03 282.401 168.672C281.761 169.314 280.893 169.677 279.986 169.68ZM164.126 0.12C163.258 0.121587 162.425 0.467244 161.811 1.08127C161.197 1.6953 160.852 2.52764 160.85 3.396V166.254C160.852 167.122 161.197 167.955 161.811 168.569C162.425 169.183 163.258 169.528 164.126 169.53H279.986C280.855 169.528 281.687 169.183 282.301 168.569C282.915 167.955 283.261 167.122 283.262 166.254V3.396C283.261 2.52764 282.915 1.6953 282.301 1.08127C281.687 0.467244 280.855 0.121587 279.986 0.12H164.126Z" fill="#EBEBEB"/>
<path d="M168.669 196.44H189.729V118.002H168.669V196.44Z" fill="#E6E6E6"/>
<path d="M172.172 196.44H168.668V189.378H175.85L172.172 196.44Z" fill="#F0F0F0"/>
<path d="M254.383 196.44H275.443V118.002H254.383V196.44Z" fill="#E6E6E6"/>
<path d="M168.667 193.728H257.443V118.002L168.667 118.002V193.728Z" fill="#F0F0F0"/>
<path d="M171.393 142.122H254.727V121.356L171.393 121.356V142.122Z" fill="#E6E6E6"/>
<path d="M209.12 127.8H216.992C220.412 127.8 223.682 125.238 226.034 120.714H200.078C202.43 125.25 205.7 127.8 209.12 127.8Z" fill="#F0F0F0"/>
<path d="M253.94 196.44H257.444V189.378H250.262L253.94 196.44Z" fill="#F0F0F0"/>
<path d="M171.393 166.248H254.727V145.482H171.393V166.248Z" fill="#E6E6E6"/>
<path d="M209.12 151.932H216.992C220.412 151.932 223.682 149.37 226.034 144.846H200.078C202.43 149.4 205.7 151.932 209.12 151.932Z" fill="#F0F0F0"/>
<path d="M171.393 190.374H254.727V169.608H171.393V190.374Z" fill="#E6E6E6"/>
<path d="M209.12 176.058H216.992C220.412 176.058 223.682 173.496 226.034 168.972H200.078C202.43 173.496 205.7 176.058 209.12 176.058Z" fill="#F0F0F0"/>
<path d="M54.7948 100.212L135.219 100.212V18.834L54.7948 18.834L54.7948 100.212Z" fill="#E6E6E6"/>
<path d="M49.2074 100.212L133.735 100.212V18.834L49.2074 18.834L49.2074 100.212Z" fill="#F0F0F0"/>
<path d="M126.661 93.1319V25.9139L56.2991 25.9139V93.1319H126.661Z" fill="white"/>
<path d="M90.9925 34.8L78.0805 47.736C74.9603 50.864 73.208 55.1019 73.208 59.52C73.208 63.9382 74.9603 68.176 78.0805 71.304L90.9925 84.222C91.0554 84.2852 91.1303 84.3352 91.2126 84.3694C91.295 84.4036 91.3833 84.4212 91.4725 84.4212C91.5616 84.4212 91.6499 84.4036 91.7323 84.3694C91.8147 84.3352 91.8895 84.2852 91.9525 84.222L104.87 71.304C107.991 68.176 109.743 63.9382 109.743 59.52C109.743 55.1019 107.991 50.864 104.87 47.736L91.9585 34.8C91.8295 34.6736 91.6561 34.6028 91.4755 34.6028C91.2949 34.6028 91.1214 34.6736 90.9925 34.8ZM79.0405 70.32C76.1756 67.4474 74.5669 63.556 74.5669 59.499C74.5669 55.442 76.1756 51.5506 79.0405 48.678V70.32ZM103.91 70.32V48.702C106.775 51.5746 108.384 55.466 108.384 59.523C108.384 63.58 106.775 67.4714 103.91 70.344V70.32Z" fill="#F0F0F0"/>
<path d="M252.11 90H207.176L204.614 116.532H249.548L252.11 90Z" fill="#E6E6E6"/>
<path d="M249.548 116.532L249.368 118.002H204.428L204.614 116.532H249.548Z" fill="#E6E6E6"/>
<path d="M250.73 90H205.796L203.228 116.532H248.162L250.73 90Z" fill="#F0F0F0"/>
<path d="M247.256 114.804L249.134 91.8C249.139 91.7234 249.128 91.6467 249.102 91.5745C249.077 91.5022 249.036 91.436 248.984 91.3798C248.932 91.3237 248.869 91.2788 248.799 91.2478C248.728 91.2169 248.653 91.2006 248.576 91.2H207.266C207.124 91.1994 206.988 91.2522 206.883 91.3478C206.779 91.4434 206.714 91.5748 206.702 91.716L204.8 114.714C204.795 114.791 204.806 114.868 204.832 114.941C204.858 115.014 204.899 115.08 204.952 115.136C205.005 115.192 205.069 115.237 205.139 115.268C205.21 115.298 205.287 115.314 205.364 115.314H246.674C246.818 115.321 246.959 115.271 247.068 115.176C247.176 115.081 247.244 114.948 247.256 114.804Z" fill="white"/>
<path d="M236.457 116.532L236.277 118.002H186.795L186.975 116.532H236.457Z" fill="#F0F0F0"/>
<path d="M176.055 75.816L260.433 75.816V19.722L176.055 19.722V75.816Z" fill="#E6E6E6"/>
<path d="M174.182 75.816L258.56 75.816V19.722L174.182 19.722V75.816Z" fill="#F5F5F5"/>
<path d="M255.193 72.0361V23.5081L177.547 23.5081V72.0361H255.193Z" fill="white"/>
<path d="M178.958 72.0301V23.5021H177.542V72.0301H178.958Z" fill="#E6E6E6"/>
<path d="M175.574 65.5979L257.168 65.5979V60.5219L175.574 60.5219V65.5979Z" fill="#F5F5F5"/>
<path d="M170.51 13.47H264.11C264.247 13.4715 264.377 13.5264 264.473 13.6228C264.57 13.7193 264.625 13.8496 264.626 13.986C264.626 14.1228 264.572 14.2541 264.475 14.3508C264.378 14.4476 264.247 14.502 264.11 14.502H170.51C170.442 14.5028 170.374 14.49 170.311 14.4644C170.248 14.4389 170.19 14.401 170.142 14.353C170.093 14.305 170.054 14.2478 170.028 14.1848C170.002 14.1218 169.988 14.0542 169.988 13.986C169.99 13.8486 170.046 13.7173 170.143 13.6207C170.241 13.5241 170.373 13.47 170.51 13.47Z" fill="#E6E6E6"/>
<path d="M168.698 13.986C168.698 14.242 168.774 14.4924 168.916 14.7053C169.058 14.9183 169.26 15.0845 169.497 15.1827C169.733 15.281 169.994 15.307 170.245 15.2575C170.496 15.208 170.727 15.0851 170.909 14.9045C171.09 14.7238 171.214 14.4934 171.265 14.2424C171.315 13.9914 171.29 13.7311 171.193 13.4941C171.096 13.2572 170.931 13.0544 170.719 12.9113C170.506 12.7682 170.256 12.6911 170 12.69C169.83 12.6892 169.66 12.7221 169.502 12.7869C169.345 12.8517 169.201 12.947 169.08 13.0674C168.959 13.1878 168.863 13.331 168.797 13.4886C168.732 13.6462 168.698 13.8153 168.698 13.986Z" fill="#E6E6E6"/>
<path d="M259.73 16.89C259.914 16.8901 260.091 16.8178 260.222 16.6887C260.354 16.5596 260.429 16.3841 260.432 16.2V14.7C260.432 14.5139 260.358 14.3353 260.227 14.2037C260.095 14.072 259.916 13.998 259.73 13.998C259.638 13.998 259.547 14.0162 259.462 14.0516C259.378 14.0869 259.301 14.1388 259.236 14.204C259.171 14.2693 259.12 14.3467 259.085 14.4319C259.051 14.517 259.033 14.6081 259.034 14.7V16.2C259.037 16.3831 259.112 16.5577 259.242 16.6866C259.372 16.8155 259.547 16.8885 259.73 16.89Z" fill="#E6E6E6"/>
<path d="M178.322 16.89C178.501 16.8825 178.671 16.807 178.797 16.6789C178.923 16.5508 178.995 16.3796 179 16.2V14.7C179 14.5139 178.926 14.3353 178.794 14.2037C178.662 14.072 178.484 13.998 178.298 13.998C178.206 13.998 178.115 14.0162 178.03 14.0516C177.945 14.0869 177.868 14.1388 177.803 14.204C177.739 14.2693 177.687 14.3467 177.653 14.4319C177.618 14.517 177.601 14.6081 177.602 14.7V16.2C177.603 16.2928 177.623 16.3842 177.66 16.4692C177.697 16.5542 177.751 16.631 177.818 16.6951C177.885 16.7593 177.964 16.8095 178.05 16.843C178.137 16.8764 178.229 16.8924 178.322 16.89Z" fill="#E6E6E6"/>
<path opacity="0.4" d="M170.678 68.4839L257.168 68.4839V13.9859L170.678 13.9859V68.4839Z" fill="#E0E0E0"/>
<path d="M250.105 13.9859C250.105 14.2423 250.181 14.4928 250.324 14.706C250.466 14.9191 250.669 15.0852 250.906 15.1833C251.142 15.2814 251.403 15.307 251.654 15.257C251.906 15.207 252.137 15.0836 252.318 14.9023C252.499 14.7211 252.623 14.4902 252.673 14.2388C252.723 13.9874 252.697 13.7268 252.599 13.49C252.501 13.2532 252.335 13.0508 252.121 12.9084C251.908 12.7659 251.658 12.6899 251.401 12.6899C251.058 12.6899 250.728 12.8265 250.485 13.0695C250.242 13.3126 250.105 13.6422 250.105 13.9859Z" fill="#E6E6E6"/>
<path d="M127.7 192.552H134.636V132.39H127.7V192.552Z" fill="#F0F0F0"/>
<path d="M52.4597 196.362H131.972V192.552H52.4597V196.362Z" fill="#F0F0F0"/>
<path d="M127.7 132.39H49.7959V192.552H127.7V132.39Z" fill="#F5F5F5"/>
<path d="M117.974 139.794H59.522C57.1626 139.794 55.25 141.707 55.25 144.066V155.25C55.25 157.609 57.1626 159.522 59.522 159.522H117.974C120.333 159.522 122.246 157.609 122.246 155.25V144.066C122.246 141.707 120.333 139.794 117.974 139.794Z" fill="#F0F0F0"/>
<path d="M117.974 165.414H59.522C57.1626 165.414 55.25 167.327 55.25 169.686V180.87C55.25 183.229 57.1626 185.142 59.522 185.142H117.974C120.333 185.142 122.246 183.229 122.246 180.87V169.686C122.246 167.327 120.333 165.414 117.974 165.414Z" fill="#F0F0F0"/>
<path d="M74.2339 151.014H103.262C103.621 151.014 103.965 150.872 104.219 150.619C104.473 150.366 104.616 150.023 104.618 149.664C104.616 149.305 104.473 148.961 104.219 148.707C103.965 148.453 103.621 148.31 103.262 148.308H74.2339C73.8748 148.31 73.5308 148.453 73.2768 148.707C73.0229 148.961 72.8795 149.305 72.8779 149.664C72.8795 150.023 73.0231 150.366 73.2772 150.619C73.5313 150.872 73.8753 151.014 74.2339 151.014Z" fill="#F5F5F5"/>
<path d="M74.2339 176.634H103.262C103.621 176.634 103.965 176.492 104.219 176.239C104.473 175.986 104.616 175.643 104.618 175.284C104.616 174.925 104.473 174.581 104.219 174.327C103.965 174.073 103.621 173.93 103.262 173.928H74.2339C73.8748 173.93 73.5308 174.073 73.2768 174.327C73.0229 174.581 72.8795 174.925 72.8779 175.284C72.8795 175.643 73.0231 175.986 73.2772 176.239C73.5313 176.492 73.8753 176.634 74.2339 176.634Z" fill="#F5F5F5"/>
<path d="M158.001 223.536C222.25 223.536 274.335 220.495 274.335 216.744C274.335 212.993 222.25 209.952 158.001 209.952C93.7515 209.952 41.667 212.993 41.667 216.744C41.667 220.495 93.7515 223.536 158.001 223.536Z" fill="#F5F5F5"/>
<path d="M183.71 27.8699H72.8301L81.4461 178.872H192.32L183.71 27.8699Z" fill="#263238"/>
<path d="M185.863 27.8699H74.9834L83.5994 178.872H194.479L185.863 27.8699Z" fill="#7D97F4"/>
<path opacity="0.5" d="M178.226 32.946H80.0537L87.0917 169.632H187.814L178.226 32.946Z" fill="black"/>
<path d="M80.0537 32.946C87.3497 78.51 82.3457 124.074 89.6537 169.632H190.364C183.068 124.074 188.072 78.51 180.764 32.946H80.0537Z" fill="white"/>
<g opacity="0.3">
<path d="M100.645 73.9019C102.869 73.9197 105.002 74.7904 106.603 76.3344C108.204 77.8784 109.151 79.9779 109.249 82.1999C109.294 83.2688 109.121 84.3356 108.74 85.3354C108.36 86.3352 107.779 87.2471 107.035 88.0155C106.291 88.7839 105.398 89.3929 104.411 89.8052C103.424 90.2175 102.363 90.4246 101.293 90.4139C99.0828 90.3956 96.9642 89.5273 95.3768 87.9891C93.7894 86.4508 92.8549 84.3606 92.7672 82.1519C92.7209 81.0862 92.89 80.0221 93.2642 79.0232C93.6384 78.0242 94.2101 77.111 94.9452 76.3379C95.6825 75.5718 96.5682 74.9639 97.5482 74.5513C98.5281 74.1387 99.5819 73.93 100.645 73.9379M100.585 72.2039C99.2919 72.1958 98.0105 72.4516 96.8195 72.9556C95.6284 73.4596 94.5527 74.2013 93.6581 75.1352C92.7634 76.0692 92.0687 77.1758 91.6163 78.3874C91.164 79.599 90.9635 80.8902 91.0272 82.1819C91.1319 84.8486 92.2591 87.3727 94.1751 89.2305C96.091 91.0883 98.6485 92.1373 101.317 92.1599C102.616 92.1707 103.904 91.9176 105.103 91.416C106.301 90.9145 107.385 90.1748 108.29 89.242C109.194 88.3091 109.899 87.2023 110.363 85.9888C110.828 84.7753 111.04 83.4801 110.989 82.1819C110.86 79.5036 109.71 76.9766 107.775 75.1206C105.839 73.2646 103.266 72.2208 100.585 72.2039Z" fill="#7D97F4"/>
</g>
<path d="M156.331 148.752H124.531C124.294 148.748 124.058 148.795 123.839 148.889C123.621 148.983 123.425 149.123 123.265 149.299C123.105 149.475 122.984 149.683 122.911 149.91C122.837 150.136 122.813 150.375 122.839 150.612C122.897 151.118 123.137 151.585 123.513 151.929C123.889 152.272 124.377 152.467 124.885 152.478H156.685C156.924 152.482 157.16 152.436 157.378 152.341C157.596 152.246 157.792 152.105 157.951 151.928C158.111 151.751 158.23 151.542 158.301 151.315C158.373 151.088 158.395 150.848 158.365 150.612C158.309 150.108 158.072 149.642 157.698 149.3C157.324 148.958 156.838 148.763 156.331 148.752Z" fill="#E0E0E0"/>
<path d="M173.342 140.922H123.89C123.651 140.917 123.413 140.964 123.193 141.057C122.973 141.151 122.775 141.29 122.612 141.466C122.45 141.642 122.326 141.85 122.249 142.077C122.173 142.303 122.145 142.544 122.168 142.782C122.211 143.286 122.44 143.756 122.81 144.101C123.181 144.446 123.666 144.641 124.172 144.648H173.6C173.84 144.655 174.078 144.611 174.3 144.519C174.521 144.427 174.72 144.289 174.885 144.115C175.049 143.94 175.175 143.733 175.253 143.506C175.332 143.279 175.361 143.039 175.34 142.8C175.301 142.294 175.075 141.821 174.705 141.474C174.335 141.126 173.849 140.929 173.342 140.922Z" fill="#E0E0E0"/>
<g opacity="0.3">
<path d="M101.66 106.2C103.867 106.216 105.984 107.084 107.566 108.624C109.148 110.164 110.074 112.256 110.15 114.462C110.19 115.53 110.015 116.595 109.635 117.594C109.254 118.593 108.676 119.505 107.936 120.276C107.195 121.044 106.305 121.652 105.321 122.065C104.337 122.478 103.279 122.685 102.212 122.676C99.9987 122.661 97.8765 121.794 96.2855 120.256C94.6946 118.717 93.7571 116.625 93.6677 114.414C93.6313 113.344 93.8115 112.278 94.1974 111.28C94.5833 110.281 95.167 109.371 95.9135 108.604C96.6599 107.837 97.5537 107.228 98.5412 106.815C99.5286 106.402 100.589 106.193 101.66 106.2ZM101.66 104.46C100.36 104.452 99.0714 104.707 97.8722 105.209C96.673 105.711 95.5875 106.45 94.6809 107.382C93.7743 108.314 93.0653 109.419 92.5963 110.631C92.1273 111.844 91.9081 113.139 91.9517 114.438C92.0582 117.112 93.1916 119.642 95.116 121.502C97.0404 123.361 99.6077 124.407 102.284 124.422C103.58 124.427 104.864 124.17 106.058 123.665C107.252 123.161 108.331 122.42 109.231 121.487C110.131 120.554 110.833 119.448 111.294 118.237C111.755 117.025 111.966 115.733 111.914 114.438C111.824 111.773 110.706 109.245 108.795 107.385C106.884 105.525 104.327 104.477 101.66 104.46Z" fill="#7D97F4"/>
</g>
<path d="M138.679 80.094H121.669C121.17 80.0899 120.69 79.894 120.331 79.5467C119.971 79.1995 119.759 78.7274 119.737 78.228C119.729 77.9867 119.77 77.7461 119.857 77.5208C119.944 77.2954 120.075 77.0898 120.243 76.9163C120.411 76.7427 120.612 76.6047 120.834 76.5106C121.057 76.4164 121.296 76.3679 121.537 76.368H138.541C139.041 76.372 139.521 76.5667 139.882 76.9124C140.244 77.2581 140.459 77.7287 140.485 78.228C140.494 78.4704 140.454 78.7121 140.367 78.9386C140.28 79.165 140.149 79.3716 139.98 79.5459C139.811 79.7202 139.609 79.8586 139.386 79.9528C139.162 80.047 138.922 80.095 138.679 80.094Z" fill="#E0E0E0"/>
<path d="M158.312 80.094H146.792C146.291 80.09 145.811 79.8942 145.451 79.5471C145.09 79.2 144.877 78.728 144.854 78.228C144.845 77.9867 144.886 77.7461 144.973 77.5208C145.06 77.2954 145.191 77.0898 145.359 76.9163C145.527 76.7427 145.728 76.6047 145.951 76.5106C146.173 76.4164 146.412 76.3679 146.654 76.368H158.18C158.679 76.372 159.158 76.5669 159.518 76.9128C159.879 77.2586 160.093 77.7292 160.118 78.228C160.126 78.4704 160.086 78.7121 159.999 78.9386C159.913 79.165 159.781 79.3716 159.612 79.5459C159.443 79.7202 159.241 79.8586 159.018 79.9528C158.794 80.047 158.554 80.095 158.312 80.094Z" fill="#E0E0E0"/>
<path d="M167.601 87.924H121.941C121.441 87.9212 120.962 87.7256 120.603 87.3779C120.244 87.0302 120.033 86.5573 120.015 86.058C120.007 85.8166 120.047 85.5761 120.134 85.3507C120.221 85.1254 120.352 84.9198 120.52 84.7462C120.688 84.5727 120.889 84.4347 121.112 84.3405C121.334 84.2463 121.573 84.1979 121.815 84.198H167.469C167.967 84.2007 168.445 84.3958 168.802 84.7423C169.16 85.0889 169.37 85.5602 169.389 86.058C169.398 86.2989 169.358 86.5391 169.272 86.7643C169.186 86.9896 169.056 87.1953 168.89 87.3694C168.723 87.5434 168.523 87.6822 168.301 87.7774C168.08 87.8727 167.842 87.9225 167.601 87.924Z" fill="#E0E0E0"/>
<g opacity="0.3">
<path d="M102.963 138.456C105.201 138.5 107.344 139.368 108.983 140.893C110.621 142.419 111.639 144.495 111.843 146.724C111.95 147.768 111.84 148.824 111.519 149.824C111.198 150.823 110.673 151.746 109.977 152.532C109.275 153.305 108.416 153.919 107.458 154.333C106.5 154.746 105.464 154.951 104.421 154.932C102.163 154.895 99.9966 154.036 98.3282 152.514C96.6599 150.993 95.6046 148.915 95.3607 146.67C95.2578 145.618 95.3789 144.556 95.716 143.553C96.0532 142.551 96.5987 141.632 97.3167 140.856C98.0392 140.085 98.9145 139.474 99.8866 139.061C100.859 138.647 101.906 138.441 102.963 138.456ZM102.879 136.722C101.594 136.697 100.318 136.943 99.1351 137.446C97.9521 137.948 96.8887 138.695 96.0146 139.637C95.1404 140.579 94.4753 141.696 94.0627 142.913C93.6502 144.13 93.4995 145.42 93.6207 146.7C94.0827 152.208 99.0807 156.678 104.589 156.678C110.097 156.678 114.045 152.208 113.589 146.7C113.351 144.009 112.126 141.501 110.15 139.659C108.173 137.817 105.586 136.771 102.885 136.722H102.879Z" fill="#7D97F4"/>
</g>
<path d="M175.4 116.478H122.714C122.473 116.478 122.233 116.526 122.011 116.621C121.789 116.715 121.588 116.853 121.42 117.026C121.252 117.2 121.12 117.405 121.033 117.631C120.947 117.856 120.906 118.097 120.914 118.338C120.936 118.836 121.147 119.306 121.506 119.652C121.864 119.999 122.342 120.194 122.84 120.198H175.55C175.792 120.198 176.031 120.15 176.253 120.055C176.475 119.961 176.677 119.823 176.845 119.65C177.013 119.476 177.144 119.271 177.231 119.045C177.318 118.82 177.358 118.579 177.35 118.338C177.331 117.835 177.117 117.359 176.753 117.012C176.389 116.665 175.903 116.473 175.4 116.478Z" fill="#E0E0E0"/>
<path d="M162.914 108.642H122.486C122.244 108.642 122.004 108.69 121.781 108.785C121.559 108.88 121.357 109.018 121.189 109.192C121.021 109.366 120.89 109.573 120.803 109.799C120.717 110.025 120.677 110.266 120.686 110.508C120.703 111.005 120.912 111.477 121.268 111.823C121.625 112.17 122.102 112.365 122.6 112.368H163.034C163.275 112.368 163.514 112.32 163.737 112.225C163.959 112.131 164.16 111.993 164.328 111.82C164.496 111.646 164.628 111.441 164.714 111.215C164.801 110.99 164.842 110.749 164.834 110.508C164.82 110.008 164.611 109.534 164.253 109.185C163.894 108.837 163.414 108.642 162.914 108.642Z" fill="#E0E0E0"/>
<path d="M101.558 88.032L100.85 86.868C99.2956 84.33 96.0496 82.068 94.9336 81.402L95.7736 79.914C97.9775 81.2481 99.9409 82.9438 101.582 84.93C104.132 81.504 107.858 77.982 112.904 74.178L113.99 75.582C108.59 79.644 104.762 83.382 102.308 86.94C102.062 87.306 101.81 87.672 101.558 88.032Z" fill="#7D97F4"/>
<path d="M102.458 120.312C102.224 119.922 101.984 119.532 101.744 119.148C100.184 116.61 96.9438 114.348 95.8398 113.676L96.6919 112.188C98.8844 113.526 100.837 115.221 102.47 117.204C105.026 113.784 108.782 110.256 113.906 106.452L114.968 107.856C109.496 111.918 105.644 115.656 103.202 119.214L102.458 120.312Z" fill="#7D97F4"/>
<path d="M104.515 152.664L103.723 151.5C101.995 148.962 98.6471 146.7 97.4951 146.034L98.2751 144.546C100.542 145.89 102.585 147.58 104.329 149.556C106.681 146.136 110.257 142.608 115.225 138.81L116.347 140.214C111.043 144.276 107.401 148.014 105.187 151.572L104.515 152.664Z" fill="#7D97F4"/>
<path d="M142.46 44.3999C141.404 46.7039 140.322 49.0059 139.214 51.3059C141.498 52.442 143.451 54.1474 144.884 56.2577C146.318 58.3679 147.183 60.8119 147.398 63.3539H155.372C154.844 55.1999 149.6 48.1019 142.46 44.3999Z" fill="#7D97F4"/>
<path d="M112.082 63.366H120.056C119.86 61.1105 120.271 58.8438 121.246 56.8004C122.22 54.7571 123.724 53.0114 125.6 51.744C124.048 49.44 122.472 47.136 120.872 44.832C115.052 48.6 111.572 55.506 112.082 63.366Z" fill="#263238"/>
<path d="M131.671 41.7239C127.845 41.686 124.092 42.7662 120.871 44.8319C122.471 47.1359 124.047 49.4399 125.599 51.7439C127.678 50.3854 130.112 49.6715 132.595 49.6919C134.893 49.7052 137.154 50.2624 139.195 51.3179C140.299 49.0139 141.381 46.7119 142.441 44.4119C139.117 42.6694 135.424 41.7477 131.671 41.7239Z" fill="#7D97F4"/>
<path opacity="0.5" d="M131.671 41.7239C127.845 41.686 124.092 42.7662 120.871 44.8319C122.471 47.1359 124.047 49.4399 125.599 51.7439C127.678 50.3854 130.112 49.6715 132.595 49.6919C134.893 49.7052 137.154 50.2624 139.195 51.3179C140.299 49.0139 141.381 46.7119 142.441 44.4119C139.117 42.6694 135.424 41.7477 131.671 41.7239Z" fill="#263238"/>
<path d="M141.416 57.9059C141.416 57.9059 133.364 61.1999 132.512 61.7999C132.308 61.954 132.137 62.1472 132.01 62.3682C131.882 62.5893 131.8 62.8336 131.768 63.0868C131.736 63.3401 131.755 63.5972 131.824 63.8429C131.893 64.0887 132.011 64.3182 132.17 64.5179C132.47 64.9447 132.925 65.2379 133.438 65.3353C133.951 65.4327 134.481 65.3268 134.918 65.0399C135.8 64.4039 141.428 57.9059 141.416 57.9059ZM132.955 63.9059C132.877 63.8076 132.819 63.6947 132.785 63.5737C132.751 63.4527 132.742 63.3262 132.758 63.2015C132.773 63.0768 132.814 62.9565 132.876 62.8477C132.939 62.7389 133.023 62.6438 133.123 62.5679C133.34 62.4289 133.601 62.3781 133.853 62.4262C134.105 62.4742 134.33 62.6173 134.48 62.8259C134.558 62.9242 134.616 63.0371 134.65 63.1581C134.684 63.2791 134.693 63.4056 134.677 63.5303C134.662 63.655 134.621 63.7753 134.559 63.8841C134.496 63.9929 134.412 64.088 134.312 64.1639C134.098 64.3054 133.839 64.36 133.587 64.3165C133.335 64.273 133.109 64.1346 132.955 63.9299V63.9059Z" fill="#263238"/>
<path d="M150.962 54.096C151.001 54.4571 150.963 54.8225 150.85 55.1677C150.737 55.513 150.551 55.8302 150.306 56.0982C150.061 56.3662 149.761 56.5788 149.427 56.7219C149.093 56.865 148.733 56.9352 148.37 56.928C147.6 56.9128 146.863 56.6164 146.297 56.0946C145.731 55.5728 145.375 54.8618 145.298 54.096C145.257 53.7368 145.293 53.3729 145.404 53.0288C145.515 52.6847 145.698 52.3683 145.941 52.1007C146.184 51.8331 146.482 51.6206 146.814 51.4773C147.145 51.334 147.504 51.2633 147.866 51.27C148.637 51.283 149.378 51.5773 149.948 52.0977C150.518 52.618 150.878 53.3286 150.962 54.096Z" fill="white"/>
<path d="M147.452 53.448C147.458 53.505 147.451 53.5626 147.434 53.6171C147.416 53.6715 147.387 53.7216 147.348 53.7641C147.31 53.8065 147.263 53.8404 147.21 53.8635C147.158 53.8866 147.101 53.8983 147.044 53.898C146.921 53.8971 146.802 53.8506 146.711 53.7675C146.62 53.6844 146.564 53.5706 146.552 53.448C146.545 53.3908 146.55 53.3328 146.568 53.278C146.585 53.2231 146.614 53.1726 146.653 53.1299C146.692 53.0872 146.739 53.0534 146.792 53.0306C146.845 53.0079 146.902 52.9967 146.96 52.998C147.083 52.9989 147.201 53.0454 147.292 53.1285C147.383 53.2116 147.44 53.3255 147.452 53.448Z" fill="#263238"/>
<path d="M149.599 53.448C149.605 53.5055 149.599 53.5636 149.581 53.6185C149.563 53.6733 149.533 53.7237 149.494 53.7663C149.455 53.8088 149.407 53.8426 149.354 53.8653C149.301 53.888 149.243 53.8991 149.185 53.898C149.063 53.8945 148.946 53.8471 148.856 53.7645C148.765 53.6819 148.708 53.5695 148.693 53.448C148.686 53.3903 148.692 53.3317 148.71 53.2764C148.728 53.2211 148.757 53.1703 148.797 53.1275C148.836 53.0847 148.884 53.051 148.938 53.0286C148.991 53.0063 149.049 52.9958 149.107 52.998C149.23 52.9989 149.349 53.0454 149.44 53.1285C149.531 53.2116 149.587 53.3254 149.599 53.448Z" fill="#263238"/>
<path d="M148.262 55.8C147.668 55.7953 147.097 55.5709 146.66 55.17C146.619 55.1284 146.596 55.0724 146.596 55.014C146.596 54.9556 146.619 54.8995 146.66 54.858C146.68 54.8369 146.704 54.8202 146.731 54.8087C146.758 54.7973 146.787 54.7914 146.816 54.7914C146.845 54.7914 146.874 54.7973 146.901 54.8087C146.927 54.8202 146.952 54.8369 146.972 54.858C147.327 55.1853 147.791 55.3691 148.274 55.374C148.498 55.379 148.721 55.3367 148.927 55.2499C149.134 55.163 149.32 55.0336 149.474 54.87C149.514 54.827 149.57 54.8019 149.629 54.8002C149.659 54.7994 149.688 54.8043 149.715 54.8148C149.742 54.8252 149.767 54.8409 149.789 54.861C149.81 54.8811 149.827 54.9052 149.839 54.9319C149.851 54.9586 149.858 54.9874 149.858 55.0166C149.859 55.0459 149.854 55.075 149.844 55.1023C149.834 55.1297 149.818 55.1547 149.798 55.176C149.6 55.3823 149.361 55.5446 149.096 55.6521C148.832 55.7597 148.547 55.81 148.262 55.8Z" fill="#263238"/>
<path d="M134.972 45.66C135.021 46.017 134.993 46.3805 134.888 46.7255C134.784 47.0704 134.605 47.3885 134.366 47.6578C134.126 47.9271 133.831 48.1411 133.5 48.2851C133.17 48.4292 132.812 48.4997 132.452 48.492C131.676 48.4739 130.932 48.1782 130.355 47.6587C129.778 47.1391 129.407 46.43 129.308 45.66C129.254 45.3046 129.279 44.9417 129.381 44.597C129.483 44.2523 129.659 43.934 129.896 43.6646C130.134 43.3952 130.428 43.1813 130.758 43.0378C131.088 42.8942 131.444 42.8247 131.804 42.8339C132.581 42.8522 133.327 43.1466 133.907 43.6644C134.488 44.1821 134.865 44.8895 134.972 45.66Z" fill="white"/>
<path d="M131.444 45C131.451 45.0563 131.447 45.1137 131.431 45.1681C131.414 45.2226 131.386 45.2729 131.349 45.3156C131.311 45.3583 131.265 45.3924 131.213 45.4156C131.161 45.4388 131.105 45.4505 131.048 45.45C130.924 45.4469 130.805 45.3999 130.713 45.3175C130.621 45.2351 130.561 45.1225 130.544 45C130.535 44.9434 130.539 44.8857 130.555 44.8308C130.571 44.7758 130.598 44.7251 130.636 44.6822C130.674 44.6392 130.721 44.6051 130.773 44.5823C130.826 44.5594 130.883 44.5484 130.94 44.55C131.064 44.5518 131.183 44.5983 131.276 44.681C131.368 44.7636 131.428 44.8769 131.444 45Z" fill="#263238"/>
<path d="M133.586 44.9999C133.594 45.0568 133.59 45.1147 133.573 45.1696C133.556 45.2245 133.528 45.2751 133.49 45.3179C133.451 45.3607 133.404 45.3946 133.352 45.4175C133.299 45.4403 133.242 45.4513 133.184 45.4499C133.061 45.4457 132.943 45.3983 132.851 45.3161C132.759 45.2339 132.699 45.122 132.68 44.9999C132.673 44.9431 132.677 44.8852 132.694 44.8303C132.711 44.7754 132.739 44.7248 132.777 44.682C132.816 44.6392 132.863 44.6052 132.915 44.5824C132.968 44.5596 133.025 44.5485 133.082 44.5499C133.206 44.553 133.325 44.6 133.417 44.6824C133.509 44.7648 133.569 44.8773 133.586 44.9999Z" fill="#263238"/>
<path d="M133.646 46.8H130.838C130.784 46.7912 130.736 46.7638 130.701 46.7226C130.666 46.6814 130.646 46.6291 130.646 46.575C130.646 46.5209 130.666 46.4686 130.701 46.4274C130.736 46.3861 130.784 46.3587 130.838 46.35H133.646C133.699 46.3587 133.748 46.3861 133.783 46.4274C133.818 46.4686 133.837 46.5209 133.837 46.575C133.837 46.6291 133.818 46.6814 133.783 46.7226C133.748 46.7638 133.699 46.7912 133.646 46.8Z" fill="#263238"/>
<path d="M120.722 54.096C120.762 54.4571 120.724 54.8225 120.611 55.1677C120.498 55.513 120.312 55.8302 120.067 56.0982C119.822 56.3662 119.522 56.5788 119.188 56.7219C118.854 56.865 118.494 56.9352 118.13 56.928C117.361 56.9128 116.623 56.6164 116.057 56.0946C115.491 55.5728 115.136 54.8618 115.058 54.096C115.017 53.7368 115.053 53.3729 115.164 53.0288C115.275 52.6847 115.459 52.3683 115.702 52.1007C115.945 51.8331 116.242 51.6206 116.574 51.4773C116.906 51.334 117.265 51.2633 117.626 51.27C118.398 51.2843 119.138 51.579 119.707 52.0992C120.277 52.6193 120.638 53.3291 120.722 54.096Z" fill="white"/>
<path d="M117.2 53.448C117.206 53.505 117.199 53.5626 117.182 53.6171C117.164 53.6715 117.135 53.7216 117.096 53.7641C117.058 53.8065 117.011 53.8404 116.958 53.8635C116.906 53.8866 116.849 53.8983 116.792 53.898C116.669 53.8971 116.55 53.8506 116.459 53.7675C116.368 53.6844 116.312 53.5706 116.3 53.448C116.293 53.3908 116.298 53.3328 116.316 53.278C116.333 53.2231 116.362 53.1726 116.401 53.1299C116.44 53.0872 116.487 53.0534 116.54 53.0306C116.593 53.0079 116.65 52.9967 116.708 52.998C116.831 52.9989 116.949 53.0454 117.04 53.1285C117.131 53.2116 117.188 53.3255 117.2 53.448Z" fill="#263238"/>
<path d="M119.348 53.448C119.355 53.5052 119.35 53.5632 119.332 53.6181C119.315 53.673 119.286 53.7235 119.247 53.7661C119.208 53.8088 119.161 53.8427 119.108 53.8654C119.055 53.8882 118.998 53.8993 118.94 53.898C118.818 53.8945 118.701 53.8472 118.61 53.7646C118.52 53.6819 118.463 53.5696 118.448 53.448C118.441 53.3908 118.447 53.3328 118.464 53.278C118.482 53.2231 118.511 53.1726 118.549 53.1299C118.588 53.0872 118.636 53.0534 118.689 53.0306C118.741 53.0079 118.799 52.9967 118.856 52.998C118.98 52.9976 119.099 53.0436 119.19 53.127C119.281 53.2103 119.338 53.3249 119.348 53.448Z" fill="#263238"/>
<path d="M116.6 55.8C116.572 55.8004 116.545 55.7953 116.519 55.785C116.493 55.7747 116.47 55.7594 116.45 55.74C116.409 55.6984 116.386 55.6424 116.386 55.584C116.386 55.5256 116.409 55.4695 116.45 55.428C116.644 55.2211 116.88 55.0567 117.141 54.9451C117.402 54.8336 117.684 54.7774 117.968 54.78C118.562 54.7863 119.133 55.0129 119.57 55.416C119.591 55.4362 119.608 55.4604 119.619 55.4872C119.63 55.514 119.636 55.5428 119.636 55.572C119.636 55.6011 119.63 55.63 119.619 55.6568C119.608 55.6836 119.591 55.7078 119.57 55.728C119.527 55.7681 119.47 55.7903 119.411 55.7903C119.352 55.7903 119.295 55.7681 119.252 55.728C118.897 55.3968 118.429 55.2124 117.944 55.212C117.72 55.207 117.498 55.2486 117.291 55.3344C117.085 55.4202 116.898 55.5481 116.744 55.71C116.709 55.757 116.657 55.7891 116.6 55.8Z" fill="#263238"/>
<path d="M162.044 33.3359C160.172 29.3939 155.804 26.7839 151.094 26.7839H141.494C140.835 26.813 140.18 26.6674 139.595 26.3619C139.01 26.0563 138.517 25.6017 138.164 25.0439C136.826 22.5359 133.634 20.7479 130.01 20.7479C126.386 20.7479 123.41 22.5479 122.354 25.0439C121.916 26.0999 120.662 26.7839 119.222 26.7839H109.622C104.912 26.7839 100.838 29.3939 99.4222 33.3359C99.3697 33.4735 99.3492 33.6212 99.3622 33.7679C99.3776 34.0757 99.5108 34.3657 99.7342 34.5779C99.9576 34.7901 100.254 34.9083 100.562 34.9079H161.09C161.275 34.9083 161.457 34.861 161.618 34.7705C161.78 34.6799 161.915 34.5493 162.011 34.3911C162.107 34.233 162.16 34.0528 162.166 33.8679C162.172 33.683 162.13 33.4998 162.044 33.3359ZM130.4 27.8699C129.684 27.8551 128.999 27.5729 128.481 27.0788C127.962 26.5847 127.647 25.9145 127.598 25.1999C127.574 24.8558 127.622 24.5104 127.738 24.1855C127.854 23.8607 128.036 23.5634 128.273 23.3125C128.51 23.0616 128.796 22.8626 129.114 22.7279C129.431 22.5932 129.773 22.5258 130.118 22.5299C130.839 22.5374 131.53 22.8165 132.054 23.3114C132.578 23.8064 132.896 24.4808 132.944 25.1999C132.968 25.5461 132.92 25.8936 132.803 26.2201C132.685 26.5466 132.501 26.845 132.261 27.0963C132.022 27.3476 131.733 27.5461 131.412 27.6793C131.092 27.8125 130.747 27.8774 130.4 27.8699Z" fill="#263238"/>
<path d="M224.252 212.466C223.782 212.524 223.308 212.406 222.92 212.136C222.869 212.073 222.837 211.995 222.83 211.914C222.822 211.833 222.839 211.752 222.878 211.68C222.906 211.618 222.949 211.564 223.002 211.521C223.055 211.479 223.117 211.449 223.184 211.434C223.892 211.236 225.53 212.112 225.584 212.154C225.604 212.163 225.621 212.178 225.632 212.198C225.643 212.217 225.647 212.24 225.644 212.262C225.643 212.282 225.635 212.301 225.622 212.316C225.609 212.332 225.591 212.342 225.572 212.346C225.136 212.424 224.694 212.464 224.252 212.466ZM223.46 211.614C223.394 211.604 223.327 211.604 223.262 211.614C223.221 211.622 223.182 211.639 223.149 211.663C223.115 211.688 223.088 211.721 223.07 211.758C223.01 211.89 223.07 211.956 223.07 211.992C223.31 212.274 224.426 212.28 225.23 212.166C224.678 211.877 224.078 211.69 223.46 211.614Z" fill="#7D97F4"/>
<path d="M225.571 212.346H225.529C224.971 212.106 223.807 211.146 223.831 210.654C223.831 210.534 223.903 210.39 224.191 210.36C224.407 210.342 224.622 210.406 224.791 210.54C225.24 211.01 225.544 211.6 225.667 212.238C225.675 212.253 225.679 212.269 225.679 212.286C225.679 212.303 225.675 212.319 225.667 212.334C225.654 212.344 225.638 212.35 225.621 212.352C225.604 212.354 225.587 212.352 225.571 212.346ZM224.293 210.546H224.233C224.047 210.546 224.041 210.636 224.041 210.66C224.041 210.96 224.827 211.71 225.409 212.034C225.296 211.522 225.04 211.052 224.671 210.678C224.563 210.596 224.429 210.554 224.293 210.558V210.546Z" fill="#7D97F4"/>
<path d="M230.407 212.244H225.997L224.419 202.032H228.829L230.407 212.244Z" fill="#FFC3BD"/>
<path d="M225.968 211.734H230.768C230.858 211.736 230.946 211.767 231.019 211.82C231.092 211.874 231.147 211.948 231.176 212.034L232.484 215.952C232.512 216.04 232.519 216.133 232.505 216.224C232.491 216.315 232.456 216.401 232.403 216.477C232.35 216.552 232.281 216.614 232.2 216.659C232.12 216.703 232.03 216.728 231.938 216.732C230.198 216.732 227.678 216.606 225.494 216.606C222.944 216.606 223.172 216.744 220.178 216.744C218.378 216.744 217.664 214.914 218.378 214.746C221.744 213.996 222.134 213.912 224.906 212.076C225.216 211.856 225.587 211.736 225.968 211.734Z" fill="#263238"/>
<path opacity="0.2" d="M224.419 202.038L225.235 207.3H229.645L228.829 202.038H224.419Z" fill="black"/>
<path d="M229.903 102.27L226.903 105.3L231.499 106.926C231.499 106.926 233.299 104.454 232.033 102.762L229.903 102.27Z" fill="#FFC3BD"/>
<path d="M225.896 109.536L230.486 110.208L231.511 106.926L226.915 105.3L225.896 109.536Z" fill="#FFC3BD"/>
<path d="M231.907 64.962C232.297 65.802 232.609 66.516 232.921 67.296C233.233 68.076 233.521 68.826 233.821 69.594C234.391 71.136 234.901 72.708 235.375 74.298C235.857 75.9067 236.258 77.5388 236.575 79.188L236.803 80.448L236.989 81.732C237.055 82.158 237.097 82.602 237.133 83.04C237.169 83.478 237.229 83.874 237.229 84.426V85.206V85.896L237.193 86.574L237.127 87.216C237.049 88.08 236.935 88.89 236.827 89.712C236.587 91.332 236.311 92.916 236.005 94.512C235.369 97.65 234.673 100.716 233.833 103.806L228.367 102.726C228.715 99.678 229.075 96.582 229.363 93.534C229.501 92.01 229.651 90.492 229.735 89.004C229.771 88.272 229.813 87.528 229.813 86.826V86.298V85.812V85.326L229.771 84.93C229.744 84.6139 229.7 84.2995 229.639 83.988C229.585 83.652 229.537 83.316 229.459 82.974L229.237 81.948L228.979 80.916C228.607 79.536 228.187 78.15 227.707 76.764C227.227 75.378 226.693 73.998 226.129 72.63C225.853 71.94 225.565 71.256 225.265 70.584C224.965 69.912 224.665 69.21 224.371 68.628L231.907 64.962Z" fill="#263238"/>
<path d="M211.189 100.122C211.189 100.122 211.921 133.866 213.901 147.306C215.965 161.286 223.501 206.28 223.501 206.28H230.965C230.965 206.28 228.289 163.458 227.437 149.7C226.507 134.7 226.711 100.122 226.711 100.122H211.189Z" fill="#7D97F4"/>
<path d="M221.707 203.304C221.671 203.304 222.475 206.406 222.475 206.406H231.559L231.493 203.64L221.707 203.304Z" fill="#263238"/>
<path d="M209.508 45.4196C209.531 45.0458 209.351 44.7306 209.106 44.7156C208.862 44.7005 208.645 44.9913 208.622 45.365C208.599 45.7388 208.778 46.054 209.023 46.069C209.268 46.0841 209.485 45.7933 209.508 45.4196Z" fill="#263238"/>
<path d="M209.324 46.0681C208.837 47.212 208.199 48.2856 207.428 49.2601C207.68 49.4432 207.969 49.5682 208.275 49.6263C208.581 49.6844 208.896 49.6741 209.198 49.5961L209.324 46.0681Z" fill="#ED847E"/>
<path d="M210.907 43.32C210.861 43.3201 210.815 43.3077 210.775 43.284C210.561 43.1151 210.308 43.0007 210.04 42.9505C209.771 42.9004 209.495 42.916 209.233 42.996C209.207 43.0066 209.178 43.0117 209.149 43.0111C209.121 43.0104 209.092 43.0041 209.066 42.9923C209.04 42.9806 209.016 42.9637 208.996 42.9427C208.977 42.9217 208.961 42.897 208.951 42.87C208.942 42.8424 208.938 42.8133 208.94 42.7842C208.942 42.7551 208.949 42.7266 208.962 42.7004C208.975 42.6742 208.993 42.6508 209.015 42.6315C209.036 42.6123 209.062 42.5975 209.089 42.588C209.418 42.481 209.768 42.4557 210.109 42.5143C210.45 42.5728 210.771 42.7134 211.045 42.924C211.091 42.9596 211.121 43.0114 211.128 43.0685C211.136 43.1256 211.122 43.1835 211.087 43.23C211.066 43.2578 211.039 43.2803 211.008 43.2959C210.977 43.3115 210.942 43.3198 210.907 43.32Z" fill="#263238"/>
<path d="M221.179 49.5121C220.435 52.7401 219.595 58.6501 221.779 60.7981C221.779 60.7981 220.783 64.0681 214.789 64.0681C208.189 64.0681 211.759 60.7981 211.759 60.7981C215.359 59.9401 215.389 57.2761 214.849 54.7681L221.179 49.5121Z" fill="#FFC3BD"/>
<path d="M224.102 62.3099C224.75 60.9959 225.464 59.4839 224.102 59.0159C222.614 58.4939 214.388 57.9659 211.502 58.9379C210.731 59.1345 210.07 59.6292 209.664 60.3134C209.257 60.9975 209.14 61.815 209.336 62.5859L224.102 62.3099Z" fill="#7D97F4"/>
<path d="M230.413 62.064C234.211 63.816 236.143 77.0999 236.143 77.0999L228.493 79.5C227.126 75.9852 226.018 72.3757 225.175 68.6999C223.999 63.1559 226.525 60.276 230.413 62.064Z" fill="#263238"/>
<path d="M183.397 82.734L179.869 79.698L176.695 84.318C176.695 84.318 179.545 86.604 182.695 85.668L183.397 82.734Z" fill="#FFC3BD"/>
<path d="M175.219 78.228L174.733 82.794L176.695 84.318L179.869 79.698L175.219 78.228Z" fill="#FFC3BD"/>
<path d="M221.989 44.5981C221.545 49.1821 221.515 51.8821 219.115 54.2341C218.342 54.9998 217.376 55.5409 216.319 55.7994C215.262 56.058 214.155 56.0243 213.115 55.7019C212.076 55.3795 211.144 54.7806 210.419 53.9693C209.694 53.158 209.203 52.1649 208.999 51.0961C208.159 46.9801 208.999 40.1761 213.577 38.3521C214.552 37.9319 215.62 37.7752 216.674 37.8978C217.728 38.0205 218.732 38.418 219.584 39.0507C220.436 39.6833 221.106 40.5289 221.529 41.5025C221.951 42.4761 222.11 43.5437 221.989 44.5981Z" fill="#FFC3BD"/>
<path d="M212.6 46.068C212.198 42.9 212.264 41.7 213.956 40.998C212.198 40.65 210.674 40.602 209.948 39.576C209.222 38.55 209.048 35.928 212.576 34.728C212.252 35.328 213.278 36.576 216.524 35.448C219.77 34.32 224.498 34.2 224.924 37.5C226.64 36.9 229.514 42.198 226.124 46.068C223.298 49.308 221.414 51.546 220.856 53.268C220.83 53.3487 220.787 53.4229 220.73 53.4858C220.673 53.5486 220.603 53.5987 220.526 53.6327C220.448 53.6668 220.364 53.6839 220.279 53.6831C220.194 53.6823 220.111 53.6635 220.034 53.628C218.864 53.082 216.77 53.55 215.834 53.802C215.702 53.8362 215.562 53.8245 215.438 53.7689C215.314 53.7133 215.212 53.6171 215.15 53.496C214.544 52.248 212.906 48.684 212.6 46.068Z" fill="#263238"/>
<path d="M224.287 37.9021C224.287 37.9021 225.679 35.9401 228.349 37.3981C226.976 37.3341 225.603 37.5046 224.287 37.9021Z" fill="#263238"/>
<path d="M224.516 38.3221C224.516 38.3221 226.454 37.1221 224.942 34.8601C225.034 36.031 224.889 37.2086 224.516 38.3221Z" fill="#263238"/>
<path d="M214.844 46.2C214.633 47.3344 214.071 48.3736 213.236 49.17C212.126 50.22 211.166 49.4761 211.136 48.1261C211.106 46.9261 211.646 44.898 212.936 44.358C214.226 43.818 215.072 44.844 214.844 46.2Z" fill="#FFC3BD"/>
<path opacity="0.3" d="M211.808 118.872C212.24 128.94 212.918 140.628 213.902 147.306C214.28 149.85 214.832 153.414 215.492 157.548C218.144 143.076 219.728 124.428 211.808 118.872Z" fill="black"/>
<path d="M208.501 212.466C207.937 212.466 207.391 212.388 207.217 212.136C207.172 212.069 207.147 211.989 207.147 211.908C207.147 211.827 207.172 211.747 207.217 211.68C207.298 211.559 207.419 211.472 207.559 211.434C208.297 211.236 209.809 212.112 209.875 212.154C209.894 212.164 209.908 212.181 209.916 212.2C209.923 212.22 209.924 212.242 209.917 212.262C209.913 212.283 209.903 212.302 209.888 212.317C209.873 212.332 209.854 212.342 209.833 212.346C209.393 212.423 208.948 212.463 208.501 212.466ZM207.835 211.614C207.767 211.604 207.699 211.604 207.631 211.614C207.588 211.622 207.547 211.639 207.511 211.664C207.475 211.689 207.444 211.721 207.421 211.758C207.343 211.89 207.367 211.956 207.391 211.992C207.589 212.274 208.699 212.28 209.527 212.166C209.005 211.873 208.43 211.685 207.835 211.614Z" fill="#7D97F4"/>
<path d="M209.839 212.346H209.797C209.275 212.106 208.249 211.146 208.351 210.654C208.351 210.534 208.459 210.39 208.747 210.36C208.854 210.346 208.963 210.356 209.066 210.387C209.169 210.418 209.265 210.47 209.347 210.54C209.893 211.002 209.947 212.19 209.947 212.238C209.946 212.256 209.942 212.275 209.934 212.291C209.925 212.308 209.913 212.322 209.899 212.334C209.88 212.343 209.86 212.347 209.839 212.346ZM208.825 210.546H208.765C208.573 210.546 208.561 210.636 208.555 210.66C208.495 210.96 209.185 211.71 209.719 212.034C209.686 211.538 209.499 211.064 209.185 210.678C209.083 210.597 208.955 210.554 208.825 210.558V210.546Z" fill="#7D97F4"/>
<path d="M214.688 212.244H210.284L210.2 202.032H214.61L214.688 212.244Z" fill="#FFC3BD"/>
<path d="M210.325 211.734H215.125C215.21 211.733 215.294 211.762 215.36 211.817C215.426 211.872 215.47 211.949 215.485 212.034L216.223 215.952C216.239 216.049 216.235 216.148 216.209 216.242C216.183 216.336 216.136 216.424 216.073 216.499C216.009 216.573 215.93 216.633 215.841 216.673C215.752 216.713 215.654 216.733 215.557 216.732C213.823 216.732 211.315 216.606 209.137 216.606C206.581 216.606 204.373 216.744 201.379 216.744C199.579 216.744 199.135 214.914 199.897 214.746C203.371 213.996 206.191 213.912 209.233 212.076C209.559 211.865 209.936 211.747 210.325 211.734Z" fill="#263238"/>
<path opacity="0.2" d="M210.206 202.038L210.242 207.3H214.652L214.616 202.038H210.206Z" fill="black"/>
<path d="M203.323 100.122C203.323 100.122 201.523 133.08 201.559 146.52C201.559 160.5 208.639 206.28 208.639 206.28H216.103C216.103 206.28 214.159 161.316 214.999 147.6C215.893 132.6 220.225 100.134 220.225 100.134L203.323 100.122Z" fill="#7D97F4"/>
<path d="M207.307 203.304C207.271 203.304 207.613 206.406 207.613 206.406H216.697L217.045 203.64L207.307 203.304Z" fill="#263238"/>
<path d="M204.931 62.022C204.931 62.022 197.419 81 200.689 113.802H228.121C228.409 110.202 225.541 78.846 229.633 61.794C227.037 61.2915 224.412 60.9588 221.773 60.798C218.436 60.6059 215.09 60.6059 211.753 60.798C209.451 61.0297 207.17 61.4389 204.931 62.022Z" fill="#263238"/>
<path opacity="0.2" d="M201.05 79.2C200.642 82.2 200.306 85.626 200.09 89.4C205.418 84.504 207.242 72.306 207.242 72.306L201.05 79.2Z" fill="black"/>
<path d="M207.757 71.058C206.677 73.866 205.585 76.572 204.385 79.29C203.185 82.008 201.943 84.69 200.545 87.378L199.999 88.38L199.723 88.884C199.609 89.088 199.621 89.1 199.309 89.622C198.771 90.468 198.025 91.1621 197.143 91.638C196.413 92.0216 195.617 92.262 194.797 92.346C193.67 92.4493 192.533 92.3579 191.437 92.076C190.57 91.8615 189.72 91.5847 188.893 91.248C187.408 90.6334 185.971 89.9115 184.591 89.088C183.913 88.698 183.265 88.278 182.623 87.888C181.981 87.498 181.399 87 180.709 86.52L183.949 81.552C186.274 82.8332 188.715 83.8919 191.239 84.714C191.775 84.8796 192.322 85.004 192.877 85.086C193.193 85.1534 193.521 85.1534 193.837 85.086C193.873 85.086 193.759 85.05 193.561 85.152C193.32 85.275 193.114 85.4565 192.961 85.68C192.835 85.89 192.997 85.578 193.051 85.458L193.267 84.984L193.699 84.042C194.839 81.498 195.895 78.864 196.921 76.242C197.947 73.62 198.943 70.884 199.861 68.238L207.757 71.058Z" fill="#263238"/>
<path d="M210.739 64.014C212.143 67.938 202.207 83.736 202.207 83.736L196.315 77.898C196.315 77.898 197.821 72.936 199.807 66.96C201.763 61.086 209.401 60.264 210.739 64.014Z" fill="#263238"/>
<path d="M1.9675 249.68V241.04L17.0075 213.2H27.5675L12.5275 240.72H25.0075V230.48H25.6475H34.6075V240.72H40.6875V249.68H34.6075V258H25.0075V249.68H1.9675Z" fill="url(#paint0_linear_265_460)"/>
<defs>
<linearGradient id="paint0_linear_265_460" x1="20.5" y1="206" x2="20.5" y2="270" gradientUnits="userSpaceOnUse">
<stop stop-color="#4042E2"/>
<stop offset="0.0001" stop-color="#4042E2"/>
<stop offset="1" stop-color="#7D97F4"/>
</linearGradient>
</defs>
</svg>
