<svg width="100" height="100" viewBox="0 0 100 100" fill="none" xmlns="http://www.w3.org/2000/svg">
<path d="M16.6666 91.6667C14.3749 91.6667 12.4131 90.8507 10.7812 89.2188C9.14922 87.5868 8.33325 85.625 8.33325 83.3334V37.5C8.33325 35.2084 9.14922 33.2466 10.7812 31.6146C12.4131 29.9827 14.3749 29.1667 16.6666 29.1667H37.4999V16.6667C37.4999 14.375 38.3159 12.4132 39.9478 10.7813C41.5798 9.14935 43.5416 8.33337 45.8332 8.33337H54.1666C56.4582 8.33337 58.4201 9.14935 60.052 10.7813C61.6839 12.4132 62.4999 14.375 62.4999 16.6667V29.1667H83.3332C85.6249 29.1667 87.5867 29.9827 89.2187 31.6146C90.8506 33.2466 91.6666 35.2084 91.6666 37.5V83.3334C91.6666 85.625 90.8506 87.5868 89.2187 89.2188C87.5867 90.8507 85.6249 91.6667 83.3332 91.6667H16.6666ZM16.6666 83.3334H83.3332V37.5H62.4999C62.4999 39.7917 61.6839 41.7535 60.052 43.3855C58.4201 45.0174 56.4582 45.8334 54.1666 45.8334H45.8332C43.5416 45.8334 41.5798 45.0174 39.9478 43.3855C38.3159 41.7535 37.4999 39.7917 37.4999 37.5H16.6666V83.3334ZM24.9999 75H49.9999V73.125C49.9999 71.9445 49.6701 70.8507 49.0103 69.8438C48.3506 68.8368 47.4305 68.0556 46.2499 67.5C44.861 66.875 43.4548 66.4063 42.0312 66.0938C40.6076 65.7813 39.0971 65.625 37.4999 65.625C35.9027 65.625 34.3923 65.7813 32.9687 66.0938C31.5451 66.4063 30.1388 66.875 28.7499 67.5C27.5694 68.0556 26.6492 68.8368 25.9895 69.8438C25.3298 70.8507 24.9999 71.9445 24.9999 73.125V75ZM58.3332 68.75H74.9999V62.5H58.3332V68.75ZM37.4999 62.5C39.236 62.5 40.7117 61.8924 41.927 60.6771C43.1423 59.4618 43.7499 57.9861 43.7499 56.25C43.7499 54.5139 43.1423 53.0382 41.927 51.823C40.7117 50.6077 39.236 50 37.4999 50C35.7638 50 34.2881 50.6077 33.0728 51.823C31.8576 53.0382 31.2499 54.5139 31.2499 56.25C31.2499 57.9861 31.8576 59.4618 33.0728 60.6771C34.2881 61.8924 35.7638 62.5 37.4999 62.5ZM58.3332 56.25H74.9999V50H58.3332V56.25ZM45.8332 37.5H54.1666V16.6667H45.8332V37.5Z" fill="url(#paint0_linear_164_6201)"/>
<defs>
<linearGradient id="paint0_linear_164_6201" x1="49.9999" y1="8.33337" x2="49.9999" y2="91.6667" gradientUnits="userSpaceOnUse">
<stop stop-color="#2626FF"/>
<stop offset="1" stop-color="#7D97F4"/>
</linearGradient>
</defs>
</svg>
