<svg width="100" height="100" viewBox="0 0 100 100" fill="none" xmlns="http://www.w3.org/2000/svg">
<path d="M16.6667 87.5C13.1945 87.5 10.2431 86.2847 7.81258 83.8542C5.38203 81.4236 4.16675 78.4722 4.16675 75C4.16675 72.2917 4.948 69.8611 6.5105 67.7083C8.073 65.5556 10.0695 64.0625 12.5001 63.2292V36.7708C10.0695 35.9375 8.073 34.4444 6.5105 32.2917C4.948 30.1389 4.16675 27.7083 4.16675 25C4.16675 21.5278 5.38203 18.5764 7.81258 16.1458C10.2431 13.7153 13.1945 12.5 16.6667 12.5C20.139 12.5 23.0904 13.7153 25.5209 16.1458C27.9515 18.5764 29.1667 21.5278 29.1667 25C29.1667 27.7083 28.3855 30.1389 26.823 32.2917C25.2605 34.4444 23.264 35.9375 20.8334 36.7708V45.8333H45.8334V36.7708C43.4029 35.9375 41.4063 34.4444 39.8438 32.2917C38.2813 30.1389 37.5001 27.7083 37.5001 25C37.5001 21.5278 38.7154 18.5764 41.1459 16.1458C43.5765 13.7153 46.5279 12.5 50.0001 12.5C53.4723 12.5 56.4237 13.7153 58.8542 16.1458C61.2848 18.5764 62.5001 21.5278 62.5001 25C62.5001 27.7083 61.7188 30.1389 60.1563 32.2917C58.5938 34.4444 56.5973 35.9375 54.1667 36.7708V45.8333H75.0001C76.1806 45.8333 77.1702 45.434 77.9688 44.6354C78.7674 43.8368 79.1667 42.8472 79.1667 41.6667V36.7708C76.7362 35.9375 74.7397 34.4444 73.1772 32.2917C71.6147 30.1389 70.8334 27.7083 70.8334 25C70.8334 21.5278 72.0487 18.5764 74.4792 16.1458C76.9098 13.7153 79.8612 12.5 83.3334 12.5C86.8056 12.5 89.757 13.7153 92.1876 16.1458C94.6181 18.5764 95.8334 21.5278 95.8334 25C95.8334 27.7083 95.0522 30.1389 93.4897 32.2917C91.9272 34.4444 89.9306 35.9375 87.5001 36.7708V41.6667C87.5001 45.1389 86.2848 48.0903 83.8542 50.5208C81.4237 52.9514 78.4723 54.1667 75.0001 54.1667H54.1667V63.2292C56.5973 64.0625 58.5938 65.5556 60.1563 67.7083C61.7188 69.8611 62.5001 72.2917 62.5001 75C62.5001 78.4722 61.2848 81.4236 58.8542 83.8542C56.4237 86.2847 53.4723 87.5 50.0001 87.5C46.5279 87.5 43.5765 86.2847 41.1459 83.8542C38.7154 81.4236 37.5001 78.4722 37.5001 75C37.5001 72.2917 38.2813 69.8611 39.8438 67.7083C41.4063 65.5556 43.4029 64.0625 45.8334 63.2292V54.1667H20.8334V63.2292C23.264 64.0625 25.2605 65.5556 26.823 67.7083C28.3855 69.8611 29.1667 72.2917 29.1667 75C29.1667 78.4722 27.9515 81.4236 25.5209 83.8542C23.0904 86.2847 20.139 87.5 16.6667 87.5ZM16.6667 79.1667C17.8473 79.1667 18.8369 78.7674 19.6355 77.9688C20.4341 77.1701 20.8334 76.1806 20.8334 75C20.8334 73.8194 20.4341 72.8299 19.6355 72.0312C18.8369 71.2326 17.8473 70.8333 16.6667 70.8333C15.4862 70.8333 14.4966 71.2326 13.698 72.0312C12.8994 72.8299 12.5001 73.8194 12.5001 75C12.5001 76.1806 12.8994 77.1701 13.698 77.9688C14.4966 78.7674 15.4862 79.1667 16.6667 79.1667ZM16.6667 29.1667C17.8473 29.1667 18.8369 28.7674 19.6355 27.9688C20.4341 27.1701 20.8334 26.1806 20.8334 25C20.8334 23.8194 20.4341 22.8299 19.6355 22.0312C18.8369 21.2326 17.8473 20.8333 16.6667 20.8333C15.4862 20.8333 14.4966 21.2326 13.698 22.0312C12.8994 22.8299 12.5001 23.8194 12.5001 25C12.5001 26.1806 12.8994 27.1701 13.698 27.9688C14.4966 28.7674 15.4862 29.1667 16.6667 29.1667ZM50.0001 79.1667C51.1806 79.1667 52.1702 78.7674 52.9688 77.9688C53.7674 77.1701 54.1667 76.1806 54.1667 75C54.1667 73.8194 53.7674 72.8299 52.9688 72.0312C52.1702 71.2326 51.1806 70.8333 50.0001 70.8333C48.8195 70.8333 47.8299 71.2326 47.0313 72.0312C46.2327 72.8299 45.8334 73.8194 45.8334 75C45.8334 76.1806 46.2327 77.1701 47.0313 77.9688C47.8299 78.7674 48.8195 79.1667 50.0001 79.1667ZM50.0001 29.1667C51.1806 29.1667 52.1702 28.7674 52.9688 27.9688C53.7674 27.1701 54.1667 26.1806 54.1667 25C54.1667 23.8194 53.7674 22.8299 52.9688 22.0312C52.1702 21.2326 51.1806 20.8333 50.0001 20.8333C48.8195 20.8333 47.8299 21.2326 47.0313 22.0312C46.2327 22.8299 45.8334 23.8194 45.8334 25C45.8334 26.1806 46.2327 27.1701 47.0313 27.9688C47.8299 28.7674 48.8195 29.1667 50.0001 29.1667ZM83.3334 29.1667C84.514 29.1667 85.5036 28.7674 86.3022 27.9688C87.1008 27.1701 87.5001 26.1806 87.5001 25C87.5001 23.8194 87.1008 22.8299 86.3022 22.0312C85.5036 21.2326 84.514 20.8333 83.3334 20.8333C82.1529 20.8333 81.1633 21.2326 80.3647 22.0312C79.5661 22.8299 79.1667 23.8194 79.1667 25C79.1667 26.1806 79.5661 27.1701 80.3647 27.9688C81.1633 28.7674 82.1529 29.1667 83.3334 29.1667Z" fill="url(#paint0_linear_225_13016)"/>
<defs>
<linearGradient id="paint0_linear_225_13016" x1="50.0001" y1="12.5" x2="50.0001" y2="87.5" gradientUnits="userSpaceOnUse">
<stop stop-color="#2626FF"/>
<stop offset="1" stop-color="#7D97F4"/>
</linearGradient>
</defs>
</svg>
