<svg width="100" height="100" viewBox="0 0 100 100" fill="none" xmlns="http://www.w3.org/2000/svg">
<path d="M50.0001 66.6666C55.2084 66.6666 59.6355 64.8437 63.2813 61.1979C66.9272 57.552 68.7501 53.125 68.7501 47.9166C68.7501 42.7083 66.9272 38.2812 63.2813 34.6354C59.6355 30.9895 55.2084 29.1666 50.0001 29.1666C44.7917 29.1666 40.3647 30.9895 36.7188 34.6354C33.073 38.2812 31.2501 42.7083 31.2501 47.9166C31.2501 53.125 33.073 57.552 36.7188 61.1979C40.3647 64.8437 44.7917 66.6666 50.0001 66.6666ZM50.0001 59.1666C46.8751 59.1666 44.2188 58.0729 42.0313 55.8854C39.8438 53.6979 38.7501 51.0416 38.7501 47.9166C38.7501 44.7916 39.8438 42.1354 42.0313 39.9479C44.2188 37.7604 46.8751 36.6666 50.0001 36.6666C53.1251 36.6666 55.7813 37.7604 57.9688 39.9479C60.1563 42.1354 61.2501 44.7916 61.2501 47.9166C61.2501 51.0416 60.1563 53.6979 57.9688 55.8854C55.7813 58.0729 53.1251 59.1666 50.0001 59.1666ZM50.0001 79.1666C39.8612 79.1666 30.6251 76.3368 22.2917 70.677C13.9584 65.0173 7.91675 57.4305 4.16675 47.9166C7.91675 38.4027 13.9584 30.8159 22.2917 25.1562C30.6251 19.4965 39.8612 16.6666 50.0001 16.6666C60.139 16.6666 69.3751 19.4965 77.7084 25.1562C86.0417 30.8159 92.0834 38.4027 95.8334 47.9166C92.0834 57.4305 86.0417 65.0173 77.7084 70.677C69.3751 76.3368 60.139 79.1666 50.0001 79.1666ZM50.0001 70.8333C57.8473 70.8333 65.0522 68.7673 71.6147 64.6354C78.1772 60.5034 83.1945 54.9305 86.6667 47.9166C83.1945 40.9027 78.1772 35.3298 71.6147 31.1979C65.0522 27.0659 57.8473 25 50.0001 25C42.1529 25 34.948 27.0659 28.3855 31.1979C21.823 35.3298 16.8056 40.9027 13.3334 47.9166C16.8056 54.9305 21.823 60.5034 28.3855 64.6354C34.948 68.7673 42.1529 70.8333 50.0001 70.8333Z" fill="url(#paint0_linear_225_13012)"/>
<defs>
<linearGradient id="paint0_linear_225_13012" x1="50.0001" y1="16.6666" x2="50.0001" y2="79.1666" gradientUnits="userSpaceOnUse">
<stop stop-color="#2626FF"/>
<stop offset="1" stop-color="#7D97F4"/>
</linearGradient>
</defs>
</svg>
