<svg width="100" height="100" viewBox="0 0 100 100" fill="none" xmlns="http://www.w3.org/2000/svg">
<path d="M12.5001 83.3334C10.2084 83.3334 8.24661 82.5174 6.61466 80.8855C4.98272 79.2536 4.16675 77.2917 4.16675 75.0001V25.0001C4.16675 22.7084 4.98272 20.7466 6.61466 19.1147C8.24661 17.4827 10.2084 16.6667 12.5001 16.6667H87.5001C89.7918 16.6667 91.7536 17.4827 93.3855 19.1147C95.0174 20.7466 95.8334 22.7084 95.8334 25.0001V75.0001C95.8334 77.2917 95.0174 79.2536 93.3855 80.8855C91.7536 82.5174 89.7918 83.3334 87.5001 83.3334H12.5001ZM12.5001 75.0001H87.5001V25.0001H12.5001V75.0001ZM14.5834 62.5001H19.7917V47.9167L30.4167 62.5001H35.4167V37.5001H30.2084V52.0834L19.7917 37.5001H14.5834V62.5001ZM39.5834 62.5001H56.2501V57.2917H45.8334V52.7084H56.2501V47.5001H45.8334V42.7084H56.2501V37.5001H39.5834V62.5001ZM64.5834 62.5001H81.2501C82.4306 62.5001 83.4202 62.1008 84.2188 61.3022C85.0174 60.5036 85.4168 59.514 85.4168 58.3334V37.5001H80.2084V56.2501H75.6251V41.6667H70.4167V56.2501H65.6251V37.5001H60.4168V58.3334C60.4168 59.514 60.8161 60.5036 61.6147 61.3022C62.4133 62.1008 63.4029 62.5001 64.5834 62.5001Z" fill="url(#paint0_linear_225_13014)"/>
<defs>
<linearGradient id="paint0_linear_225_13014" x1="50.0001" y1="16.6667" x2="50.0001" y2="83.3334" gradientUnits="userSpaceOnUse">
<stop stop-color="#2626FF"/>
<stop offset="1" stop-color="#7D97F4"/>
</linearGradient>
</defs>
</svg>
