<svg width="100" height="100" viewBox="0 0 100 100" fill="none" xmlns="http://www.w3.org/2000/svg">
<path d="M48.7499 75C42.0833 74.6528 36.4583 72.0834 31.8749 67.2917C27.2916 62.5 24.9999 56.7361 24.9999 50C24.9999 43.0556 27.4305 37.1528 32.2916 32.2917C37.1527 27.4306 43.0555 25 49.9999 25C56.736 25 62.4999 27.2917 67.2916 31.875C72.0833 36.4584 74.6527 42.0834 74.9999 48.75L66.2499 46.1459C65.3471 42.3959 63.4027 39.323 60.4166 36.9271C57.4305 34.5313 53.9583 33.3334 49.9999 33.3334C45.4166 33.3334 41.493 34.9653 38.2291 38.2292C34.9652 41.4931 33.3333 45.4167 33.3333 50C33.3333 53.9584 34.5312 57.4306 36.927 60.4167C39.3228 63.4028 42.3958 65.3473 46.1458 66.25L48.7499 75ZM53.7499 91.4584C53.1249 91.5973 52.4999 91.6667 51.8749 91.6667H49.9999C44.236 91.6667 38.8194 90.573 33.7499 88.3855C28.6805 86.198 24.2708 83.2292 20.5208 79.4792C16.7708 75.7292 13.802 71.3195 11.6145 66.25C9.427 61.1806 8.33325 55.7639 8.33325 50C8.33325 44.2362 9.427 38.8195 11.6145 33.75C13.802 28.6806 16.7708 24.2709 20.5208 20.5209C24.2708 16.7709 28.6805 13.8021 33.7499 11.6146C38.8194 9.42712 44.236 8.33337 49.9999 8.33337C55.7638 8.33337 61.1805 9.42712 66.2499 11.6146C71.3194 13.8021 75.7291 16.7709 79.4791 20.5209C83.2291 24.2709 86.1978 28.6806 88.3853 33.75C90.5728 38.8195 91.6666 44.2362 91.6666 50V51.875C91.6666 52.5 91.5971 53.125 91.4583 53.75L83.3333 51.25V50C83.3333 40.6945 80.1041 32.8125 73.6458 26.3542C67.1874 19.8959 59.3055 16.6667 49.9999 16.6667C40.6944 16.6667 32.8124 19.8959 26.3541 26.3542C19.8958 32.8125 16.6666 40.6945 16.6666 50C16.6666 59.3056 19.8958 67.1875 26.3541 73.6459C32.8124 80.1042 40.6944 83.3334 49.9999 83.3334H51.2499L53.7499 91.4584ZM85.5208 93.75L67.7083 75.9375L62.4999 91.6667L49.9999 50L91.6666 62.5L75.9374 67.7084L93.7499 85.5209L85.5208 93.75Z" fill="url(#paint0_linear_164_6191)"/>
<defs>
<linearGradient id="paint0_linear_164_6191" x1="51.0416" y1="8.33337" x2="51.0416" y2="93.75" gradientUnits="userSpaceOnUse">
<stop stop-color="#2626FF"/>
<stop offset="1" stop-color="#7D97F4"/>
</linearGradient>
</defs>
</svg>
