<svg width="151" height="37" viewBox="0 0 151 37" fill="none" xmlns="http://www.w3.org/2000/svg">
<g clip-path="url(#clip0_131_78)">
<path fill-rule="evenodd" clip-rule="evenodd" d="M6.90056 28.7733C6.90056 29.16 6.82133 29.3921 6.74209 29.4694C6.66285 29.5467 6.34589 29.6241 5.94969 29.6241H1.43305C1.1161 29.6241 0.878377 29.5467 0.719898 29.4694C0.561419 29.3147 0.482178 29.0827 0.482178 28.7733V8.12149C0.482178 7.11597 0.640657 6.1878 0.878375 5.25963C1.11609 4.33146 1.59153 3.55798 2.1462 2.78451C2.78012 2.08838 3.57251 1.4696 4.52338 1.08287C5.55349 0.618781 6.74209 0.464084 8.24763 0.464084H20.609C21.0052 0.464084 21.2429 0.541434 21.3221 0.696129C21.4014 0.850824 21.4806 1.08287 21.4806 1.4696V5.02759C21.4806 5.41432 21.4014 5.64637 21.3221 5.72372C21.2429 5.87841 21.0052 5.87841 20.609 5.87841H9.67394C8.56459 5.87841 7.85144 6.11045 7.45524 6.57454C7.05904 7.03862 6.90056 7.6574 6.90056 8.43088V28.7733ZM42.5583 14.0772C43.2714 14.3093 43.9053 14.6187 44.3808 14.9281C44.8562 15.2375 45.2524 15.6242 45.5694 16.0109C45.8863 16.3977 46.124 16.8618 46.2825 17.4032C46.441 17.9446 46.6787 18.4861 46.8372 19.1048L49.4521 28.7733C49.5313 28.928 49.5313 29.0827 49.4521 29.3147C49.3728 29.5467 49.2144 29.6241 48.8182 29.6241H43.9053C43.7469 29.6241 43.5884 29.6241 43.4299 29.5467C43.2714 29.4694 43.113 29.3147 43.0337 29.0827L40.4188 20.1103C40.1811 19.4142 39.9434 18.7954 39.6264 18.3314C39.3095 17.8673 38.9925 17.5579 38.5171 17.2485C38.1209 17.0164 37.5662 16.8618 37.0115 16.7071C36.4568 16.6297 35.8229 16.5524 35.0305 16.5524H31.7025L31.7817 28.928C31.7817 29.2374 31.7025 29.3921 31.6232 29.4694C31.544 29.5467 31.3063 29.5467 30.9893 29.5467H26.0765C25.8388 29.5467 25.6011 29.5467 25.5218 29.4694C25.3633 29.3921 25.3633 29.2374 25.3633 28.928V1.08287C25.3633 0.773476 25.4426 0.618778 25.5218 0.54143C25.6803 0.464083 25.8388 0.464084 26.0765 0.464084H31.0686C31.3855 0.464084 31.544 0.464083 31.7025 0.54143C31.7817 0.618778 31.861 0.773476 31.7817 1.08287V11.6795H35.189C35.5852 11.6795 36.0607 11.6795 36.5361 11.6021C37.0115 11.5248 37.487 11.3701 37.8832 11.138C38.3586 10.906 38.7548 10.5193 39.151 9.97783C39.5472 9.51374 39.8641 8.81761 40.1019 7.96679L42.0036 0.928168C42.0828 0.618778 42.1621 0.464084 42.3998 0.464084C42.5583 0.386736 42.7168 0.386738 42.8752 0.386738H47.6296C48.0258 0.386738 48.1843 0.464086 48.2635 0.696129C48.3427 0.928171 48.2635 1.08286 48.2635 1.23756L46.2825 8.66292C45.7278 11.0607 44.5393 12.7623 42.6375 13.8452V14.0772H42.5583ZM90.9735 24.0551L93.1129 24.2871C93.9053 24.3645 94.3808 24.5192 94.5393 24.9059C94.6977 25.2153 94.777 25.6794 94.777 26.1435L94.3015 35.7345C94.2223 36.276 93.9846 36.5854 93.5091 36.5854H89.9434C89.3887 36.5854 89.151 36.276 89.0717 35.7345L88.834 29.7014H69.2619C68.2318 29.7014 67.5979 29.4694 67.1225 29.0053C66.7263 28.5412 66.4885 27.8451 66.4885 26.9169V1.23756C66.4885 0.696126 66.8055 0.464084 67.3602 0.464084H72.0353C72.4315 0.464084 72.6692 0.541429 72.8277 0.618776C72.9069 0.696124 72.9862 0.928169 72.9862 1.23756V24.2098H84.4759V1.23756C84.4759 0.696126 84.7928 0.464084 85.3475 0.464084H90.0226C90.4188 0.464084 90.6565 0.541429 90.815 0.618776C90.8943 0.696124 90.9735 0.928169 90.9735 1.23756V24.0551ZM107.851 24.3645C109.04 24.3645 110.149 24.2098 110.942 23.823C111.813 23.5136 112.526 22.9722 113.081 22.3534C113.636 21.7346 114.111 20.9612 114.428 20.033C114.745 19.1048 114.983 18.0993 115.062 17.0165H105.078C104.761 17.0165 104.523 16.9391 104.444 16.8618C104.365 16.7844 104.285 16.5524 104.285 16.243V12.685C104.285 12.3756 104.365 12.1436 104.444 11.9889C104.523 11.9115 104.761 11.8342 105.078 11.8342H114.983C114.745 9.82313 114.032 8.27618 112.923 7.27067C111.734 6.1878 110.228 5.64636 108.247 5.64636C107.138 5.64636 106.187 5.72371 105.236 5.87841C104.365 6.0331 103.335 6.34249 102.305 6.65188C101.908 6.80658 101.591 6.80658 101.433 6.72923C101.274 6.65188 101.116 6.41984 100.957 6.0331L99.7691 3.17125C99.5313 2.70716 99.5313 2.39777 99.5313 2.24308C99.6106 2.08838 99.7691 1.93368 100.086 1.77899C101.433 1.08286 102.859 0.61878 104.285 0.386738C105.791 0.154695 107.217 0 108.644 0C112.843 0 116.092 1.23756 118.39 3.71268C120.688 6.1878 121.797 9.74578 121.797 14.3866C121.797 16.7844 121.56 18.8728 121.005 20.8065C120.45 22.7402 119.658 24.3645 118.549 25.7567C117.439 27.149 116.092 28.1545 114.349 28.928C112.685 29.7014 110.625 30.0882 108.327 30.0882C106.663 30.0882 104.919 29.9335 103.255 29.6241C101.512 29.3147 99.9275 28.6959 98.3428 27.7678C98.105 27.6131 97.9465 27.4584 97.8673 27.3037C97.7881 27.0716 97.8673 26.8396 98.105 26.4528L99.5313 23.4363C99.6898 23.1269 99.8483 22.8949 100.007 22.8175C100.165 22.7402 100.482 22.7402 100.878 22.8949C101.829 23.2042 102.859 23.591 103.889 23.9004C105.316 24.2098 106.504 24.3645 107.851 24.3645ZM143.984 10.1325L140.181 16.3977L132.97 27.7678C132.732 28.1545 132.495 28.4639 132.257 28.6959C132.019 28.928 131.861 29.0827 131.623 29.2374C131.385 29.392 131.148 29.4694 130.831 29.4694C130.514 29.5467 130.197 29.5467 129.721 29.5467H127.978C126.869 29.5467 126.156 29.3147 125.759 28.7733C125.363 28.2318 125.205 27.5357 125.205 26.6849V1.23756C125.205 0.696126 125.522 0.464084 126.076 0.464084H130.672C131.068 0.464084 131.306 0.541429 131.385 0.618776C131.465 0.696124 131.544 0.928169 131.544 1.23756V19.9557H131.782L135.427 14.1546L142.796 2.32043C143.034 1.93369 143.271 1.62429 143.509 1.39225C143.747 1.16021 143.905 0.92817 144.143 0.773475C144.381 0.61878 144.618 0.541431 144.935 0.464084C145.252 0.386736 145.569 0.386738 145.965 0.386738H147.709C148.739 0.386738 149.452 0.618776 149.848 1.00551C150.244 1.4696 150.482 2.16573 150.482 3.24859V28.6959C150.482 29.2374 150.165 29.4694 149.61 29.4694H145.015C144.618 29.4694 144.381 29.3921 144.222 29.3147C144.143 29.2374 144.064 29.0053 144.064 28.6959V10.1325H143.984Z" fill="#C1C1C1"/>
</g>
<defs>
<clipPath id="clip0_131_78">
<rect width="150" height="37" fill="white" transform="translate(0.482178)"/>
</clipPath>
</defs>
</svg>
