<svg width="148" height="45" viewBox="0 0 148 45" fill="none" xmlns="http://www.w3.org/2000/svg">
<g clip-path="url(#clip0_127_863)">
<path d="M21.065 44.341V40.7824C20.5037 41.7489 19.8992 42.5397 19.2514 43.1548C18.6469 43.7259 17.9992 44.1433 17.3083 44.4069C16.8334 44.6266 16.3584 44.7803 15.8834 44.8682C15.4084 44.9561 14.955 45 14.5232 45C11.2415 45 8.26208 43.66 5.58491 40.9801C2.90774 38.3001 1.56915 34.7195 1.56915 30.2382C1.56915 25.9766 2.95092 22.4619 5.71445 19.6941C8.47798 16.9263 11.5654 15.5424 14.9766 15.5424C15.4516 15.5424 16.0129 15.6083 16.6606 15.7401C17.3083 15.8719 17.956 16.1135 18.6037 16.465C19.0355 16.7286 19.4458 17.0361 19.8344 17.3876C20.2662 17.739 20.6764 18.1564 21.065 18.6397V2.49399H16.9845V1.37368H23.4615C24.2819 1.37368 24.9728 1.35171 25.5342 1.30778C26.0955 1.26384 26.6353 1.17597 27.1534 1.04418C27.1966 1.04418 27.2398 1.04418 27.283 1.04418C27.3261 1.00024 27.3693 0.978271 27.4125 0.978271V43.2207H31.493V44.341H21.065ZM8.75865 26.5478L8.82342 35.3126C8.82342 35.7519 8.84502 36.3231 8.8882 37.026C8.93138 37.729 9.06092 38.4539 9.27682 39.2007C9.57908 40.343 10.1188 41.4194 10.8961 42.4299C11.7165 43.3964 12.9687 43.8797 14.6528 43.8797C14.7391 43.8797 14.8255 43.8797 14.9118 43.8797C14.9982 43.8797 15.0846 43.8797 15.1709 43.8797C16.639 43.704 17.9776 42.9571 19.1867 41.6391C20.4389 40.3211 21.065 38.7175 21.065 36.8283V24.1754C21.065 22.0226 20.7196 20.441 20.0287 19.4305C19.381 18.3761 18.6469 17.6512 17.8265 17.2558C17.222 16.9482 16.6606 16.7725 16.1425 16.7286C15.6243 16.6846 15.2141 16.6627 14.9118 16.6627C14.5664 16.6627 14.1778 16.7066 13.746 16.7945C13.3574 16.8823 12.9471 17.0361 12.5153 17.2558C11.5654 17.783 10.6802 18.7715 9.85975 20.2213C9.08251 21.6272 8.71547 23.736 8.75865 26.5478ZM33.888 43.2207H37.9685V17.3876H33.888V16.2673H40.3003C40.6025 16.2673 40.8616 16.2673 41.0775 16.2673C41.3366 16.2673 41.5741 16.2673 41.79 16.2673C42.1354 16.2233 42.5025 16.1794 42.8911 16.1355C43.2797 16.0915 43.7547 16.0256 44.316 15.9378V43.2207H48.3966V44.341H33.888V43.2207ZM37.3856 5.59133C37.3856 4.62479 37.7311 3.76808 38.4219 3.0212C39.156 2.27432 40.0196 1.90089 41.0127 1.90089C41.1855 1.90089 41.3366 1.92285 41.4661 1.96679C41.6389 1.96679 41.8116 1.98875 41.9843 2.03269C42.632 2.25236 43.2365 2.66973 43.7979 3.2848C44.3592 3.85594 44.6399 4.62479 44.6399 5.59133C44.6399 6.55788 44.3592 7.34869 43.7979 7.96376C43.2365 8.5349 42.632 8.93031 41.9843 9.14997C41.8116 9.19391 41.6389 9.23784 41.4661 9.28178C41.3366 9.28178 41.1855 9.28178 41.0127 9.28178C40.0196 9.28178 39.156 8.90834 38.4219 8.16146C37.7311 7.41459 37.3856 6.55788 37.3856 5.59133ZM52.266 24.5708L52.7842 16.2673H74.6766L58.7431 43.2207H61.0748C61.7657 43.2207 62.5645 43.1987 63.4713 43.1548C64.3781 43.0669 65.328 42.8912 66.3212 42.6276C67.703 42.2322 69.02 41.5073 70.2722 40.4529C71.5244 39.3984 72.4528 37.8168 73.0573 35.708H74.0936L73.5755 44.341H50.3877L66.5155 17.3876H63.1474C60.2544 17.3876 58.1817 17.9367 56.9295 19.0351C55.6773 20.1334 54.5762 21.7151 53.6262 23.78C53.583 23.9118 53.5183 24.0436 53.4319 24.1754C53.3887 24.3072 53.3455 24.439 53.3024 24.5708H52.266ZM105.329 40.8483L106.236 41.705C105.934 42.1443 105.61 42.5397 105.264 42.8912C104.919 43.2427 104.573 43.5282 104.228 43.7479C103.321 44.363 102.436 44.7144 101.572 44.8023C100.752 44.9341 100.147 45 99.7588 45C98.4203 45 97.3623 44.6925 96.5851 44.0774C95.851 43.4623 95.2897 42.7814 94.9011 42.0345C94.7715 41.8148 94.6636 41.6171 94.5772 41.4414C94.4909 41.2217 94.4261 41.002 94.3829 40.7824C92.2671 42.6715 90.4535 43.8577 88.9422 44.341C87.4741 44.7803 86.1355 45 84.9264 45C82.5084 45 80.6516 44.319 79.3562 42.9571C78.0608 41.5512 77.4131 39.8378 77.4131 37.8168C77.4131 34.6536 78.7733 32.3031 81.4936 30.7654C84.2572 29.2278 87.8411 28.4589 92.2455 28.4589C92.5909 28.4589 92.9364 28.4589 93.2818 28.4589C93.6704 28.4589 94.0375 28.4809 94.3829 28.5248V21.1439C94.3829 20.9242 94.3829 20.7046 94.3829 20.4849C94.3829 20.2213 94.3613 19.9797 94.3181 19.76C94.1886 18.9692 93.8432 18.2663 93.2818 17.6512C92.7205 17.0361 91.641 16.7286 90.0433 16.7286C89.007 16.7286 88.057 16.8604 87.1934 17.124C86.3298 17.3436 85.898 17.6951 85.898 18.1784C85.898 18.3102 85.898 18.464 85.898 18.6397C85.9412 18.7715 85.9844 18.9033 86.0275 19.0351C86.0707 19.2108 86.1139 19.3866 86.1571 19.5623C86.2003 19.6941 86.265 19.8259 86.3514 19.9577C86.3946 20.0456 86.4162 20.1334 86.4162 20.2213C86.4594 20.2652 86.5025 20.3311 86.5457 20.419C86.5889 20.5069 86.6321 20.5947 86.6752 20.6826C86.7184 20.7705 86.7832 20.8584 86.8696 20.9462C86.9991 21.1659 87.1071 21.4075 87.1934 21.6711C87.323 21.9347 87.3877 22.2423 87.3877 22.5937C87.3877 23.6482 87.0423 24.5927 86.3514 25.4275C85.7037 26.2622 84.7321 26.6796 83.4367 26.6796C82.2277 26.6796 81.2561 26.2842 80.5221 25.4934C79.788 24.6586 79.421 23.5383 79.421 22.1324C79.421 20.1554 80.5005 18.5738 82.6595 17.3876C84.8617 16.1574 87.3445 15.5424 90.1081 15.5424C94.0375 15.5424 96.693 16.1355 98.0748 17.3217C99.4566 18.5079 100.277 19.8039 100.536 21.2098C100.622 21.6492 100.666 22.0665 100.666 22.4619C100.709 22.8573 100.73 23.2527 100.73 23.6482V40.7824C100.73 40.9142 100.73 41.0679 100.73 41.2437C100.73 41.3755 100.752 41.5292 100.795 41.705C100.882 42.0125 101.011 42.2981 101.184 42.5617C101.4 42.8253 101.745 42.9571 102.22 42.9571C102.393 42.9571 102.566 42.9351 102.738 42.8912C102.911 42.8473 103.084 42.7813 103.256 42.6935C103.516 42.5617 103.775 42.3859 104.034 42.1663C104.336 41.9466 104.595 41.7269 104.811 41.5073C104.897 41.3755 104.984 41.2656 105.07 41.1778C105.2 41.046 105.286 40.9361 105.329 40.8483ZM94.3829 38.7394V29.5792C91.058 29.4914 88.5968 29.9527 86.9991 30.9631C85.4446 31.9736 84.6674 34.2362 84.6674 37.7509C84.6674 39.5522 85.1208 40.7604 86.0275 41.3755C86.9775 41.9905 88.0138 42.2981 89.1365 42.2981C89.4388 42.2981 89.7842 42.2541 90.1728 42.1663C90.5615 42.0345 90.9501 41.8587 91.3387 41.6391C91.8137 41.4194 92.2671 41.1558 92.6989 40.8483C93.1739 40.4968 93.5625 40.1673 93.8648 39.8597C94.0375 39.6401 94.167 39.4424 94.2534 39.2666C94.3397 39.0909 94.3829 38.9152 94.3829 38.7394ZM107.514 43.2207H111.594V17.3876H107.514V16.2673H113.99C114.249 16.2673 114.465 16.2673 114.638 16.2673C114.854 16.2673 115.07 16.2673 115.286 16.2673C115.631 16.2233 115.998 16.1794 116.387 16.1355C116.775 16.0915 117.293 16.0256 117.941 15.9378V21.8029C118.675 20.0456 119.776 18.5738 121.244 17.3876C122.713 16.2014 124.375 15.6083 126.232 15.6083C127.614 15.6083 128.65 15.8499 129.341 16.3332C130.075 16.7725 130.615 17.2777 130.96 17.8489C131.09 18.1125 131.176 18.3761 131.219 18.6397C131.305 18.9033 131.349 19.1449 131.349 19.3646C131.349 20.5947 131.046 21.6052 130.442 22.396C129.837 23.1429 129.06 23.5163 128.11 23.5163C127.203 23.5163 126.426 23.2308 125.778 22.6596C125.131 22.0446 124.807 21.2977 124.807 20.419C124.807 20.3311 124.807 20.2433 124.807 20.1554C124.807 20.0675 124.828 19.9797 124.872 19.8918C124.872 19.8039 124.872 19.7161 124.872 19.6282C124.872 19.5403 124.872 19.4525 124.872 19.3646C124.872 18.7935 124.72 18.442 124.418 18.3102C124.159 18.1784 123.77 18.1125 123.252 18.1125C123.166 18.1125 123.058 18.1345 122.928 18.1784C122.799 18.1784 122.691 18.1784 122.605 18.1784C121.439 18.4859 120.359 19.4744 119.366 21.1439C118.416 22.7695 117.941 24.7026 117.941 26.9432V43.2207H122.022V44.341H107.514V43.2207ZM138.119 41.3755C138.119 40.4089 138.4 39.6401 138.961 39.0689C139.523 38.4539 140.127 38.0365 140.775 37.8168C140.948 37.7729 141.099 37.7509 141.228 37.7509C141.401 37.707 141.574 37.685 141.746 37.685C142.74 37.685 143.582 38.0585 144.272 38.8053C145.006 39.5522 145.374 40.4089 145.374 41.3755C145.374 41.5512 145.352 41.7269 145.309 41.9027C145.309 42.0345 145.287 42.1882 145.244 42.364C145.028 43.023 144.618 43.6381 144.013 44.2092C143.452 44.7364 142.696 45 141.746 45C140.71 45 139.846 44.6705 139.156 44.0115C138.465 43.3086 138.119 42.4299 138.119 41.3755Z" fill="#C1C1C1"/>
</g>
<defs>
<clipPath id="clip0_127_863">
<rect width="147.073" height="45" fill="white" transform="translate(0.590881)"/>
</clipPath>
</defs>
</svg>
