<svg width="131" height="33" viewBox="0 0 131 33" fill="none" xmlns="http://www.w3.org/2000/svg">
    <g clip-path="url(#clip0_131_54)">
        <mask id="mask0_131_54" style="mask-type:luminance" maskUnits="userSpaceOnUse" x="0" y="0"
            width="131" height="33">
            <path d="M130.664 0.0666504H0.664062V32.533H130.664V0.0666504Z" fill="white" />
        </mask>
        <g mask="url(#mask0_131_54)">
            <path fill-rule="evenodd" clip-rule="evenodd"
                d="M74.6901 18.0345C74.5778 16.8973 74.5778 15.7602 74.3532 14.6231C73.7915 11.5907 72.1066 9.31641 68.3996 8.55833C64.1311 7.70548 60.3118 8.17928 57.5035 11.4959C57.3912 11.2116 57.2789 10.9274 57.2789 10.7378C56.7172 9.03214 55.3693 8.27404 53.2349 8.27404C50.876 8.27404 49.3034 9.12687 48.9663 10.9274C48.7417 11.875 48.7417 12.8226 48.9663 13.7702C49.9774 18.5083 50.0897 23.1516 49.865 27.8897C49.7527 28.7425 49.9774 29.6902 50.4267 30.4483C51.213 31.9644 53.3473 32.6278 55.3693 32.2487C57.5035 31.8697 58.7391 30.543 58.6268 28.553C58.6268 26.8473 58.2899 25.0468 58.0652 23.3412C57.9529 21.6354 57.7282 19.9297 57.8405 18.224C58.0652 16.1392 59.9748 15.0021 62.5584 14.9074C64.5804 14.9074 66.153 15.9497 66.49 18.0345C66.827 19.9297 66.827 21.8249 66.9394 23.7202C67.0517 25.3311 66.9394 26.9421 67.0517 28.553C67.164 29.7849 67.838 30.7325 69.1859 31.2063C72.3312 32.3435 75.4765 30.7325 75.5888 27.8897C75.5888 27.4159 75.5888 27.0368 75.4765 26.563C75.2518 23.815 75.0272 20.9721 74.6901 18.0345ZM46.1581 24.0044C45.4842 23.5306 44.6978 23.3412 43.7992 23.3412C42.7881 23.3412 41.7772 23.815 40.9908 24.4782C39.7552 25.7102 38.1826 26.3735 36.0483 26.3735C35.599 26.3735 35.0374 26.3735 34.4757 26.2787C32.4537 26.0892 30.8811 24.952 30.7688 23.5306C30.6564 22.8674 30.9934 22.4883 31.7797 22.2987C32.4537 22.204 33.1277 22.1092 33.8017 22.1092H33.914C34.7003 22.0145 35.4866 21.9197 36.3853 21.9197C38.0703 21.7302 39.8676 21.6354 41.5525 21.3511C44.1361 20.9721 45.8211 19.4559 46.3828 17.1816C47.169 13.6755 45.0348 10.6431 40.8785 9.22168C38.2949 8.36881 35.3743 8.17928 32.2291 8.65309C27.8482 9.41122 25.0398 11.4012 23.5796 14.7178C22.4563 17.4659 22.2316 20.4035 22.7933 23.9097C23.1302 25.9945 24.1412 27.7949 25.6015 29.2164C28.6345 32.1539 32.6784 32.533 35.936 32.533C39.0812 32.3435 41.6648 31.7749 43.9115 30.543C45.0348 29.8796 46.1581 29.0268 46.8321 28.174C48.2924 26.7525 47.9554 25.0468 46.1581 24.0044ZM30.7688 16.8973C30.8811 15.0021 32.4537 13.7702 34.588 13.7702C35.4866 13.7702 36.4976 13.8649 37.621 14.1493C38.5196 14.3387 38.9689 14.9074 38.9689 15.6654C38.9689 16.4235 38.5196 16.9921 37.7333 17.2764C36.61 17.5607 34.588 17.8449 32.903 17.9397C32.3414 17.9397 31.8921 17.9397 31.5551 17.8449C30.8811 17.6554 30.6564 17.4659 30.7688 16.8973ZM130.631 18.5083C130.181 15.0021 129.283 12.1593 126.587 9.88503C122.768 6.6631 118.05 6.37882 113.107 7.23167C108.165 8.08452 104.908 10.5483 103.559 14.7178C102.66 17.3711 102.66 20.0245 103.335 22.6778C105.357 31.2063 117.488 34.9021 125.576 29.4058C129.845 26.563 130.856 22.4883 130.631 18.5083ZM122.094 22.3935C121.195 24.4782 119.173 25.7102 116.702 25.6154C114.23 25.6154 112.321 24.3835 111.422 22.2987C111.085 21.4459 110.861 20.593 110.636 19.5507C110.861 18.5083 110.973 17.3711 111.31 16.3288C111.872 14.5283 113.332 13.2964 115.691 13.0121C118.162 12.8226 120.184 13.3911 121.308 15.2864C122.768 17.5607 123.105 19.9297 122.094 22.3935ZM18.0754 24.7626C17.5137 24.7626 15.1547 25.1416 12.9082 25.2364C11.3355 25.3311 10.3245 24.6678 9.87517 23.3412C9.65053 22.7725 9.53821 22.204 9.53821 21.6354C9.76285 17.5607 10.2122 13.4859 10.4369 9.41122C10.5492 7.42119 10.6615 5.4312 10.5492 3.44122C10.4369 1.45122 8.97656 0.314085 6.84227 0.124561C3.80933 -0.159723 2.01203 0.598369 1.33805 2.49359C1.00106 3.53598 0.776394 4.67311 0.776394 5.81025C0.776394 9.97976 0.888724 14.1493 1.00106 18.3187H0.888724C0.776393 21.4459 0.664062 24.573 0.664062 27.7001C0.664062 29.7849 2.01203 31.0168 4.37099 31.4906C5.04497 31.5854 5.71896 31.6801 6.50527 31.7749C10.6615 31.8697 17.8507 32.1539 18.7493 32.1539C22.5686 32.1539 23.0179 30.6378 23.0179 28.2687C23.0179 25.9945 21.2206 24.8573 18.0754 24.7626ZM100.527 22.9621C99.1781 22.1092 97.1561 22.204 95.8085 23.2463C95.584 23.4359 95.2469 23.6254 95.0224 23.815C94.6853 24.0044 94.3481 24.2888 94.011 24.4782C93.1123 25.0468 91.9891 25.3311 90.9785 25.3311C88.6195 25.3311 86.5973 24.0992 85.8109 22.2987C85.1369 20.6878 85.1369 18.9821 85.8109 17.2764C86.5973 15.3812 88.2823 14.1493 90.4169 14.1493C91.8764 14.1493 93.2249 14.6231 94.3481 15.6654L94.4608 15.7602C94.6853 15.9497 94.9097 16.234 95.2469 16.3288C96.7072 17.1816 98.2793 17.2764 99.965 16.5183C101.313 15.855 101.987 14.8126 101.762 13.3911C101.537 11.7803 100.414 10.4536 98.2793 9.41122C95.6958 8.17928 92.6633 7.70548 89.5182 7.98976C84.0136 8.46357 80.3067 10.8326 78.5094 14.9074C77.1614 17.8449 77.1614 21.0669 78.1724 24.4782C79.071 27.4159 81.2054 29.4058 84.3506 30.543C85.5863 31.0168 86.9342 31.3011 88.2823 31.4906C90.6414 31.8697 93.7865 31.5854 95.3587 31.2063C96.3701 30.9221 97.3815 30.6378 98.2793 30.164C100.189 29.3111 101.313 28.174 101.874 26.7525C102.436 25.3311 101.874 23.815 100.527 22.9621Z"
                fill="#C1C1C1" />
        </g>
    </g>
    <defs>
        <clipPath id="clip0_131_54">
            <rect width="130" height="32.9333" fill="white"
                transform="translate(0.664062 0.0666504)" />
        </clipPath>
    </defs>
</svg>