<svg width="111" height="55" viewBox="0 0 111 55" fill="none" xmlns="http://www.w3.org/2000/svg">
<path fill-rule="evenodd" clip-rule="evenodd" d="M48.6264 13.0739C48.3791 13.32 48.4391 45.9423 48.6892 47.2868C49.057 49.2631 50.2595 50.673 52.1317 51.3225C53.4249 51.7712 53.4155 51.8045 53.4155 46.7001V42.0791L54.0852 42.0494C54.4534 42.0329 55.0538 42.0399 55.4191 42.0647C55.7845 42.0895 56.1937 42.042 56.3286 41.9591C56.4636 41.8761 56.8473 41.7867 57.1811 41.7606C59.4097 41.586 62.3483 38.6701 62.8538 36.1314C63.0304 35.2454 63.0427 19.6513 62.8676 18.8009C62.406 16.5593 60.2534 14.0963 58.2622 13.5319C57.8064 13.4027 57.2944 13.2511 57.1244 13.1951C56.6258 13.0308 48.782 12.9191 48.6264 13.0739ZM66.4901 15.2651C66.4291 15.423 66.4065 23.2052 66.4394 32.5586C66.4994 49.5279 66.5006 49.5671 66.9467 50.4879C67.5865 51.8089 69.0202 53.0247 70.1866 53.2352C70.4782 53.2879 70.8082 53.3872 70.9202 53.4561C71.2947 53.6864 71.3738 52.6185 71.3061 48.2573L71.2387 43.9245L72.917 43.9247C76.0312 43.9251 78.4487 42.7153 79.8972 40.4311C80.9616 38.7527 81.0111 38.224 80.9653 28.9976L80.9229 20.4417L80.3549 19.2907C79.6747 17.9129 77.9235 16.2006 76.5528 15.5728C75.6503 15.1593 75.1814 15.1144 71.0831 15.0494C67.3831 14.9905 66.5814 15.028 66.4901 15.2651ZM35.3864 16.3169C34.0286 16.7816 33.1875 17.2871 32.2955 18.175C31.4079 19.0587 30.4901 20.7005 30.3984 21.5697C30.3685 21.8517 30.2416 22.5439 30.1161 23.1079C29.9632 23.7954 29.9144 26.7016 29.9675 31.927C30.0436 39.3932 30.066 39.7685 30.5033 40.8647C31.5751 43.5525 33.7625 45.1316 36.9157 45.4944C39.4812 45.7895 42.4679 43.9629 43.8414 41.2587C44.3336 40.2895 44.4242 39.8366 44.4846 38.041L44.5551 35.9513L43.6796 35.8236C43.1981 35.7532 42.1087 35.7245 41.2587 35.7598L39.7134 35.8237V38.1313V40.439L37.2923 40.4386L34.8713 40.4383V35.6186V30.7989H39.4822C43.2708 30.7989 44.1374 30.7456 44.3425 30.4999C44.525 30.2807 44.5732 29.0604 44.5222 25.9366C44.4525 21.6769 44.4519 21.671 43.8411 20.4712C42.9487 18.7181 41.8489 17.5806 40.3225 16.8329C38.7615 16.0679 36.7335 15.856 35.3864 16.3169ZM53.4155 27.193C53.4155 32.3162 53.3593 36.6539 53.2905 36.8324C53.1807 37.1173 53.4695 37.1569 55.6559 37.1569H58.1464L58.202 27.8602C58.2327 22.7469 58.2278 18.4092 58.1911 18.2207C58.1334 17.9244 57.806 17.878 55.77 17.878H53.4155V27.193ZM71.3417 29.6197C71.4382 38.6859 71.468 39.3087 71.8053 39.2847C72.0036 39.2705 73.0931 39.2476 74.2264 39.2334L76.2869 39.2078V29.5684V19.9289H73.7627L71.2387 19.9288L71.3417 29.6197ZM37.0863 21.1152L34.8713 21.1735V23.6127C34.8713 25.6948 34.9201 26.0615 35.2043 26.1181C35.3874 26.1546 36.4537 26.1552 37.5738 26.1195L39.6104 26.0545V23.6192C39.6104 22.2798 39.5408 21.1552 39.4558 21.1204C39.3709 21.0855 38.3044 21.0832 37.0863 21.1152ZM84.4672 25.6121C84.4144 25.7013 84.3548 26.7211 84.3351 27.8782C84.2965 30.1268 84.3165 30.1709 85.4226 30.2889C85.6676 30.3151 87.7027 30.3481 89.9453 30.3625L94.0214 30.3888L93.9627 32.3595L93.9039 34.33L92.2556 34.3304C90.6127 34.3309 89.1877 34.6656 87.9221 35.3483C87.0098 35.8406 85.5128 37.5155 84.9313 38.695C84.4422 39.6871 84.4257 39.8641 84.4257 44.1301C84.4257 48.9866 84.5341 49.6349 85.6134 51.2312C86.4436 52.4591 87.6623 53.3934 89.2096 53.9872C90.232 54.3798 90.9198 54.4586 94.0465 54.5425C96.0521 54.5962 97.926 54.5816 98.2128 54.5103L98.7329 54.3802L98.7384 43.051C98.7455 31.1244 98.7165 30.7027 97.7968 29.2238C96.8026 27.6261 94.8965 26.1636 93.2576 25.7409C92.435 25.5291 84.5846 25.414 84.4672 25.6121ZM12.3606 26.2219C12.0464 26.3047 12 26.5918 12 28.4553C12 30.0186 12.0692 30.5994 12.2576 30.6141C12.3993 30.6252 12.7006 30.6544 12.9272 30.6788C13.1539 30.7031 14.1507 30.7403 15.1422 30.761L16.9451 30.7989V42.775C16.9451 53.5063 16.9789 54.764 17.2711 54.8755C17.4504 54.944 18.5068 55 19.6186 55C21.3032 55 21.6618 54.9438 21.7699 54.6632C21.8414 54.478 21.8925 49.1019 21.8837 42.7165L21.8676 31.1066L22.3425 31.0596C22.6038 31.0335 23.652 30.9874 24.672 30.9571L26.5263 30.9015V28.5429V26.1843L19.6237 26.1554C15.8273 26.1396 12.559 26.1695 12.3606 26.2219ZM89.0616 44.4377V49.6676H91.534H94.0073V44.4377V39.2078H91.534H89.0616V44.4377Z" fill="#C1C1C1"/>
</svg>
