<svg width="113" height="70" viewBox="0 0 113 70" fill="none" xmlns="http://www.w3.org/2000/svg">
<g clip-path="url(#clip0_131_60)">
<path d="M1.70911 38.104L6.14769 68.7438H13.7567L19.4634 54.3748L25.3815 68.7438H32.9906L36.3723 42.5415C35.6888 43.0175 34.7899 42.0894 34.4701 41.4849C34.4701 41.4849 32.9906 38.5266 30.8769 38.7379C28.7634 38.9492 29.1861 43.1754 29.1861 43.1754C29.2045 44.3117 28.8104 44.3473 28.1292 44.4433L27.2838 56.0653L23.0566 44.2319L15.8703 44.4433L11.8545 55.6427L9.3181 36.6248L1.70911 38.104Z" fill="#C1C1C1" stroke="#C1C1C1"/>
<path fill-rule="evenodd" clip-rule="evenodd" d="M27.9179 37.8927V44.232C28.866 44.3484 29.0499 43.9095 28.9746 42.5415C28.8021 40.0942 29.1213 39.1614 30.6656 38.5267C32.5249 38.1263 33.304 39.3096 34.6814 41.485C35.3977 42.302 35.8162 42.4513 36.5837 42.1189C36.5837 42.1189 37.6404 41.6962 38.2746 40.0058C38.9087 38.3153 38.825 36.6933 36.3723 35.9909C32.9202 35.379 30.4335 35.1695 29.1861 35.5683C28.3406 35.8385 27.9806 36.7337 27.9179 37.8927ZM34.8927 36.8361C33.8359 36.2021 32.3443 36.4689 31.511 36.8361C33.8844 37.3218 34.6814 38.104 36.1609 40.4284C36.1984 38.8209 35.9496 37.47 34.8927 36.8361Z" fill="#F0F0F0"/>
<path d="M27.9179 44.2319H27.3954V44.6941L27.8542 44.7505L27.9179 44.2319ZM27.9179 37.8927L27.3961 37.8644L27.3954 37.8785V37.8927H27.9179ZM28.9746 42.5415L29.4964 42.5128L29.4959 42.5047L28.9746 42.5415ZM30.6656 38.5266L30.5556 38.0159L30.51 38.0258L30.4669 38.0434L30.6656 38.5266ZM34.6814 41.4849L34.2399 41.7644L34.2616 41.7987L34.2885 41.8293L34.6814 41.4849ZM36.5837 42.1189L36.3896 41.6338L36.3827 41.6366L36.376 41.6395L36.5837 42.1189ZM36.3723 35.9908L36.5162 35.4886L36.4902 35.4812L36.4635 35.4765L36.3723 35.9908ZM31.511 36.8361L31.3002 36.358L29.8 37.0191L31.4062 37.3478L31.511 36.8361ZM36.1609 40.4283L35.7201 40.7087L36.6432 42.159L36.6833 40.4404L36.1609 40.4283ZM28.4404 44.2319V37.8927H27.3954V44.2319H28.4404ZM28.453 42.5701C28.4712 42.9032 28.4723 43.1572 28.4543 43.3509C28.4359 43.5491 28.401 43.6417 28.3784 43.6804C28.3678 43.6988 28.3652 43.7022 28.3393 43.7102C28.2913 43.725 28.1865 43.7386 27.9815 43.7134L27.8542 44.7505C28.1234 44.7835 28.3969 44.7859 28.6479 44.7084C28.9207 44.624 29.1371 44.4541 29.2815 44.2062C29.4141 43.9787 29.4703 43.7125 29.4948 43.4473C29.5199 43.1775 29.5156 42.8637 29.4964 42.5128L28.453 42.5701ZM30.4669 38.0434C29.6147 38.3937 29.0135 38.8668 28.6922 39.6577C28.3913 40.3982 28.3669 41.3519 28.4535 42.5783L29.4959 42.5047C29.4098 41.2838 29.4587 40.5473 29.6604 40.0508C29.8416 39.6049 30.1721 39.2942 30.8643 39.0097L30.4669 38.0434ZM35.123 41.2055C34.4492 40.1415 33.8667 39.224 33.1958 38.6446C32.8472 38.3435 32.4609 38.1194 32.01 38.0072C31.5605 37.8952 31.0805 37.9029 30.5556 38.0159L30.7755 39.0373C31.1804 38.9501 31.4949 38.9556 31.7575 39.0209C32.0187 39.086 32.2619 39.2186 32.5126 39.4352C33.0404 39.8911 33.5362 40.6529 34.2399 41.7644L35.123 41.2055ZM36.376 41.6395C36.0473 41.7818 35.8952 41.7767 35.7805 41.738C35.6311 41.6875 35.4249 41.5405 35.0744 41.1407L34.2885 41.8293C34.6542 42.2464 35.0155 42.5825 35.4462 42.7279C35.9118 42.885 36.3526 42.7883 36.7914 42.5982L36.376 41.6395ZM37.7853 39.8224C37.498 40.5884 37.1226 41.0487 36.8369 41.3124C36.6931 41.4451 36.5696 41.5301 36.4879 41.5797C36.447 41.6044 36.4165 41.6203 36.3993 41.6289C36.3906 41.6332 36.3844 41.6359 36.3827 41.6366C36.3817 41.637 36.3819 41.637 36.3827 41.6366C36.3833 41.6364 36.3849 41.6358 36.3859 41.6354C36.3864 41.6351 36.3869 41.6349 36.3876 41.6346C36.3879 41.6345 36.3882 41.6344 36.3886 41.6342C36.3887 41.6342 36.3896 41.6339 36.3896 41.6338C36.39 41.6337 36.3896 41.6338 36.5837 42.1189C36.7778 42.6039 36.778 42.6038 36.7783 42.6037C36.7781 42.6037 36.7784 42.6037 36.7783 42.6037C36.7787 42.6034 36.7798 42.603 36.7802 42.6029C36.781 42.6025 36.7819 42.6022 36.783 42.6018C36.785 42.6009 36.7873 42.6 36.7898 42.599C36.7948 42.5968 36.8009 42.5941 36.808 42.591C36.822 42.5848 36.8399 42.5765 36.8615 42.5659C36.9044 42.5447 36.9615 42.5144 37.0295 42.4732C37.1658 42.3906 37.3462 42.2643 37.5458 42.0801C37.9471 41.7097 38.4171 41.1136 38.7638 40.1892L37.7853 39.8224ZM36.2284 36.4931C37.3531 36.8151 37.8143 37.3079 37.9881 37.8013C38.175 38.3317 38.0878 39.016 37.7853 39.8224L38.7638 40.1892C39.0954 39.3051 39.2834 38.3331 38.9738 37.4543C38.6512 36.5384 37.8443 35.8689 36.5162 35.4886L36.2284 36.4931ZM29.3452 36.0658C29.8706 35.8979 30.7216 35.8436 31.9183 35.9218C33.1 35.999 34.5635 36.2007 36.2811 36.5052L36.4635 35.4765C34.729 35.169 33.2231 34.9601 31.9865 34.8793C30.765 34.7995 29.7489 34.8398 29.0269 35.0706L29.3452 36.0658ZM28.4396 37.9209C28.5004 36.7973 28.8373 36.2281 29.3452 36.0658L29.0269 35.0706C27.8439 35.4488 27.4607 36.6701 27.3961 37.8644L28.4396 37.9209ZM31.7217 37.3141C32.0837 37.1545 32.6034 37.0119 33.1466 36.9822C33.6921 36.9524 34.2145 37.0383 34.624 37.284L35.1616 36.3881C34.5142 35.9997 33.7624 35.9021 33.0895 35.939C32.4143 35.9759 31.7716 36.1503 31.3002 36.358L31.7217 37.3141ZM36.6018 40.1478C35.861 38.984 35.2527 38.1411 34.4983 37.5354C33.7285 36.9171 32.8467 36.5761 31.6157 36.3242L31.4062 37.3478C32.5486 37.5816 33.252 37.8746 33.844 38.35C34.4514 38.8378 34.9814 39.5482 35.7201 40.7087L36.6018 40.1478ZM34.624 37.284C35.4035 37.7516 35.6762 38.8025 35.6386 40.4161L36.6833 40.4404C36.7207 38.8391 36.4957 37.1884 35.1616 36.3881L34.624 37.284Z" fill="#F0F0F0"/>
<path d="M40.1768 57.1218C43.9814 65.7855 54.5494 67.0533 54.5494 67.0533C65.7515 68.1099 71.0356 61.5593 71.4583 60.2914C70.3161 61.1795 68.7106 61.5267 68.0765 61.1366C66.3421 60.0699 65.7515 56.4879 64.9061 54.1635C64.6948 53.5824 63.4266 55.0087 63.4266 57.1218C61.5244 59.8688 64.2721 59.141 59.1994 60.0802C53.4926 61.1366 48.8426 58.1784 47.9972 55.6426C46.9405 52.473 44.8268 55.22 43.77 57.1218C43.4769 57.6493 41.4378 57.2221 40.1768 57.1218Z" fill="#C1C1C1" stroke="#C1C1C1"/>
<path fill-rule="evenodd" clip-rule="evenodd" d="M37.6405 45.0772C37.0493 51.9879 37.5301 54.6825 40.5996 57.3332C41.5782 58.1784 42.9369 57.8028 43.9813 56.2767C44.8135 54.5645 45.4608 54.9454 46.9404 56.2767C49.054 58.1784 51.3789 57.5004 52.8585 55.8541C57.7506 50.4102 58.7766 50.5713 58.7766 58.8124C58.7766 62.6159 64.0202 61.348 64.0607 58.8124C64.1283 54.5746 64.6858 55.1053 66.1743 58.8124C67.3621 61.7706 70.7602 61.348 71.881 59.8689C77.1651 52.8957 75.2628 42.1188 72.9378 39.7944C70.4015 37.2587 69.5561 35.5682 69.5561 33.4552C69.5561 28.1724 67.4424 26.0592 60.8903 25.4254C62.3697 17.6069 69.9788 8.098 79.9128 5.9849C83.9286 5.13066 82.449 0.374336 79.9128 1.12477C67.9393 4.66724 63.3977 9.58673 58.1426 24.3689C53.4926 20.5652 46.2604 23.5236 44.8268 29.0176C44.6406 29.7313 44.4726 30.3979 44.3154 31.0212C43.4025 34.643 42.8565 36.8092 41.2337 38.3153C38.6148 40.7457 37.8032 43.1754 37.6405 45.0772ZM57.5085 30.1259C60.4234 28.2988 63.0297 29.0437 65.0039 30.1259C67.086 31.2674 67.5024 34.2382 67.086 37.8926C64.9033 32.5773 62.8344 30.8438 57.5085 30.1259ZM66.8084 42.7527C67.8131 42.4464 68.0756 42.0514 68.2879 41.0622C71.0994 43.4408 71.481 45.4398 71.2469 49.5147C70.0777 45.1815 69.2178 43.365 66.8084 42.7527ZM52.2245 50.3599C54.7609 47.6129 56.129 46.4387 57.2972 46.1338C60.0449 45.4165 60.8216 47.4817 61.9471 50.9939C59.4107 46.979 56.9759 47.023 52.2245 50.3599ZM67.8651 54.1635C69.06 56.6064 69.6401 56.2794 70.6127 54.1635C69.7111 54.6851 69.1372 54.8442 67.8651 54.1635Z" fill="#CBCBCB"/>
<path d="M43.9812 56.2766L44.4125 56.5716L44.4344 56.5397L44.4513 56.5049L43.9812 56.2766ZM60.8902 25.4253L60.3768 25.3282L60.2704 25.8902L60.8399 25.9452L60.8902 25.4253ZM58.1426 24.3689L57.8116 24.7731L58.3863 25.2431L58.6349 24.5438L58.1426 24.3689ZM57.5084 30.1259L57.2309 29.6833L56.0067 30.4506L57.4386 30.6436L57.5084 30.1259ZM67.0859 37.8926L66.6026 38.091L67.6051 37.9517L67.0859 37.8926ZM68.2879 41.0622L68.6253 40.6634L67.9599 40.1004L67.777 40.9526L68.2879 41.0622ZM66.8084 42.7526L66.6559 42.253L64.8674 42.7985L66.6796 43.2589L66.8084 42.7526ZM71.2469 49.5146L70.7425 49.6507L71.7686 49.5445L71.2469 49.5146ZM52.2244 50.3599L51.8405 50.0056L52.5248 50.7874L52.2244 50.3599ZM61.9471 50.9938L61.5052 51.2728L62.4446 50.8345L61.9471 50.9938ZM67.8651 54.1635L68.1116 53.7029L66.6846 52.9395L67.3957 54.393L67.8651 54.1635ZM70.6127 54.1635L71.0875 54.3816L71.7739 52.8883L70.3511 53.7113L70.6127 54.1635ZM40.941 56.9379C39.4759 55.6726 38.6577 54.4289 38.2565 52.6855C37.8466 50.9041 37.8656 48.5756 38.1611 45.1217L37.1198 45.0327C36.8242 48.4894 36.788 50.9635 37.2381 52.9198C37.697 54.914 38.6537 56.3431 40.2579 57.7285L40.941 56.9379ZM43.5501 55.9816C43.0712 56.6813 42.5584 57.06 42.1146 57.1941C41.6934 57.3213 41.295 57.2435 40.941 56.9379L40.2579 57.7285C40.8827 58.2681 41.653 58.425 42.4169 58.1942C43.1582 57.9702 43.847 57.3981 44.4125 56.5716L43.5501 55.9816ZM47.2899 55.8883C46.92 55.5554 46.5807 55.2623 46.2694 55.0456C45.9648 54.8334 45.6308 54.6537 45.273 54.6159C44.8772 54.5741 44.5278 54.7121 44.2334 54.9822C43.96 55.233 43.729 55.6005 43.5113 56.0483L44.4513 56.5049C44.6497 56.0967 44.8117 55.8697 44.94 55.752C45.0472 55.6535 45.1082 55.649 45.1632 55.6548C45.2561 55.6646 45.4135 55.7227 45.6722 55.9029C45.9245 56.0786 46.221 56.3321 46.5908 56.6649L47.2899 55.8883ZM52.4698 55.5049C51.7931 56.2579 50.9485 56.7605 50.068 56.878C49.2041 56.9934 48.2443 56.747 47.2899 55.8883L46.5908 56.6649C47.75 57.7079 49.0095 58.0734 50.2064 57.9136C51.3867 57.756 52.4444 57.0964 53.2471 56.2031L52.4698 55.5049ZM59.2991 58.8123C59.2991 56.7501 59.2355 55.159 59.0559 54.0261C58.9662 53.4602 58.8433 52.9788 58.6683 52.6002C58.4937 52.2223 58.2418 51.8935 57.8662 51.7248C57.4829 51.5526 57.0768 51.5941 56.6982 51.7353C56.3252 51.8744 55.9329 52.1259 55.5223 52.4514C54.7 53.1033 53.6926 54.1441 52.4698 55.5049L53.2471 56.2031C54.4704 54.842 55.4258 53.8613 56.1717 53.27C56.5453 52.9738 56.8385 52.7981 57.0635 52.7142C57.2829 52.6324 57.3872 52.655 57.4379 52.6778C57.4963 52.704 57.6021 52.784 57.7196 53.0384C57.8369 53.292 57.9409 53.6665 58.0237 54.1896C58.1894 55.2345 58.2541 56.7539 58.2541 58.8123H59.2991ZM63.5381 58.804C63.531 59.247 63.2973 59.6693 62.8826 60.0163C62.4667 60.3642 61.9034 60.6032 61.341 60.6709C60.7764 60.7389 60.2685 60.6297 59.914 60.3586C59.5762 60.1003 59.2991 59.6351 59.2991 58.8123H58.2541C58.2541 59.8914 58.6325 60.694 59.2791 61.1884C59.909 61.6701 60.7145 61.7987 61.466 61.7081C62.2193 61.6174 62.9746 61.3016 63.5532 60.8176C64.1331 60.3325 64.5699 59.6454 64.5831 58.8207L63.5381 58.804ZM66.6591 58.6178C66.2865 57.6895 65.9645 56.9407 65.6891 56.4114C65.5522 56.1483 65.417 55.92 65.2824 55.7461C65.2149 55.6589 65.1378 55.5726 65.05 55.5005C64.9648 55.4305 64.8429 55.3517 64.6865 55.3207C64.5126 55.2861 64.3366 55.3191 64.1868 55.4146C64.052 55.5005 63.9661 55.6189 63.911 55.7169C63.8039 55.9076 63.7403 56.1557 63.6953 56.4136C63.6027 56.9455 63.5551 57.7424 63.5381 58.804L64.5831 58.8207C64.6 57.7634 64.6474 57.0376 64.7249 56.5928C64.765 56.3625 64.8051 56.2589 64.8223 56.2283C64.8294 56.2156 64.8108 56.256 64.7485 56.2956C64.6713 56.3448 64.5731 56.3634 64.4829 56.3454C64.4099 56.3309 64.3769 56.2997 64.3865 56.3077C64.3936 56.3134 64.417 56.3353 64.456 56.3856C64.5345 56.487 64.6363 56.6517 64.762 56.8935C65.0119 57.3739 65.3178 58.0816 65.6893 59.007L66.6591 58.6178ZM71.4645 59.5535C71.0289 60.1282 70.0838 60.5528 69.089 60.4835C68.1365 60.4172 67.1733 59.8983 66.6591 58.6178L65.6893 59.007C66.363 60.6847 67.6927 61.4336 69.0164 61.5257C70.2979 61.6149 71.6123 61.0887 72.2975 60.1843L71.4645 59.5535ZM72.5684 40.1638C73.0556 40.6511 73.58 41.658 73.995 43.0776C74.4043 44.4776 74.6887 46.2158 74.7404 48.1026C74.8441 51.8845 74.012 56.1916 71.4645 59.5535L72.2975 60.1843C75.034 56.5729 75.8928 52.005 75.7851 48.074C75.7311 46.1044 75.4343 44.2768 74.9982 42.7845C74.5676 41.3117 73.9824 40.1 73.3073 39.425L72.5684 40.1638ZM69.0335 33.4552C69.0335 35.7682 69.9883 37.5843 72.5684 40.1638L73.3073 39.425C70.8146 36.9329 70.0786 35.3682 70.0786 33.4552H69.0335ZM60.8399 25.9452C64.091 26.2598 66.1071 26.9341 67.3221 28.0773C68.515 29.1998 69.0335 30.8716 69.0335 33.4552H70.0786C70.0786 30.7559 69.5402 28.7297 68.0382 27.3165C66.5584 25.924 64.2417 25.2247 60.9405 24.9054L60.8399 25.9452ZM79.8039 5.47391C74.7088 6.55772 70.2318 9.53195 66.8464 13.2119C63.4634 16.8894 61.1377 21.307 60.3768 25.3282L61.4036 25.5224C62.1222 21.7251 64.3407 17.4791 67.6156 13.9192C70.8882 10.3619 75.1826 7.52509 80.0214 6.49581L79.8039 5.47391ZM80.061 1.62565C80.5178 1.4905 80.9084 1.59974 81.2167 1.85179C81.5378 2.11439 81.7781 2.54342 81.8533 3.03246C81.9277 3.51618 81.8361 4.02874 81.5349 4.46088C81.2368 4.88847 80.7013 5.28303 79.8039 5.47391L80.0214 6.49581C81.1321 6.25956 81.9175 5.73926 82.3923 5.05823C82.8638 4.38176 82.9967 3.59197 82.8862 2.87362C82.7765 2.16062 82.4224 1.48787 81.8782 1.04303C81.3213 0.587642 80.5758 0.383758 79.7644 0.623822L80.061 1.62565ZM58.6349 24.5438C61.2567 17.1687 63.677 12.3276 66.8901 8.88848C70.0908 5.46258 74.1209 3.38309 80.061 1.62565L79.7644 0.623822C73.7312 2.40886 69.5037 4.56033 66.1264 8.17533C62.7615 11.777 60.2834 16.7868 57.6501 24.1939L58.6349 24.5438ZM45.3324 29.1496C46.0003 26.5896 48.0289 24.5965 50.4599 23.6964C52.8852 22.7986 55.6538 23.008 57.8116 24.7731L58.4734 23.9645C55.9812 21.926 52.8087 21.7128 50.0971 22.7167C47.3912 23.7185 45.0868 25.9515 44.3212 28.8857L45.3324 29.1496ZM44.8221 31.1488C44.9793 30.5253 45.1468 29.8608 45.3324 29.1496L44.3212 28.8857C44.1343 29.6018 43.9658 30.2704 43.8087 30.8936L44.8221 31.1488ZM41.5891 38.6982C43.3498 37.064 43.9228 34.7165 44.8221 31.1488L43.8087 30.8936C42.8822 34.5693 42.3631 36.5542 40.8781 37.9325L41.5891 38.6982ZM38.1611 45.1217C38.3131 43.3439 39.0694 41.0365 41.5891 38.6982L40.8781 37.9325C38.1603 40.4547 37.2932 43.0068 37.1198 45.0327L38.1611 45.1217ZM65.2551 29.6679C63.1939 28.5379 60.3703 27.7155 57.2309 29.6833L57.786 30.5686C60.4763 28.8822 62.8654 29.5494 64.7527 30.5839L65.2551 29.6679ZM67.6051 37.9517C67.8164 36.0978 67.8225 34.374 67.4908 32.9485C67.1575 31.5164 66.4688 30.3332 65.2551 29.6679L64.7527 30.5839C65.621 31.06 66.1815 31.9328 66.4729 33.1852C66.7658 34.4441 66.772 36.0329 66.5667 37.8334L67.6051 37.9517ZM57.4386 30.6436C60.0608 30.997 61.7982 31.5909 63.1455 32.69C64.4993 33.7941 65.5215 35.4583 66.6026 38.091L67.5693 37.6943C66.4678 35.0116 65.3642 33.1514 63.8062 31.8805C62.242 30.6045 60.2819 29.9726 57.5782 29.6082L57.4386 30.6436ZM67.777 40.9526C67.6738 41.4329 67.5756 41.6713 67.4443 41.8286C67.3207 41.9764 67.1166 42.1125 66.6559 42.253L66.9608 43.2524C67.5048 43.0865 67.9343 42.872 68.2463 42.4983C68.5503 42.1343 68.6895 41.6807 68.7987 41.1718L67.777 40.9526ZM71.7686 49.5445C71.8861 47.4995 71.8562 45.8979 71.4072 44.4933C70.9513 43.0669 70.0813 41.8951 68.6253 40.6634L67.9504 41.461C69.306 42.6078 70.0326 43.6248 70.4117 44.8113C70.798 46.0196 70.8419 47.4549 70.7252 49.4847L71.7686 49.5445ZM66.6796 43.2589C67.7499 43.5309 68.4553 44.0531 69.0481 45.0128C69.6653 46.012 70.1565 47.4794 70.7425 49.6507L71.7514 49.3785C71.168 47.2167 70.6447 45.6092 69.9373 44.4639C69.2054 43.2789 68.2762 42.5867 66.9371 42.2463L66.6796 43.2589ZM57.1651 45.6283C56.4722 45.8091 55.7678 46.2351 54.9381 46.9308C54.1062 47.6282 53.1116 48.6289 51.8405 50.0056L52.6084 50.7143C53.8736 49.3439 54.8313 48.384 55.6096 47.7313C56.39 47.0769 56.9539 46.7632 57.4291 46.6391L57.1651 45.6283ZM62.4446 50.8345C61.8915 49.108 61.3902 47.6106 60.6417 46.6555C60.2533 46.1598 59.7801 45.7836 59.1791 45.5976C58.5829 45.4131 57.9155 45.4324 57.1651 45.6283L57.4291 46.6391C58.0526 46.4764 58.5126 46.485 58.87 46.5956C59.2227 46.7048 59.5293 46.93 59.8191 47.2999C60.4274 48.0762 60.8773 49.3674 61.4494 51.1533L62.4446 50.8345ZM52.5248 50.7874C54.8997 49.1195 56.5654 48.3774 57.8911 48.4418C59.1523 48.5029 60.2674 49.3133 61.5052 51.2728L62.3888 50.7149C61.0904 48.6595 59.7199 47.4844 57.9417 47.3981C56.2281 47.315 54.3006 48.2634 51.9241 49.9324L52.5248 50.7874ZM67.3957 54.393C67.6991 55.0134 67.9823 55.4988 68.2635 55.8298C68.533 56.1472 68.9017 56.4393 69.3734 56.3929C69.8193 56.3492 70.1384 56.0183 70.3645 55.7059C70.606 55.3721 70.8421 54.9156 71.0875 54.3816L70.1379 53.9453C69.8972 54.4693 69.6959 54.8473 69.5177 55.0935C69.3242 55.3611 69.2412 55.3561 69.2712 55.3532C69.3269 55.3477 69.2656 55.3957 69.0601 55.1535C68.8658 54.9248 68.6285 54.535 68.3344 53.934L67.3957 54.393ZM70.3511 53.7113C69.9119 53.9654 69.6353 54.0791 69.3528 54.0925C69.0731 54.1059 68.7103 54.0233 68.1116 53.7029L67.6185 54.6241C68.2919 54.9844 68.852 55.1625 69.4027 55.1362C69.9507 55.1098 70.4118 54.8832 70.8744 54.6157L70.3511 53.7113Z" fill="#CBCBCB"/>
<path fill-rule="evenodd" clip-rule="evenodd" d="M48.4198 41.9076C47.1431 40.9704 46.7636 40.3205 45.8834 38.3152C40.5994 41.9076 38.6972 46.7676 40.5994 53.5295C40.8966 54.5861 42.276 55.6426 43.3471 53.5295C44.5633 51.1302 45.4397 51.247 47.363 54.1635C49.0351 56.6992 50.3221 56.0653 52.8584 53.1069C56.4515 48.9159 60.89 48.4581 60.4673 56.0653C60.2325 60.2914 62.581 60.2914 62.3696 56.4879C62.3696 52.2617 65.54 51.2051 67.0196 56.0653C68.1132 59.6576 69.7673 59.235 71.4581 56.2766C74.8398 50.3599 74.2058 41.2736 67.4423 38.1039C66.7964 40.7437 66.0737 41.6209 64.2719 42.3302C66.4166 43.1797 67.0152 43.9142 67.4423 45.4998C61.1015 42.3302 50.7448 42.3302 44.6153 45.4998C45.1688 44.0411 45.9427 43.2513 48.4198 41.9076ZM68.2879 41.0622C68.0756 42.0514 67.8131 42.4462 66.8084 42.7527C69.2178 43.3649 70.0776 45.1815 71.2469 49.5146C71.481 45.4398 71.0994 43.4408 68.2879 41.0622ZM57.2971 46.1338C56.129 46.4386 54.7608 47.6129 52.2244 50.3599C56.9759 47.023 59.4107 46.979 61.9471 50.9939C60.8216 47.4816 60.0448 45.4164 57.2971 46.1338ZM67.865 54.1635C69.06 56.6064 69.6401 56.2794 70.6127 54.1635C69.711 54.6851 69.1372 54.8442 67.865 54.1635Z" fill="#F0F0F0"/>
<path d="M45.8834 38.3152L46.362 38.1053L46.1094 37.5299L45.5896 37.8833L45.8834 38.3152ZM48.4198 41.9076L48.669 42.3666L49.3931 41.9738L48.729 41.4864L48.4198 41.9076ZM62.3696 56.4879H61.8471V56.5023L61.8479 56.5169L62.3696 56.4879ZM67.4423 38.1039L67.664 37.631L67.0864 37.3602L66.9347 37.9798L67.4423 38.1039ZM64.2719 42.3302L64.0804 41.844L62.8494 42.3286L64.0794 42.8158L64.2719 42.3302ZM67.4423 45.4998L67.2086 45.967L68.2495 46.4873L67.9468 45.3639L67.4423 45.4998ZM44.6153 45.4998L44.1267 45.3145L43.6423 46.5911L44.8553 45.9638L44.6153 45.4998ZM66.8084 42.7527L66.6559 42.2531L64.8674 42.7985L66.6796 43.259L66.8084 42.7527ZM68.2879 41.0622L68.6254 40.6634L67.9599 40.1004L67.777 40.9526L68.2879 41.0622ZM71.2469 49.5146L70.7425 49.6507L71.7686 49.5446L71.2469 49.5146ZM52.2245 50.3599L51.8405 50.0056L52.5248 50.7874L52.2245 50.3599ZM61.9471 50.9939L61.5053 51.2728L62.4446 50.8345L61.9471 50.9939ZM67.865 54.1635L68.1116 53.703L66.6846 52.9396L67.3957 54.3931L67.865 54.1635ZM70.6127 54.1635L71.0876 54.3817L71.7739 52.8884L70.3511 53.7113L70.6127 54.1635ZM45.405 38.5252C45.8434 39.524 46.176 40.2313 46.5723 40.8078C46.9796 41.4004 47.441 41.8371 48.1106 42.3286L48.729 41.4864C48.1218 41.0407 47.7552 40.6841 47.4335 40.2161C47.1009 39.7321 46.8037 39.1117 46.362 38.1053L45.405 38.5252ZM41.1024 53.3881C40.1725 50.0822 40.1859 47.2916 41.0386 44.9098C41.8908 42.5291 43.6027 40.4975 46.1773 38.7472L45.5896 37.8833C42.8802 39.7252 40.999 41.9199 40.0547 44.5577C39.1107 47.1945 39.1242 50.215 40.0964 53.671L41.1024 53.3881ZM42.8811 53.2934C42.6385 53.7718 42.4058 54.0149 42.2266 54.1292C42.0613 54.2347 41.9276 54.2416 41.8126 54.2121C41.5342 54.1408 41.2187 53.8016 41.1024 53.3881L40.0964 53.671C40.2774 54.3141 40.8002 55.0314 41.5535 55.2243C41.9544 55.3269 42.3849 55.2677 42.7888 55.0099C43.1788 54.761 43.5202 54.3437 43.8132 53.7657L42.8811 53.2934ZM47.7992 53.876C47.3127 53.1383 46.8762 52.552 46.4704 52.1332C46.0745 51.7245 45.6465 51.41 45.1692 51.3368C44.6473 51.2566 44.2066 51.481 43.8493 51.8353C43.5048 52.177 43.1915 52.6808 42.8811 53.2934L43.8132 53.7657C44.1108 53.1786 44.3631 52.7974 44.5852 52.5771C44.7944 52.3696 44.921 52.3556 45.0106 52.3694C45.1448 52.39 45.3726 52.5017 45.7198 52.8601C46.0573 53.2085 46.4515 53.7305 46.9268 54.451L47.7992 53.876ZM52.4617 52.767C51.8327 53.5006 51.2967 54.0716 50.8228 54.4818C50.3442 54.896 49.9675 55.1121 49.6603 55.1886C49.3822 55.2579 49.1314 55.2215 48.8505 55.0431C48.5462 54.85 48.2009 54.4851 47.7992 53.876L46.9268 54.451C47.3611 55.1098 47.8039 55.6165 48.2904 55.9252C48.8003 56.2488 49.3433 56.3444 49.9131 56.2024C50.4536 56.0676 50.9786 55.7289 51.5068 55.2716C52.0399 54.8101 52.6159 54.1925 53.2551 53.4469L52.4617 52.767ZM60.989 56.0943C61.097 54.1526 60.8998 52.6638 60.4423 51.5983C59.9768 50.5144 59.2285 49.8482 58.2751 49.6503C57.3518 49.4587 56.341 49.729 55.3668 50.2758C54.3855 50.8266 53.3886 51.6857 52.4617 52.767L53.2551 53.4469C54.1246 52.4326 55.0301 51.6629 55.8784 51.1868C56.7337 50.7068 57.4799 50.5523 58.0626 50.6732C58.6151 50.7879 59.1218 51.1717 59.482 52.0104C59.85 52.8677 60.0491 54.1744 59.9457 56.0363L60.989 56.0943ZM61.8479 56.5169C61.8983 57.423 61.7921 58.0533 61.6431 58.4276C61.5684 58.6151 61.4936 58.7115 61.4481 58.7527C61.4087 58.7883 61.4163 58.7635 61.4614 58.7679C61.4983 58.7716 61.4784 58.7874 61.4146 58.7146C61.3503 58.6413 61.2669 58.5049 61.1894 58.2793C61.0347 57.8292 60.9327 57.1096 60.989 56.0943L59.9457 56.0363C59.8846 57.134 59.9881 57.9993 60.2011 58.6189C60.3075 58.9283 60.4484 59.1979 60.629 59.4036C60.8099 59.6098 61.0555 59.7775 61.358 59.8076C61.9982 59.8712 62.4093 59.3277 62.6139 58.8141C62.8384 58.2506 62.9467 57.4546 62.8913 56.4589L61.8479 56.5169ZM67.5194 55.9132C67.1353 54.6512 66.6266 53.7207 66.0431 53.1221C65.4554 52.5191 64.7529 52.2216 64.0426 52.3559C63.3451 52.4879 62.7907 53.0088 62.4243 53.7149C62.0558 54.4251 61.8471 55.3713 61.8471 56.4879H62.8921C62.8921 55.4914 63.0797 54.7206 63.3519 54.196C63.6263 53.6673 63.9569 53.4354 64.2369 53.3825C64.5042 53.332 64.8717 53.4174 65.2946 53.8512C65.7216 54.2892 66.1641 55.0493 66.5197 56.2173L67.5194 55.9132ZM71.0045 56.0174C70.5943 56.735 70.2019 57.2704 69.8403 57.6227C69.4719 57.9818 69.1902 58.0987 68.9968 58.1053C68.8321 58.1111 68.6137 58.0398 68.3448 57.7036C68.0689 57.3585 67.7843 56.7831 67.5194 55.9132L66.5197 56.2173C66.8017 57.1436 67.1339 57.8624 67.5285 58.356C67.9303 58.8584 68.4361 59.1702 69.033 59.1495C69.6011 59.1297 70.1183 58.8109 70.5698 58.3708C71.0281 57.9242 71.4765 57.2973 71.9118 56.5358L71.0045 56.0174ZM67.2205 38.5769C70.4151 40.074 72.1806 42.9708 72.7397 46.248C73.3003 49.5345 72.6361 53.1628 71.0045 56.0174L71.9118 56.5358C73.662 53.4736 74.3717 49.6005 73.7698 46.0723C73.1663 42.5347 71.233 39.3035 67.664 37.631L67.2205 38.5769ZM64.4632 42.8162C65.413 42.4424 66.1402 41.9995 66.7061 41.2577C67.2596 40.5321 67.6222 39.5672 67.9499 38.2281L66.9347 37.9798C66.6165 39.2804 66.2948 40.0739 65.8752 40.6242C65.4677 41.1582 64.9325 41.5087 64.0804 41.844L64.4632 42.8162ZM67.9468 45.3639C67.7227 44.5318 67.4358 43.8549 66.8771 43.2761C66.3284 42.7077 65.5599 42.2785 64.4644 41.8445L64.0794 42.8158C65.1285 43.2314 65.7317 43.594 66.1252 44.0017C66.5088 44.399 66.7348 44.8821 66.9377 45.6356L67.9468 45.3639ZM44.8553 45.9638C47.8245 44.4284 51.8571 43.6449 55.9496 43.6449C60.041 43.6449 64.13 44.4281 67.2086 45.967L67.676 45.0326C64.4138 43.4019 60.154 42.6001 55.9496 42.6001C51.746 42.6001 47.5356 43.4015 44.3752 45.0358L44.8553 45.9638ZM48.1706 41.4484C46.9221 42.1257 46.0591 42.6857 45.4349 43.2832C44.7952 43.8955 44.4251 44.5285 44.1267 45.3145L45.1038 45.6851C45.3591 45.0124 45.6526 44.5212 46.1575 44.038C46.6779 43.5399 47.4403 43.0332 48.669 42.3666L48.1706 41.4484ZM66.9608 43.2524C67.5048 43.0865 67.9343 42.8719 68.2463 42.4984C68.5503 42.1344 68.6895 41.6807 68.7987 41.1718L67.777 40.9526C67.6739 41.4329 67.5756 41.6712 67.4442 41.8287C67.3208 41.9764 67.1167 42.1125 66.6559 42.2531L66.9608 43.2524ZM71.7514 49.3785C71.168 47.2167 70.6447 45.6092 69.9373 44.4638C69.2055 43.2789 68.2762 42.5867 66.937 42.2464L66.6796 43.259C67.7499 43.5309 68.4553 44.0531 69.0481 45.0127C69.6653 46.0121 70.1565 47.4795 70.7425 49.6507L71.7514 49.3785ZM67.9504 41.461C69.306 42.6078 70.0326 43.6249 70.4117 44.8113C70.798 46.0196 70.8419 47.4549 70.7252 49.4847L71.7686 49.5446C71.8861 47.4995 71.8562 45.8979 71.4072 44.4933C70.9513 43.0669 70.0813 41.8951 68.6254 40.6634L67.9504 41.461ZM52.6084 50.7143C53.8736 49.344 54.8313 48.3839 55.6096 47.7313C56.3901 47.0769 56.954 46.7633 57.4291 46.6391L57.1652 45.6283C56.4722 45.8092 55.7678 46.235 54.9381 46.9307C54.1062 47.6282 53.1116 48.6289 51.8405 50.0056L52.6084 50.7143ZM62.3888 50.7149C61.0904 48.6595 59.7199 47.4845 57.9417 47.3982C56.2281 47.315 54.3006 48.2635 51.9241 49.9325L52.5248 50.7874C54.8997 49.1195 56.5654 48.3774 57.8911 48.4418C59.1523 48.5029 60.2674 49.3133 61.5053 51.2728L62.3888 50.7149ZM57.4291 46.6391C58.0526 46.4765 58.5126 46.4849 58.87 46.5957C59.2227 46.7049 59.5293 46.93 59.8191 47.2999C60.4274 48.0762 60.8773 49.3675 61.4495 51.1532L62.4446 50.8345C61.8915 49.108 61.3902 47.6106 60.6418 46.6555C60.2533 46.1598 59.7801 45.7837 59.1791 45.5976C58.5829 45.413 57.9155 45.4324 57.1652 45.6283L57.4291 46.6391ZM67.3957 54.3931C67.6992 55.0134 67.9824 55.4988 68.2635 55.8297C68.533 56.1472 68.9017 56.4393 69.3734 56.393C69.8193 56.3492 70.1385 56.0183 70.3645 55.7058C70.606 55.3721 70.8421 54.9156 71.0876 54.3817L70.1379 53.9454C69.8971 54.4693 69.6959 54.8473 69.5177 55.0936C69.3242 55.3611 69.2412 55.3561 69.2712 55.3532C69.3269 55.3477 69.2657 55.3957 69.0601 55.1535C68.8658 54.9248 68.6284 54.535 68.3344 53.9341L67.3957 54.3931ZM70.3511 53.7113C69.9119 53.9654 69.6353 54.079 69.3528 54.0926C69.0732 54.1059 68.7103 54.0233 68.1116 53.703L67.6185 54.6242C68.2919 54.9844 68.852 55.1625 69.4028 55.1361C69.9507 55.1099 70.4118 54.8833 70.8744 54.6157L70.3511 53.7113Z" fill="#F0F0F0"/>
<path fill-rule="evenodd" clip-rule="evenodd" d="M55.6062 26.2705C53.4926 24.4842 51.1676 24.3326 48.6312 27.1157C46.5529 29.3964 45.6722 32.3985 45.6722 34.3003C45.6722 37.47 46.5177 41.0622 48.8427 41.9076C55.3949 40.6396 57.7198 40.4284 63.8493 42.1188C65.362 42.5463 66.0772 41.1943 66.4705 40.4507C66.5169 40.3631 66.5588 40.2839 66.597 40.217C67.3217 38.9492 68.3825 35.3569 67.2311 31.1307C66.6554 29.0176 65.5401 28.084 61.313 28.5949C59.2766 28.8411 58.3565 28.5949 55.6062 26.2705ZM64.9061 30.9193C63.904 30.4187 62.5811 30.0742 61.1016 30.9192C63.8049 31.2513 64.855 32.0531 65.9629 34.5116C66.1743 32.8212 65.9629 31.4472 64.9061 30.9193Z" fill="#CBCBCB"/>
<path d="M48.8427 41.9075L48.7534 42.1529L48.8214 42.1777L48.8923 42.1639L48.8427 41.9075ZM63.8493 42.1188L63.9204 41.8674L63.9188 41.867L63.8493 42.1188ZM61.1016 30.9192L60.972 30.6925L60.289 31.0826L61.0697 31.1785L61.1016 30.9192ZM65.9629 34.5115L65.7247 34.6188L66.1068 35.4667L66.2222 34.5439L65.9629 34.5115ZM48.8244 27.2916C50.0664 25.9288 51.2242 25.32 52.2967 25.2401C53.3679 25.1602 54.4123 25.6035 55.4375 26.4699L55.7749 26.071C54.6866 25.1513 53.5117 24.6256 52.2578 24.7191C51.0054 24.8126 49.7325 25.5196 48.4381 26.9398L48.8244 27.2916ZM45.9335 34.3003C45.9335 32.4601 46.7921 29.5217 48.8244 27.2916L48.4381 26.9398C46.3137 29.2709 45.411 32.3368 45.411 34.3003H45.9335ZM48.9319 41.662C47.8764 41.2782 47.1226 40.2569 46.6315 38.8874C46.1427 37.5243 45.9335 35.8658 45.9335 34.3003H45.411C45.411 35.9045 45.6245 37.627 46.1396 39.0637C46.6526 40.4941 47.4839 41.6915 48.7534 42.1529L48.9319 41.662ZM63.9188 41.867C60.8433 41.0187 58.7042 40.6425 56.5045 40.6425C54.3099 40.6426 52.0676 41.0174 48.793 41.651L48.8923 42.1639C52.1699 41.5297 54.3663 41.165 56.5045 41.1649C58.6377 41.1649 60.7258 41.5283 63.7798 42.3706L63.9188 41.867ZM66.2396 40.3285C66.0398 40.7061 65.782 41.1884 65.4043 41.5302C65.0426 41.8576 64.5763 42.0527 63.9204 41.8674L63.7782 42.37C64.6349 42.6122 65.2826 42.3452 65.755 41.9174C66.2114 41.5043 66.5079 40.9387 66.7015 40.5727L66.2396 40.3285ZM66.3701 40.0874C66.3294 40.1587 66.2854 40.242 66.2396 40.3285L66.7015 40.5727C66.7484 40.484 66.7882 40.409 66.8239 40.3466L66.3701 40.0874ZM66.9791 31.1993C68.1117 35.3565 67.0617 38.8776 66.3701 40.0874L66.8239 40.3466C67.5817 39.0207 68.6534 35.3573 67.4832 31.062L66.9791 31.1993ZM61.3444 28.8542C63.4498 28.5997 64.7193 28.7151 65.5257 29.113C66.3073 29.4985 66.6996 30.1738 66.9791 31.1993L67.4832 31.062C67.1868 29.9744 66.7338 29.1263 65.757 28.6445C64.8052 28.175 63.4034 28.0792 61.2817 28.3356L61.3444 28.8542ZM55.4375 26.4699C56.8139 27.6332 57.7602 28.3017 58.6328 28.6401C59.5203 28.9844 60.3099 28.9792 61.3444 28.8542L61.2817 28.3356C60.2798 28.4566 59.5912 28.4515 58.8219 28.1531C58.0378 27.849 57.1489 27.2323 55.7749 26.071L55.4375 26.4699ZM61.2312 31.146C62.6053 30.3612 63.8289 30.6731 64.7893 31.1529L65.0229 30.6856C63.9792 30.1642 62.557 29.7872 60.972 30.6925L61.2312 31.146ZM66.2011 34.4042C65.6406 33.1603 65.0785 32.297 64.2864 31.7083C63.494 31.1194 62.5026 30.8282 61.1335 30.66L61.0697 31.1785C62.4039 31.3423 63.2892 31.618 63.9747 32.1276C64.6606 32.6373 65.1774 33.4043 65.7247 34.6188L66.2011 34.4042ZM64.7893 31.1529C65.2322 31.3741 65.5116 31.7752 65.6569 32.344C65.8039 32.9195 65.8075 33.6487 65.7037 34.4792L66.2222 34.5439C66.3297 33.6841 66.3333 32.881 66.1632 32.2149C65.9915 31.5423 65.6368 30.9923 65.0229 30.6856L64.7893 31.1529Z" fill="#CBCBCB"/>
<path d="M76.3196 37.47C78.8559 37.47 79.7014 37.47 80.1241 37.47C81.3923 38.3153 82.0263 39.1605 84.9854 40.2171L86.4649 55.854L90.4808 44.2319H97.8785L101.683 55.854L104.008 36.8361L111.828 38.104L107.601 68.9552H99.9921L94.074 54.1636L88.5786 68.9552H80.7582L76.3196 37.47Z" fill="#C1C1C1" stroke="#C1C1C1"/>
<path fill-rule="evenodd" clip-rule="evenodd" d="M79.7015 38.9492C79.5658 37.1164 79.9128 36.4135 80.9696 35.9909C81.3987 35.8837 81.61 35.8308 81.8245 35.8048C82.0328 35.7796 82.2441 35.7796 82.6605 35.7796C84.7741 35.7796 85.6454 36.4612 86.2537 39.5831C86.4595 40.6397 86.6048 43.3863 86.6764 45.2885C86.6764 48.0355 84.7741 48.0355 84.7741 44.8658C84.7741 43.3867 84.3514 41.5309 83.9287 40.851C83.9012 40.8069 83.8772 40.765 83.8544 40.7254C83.6599 40.3864 83.5626 40.2171 82.2377 40.2171C80.7582 40.2171 79.7327 39.3717 79.7015 38.9492ZM82.5839 37.1129C83.651 36.8042 84.5483 37.5792 84.9854 39.5831C84.0405 38.6078 83.2588 38.348 82.3172 38.348C80.1826 38.348 81.5168 37.4217 82.5839 37.1129Z" fill="#F0F0F0"/>
<path d="M80.9696 35.9908L80.8429 35.484L80.8084 35.4926L80.7755 35.5058L80.9696 35.9908ZM86.6764 45.2885H87.1989V45.2787L87.1985 45.2689L86.6764 45.2885ZM84.9854 39.5831L84.61 39.9466L85.8869 41.2646L85.4959 39.4718L84.9854 39.5831ZM80.7755 35.5058C80.1632 35.7507 79.6836 36.1109 79.4103 36.7303C79.1544 37.3106 79.1112 38.0526 79.1804 38.9878L80.2225 38.9107C80.1561 38.0129 80.2186 37.4871 80.3664 37.1519C80.4969 36.8561 80.7191 36.6535 81.1636 36.4758L80.7755 35.5058ZM81.7616 35.2862C81.5073 35.317 81.2598 35.3799 80.8429 35.484L81.0963 36.4976C81.5374 36.3873 81.7125 36.3446 81.8874 36.3234L81.7616 35.2862ZM82.6604 35.2572C82.2559 35.2572 82.0083 35.2563 81.7616 35.2862L81.8874 36.3234C82.0572 36.3028 82.2322 36.302 82.6604 36.302V35.2572ZM86.7665 39.4832C86.4604 37.9122 86.0689 36.8223 85.3919 36.1421C84.6846 35.4315 83.7611 35.2572 82.6604 35.2572V36.302C83.6735 36.302 84.2424 36.4685 84.6512 36.8791C85.0903 37.3203 85.4386 38.1322 85.7408 39.683L86.7665 39.4832ZM87.1985 45.2689C87.1275 43.3834 86.9819 40.5889 86.7665 39.4832L85.7408 39.683C85.937 40.6904 86.082 43.3891 86.1542 45.3082L87.1985 45.2689ZM84.2516 44.8658C84.2516 45.7036 84.3763 46.3762 84.5935 46.8669C84.8 47.3334 85.1529 47.7579 85.6675 47.8151C86.2143 47.8758 86.6166 47.495 86.8409 47.0715C87.0724 46.6342 87.1989 46.0264 87.1989 45.2885H86.1539C86.1539 45.9241 86.0425 46.3464 85.9173 46.5827C85.785 46.8327 85.7117 46.7688 85.7829 46.7767C85.822 46.7811 85.6993 46.783 85.5491 46.4439C85.4097 46.1289 85.2966 45.6129 85.2966 44.8658H84.2516ZM83.4849 41.1268C83.6465 41.3868 83.8432 41.9469 83.9991 42.669C84.1515 43.3744 84.2516 44.1705 84.2516 44.8658H85.2966C85.2966 44.082 85.1853 43.2107 85.0206 42.4484C84.8596 41.7028 84.6334 40.9951 84.3724 40.5752L83.4849 41.1268ZM83.4012 40.9854C83.4235 41.0242 83.4518 41.0737 83.4849 41.1268L84.3724 40.5752C84.3505 40.5399 84.3308 40.5056 84.3076 40.4653L83.4012 40.9854ZM82.2377 40.7395C82.905 40.7395 83.1671 40.7862 83.2777 40.8298C83.3129 40.8438 83.3167 40.8514 83.3175 40.8523C83.331 40.8673 83.3469 40.8907 83.4012 40.9854L84.3076 40.4653C84.2647 40.3906 84.1954 40.2658 84.0945 40.1535C83.981 40.0275 83.8412 39.9291 83.6622 39.8583C83.3443 39.7327 82.8954 39.6947 82.2377 39.6947V40.7395ZM79.1804 38.9878C79.2009 39.2648 79.362 39.5041 79.5128 39.6732C79.6783 39.8588 79.8999 40.0366 80.1599 40.1908C80.6815 40.5003 81.3992 40.7395 82.2377 40.7395V39.6947C81.5967 39.6947 81.062 39.5112 80.6932 39.2923C80.5079 39.1824 80.3746 39.0697 80.2929 38.978C80.1964 38.8697 80.2177 38.8449 80.2225 38.9107L79.1804 38.9878ZM85.4959 39.4718C85.2678 38.4259 84.9039 37.6166 84.3874 37.1084C83.8394 36.5694 83.1524 36.4047 82.4387 36.6111L82.7291 37.6147C83.0825 37.5125 83.3776 37.5809 83.6545 37.8532C83.9625 38.1562 84.2659 38.7364 84.4748 39.6944L85.4959 39.4718ZM82.3171 38.8704C82.7368 38.8704 83.093 38.9277 83.4423 39.0791C83.7946 39.2317 84.1714 39.4938 84.61 39.9466L85.3607 39.2196C84.8545 38.6971 84.368 38.3416 83.8579 38.1205C83.3447 37.8982 82.8392 37.8256 82.3171 37.8256V38.8704ZM82.4387 36.6111C82.1364 36.6986 81.8186 36.8283 81.5439 36.9763C81.2868 37.1148 81.0012 37.3041 80.83 37.5353C80.7437 37.6517 80.6329 37.8514 80.6635 38.1019C80.6971 38.3777 80.8795 38.5539 81.0465 38.6505C81.2059 38.7428 81.3971 38.7934 81.5912 38.8237C81.7923 38.8552 82.0337 38.8704 82.3171 38.8704V37.8256C82.067 37.8256 81.8831 37.8119 81.7528 37.7915C81.6155 37.77 81.569 37.7458 81.5699 37.7463C81.5786 37.7513 81.6817 37.8189 81.7008 37.9753C81.7168 38.1064 81.6559 38.1758 81.6697 38.1571C81.6781 38.1458 81.7097 38.1108 81.7806 38.0577C81.848 38.0073 81.9357 37.9521 82.0397 37.896C82.2487 37.7835 82.4977 37.6817 82.7291 37.6147L82.4387 36.6111Z" fill="#F0F0F0"/>
</g>
<defs>
<clipPath id="clip0_131_60">
<rect width="111.818" height="70" fill="white" transform="translate(0.664062)"/>
</clipPath>
</defs>
</svg>
