<svg viewBox="0 0 48 48" fill="none" xmlns="http://www.w3.org/2000/svg">
<path d="M24 23.9985C25.1 23.9985 26.0417 23.6069 26.825 22.8235C27.6083 22.0402 28 21.0985 28 19.9985C28 18.8985 27.6083 17.9569 26.825 17.1735C26.0417 16.3902 25.1 15.9985 24 15.9985C22.9 15.9985 21.9583 16.3902 21.175 17.1735C20.3917 17.9569 20 18.8985 20 19.9985C20 21.0985 20.3917 22.0402 21.175 22.8235C21.9583 23.6069 22.9 23.9985 24 23.9985ZM24 38.6985C28.0667 34.9652 31.0833 31.5735 33.05 28.5235C35.0167 25.4735 36 22.7652 36 20.3985C36 16.7652 34.8417 13.7902 32.525 11.4735C30.2083 9.15687 27.3667 7.99854 24 7.99854C20.6333 7.99854 17.7917 9.15687 15.475 11.4735C13.1583 13.7902 12 16.7652 12 20.3985C12 22.7652 12.9833 25.4735 14.95 28.5235C16.9167 31.5735 19.9333 34.9652 24 38.6985ZM24 43.9985C18.6333 39.4319 14.625 35.1902 11.975 31.2735C9.325 27.3569 8 23.7319 8 20.3985C8 15.3985 9.60833 11.4152 12.825 8.44854C16.0417 5.48187 19.7667 3.99854 24 3.99854C28.2333 3.99854 31.9583 5.48187 35.175 8.44854C38.3917 11.4152 40 15.3985 40 20.3985C40 23.7319 38.675 27.3569 36.025 31.2735C33.375 35.1902 29.3667 39.4319 24 43.9985Z" fill="url(#paint0_linear_157_162)"/>
<defs>
<linearGradient id="paint0_linear_157_162" x1="24" y1="3.99854" x2="24" y2="43.9985" gradientUnits="userSpaceOnUse">
<stop stop-color="#2626FF"/>
<stop offset="0.0001" stop-color="#7373FF"/>
<stop offset="1" stop-color="#2626FF"/>
</linearGradient>
</defs>
</svg>
