<svg viewBox="0 0 18 19" xmlns="http://www.w3.org/2000/svg">
<path d="M9.75 8.7502V4.2502H11.25V6.2002L15 2.4502L16.05 3.5002L12.3 7.2502H14.25V8.7502H9.75ZM14.9625 16.2502C13.4 16.2502 11.8563 15.9096 10.3313 15.2283C8.80625 14.5471 7.41875 13.5814 6.16875 12.3314C4.91875 11.0814 3.95312 9.69394 3.27188 8.16894C2.59063 6.64395 2.25 5.1002 2.25 3.5377C2.25 3.3127 2.325 3.1252 2.475 2.9752C2.625 2.8252 2.8125 2.7502 3.0375 2.7502H6.075C6.25 2.7502 6.40625 2.80957 6.54375 2.92832C6.68125 3.04707 6.7625 3.1877 6.7875 3.3502L7.275 5.9752C7.3 6.17519 7.29375 6.34395 7.25625 6.48144C7.21875 6.61895 7.15 6.7377 7.05 6.8377L5.23125 8.67519C5.48125 9.13769 5.77813 9.58457 6.12188 10.0158C6.46563 10.4471 6.84375 10.8627 7.25625 11.2627C7.64375 11.6502 8.05 12.0096 8.475 12.3408C8.9 12.6721 9.35 12.9752 9.825 13.2502L11.5875 11.4877C11.7 11.3752 11.8469 11.2908 12.0281 11.2346C12.2094 11.1783 12.3875 11.1627 12.5625 11.1877L15.15 11.7127C15.325 11.7627 15.4688 11.8533 15.5813 11.9846C15.6938 12.1158 15.75 12.2627 15.75 12.4252V15.4627C15.75 15.6877 15.675 15.8752 15.525 16.0252C15.375 16.1752 15.1875 16.2502 14.9625 16.2502ZM4.51875 7.2502L5.75625 6.0127L5.4375 4.2502H3.76875C3.83125 4.7627 3.91875 5.26895 4.03125 5.76895C4.14375 6.26894 4.30625 6.76269 4.51875 7.2502ZM11.2313 13.9627C11.7188 14.1752 12.2156 14.3439 12.7219 14.4689C13.2281 14.5939 13.7375 14.6752 14.25 14.7127V13.0627L12.4875 12.7064L11.2313 13.9627Z" fill="black"/>
</svg>
