<svg viewBox="0 0 18 19" xmlns="http://www.w3.org/2000/svg">
<path d="M9 10.25L3 6.5V14H9.75V15.5H3C2.5875 15.5 2.23438 15.3531 1.94063 15.0594C1.64687 14.7656 1.5 14.4125 1.5 14V5C1.5 4.5875 1.64687 4.23438 1.94063 3.94063C2.23438 3.64687 2.5875 3.5 3 3.5H15C15.4125 3.5 15.7656 3.64687 16.0594 3.94063C16.3531 4.23438 16.5 4.5875 16.5 5V10.25H15V6.5L9 10.25ZM9 8.75L15 5H3L9 8.75ZM14.25 17.75L13.2 16.7L14.3813 15.5H11.25V14H14.3813L13.1813 12.8L14.25 11.75L17.25 14.75L14.25 17.75ZM3 6.5V14.75V10.25V10.3063V5V6.5Z" fill="black"/>
</svg>
