<svg width="80" height="80" viewBox="0 0 80 80" fill="none" xmlns="http://www.w3.org/2000/svg">
<path d="M10 70V23.3333H23.3333V10H56.6667V36.6667H70V70H43.3333V56.6667H36.6667V70H10ZM16.6667 63.3333H23.3333V56.6667H16.6667V63.3333ZM16.6667 50H23.3333V43.3333H16.6667V50ZM16.6667 36.6667H23.3333V30H16.6667V36.6667ZM30 50H36.6667V43.3333H30V50ZM30 36.6667H36.6667V30H30V36.6667ZM30 23.3333H36.6667V16.6667H30V23.3333ZM43.3333 50H50V43.3333H43.3333V50ZM43.3333 36.6667H50V30H43.3333V36.6667ZM43.3333 23.3333H50V16.6667H43.3333V23.3333ZM56.6667 63.3333H63.3333V56.6667H56.6667V63.3333ZM56.6667 50H63.3333V43.3333H56.6667V50Z" fill="url(#paint0_linear_219_7882)"/>
<defs>
<linearGradient id="paint0_linear_219_7882" x1="40" y1="10" x2="40" y2="70" gradientUnits="userSpaceOnUse">
<stop stop-color="#2626FF"/>
<stop offset="1" stop-color="#7D97F4"/>
</linearGradient>
</defs>
</svg>
