<svg width="141" height="141" viewBox="0 0 141 141" fill="none" xmlns="http://www.w3.org/2000/svg">
<path d="M35.25 119.5C32.0187 119.5 29.2526 118.349 26.9516 116.048C24.6505 113.747 23.5 110.981 23.5 107.75C23.5 104.519 24.6505 101.753 26.9516 99.4516C29.2526 97.1505 32.0187 96 35.25 96C38.4812 96 41.2474 97.1505 43.5484 99.4516C45.8495 101.753 47 104.519 47 107.75C47 110.981 45.8495 113.747 43.5484 116.048C41.2474 118.349 38.4812 119.5 35.25 119.5ZM35.25 84.25C32.0187 84.25 29.2526 83.0995 26.9516 80.7984C24.6505 78.4974 23.5 75.7313 23.5 72.5C23.5 69.2688 24.6505 66.5026 26.9516 64.2016C29.2526 61.9005 32.0187 60.75 35.25 60.75C38.4812 60.75 41.2474 61.9005 43.5484 64.2016C45.8495 66.5026 47 69.2688 47 72.5C47 75.7313 45.8495 78.4974 43.5484 80.7984C41.2474 83.0995 38.4812 84.25 35.25 84.25ZM35.25 49C32.0187 49 29.2526 47.8495 26.9516 45.5484C24.6505 43.2474 23.5 40.4813 23.5 37.25C23.5 34.0188 24.6505 31.2526 26.9516 28.9516C29.2526 26.6505 32.0187 25.5 35.25 25.5C38.4812 25.5 41.2474 26.6505 43.5484 28.9516C45.8495 31.2526 47 34.0188 47 37.25C47 40.4813 45.8495 43.2474 43.5484 45.5484C41.2474 47.8495 38.4812 49 35.25 49ZM70.5 49C67.2687 49 64.5026 47.8495 62.2016 45.5484C59.9005 43.2474 58.75 40.4813 58.75 37.25C58.75 34.0188 59.9005 31.2526 62.2016 28.9516C64.5026 26.6505 67.2687 25.5 70.5 25.5C73.7312 25.5 76.4974 26.6505 78.7984 28.9516C81.0995 31.2526 82.25 34.0188 82.25 37.25C82.25 40.4813 81.0995 43.2474 78.7984 45.5484C76.4974 47.8495 73.7312 49 70.5 49ZM105.75 49C102.519 49 99.7526 47.8495 97.4516 45.5484C95.1505 43.2474 94 40.4813 94 37.25C94 34.0188 95.1505 31.2526 97.4516 28.9516C99.7526 26.6505 102.519 25.5 105.75 25.5C108.981 25.5 111.747 26.6505 114.048 28.9516C116.349 31.2526 117.5 34.0188 117.5 37.25C117.5 40.4813 116.349 43.2474 114.048 45.5484C111.747 47.8495 108.981 49 105.75 49ZM70.5 84.25C67.2687 84.25 64.5026 83.0995 62.2016 80.7984C59.9005 78.4974 58.75 75.7313 58.75 72.5C58.75 69.2688 59.9005 66.5026 62.2016 64.2016C64.5026 61.9005 67.2687 60.75 70.5 60.75C73.7312 60.75 76.4974 61.9005 78.7984 64.2016C81.0995 66.5026 82.25 69.2688 82.25 72.5C82.25 75.7313 81.0995 78.4974 78.7984 80.7984C76.4974 83.0995 73.7312 84.25 70.5 84.25ZM76.375 119.5V101.434L108.834 69.1219C109.716 68.2406 110.695 67.6042 111.772 67.2125C112.849 66.8208 113.926 66.625 115.003 66.625C116.178 66.625 117.304 66.8453 118.381 67.2859C119.458 67.7266 120.437 68.3875 121.319 69.2688L126.753 74.7031C127.536 75.5844 128.148 76.5635 128.589 77.6406C129.03 78.7177 129.25 79.7948 129.25 80.8719C129.25 81.949 129.054 83.0505 128.662 84.1766C128.271 85.3026 127.634 86.3063 126.753 87.1875L94.4406 119.5H76.375ZM85.1875 110.688H90.7687L108.541 92.7688L105.897 89.9781L103.106 87.3344L85.1875 105.106V110.688ZM105.897 89.9781L103.106 87.3344L108.541 92.7688L105.897 89.9781Z" fill="url(#paint0_linear_293_170)"/>
<defs>
<linearGradient id="paint0_linear_293_170" x1="76.375" y1="25.5" x2="76.375" y2="119.5" gradientUnits="userSpaceOnUse">
<stop stop-color="#2626FF"/>
<stop offset="1" stop-color="#7D97F4"/>
</linearGradient>
</defs>
</svg>
