<svg width="80" height="80" viewBox="0 0 80 80" fill="none" xmlns="http://www.w3.org/2000/svg">
<path d="M33.3337 56.6667H63.3337V36.6667H33.3337V56.6667ZM13.3337 66.6667C11.5003 66.6667 9.93088 66.0139 8.62533 64.7084C7.31977 63.4028 6.66699 61.8334 6.66699 60V20C6.66699 18.1667 7.31977 16.5973 8.62533 15.2917C9.93088 13.9862 11.5003 13.3334 13.3337 13.3334H66.667C68.5003 13.3334 70.0698 13.9862 71.3753 15.2917C72.6809 16.5973 73.3337 18.1667 73.3337 20V60C73.3337 61.8334 72.6809 63.4028 71.3753 64.7084C70.0698 66.0139 68.5003 66.6667 66.667 66.6667H13.3337ZM13.3337 60H66.667V20H13.3337V60Z" fill="url(#paint0_linear_219_7692)"/>
<defs>
<linearGradient id="paint0_linear_219_7692" x1="40.0003" y1="13.3334" x2="40.0003" y2="66.6667" gradientUnits="userSpaceOnUse">
<stop stop-color="#2626FF"/>
<stop offset="1" stop-color="#7D97F4"/>
</linearGradient>
</defs>
</svg>
