<svg width="80" height="80" viewBox="0 0 80 80" fill="none" xmlns="http://www.w3.org/2000/svg">
<path d="M13.3337 73.3333C11.5003 73.3333 9.93088 72.6805 8.62533 71.375C7.31977 70.0694 6.66699 68.5 6.66699 66.6666V30C6.66699 28.1666 7.31977 26.5972 8.62533 25.2916C9.93088 23.9861 11.5003 23.3333 13.3337 23.3333H30.0003V13.3333C30.0003 11.5 30.6531 9.93051 31.9587 8.62496C33.2642 7.3194 34.8337 6.66663 36.667 6.66663H43.3337C45.167 6.66663 46.7364 7.3194 48.042 8.62496C49.3475 9.93051 50.0003 11.5 50.0003 13.3333V23.3333H66.667C68.5003 23.3333 70.0698 23.9861 71.3753 25.2916C72.6809 26.5972 73.3337 28.1666 73.3337 30V66.6666C73.3337 68.5 72.6809 70.0694 71.3753 71.375C70.0698 72.6805 68.5003 73.3333 66.667 73.3333H13.3337ZM13.3337 66.6666H66.667V30H50.0003C50.0003 31.8333 49.3475 33.4027 48.042 34.7083C46.7364 36.0138 45.167 36.6666 43.3337 36.6666H36.667C34.8337 36.6666 33.2642 36.0138 31.9587 34.7083C30.6531 33.4027 30.0003 31.8333 30.0003 30H13.3337V66.6666ZM20.0003 60H40.0003V58.5C40.0003 57.5555 39.7364 56.6805 39.2087 55.875C38.6809 55.0694 37.9448 54.4444 37.0003 54C35.8892 53.5 34.7642 53.125 33.6253 52.875C32.4864 52.625 31.2781 52.5 30.0003 52.5C28.7225 52.5 27.5142 52.625 26.3753 52.875C25.2364 53.125 24.1114 53.5 23.0003 54C22.0559 54.4444 21.3198 55.0694 20.792 55.875C20.2642 56.6805 20.0003 57.5555 20.0003 58.5V60ZM46.667 55H60.0003V50H46.667V55ZM30.0003 50C31.3892 50 32.5698 49.5138 33.542 48.5416C34.5142 47.5694 35.0003 46.3888 35.0003 45C35.0003 43.6111 34.5142 42.4305 33.542 41.4583C32.5698 40.4861 31.3892 40 30.0003 40C28.6114 40 27.4309 40.4861 26.4587 41.4583C25.4864 42.4305 25.0003 43.6111 25.0003 45C25.0003 46.3888 25.4864 47.5694 26.4587 48.5416C27.4309 49.5138 28.6114 50 30.0003 50ZM46.667 45H60.0003V40H46.667V45ZM36.667 30H43.3337V13.3333H36.667V30Z" fill="url(#paint0_linear_219_7873)"/>
<defs>
<linearGradient id="paint0_linear_219_7873" x1="40.0003" y1="6.66663" x2="40.0003" y2="73.3333" gradientUnits="userSpaceOnUse">
<stop stop-color="#2626FF"/>
<stop offset="1" stop-color="#7D97F4"/>
</linearGradient>
</defs>
</svg>
