<svg width="141" height="141" viewBox="0 0 141 141" fill="none" xmlns="http://www.w3.org/2000/svg">
<path d="M41.1875 118C37.9562 118 35.1901 116.849 32.8891 114.548C30.588 112.247 29.4375 109.481 29.4375 106.25V88.625H47.0625V75.4062C43.6354 75.2104 40.3797 74.4516 37.2953 73.1297C34.2109 71.8078 31.3958 69.825 28.85 67.1812V60.7188H22.0938L3 41.625C6.525 37.1208 10.8823 33.9385 16.0719 32.0781C21.2615 30.2177 26.5 29.2875 31.7875 29.2875C34.4312 29.2875 37.0016 29.4833 39.4984 29.875C41.9953 30.2667 44.5167 31.001 47.0625 32.0781V24H117.562V100.375C117.562 105.271 115.849 109.432 112.422 112.859C108.995 116.286 104.833 118 99.9375 118H41.1875ZM58.8125 88.625H94.0625V100.375C94.0625 102.04 94.6255 103.435 95.7516 104.561C96.8776 105.687 98.2729 106.25 99.9375 106.25C101.602 106.25 102.997 105.687 104.123 104.561C105.249 103.435 105.812 102.04 105.812 100.375V35.75H58.8125V39.275L94.0625 74.525V82.75H85.8375L69.0938 66.0062L67.9187 67.1812C66.5479 68.5521 65.1036 69.776 63.5859 70.8531C62.0682 71.9302 60.4771 72.7625 58.8125 73.35V88.625ZM27.0875 48.9687H40.6V61.6C41.775 62.3833 42.999 62.9219 44.2719 63.2156C45.5448 63.5094 46.8667 63.6562 48.2375 63.6562C50.4896 63.6562 52.5214 63.3135 54.3328 62.6281C56.1443 61.9427 57.9312 60.7188 59.6937 58.9562L60.8687 57.7812L52.6437 49.5562C49.8042 46.7167 46.6219 44.587 43.0969 43.1672C39.5719 41.7474 35.8021 41.0375 31.7875 41.0375C29.8292 41.0375 27.9687 41.1844 26.2062 41.4781C24.4437 41.7719 22.6812 42.2125 20.9187 42.8L27.0875 48.9687ZM82.3125 100.375H41.1875V106.25H83.1937C82.9 105.369 82.6797 104.439 82.5328 103.459C82.3859 102.48 82.3125 101.452 82.3125 100.375Z" fill="url(#paint0_linear_225_9906)"/>
<defs>
<linearGradient id="paint0_linear_225_9906" x1="60.2812" y1="24" x2="60.2813" y2="118" gradientUnits="userSpaceOnUse">
<stop stop-color="#2626FF"/>
<stop offset="1" stop-color="#7D97F4"/>
</linearGradient>
</defs>
</svg>
