<svg width="141" height="141" viewBox="0 0 141 141" fill="none" xmlns="http://www.w3.org/2000/svg">
<path d="M89.3811 115.732L68.5115 94.9075L75.3862 88.0475L89.3811 102.013L117.125 74.3275L124 81.1875L89.3811 115.732ZM116.389 67.1H106.568V42.6H96.7468V57.3H47.6419V42.6H37.821V111.2H67.2839V121H37.821C35.1202 121 32.8082 120.04 30.8849 118.121C28.9616 116.202 28 113.895 28 111.2V42.6C28 39.905 28.9616 37.5979 30.8849 35.6788C32.8082 33.7596 35.1202 32.8 37.821 32.8H58.3223C59.2225 29.9417 60.9821 27.5938 63.601 25.7563C66.22 23.9188 69.0844 23 72.1944 23C75.468 23 78.3939 23.9188 80.9719 25.7563C83.5499 27.5938 85.289 29.9417 86.1893 32.8H106.568C109.269 32.8 111.581 33.7596 113.504 35.6788C115.427 37.5979 116.389 39.905 116.389 42.6V67.1ZM72.1944 42.6C73.5857 42.6 74.7519 42.1304 75.6931 41.1912C76.6343 40.2521 77.1049 39.0883 77.1049 37.7C77.1049 36.3117 76.6343 35.1479 75.6931 34.2087C74.7519 33.2696 73.5857 32.8 72.1944 32.8C70.8031 32.8 69.6368 33.2696 68.6957 34.2087C67.7545 35.1479 67.2839 36.3117 67.2839 37.7C67.2839 39.0883 67.7545 40.2521 68.6957 41.1912C69.6368 42.1304 70.8031 42.6 72.1944 42.6Z" fill="url(#paint0_linear_225_9910)"/>
<defs>
<linearGradient id="paint0_linear_225_9910" x1="76" y1="23" x2="76" y2="121" gradientUnits="userSpaceOnUse">
<stop stop-color="#2626FF"/>
<stop offset="1" stop-color="#7D97F4"/>
</linearGradient>
</defs>
</svg>
