<svg width="141" height="141" viewBox="0 0 141 141" fill="none" xmlns="http://www.w3.org/2000/svg">
<path d="M71 73C66.8333 73 63.2917 71.5417 60.375 68.625C57.4583 65.7083 56 62.1667 56 58C56 53.8333 57.4583 50.2917 60.375 47.375C63.2917 44.4583 66.8333 43 71 43C75.1667 43 78.7083 44.4583 81.625 47.375C84.5417 50.2917 86 53.8333 86 58C86 62.1667 84.5417 65.7083 81.625 68.625C78.7083 71.5417 75.1667 73 71 73ZM41 123V84.375C37.8333 80.875 35.375 76.875 33.625 72.375C31.875 67.875 31 63.0833 31 58C31 46.8333 34.875 37.375 42.625 29.625C50.375 21.875 59.8333 18 71 18C82.1667 18 91.625 21.875 99.375 29.625C107.125 37.375 111 46.8333 111 58C111 63.0833 110.125 67.875 108.375 72.375C106.625 76.875 104.167 80.875 101 84.375V123L71 113L41 123ZM71 88C79.3333 88 86.4167 85.0833 92.25 79.25C98.0833 73.4167 101 66.3333 101 58C101 49.6667 98.0833 42.5833 92.25 36.75C86.4167 30.9167 79.3333 28 71 28C62.6667 28 55.5833 30.9167 49.75 36.75C43.9167 42.5833 41 49.6667 41 58C41 66.3333 43.9167 73.4167 49.75 79.25C55.5833 85.0833 62.6667 88 71 88ZM51 108.125L71 103L91 108.125V92.625C88.0833 94.2917 84.9375 95.6042 81.5625 96.5625C78.1875 97.5208 74.6667 98 71 98C67.3333 98 63.8125 97.5208 60.4375 96.5625C57.0625 95.6042 53.9167 94.2917 51 92.625V108.125Z" fill="url(#paint0_linear_225_9898)"/>
<defs>
<linearGradient id="paint0_linear_225_9898" x1="71" y1="18" x2="71" y2="123" gradientUnits="userSpaceOnUse">
<stop stop-color="#2626FF"/>
<stop offset="1" stop-color="#7D97F4"/>
</linearGradient>
</defs>
</svg>
