<svg width="141" height="141" viewBox="0 0 141 141" fill="none" xmlns="http://www.w3.org/2000/svg">
<path d="M86.6742 48.4924C85.6136 45.8409 84.0448 43.7639 81.9678 42.2614C79.8908 40.7588 77.3939 40.0076 74.4773 40.0076C72.8864 40.0076 71.3396 40.2285 69.8371 40.6705C68.3346 41.1124 66.9646 41.952 65.7273 43.1894L58.0379 35.5C59.2752 34.2626 60.9545 33.1357 63.0758 32.1193C65.197 31.1029 67.1414 30.4621 68.9091 30.197V19.0606H79.5151V29.9318C83.4924 30.7273 86.9836 32.3403 89.9886 34.7708C92.9937 37.2014 95.2475 40.3611 96.75 44.25L86.6742 48.4924ZM115.576 123L91.1818 98.6061C89.8561 99.9318 88.0442 101.015 85.7462 101.854C83.4482 102.694 81.3712 103.202 79.5151 103.379V114.515H68.9091V103.114C63.9596 101.876 59.8276 99.6225 56.5133 96.3523C53.1989 93.0821 50.7904 88.9722 49.2879 84.0227L59.8939 79.7803C60.9545 83.4924 62.7443 86.6742 65.2633 89.3258C67.7822 91.9773 71.1187 93.303 75.2727 93.303C76.8636 93.303 78.322 93.1042 79.6477 92.7064C80.9735 92.3087 82.2551 91.7121 83.4924 90.9167L18 25.4242L25.4242 18L123 115.576L115.576 123Z" fill="url(#paint0_linear_225_9902)"/>
<defs>
<linearGradient id="paint0_linear_225_9902" x1="70.5" y1="18" x2="70.5" y2="123" gradientUnits="userSpaceOnUse">
<stop stop-color="#2626FF"/>
<stop offset="1" stop-color="#7373FF"/>
<stop offset="1" stop-color="#7D97F4"/>
</linearGradient>
</defs>
</svg>
