<svg width="141" height="141" viewBox="0 0 141 141" fill="none" xmlns="http://www.w3.org/2000/svg">
<path d="M71 123C58.8375 119.937 48.7969 112.959 40.8781 102.066C32.9594 91.1719 29 79.075 29 65.775V33.75L71 18L113 33.75V65.775C113 73.2125 111.731 80.3656 109.194 87.2344C106.656 94.1031 103.025 100.162 98.3 105.412L81.5 88.6125C79.925 89.575 78.2406 90.2969 76.4469 90.7781C74.6531 91.2594 72.8375 91.5 71 91.5C65.225 91.5 60.2812 89.4437 56.1687 85.3312C52.0562 81.2187 50 76.275 50 70.5C50 64.725 52.0562 59.7812 56.1687 55.6687C60.2812 51.5562 65.225 49.5 71 49.5C76.775 49.5 81.7187 51.5562 85.8312 55.6687C89.9437 59.7812 92 64.725 92 70.5C92 72.425 91.7594 74.2844 91.2781 76.0781C90.7969 77.8719 90.075 79.6 89.1125 81.2625L96.9875 89.1375C98.7375 85.55 100.094 81.7875 101.056 77.85C102.019 73.9125 102.5 69.8875 102.5 65.775V40.9687L71 29.1562L39.5 40.9687V65.775C39.5 76.3625 42.475 85.9875 48.425 94.65C54.375 103.312 61.9 109.087 71 111.975C73.275 111.275 75.4406 110.378 77.4969 109.284C79.5531 108.191 81.5875 106.9 83.6 105.412L90.95 112.762C88.0625 115.125 84.9344 117.181 81.5656 118.931C78.1969 120.681 74.675 122.037 71 123ZM71 81C73.8875 81 76.3594 79.9719 78.4156 77.9156C80.4719 75.8594 81.5 73.3875 81.5 70.5C81.5 67.6125 80.4719 65.1406 78.4156 63.0844C76.3594 61.0281 73.8875 60 71 60C68.1125 60 65.6406 61.0281 63.5844 63.0844C61.5281 65.1406 60.5 67.6125 60.5 70.5C60.5 73.3875 61.5281 75.8594 63.5844 77.9156C65.6406 79.9719 68.1125 81 71 81Z" fill="url(#paint0_linear_225_9919)"/>
<defs>
<linearGradient id="paint0_linear_225_9919" x1="71" y1="18" x2="71" y2="123" gradientUnits="userSpaceOnUse">
<stop stop-color="#2626FF"/>
<stop offset="1" stop-color="#7D97F4"/>
</linearGradient>
</defs>
</svg>
