<svg width="28" height="28" viewBox="0 0 28 28" fill="black" xmlns="http://www.w3.org/2000/svg">
<path fill-rule="evenodd" clip-rule="evenodd" d="M13.9964 2.34082C10.8288 2.34082 10.4317 2.35425 9.18768 2.41101C7.94629 2.46763 7.09846 2.6648 6.35661 2.95313C5.58967 3.25114 4.93925 3.64994 4.29083 4.29831C3.64244 4.94675 3.24366 5.59716 2.94564 6.36411C2.65731 7.10595 2.46013 7.95378 2.40351 9.19517C2.34676 10.4392 2.33333 10.8363 2.33333 14.0038C2.33333 17.1712 2.34676 17.5685 2.40351 18.8125C2.46013 20.0538 2.65731 20.9016 2.94564 21.6435C3.24366 22.4105 3.64244 23.0609 4.29083 23.7093C4.93925 24.3577 5.58967 24.7564 6.35661 25.0545C7.09846 25.3428 7.94629 25.54 9.18768 25.5965C10.4317 25.6534 10.8288 25.6668 13.9964 25.6668C17.1638 25.6668 17.561 25.6534 18.8049 25.5965C20.0464 25.54 20.8942 25.3428 21.6361 25.0545C22.4029 24.7564 23.0533 24.3577 23.7018 23.7093C24.3502 23.0609 24.749 22.4105 25.047 21.6435C25.3353 20.9016 25.5325 20.0538 25.5891 18.8125C25.6459 17.5685 25.6593 17.1712 25.6593 14.0038C25.6593 10.8363 25.6459 10.4392 25.5891 9.19517C25.5325 7.95378 25.3353 7.10595 25.047 6.36411C24.749 5.59716 24.3502 4.94675 23.7018 4.29831C23.0533 3.64994 22.4029 3.25114 21.6361 2.95313C20.8942 2.6648 20.0464 2.46763 18.8049 2.41101C17.561 2.35425 17.1638 2.34082 13.9964 2.34082ZM13.9964 4.44226C17.1104 4.44226 17.4793 4.45416 18.7091 4.51026C19.8463 4.56212 20.4638 4.75211 20.8748 4.91184C21.4192 5.12341 21.8077 5.37614 22.2158 5.78428C22.624 6.1924 22.8767 6.58091 23.0883 7.12531C23.248 7.53628 23.438 8.15383 23.4899 9.29096C23.546 10.5208 23.5579 10.8897 23.5579 14.0038C23.5579 17.1179 23.546 17.4868 23.4899 18.7166C23.438 19.8537 23.248 20.4714 23.0883 20.8823C22.8767 21.4266 22.624 21.8153 22.2158 22.2234C21.8077 22.6315 21.4192 22.8842 20.8748 23.0958C20.4638 23.2555 19.8463 23.4454 18.7091 23.4974C17.4796 23.5535 17.1107 23.5654 13.9964 23.5654C10.8819 23.5654 10.5131 23.5535 9.28346 23.4974C8.14634 23.4454 7.52879 23.2555 7.11782 23.0958C6.57343 22.8842 6.1849 22.6315 5.7768 22.2234C5.3687 21.8153 5.11592 21.4266 4.90435 20.8823C4.74463 20.4714 4.55463 19.8537 4.50277 18.7166C4.44666 17.4868 4.43476 17.1179 4.43476 14.0038C4.43476 10.8897 4.44666 10.5208 4.50277 9.29096C4.55463 8.15383 4.74463 7.53628 4.90435 7.12531C5.11592 6.58091 5.36866 6.1924 5.7768 5.78428C6.1849 5.37614 6.57343 5.12341 7.11782 4.91184C7.52879 4.75211 8.14634 4.56212 9.28346 4.51026C10.5133 4.45416 10.8822 4.44226 13.9964 4.44226Z"/>
<path fill-rule="evenodd" clip-rule="evenodd" d="M13.9963 17.8915C11.8491 17.8915 10.1086 16.1508 10.1086 14.0038C10.1086 11.8566 11.8491 10.1161 13.9963 10.1161C16.1434 10.1161 17.8839 11.8566 17.8839 14.0038C17.8839 16.1508 16.1434 17.8915 13.9963 17.8915ZM13.9963 8.01465C10.6885 8.01465 8.00716 10.696 8.00716 14.0038C8.00716 17.3115 10.6885 19.9929 13.9963 19.9929C17.304 19.9929 19.9853 17.3115 19.9853 14.0038C19.9853 10.696 17.304 8.01465 13.9963 8.01465Z"/>
<path fill-rule="evenodd" clip-rule="evenodd" d="M21.6216 7.7785C21.6216 8.55146 20.995 9.17803 20.222 9.17803C19.449 9.17803 18.8224 8.55146 18.8224 7.7785C18.8224 7.00553 19.449 6.37891 20.222 6.37891C20.995 6.37891 21.6216 7.00553 21.6216 7.7785Z"/>
</svg>
